<?xml version="1.0" encoding="UTF-8" standalone="no"?>
<!DOCTYPE svg PUBLIC "-//W3C//DTD SVG 1.1//EN"
 "http://www.w3.org/Graphics/SVG/1.1/DTD/svg11.dtd">
<!-- Generated by graphviz version 2.43.0 (0)
 -->
<!-- Title: IEEE::_1588::PTP::_2019::PathTraceTLV Pages: 1 -->
<svg width="118pt" height="68pt"
 viewBox="0.00 0.00 118.00 68.00" xmlns="http://www.w3.org/2000/svg" xmlns:xlink="http://www.w3.org/1999/xlink">
<g id="graph0" class="graph" transform="scale(1 1) rotate(0) translate(4 64)">
<title>IEEE::_1588::PTP::_2019::PathTraceTLV</title>
<!-- Node1 -->
<g id="Node000001" class="node">
<title>Node1</title>
<g id="a_Node000001"><a xlink:title="PATH_TRACE TLV (IEEE 1588&#45;2019 Section 16.2.3)">
<polygon fill="#999999" stroke="transparent" points="110,-60 0,-60 0,0 110,0 110,-60"/>
<text text-anchor="start" x="5" y="-48" font-family="Helvetica,sans-Serif" font-size="10.00">IEEE::_1588::PTP::</text>
<text text-anchor="start" x="5" y="-37" font-family="Helvetica,sans-Serif" font-size="10.00">_2019::PathTraceTLV</text>
<text text-anchor="start" x="5.5" y="-22" font-family="Helvetica,sans-Serif" font-size="10.00">+</text>
<text text-anchor="start" x="20" y="-22" font-family="Helvetica,sans-Serif" font-size="10.00">pathSequence</text>
<text text-anchor="start" x="5.5" y="-7" font-family="Helvetica,sans-Serif" font-size="10.00">+</text>
<text text-anchor="start" x="20" y="-7" font-family="Helvetica,sans-Serif" font-size="10.00">get_path_count()</text>
<polygon fill="#666666" stroke="#666666" points="0,-32 0,-32 110,-32 110,-32 0,-32"/>
<polygon fill="#666666" stroke="#666666" points="0,-17 0,-17 18,-17 18,-17 0,-17"/>
<polygon fill="#666666" stroke="#666666" points="18,-17 18,-17 110,-17 110,-17 18,-17"/>
<polygon fill="none" stroke="#666666" points="0,0 0,-60 110,-60 110,0 0,0"/>
</a>
</g>
</g>
</g>
</svg>
