<?xml version="1.0" encoding="UTF-8" standalone="no"?>
<!DOCTYPE svg PUBLIC "-//W3C//DTD SVG 1.1//EN"
 "http://www.w3.org/Graphics/SVG/1.1/DTD/svg11.dtd">
<!-- Generated by graphviz version 2.43.0 (0)
 -->
<!-- Title: IEEE::_1588::PTP::_2019::MessageFlowCoordinator::start Pages: 1 -->
<svg width="556pt" height="341pt"
 viewBox="0.00 0.00 556.00 341.00" xmlns="http://www.w3.org/2000/svg" xmlns:xlink="http://www.w3.org/1999/xlink">
<g id="graph0" class="graph" transform="scale(1 1) rotate(0) translate(4 337)">
<title>IEEE::_1588::PTP::_2019::MessageFlowCoordinator::start</title>
<!-- Node1 -->
<g id="Node000001" class="node">
<title>Node1</title>
<g id="a_Node000001"><a xlink:title="Start message flow processing.">
<polygon fill="#999999" stroke="#666666" points="176,-185 0,-185 0,-144 176,-144 176,-185"/>
<text text-anchor="start" x="8" y="-173" font-family="Helvetica,sans-Serif" font-size="10.00">IEEE::_1588::PTP::</text>
<text text-anchor="start" x="8" y="-162" font-family="Helvetica,sans-Serif" font-size="10.00">_2019::MessageFlowCoordinator</text>
<text text-anchor="middle" x="88" y="-151" font-family="Helvetica,sans-Serif" font-size="10.00">::start</text>
</a>
</g>
</g>
<!-- Node2 -->
<g id="Node000002" class="node">
<title>Node2</title>
<g id="a_Node000002"><a xlink:href="../../dd/dfa/structIEEE_1_1__1588_1_1PTP_1_1__2019_1_1MessageFlowStatistics.html#a7fcab8981886294922a06111e39c35e0" target="_top" xlink:title="Reset all statistics to initial state.">
<polygon fill="white" stroke="#666666" points="377,-333 213,-333 213,-292 377,-292 377,-333"/>
<text text-anchor="start" x="221" y="-321" font-family="Helvetica,sans-Serif" font-size="10.00">IEEE::_1588::PTP::</text>
<text text-anchor="start" x="221" y="-310" font-family="Helvetica,sans-Serif" font-size="10.00">_2019::MessageFlowStatistics</text>
<text text-anchor="middle" x="295" y="-299" font-family="Helvetica,sans-Serif" font-size="10.00">::reset</text>
</a>
</g>
</g>
<!-- Node1&#45;&gt;Node2 -->
<g id="edge1_Node000001_Node000002" class="edge">
<title>Node1&#45;&gt;Node2</title>
<g id="a_edge1_Node000001_Node000002"><a xlink:title=" ">
<path fill="none" stroke="#63b8ff" d="M105.62,-185.38C127.49,-211.61 168.3,-256.44 212,-283.5 214.19,-284.86 216.45,-286.16 218.77,-287.41"/>
<polygon fill="#63b8ff" stroke="#63b8ff" points="217.41,-290.65 227.92,-292 220.55,-284.39 217.41,-290.65"/>
</a>
</g>
</g>
<!-- Node3 -->
<g id="Node000003" class="node">
<title>Node3</title>
<g id="a_Node000003"><a xlink:href="../../d0/d08/classIEEE_1_1__1588_1_1PTP_1_1__2019_1_1servo_1_1ServoIntegration.html#aabd54cad2e3027849bff8e76ecfc195a" target="_top" xlink:title="Start servo controller.">
<polygon fill="white" stroke="#666666" points="378,-274 212,-274 212,-233 378,-233 378,-274"/>
<text text-anchor="start" x="220" y="-262" font-family="Helvetica,sans-Serif" font-size="10.00">IEEE::_1588::PTP::</text>
<text text-anchor="start" x="220" y="-251" font-family="Helvetica,sans-Serif" font-size="10.00">_2019::servo::ServoIntegration</text>
<text text-anchor="middle" x="295" y="-240" font-family="Helvetica,sans-Serif" font-size="10.00">::start</text>
</a>
</g>
</g>
<!-- Node1&#45;&gt;Node3 -->
<g id="edge2_Node000001_Node000003" class="edge">
<title>Node1&#45;&gt;Node3</title>
<g id="a_edge2_Node000001_Node000003"><a xlink:title=" ">
<path fill="none" stroke="#63b8ff" d="M128.36,-185.12C152.24,-197.27 183.51,-212.56 212,-224.5 215.84,-226.11 219.8,-227.71 223.82,-229.28"/>
<polygon fill="#63b8ff" stroke="#63b8ff" points="222.66,-232.58 233.25,-232.89 225.16,-226.05 222.66,-232.58"/>
</a>
</g>
</g>
<!-- Node4 -->
<g id="Node000004" class="node">
<title>Node4</title>
<g id="a_Node000004"><a xlink:href="../../d1/db2/classIEEE_1_1__1588_1_1PTP_1_1__2019_1_1Integration_1_1BMCAIntegration.html#a697fef5b98bc6c79c858bd428419018c" target="_top" xlink:title="Start BMCA execution coordination.">
<polygon fill="white" stroke="#666666" points="359,-215 231,-215 231,-174 359,-174 359,-215"/>
<text text-anchor="start" x="239" y="-203" font-family="Helvetica,sans-Serif" font-size="10.00">IEEE::_1588::PTP::</text>
<text text-anchor="start" x="239" y="-192" font-family="Helvetica,sans-Serif" font-size="10.00">_2019::Integration::</text>
<text text-anchor="middle" x="295" y="-181" font-family="Helvetica,sans-Serif" font-size="10.00">BMCAIntegration::start</text>
</a>
</g>
</g>
<!-- Node1&#45;&gt;Node4 -->
<g id="edge3_Node000001_Node000004" class="edge">
<title>Node1&#45;&gt;Node4</title>
<g id="a_edge3_Node000001_Node000004"><a xlink:title=" ">
<path fill="none" stroke="#63b8ff" d="M176.24,-177.27C190.97,-179.42 206.13,-181.64 220.47,-183.74"/>
<polygon fill="#63b8ff" stroke="#63b8ff" points="220.34,-187.26 230.75,-185.24 221.36,-180.33 220.34,-187.26"/>
</a>
</g>
</g>
<!-- Node8 -->
<g id="Node000008" class="node">
<title>Node8</title>
<g id="a_Node000008"><a xlink:href="../../d1/d29/classIEEE_1_1__1588_1_1PTP_1_1__2019_1_1SyncIntegration.html#ab18dedbcb23a91f6f1a9f541124ed6f2" target="_top" xlink:title="Start synchronization monitoring.">
<polygon fill="white" stroke="#666666" points="359,-48 231,-48 231,-7 359,-7 359,-48"/>
<text text-anchor="start" x="239" y="-36" font-family="Helvetica,sans-Serif" font-size="10.00">IEEE::_1588::PTP::</text>
<text text-anchor="start" x="239" y="-25" font-family="Helvetica,sans-Serif" font-size="10.00">_2019::SyncIntegration</text>
<text text-anchor="middle" x="295" y="-14" font-family="Helvetica,sans-Serif" font-size="10.00">::start</text>
</a>
</g>
</g>
<!-- Node1&#45;&gt;Node8 -->
<g id="edge7_Node000001_Node000008" class="edge">
<title>Node1&#45;&gt;Node8</title>
<g id="a_edge7_Node000001_Node000008"><a xlink:title=" ">
<path fill="none" stroke="#63b8ff" d="M108.1,-143.83C130.88,-120.2 171.05,-81.67 212,-57.5 215.03,-55.71 218.18,-54 221.41,-52.37"/>
<polygon fill="#63b8ff" stroke="#63b8ff" points="223.14,-55.42 230.68,-47.98 220.15,-49.1 223.14,-55.42"/>
</a>
</g>
</g>
<!-- Node10 -->
<g id="Node000010" class="node">
<title>Node10</title>
<g id="a_Node000010"><a xlink:href="../../d1/db2/classIEEE_1_1__1588_1_1PTP_1_1__2019_1_1Integration_1_1BMCAIntegration.html#abf258a80286cd66856b3bcf5ecdfd38f" target="_top" xlink:title="Stop BMCA execution coordination.">
<polygon fill="white" stroke="#666666" points="358,-156 232,-156 232,-115 358,-115 358,-156"/>
<text text-anchor="start" x="240" y="-144" font-family="Helvetica,sans-Serif" font-size="10.00">IEEE::_1588::PTP::</text>
<text text-anchor="start" x="240" y="-133" font-family="Helvetica,sans-Serif" font-size="10.00">_2019::Integration::</text>
<text text-anchor="middle" x="295" y="-122" font-family="Helvetica,sans-Serif" font-size="10.00">BMCAIntegration::stop</text>
</a>
</g>
</g>
<!-- Node1&#45;&gt;Node10 -->
<g id="edge11_Node000001_Node000010" class="edge">
<title>Node1&#45;&gt;Node10</title>
<g id="a_edge11_Node000001_Node000010"><a xlink:title=" ">
<path fill="none" stroke="#63b8ff" d="M176.24,-152.16C191.47,-150 207.15,-147.79 221.92,-145.7"/>
<polygon fill="#63b8ff" stroke="#63b8ff" points="222.56,-149.14 231.97,-144.27 221.58,-142.21 222.56,-149.14"/>
</a>
</g>
</g>
<!-- Node11 -->
<g id="Node000011" class="node">
<title>Node11</title>
<g id="a_Node000011"><a xlink:href="../../d1/d29/classIEEE_1_1__1588_1_1PTP_1_1__2019_1_1SyncIntegration.html#a98e298d19a63703bf3b6c4360228b2ce" target="_top" xlink:title="Stop synchronization monitoring.">
<polygon fill="white" stroke="#666666" points="372.5,-96.5 217.5,-96.5 217.5,-66.5 372.5,-66.5 372.5,-96.5"/>
<text text-anchor="start" x="225.5" y="-84.5" font-family="Helvetica,sans-Serif" font-size="10.00">IEEE::_1588::PTP::</text>
<text text-anchor="middle" x="295" y="-73.5" font-family="Helvetica,sans-Serif" font-size="10.00">_2019::SyncIntegration::stop</text>
</a>
</g>
</g>
<!-- Node1&#45;&gt;Node11 -->
<g id="edge14_Node000001_Node000011" class="edge">
<title>Node1&#45;&gt;Node11</title>
<g id="a_edge14_Node000001_Node000011"><a xlink:title=" ">
<path fill="none" stroke="#63b8ff" d="M128.8,-143.94C152.58,-132.11 183.59,-117.46 212,-106.5 218.16,-104.12 224.64,-101.82 231.16,-99.64"/>
<polygon fill="#63b8ff" stroke="#63b8ff" points="232.26,-102.96 240.68,-96.53 230.09,-96.3 232.26,-102.96"/>
</a>
</g>
</g>
<!-- Node5 -->
<g id="Node000005" class="node">
<title>Node5</title>
<g id="a_Node000005"><a xlink:href="../../df/d1f/classIEEE_1_1__1588_1_1PTP_1_1__2019_1_1Types_1_1PTPResult.html#ab098752bb1a00689c62a2f0f0a258f21" target="_top" xlink:title="Create error result (static method)">
<polygon fill="white" stroke="#666666" points="548,-159 414,-159 414,-118 548,-118 548,-159"/>
<text text-anchor="start" x="422" y="-147" font-family="Helvetica,sans-Serif" font-size="10.00">IEEE::_1588::PTP::</text>
<text text-anchor="start" x="422" y="-136" font-family="Helvetica,sans-Serif" font-size="10.00">_2019::Types::PTPResult</text>
<text text-anchor="middle" x="481" y="-125" font-family="Helvetica,sans-Serif" font-size="10.00">::failure</text>
</a>
</g>
</g>
<!-- Node4&#45;&gt;Node5 -->
<g id="edge4_Node000004_Node000005" class="edge">
<title>Node4&#45;&gt;Node5</title>
<g id="a_edge4_Node000004_Node000005"><a xlink:title=" ">
<path fill="none" stroke="#63b8ff" d="M359.06,-175.31C373.57,-170.89 389.15,-166.15 404.14,-161.59"/>
<polygon fill="#63b8ff" stroke="#63b8ff" points="405.33,-164.88 413.88,-158.62 403.3,-158.19 405.33,-164.88"/>
</a>
</g>
</g>
<!-- Node6 -->
<g id="Node000006" class="node">
<title>Node6</title>
<g id="a_Node000006"><a xlink:href="../../dc/d50/structIEEE_1_1__1588_1_1PTP_1_1__2019_1_1Integration_1_1BMCAStatistics.html#a4a413139463eaddfec90d17e5e85d811" target="_top" xlink:title="Reset all statistics to initial state.">
<polygon fill="white" stroke="#666666" points="542,-218 420,-218 420,-177 542,-177 542,-218"/>
<text text-anchor="start" x="428" y="-206" font-family="Helvetica,sans-Serif" font-size="10.00">IEEE::_1588::PTP::</text>
<text text-anchor="start" x="428" y="-195" font-family="Helvetica,sans-Serif" font-size="10.00">_2019::Integration::</text>
<text text-anchor="middle" x="481" y="-184" font-family="Helvetica,sans-Serif" font-size="10.00">BMCAStatistics::reset</text>
</a>
</g>
</g>
<!-- Node4&#45;&gt;Node6 -->
<g id="edge5_Node000004_Node000006" class="edge">
<title>Node4&#45;&gt;Node6</title>
<g id="a_edge5_Node000004_Node000006"><a xlink:title=" ">
<path fill="none" stroke="#63b8ff" d="M359.06,-195.53C375.35,-195.79 392.98,-196.08 409.61,-196.35"/>
<polygon fill="#63b8ff" stroke="#63b8ff" points="409.76,-199.86 419.81,-196.52 409.87,-192.86 409.76,-199.86"/>
</a>
</g>
</g>
<!-- Node7 -->
<g id="Node000007" class="node">
<title>Node7</title>
<g id="a_Node000007"><a xlink:href="../../df/d1f/classIEEE_1_1__1588_1_1PTP_1_1__2019_1_1Types_1_1PTPResult.html#a873027aad818e35452ddab7583b7a7e5" target="_top" xlink:title="Create successful result (static method)">
<polygon fill="white" stroke="#666666" points="548,-100 414,-100 414,-59 548,-59 548,-100"/>
<text text-anchor="start" x="422" y="-88" font-family="Helvetica,sans-Serif" font-size="10.00">IEEE::_1588::PTP::</text>
<text text-anchor="start" x="422" y="-77" font-family="Helvetica,sans-Serif" font-size="10.00">_2019::Types::PTPResult</text>
<text text-anchor="middle" x="481" y="-66" font-family="Helvetica,sans-Serif" font-size="10.00">::success</text>
</a>
</g>
</g>
<!-- Node4&#45;&gt;Node7 -->
<g id="edge6_Node000004_Node000007" class="edge">
<title>Node4&#45;&gt;Node7</title>
<g id="a_edge6_Node000004_Node000007"><a xlink:title=" ">
<path fill="none" stroke="#63b8ff" d="M359.18,-177.09C365.88,-173.83 372.32,-170 378,-165.5 401.2,-147.13 391.62,-128.85 414,-109.5 415.5,-108.2 417.06,-106.95 418.68,-105.75"/>
<polygon fill="#63b8ff" stroke="#63b8ff" points="420.76,-108.56 427.13,-100.09 416.87,-102.75 420.76,-108.56"/>
</a>
</g>
</g>
<!-- Node8&#45;&gt;Node5 -->
<g id="edge8_Node000008_Node000005" class="edge">
<title>Node8&#45;&gt;Node5</title>
<g id="a_edge8_Node000008_Node000005"><a xlink:title=" ">
<path fill="none" stroke="#63b8ff" d="M359.03,-45.92C365.76,-49.21 372.24,-53.05 378,-57.5 400.24,-74.69 392.31,-91.62 414,-109.5 415.15,-110.45 416.33,-111.37 417.54,-112.26"/>
<polygon fill="#63b8ff" stroke="#63b8ff" points="415.64,-115.2 425.91,-117.81 419.51,-109.37 415.64,-115.2"/>
</a>
</g>
</g>
<!-- Node8&#45;&gt;Node7 -->
<g id="edge10_Node000008_Node000007" class="edge">
<title>Node8&#45;&gt;Node7</title>
<g id="a_edge10_Node000008_Node000007"><a xlink:title=" ">
<path fill="none" stroke="#63b8ff" d="M359.06,-45.32C373.57,-49.42 389.15,-53.82 404.14,-58.06"/>
<polygon fill="#63b8ff" stroke="#63b8ff" points="403.31,-61.46 413.88,-60.81 405.21,-54.73 403.31,-61.46"/>
</a>
</g>
</g>
<!-- Node9 -->
<g id="Node000009" class="node">
<title>Node9</title>
<g id="a_Node000009"><a xlink:href="../../df/d62/structIEEE_1_1__1588_1_1PTP_1_1__2019_1_1SyncStatistics.html#a92e9c6824fc6deee001a6484407d6712" target="_top" xlink:title="Reset all statistics to initial state.">
<polygon fill="white" stroke="#666666" points="541,-41 421,-41 421,0 541,0 541,-41"/>
<text text-anchor="start" x="429" y="-29" font-family="Helvetica,sans-Serif" font-size="10.00">IEEE::_1588::PTP::</text>
<text text-anchor="start" x="429" y="-18" font-family="Helvetica,sans-Serif" font-size="10.00">_2019::SyncStatistics</text>
<text text-anchor="middle" x="481" y="-7" font-family="Helvetica,sans-Serif" font-size="10.00">::reset</text>
</a>
</g>
</g>
<!-- Node8&#45;&gt;Node9 -->
<g id="edge9_Node000008_Node000009" class="edge">
<title>Node8&#45;&gt;Node9</title>
<g id="a_edge9_Node000008_Node000009"><a xlink:title=" ">
<path fill="none" stroke="#63b8ff" d="M359.06,-25.1C375.61,-24.47 393.54,-23.79 410.4,-23.15"/>
<polygon fill="#63b8ff" stroke="#63b8ff" points="410.88,-26.63 420.74,-22.75 410.61,-19.64 410.88,-26.63"/>
</a>
</g>
</g>
<!-- Node10&#45;&gt;Node5 -->
<g id="edge12_Node000010_Node000005" class="edge">
<title>Node10&#45;&gt;Node5</title>
<g id="a_edge12_Node000010_Node000005"><a xlink:title=" ">
<path fill="none" stroke="#63b8ff" d="M358.04,-136.51C372.62,-136.75 388.32,-137.01 403.46,-137.25"/>
<polygon fill="#63b8ff" stroke="#63b8ff" points="403.77,-140.76 413.82,-137.42 403.88,-133.76 403.77,-140.76"/>
</a>
</g>
</g>
<!-- Node10&#45;&gt;Node7 -->
<g id="edge13_Node000010_Node000007" class="edge">
<title>Node10&#45;&gt;Node7</title>
<g id="a_edge13_Node000010_Node000007"><a xlink:title=" ">
<path fill="none" stroke="#63b8ff" d="M358.04,-116.62C372.76,-112.14 388.63,-107.31 403.89,-102.66"/>
<polygon fill="#63b8ff" stroke="#63b8ff" points="405.27,-105.9 413.82,-99.64 403.24,-99.2 405.27,-105.9"/>
</a>
</g>
</g>
<!-- Node11&#45;&gt;Node5 -->
<g id="edge15_Node000011_Node000005" class="edge">
<title>Node11&#45;&gt;Node5</title>
<g id="a_edge15_Node000011_Node000005"><a xlink:title=" ">
<path fill="none" stroke="#63b8ff" d="M345.45,-96.51C356.19,-99.78 367.48,-103.25 378,-106.5 386.72,-109.2 395.86,-112.04 404.93,-114.87"/>
<polygon fill="#63b8ff" stroke="#63b8ff" points="404.14,-118.29 414.73,-117.94 406.23,-111.61 404.14,-118.29"/>
</a>
</g>
</g>
<!-- Node11&#45;&gt;Node7 -->
<g id="edge16_Node000011_Node000007" class="edge">
<title>Node11&#45;&gt;Node7</title>
<g id="a_edge16_Node000011_Node000007"><a xlink:title=" ">
<path fill="none" stroke="#63b8ff" d="M372.7,-80.67C382.98,-80.55 393.52,-80.44 403.79,-80.33"/>
<polygon fill="#63b8ff" stroke="#63b8ff" points="403.99,-83.83 413.96,-80.22 403.92,-76.83 403.99,-83.83"/>
</a>
</g>
</g>
</g>
</svg>
