<?xml version="1.0" encoding="UTF-8" standalone="no"?>
<!DOCTYPE svg PUBLIC "-//W3C//DTD SVG 1.1//EN"
 "http://www.w3.org/Graphics/SVG/1.1/DTD/svg11.dtd">
<!-- Generated by graphviz version 2.43.0 (0)
 -->
<!-- Title: IEEE::_1588::PTP::_2019::MessageFlowCoordinator::get_health_status Pages: 1 -->
<svg width="386pt" height="167pt"
 viewBox="0.00 0.00 386.00 167.00" xmlns="http://www.w3.org/2000/svg" xmlns:xlink="http://www.w3.org/1999/xlink">
<g id="graph0" class="graph" transform="scale(1 1) rotate(0) translate(4 163)">
<title>IEEE::_1588::PTP::_2019::MessageFlowCoordinator::get_health_status</title>
<!-- Node1 -->
<g id="Node000001" class="node">
<title>Node1</title>
<g id="a_Node000001"><a xlink:title="Get message flow health status.">
<polygon fill="#999999" stroke="#666666" points="176,-100 0,-100 0,-59 176,-59 176,-100"/>
<text text-anchor="start" x="8" y="-88" font-family="Helvetica,sans-Serif" font-size="10.00">IEEE::_1588::PTP::</text>
<text text-anchor="start" x="8" y="-77" font-family="Helvetica,sans-Serif" font-size="10.00">_2019::MessageFlowCoordinator</text>
<text text-anchor="middle" x="88" y="-66" font-family="Helvetica,sans-Serif" font-size="10.00">::get_health_status</text>
</a>
</g>
</g>
<!-- Node2 -->
<g id="Node000002" class="node">
<title>Node2</title>
<g id="a_Node000002"><a xlink:href="../../d0/d08/classIEEE_1_1__1588_1_1PTP_1_1__2019_1_1servo_1_1ServoIntegration.html#a9e15fe2136a63652a8407e4294b35fbc" target="_top" xlink:title="Check if servo is running.">
<polygon fill="white" stroke="#666666" points="378,-159 212,-159 212,-118 378,-118 378,-159"/>
<text text-anchor="start" x="220" y="-147" font-family="Helvetica,sans-Serif" font-size="10.00">IEEE::_1588::PTP::</text>
<text text-anchor="start" x="220" y="-136" font-family="Helvetica,sans-Serif" font-size="10.00">_2019::servo::ServoIntegration</text>
<text text-anchor="middle" x="295" y="-125" font-family="Helvetica,sans-Serif" font-size="10.00">::is_running</text>
</a>
</g>
</g>
<!-- Node1&#45;&gt;Node2 -->
<g id="edge1_Node000001_Node000002" class="edge">
<title>Node1&#45;&gt;Node2</title>
<g id="a_edge1_Node000001_Node000002"><a xlink:title=" ">
<path fill="none" stroke="#63b8ff" d="M160.41,-100.05C177.22,-104.89 195.26,-110.08 212.47,-115.04"/>
<polygon fill="#63b8ff" stroke="#63b8ff" points="211.92,-118.52 222.5,-117.92 213.86,-111.79 211.92,-118.52"/>
</a>
</g>
</g>
<!-- Node3 -->
<g id="Node000003" class="node">
<title>Node3</title>
<g id="a_Node000003"><a xlink:href="../../d1/db2/classIEEE_1_1__1588_1_1PTP_1_1__2019_1_1Integration_1_1BMCAIntegration.html#a4b8318d3c3a2e3201671f7a4c6df34a1" target="_top" xlink:title="Check if coordinator is running.">
<polygon fill="white" stroke="#666666" points="372.5,-100 217.5,-100 217.5,-59 372.5,-59 372.5,-100"/>
<text text-anchor="start" x="225.5" y="-88" font-family="Helvetica,sans-Serif" font-size="10.00">IEEE::_1588::PTP::</text>
<text text-anchor="start" x="225.5" y="-77" font-family="Helvetica,sans-Serif" font-size="10.00">_2019::Integration::</text>
<text text-anchor="middle" x="295" y="-66" font-family="Helvetica,sans-Serif" font-size="10.00">BMCAIntegration::is_running</text>
</a>
</g>
</g>
<!-- Node1&#45;&gt;Node3 -->
<g id="edge2_Node000001_Node000003" class="edge">
<title>Node1&#45;&gt;Node3</title>
<g id="a_edge2_Node000001_Node000003"><a xlink:title=" ">
<path fill="none" stroke="#63b8ff" d="M176.24,-79.5C186.45,-79.5 196.88,-79.5 207.09,-79.5"/>
<polygon fill="#63b8ff" stroke="#63b8ff" points="207.21,-83 217.21,-79.5 207.21,-76 207.21,-83"/>
</a>
</g>
</g>
<!-- Node4 -->
<g id="Node000004" class="node">
<title>Node4</title>
<g id="a_Node000004"><a xlink:href="../../d1/d29/classIEEE_1_1__1588_1_1PTP_1_1__2019_1_1SyncIntegration.html#ab76ea592edad58be82bd3505dc9f503d" target="_top" xlink:title="Check if coordinator is running.">
<polygon fill="white" stroke="#666666" points="359,-41 231,-41 231,0 359,0 359,-41"/>
<text text-anchor="start" x="239" y="-29" font-family="Helvetica,sans-Serif" font-size="10.00">IEEE::_1588::PTP::</text>
<text text-anchor="start" x="239" y="-18" font-family="Helvetica,sans-Serif" font-size="10.00">_2019::SyncIntegration</text>
<text text-anchor="middle" x="295" y="-7" font-family="Helvetica,sans-Serif" font-size="10.00">::is_running</text>
</a>
</g>
</g>
<!-- Node1&#45;&gt;Node4 -->
<g id="edge3_Node000001_Node000004" class="edge">
<title>Node1&#45;&gt;Node4</title>
<g id="a_edge3_Node000001_Node000004"><a xlink:title=" ">
<path fill="none" stroke="#63b8ff" d="M160.41,-58.95C179.98,-53.31 201.23,-47.2 220.89,-41.54"/>
<polygon fill="#63b8ff" stroke="#63b8ff" points="222.07,-44.84 230.71,-38.72 220.13,-38.12 222.07,-44.84"/>
</a>
</g>
</g>
</g>
</svg>
