<?xml version="1.0" encoding="UTF-8" standalone="no"?>
<!DOCTYPE svg PUBLIC "-//W3C//DTD SVG 1.1//EN"
 "http://www.w3.org/Graphics/SVG/1.1/DTD/svg11.dtd">
<!-- Generated by graphviz version 2.43.0 (0)
 -->
<!-- Title: IEEE::_1588::PTP::_2019::servo::ServoHealthStatus Pages: 1 -->
<svg width="178pt" height="366pt"
 viewBox="0.00 0.00 178.00 366.00" xmlns="http://www.w3.org/2000/svg" xmlns:xlink="http://www.w3.org/1999/xlink">
<g id="graph0" class="graph" transform="scale(1 1) rotate(0) translate(4 362)">
<title>IEEE::_1588::PTP::_2019::servo::ServoHealthStatus</title>
<!-- Node1 -->
<g id="Node000001" class="node">
<title>Node1</title>
<g id="a_Node000001"><a xlink:title="Servo health and status information.">
<polygon fill="#999999" stroke="transparent" points="170,-165 0,-165 0,0 170,0 170,-165"/>
<text text-anchor="start" x="5" y="-152.5" font-family="Helvetica,sans-Serif" font-size="10.00">IEEE::_1588::PTP::</text>
<text text-anchor="start" x="5" y="-141.5" font-family="Helvetica,sans-Serif" font-size="10.00">_2019::servo::ServoHealthStatus</text>
<text text-anchor="start" x="7" y="-126.5" font-family="Helvetica,sans-Serif" font-size="10.00">+</text>
<text text-anchor="start" x="23" y="-126.5" font-family="Helvetica,sans-Serif" font-size="10.00">state</text>
<text text-anchor="start" x="7" y="-111.5" font-family="Helvetica,sans-Serif" font-size="10.00">+</text>
<text text-anchor="start" x="23" y="-111.5" font-family="Helvetica,sans-Serif" font-size="10.00">timestamp_ns</text>
<text text-anchor="start" x="7" y="-96.5" font-family="Helvetica,sans-Serif" font-size="10.00">+</text>
<text text-anchor="start" x="23" y="-96.5" font-family="Helvetica,sans-Serif" font-size="10.00">adjustments_active</text>
<text text-anchor="start" x="7" y="-81.5" font-family="Helvetica,sans-Serif" font-size="10.00">+</text>
<text text-anchor="start" x="23" y="-81.5" font-family="Helvetica,sans-Serif" font-size="10.00">frequency_stable</text>
<text text-anchor="start" x="7" y="-66.5" font-family="Helvetica,sans-Serif" font-size="10.00">+</text>
<text text-anchor="start" x="23" y="-66.5" font-family="Helvetica,sans-Serif" font-size="10.00">phase_locked</text>
<text text-anchor="start" x="7" y="-51.5" font-family="Helvetica,sans-Serif" font-size="10.00">+</text>
<text text-anchor="start" x="23" y="-51.5" font-family="Helvetica,sans-Serif" font-size="10.00">within_spec</text>
<text text-anchor="start" x="7" y="-36.5" font-family="Helvetica,sans-Serif" font-size="10.00">+</text>
<text text-anchor="start" x="23" y="-36.5" font-family="Helvetica,sans-Serif" font-size="10.00">time_since_last_update_ms</text>
<text text-anchor="start" x="7" y="-21.5" font-family="Helvetica,sans-Serif" font-size="10.00">+</text>
<text text-anchor="start" x="23" y="-21.5" font-family="Helvetica,sans-Serif" font-size="10.00">time_in_current_state_ms</text>
<text text-anchor="start" x="83" y="-6.5" font-family="Helvetica,sans-Serif" font-size="10.00"> </text>
<polygon fill="#666666" stroke="#666666" points="0,-136.5 0,-136.5 170,-136.5 170,-136.5 0,-136.5"/>
<polygon fill="#666666" stroke="#666666" points="0,-16.5 0,-16.5 21,-16.5 21,-16.5 0,-16.5"/>
<polygon fill="#666666" stroke="#666666" points="21,-16.5 21,-16.5 170,-16.5 170,-16.5 21,-16.5"/>
<polygon fill="none" stroke="#666666" points="0,0 0,-165 170,-165 170,0 0,0"/>
</a>
</g>
</g>
<!-- Node2 -->
<g id="Node000002" class="node">
<title>Node2</title>
<g id="a_Node000002"><a xlink:title=" ">
<polygon fill="white" stroke="transparent" points="114.5,-261 55.5,-261 55.5,-212 114.5,-212 114.5,-261"/>
<text text-anchor="start" x="61" y="-248.5" font-family="Helvetica,sans-Serif" font-size="10.00">std::string</text>
<text text-anchor="start" x="83.5" y="-233.5" font-family="Helvetica,sans-Serif" font-size="10.00"> </text>
<text text-anchor="start" x="83.5" y="-218.5" font-family="Helvetica,sans-Serif" font-size="10.00"> </text>
<polygon fill="#666666" stroke="#666666" points="56,-243.5 56,-243.5 115,-243.5 115,-243.5 56,-243.5"/>
<polygon fill="#666666" stroke="#666666" points="56,-228.5 56,-228.5 115,-228.5 115,-228.5 56,-228.5"/>
<polygon fill="none" stroke="#666666" points="55.5,-212 55.5,-261 114.5,-261 114.5,-212 55.5,-212"/>
</a>
</g>
</g>
<!-- Node2&#45;&gt;Node1 -->
<g id="edge1_Node000001_Node000002" class="edge">
<title>Node2&#45;&gt;Node1</title>
<g id="a_edge1_Node000001_Node000002"><a xlink:title=" ">
<path fill="none" stroke="#63b8ff" d="M85,-211.75C85,-202.01 85,-190.04 85,-177.37"/>
<polygon fill="none" stroke="#63b8ff" points="85,-177.06 81,-171.06 85,-165.06 89,-171.06 85,-177.06"/>
</a>
</g>
<text text-anchor="middle" x="113" y="-186" font-family="Helvetica,sans-Serif" font-size="10.00" fill="grey"> +message</text>
</g>
<!-- Node3 -->
<g id="Node000003" class="node">
<title>Node3</title>
<g id="a_Node000003"><a xlink:title=" ">
<polygon fill="white" stroke="transparent" points="134,-358 36,-358 36,-298 134,-298 134,-358"/>
<text text-anchor="start" x="41" y="-346" font-family="Helvetica,sans-Serif" font-size="10.00">std::basic_string&lt;</text>
<text text-anchor="start" x="66.5" y="-335" font-family="Helvetica,sans-Serif" font-size="10.00"> Char &gt;</text>
<text text-anchor="start" x="83" y="-320" font-family="Helvetica,sans-Serif" font-size="10.00"> </text>
<text text-anchor="start" x="83" y="-305" font-family="Helvetica,sans-Serif" font-size="10.00"> </text>
<polygon fill="#666666" stroke="#666666" points="36,-330 36,-330 134,-330 134,-330 36,-330"/>
<polygon fill="#666666" stroke="#666666" points="36,-315 36,-315 134,-315 134,-315 36,-315"/>
<polygon fill="none" stroke="#666666" points="36,-298 36,-358 134,-358 134,-298 36,-298"/>
</a>
</g>
</g>
<!-- Node3&#45;&gt;Node2 -->
<g id="edge2_Node000002_Node000003" class="edge">
<title>Node3&#45;&gt;Node2</title>
<g id="a_edge2_Node000002_Node000003"><a xlink:title=" ">
<path fill="none" stroke="#63b8ff" d="M85,-287.41C85,-278.47 85,-269.25 85,-261.21"/>
<polygon fill="none" stroke="#63b8ff" points="81.5,-287.69 85,-297.69 88.5,-287.69 81.5,-287.69"/>
</a>
</g>
</g>
</g>
</svg>
