<?xml version="1.0" encoding="UTF-8" standalone="no"?>
<!DOCTYPE svg PUBLIC "-//W3C//DTD SVG 1.1//EN"
 "http://www.w3.org/Graphics/SVG/1.1/DTD/svg11.dtd">
<!-- Generated by graphviz version 2.43.0 (0)
 -->
<!-- Title: /home/runner/work/IEEE_1588_2019/IEEE_1588_2019/src/clocks.cpp Pages: 1 -->
<!--zoomable 302 -->

<svg id="main" version="1.1" xmlns="http://www.w3.org/2000/svg" xmlns:xlink="http://www.w3.org/1999/xlink" xml:space="preserve" onload="init(evt)">
<style type="text/css"><![CDATA[
.node, .edge {opacity: 0.7;}
.node.selected, .edge.selected {opacity: 1;}
.edge:hover path { stroke: red; }
.edge:hover polygon { stroke: red; fill: red; }
]]></style>

<defs>
  <circle id="rim" cx="0" cy="0" r="7"/>
  <circle id="rim2" cx="0" cy="0" r="3.5"/>
  <g id="zoomPlus">
    <use xlink:href="#rim" fill="#404040"><set attributeName="fill" to="#808080" begin="zoomplus.mouseover" end="zoomplus.mouseout"/></use>
    <path d="M-4,0h8M0,-4v8" fill="none" stroke="white" stroke-width="1.5" pointer-events="none"/>
  </g>
  <g id="zoomMin">
    <use xlink:href="#rim" fill="#404040"><set attributeName="fill" to="#808080" begin="zoomminus.mouseover" end="zoomminus.mouseout"/></use>
    <path d="M-4,0h8" fill="none" stroke="white" stroke-width="1.5" pointer-events="none"/>
  </g>
  <g id="arrowUp" transform="translate(30 24)">
    <use xlink:href="#rim"/>
    <path pointer-events="none" fill="none" stroke="white" stroke-width="1.5" d="M0,-3.0v7 M-2.5,-0.5L0,-3.0L2.5,-0.5"/>
  </g>
  <g id="arrowRight" transform="rotate(90) translate(36 -43)">
    <use xlink:href="#rim"/>
    <path pointer-events="none" fill="none" stroke="white" stroke-width="1.5" d="M0,-3.0v7 M-2.5,-0.5L0,-3.0L2.5,-0.5"/>
  </g>
  <g id="arrowDown" transform="rotate(180) translate(-30 -48)">
    <use xlink:href="#rim"/>
    <path pointer-events="none" fill="none" stroke="white" stroke-width="1.5" d="M0,-3.0v7 M-2.5,-0.5L0,-3.0L2.5,-0.5"/>
  </g>
  <g id="arrowLeft" transform="rotate(270) translate(-36 17)">
    <use xlink:href="#rim"/>
    <path pointer-events="none" fill="none" stroke="white" stroke-width="1.5" d="M0,-3.0v7 M-2.5,-0.5L0,-3.0L2.5,-0.5"/>
  </g>
  <g id="resetDef">
    <use xlink:href="#rim2" fill="#404040"><set attributeName="fill" to="#808080" begin="reset.mouseover" end="reset.mouseout"/></use>
  </g>
</defs>
<script type="application/ecmascript">
var viewWidth = 841;
var viewHeight = 302;
var sectionId = 'dynsection-0';
</script>
<script type="application/ecmascript" xlink:href="../../svg.min.js"/>
<svg id="graph" class="graph">
<g id="viewport">
<title>/home/runner/work/IEEE_1588_2019/IEEE_1588_2019/src/clocks.cpp</title>
<!-- Node1 -->
<g id="Node000001" class="node">
<title>Node1</title>
<g id="a_Node000001"><a xlink:title="IEEE 1588&#45;2019 PTP Clock State Machines Implementation.">
<polygon fill="#999999" stroke="#666666" points="705.62,-294 547.62,-294 547.62,-253 705.62,-253 705.62,-294"/>
<text text-anchor="start" x="555.62" y="-282" font-family="Helvetica,sans-Serif" font-size="10.00">/home/runner/work/IEEE</text>
<text text-anchor="start" x="555.62" y="-271" font-family="Helvetica,sans-Serif" font-size="10.00">_1588_2019/IEEE_1588_2019</text>
<text text-anchor="middle" x="626.62" y="-260" font-family="Helvetica,sans-Serif" font-size="10.00">/src/clocks.cpp</text>
</a>
</g>
</g>
<!-- Node2 -->
<g id="Node000002" class="node">
<title>Node2</title>
<g id="a_Node000002"><a xlink:href="../../dd/dc5/clocks_8hpp.html" target="_top" xlink:title="IEEE 1588&#45;2019 PTP Clock State Machines Implementation.">
<polygon fill="white" stroke="#666666" points="454.62,-211.5 338.62,-211.5 338.62,-192.5 454.62,-192.5 454.62,-211.5"/>
<text text-anchor="middle" x="396.62" y="-199.5" font-family="Helvetica,sans-Serif" font-size="10.00">../include/clocks.hpp</text>
</a>
</g>
</g>
<!-- Node1&#45;&gt;Node2 -->
<g id="edge1_Node000001_Node000002" class="edge">
<title>Node1&#45;&gt;Node2</title>
<g id="a_edge1_Node000001_Node000002"><a xlink:title=" ">
<path fill="none" stroke="#63b8ff" d="M561.94,-252.96C520.83,-240.53 469.02,-224.88 434.47,-214.44"/>
<polygon fill="#63b8ff" stroke="#63b8ff" points="435.35,-211.05 424.76,-211.5 433.32,-217.75 435.35,-211.05"/>
</a>
</g>
</g>
<!-- Node8 -->
<g id="Node000008" class="node">
<title>Node8</title>
<g id="a_Node000008"><a xlink:title=" ">
<polygon fill="#e0e0e0" stroke="#999999" points="708.62,-145.5 658.62,-145.5 658.62,-126.5 708.62,-126.5 708.62,-145.5"/>
<text text-anchor="middle" x="683.62" y="-133.5" font-family="Helvetica,sans-Serif" font-size="10.00">cstring</text>
</a>
</g>
</g>
<!-- Node1&#45;&gt;Node8 -->
<g id="edge30_Node000001_Node000008" class="edge">
<title>Node1&#45;&gt;Node8</title>
<g id="a_edge30_Node000001_Node000008"><a xlink:title=" ">
<path fill="none" stroke="#63b8ff" d="M612.54,-252.84C601.53,-234.84 589.89,-207.9 601.62,-187 607.74,-176.11 634.78,-160.84 656.16,-150.05"/>
<polygon fill="#63b8ff" stroke="#63b8ff" points="657.79,-153.15 665.2,-145.58 654.68,-146.87 657.79,-153.15"/>
</a>
</g>
</g>
<!-- Node15 -->
<g id="Node000015" class="node">
<title>Node15</title>
<g id="a_Node000015"><a xlink:title=" ">
<polygon fill="#e0e0e0" stroke="#999999" points="730.12,-217 611.12,-217 611.12,-187 730.12,-187 730.12,-217"/>
<text text-anchor="start" x="619.12" y="-205" font-family="Helvetica,sans-Serif" font-size="10.00">../05&#45;implementation</text>
<text text-anchor="middle" x="670.62" y="-194" font-family="Helvetica,sans-Serif" font-size="10.00">/src/bmca.hpp</text>
</a>
</g>
</g>
<!-- Node1&#45;&gt;Node15 -->
<g id="edge29_Node000001_Node000015" class="edge">
<title>Node1&#45;&gt;Node15</title>
<g id="a_edge29_Node000001_Node000015"><a xlink:title=" ">
<path fill="none" stroke="#63b8ff" d="M639.11,-252.77C644.47,-244.31 650.76,-234.38 656.3,-225.63"/>
<polygon fill="#63b8ff" stroke="#63b8ff" points="659.34,-227.36 661.74,-217.04 653.43,-223.62 659.34,-227.36"/>
</a>
</g>
</g>
<!-- Node16 -->
<g id="Node000016" class="node">
<title>Node16</title>
<g id="a_Node000016"><a xlink:title=" ">
<polygon fill="#e0e0e0" stroke="#999999" points="812.62,-211.5 748.62,-211.5 748.62,-192.5 812.62,-192.5 812.62,-211.5"/>
<text text-anchor="middle" x="780.62" y="-199.5" font-family="Helvetica,sans-Serif" font-size="10.00">algorithm</text>
</a>
</g>
</g>
<!-- Node1&#45;&gt;Node16 -->
<g id="edge31_Node000001_Node000016" class="edge">
<title>Node1&#45;&gt;Node16</title>
<g id="a_edge31_Node000001_Node000016"><a xlink:title=" ">
<path fill="none" stroke="#63b8ff" d="M669.93,-252.96C696.4,-241.01 729.48,-226.08 752.55,-215.67"/>
<polygon fill="#63b8ff" stroke="#63b8ff" points="754.11,-218.81 761.78,-211.5 751.23,-212.43 754.11,-218.81"/>
</a>
</g>
</g>
<!-- Node3 -->
<g id="Node000003" class="node">
<title>Node3</title>
<g id="a_Node000003"><a xlink:href="../../dd/de3/types_8hpp.html" target="_top" xlink:title="IEEE 1588&#45;2019 PTP v2.1 fundamental data types and constants.">
<polygon fill="white" stroke="#666666" points="194.12,-85 81.12,-85 81.12,-55 194.12,-55 194.12,-85"/>
<text text-anchor="start" x="89.12" y="-73" font-family="Helvetica,sans-Serif" font-size="10.00">IEEE/1588/PTP/2019</text>
<text text-anchor="middle" x="137.62" y="-62" font-family="Helvetica,sans-Serif" font-size="10.00">/types.hpp</text>
</a>
</g>
</g>
<!-- Node2&#45;&gt;Node3 -->
<g id="edge2_Node000002_Node000003" class="edge">
<title>Node2&#45;&gt;Node3</title>
<g id="a_edge2_Node000002_Node000003"><a xlink:title=" ">
<path fill="none" stroke="#63b8ff" d="M338.25,-200.1C291.63,-196.61 226.84,-185.24 181.62,-151 163.16,-137.01 151.44,-112.93 144.78,-94.83"/>
<polygon fill="#63b8ff" stroke="#63b8ff" points="148.05,-93.58 141.51,-85.24 141.42,-95.83 148.05,-93.58"/>
</a>
</g>
</g>
<!-- Node4 -->
<g id="Node000004" class="node">
<title>Node4</title>
<g id="a_Node000004"><a xlink:title=" ">
<polygon fill="#e0e0e0" stroke="#999999" points="323.62,-19 273.62,-19 273.62,0 323.62,0 323.62,-19"/>
<text text-anchor="middle" x="298.62" y="-7" font-family="Helvetica,sans-Serif" font-size="10.00">cstdint</text>
</a>
</g>
</g>
<!-- Node2&#45;&gt;Node4 -->
<g id="edge10_Node000002_Node000004" class="edge">
<title>Node2&#45;&gt;Node4</title>
<g id="a_edge10_Node000002_Node000004"><a xlink:title=" ">
<path fill="none" stroke="#63b8ff" d="M390.19,-192.4C373.24,-169.64 327.99,-107.99 317.62,-85 309.41,-66.79 304.3,-44.41 301.48,-28.96"/>
<polygon fill="#63b8ff" stroke="#63b8ff" points="304.93,-28.37 299.82,-19.09 298.03,-29.53 304.93,-28.37"/>
</a>
</g>
</g>
<!-- Node5 -->
<g id="Node000005" class="node">
<title>Node5</title>
<g id="a_Node000005"><a xlink:title=" ">
<polygon fill="#e0e0e0" stroke="#999999" points="83.62,-19 41.62,-19 41.62,0 83.62,0 83.62,-19"/>
<text text-anchor="middle" x="62.62" y="-7" font-family="Helvetica,sans-Serif" font-size="10.00">array</text>
</a>
</g>
</g>
<!-- Node2&#45;&gt;Node5 -->
<g id="edge12_Node000002_Node000005" class="edge">
<title>Node2&#45;&gt;Node5</title>
<g id="a_edge12_Node000002_Node000005"><a xlink:title=" ">
<path fill="none" stroke="#63b8ff" d="M338.47,-197.62C236.19,-191.07 32.84,-175.15 11.62,-151 -20.8,-114.09 22.62,-54.94 47.44,-26.62"/>
<polygon fill="#63b8ff" stroke="#63b8ff" points="50.05,-28.96 54.16,-19.19 44.86,-24.26 50.05,-28.96"/>
</a>
</g>
</g>
<!-- Node7 -->
<g id="Node000007" class="node">
<title>Node7</title>
<g id="a_Node000007"><a xlink:href="../../d4/d64/messages_8hpp.html" target="_top" xlink:title="IEEE 1588&#45;2019 PTP Message Format Structures.">
<polygon fill="white" stroke="#666666" points="134.12,-151 21.12,-151 21.12,-121 134.12,-121 134.12,-151"/>
<text text-anchor="start" x="29.12" y="-139" font-family="Helvetica,sans-Serif" font-size="10.00">IEEE/1588/PTP/2019</text>
<text text-anchor="middle" x="77.62" y="-128" font-family="Helvetica,sans-Serif" font-size="10.00">/messages.hpp</text>
</a>
</g>
</g>
<!-- Node2&#45;&gt;Node7 -->
<g id="edge6_Node000002_Node000007" class="edge">
<title>Node2&#45;&gt;Node7</title>
<g id="a_edge6_Node000002_Node000007"><a xlink:title=" ">
<path fill="none" stroke="#63b8ff" d="M353.93,-192.44C300.19,-181.65 207.27,-163.01 144.17,-150.35"/>
<polygon fill="#63b8ff" stroke="#63b8ff" points="144.81,-146.91 134.31,-148.37 143.43,-153.77 144.81,-146.91"/>
</a>
</g>
</g>
<!-- Node2&#45;&gt;Node8 -->
<g id="edge11_Node000002_Node000008" class="edge">
<title>Node2&#45;&gt;Node8</title>
<g id="a_edge11_Node000002_Node000008"><a xlink:title=" ">
<path fill="none" stroke="#63b8ff" d="M450.37,-192.49C500.97,-183.94 578.62,-169.39 644.62,-151 647.05,-150.32 649.54,-149.57 652.03,-148.78"/>
<polygon fill="#63b8ff" stroke="#63b8ff" points="653.18,-152.08 661.53,-145.56 650.93,-145.45 653.18,-152.08"/>
</a>
</g>
</g>
<!-- Node9 -->
<g id="Node000009" class="node">
<title>Node9</title>
<g id="a_Node000009"><a xlink:href="../../d6/da3/logger_8hpp.html" target="_top" xlink:title=" ">
<polygon fill="white" stroke="#666666" points="330.12,-145.5 191.12,-145.5 191.12,-126.5 330.12,-126.5 330.12,-145.5"/>
<text text-anchor="middle" x="260.62" y="-133.5" font-family="Helvetica,sans-Serif" font-size="10.00">Common/utils/logger.hpp</text>
</a>
</g>
</g>
<!-- Node2&#45;&gt;Node9 -->
<g id="edge13_Node000002_Node000009" class="edge">
<title>Node2&#45;&gt;Node9</title>
<g id="a_edge13_Node000002_Node000009"><a xlink:title=" ">
<path fill="none" stroke="#63b8ff" d="M378.28,-192.37C355.16,-181.49 315.21,-162.69 288.35,-150.05"/>
<polygon fill="#63b8ff" stroke="#63b8ff" points="289.65,-146.79 279.11,-145.7 286.67,-153.12 289.65,-146.79"/>
</a>
</g>
</g>
<!-- Node10 -->
<g id="Node000010" class="node">
<title>Node10</title>
<g id="a_Node000010"><a xlink:href="../../d4/d35/fault__injection_8hpp.html" target="_top" xlink:title=" ">
<polygon fill="white" stroke="#666666" points="638.62,-85 528.62,-85 528.62,-55 638.62,-55 638.62,-85"/>
<text text-anchor="start" x="536.62" y="-73" font-family="Helvetica,sans-Serif" font-size="10.00">Common/utils/fault</text>
<text text-anchor="middle" x="583.62" y="-62" font-family="Helvetica,sans-Serif" font-size="10.00">_injection.hpp</text>
</a>
</g>
</g>
<!-- Node2&#45;&gt;Node10 -->
<g id="edge15_Node000002_Node000010" class="edge">
<title>Node2&#45;&gt;Node10</title>
<g id="a_edge15_Node000002_Node000010"><a xlink:title=" ">
<path fill="none" stroke="#63b8ff" d="M454.77,-200.39C494.28,-196.68 544.49,-184.9 573.62,-151 586.62,-135.88 588.25,-112.82 587.14,-95.33"/>
<polygon fill="#63b8ff" stroke="#63b8ff" points="590.61,-94.91 586.17,-85.29 583.64,-95.58 590.61,-94.91"/>
</a>
</g>
</g>
<!-- Node12 -->
<g id="Node000012" class="node">
<title>Node12</title>
<g id="a_Node000012"><a xlink:href="../../d4/d44/metrics_8hpp.html" target="_top" xlink:title=" ">
<polygon fill="white" stroke="#666666" points="472.62,-79.5 326.62,-79.5 326.62,-60.5 472.62,-60.5 472.62,-79.5"/>
<text text-anchor="middle" x="399.62" y="-67.5" font-family="Helvetica,sans-Serif" font-size="10.00">Common/utils/metrics.hpp</text>
</a>
</g>
</g>
<!-- Node2&#45;&gt;Node12 -->
<g id="edge18_Node000002_Node000012" class="edge">
<title>Node2&#45;&gt;Node12</title>
<g id="a_edge18_Node000002_Node000012"><a xlink:title=" ">
<path fill="none" stroke="#63b8ff" d="M396.82,-192.47C397.3,-171.82 398.52,-118.72 399.18,-90.04"/>
<polygon fill="#63b8ff" stroke="#63b8ff" points="402.69,-89.81 399.42,-79.73 395.69,-89.65 402.69,-89.81"/>
</a>
</g>
</g>
<!-- Node13 -->
<g id="Node000013" class="node">
<title>Node13</title>
<g id="a_Node000013"><a xlink:href="../../de/d18/health_8hpp.html" target="_top" xlink:title=" ">
<polygon fill="white" stroke="#666666" points="564.62,-145.5 424.62,-145.5 424.62,-126.5 564.62,-126.5 564.62,-145.5"/>
<text text-anchor="middle" x="494.62" y="-133.5" font-family="Helvetica,sans-Serif" font-size="10.00">Common/utils/health.hpp</text>
</a>
</g>
</g>
<!-- Node2&#45;&gt;Node13 -->
<g id="edge22_Node000002_Node000013" class="edge">
<title>Node2&#45;&gt;Node13</title>
<g id="a_edge22_Node000002_Node000013"><a xlink:title=" ">
<path fill="none" stroke="#63b8ff" d="M409.84,-192.37C425.99,-181.82 453.53,-163.84 472.83,-151.23"/>
<polygon fill="#63b8ff" stroke="#63b8ff" points="474.84,-154.1 481.3,-145.7 471.02,-148.24 474.84,-154.1"/>
</a>
</g>
</g>
<!-- Node14 -->
<g id="Node000014" class="node">
<title>Node14</title>
<g id="a_Node000014"><a xlink:href="../../d8/dfd/config_8hpp.html" target="_top" xlink:title=" ">
<polygon fill="white" stroke="#666666" points="832.62,-79.5 694.62,-79.5 694.62,-60.5 832.62,-60.5 832.62,-79.5"/>
<text text-anchor="middle" x="763.62" y="-67.5" font-family="Helvetica,sans-Serif" font-size="10.00">Common/utils/config.hpp</text>
</a>
</g>
</g>
<!-- Node2&#45;&gt;Node14 -->
<g id="edge27_Node000002_Node000014" class="edge">
<title>Node2&#45;&gt;Node14</title>
<g id="a_edge27_Node000002_Node000014"><a xlink:title=" ">
<path fill="none" stroke="#63b8ff" d="M444.47,-192.44C485.24,-184.32 544.94,-170.46 594.62,-151 620.55,-140.84 624.63,-133.27 649.62,-121 677.63,-107.25 710.31,-93.11 733.48,-83.39"/>
<polygon fill="#63b8ff" stroke="#63b8ff" points="734.9,-86.58 742.78,-79.51 732.21,-80.12 734.9,-86.58"/>
</a>
</g>
</g>
<!-- Node3&#45;&gt;Node4 -->
<g id="edge3_Node000003_Node000004" class="edge">
<title>Node3&#45;&gt;Node4</title>
<g id="a_edge3_Node000003_Node000004"><a xlink:title=" ">
<path fill="none" stroke="#63b8ff" d="M176.19,-54.99C203.41,-45.1 239.51,-31.98 265.44,-22.56"/>
<polygon fill="#63b8ff" stroke="#63b8ff" points="266.64,-25.84 274.85,-19.14 264.25,-19.26 266.64,-25.84"/>
</a>
</g>
</g>
<!-- Node3&#45;&gt;Node5 -->
<g id="edge4_Node000003_Node000005" class="edge">
<title>Node3&#45;&gt;Node5</title>
<g id="a_edge4_Node000003_Node000005"><a xlink:title=" ">
<path fill="none" stroke="#63b8ff" d="M119.47,-54.84C108.14,-46 93.56,-34.63 82,-25.62"/>
<polygon fill="#63b8ff" stroke="#63b8ff" points="83.9,-22.66 73.86,-19.27 79.59,-28.18 83.9,-22.66"/>
</a>
</g>
</g>
<!-- Node6 -->
<g id="Node000006" class="node">
<title>Node6</title>
<g id="a_Node000006"><a xlink:title=" ">
<polygon fill="#e0e0e0" stroke="#999999" points="164.12,-19 111.12,-19 111.12,0 164.12,0 164.12,-19"/>
<text text-anchor="middle" x="137.62" y="-7" font-family="Helvetica,sans-Serif" font-size="10.00">cstddef</text>
</a>
</g>
</g>
<!-- Node3&#45;&gt;Node6 -->
<g id="edge5_Node000003_Node000006" class="edge">
<title>Node3&#45;&gt;Node6</title>
<g id="a_edge5_Node000003_Node000006"><a xlink:title=" ">
<path fill="none" stroke="#63b8ff" d="M137.62,-54.84C137.62,-47.21 137.62,-37.7 137.62,-29.45"/>
<polygon fill="#63b8ff" stroke="#63b8ff" points="141.12,-29.27 137.62,-19.27 134.12,-29.27 141.12,-29.27"/>
</a>
</g>
</g>
<!-- Node7&#45;&gt;Node3 -->
<g id="edge7_Node000007_Node000003" class="edge">
<title>Node7&#45;&gt;Node3</title>
<g id="a_edge7_Node000007_Node000003"><a xlink:title=" ">
<path fill="none" stroke="#63b8ff" d="M90.94,-120.8C98.71,-112.51 108.66,-101.89 117.38,-92.59"/>
<polygon fill="#63b8ff" stroke="#63b8ff" points="120.06,-94.85 124.34,-85.16 114.95,-90.07 120.06,-94.85"/>
</a>
</g>
</g>
<!-- Node7&#45;&gt;Node4 -->
<g id="edge8_Node000007_Node000004" class="edge">
<title>Node7&#45;&gt;Node4</title>
<g id="a_edge8_Node000007_Node000004"><a xlink:title=" ">
<path fill="none" stroke="#63b8ff" d="M121.23,-120.95C145.9,-112.18 176.87,-99.76 202.62,-85 232.63,-67.81 263.56,-42.1 281.94,-25.82"/>
<polygon fill="#63b8ff" stroke="#63b8ff" points="284.35,-28.35 289.45,-19.07 279.67,-23.15 284.35,-28.35"/>
</a>
</g>
</g>
<!-- Node7&#45;&gt;Node5 -->
<g id="edge9_Node000007_Node000005" class="edge">
<title>Node7&#45;&gt;Node5</title>
<g id="a_edge9_Node000007_Node000005"><a xlink:title=" ">
<path fill="none" stroke="#63b8ff" d="M75.9,-120.72C73.18,-98.12 67.88,-54.12 64.86,-29.09"/>
<polygon fill="#63b8ff" stroke="#63b8ff" points="68.33,-28.58 63.66,-19.07 61.38,-29.42 68.33,-28.58"/>
</a>
</g>
</g>
<!-- Node9&#45;&gt;Node4 -->
<g id="edge14_Node000009_Node000004" class="edge">
<title>Node9&#45;&gt;Node4</title>
<g id="a_edge14_Node000009_Node000004"><a xlink:title=" ">
<path fill="none" stroke="#63b8ff" d="M263.25,-126.11C267.62,-111.33 276.7,-80.78 284.62,-55 287.27,-46.38 290.27,-36.83 292.8,-28.8"/>
<polygon fill="#63b8ff" stroke="#63b8ff" points="296.22,-29.61 295.91,-19.02 289.55,-27.5 296.22,-29.61"/>
</a>
</g>
</g>
<!-- Node10&#45;&gt;Node4 -->
<g id="edge17_Node000010_Node000004" class="edge">
<title>Node10&#45;&gt;Node4</title>
<g id="a_edge17_Node000010_Node000004"><a xlink:title=" ">
<path fill="none" stroke="#63b8ff" d="M528.33,-57.65C470.88,-45.86 382.68,-27.75 333.98,-17.76"/>
<polygon fill="#63b8ff" stroke="#63b8ff" points="334.43,-14.28 323.93,-15.69 333.02,-21.13 334.43,-14.28"/>
</a>
</g>
</g>
<!-- Node11 -->
<g id="Node000011" class="node">
<title>Node11</title>
<g id="a_Node000011"><a xlink:title=" ">
<polygon fill="#e0e0e0" stroke="#999999" points="649.62,-19 599.62,-19 599.62,0 649.62,0 649.62,-19"/>
<text text-anchor="middle" x="624.62" y="-7" font-family="Helvetica,sans-Serif" font-size="10.00">atomic</text>
</a>
</g>
</g>
<!-- Node10&#45;&gt;Node11 -->
<g id="edge16_Node000010_Node000011" class="edge">
<title>Node10&#45;&gt;Node11</title>
<g id="a_edge16_Node000010_Node000011"><a xlink:title=" ">
<path fill="none" stroke="#63b8ff" d="M593.55,-54.84C599.32,-46.61 606.63,-36.18 612.7,-27.51"/>
<polygon fill="#63b8ff" stroke="#63b8ff" points="615.61,-29.46 618.48,-19.27 609.87,-25.45 615.61,-29.46"/>
</a>
</g>
</g>
<!-- Node12&#45;&gt;Node4 -->
<g id="edge20_Node000012_Node000004" class="edge">
<title>Node12&#45;&gt;Node4</title>
<g id="a_edge20_Node000012_Node000004"><a xlink:title=" ">
<path fill="none" stroke="#63b8ff" d="M384.72,-60.37C368.31,-50.86 341.7,-35.45 322.4,-24.27"/>
<polygon fill="#63b8ff" stroke="#63b8ff" points="323.99,-21.15 313.59,-19.17 320.49,-27.21 323.99,-21.15"/>
</a>
</g>
</g>
<!-- Node12&#45;&gt;Node5 -->
<g id="edge21_Node000012_Node000005" class="edge">
<title>Node12&#45;&gt;Node5</title>
<g id="a_edge21_Node000012_Node000005"><a xlink:title=" ">
<path fill="none" stroke="#63b8ff" d="M344.01,-60.49C284.04,-51.13 185.84,-35.23 101.62,-19 98.97,-18.49 96.22,-17.94 93.47,-17.37"/>
<polygon fill="#63b8ff" stroke="#63b8ff" points="94.14,-13.93 83.63,-15.27 92.69,-20.78 94.14,-13.93"/>
</a>
</g>
</g>
<!-- Node12&#45;&gt;Node11 -->
<g id="edge19_Node000012_Node000011" class="edge">
<title>Node12&#45;&gt;Node11</title>
<g id="a_edge19_Node000012_Node000011"><a xlink:title=" ">
<path fill="none" stroke="#63b8ff" d="M432.34,-60.49C474.31,-49.58 546.82,-30.73 589.79,-19.56"/>
<polygon fill="#63b8ff" stroke="#63b8ff" points="590.73,-22.93 599.53,-17.03 588.97,-16.15 590.73,-22.93"/>
</a>
</g>
</g>
<!-- Node13&#45;&gt;Node4 -->
<g id="edge24_Node000013_Node000004" class="edge">
<title>Node13&#45;&gt;Node4</title>
<g id="a_edge24_Node000013_Node000004"><a xlink:title=" ">
<path fill="none" stroke="#63b8ff" d="M496.03,-126.22C498.11,-109.91 499.97,-74.83 481.62,-55 461.91,-33.69 381.5,-20.53 334.08,-14.47"/>
<polygon fill="#63b8ff" stroke="#63b8ff" points="334.28,-10.97 323.92,-13.22 333.42,-17.92 334.28,-10.97"/>
</a>
</g>
</g>
<!-- Node13&#45;&gt;Node10 -->
<g id="edge26_Node000013_Node000010" class="edge">
<title>Node13&#45;&gt;Node10</title>
<g id="a_edge26_Node000013_Node000010"><a xlink:title=" ">
<path fill="none" stroke="#63b8ff" d="M506.63,-126.37C519.15,-117.36 539.23,-102.92 555.74,-91.05"/>
<polygon fill="#63b8ff" stroke="#63b8ff" points="557.92,-93.8 563.99,-85.12 553.83,-88.11 557.92,-93.8"/>
</a>
</g>
</g>
<!-- Node13&#45;&gt;Node11 -->
<g id="edge23_Node000013_Node000011" class="edge">
<title>Node13&#45;&gt;Node11</title>
<g id="a_edge23_Node000013_Node000011"><a xlink:title=" ">
<path fill="none" stroke="#63b8ff" d="M564.77,-130.04C595.39,-123.97 628.59,-111.24 647.62,-85 660.11,-67.78 648.6,-43.63 637.85,-27.54"/>
<polygon fill="#63b8ff" stroke="#63b8ff" points="640.47,-25.19 631.79,-19.12 634.79,-29.28 640.47,-25.19"/>
</a>
</g>
</g>
<!-- Node13&#45;&gt;Node12 -->
<g id="edge25_Node000013_Node000012" class="edge">
<title>Node13&#45;&gt;Node12</title>
<g id="a_edge25_Node000013_Node000012"><a xlink:title=" ">
<path fill="none" stroke="#63b8ff" d="M481.81,-126.37C466.23,-115.87 439.7,-98 421,-85.4"/>
<polygon fill="#63b8ff" stroke="#63b8ff" points="422.78,-82.38 412.54,-79.7 418.87,-88.19 422.78,-82.38"/>
</a>
</g>
</g>
<!-- Node14&#45;&gt;Node11 -->
<g id="edge28_Node000014_Node000011" class="edge">
<title>Node14&#45;&gt;Node11</title>
<g id="a_edge28_Node000014_Node000011"><a xlink:title=" ">
<path fill="none" stroke="#63b8ff" d="M743.41,-60.49C719.94,-50.62 681.02,-34.23 654.16,-22.93"/>
<polygon fill="#63b8ff" stroke="#63b8ff" points="655.43,-19.67 644.86,-19.02 652.72,-26.12 655.43,-19.67"/>
</a>
</g>
</g>
</g>
</svg>

<g id="navigator" transform="translate(0 0)" fill="#404254">
  <rect fill="#f2f5e9" fill-opacity="0.5" stroke="#606060" stroke-width=".5" x="0" y="0" width="60" height="60"/>
  <use id="zoomplus" xlink:href="#zoomPlus" x="17" y="9" onmousedown="handleZoom(evt,'in')"/>
  <use id="zoomminus" xlink:href="#zoomMin" x="42" y="9" onmousedown="handleZoom(evt,'out')"/>
  <use id="reset" xlink:href="#resetDef" x="30" y="36" onmousedown="handleReset()"/>
   <use id="arrowup" xlink:href="#arrowUp" x="0" y="0" onmousedown="handlePan(0,-1)"/>
  <use id="arrowright" xlink:href="#arrowRight" x="0" y="0" onmousedown="handlePan(1,0)"/>
  <use id="arrowdown" xlink:href="#arrowDown" x="0" y="0" onmousedown="handlePan(0,1)"/>
  <use id="arrowleft" xlink:href="#arrowLeft" x="0" y="0" onmousedown="handlePan(-1,0)"/>
</g>
<svg viewBox="0 0 15 15" width="100%" height="30px" preserveAspectRatio="xMaxYMin meet">
 <g id="arrow_out" transform="scale(0.3 0.3)">
  <a xlink:href="clocks_8cpp__incl_org.svg" target="_base">
   <rect id="button" ry="5" rx="5" y="6" x="6" height="38" width="38"
        fill="#f2f5e9" fill-opacity="0.5" stroke="#606060" stroke-width="1.0"/>
   <path id="arrow"
     d="M 11.500037,31.436501 C 11.940474,20.09759 22.043105,11.32322 32.158766,21.979434 L 37.068811,17.246167 C 37.068811,17.246167 37.088388,32 37.088388,32 L 22.160133,31.978069 C 22.160133,31.978069 26.997745,27.140456 26.997745,27.140456 C 18.528582,18.264221 13.291696,25.230495 11.500037,31.436501 z"
     style="fill:#404040;"/>
  </a>
 </g>
</svg>

<style type='text/css'>
<![CDATA[
[data-mouse-over-selected='false'] { opacity: 0.7; }
[data-mouse-over-selected='true']  { opacity: 1.0; }
]]>
</style>
<script type="application/ecmascript"><![CDATA[
document.addEventListener('DOMContentLoaded', (event) => {
  highlightEdges();
  highlightAdjacentNodes();
});
]]></script>
</svg>
