<?xml version="1.0" encoding="UTF-8" standalone="no"?>
<!DOCTYPE svg PUBLIC "-//W3C//DTD SVG 1.1//EN"
 "http://www.w3.org/Graphics/SVG/1.1/DTD/svg11.dtd">
<!-- Generated by graphviz version 2.43.0 (0)
 -->
<!-- Title: IEEE::_1588::PTP::_2019::PdelayRespBody::validate Pages: 1 -->
<svg width="491pt" height="108pt"
 viewBox="0.00 0.00 491.00 108.00" xmlns="http://www.w3.org/2000/svg" xmlns:xlink="http://www.w3.org/1999/xlink">
<g id="graph0" class="graph" transform="scale(1 1) rotate(0) translate(4 104)">
<title>IEEE::_1588::PTP::_2019::PdelayRespBody::validate</title>
<!-- Node1 -->
<g id="Node000001" class="node">
<title>Node1</title>
<g id="a_Node000001"><a xlink:title="Validate peer delay response message.">
<polygon fill="#999999" stroke="#666666" points="134,-70 0,-70 0,-29 134,-29 134,-70"/>
<text text-anchor="start" x="8" y="-58" font-family="Helvetica,sans-Serif" font-size="10.00">IEEE::_1588::PTP::</text>
<text text-anchor="start" x="8" y="-47" font-family="Helvetica,sans-Serif" font-size="10.00">_2019::PdelayRespBody</text>
<text text-anchor="middle" x="67" y="-36" font-family="Helvetica,sans-Serif" font-size="10.00">::validate</text>
</a>
</g>
</g>
<!-- Node2 -->
<g id="Node000002" class="node">
<title>Node2</title>
<g id="a_Node000002"><a xlink:href="../../d4/d6e/structIEEE_1_1__1588_1_1PTP_1_1__2019_1_1Types_1_1Timestamp.html#a5874260dca7c0dc51aac826383452f13" target="_top" xlink:title="Validate timestamp fields.">
<polygon fill="white" stroke="#666666" points="312,-100 171,-100 171,-59 312,-59 312,-100"/>
<text text-anchor="start" x="179" y="-88" font-family="Helvetica,sans-Serif" font-size="10.00">IEEE::_1588::PTP::</text>
<text text-anchor="start" x="179" y="-77" font-family="Helvetica,sans-Serif" font-size="10.00">_2019::Types::Timestamp</text>
<text text-anchor="middle" x="241.5" y="-66" font-family="Helvetica,sans-Serif" font-size="10.00">::validate</text>
</a>
</g>
</g>
<!-- Node1&#45;&gt;Node2 -->
<g id="edge1_Node000001_Node000002" class="edge">
<title>Node1&#45;&gt;Node2</title>
<g id="a_edge1_Node000001_Node000002"><a xlink:title=" ">
<path fill="none" stroke="#63b8ff" d="M134.2,-61.01C142.9,-62.53 151.88,-64.09 160.78,-65.64"/>
<polygon fill="#63b8ff" stroke="#63b8ff" points="160.31,-69.11 170.76,-67.37 161.5,-62.21 160.31,-69.11"/>
</a>
</g>
</g>
<!-- Node5 -->
<g id="Node000005" class="node">
<title>Node5</title>
<g id="a_Node000005"><a xlink:href="../../dc/d02/structIEEE_1_1__1588_1_1PTP_1_1__2019_1_1Types_1_1PortIdentity.html#a714e06f89558350dad4807a3a76c1307" target="_top" xlink:title="Validate port identity fields.">
<polygon fill="white" stroke="#666666" points="313,-41 170,-41 170,0 313,0 313,-41"/>
<text text-anchor="start" x="178" y="-29" font-family="Helvetica,sans-Serif" font-size="10.00">IEEE::_1588::PTP::</text>
<text text-anchor="start" x="178" y="-18" font-family="Helvetica,sans-Serif" font-size="10.00">_2019::Types::PortIdentity</text>
<text text-anchor="middle" x="241.5" y="-7" font-family="Helvetica,sans-Serif" font-size="10.00">::validate</text>
</a>
</g>
</g>
<!-- Node1&#45;&gt;Node5 -->
<g id="edge4_Node000001_Node000005" class="edge">
<title>Node1&#45;&gt;Node5</title>
<g id="a_edge4_Node000001_Node000005"><a xlink:title=" ">
<path fill="none" stroke="#63b8ff" d="M134.2,-38.37C142.6,-36.96 151.27,-35.5 159.86,-34.06"/>
<polygon fill="#63b8ff" stroke="#63b8ff" points="160.61,-37.48 169.89,-32.37 159.45,-30.58 160.61,-37.48"/>
</a>
</g>
</g>
<!-- Node3 -->
<g id="Node000003" class="node">
<title>Node3</title>
<g id="a_Node000003"><a xlink:href="../../df/d1f/classIEEE_1_1__1588_1_1PTP_1_1__2019_1_1Types_1_1PTPResult.html#acf151a8e3d48dc72ba72d7793942017f" target="_top" xlink:title="Create error result (alias for failure)">
<polygon fill="white" stroke="#666666" points="483,-100 349,-100 349,-59 483,-59 483,-100"/>
<text text-anchor="start" x="357" y="-88" font-family="Helvetica,sans-Serif" font-size="10.00">IEEE::_1588::PTP::</text>
<text text-anchor="start" x="357" y="-77" font-family="Helvetica,sans-Serif" font-size="10.00">_2019::Types::PTPResult</text>
<text text-anchor="middle" x="416" y="-66" font-family="Helvetica,sans-Serif" font-size="10.00">::makeError</text>
</a>
</g>
</g>
<!-- Node2&#45;&gt;Node3 -->
<g id="edge2_Node000002_Node000003" class="edge">
<title>Node2&#45;&gt;Node3</title>
<g id="a_edge2_Node000002_Node000003"><a xlink:title=" ">
<path fill="none" stroke="#63b8ff" d="M312.17,-79.5C320.9,-79.5 329.88,-79.5 338.71,-79.5"/>
<polygon fill="#63b8ff" stroke="#63b8ff" points="338.99,-83 348.99,-79.5 338.99,-76 338.99,-83"/>
</a>
</g>
</g>
<!-- Node4 -->
<g id="Node000004" class="node">
<title>Node4</title>
<g id="a_Node000004"><a xlink:href="../../df/d1f/classIEEE_1_1__1588_1_1PTP_1_1__2019_1_1Types_1_1PTPResult.html#a873027aad818e35452ddab7583b7a7e5" target="_top" xlink:title="Create successful result (static method)">
<polygon fill="white" stroke="#666666" points="483,-41 349,-41 349,0 483,0 483,-41"/>
<text text-anchor="start" x="357" y="-29" font-family="Helvetica,sans-Serif" font-size="10.00">IEEE::_1588::PTP::</text>
<text text-anchor="start" x="357" y="-18" font-family="Helvetica,sans-Serif" font-size="10.00">_2019::Types::PTPResult</text>
<text text-anchor="middle" x="416" y="-7" font-family="Helvetica,sans-Serif" font-size="10.00">::success</text>
</a>
</g>
</g>
<!-- Node2&#45;&gt;Node4 -->
<g id="edge3_Node000002_Node000004" class="edge">
<title>Node2&#45;&gt;Node4</title>
<g id="a_edge3_Node000002_Node000004"><a xlink:title=" ">
<path fill="none" stroke="#63b8ff" d="M302.83,-58.86C316.57,-54.17 331.27,-49.14 345.36,-44.32"/>
<polygon fill="#63b8ff" stroke="#63b8ff" points="346.66,-47.57 354.99,-41.02 344.4,-40.95 346.66,-47.57"/>
</a>
</g>
</g>
<!-- Node5&#45;&gt;Node3 -->
<g id="edge5_Node000005_Node000003" class="edge">
<title>Node5&#45;&gt;Node3</title>
<g id="a_edge5_Node000005_Node000003"><a xlink:title=" ">
<path fill="none" stroke="#63b8ff" d="M302.83,-41.14C316.57,-45.83 331.27,-50.86 345.36,-55.68"/>
<polygon fill="#63b8ff" stroke="#63b8ff" points="344.4,-59.05 354.99,-58.98 346.66,-52.43 344.4,-59.05"/>
</a>
</g>
</g>
<!-- Node5&#45;&gt;Node4 -->
<g id="edge6_Node000005_Node000004" class="edge">
<title>Node5&#45;&gt;Node4</title>
<g id="a_edge6_Node000005_Node000004"><a xlink:title=" ">
<path fill="none" stroke="#63b8ff" d="M313.16,-20.5C321.56,-20.5 330.17,-20.5 338.64,-20.5"/>
<polygon fill="#63b8ff" stroke="#63b8ff" points="338.89,-24 348.89,-20.5 338.89,-17 338.89,-24"/>
</a>
</g>
</g>
</g>
</svg>
