<?xml version="1.0" encoding="UTF-8" standalone="no"?>
<!DOCTYPE svg PUBLIC "-//W3C//DTD SVG 1.1//EN"
 "http://www.w3.org/Graphics/SVG/1.1/DTD/svg11.dtd">
<!-- Generated by graphviz version 2.43.0 (0)
 -->
<!-- Title: IEEE::_1588::_2019::ProfileResult::fail Pages: 1 -->
<svg width="467pt" height="76pt"
 viewBox="0.00 0.00 467.00 75.50" xmlns="http://www.w3.org/2000/svg" xmlns:xlink="http://www.w3.org/1999/xlink">
<g id="graph0" class="graph" transform="scale(1 1) rotate(0) translate(4 71.5)">
<title>IEEE::_1588::_2019::ProfileResult::fail</title>
<!-- Node1 -->
<g id="Node000001" class="node">
<title>Node1</title>
<g id="a_Node000001"><a xlink:title=" ">
<polygon fill="#999999" stroke="#666666" points="459,-51 351,-51 351,-21 459,-21 459,-51"/>
<text text-anchor="start" x="359" y="-39" font-family="Helvetica,sans-Serif" font-size="10.00">IEEE::_1588::_2019</text>
<text text-anchor="middle" x="405" y="-28" font-family="Helvetica,sans-Serif" font-size="10.00">::ProfileResult::fail</text>
</a>
</g>
</g>
<!-- Node2 -->
<g id="Node000002" class="node">
<title>Node2</title>
<g id="a_Node000002"><a xlink:href="../../de/d9c/structIEEE_1_1__1588_1_1__2019_1_1ProfileConfiguration.html#afe1ac8709d34d283d59c06c4802003b0" target="_top" xlink:title="Validate profile configuration parameters.">
<polygon fill="white" stroke="#666666" points="315,-56.5 196,-56.5 196,-15.5 315,-15.5 315,-56.5"/>
<text text-anchor="start" x="204" y="-44.5" font-family="Helvetica,sans-Serif" font-size="10.00">IEEE::_1588::_2019</text>
<text text-anchor="start" x="204" y="-33.5" font-family="Helvetica,sans-Serif" font-size="10.00">::ProfileConfiguration</text>
<text text-anchor="middle" x="255.5" y="-22.5" font-family="Helvetica,sans-Serif" font-size="10.00">::validate</text>
</a>
</g>
</g>
<!-- Node1&#45;&gt;Node2 -->
<g id="edge1_Node000001_Node000002" class="edge">
<title>Node1&#45;&gt;Node2</title>
<g id="a_edge1_Node000001_Node000002"><a xlink:title=" ">
<path fill="none" stroke="#63b8ff" d="M340.58,-36C332.14,-36 323.52,-36 315.17,-36"/>
<polygon fill="#63b8ff" stroke="#63b8ff" points="340.75,-39.5 350.75,-36 340.75,-32.5 340.75,-39.5"/>
</a>
</g>
</g>
<!-- Node3 -->
<g id="Node000003" class="node">
<title>Node3</title>
<g id="a_Node000003"><a xlink:href="../../d9/dbe/profile_8hpp.html#a86596b115ddb1fd8442acef4c9511e28" target="_top" xlink:title="Apply IEEE 1588&#45;2019 profile configuration to PortConfiguration.">
<polygon fill="white" stroke="#666666" points="120,-67.5 40,-67.5 40,-48.5 120,-48.5 120,-67.5"/>
<text text-anchor="middle" x="80" y="-55.5" font-family="Helvetica,sans-Serif" font-size="10.00">apply_profile</text>
</a>
</g>
</g>
<!-- Node2&#45;&gt;Node3 -->
<g id="edge2_Node000002_Node000003" class="edge">
<title>Node2&#45;&gt;Node3</title>
<g id="a_edge2_Node000002_Node000003"><a xlink:title=" ">
<path fill="none" stroke="#63b8ff" d="M185.65,-44.73C163.34,-47.56 139.39,-50.6 120.03,-53.05"/>
<polygon fill="#63b8ff" stroke="#63b8ff" points="186.28,-48.18 195.76,-43.45 185.4,-41.23 186.28,-48.18"/>
</a>
</g>
</g>
<!-- Node4 -->
<g id="Node000004" class="node">
<title>Node4</title>
<g id="a_Node000004"><a xlink:href="../../d8/d6f/namespaceIEEE_1_1__1588_1_1__2019.html#a1e2eda752c16bfa914568d4fa407bd7b" target="_top" xlink:title="Validate profile parameters against IEEE 1588&#45;2019 constraints.">
<polygon fill="white" stroke="#666666" points="160,-30 0,-30 0,0 160,0 160,-30"/>
<text text-anchor="start" x="8" y="-18" font-family="Helvetica,sans-Serif" font-size="10.00">IEEE::_1588::_2019</text>
<text text-anchor="middle" x="80" y="-7" font-family="Helvetica,sans-Serif" font-size="10.00">::validate_profile_parameters</text>
</a>
</g>
</g>
<!-- Node2&#45;&gt;Node4 -->
<g id="edge3_Node000002_Node000004" class="edge">
<title>Node2&#45;&gt;Node4</title>
<g id="a_edge3_Node000002_Node000004"><a xlink:title=" ">
<path fill="none" stroke="#63b8ff" d="M185.71,-27.67C177.36,-26.66 168.78,-25.62 160.29,-24.6"/>
<polygon fill="#63b8ff" stroke="#63b8ff" points="185.41,-31.16 195.76,-28.89 186.25,-24.21 185.41,-31.16"/>
</a>
</g>
</g>
</g>
</svg>
