<?xml version="1.0" encoding="UTF-8" standalone="no"?>
<!DOCTYPE svg PUBLIC "-//W3C//DTD SVG 1.1//EN"
 "http://www.w3.org/Graphics/SVG/1.1/DTD/svg11.dtd">
<!-- Generated by graphviz version 2.43.0 (0)
 -->
<!-- Title: IEEE::_1588::_2019::ProfileResult::ok Pages: 1 -->
<svg width="467pt" height="84pt"
 viewBox="0.00 0.00 467.00 84.00" xmlns="http://www.w3.org/2000/svg" xmlns:xlink="http://www.w3.org/1999/xlink">
<g id="graph0" class="graph" transform="scale(1 1) rotate(0) translate(4 80)">
<title>IEEE::_1588::_2019::ProfileResult::ok</title>
<!-- Node1 -->
<g id="Node000001" class="node">
<title>Node1</title>
<g id="a_Node000001"><a xlink:title=" ">
<polygon fill="#999999" stroke="#666666" points="459,-59.5 351,-59.5 351,-29.5 459,-29.5 459,-59.5"/>
<text text-anchor="start" x="359" y="-47.5" font-family="Helvetica,sans-Serif" font-size="10.00">IEEE::_1588::_2019</text>
<text text-anchor="middle" x="405" y="-36.5" font-family="Helvetica,sans-Serif" font-size="10.00">::ProfileResult::ok</text>
</a>
</g>
</g>
<!-- Node2 -->
<g id="Node000002" class="node">
<title>Node2</title>
<g id="a_Node000002"><a xlink:href="../../d9/dbe/profile_8hpp.html#a86596b115ddb1fd8442acef4c9511e28" target="_top" xlink:title="Apply IEEE 1588&#45;2019 profile configuration to PortConfiguration.">
<polygon fill="white" stroke="#666666" points="120,-76 40,-76 40,-57 120,-57 120,-76"/>
<text text-anchor="middle" x="80" y="-64" font-family="Helvetica,sans-Serif" font-size="10.00">apply_profile</text>
</a>
</g>
</g>
<!-- Node1&#45;&gt;Node2 -->
<g id="edge1_Node000001_Node000002" class="edge">
<title>Node1&#45;&gt;Node2</title>
<g id="a_edge1_Node000001_Node000002"><a xlink:title=" ">
<path fill="none" stroke="#63b8ff" d="M340.46,-48.83C274.97,-53.29 174.93,-60.1 120.17,-63.83"/>
<polygon fill="#63b8ff" stroke="#63b8ff" points="340.92,-52.3 350.66,-48.13 340.45,-45.32 340.92,-52.3"/>
</a>
</g>
</g>
<!-- Node3 -->
<g id="Node000003" class="node">
<title>Node3</title>
<g id="a_Node000003"><a xlink:href="../../de/d9c/structIEEE_1_1__1588_1_1__2019_1_1ProfileConfiguration.html#afe1ac8709d34d283d59c06c4802003b0" target="_top" xlink:title="Validate profile configuration parameters.">
<polygon fill="white" stroke="#666666" points="315,-41 196,-41 196,0 315,0 315,-41"/>
<text text-anchor="start" x="204" y="-29" font-family="Helvetica,sans-Serif" font-size="10.00">IEEE::_1588::_2019</text>
<text text-anchor="start" x="204" y="-18" font-family="Helvetica,sans-Serif" font-size="10.00">::ProfileConfiguration</text>
<text text-anchor="middle" x="255.5" y="-7" font-family="Helvetica,sans-Serif" font-size="10.00">::validate</text>
</a>
</g>
</g>
<!-- Node1&#45;&gt;Node3 -->
<g id="edge2_Node000001_Node000003" class="edge">
<title>Node1&#45;&gt;Node3</title>
<g id="a_edge2_Node000001_Node000003"><a xlink:title=" ">
<path fill="none" stroke="#63b8ff" d="M340.86,-34.23C332.33,-32.84 323.61,-31.42 315.17,-30.05"/>
<polygon fill="#63b8ff" stroke="#63b8ff" points="340.32,-37.68 350.75,-35.84 341.44,-30.77 340.32,-37.68"/>
</a>
</g>
</g>
<!-- Node3&#45;&gt;Node2 -->
<g id="edge3_Node000003_Node000002" class="edge">
<title>Node3&#45;&gt;Node2</title>
<g id="a_edge3_Node000003_Node000002"><a xlink:title=" ">
<path fill="none" stroke="#63b8ff" d="M185.8,-38.71C162.24,-44.96 136.81,-51.7 116.91,-56.98"/>
<polygon fill="#63b8ff" stroke="#63b8ff" points="186.99,-42.02 195.76,-36.07 185.2,-35.25 186.99,-42.02"/>
</a>
</g>
</g>
<!-- Node4 -->
<g id="Node000004" class="node">
<title>Node4</title>
<g id="a_Node000004"><a xlink:href="../../d8/d6f/namespaceIEEE_1_1__1588_1_1__2019.html#a1e2eda752c16bfa914568d4fa407bd7b" target="_top" xlink:title="Validate profile parameters against IEEE 1588&#45;2019 constraints.">
<polygon fill="white" stroke="#666666" points="160,-35.5 0,-35.5 0,-5.5 160,-5.5 160,-35.5"/>
<text text-anchor="start" x="8" y="-23.5" font-family="Helvetica,sans-Serif" font-size="10.00">IEEE::_1588::_2019</text>
<text text-anchor="middle" x="80" y="-12.5" font-family="Helvetica,sans-Serif" font-size="10.00">::validate_profile_parameters</text>
</a>
</g>
</g>
<!-- Node3&#45;&gt;Node4 -->
<g id="edge4_Node000003_Node000004" class="edge">
<title>Node3&#45;&gt;Node4</title>
<g id="a_edge4_Node000003_Node000004"><a xlink:title=" ">
<path fill="none" stroke="#63b8ff" d="M185.71,-20.5C177.36,-20.5 168.78,-20.5 160.29,-20.5"/>
<polygon fill="#63b8ff" stroke="#63b8ff" points="185.76,-24 195.76,-20.5 185.76,-17 185.76,-24"/>
</a>
</g>
</g>
</g>
</svg>
