<?xml version="1.0" encoding="UTF-8" standalone="no"?>
<!DOCTYPE svg PUBLIC "-//W3C//DTD SVG 1.1//EN"
 "http://www.w3.org/Graphics/SVG/1.1/DTD/svg11.dtd">
<!-- Generated by graphviz version 2.43.0 (0)
 -->
<!-- Title: detail::bswap16 Pages: 1 -->
<svg width="651pt" height="559pt"
 viewBox="0.00 0.00 651.00 559.00" xmlns="http://www.w3.org/2000/svg" xmlns:xlink="http://www.w3.org/1999/xlink">
<g id="graph0" class="graph" transform="scale(1 1) rotate(0) translate(4 555)">
<title>detail::bswap16</title>
<!-- Node1 -->
<g id="Node000001" class="node">
<title>Node1</title>
<g id="a_Node000001"><a xlink:title=" ">
<polygon fill="#999999" stroke="#666666" points="643,-194 549,-194 549,-175 643,-175 643,-194"/>
<text text-anchor="middle" x="596" y="-182" font-family="Helvetica,sans-Serif" font-size="10.00">detail::bswap16</text>
</a>
</g>
</g>
<!-- Node2 -->
<g id="Node000002" class="node">
<title>Node2</title>
<g id="a_Node000002"><a xlink:href="../../dd/d39/namespacedetail.html#a162d12447333d9129db6326825711788" target="_top" xlink:title=" ">
<polygon fill="white" stroke="#666666" points="513,-304 397,-304 397,-285 513,-285 513,-304"/>
<text text-anchor="middle" x="455" y="-292" font-family="Helvetica,sans-Serif" font-size="10.00">detail::be16_to_host</text>
</a>
</g>
</g>
<!-- Node1&#45;&gt;Node2 -->
<g id="edge1_Node000001_Node000002" class="edge">
<title>Node1&#45;&gt;Node2</title>
<g id="a_edge1_Node000001_Node000002"><a xlink:title=" ">
<path fill="none" stroke="#63b8ff" d="M574.73,-200.54C545.39,-223.76 491.99,-266.02 468.11,-284.92"/>
<polygon fill="#63b8ff" stroke="#63b8ff" points="577,-203.21 582.66,-194.26 572.65,-197.72 577,-203.21"/>
</a>
</g>
</g>
<!-- Node13 -->
<g id="Node000013" class="node">
<title>Node13</title>
<g id="a_Node000013"><a xlink:href="../../dd/d39/namespacedetail.html#a996eb85710c236449da938fd178891dc" target="_top" xlink:title=" ">
<polygon fill="white" stroke="#666666" points="513,-84 397,-84 397,-65 513,-65 513,-84"/>
<text text-anchor="middle" x="455" y="-72" font-family="Helvetica,sans-Serif" font-size="10.00">detail::host_to_be16</text>
</a>
</g>
</g>
<!-- Node1&#45;&gt;Node13 -->
<g id="edge12_Node000001_Node000013" class="edge">
<title>Node1&#45;&gt;Node13</title>
<g id="a_edge12_Node000001_Node000013"><a xlink:title=" ">
<path fill="none" stroke="#63b8ff" d="M574.73,-168.46C545.39,-145.24 491.99,-102.98 468.11,-84.08"/>
<polygon fill="#63b8ff" stroke="#63b8ff" points="572.65,-171.28 582.66,-174.74 577,-165.79 572.65,-171.28"/>
</a>
</g>
</g>
<!-- Node3 -->
<g id="Node000003" class="node">
<title>Node3</title>
<g id="a_Node000003"><a xlink:href="../../dc/dc2/structIEEE_1_1__1588_1_1PTP_1_1__2019_1_1ManagementTLV.html#a504f06ff757be835c4b326fc9d7406b7" target="_top" xlink:title="Get management ID in host byte order.">
<polygon fill="white" stroke="#666666" points="347.5,-551 213.5,-551 213.5,-510 347.5,-510 347.5,-551"/>
<text text-anchor="start" x="221.5" y="-539" font-family="Helvetica,sans-Serif" font-size="10.00">IEEE::_1588::PTP::</text>
<text text-anchor="start" x="221.5" y="-528" font-family="Helvetica,sans-Serif" font-size="10.00">_2019::ManagementTLV</text>
<text text-anchor="middle" x="280.5" y="-517" font-family="Helvetica,sans-Serif" font-size="10.00">::getManagementId</text>
</a>
</g>
</g>
<!-- Node2&#45;&gt;Node3 -->
<g id="edge2_Node000002_Node000003" class="edge">
<title>Node2&#45;&gt;Node3</title>
<g id="a_edge2_Node000002_Node000003"><a xlink:title=" ">
<path fill="none" stroke="#63b8ff" d="M450.45,-314.29C442.15,-355.01 417.7,-448.77 361,-501.5 357.02,-505.2 352.53,-508.44 347.76,-511.27"/>
<polygon fill="#63b8ff" stroke="#63b8ff" points="453.93,-314.77 452.38,-304.29 447.05,-313.45 453.93,-314.77"/>
</a>
</g>
</g>
<!-- Node4 -->
<g id="Node000004" class="node">
<title>Node4</title>
<g id="a_Node000004"><a xlink:href="../../d5/dab/structIEEE_1_1__1588_1_1PTP_1_1__2019_1_1CommonHeader.html#a8e3892178961527932c50a0d7a061dfd" target="_top" xlink:title="Check if two&#45;step flag is set.">
<polygon fill="white" stroke="#666666" points="346,-492 215,-492 215,-451 346,-451 346,-492"/>
<text text-anchor="start" x="223" y="-480" font-family="Helvetica,sans-Serif" font-size="10.00">IEEE::_1588::PTP::</text>
<text text-anchor="start" x="223" y="-469" font-family="Helvetica,sans-Serif" font-size="10.00">_2019::CommonHeader</text>
<text text-anchor="middle" x="280.5" y="-458" font-family="Helvetica,sans-Serif" font-size="10.00">::isTwoStep</text>
</a>
</g>
</g>
<!-- Node2&#45;&gt;Node4 -->
<g id="edge3_Node000002_Node000004" class="edge">
<title>Node2&#45;&gt;Node4</title>
<g id="a_edge3_Node000002_Node000004"><a xlink:title=" ">
<path fill="none" stroke="#63b8ff" d="M446.78,-313.7C434.09,-344.98 404.89,-407.02 361,-442.5 356.43,-446.19 351.35,-449.44 346.02,-452.29"/>
<polygon fill="#63b8ff" stroke="#63b8ff" points="450.06,-314.94 450.45,-304.35 443.54,-312.38 450.06,-314.94"/>
</a>
</g>
</g>
<!-- Node5 -->
<g id="Node000005" class="node">
<title>Node5</title>
<g id="a_Node000005"><a xlink:href="../../dd/d5b/classIEEE_1_1__1588_1_1PTP_1_1__2019_1_1Clocks_1_1PtpPort.html#ab83582f84eb72c45afa389da04eafafd" target="_top" xlink:title="Process received Announce message.">
<polygon fill="white" stroke="#666666" points="343,-433 218,-433 218,-392 343,-392 343,-433"/>
<text text-anchor="start" x="226" y="-421" font-family="Helvetica,sans-Serif" font-size="10.00">IEEE::_1588::PTP::</text>
<text text-anchor="start" x="226" y="-410" font-family="Helvetica,sans-Serif" font-size="10.00">_2019::Clocks::PtpPort</text>
<text text-anchor="middle" x="280.5" y="-399" font-family="Helvetica,sans-Serif" font-size="10.00">::process_announce</text>
</a>
</g>
</g>
<!-- Node2&#45;&gt;Node5 -->
<g id="edge4_Node000002_Node000005" class="edge">
<title>Node2&#45;&gt;Node5</title>
<g id="a_edge4_Node000002_Node000005"><a xlink:title=" ">
<path fill="none" stroke="#63b8ff" d="M439.66,-312.05C422.7,-331.82 392.74,-363.75 361,-383.5 355.39,-386.99 349.29,-390.15 343.05,-392.99"/>
<polygon fill="#63b8ff" stroke="#63b8ff" points="442.54,-314.06 446.3,-304.16 437.19,-309.56 442.54,-314.06"/>
</a>
</g>
</g>
<!-- Node7 -->
<g id="Node000007" class="node">
<title>Node7</title>
<g id="a_Node000007"><a xlink:href="../../dd/d5b/classIEEE_1_1__1588_1_1PTP_1_1__2019_1_1Clocks_1_1PtpPort.html#a6eea3cfb2fa2d3bf60f457204aac263d" target="_top" xlink:title="Process Management message (dataset GET/SET operations)">
<polygon fill="white" stroke="#666666" points="346,-374 215,-374 215,-333 346,-333 346,-374"/>
<text text-anchor="start" x="223" y="-362" font-family="Helvetica,sans-Serif" font-size="10.00">IEEE::_1588::PTP::</text>
<text text-anchor="start" x="223" y="-351" font-family="Helvetica,sans-Serif" font-size="10.00">_2019::Clocks::PtpPort</text>
<text text-anchor="middle" x="280.5" y="-340" font-family="Helvetica,sans-Serif" font-size="10.00">::process_management</text>
</a>
</g>
</g>
<!-- Node2&#45;&gt;Node7 -->
<g id="edge6_Node000002_Node000007" class="edge">
<title>Node2&#45;&gt;Node7</title>
<g id="a_edge6_Node000002_Node000007"><a xlink:title=" ">
<path fill="none" stroke="#63b8ff" d="M416.35,-307.38C394.54,-314.84 366.58,-324.4 341.78,-332.88"/>
<polygon fill="#63b8ff" stroke="#63b8ff" points="417.57,-310.66 425.9,-304.11 415.31,-304.04 417.57,-310.66"/>
</a>
</g>
</g>
<!-- Node8 -->
<g id="Node000008" class="node">
<title>Node8</title>
<g id="a_Node000008"><a xlink:href="../../dd/d5b/classIEEE_1_1__1588_1_1PTP_1_1__2019_1_1Clocks_1_1PtpPort.html#ad1c71f4696ee7b634b9fda2f9fdafad7" target="_top" xlink:title="Process Signaling message (unicast negotiation, PATH_TRACE, etc.)">
<polygon fill="white" stroke="#666666" points="343,-315 218,-315 218,-274 343,-274 343,-315"/>
<text text-anchor="start" x="226" y="-303" font-family="Helvetica,sans-Serif" font-size="10.00">IEEE::_1588::PTP::</text>
<text text-anchor="start" x="226" y="-292" font-family="Helvetica,sans-Serif" font-size="10.00">_2019::Clocks::PtpPort</text>
<text text-anchor="middle" x="280.5" y="-281" font-family="Helvetica,sans-Serif" font-size="10.00">::process_signaling</text>
</a>
</g>
</g>
<!-- Node2&#45;&gt;Node8 -->
<g id="edge7_Node000002_Node000008" class="edge">
<title>Node2&#45;&gt;Node8</title>
<g id="a_edge7_Node000002_Node000008"><a xlink:title=" ">
<path fill="none" stroke="#63b8ff" d="M386.34,-294.5C372.09,-294.5 357.14,-294.5 343.13,-294.5"/>
<polygon fill="#63b8ff" stroke="#63b8ff" points="386.56,-298 396.56,-294.5 386.56,-291 386.56,-298"/>
</a>
</g>
</g>
<!-- Node9 -->
<g id="Node000009" class="node">
<title>Node9</title>
<g id="a_Node000009"><a xlink:href="../../d5/dab/structIEEE_1_1__1588_1_1PTP_1_1__2019_1_1CommonHeader.html#acfa5f3eedb7017790b9646cd6e009368" target="_top" xlink:title="Validate header consistency with deterministic checks.">
<polygon fill="white" stroke="#666666" points="346,-256 215,-256 215,-215 346,-215 346,-256"/>
<text text-anchor="start" x="223" y="-244" font-family="Helvetica,sans-Serif" font-size="10.00">IEEE::_1588::PTP::</text>
<text text-anchor="start" x="223" y="-233" font-family="Helvetica,sans-Serif" font-size="10.00">_2019::CommonHeader</text>
<text text-anchor="middle" x="280.5" y="-222" font-family="Helvetica,sans-Serif" font-size="10.00">::validate</text>
</a>
</g>
</g>
<!-- Node2&#45;&gt;Node9 -->
<g id="edge8_Node000002_Node000009" class="edge">
<title>Node2&#45;&gt;Node9</title>
<g id="a_edge8_Node000002_Node000009"><a xlink:title=" ">
<path fill="none" stroke="#63b8ff" d="M416.35,-281.62C394.54,-274.16 366.58,-264.6 341.78,-256.12"/>
<polygon fill="#63b8ff" stroke="#63b8ff" points="415.31,-284.96 425.9,-284.89 417.57,-278.34 415.31,-284.96"/>
</a>
</g>
</g>
<!-- Node11 -->
<g id="Node000011" class="node">
<title>Node11</title>
<g id="a_Node000011"><a xlink:href="../../dd/d8c/structIEEE_1_1__1588_1_1PTP_1_1__2019_1_1AnnounceBody.html#a9eba687b764b366ae8cd9e2c5075b802" target="_top" xlink:title="Validate announce message fields.">
<polygon fill="white" stroke="#666666" points="343,-197 218,-197 218,-156 343,-156 343,-197"/>
<text text-anchor="start" x="226" y="-185" font-family="Helvetica,sans-Serif" font-size="10.00">IEEE::_1588::PTP::</text>
<text text-anchor="start" x="226" y="-174" font-family="Helvetica,sans-Serif" font-size="10.00">_2019::AnnounceBody</text>
<text text-anchor="middle" x="280.5" y="-163" font-family="Helvetica,sans-Serif" font-size="10.00">::validate</text>
</a>
</g>
</g>
<!-- Node2&#45;&gt;Node11 -->
<g id="edge10_Node000002_Node000011" class="edge">
<title>Node2&#45;&gt;Node11</title>
<g id="a_edge10_Node000002_Node000011"><a xlink:title=" ">
<path fill="none" stroke="#63b8ff" d="M439.66,-276.95C422.7,-257.18 392.74,-225.25 361,-205.5 355.39,-202.01 349.29,-198.85 343.05,-196.01"/>
<polygon fill="#63b8ff" stroke="#63b8ff" points="437.19,-279.44 446.3,-284.84 442.54,-274.94 437.19,-279.44"/>
</a>
</g>
</g>
<!-- Node12 -->
<g id="Node000012" class="node">
<title>Node12</title>
<g id="a_Node000012"><a xlink:href="../../da/d44/structIEEE_1_1__1588_1_1PTP_1_1__2019_1_1TLVHeader.html#ae4467c38de8f3a88b72ed79b9d6f4300" target="_top" xlink:title="Validate TLV header.">
<polygon fill="white" stroke="#666666" points="355.5,-137.5 205.5,-137.5 205.5,-107.5 355.5,-107.5 355.5,-137.5"/>
<text text-anchor="start" x="213.5" y="-125.5" font-family="Helvetica,sans-Serif" font-size="10.00">IEEE::_1588::PTP::</text>
<text text-anchor="middle" x="280.5" y="-114.5" font-family="Helvetica,sans-Serif" font-size="10.00">_2019::TLVHeader::validate</text>
</a>
</g>
</g>
<!-- Node2&#45;&gt;Node12 -->
<g id="edge11_Node000002_Node000012" class="edge">
<title>Node2&#45;&gt;Node12</title>
<g id="a_edge11_Node000002_Node000012"><a xlink:title=" ">
<path fill="none" stroke="#63b8ff" d="M447.18,-275.48C434.91,-243.94 406.09,-180.89 361,-146.5 356.53,-143.09 351.57,-140.16 346.39,-137.65"/>
<polygon fill="#63b8ff" stroke="#63b8ff" points="443.92,-276.75 450.71,-284.88 450.48,-274.29 443.92,-276.75"/>
</a>
</g>
</g>
<!-- Node6 -->
<g id="Node000006" class="node">
<title>Node6</title>
<g id="a_Node000006"><a xlink:href="../../d0/d7d/classIEEE_1_1__1588_1_1PTP_1_1__2019_1_1Clocks_1_1BoundaryClock.html#a8d21ce8a95c4f7fcee5ab7853fa6c60e" target="_top" xlink:title="Process received PTP message on specific port.">
<polygon fill="white" stroke="#666666" points="164,-433 0,-433 0,-392 164,-392 164,-433"/>
<text text-anchor="start" x="8" y="-421" font-family="Helvetica,sans-Serif" font-size="10.00">IEEE::_1588::PTP::</text>
<text text-anchor="start" x="8" y="-410" font-family="Helvetica,sans-Serif" font-size="10.00">_2019::Clocks::BoundaryClock</text>
<text text-anchor="middle" x="82" y="-399" font-family="Helvetica,sans-Serif" font-size="10.00">::process_message</text>
</a>
</g>
</g>
<!-- Node5&#45;&gt;Node6 -->
<g id="edge5_Node000005_Node000006" class="edge">
<title>Node5&#45;&gt;Node6</title>
<g id="a_edge5_Node000005_Node000006"><a xlink:title=" ">
<path fill="none" stroke="#63b8ff" d="M207.73,-412.5C193.59,-412.5 178.67,-412.5 164.25,-412.5"/>
<polygon fill="#63b8ff" stroke="#63b8ff" points="207.87,-416 217.87,-412.5 207.87,-409 207.87,-416"/>
</a>
</g>
</g>
<!-- Node10 -->
<g id="Node000010" class="node">
<title>Node10</title>
<g id="a_Node000010"><a xlink:href="../../d0/de3/structIEEE_1_1__1588_1_1PTP_1_1__2019_1_1PTPMessage.html#ab8bcc56e4cfd00c45bf6da5c959dce25" target="_top" xlink:title="Validate complete message structure.">
<polygon fill="white" stroke="#666666" points="161.5,-250.5 2.5,-250.5 2.5,-220.5 161.5,-220.5 161.5,-250.5"/>
<text text-anchor="start" x="10.5" y="-238.5" font-family="Helvetica,sans-Serif" font-size="10.00">IEEE::_1588::PTP::</text>
<text text-anchor="middle" x="82" y="-227.5" font-family="Helvetica,sans-Serif" font-size="10.00">_2019::PTPMessage::validate</text>
</a>
</g>
</g>
<!-- Node9&#45;&gt;Node10 -->
<g id="edge9_Node000009_Node000010" class="edge">
<title>Node9&#45;&gt;Node10</title>
<g id="a_edge9_Node000009_Node000010"><a xlink:title=" ">
<path fill="none" stroke="#63b8ff" d="M204.77,-235.5C190.68,-235.5 175.9,-235.5 161.7,-235.5"/>
<polygon fill="#63b8ff" stroke="#63b8ff" points="204.89,-239 214.89,-235.5 204.89,-232 204.89,-239"/>
</a>
</g>
</g>
<!-- Node14 -->
<g id="Node000014" class="node">
<title>Node14</title>
<g id="a_Node000014"><a xlink:href="../../d0/de3/structIEEE_1_1__1588_1_1PTP_1_1__2019_1_1PTPMessage.html#a243dec37d21b12d026928fae10a9f6e6" target="_top" xlink:title="Initialize message with proper defaults.">
<polygon fill="white" stroke="#666666" points="361,-89.5 200,-89.5 200,-59.5 361,-59.5 361,-89.5"/>
<text text-anchor="start" x="208" y="-77.5" font-family="Helvetica,sans-Serif" font-size="10.00">IEEE::_1588::PTP::</text>
<text text-anchor="middle" x="280.5" y="-66.5" font-family="Helvetica,sans-Serif" font-size="10.00">_2019::PTPMessage::initialize</text>
</a>
</g>
</g>
<!-- Node13&#45;&gt;Node14 -->
<g id="edge13_Node000013_Node000014" class="edge">
<title>Node13&#45;&gt;Node14</title>
<g id="a_edge13_Node000013_Node000014"><a xlink:title=" ">
<path fill="none" stroke="#63b8ff" d="M386.53,-74.5C378.2,-74.5 369.61,-74.5 361.11,-74.5"/>
<polygon fill="#63b8ff" stroke="#63b8ff" points="386.56,-78 396.56,-74.5 386.56,-71 386.56,-78"/>
</a>
</g>
</g>
<!-- Node15 -->
<g id="Node000015" class="node">
<title>Node15</title>
<g id="a_Node000015"><a xlink:href="../../dc/dc2/structIEEE_1_1__1588_1_1PTP_1_1__2019_1_1ManagementTLV.html#a43f14c90c32c2ebc698fa521f73ab202" target="_top" xlink:title="Set management ID from host byte order.">
<polygon fill="white" stroke="#666666" points="347.5,-41 213.5,-41 213.5,0 347.5,0 347.5,-41"/>
<text text-anchor="start" x="221.5" y="-29" font-family="Helvetica,sans-Serif" font-size="10.00">IEEE::_1588::PTP::</text>
<text text-anchor="start" x="221.5" y="-18" font-family="Helvetica,sans-Serif" font-size="10.00">_2019::ManagementTLV</text>
<text text-anchor="middle" x="280.5" y="-7" font-family="Helvetica,sans-Serif" font-size="10.00">::setManagementId</text>
</a>
</g>
</g>
<!-- Node13&#45;&gt;Node15 -->
<g id="edge14_Node000013_Node000015" class="edge">
<title>Node13&#45;&gt;Node15</title>
<g id="a_edge14_Node000013_Node000015"><a xlink:title=" ">
<path fill="none" stroke="#63b8ff" d="M413.91,-61.95C394.03,-55.73 369.52,-48.05 347.01,-41.01"/>
<polygon fill="#63b8ff" stroke="#63b8ff" points="412.97,-65.32 423.56,-64.97 415.06,-58.64 412.97,-65.32"/>
</a>
</g>
</g>
</g>
</svg>
