<?xml version="1.0" encoding="UTF-8" standalone="no"?>
<!DOCTYPE svg PUBLIC "-//W3C//DTD SVG 1.1//EN"
 "http://www.w3.org/Graphics/SVG/1.1/DTD/svg11.dtd">
<!-- Generated by graphviz version 2.43.0 (0)
 -->
<!-- Title: detail::be16_to_host Pages: 1 -->
<!--zoomable 452 -->

<svg id="main" version="1.1" xmlns="http://www.w3.org/2000/svg" xmlns:xlink="http://www.w3.org/1999/xlink" xml:space="preserve" onload="init(evt)">
<style type="text/css"><![CDATA[
.node, .edge {opacity: 0.7;}
.node.selected, .edge.selected {opacity: 1;}
.edge:hover path { stroke: red; }
.edge:hover polygon { stroke: red; fill: red; }
]]></style>

<defs>
  <circle id="rim" cx="0" cy="0" r="7"/>
  <circle id="rim2" cx="0" cy="0" r="3.5"/>
  <g id="zoomPlus">
    <use xlink:href="#rim" fill="#404040"><set attributeName="fill" to="#808080" begin="zoomplus.mouseover" end="zoomplus.mouseout"/></use>
    <path d="M-4,0h8M0,-4v8" fill="none" stroke="white" stroke-width="1.5" pointer-events="none"/>
  </g>
  <g id="zoomMin">
    <use xlink:href="#rim" fill="#404040"><set attributeName="fill" to="#808080" begin="zoomminus.mouseover" end="zoomminus.mouseout"/></use>
    <path d="M-4,0h8" fill="none" stroke="white" stroke-width="1.5" pointer-events="none"/>
  </g>
  <g id="arrowUp" transform="translate(30 24)">
    <use xlink:href="#rim"/>
    <path pointer-events="none" fill="none" stroke="white" stroke-width="1.5" d="M0,-3.0v7 M-2.5,-0.5L0,-3.0L2.5,-0.5"/>
  </g>
  <g id="arrowRight" transform="rotate(90) translate(36 -43)">
    <use xlink:href="#rim"/>
    <path pointer-events="none" fill="none" stroke="white" stroke-width="1.5" d="M0,-3.0v7 M-2.5,-0.5L0,-3.0L2.5,-0.5"/>
  </g>
  <g id="arrowDown" transform="rotate(180) translate(-30 -48)">
    <use xlink:href="#rim"/>
    <path pointer-events="none" fill="none" stroke="white" stroke-width="1.5" d="M0,-3.0v7 M-2.5,-0.5L0,-3.0L2.5,-0.5"/>
  </g>
  <g id="arrowLeft" transform="rotate(270) translate(-36 17)">
    <use xlink:href="#rim"/>
    <path pointer-events="none" fill="none" stroke="white" stroke-width="1.5" d="M0,-3.0v7 M-2.5,-0.5L0,-3.0L2.5,-0.5"/>
  </g>
  <g id="resetDef">
    <use xlink:href="#rim2" fill="#404040"><set attributeName="fill" to="#808080" begin="reset.mouseover" end="reset.mouseout"/></use>
  </g>
</defs>
<script type="application/ecmascript">
var viewWidth = 510;
var viewHeight = 452;
var sectionId = 'dynsection-1';
</script>
<script type="application/ecmascript" xlink:href="../../svg.min.js"/>
<svg id="graph" class="graph">
<g id="viewport">
<title>detail::be16_to_host</title>
<!-- Node1 -->
<g id="Node000001" class="node">
<title>Node1</title>
<g id="a_Node000001"><a xlink:title=" ">
<polygon fill="#999999" stroke="#666666" points="502,-225.5 386,-225.5 386,-206.5 502,-206.5 502,-225.5"/>
<text text-anchor="middle" x="444" y="-213.5" font-family="Helvetica,sans-Serif" font-size="10.00">detail::be16_to_host</text>
</a>
</g>
</g>
<!-- Node2 -->
<g id="Node000002" class="node">
<title>Node2</title>
<g id="a_Node000002"><a xlink:href="../../dc/dc2/structIEEE_1_1__1588_1_1PTP_1_1__2019_1_1ManagementTLV.html#a504f06ff757be835c4b326fc9d7406b7" target="_top" xlink:title="Get management ID in host byte order.">
<polygon fill="white" stroke="#666666" points="342,-443.5 208,-443.5 208,-402.5 342,-402.5 342,-443.5"/>
<text text-anchor="start" x="216" y="-431.5" font-family="Helvetica,sans-Serif" font-size="10.00">IEEE::_1588::PTP::</text>
<text text-anchor="start" x="216" y="-420.5" font-family="Helvetica,sans-Serif" font-size="10.00">_2019::ManagementTLV</text>
<text text-anchor="middle" x="275" y="-409.5" font-family="Helvetica,sans-Serif" font-size="10.00">::getManagementId</text>
</a>
</g>
</g>
<!-- Node1&#45;&gt;Node2 -->
<g id="edge1_Node000001_Node000002" class="edge">
<title>Node1&#45;&gt;Node2</title>
<g id="a_edge1_Node000001_Node000002"><a xlink:title=" ">
<path fill="none" stroke="#63b8ff" d="M437.83,-235.36C427.26,-271.42 399.85,-349.26 350,-394 346.51,-397.13 342.64,-399.95 338.55,-402.47"/>
<polygon fill="#63b8ff" stroke="#63b8ff" points="441.24,-236.17 440.58,-225.59 434.5,-234.27 441.24,-236.17"/>
</a>
</g>
</g>
<!-- Node3 -->
<g id="Node000003" class="node">
<title>Node3</title>
<g id="a_Node000003"><a xlink:href="../../d5/dab/structIEEE_1_1__1588_1_1PTP_1_1__2019_1_1CommonHeader.html#a8e3892178961527932c50a0d7a061dfd" target="_top" xlink:title="Check if two&#45;step flag is set.">
<polygon fill="white" stroke="#666666" points="340.5,-384.5 209.5,-384.5 209.5,-343.5 340.5,-343.5 340.5,-384.5"/>
<text text-anchor="start" x="217.5" y="-372.5" font-family="Helvetica,sans-Serif" font-size="10.00">IEEE::_1588::PTP::</text>
<text text-anchor="start" x="217.5" y="-361.5" font-family="Helvetica,sans-Serif" font-size="10.00">_2019::CommonHeader</text>
<text text-anchor="middle" x="275" y="-350.5" font-family="Helvetica,sans-Serif" font-size="10.00">::isTwoStep</text>
</a>
</g>
</g>
<!-- Node1&#45;&gt;Node3 -->
<g id="edge2_Node000001_Node000003" class="edge">
<title>Node1&#45;&gt;Node3</title>
<g id="a_edge2_Node000001_Node000003"><a xlink:title=" ">
<path fill="none" stroke="#63b8ff" d="M432.84,-234.54C417.84,-260.35 387.47,-307.07 350,-335 345.91,-338.05 341.45,-340.83 336.82,-343.34"/>
<polygon fill="#63b8ff" stroke="#63b8ff" points="435.93,-236.18 437.82,-225.76 429.84,-232.73 435.93,-236.18"/>
</a>
</g>
</g>
<!-- Node4 -->
<g id="Node000004" class="node">
<title>Node4</title>
<g id="a_Node000004"><a xlink:href="../../dd/d5b/classIEEE_1_1__1588_1_1PTP_1_1__2019_1_1Clocks_1_1PtpPort.html#ab83582f84eb72c45afa389da04eafafd" target="_top" xlink:title="Process received Announce message.">
<polygon fill="white" stroke="#666666" points="337.5,-325.5 212.5,-325.5 212.5,-284.5 337.5,-284.5 337.5,-325.5"/>
<text text-anchor="start" x="220.5" y="-313.5" font-family="Helvetica,sans-Serif" font-size="10.00">IEEE::_1588::PTP::</text>
<text text-anchor="start" x="220.5" y="-302.5" font-family="Helvetica,sans-Serif" font-size="10.00">_2019::Clocks::PtpPort</text>
<text text-anchor="middle" x="275" y="-291.5" font-family="Helvetica,sans-Serif" font-size="10.00">::process_announce</text>
</a>
</g>
</g>
<!-- Node1&#45;&gt;Node4 -->
<g id="edge3_Node000001_Node000004" class="edge">
<title>Node1&#45;&gt;Node4</title>
<g id="a_edge3_Node000001_Node000004"><a xlink:title=" ">
<path fill="none" stroke="#63b8ff" d="M421.71,-231.48C403.32,-244.43 375.72,-262.83 350,-276 344.23,-278.96 338.08,-281.8 331.89,-284.48"/>
<polygon fill="#63b8ff" stroke="#63b8ff" points="423.83,-234.27 429.95,-225.62 419.77,-228.57 423.83,-234.27"/>
</a>
</g>
</g>
<!-- Node6 -->
<g id="Node000006" class="node">
<title>Node6</title>
<g id="a_Node000006"><a xlink:href="../../dd/d5b/classIEEE_1_1__1588_1_1PTP_1_1__2019_1_1Clocks_1_1PtpPort.html#a6eea3cfb2fa2d3bf60f457204aac263d" target="_top" xlink:title="Process Management message (dataset GET/SET operations)">
<polygon fill="white" stroke="#666666" points="340.5,-266.5 209.5,-266.5 209.5,-225.5 340.5,-225.5 340.5,-266.5"/>
<text text-anchor="start" x="217.5" y="-254.5" font-family="Helvetica,sans-Serif" font-size="10.00">IEEE::_1588::PTP::</text>
<text text-anchor="start" x="217.5" y="-243.5" font-family="Helvetica,sans-Serif" font-size="10.00">_2019::Clocks::PtpPort</text>
<text text-anchor="middle" x="275" y="-232.5" font-family="Helvetica,sans-Serif" font-size="10.00">::process_management</text>
</a>
</g>
</g>
<!-- Node1&#45;&gt;Node6 -->
<g id="edge5_Node000001_Node000006" class="edge">
<title>Node1&#45;&gt;Node6</title>
<g id="a_edge5_Node000001_Node000006"><a xlink:title=" ">
<path fill="none" stroke="#63b8ff" d="M379.66,-227.38C366.94,-229.66 353.55,-232.07 340.78,-234.36"/>
<polygon fill="#63b8ff" stroke="#63b8ff" points="380.48,-230.79 389.7,-225.57 379.24,-223.9 380.48,-230.79"/>
</a>
</g>
</g>
<!-- Node7 -->
<g id="Node000007" class="node">
<title>Node7</title>
<g id="a_Node000007"><a xlink:href="../../dd/d5b/classIEEE_1_1__1588_1_1PTP_1_1__2019_1_1Clocks_1_1PtpPort.html#ad1c71f4696ee7b634b9fda2f9fdafad7" target="_top" xlink:title="Process Signaling message (unicast negotiation, PATH_TRACE, etc.)">
<polygon fill="white" stroke="#666666" points="337.5,-207.5 212.5,-207.5 212.5,-166.5 337.5,-166.5 337.5,-207.5"/>
<text text-anchor="start" x="220.5" y="-195.5" font-family="Helvetica,sans-Serif" font-size="10.00">IEEE::_1588::PTP::</text>
<text text-anchor="start" x="220.5" y="-184.5" font-family="Helvetica,sans-Serif" font-size="10.00">_2019::Clocks::PtpPort</text>
<text text-anchor="middle" x="275" y="-173.5" font-family="Helvetica,sans-Serif" font-size="10.00">::process_signaling</text>
</a>
</g>
</g>
<!-- Node1&#45;&gt;Node7 -->
<g id="edge6_Node000001_Node000007" class="edge">
<title>Node1&#45;&gt;Node7</title>
<g id="a_edge6_Node000001_Node000007"><a xlink:title=" ">
<path fill="none" stroke="#63b8ff" d="M377.9,-204.69C364.68,-202.4 350.82,-199.99 337.72,-197.72"/>
<polygon fill="#63b8ff" stroke="#63b8ff" points="377.4,-208.16 387.86,-206.42 378.6,-201.26 377.4,-208.16"/>
</a>
</g>
</g>
<!-- Node8 -->
<g id="Node000008" class="node">
<title>Node8</title>
<g id="a_Node000008"><a xlink:href="../../d5/dab/structIEEE_1_1__1588_1_1PTP_1_1__2019_1_1CommonHeader.html#acfa5f3eedb7017790b9646cd6e009368" target="_top" xlink:title="Validate header consistency with deterministic checks.">
<polygon fill="white" stroke="#666666" points="340.5,-148.5 209.5,-148.5 209.5,-107.5 340.5,-107.5 340.5,-148.5"/>
<text text-anchor="start" x="217.5" y="-136.5" font-family="Helvetica,sans-Serif" font-size="10.00">IEEE::_1588::PTP::</text>
<text text-anchor="start" x="217.5" y="-125.5" font-family="Helvetica,sans-Serif" font-size="10.00">_2019::CommonHeader</text>
<text text-anchor="middle" x="275" y="-114.5" font-family="Helvetica,sans-Serif" font-size="10.00">::validate</text>
</a>
</g>
</g>
<!-- Node1&#45;&gt;Node8 -->
<g id="edge7_Node000001_Node000008" class="edge">
<title>Node1&#45;&gt;Node8</title>
<g id="a_edge7_Node000001_Node000008"><a xlink:title=" ">
<path fill="none" stroke="#63b8ff" d="M421.35,-200.58C402.94,-187.89 375.5,-169.93 350,-157 344.22,-154.07 338.06,-151.23 331.87,-148.56"/>
<polygon fill="#63b8ff" stroke="#63b8ff" points="419.42,-203.5 429.62,-206.35 423.42,-197.76 419.42,-203.5"/>
</a>
</g>
</g>
<!-- Node10 -->
<g id="Node000010" class="node">
<title>Node10</title>
<g id="a_Node000010"><a xlink:href="../../dd/d8c/structIEEE_1_1__1588_1_1PTP_1_1__2019_1_1AnnounceBody.html#a9eba687b764b366ae8cd9e2c5075b802" target="_top" xlink:title="Validate announce message fields.">
<polygon fill="white" stroke="#666666" points="337.5,-89.5 212.5,-89.5 212.5,-48.5 337.5,-48.5 337.5,-89.5"/>
<text text-anchor="start" x="220.5" y="-77.5" font-family="Helvetica,sans-Serif" font-size="10.00">IEEE::_1588::PTP::</text>
<text text-anchor="start" x="220.5" y="-66.5" font-family="Helvetica,sans-Serif" font-size="10.00">_2019::AnnounceBody</text>
<text text-anchor="middle" x="275" y="-55.5" font-family="Helvetica,sans-Serif" font-size="10.00">::validate</text>
</a>
</g>
</g>
<!-- Node1&#45;&gt;Node10 -->
<g id="edge9_Node000001_Node000010" class="edge">
<title>Node1&#45;&gt;Node10</title>
<g id="a_edge9_Node000001_Node000010"><a xlink:title=" ">
<path fill="none" stroke="#63b8ff" d="M432.8,-197.62C417.76,-172.03 387.33,-125.7 350,-98 345.9,-94.96 341.44,-92.19 336.81,-89.68"/>
<polygon fill="#63b8ff" stroke="#63b8ff" points="429.79,-199.39 437.8,-206.33 435.86,-195.91 429.79,-199.39"/>
</a>
</g>
</g>
<!-- Node11 -->
<g id="Node000011" class="node">
<title>Node11</title>
<g id="a_Node000011"><a xlink:href="../../da/d44/structIEEE_1_1__1588_1_1PTP_1_1__2019_1_1TLVHeader.html#ae4467c38de8f3a88b72ed79b9d6f4300" target="_top" xlink:title="Validate TLV header.">
<polygon fill="white" stroke="#666666" points="350,-30 200,-30 200,0 350,0 350,-30"/>
<text text-anchor="start" x="208" y="-18" font-family="Helvetica,sans-Serif" font-size="10.00">IEEE::_1588::PTP::</text>
<text text-anchor="middle" x="275" y="-7" font-family="Helvetica,sans-Serif" font-size="10.00">_2019::TLVHeader::validate</text>
</a>
</g>
</g>
<!-- Node1&#45;&gt;Node11 -->
<g id="edge10_Node000001_Node000011" class="edge">
<title>Node1&#45;&gt;Node11</title>
<g id="a_edge10_Node000001_Node000011"><a xlink:title=" ">
<path fill="none" stroke="#63b8ff" d="M438.04,-196.47C427.83,-160.14 400.99,-81.98 350,-39 345.97,-35.61 341.45,-32.69 336.69,-30.18"/>
<polygon fill="#63b8ff" stroke="#63b8ff" points="434.71,-197.56 440.69,-206.31 441.47,-195.75 434.71,-197.56"/>
</a>
</g>
</g>
<!-- Node5 -->
<g id="Node000005" class="node">
<title>Node5</title>
<g id="a_Node000005"><a xlink:href="../../d0/d7d/classIEEE_1_1__1588_1_1PTP_1_1__2019_1_1Clocks_1_1BoundaryClock.html#a8d21ce8a95c4f7fcee5ab7853fa6c60e" target="_top" xlink:title="Process received PTP message on specific port.">
<polygon fill="white" stroke="#666666" points="164,-325.5 0,-325.5 0,-284.5 164,-284.5 164,-325.5"/>
<text text-anchor="start" x="8" y="-313.5" font-family="Helvetica,sans-Serif" font-size="10.00">IEEE::_1588::PTP::</text>
<text text-anchor="start" x="8" y="-302.5" font-family="Helvetica,sans-Serif" font-size="10.00">_2019::Clocks::BoundaryClock</text>
<text text-anchor="middle" x="82" y="-291.5" font-family="Helvetica,sans-Serif" font-size="10.00">::process_message</text>
</a>
</g>
</g>
<!-- Node4&#45;&gt;Node5 -->
<g id="edge4_Node000004_Node000005" class="edge">
<title>Node4&#45;&gt;Node5</title>
<g id="a_edge4_Node000004_Node000005"><a xlink:title=" ">
<path fill="none" stroke="#63b8ff" d="M201.99,-305C189.6,-305 176.65,-305 164.04,-305"/>
<polygon fill="#63b8ff" stroke="#63b8ff" points="202.25,-308.5 212.25,-305 202.25,-301.5 202.25,-308.5"/>
</a>
</g>
</g>
<!-- Node9 -->
<g id="Node000009" class="node">
<title>Node9</title>
<g id="a_Node000009"><a xlink:href="../../d0/de3/structIEEE_1_1__1588_1_1PTP_1_1__2019_1_1PTPMessage.html#ab8bcc56e4cfd00c45bf6da5c959dce25" target="_top" xlink:title="Validate complete message structure.">
<polygon fill="white" stroke="#666666" points="161.5,-143 2.5,-143 2.5,-113 161.5,-113 161.5,-143"/>
<text text-anchor="start" x="10.5" y="-131" font-family="Helvetica,sans-Serif" font-size="10.00">IEEE::_1588::PTP::</text>
<text text-anchor="middle" x="82" y="-120" font-family="Helvetica,sans-Serif" font-size="10.00">_2019::PTPMessage::validate</text>
</a>
</g>
</g>
<!-- Node8&#45;&gt;Node9 -->
<g id="edge8_Node000008_Node000009" class="edge">
<title>Node8&#45;&gt;Node9</title>
<g id="a_edge8_Node000008_Node000009"><a xlink:title=" ">
<path fill="none" stroke="#63b8ff" d="M199.17,-128C186.92,-128 174.18,-128 161.83,-128"/>
<polygon fill="#63b8ff" stroke="#63b8ff" points="199.34,-131.5 209.34,-128 199.34,-124.5 199.34,-131.5"/>
</a>
</g>
</g>
</g>
</svg>

<g id="navigator" transform="translate(0 0)" fill="#404254">
  <rect fill="#f2f5e9" fill-opacity="0.5" stroke="#606060" stroke-width=".5" x="0" y="0" width="60" height="60"/>
  <use id="zoomplus" xlink:href="#zoomPlus" x="17" y="9" onmousedown="handleZoom(evt,'in')"/>
  <use id="zoomminus" xlink:href="#zoomMin" x="42" y="9" onmousedown="handleZoom(evt,'out')"/>
  <use id="reset" xlink:href="#resetDef" x="30" y="36" onmousedown="handleReset()"/>
   <use id="arrowup" xlink:href="#arrowUp" x="0" y="0" onmousedown="handlePan(0,-1)"/>
  <use id="arrowright" xlink:href="#arrowRight" x="0" y="0" onmousedown="handlePan(1,0)"/>
  <use id="arrowdown" xlink:href="#arrowDown" x="0" y="0" onmousedown="handlePan(0,1)"/>
  <use id="arrowleft" xlink:href="#arrowLeft" x="0" y="0" onmousedown="handlePan(-1,0)"/>
</g>
<svg viewBox="0 0 15 15" width="100%" height="30px" preserveAspectRatio="xMaxYMin meet">
 <g id="arrow_out" transform="scale(0.3 0.3)">
  <a xlink:href="namespacedetail_a162d12447333d9129db6326825711788_icgraph_org.svg" target="_base">
   <rect id="button" ry="5" rx="5" y="6" x="6" height="38" width="38"
        fill="#f2f5e9" fill-opacity="0.5" stroke="#606060" stroke-width="1.0"/>
   <path id="arrow"
     d="M 11.500037,31.436501 C 11.940474,20.09759 22.043105,11.32322 32.158766,21.979434 L 37.068811,17.246167 C 37.068811,17.246167 37.088388,32 37.088388,32 L 22.160133,31.978069 C 22.160133,31.978069 26.997745,27.140456 26.997745,27.140456 C 18.528582,18.264221 13.291696,25.230495 11.500037,31.436501 z"
     style="fill:#404040;"/>
  </a>
 </g>
</svg>

<style type='text/css'>
<![CDATA[
[data-mouse-over-selected='false'] { opacity: 0.7; }
[data-mouse-over-selected='true']  { opacity: 1.0; }
]]>
</style>
<script type="application/ecmascript"><![CDATA[
document.addEventListener('DOMContentLoaded', (event) => {
  highlightEdges();
  highlightAdjacentNodes();
});
]]></script>
</svg>
