<?xml version="1.0" encoding="UTF-8" standalone="no"?>
<!DOCTYPE svg PUBLIC "-//W3C//DTD SVG 1.1//EN"
 "http://www.w3.org/Graphics/SVG/1.1/DTD/svg11.dtd">
<!-- Generated by graphviz version 2.43.0 (0)
 -->
<!-- Title: detail::bswap32 Pages: 1 -->
<svg width="254pt" height="64pt"
 viewBox="0.00 0.00 254.00 64.00" xmlns="http://www.w3.org/2000/svg" xmlns:xlink="http://www.w3.org/1999/xlink">
<g id="graph0" class="graph" transform="scale(1 1) rotate(0) translate(4 60)">
<title>detail::bswap32</title>
<!-- Node1 -->
<g id="Node000001" class="node">
<title>Node1</title>
<g id="a_Node000001"><a xlink:title=" ">
<polygon fill="#999999" stroke="#666666" points="246,-37 152,-37 152,-18 246,-18 246,-37"/>
<text text-anchor="middle" x="199" y="-25" font-family="Helvetica,sans-Serif" font-size="10.00">detail::bswap32</text>
</a>
</g>
</g>
<!-- Node2 -->
<g id="Node000002" class="node">
<title>Node2</title>
<g id="a_Node000002"><a xlink:href="../../dd/d39/namespacedetail.html#a0704716287b0d755b027f4cdd818907f" target="_top" xlink:title=" ">
<polygon fill="white" stroke="#666666" points="116,-56 0,-56 0,-37 116,-37 116,-56"/>
<text text-anchor="middle" x="58" y="-44" font-family="Helvetica,sans-Serif" font-size="10.00">detail::be32_to_host</text>
</a>
</g>
</g>
<!-- Node1&#45;&gt;Node2 -->
<g id="edge1_Node000001_Node000002" class="edge">
<title>Node1&#45;&gt;Node2</title>
<g id="a_edge1_Node000001_Node000002"><a xlink:title=" ">
<path fill="none" stroke="#63b8ff" d="M141.65,-35.2C133.27,-36.35 124.62,-37.53 116.21,-38.68"/>
<polygon fill="#63b8ff" stroke="#63b8ff" points="142.28,-38.65 151.72,-33.83 141.33,-31.71 142.28,-38.65"/>
</a>
</g>
</g>
<!-- Node3 -->
<g id="Node000003" class="node">
<title>Node3</title>
<g id="a_Node000003"><a xlink:href="../../dd/d39/namespacedetail.html#ac31380aed59758122d770a81ca6a82da" target="_top" xlink:title=" ">
<polygon fill="white" stroke="#666666" points="116,-19 0,-19 0,0 116,0 116,-19"/>
<text text-anchor="middle" x="58" y="-7" font-family="Helvetica,sans-Serif" font-size="10.00">detail::host_to_be32</text>
</a>
</g>
</g>
<!-- Node1&#45;&gt;Node3 -->
<g id="edge2_Node000001_Node000003" class="edge">
<title>Node1&#45;&gt;Node3</title>
<g id="a_edge2_Node000001_Node000003"><a xlink:title=" ">
<path fill="none" stroke="#63b8ff" d="M141.65,-20.2C133.27,-19.12 124.62,-18 116.21,-16.91"/>
<polygon fill="#63b8ff" stroke="#63b8ff" points="141.35,-23.69 151.72,-21.51 142.25,-16.75 141.35,-23.69"/>
</a>
</g>
</g>
</g>
</svg>
