<?xml version="1.0" encoding="UTF-8" standalone="no"?>
<!DOCTYPE svg PUBLIC "-//W3C//DTD SVG 1.1//EN"
 "http://www.w3.org/Graphics/SVG/1.1/DTD/svg11.dtd">
<!-- Generated by graphviz version 2.43.0 (0)
 -->
<!-- Title: Common::utils::logging::log Pages: 1 -->
<!--zoomable 182 -->

<svg id="main" version="1.1" xmlns="http://www.w3.org/2000/svg" xmlns:xlink="http://www.w3.org/1999/xlink" xml:space="preserve" onload="init(evt)">
<style type="text/css"><![CDATA[
.node, .edge {opacity: 0.7;}
.node.selected, .edge.selected {opacity: 1;}
.edge:hover path { stroke: red; }
.edge:hover polygon { stroke: red; fill: red; }
]]></style>

<defs>
  <circle id="rim" cx="0" cy="0" r="7"/>
  <circle id="rim2" cx="0" cy="0" r="3.5"/>
  <g id="zoomPlus">
    <use xlink:href="#rim" fill="#404040"><set attributeName="fill" to="#808080" begin="zoomplus.mouseover" end="zoomplus.mouseout"/></use>
    <path d="M-4,0h8M0,-4v8" fill="none" stroke="white" stroke-width="1.5" pointer-events="none"/>
  </g>
  <g id="zoomMin">
    <use xlink:href="#rim" fill="#404040"><set attributeName="fill" to="#808080" begin="zoomminus.mouseover" end="zoomminus.mouseout"/></use>
    <path d="M-4,0h8" fill="none" stroke="white" stroke-width="1.5" pointer-events="none"/>
  </g>
  <g id="arrowUp" transform="translate(30 24)">
    <use xlink:href="#rim"/>
    <path pointer-events="none" fill="none" stroke="white" stroke-width="1.5" d="M0,-3.0v7 M-2.5,-0.5L0,-3.0L2.5,-0.5"/>
  </g>
  <g id="arrowRight" transform="rotate(90) translate(36 -43)">
    <use xlink:href="#rim"/>
    <path pointer-events="none" fill="none" stroke="white" stroke-width="1.5" d="M0,-3.0v7 M-2.5,-0.5L0,-3.0L2.5,-0.5"/>
  </g>
  <g id="arrowDown" transform="rotate(180) translate(-30 -48)">
    <use xlink:href="#rim"/>
    <path pointer-events="none" fill="none" stroke="white" stroke-width="1.5" d="M0,-3.0v7 M-2.5,-0.5L0,-3.0L2.5,-0.5"/>
  </g>
  <g id="arrowLeft" transform="rotate(270) translate(-36 17)">
    <use xlink:href="#rim"/>
    <path pointer-events="none" fill="none" stroke="white" stroke-width="1.5" d="M0,-3.0v7 M-2.5,-0.5L0,-3.0L2.5,-0.5"/>
  </g>
  <g id="resetDef">
    <use xlink:href="#rim2" fill="#404040"><set attributeName="fill" to="#808080" begin="reset.mouseover" end="reset.mouseout"/></use>
  </g>
</defs>
<script type="application/ecmascript">
var viewWidth = 729;
var viewHeight = 182;
var sectionId = 'dynsection-7';
</script>
<script type="application/ecmascript" xlink:href="../../svg.min.js"/>
<svg id="graph" class="graph">
<g id="viewport">
<title>Common::utils::logging::log</title>
<!-- Node1 -->
<g id="Node000001" class="node">
<title>Node1</title>
<g id="a_Node000001"><a xlink:title=" ">
<polygon fill="#999999" stroke="#666666" points="721,-96.5 570,-96.5 570,-77.5 721,-77.5 721,-96.5"/>
<text text-anchor="middle" x="645.5" y="-84.5" font-family="Helvetica,sans-Serif" font-size="10.00">Common::utils::logging::log</text>
</a>
</g>
</g>
<!-- Node2 -->
<g id="Node000002" class="node">
<title>Node2</title>
<g id="a_Node000002"><a xlink:href="../../d2/d59/namespaceCommon_1_1utils_1_1logging.html#abd4d1491b89d46b3c1a23c3215e05aa9" target="_top" xlink:title=" ">
<polygon fill="white" stroke="#666666" points="534,-78 404,-78 404,-48 534,-48 534,-78"/>
<text text-anchor="start" x="412" y="-66" font-family="Helvetica,sans-Serif" font-size="10.00">Common::utils::logging</text>
<text text-anchor="middle" x="469" y="-55" font-family="Helvetica,sans-Serif" font-size="10.00">::debug</text>
</a>
</g>
</g>
<!-- Node1&#45;&gt;Node2 -->
<g id="edge1_Node000001_Node000002" class="edge">
<title>Node1&#45;&gt;Node2</title>
<g id="a_edge1_Node000001_Node000002"><a xlink:title=" ">
<path fill="none" stroke="#63b8ff" d="M565.31,-76.11C554.83,-74.67 544.2,-73.21 534.03,-71.81"/>
<polygon fill="#63b8ff" stroke="#63b8ff" points="564.9,-79.58 575.28,-77.48 565.85,-72.65 564.9,-79.58"/>
</a>
</g>
</g>
<!-- Node6 -->
<g id="Node000006" class="node">
<title>Node6</title>
<g id="a_Node000006"><a xlink:href="../../d2/d59/namespaceCommon_1_1utils_1_1logging.html#ac4ff0da06ed8691b6de48fdfb80763a7" target="_top" xlink:title=" ">
<polygon fill="white" stroke="#666666" points="534,-126 404,-126 404,-96 534,-96 534,-126"/>
<text text-anchor="start" x="412" y="-114" font-family="Helvetica,sans-Serif" font-size="10.00">Common::utils::logging</text>
<text text-anchor="middle" x="469" y="-103" font-family="Helvetica,sans-Serif" font-size="10.00">::error</text>
</a>
</g>
</g>
<!-- Node1&#45;&gt;Node6 -->
<g id="edge5_Node000001_Node000006" class="edge">
<title>Node1&#45;&gt;Node6</title>
<g id="a_edge5_Node000001_Node000006"><a xlink:title=" ">
<path fill="none" stroke="#63b8ff" d="M565.31,-97.89C554.83,-99.33 544.2,-100.79 534.03,-102.19"/>
<polygon fill="#63b8ff" stroke="#63b8ff" points="565.85,-101.35 575.28,-96.52 564.9,-94.42 565.85,-101.35"/>
</a>
</g>
</g>
<!-- Node7 -->
<g id="Node000007" class="node">
<title>Node7</title>
<g id="a_Node000007"><a xlink:href="../../d2/d59/namespaceCommon_1_1utils_1_1logging.html#a227085469bb6814ec47bc7bad3cb5ae6" target="_top" xlink:title=" ">
<polygon fill="white" stroke="#666666" points="534,-30 404,-30 404,0 534,0 534,-30"/>
<text text-anchor="start" x="412" y="-18" font-family="Helvetica,sans-Serif" font-size="10.00">Common::utils::logging</text>
<text text-anchor="middle" x="469" y="-7" font-family="Helvetica,sans-Serif" font-size="10.00">::info</text>
</a>
</g>
</g>
<!-- Node1&#45;&gt;Node7 -->
<g id="edge6_Node000001_Node000007" class="edge">
<title>Node1&#45;&gt;Node7</title>
<g id="a_edge6_Node000001_Node000007"><a xlink:title=" ">
<path fill="none" stroke="#63b8ff" d="M614.24,-73.36C592.14,-63.52 561.36,-50.07 534,-39 526.63,-36.02 518.73,-32.95 511.09,-30.05"/>
<polygon fill="#63b8ff" stroke="#63b8ff" points="612.89,-76.59 623.45,-77.48 615.75,-70.2 612.89,-76.59"/>
</a>
</g>
</g>
<!-- Node8 -->
<g id="Node000008" class="node">
<title>Node8</title>
<g id="a_Node000008"><a xlink:href="../../d2/d59/namespaceCommon_1_1utils_1_1logging.html#a13808fa27e8709ab556ab27063fd6c97" target="_top" xlink:title=" ">
<polygon fill="white" stroke="#666666" points="534,-174 404,-174 404,-144 534,-144 534,-174"/>
<text text-anchor="start" x="412" y="-162" font-family="Helvetica,sans-Serif" font-size="10.00">Common::utils::logging</text>
<text text-anchor="middle" x="469" y="-151" font-family="Helvetica,sans-Serif" font-size="10.00">::warn</text>
</a>
</g>
</g>
<!-- Node1&#45;&gt;Node8 -->
<g id="edge8_Node000001_Node000008" class="edge">
<title>Node1&#45;&gt;Node8</title>
<g id="a_edge8_Node000001_Node000008"><a xlink:title=" ">
<path fill="none" stroke="#63b8ff" d="M614.24,-100.64C592.14,-110.48 561.36,-123.93 534,-135 526.63,-137.98 518.73,-141.05 511.09,-143.95"/>
<polygon fill="#63b8ff" stroke="#63b8ff" points="615.75,-103.8 623.45,-96.52 612.89,-97.41 615.75,-103.8"/>
</a>
</g>
</g>
<!-- Node3 -->
<g id="Node000003" class="node">
<title>Node3</title>
<g id="a_Node000003"><a xlink:href="../../d3/d0d/structIEEE_1_1__1588_1_1PTP_1_1__2019_1_1Clocks_1_1SynchronizationData.html#a678490ba0932bf8bcdbe56c5b278e48f" target="_top" xlink:title="Calculate offset from master using timestamps.">
<polygon fill="white" stroke="#666666" points="368,-148.5 200,-148.5 200,-107.5 368,-107.5 368,-148.5"/>
<text text-anchor="start" x="208" y="-136.5" font-family="Helvetica,sans-Serif" font-size="10.00">IEEE::_1588::PTP::</text>
<text text-anchor="start" x="208" y="-125.5" font-family="Helvetica,sans-Serif" font-size="10.00">_2019::Clocks::Synchronization</text>
<text text-anchor="middle" x="284" y="-114.5" font-family="Helvetica,sans-Serif" font-size="10.00">Data::calculateOffset</text>
</a>
</g>
</g>
<!-- Node2&#45;&gt;Node3 -->
<g id="edge2_Node000002_Node000003" class="edge">
<title>Node2&#45;&gt;Node3</title>
<g id="a_edge2_Node000002_Node000003"><a xlink:title=" ">
<path fill="none" stroke="#63b8ff" d="M416.04,-81.46C393.2,-89.57 366.28,-99.13 342.81,-107.47"/>
<polygon fill="#63b8ff" stroke="#63b8ff" points="417.3,-84.72 425.56,-78.08 414.96,-78.12 417.3,-84.72"/>
</a>
</g>
</g>
<!-- Node4 -->
<g id="Node000004" class="node">
<title>Node4</title>
<g id="a_Node000004"><a xlink:href="../../dd/d5b/classIEEE_1_1__1588_1_1PTP_1_1__2019_1_1Clocks_1_1PtpPort.html#a4ab8635c746ecdc8190cb48fe0762e9f" target="_top" xlink:title="Process received Follow_Up message.">
<polygon fill="white" stroke="#666666" points="346.5,-59.5 221.5,-59.5 221.5,-18.5 346.5,-18.5 346.5,-59.5"/>
<text text-anchor="start" x="229.5" y="-47.5" font-family="Helvetica,sans-Serif" font-size="10.00">IEEE::_1588::PTP::</text>
<text text-anchor="start" x="229.5" y="-36.5" font-family="Helvetica,sans-Serif" font-size="10.00">_2019::Clocks::PtpPort</text>
<text text-anchor="middle" x="284" y="-25.5" font-family="Helvetica,sans-Serif" font-size="10.00">::process_follow_up</text>
</a>
</g>
</g>
<!-- Node2&#45;&gt;Node4 -->
<g id="edge3_Node000002_Node000004" class="edge">
<title>Node2&#45;&gt;Node4</title>
<g id="a_edge3_Node000002_Node000004"><a xlink:title=" ">
<path fill="none" stroke="#63b8ff" d="M393.8,-53.27C378.09,-51.21 361.68,-49.06 346.51,-47.07"/>
<polygon fill="#63b8ff" stroke="#63b8ff" points="393.63,-56.78 404,-54.61 394.54,-49.84 393.63,-56.78"/>
</a>
</g>
</g>
<!-- Node5 -->
<g id="Node000005" class="node">
<title>Node5</title>
<g id="a_Node000005"><a xlink:href="../../d0/d7d/classIEEE_1_1__1588_1_1PTP_1_1__2019_1_1Clocks_1_1BoundaryClock.html#a8d21ce8a95c4f7fcee5ab7853fa6c60e" target="_top" xlink:title="Process received PTP message on specific port.">
<polygon fill="white" stroke="#666666" points="164,-59.5 0,-59.5 0,-18.5 164,-18.5 164,-59.5"/>
<text text-anchor="start" x="8" y="-47.5" font-family="Helvetica,sans-Serif" font-size="10.00">IEEE::_1588::PTP::</text>
<text text-anchor="start" x="8" y="-36.5" font-family="Helvetica,sans-Serif" font-size="10.00">_2019::Clocks::BoundaryClock</text>
<text text-anchor="middle" x="82" y="-25.5" font-family="Helvetica,sans-Serif" font-size="10.00">::process_message</text>
</a>
</g>
</g>
<!-- Node4&#45;&gt;Node5 -->
<g id="edge4_Node000004_Node000005" class="edge">
<title>Node4&#45;&gt;Node5</title>
<g id="a_edge4_Node000004_Node000005"><a xlink:title=" ">
<path fill="none" stroke="#63b8ff" d="M211.04,-39C195.88,-39 179.79,-39 164.32,-39"/>
<polygon fill="#63b8ff" stroke="#63b8ff" points="211.36,-42.5 221.36,-39 211.36,-35.5 211.36,-42.5"/>
</a>
</g>
</g>
<!-- Node7&#45;&gt;Node4 -->
<g id="edge7_Node000007_Node000004" class="edge">
<title>Node7&#45;&gt;Node4</title>
<g id="a_edge7_Node000007_Node000004"><a xlink:title=" ">
<path fill="none" stroke="#63b8ff" d="M393.8,-24.73C378.09,-26.79 361.68,-28.94 346.51,-30.93"/>
<polygon fill="#63b8ff" stroke="#63b8ff" points="394.54,-28.16 404,-23.39 393.63,-21.22 394.54,-28.16"/>
</a>
</g>
</g>
<!-- Node8&#45;&gt;Node3 -->
<g id="edge9_Node000008_Node000003" class="edge">
<title>Node8&#45;&gt;Node3</title>
<g id="a_edge9_Node000008_Node000003"><a xlink:title=" ">
<path fill="none" stroke="#63b8ff" d="M394.12,-146.49C385.61,-145.04 376.89,-143.57 368.27,-142.11"/>
<polygon fill="#63b8ff" stroke="#63b8ff" points="393.55,-149.94 404,-148.16 394.72,-143.04 393.55,-149.94"/>
</a>
</g>
</g>
</g>
</svg>

<g id="navigator" transform="translate(0 0)" fill="#404254">
  <rect fill="#f2f5e9" fill-opacity="0.5" stroke="#606060" stroke-width=".5" x="0" y="0" width="60" height="60"/>
  <use id="zoomplus" xlink:href="#zoomPlus" x="17" y="9" onmousedown="handleZoom(evt,'in')"/>
  <use id="zoomminus" xlink:href="#zoomMin" x="42" y="9" onmousedown="handleZoom(evt,'out')"/>
  <use id="reset" xlink:href="#resetDef" x="30" y="36" onmousedown="handleReset()"/>
   <use id="arrowup" xlink:href="#arrowUp" x="0" y="0" onmousedown="handlePan(0,-1)"/>
  <use id="arrowright" xlink:href="#arrowRight" x="0" y="0" onmousedown="handlePan(1,0)"/>
  <use id="arrowdown" xlink:href="#arrowDown" x="0" y="0" onmousedown="handlePan(0,1)"/>
  <use id="arrowleft" xlink:href="#arrowLeft" x="0" y="0" onmousedown="handlePan(-1,0)"/>
</g>
<svg viewBox="0 0 15 15" width="100%" height="30px" preserveAspectRatio="xMaxYMin meet">
 <g id="arrow_out" transform="scale(0.3 0.3)">
  <a xlink:href="namespaceCommon_1_1utils_1_1logging_ad30a8c57a6af65c91d9085ce0a592463_icgraph_org.svg" target="_base">
   <rect id="button" ry="5" rx="5" y="6" x="6" height="38" width="38"
        fill="#f2f5e9" fill-opacity="0.5" stroke="#606060" stroke-width="1.0"/>
   <path id="arrow"
     d="M 11.500037,31.436501 C 11.940474,20.09759 22.043105,11.32322 32.158766,21.979434 L 37.068811,17.246167 C 37.068811,17.246167 37.088388,32 37.088388,32 L 22.160133,31.978069 C 22.160133,31.978069 26.997745,27.140456 26.997745,27.140456 C 18.528582,18.264221 13.291696,25.230495 11.500037,31.436501 z"
     style="fill:#404040;"/>
  </a>
 </g>
</svg>

<style type='text/css'>
<![CDATA[
[data-mouse-over-selected='false'] { opacity: 0.7; }
[data-mouse-over-selected='true']  { opacity: 1.0; }
]]>
</style>
<script type="application/ecmascript"><![CDATA[
document.addEventListener('DOMContentLoaded', (event) => {
  highlightEdges();
  highlightAdjacentNodes();
});
]]></script>
</svg>
