<?xml version="1.0" encoding="UTF-8" standalone="no"?>
<!DOCTYPE svg PUBLIC "-//W3C//DTD SVG 1.1//EN"
 "http://www.w3.org/Graphics/SVG/1.1/DTD/svg11.dtd">
<!-- Generated by graphviz version 2.43.0 (0)
 -->
<!-- Title: Common::utils::logging::info Pages: 1 -->
<svg width="491pt" height="38pt"
 viewBox="0.00 0.00 491.00 38.00" xmlns="http://www.w3.org/2000/svg" xmlns:xlink="http://www.w3.org/1999/xlink">
<g id="graph0" class="graph" transform="scale(1 1) rotate(0) translate(4 34)">
<title>Common::utils::logging::info</title>
<!-- Node1 -->
<g id="Node000001" class="node">
<title>Node1</title>
<g id="a_Node000001"><a xlink:title=" ">
<polygon fill="#999999" stroke="#666666" points="130,-30 0,-30 0,0 130,0 130,-30"/>
<text text-anchor="start" x="8" y="-18" font-family="Helvetica,sans-Serif" font-size="10.00">Common::utils::logging</text>
<text text-anchor="middle" x="65" y="-7" font-family="Helvetica,sans-Serif" font-size="10.00">::info</text>
</a>
</g>
</g>
<!-- Node2 -->
<g id="Node000002" class="node">
<title>Node2</title>
<g id="a_Node000002"><a xlink:href="../../d2/d59/namespaceCommon_1_1utils_1_1logging.html#ad30a8c57a6af65c91d9085ce0a592463" target="_top" xlink:title=" ">
<polygon fill="white" stroke="#666666" points="317,-24.5 166,-24.5 166,-5.5 317,-5.5 317,-24.5"/>
<text text-anchor="middle" x="241.5" y="-12.5" font-family="Helvetica,sans-Serif" font-size="10.00">Common::utils::logging::log</text>
</a>
</g>
</g>
<!-- Node1&#45;&gt;Node2 -->
<g id="edge1_Node000001_Node000002" class="edge">
<title>Node1&#45;&gt;Node2</title>
<g id="a_edge1_Node000001_Node000002"><a xlink:title=" ">
<path fill="none" stroke="#63b8ff" d="M130.48,-15C138.79,-15 147.39,-15 155.95,-15"/>
<polygon fill="#63b8ff" stroke="#63b8ff" points="155.97,-18.5 165.97,-15 155.97,-11.5 155.97,-18.5"/>
</a>
</g>
</g>
<!-- Node3 -->
<g id="Node000003" class="node">
<title>Node3</title>
<g id="a_Node000003"><a xlink:href="../../d2/d59/namespaceCommon_1_1utils_1_1logging.html#a0d4c11f80297a0645e32fad0fe3e4272" target="_top" xlink:title=" ">
<polygon fill="white" stroke="#666666" points="483,-30 353,-30 353,0 483,0 483,-30"/>
<text text-anchor="start" x="361" y="-18" font-family="Helvetica,sans-Serif" font-size="10.00">Common::utils::logging</text>
<text text-anchor="middle" x="418" y="-7" font-family="Helvetica,sans-Serif" font-size="10.00">::sink_ref</text>
</a>
</g>
</g>
<!-- Node2&#45;&gt;Node3 -->
<g id="edge2_Node000002_Node000003" class="edge">
<title>Node2&#45;&gt;Node3</title>
<g id="a_edge2_Node000002_Node000003"><a xlink:title=" ">
<path fill="none" stroke="#63b8ff" d="M317.01,-15C325.51,-15 334.17,-15 342.66,-15"/>
<polygon fill="#63b8ff" stroke="#63b8ff" points="342.91,-18.5 352.91,-15 342.91,-11.5 342.91,-18.5"/>
</a>
</g>
</g>
</g>
</svg>
