<?xml version="1.0" encoding="UTF-8" standalone="no"?>
<!DOCTYPE svg PUBLIC "-//W3C//DTD SVG 1.1//EN"
 "http://www.w3.org/Graphics/SVG/1.1/DTD/svg11.dtd">
<!-- Generated by graphviz version 2.43.0 (0)
 -->
<!-- Title: Common::utils::logging::log Pages: 1 -->
<svg width="729pt" height="182pt"
 viewBox="0.00 0.00 729.00 182.00" xmlns="http://www.w3.org/2000/svg" xmlns:xlink="http://www.w3.org/1999/xlink">
<g id="graph0" class="graph" transform="scale(1 1) rotate(0) translate(4 178)">
<title>Common::utils::logging::log</title>
<!-- Node1 -->
<g id="Node000001" class="node">
<title>Node1</title>
<g id="a_Node000001"><a xlink:title=" ">
<polygon fill="#999999" stroke="#666666" points="721,-96.5 570,-96.5 570,-77.5 721,-77.5 721,-96.5"/>
<text text-anchor="middle" x="645.5" y="-84.5" font-family="Helvetica,sans-Serif" font-size="10.00">Common::utils::logging::log</text>
</a>
</g>
</g>
<!-- Node2 -->
<g id="Node000002" class="node">
<title>Node2</title>
<g id="a_Node000002"><a xlink:href="../../d2/d59/namespaceCommon_1_1utils_1_1logging.html#abd4d1491b89d46b3c1a23c3215e05aa9" target="_top" xlink:title=" ">
<polygon fill="white" stroke="#666666" points="534,-78 404,-78 404,-48 534,-48 534,-78"/>
<text text-anchor="start" x="412" y="-66" font-family="Helvetica,sans-Serif" font-size="10.00">Common::utils::logging</text>
<text text-anchor="middle" x="469" y="-55" font-family="Helvetica,sans-Serif" font-size="10.00">::debug</text>
</a>
</g>
</g>
<!-- Node1&#45;&gt;Node2 -->
<g id="edge1_Node000001_Node000002" class="edge">
<title>Node1&#45;&gt;Node2</title>
<g id="a_edge1_Node000001_Node000002"><a xlink:title=" ">
<path fill="none" stroke="#63b8ff" d="M565.31,-76.11C554.83,-74.67 544.2,-73.21 534.03,-71.81"/>
<polygon fill="#63b8ff" stroke="#63b8ff" points="564.9,-79.58 575.28,-77.48 565.85,-72.65 564.9,-79.58"/>
</a>
</g>
</g>
<!-- Node6 -->
<g id="Node000006" class="node">
<title>Node6</title>
<g id="a_Node000006"><a xlink:href="../../d2/d59/namespaceCommon_1_1utils_1_1logging.html#ac4ff0da06ed8691b6de48fdfb80763a7" target="_top" xlink:title=" ">
<polygon fill="white" stroke="#666666" points="534,-126 404,-126 404,-96 534,-96 534,-126"/>
<text text-anchor="start" x="412" y="-114" font-family="Helvetica,sans-Serif" font-size="10.00">Common::utils::logging</text>
<text text-anchor="middle" x="469" y="-103" font-family="Helvetica,sans-Serif" font-size="10.00">::error</text>
</a>
</g>
</g>
<!-- Node1&#45;&gt;Node6 -->
<g id="edge5_Node000001_Node000006" class="edge">
<title>Node1&#45;&gt;Node6</title>
<g id="a_edge5_Node000001_Node000006"><a xlink:title=" ">
<path fill="none" stroke="#63b8ff" d="M565.31,-97.89C554.83,-99.33 544.2,-100.79 534.03,-102.19"/>
<polygon fill="#63b8ff" stroke="#63b8ff" points="565.85,-101.35 575.28,-96.52 564.9,-94.42 565.85,-101.35"/>
</a>
</g>
</g>
<!-- Node7 -->
<g id="Node000007" class="node">
<title>Node7</title>
<g id="a_Node000007"><a xlink:href="../../d2/d59/namespaceCommon_1_1utils_1_1logging.html#a227085469bb6814ec47bc7bad3cb5ae6" target="_top" xlink:title=" ">
<polygon fill="white" stroke="#666666" points="534,-30 404,-30 404,0 534,0 534,-30"/>
<text text-anchor="start" x="412" y="-18" font-family="Helvetica,sans-Serif" font-size="10.00">Common::utils::logging</text>
<text text-anchor="middle" x="469" y="-7" font-family="Helvetica,sans-Serif" font-size="10.00">::info</text>
</a>
</g>
</g>
<!-- Node1&#45;&gt;Node7 -->
<g id="edge6_Node000001_Node000007" class="edge">
<title>Node1&#45;&gt;Node7</title>
<g id="a_edge6_Node000001_Node000007"><a xlink:title=" ">
<path fill="none" stroke="#63b8ff" d="M614.24,-73.36C592.14,-63.52 561.36,-50.07 534,-39 526.63,-36.02 518.73,-32.95 511.09,-30.05"/>
<polygon fill="#63b8ff" stroke="#63b8ff" points="612.89,-76.59 623.45,-77.48 615.75,-70.2 612.89,-76.59"/>
</a>
</g>
</g>
<!-- Node8 -->
<g id="Node000008" class="node">
<title>Node8</title>
<g id="a_Node000008"><a xlink:href="../../d2/d59/namespaceCommon_1_1utils_1_1logging.html#a13808fa27e8709ab556ab27063fd6c97" target="_top" xlink:title=" ">
<polygon fill="white" stroke="#666666" points="534,-174 404,-174 404,-144 534,-144 534,-174"/>
<text text-anchor="start" x="412" y="-162" font-family="Helvetica,sans-Serif" font-size="10.00">Common::utils::logging</text>
<text text-anchor="middle" x="469" y="-151" font-family="Helvetica,sans-Serif" font-size="10.00">::warn</text>
</a>
</g>
</g>
<!-- Node1&#45;&gt;Node8 -->
<g id="edge8_Node000001_Node000008" class="edge">
<title>Node1&#45;&gt;Node8</title>
<g id="a_edge8_Node000001_Node000008"><a xlink:title=" ">
<path fill="none" stroke="#63b8ff" d="M614.24,-100.64C592.14,-110.48 561.36,-123.93 534,-135 526.63,-137.98 518.73,-141.05 511.09,-143.95"/>
<polygon fill="#63b8ff" stroke="#63b8ff" points="615.75,-103.8 623.45,-96.52 612.89,-97.41 615.75,-103.8"/>
</a>
</g>
</g>
<!-- Node3 -->
<g id="Node000003" class="node">
<title>Node3</title>
<g id="a_Node000003"><a xlink:href="../../d3/d0d/structIEEE_1_1__1588_1_1PTP_1_1__2019_1_1Clocks_1_1SynchronizationData.html#a678490ba0932bf8bcdbe56c5b278e48f" target="_top" xlink:title="Calculate offset from master using timestamps.">
<polygon fill="white" stroke="#666666" points="368,-148.5 200,-148.5 200,-107.5 368,-107.5 368,-148.5"/>
<text text-anchor="start" x="208" y="-136.5" font-family="Helvetica,sans-Serif" font-size="10.00">IEEE::_1588::PTP::</text>
<text text-anchor="start" x="208" y="-125.5" font-family="Helvetica,sans-Serif" font-size="10.00">_2019::Clocks::Synchronization</text>
<text text-anchor="middle" x="284" y="-114.5" font-family="Helvetica,sans-Serif" font-size="10.00">Data::calculateOffset</text>
</a>
</g>
</g>
<!-- Node2&#45;&gt;Node3 -->
<g id="edge2_Node000002_Node000003" class="edge">
<title>Node2&#45;&gt;Node3</title>
<g id="a_edge2_Node000002_Node000003"><a xlink:title=" ">
<path fill="none" stroke="#63b8ff" d="M416.04,-81.46C393.2,-89.57 366.28,-99.13 342.81,-107.47"/>
<polygon fill="#63b8ff" stroke="#63b8ff" points="417.3,-84.72 425.56,-78.08 414.96,-78.12 417.3,-84.72"/>
</a>
</g>
</g>
<!-- Node4 -->
<g id="Node000004" class="node">
<title>Node4</title>
<g id="a_Node000004"><a xlink:href="../../dd/d5b/classIEEE_1_1__1588_1_1PTP_1_1__2019_1_1Clocks_1_1PtpPort.html#a4ab8635c746ecdc8190cb48fe0762e9f" target="_top" xlink:title="Process received Follow_Up message.">
<polygon fill="white" stroke="#666666" points="346.5,-59.5 221.5,-59.5 221.5,-18.5 346.5,-18.5 346.5,-59.5"/>
<text text-anchor="start" x="229.5" y="-47.5" font-family="Helvetica,sans-Serif" font-size="10.00">IEEE::_1588::PTP::</text>
<text text-anchor="start" x="229.5" y="-36.5" font-family="Helvetica,sans-Serif" font-size="10.00">_2019::Clocks::PtpPort</text>
<text text-anchor="middle" x="284" y="-25.5" font-family="Helvetica,sans-Serif" font-size="10.00">::process_follow_up</text>
</a>
</g>
</g>
<!-- Node2&#45;&gt;Node4 -->
<g id="edge3_Node000002_Node000004" class="edge">
<title>Node2&#45;&gt;Node4</title>
<g id="a_edge3_Node000002_Node000004"><a xlink:title=" ">
<path fill="none" stroke="#63b8ff" d="M393.8,-53.27C378.09,-51.21 361.68,-49.06 346.51,-47.07"/>
<polygon fill="#63b8ff" stroke="#63b8ff" points="393.63,-56.78 404,-54.61 394.54,-49.84 393.63,-56.78"/>
</a>
</g>
</g>
<!-- Node5 -->
<g id="Node000005" class="node">
<title>Node5</title>
<g id="a_Node000005"><a xlink:href="../../d0/d7d/classIEEE_1_1__1588_1_1PTP_1_1__2019_1_1Clocks_1_1BoundaryClock.html#a8d21ce8a95c4f7fcee5ab7853fa6c60e" target="_top" xlink:title="Process received PTP message on specific port.">
<polygon fill="white" stroke="#666666" points="164,-59.5 0,-59.5 0,-18.5 164,-18.5 164,-59.5"/>
<text text-anchor="start" x="8" y="-47.5" font-family="Helvetica,sans-Serif" font-size="10.00">IEEE::_1588::PTP::</text>
<text text-anchor="start" x="8" y="-36.5" font-family="Helvetica,sans-Serif" font-size="10.00">_2019::Clocks::BoundaryClock</text>
<text text-anchor="middle" x="82" y="-25.5" font-family="Helvetica,sans-Serif" font-size="10.00">::process_message</text>
</a>
</g>
</g>
<!-- Node4&#45;&gt;Node5 -->
<g id="edge4_Node000004_Node000005" class="edge">
<title>Node4&#45;&gt;Node5</title>
<g id="a_edge4_Node000004_Node000005"><a xlink:title=" ">
<path fill="none" stroke="#63b8ff" d="M211.04,-39C195.88,-39 179.79,-39 164.32,-39"/>
<polygon fill="#63b8ff" stroke="#63b8ff" points="211.36,-42.5 221.36,-39 211.36,-35.5 211.36,-42.5"/>
</a>
</g>
</g>
<!-- Node7&#45;&gt;Node4 -->
<g id="edge7_Node000007_Node000004" class="edge">
<title>Node7&#45;&gt;Node4</title>
<g id="a_edge7_Node000007_Node000004"><a xlink:title=" ">
<path fill="none" stroke="#63b8ff" d="M393.8,-24.73C378.09,-26.79 361.68,-28.94 346.51,-30.93"/>
<polygon fill="#63b8ff" stroke="#63b8ff" points="394.54,-28.16 404,-23.39 393.63,-21.22 394.54,-28.16"/>
</a>
</g>
</g>
<!-- Node8&#45;&gt;Node3 -->
<g id="edge9_Node000008_Node000003" class="edge">
<title>Node8&#45;&gt;Node3</title>
<g id="a_edge9_Node000008_Node000003"><a xlink:title=" ">
<path fill="none" stroke="#63b8ff" d="M394.12,-146.49C385.61,-145.04 376.89,-143.57 368.27,-142.11"/>
<polygon fill="#63b8ff" stroke="#63b8ff" points="393.55,-149.94 404,-148.16 394.72,-143.04 393.55,-149.94"/>
</a>
</g>
</g>
</g>
</svg>
