<?xml version="1.0" encoding="UTF-8" standalone="no"?>
<!DOCTYPE svg PUBLIC "-//W3C//DTD SVG 1.1//EN"
 "http://www.w3.org/Graphics/SVG/1.1/DTD/svg11.dtd">
<!-- Generated by graphviz version 2.43.0 (0)
 -->
<!-- Title: IEEE::_1588::PTP::_2019::Types::TimeInterval::fromNanoseconds Pages: 1 -->
<!--zoomable 297 -->

<svg id="main" version="1.1" xmlns="http://www.w3.org/2000/svg" xmlns:xlink="http://www.w3.org/1999/xlink" xml:space="preserve" onload="init(evt)">
<style type="text/css"><![CDATA[
.node, .edge {opacity: 0.7;}
.node.selected, .edge.selected {opacity: 1;}
.edge:hover path { stroke: red; }
.edge:hover polygon { stroke: red; fill: red; }
]]></style>

<defs>
  <circle id="rim" cx="0" cy="0" r="7"/>
  <circle id="rim2" cx="0" cy="0" r="3.5"/>
  <g id="zoomPlus">
    <use xlink:href="#rim" fill="#404040"><set attributeName="fill" to="#808080" begin="zoomplus.mouseover" end="zoomplus.mouseout"/></use>
    <path d="M-4,0h8M0,-4v8" fill="none" stroke="white" stroke-width="1.5" pointer-events="none"/>
  </g>
  <g id="zoomMin">
    <use xlink:href="#rim" fill="#404040"><set attributeName="fill" to="#808080" begin="zoomminus.mouseover" end="zoomminus.mouseout"/></use>
    <path d="M-4,0h8" fill="none" stroke="white" stroke-width="1.5" pointer-events="none"/>
  </g>
  <g id="arrowUp" transform="translate(30 24)">
    <use xlink:href="#rim"/>
    <path pointer-events="none" fill="none" stroke="white" stroke-width="1.5" d="M0,-3.0v7 M-2.5,-0.5L0,-3.0L2.5,-0.5"/>
  </g>
  <g id="arrowRight" transform="rotate(90) translate(36 -43)">
    <use xlink:href="#rim"/>
    <path pointer-events="none" fill="none" stroke="white" stroke-width="1.5" d="M0,-3.0v7 M-2.5,-0.5L0,-3.0L2.5,-0.5"/>
  </g>
  <g id="arrowDown" transform="rotate(180) translate(-30 -48)">
    <use xlink:href="#rim"/>
    <path pointer-events="none" fill="none" stroke="white" stroke-width="1.5" d="M0,-3.0v7 M-2.5,-0.5L0,-3.0L2.5,-0.5"/>
  </g>
  <g id="arrowLeft" transform="rotate(270) translate(-36 17)">
    <use xlink:href="#rim"/>
    <path pointer-events="none" fill="none" stroke="white" stroke-width="1.5" d="M0,-3.0v7 M-2.5,-0.5L0,-3.0L2.5,-0.5"/>
  </g>
  <g id="resetDef">
    <use xlink:href="#rim2" fill="#404040"><set attributeName="fill" to="#808080" begin="reset.mouseover" end="reset.mouseout"/></use>
  </g>
</defs>
<script type="application/ecmascript">
var viewWidth = 517;
var viewHeight = 297;
var sectionId = 'dynsection-1';
</script>
<script type="application/ecmascript" xlink:href="../../svg.min.js"/>
<svg id="graph" class="graph">
<g id="viewport">
<title>IEEE::_1588::PTP::_2019::Types::TimeInterval::fromNanoseconds</title>
<!-- Node1 -->
<g id="Node000001" class="node">
<title>Node1</title>
<g id="a_Node000001"><a xlink:title="Create from nanoseconds.">
<polygon fill="#999999" stroke="#666666" points="509,-171 361,-171 361,-130 509,-130 509,-171"/>
<text text-anchor="start" x="369" y="-159" font-family="Helvetica,sans-Serif" font-size="10.00">IEEE::_1588::PTP::</text>
<text text-anchor="start" x="369" y="-148" font-family="Helvetica,sans-Serif" font-size="10.00">_2019::Types::TimeInterval</text>
<text text-anchor="middle" x="435" y="-137" font-family="Helvetica,sans-Serif" font-size="10.00">::fromNanoseconds</text>
</a>
</g>
</g>
<!-- Node2 -->
<g id="Node000002" class="node">
<title>Node2</title>
<g id="a_Node000002"><a xlink:href="../../dd/d5b/classIEEE_1_1__1588_1_1PTP_1_1__2019_1_1Clocks_1_1PtpPort.html#a064d36dd0269a3997979bed8ec622f4b" target="_top" xlink:title="Process received Delay_Resp message.">
<polygon fill="white" stroke="#666666" points="325,-289 200,-289 200,-248 325,-248 325,-289"/>
<text text-anchor="start" x="208" y="-277" font-family="Helvetica,sans-Serif" font-size="10.00">IEEE::_1588::PTP::</text>
<text text-anchor="start" x="208" y="-266" font-family="Helvetica,sans-Serif" font-size="10.00">_2019::Clocks::PtpPort</text>
<text text-anchor="middle" x="262.5" y="-255" font-family="Helvetica,sans-Serif" font-size="10.00">::process_delay_resp</text>
</a>
</g>
</g>
<!-- Node1&#45;&gt;Node2 -->
<g id="edge1_Node000001_Node000002" class="edge">
<title>Node1&#45;&gt;Node2</title>
<g id="a_edge1_Node000001_Node000002"><a xlink:title=" ">
<path fill="none" stroke="#63b8ff" d="M404.2,-178.2C383.1,-196.94 353.58,-221.47 325,-239.5 320.31,-242.46 315.26,-245.31 310.16,-247.99"/>
<polygon fill="#63b8ff" stroke="#63b8ff" points="406.75,-180.61 411.85,-171.32 402.08,-175.4 406.75,-180.61"/>
</a>
</g>
</g>
<!-- Node4 -->
<g id="Node000004" class="node">
<title>Node4</title>
<g id="a_Node000004"><a xlink:href="../../dd/d5b/classIEEE_1_1__1588_1_1PTP_1_1__2019_1_1Clocks_1_1PtpPort.html#a4ab8635c746ecdc8190cb48fe0762e9f" target="_top" xlink:title="Process received Follow_Up message.">
<polygon fill="white" stroke="#666666" points="325,-230 200,-230 200,-189 325,-189 325,-230"/>
<text text-anchor="start" x="208" y="-218" font-family="Helvetica,sans-Serif" font-size="10.00">IEEE::_1588::PTP::</text>
<text text-anchor="start" x="208" y="-207" font-family="Helvetica,sans-Serif" font-size="10.00">_2019::Clocks::PtpPort</text>
<text text-anchor="middle" x="262.5" y="-196" font-family="Helvetica,sans-Serif" font-size="10.00">::process_follow_up</text>
</a>
</g>
</g>
<!-- Node1&#45;&gt;Node4 -->
<g id="edge3_Node000001_Node000004" class="edge">
<title>Node1&#45;&gt;Node4</title>
<g id="a_edge3_Node000001_Node000004"><a xlink:title=" ">
<path fill="none" stroke="#63b8ff" d="M364.83,-174.43C350.9,-179.26 336.37,-184.28 322.81,-188.98"/>
<polygon fill="#63b8ff" stroke="#63b8ff" points="366.06,-177.71 374.37,-171.14 363.77,-171.1 366.06,-177.71"/>
</a>
</g>
</g>
<!-- Node5 -->
<g id="Node000005" class="node">
<title>Node5</title>
<g id="a_Node000005"><a xlink:href="../../dd/d5b/classIEEE_1_1__1588_1_1PTP_1_1__2019_1_1Clocks_1_1PtpPort.html#a8c86e43ac020c11a1efa8043aa606bf2" target="_top" xlink:title="Process received Pdelay_Resp message (peer delay response)">
<polygon fill="white" stroke="#666666" points="325,-171 200,-171 200,-130 325,-130 325,-171"/>
<text text-anchor="start" x="208" y="-159" font-family="Helvetica,sans-Serif" font-size="10.00">IEEE::_1588::PTP::</text>
<text text-anchor="start" x="208" y="-148" font-family="Helvetica,sans-Serif" font-size="10.00">_2019::Clocks::PtpPort</text>
<text text-anchor="middle" x="262.5" y="-137" font-family="Helvetica,sans-Serif" font-size="10.00">::process_pdelay_resp</text>
</a>
</g>
</g>
<!-- Node1&#45;&gt;Node5 -->
<g id="edge5_Node000001_Node000005" class="edge">
<title>Node1&#45;&gt;Node5</title>
<g id="a_edge5_Node000001_Node000005"><a xlink:title=" ">
<path fill="none" stroke="#63b8ff" d="M350.67,-150.5C342.1,-150.5 333.5,-150.5 325.23,-150.5"/>
<polygon fill="#63b8ff" stroke="#63b8ff" points="350.7,-154 360.7,-150.5 350.7,-147 350.7,-154"/>
</a>
</g>
</g>
<!-- Node6 -->
<g id="Node000006" class="node">
<title>Node6</title>
<g id="a_Node000006"><a xlink:href="../../dd/d5b/classIEEE_1_1__1588_1_1PTP_1_1__2019_1_1Clocks_1_1PtpPort.html#a7cc9f5b6a271d9894ab1dfbc74ee450e" target="_top" xlink:title="Process received Pdelay_Resp_Follow_Up message (precise t3 timestamp)">
<polygon fill="white" stroke="#666666" points="325,-111.5 200,-111.5 200,-59.5 325,-59.5 325,-111.5"/>
<text text-anchor="start" x="208" y="-99.5" font-family="Helvetica,sans-Serif" font-size="10.00">IEEE::_1588::PTP::</text>
<text text-anchor="start" x="208" y="-88.5" font-family="Helvetica,sans-Serif" font-size="10.00">_2019::Clocks::PtpPort</text>
<text text-anchor="start" x="208" y="-77.5" font-family="Helvetica,sans-Serif" font-size="10.00">::process_pdelay_resp</text>
<text text-anchor="middle" x="262.5" y="-66.5" font-family="Helvetica,sans-Serif" font-size="10.00">_follow_up</text>
</a>
</g>
</g>
<!-- Node1&#45;&gt;Node6 -->
<g id="edge6_Node000001_Node000006" class="edge">
<title>Node1&#45;&gt;Node6</title>
<g id="a_edge6_Node000001_Node000006"><a xlink:title=" ">
<path fill="none" stroke="#63b8ff" d="M370.46,-126.28C355.63,-120.62 339.86,-114.61 325.11,-108.99"/>
<polygon fill="#63b8ff" stroke="#63b8ff" points="369.46,-129.64 380.05,-129.93 371.96,-123.1 369.46,-129.64"/>
</a>
</g>
</g>
<!-- Node7 -->
<g id="Node000007" class="node">
<title>Node7</title>
<g id="a_Node000007"><a xlink:href="../../dd/d5b/classIEEE_1_1__1588_1_1PTP_1_1__2019_1_1Clocks_1_1PtpPort.html#a0ae666364c0280a0abbc9f369f708aa4" target="_top" xlink:title="Process received Sync message.">
<polygon fill="white" stroke="#666666" points="325,-41 200,-41 200,0 325,0 325,-41"/>
<text text-anchor="start" x="208" y="-29" font-family="Helvetica,sans-Serif" font-size="10.00">IEEE::_1588::PTP::</text>
<text text-anchor="start" x="208" y="-18" font-family="Helvetica,sans-Serif" font-size="10.00">_2019::Clocks::PtpPort</text>
<text text-anchor="middle" x="262.5" y="-7" font-family="Helvetica,sans-Serif" font-size="10.00">::process_sync</text>
</a>
</g>
</g>
<!-- Node1&#45;&gt;Node7 -->
<g id="edge7_Node000001_Node000007" class="edge">
<title>Node1&#45;&gt;Node7</title>
<g id="a_edge7_Node000001_Node000007"><a xlink:title=" ">
<path fill="none" stroke="#63b8ff" d="M408,-122.59C387,-101.09 355.94,-71.58 325,-50.5 320.09,-47.16 314.75,-43.97 309.34,-41.02"/>
<polygon fill="#63b8ff" stroke="#63b8ff" points="405.53,-125.07 414.99,-129.83 410.56,-120.2 405.53,-125.07"/>
</a>
</g>
</g>
<!-- Node3 -->
<g id="Node000003" class="node">
<title>Node3</title>
<g id="a_Node000003"><a xlink:href="../../d0/d7d/classIEEE_1_1__1588_1_1PTP_1_1__2019_1_1Clocks_1_1BoundaryClock.html#a8d21ce8a95c4f7fcee5ab7853fa6c60e" target="_top" xlink:title="Process received PTP message on specific port.">
<polygon fill="white" stroke="#666666" points="164,-230 0,-230 0,-189 164,-189 164,-230"/>
<text text-anchor="start" x="8" y="-218" font-family="Helvetica,sans-Serif" font-size="10.00">IEEE::_1588::PTP::</text>
<text text-anchor="start" x="8" y="-207" font-family="Helvetica,sans-Serif" font-size="10.00">_2019::Clocks::BoundaryClock</text>
<text text-anchor="middle" x="82" y="-196" font-family="Helvetica,sans-Serif" font-size="10.00">::process_message</text>
</a>
</g>
</g>
<!-- Node2&#45;&gt;Node3 -->
<g id="edge2_Node000002_Node000003" class="edge">
<title>Node2&#45;&gt;Node3</title>
<g id="a_edge2_Node000002_Node000003"><a xlink:title=" ">
<path fill="none" stroke="#63b8ff" d="M190.18,-244.93C175.33,-240.02 159.78,-234.88 145.29,-230.09"/>
<polygon fill="#63b8ff" stroke="#63b8ff" points="189.23,-248.3 199.82,-248.11 191.42,-241.65 189.23,-248.3"/>
</a>
</g>
</g>
<!-- Node4&#45;&gt;Node3 -->
<g id="edge4_Node000004_Node000003" class="edge">
<title>Node4&#45;&gt;Node3</title>
<g id="a_edge4_Node000004_Node000003"><a xlink:title=" ">
<path fill="none" stroke="#63b8ff" d="M189.71,-209.5C181.32,-209.5 172.71,-209.5 164.2,-209.5"/>
<polygon fill="#63b8ff" stroke="#63b8ff" points="189.82,-213 199.82,-209.5 189.82,-206 189.82,-213"/>
</a>
</g>
</g>
<!-- Node7&#45;&gt;Node3 -->
<g id="edge8_Node000007_Node000003" class="edge">
<title>Node7&#45;&gt;Node3</title>
<g id="a_edge8_Node000007_Node000003"><a xlink:title=" ">
<path fill="none" stroke="#63b8ff" d="M204.8,-46.77C203.14,-47.97 201.54,-49.22 200,-50.5 151.31,-91.11 111.89,-156.06 93.77,-188.96"/>
<polygon fill="#63b8ff" stroke="#63b8ff" points="207,-49.51 213.4,-41.07 203.13,-43.67 207,-49.51"/>
</a>
</g>
</g>
</g>
</svg>

<g id="navigator" transform="translate(0 0)" fill="#404254">
  <rect fill="#f2f5e9" fill-opacity="0.5" stroke="#606060" stroke-width=".5" x="0" y="0" width="60" height="60"/>
  <use id="zoomplus" xlink:href="#zoomPlus" x="17" y="9" onmousedown="handleZoom(evt,'in')"/>
  <use id="zoomminus" xlink:href="#zoomMin" x="42" y="9" onmousedown="handleZoom(evt,'out')"/>
  <use id="reset" xlink:href="#resetDef" x="30" y="36" onmousedown="handleReset()"/>
   <use id="arrowup" xlink:href="#arrowUp" x="0" y="0" onmousedown="handlePan(0,-1)"/>
  <use id="arrowright" xlink:href="#arrowRight" x="0" y="0" onmousedown="handlePan(1,0)"/>
  <use id="arrowdown" xlink:href="#arrowDown" x="0" y="0" onmousedown="handlePan(0,1)"/>
  <use id="arrowleft" xlink:href="#arrowLeft" x="0" y="0" onmousedown="handlePan(-1,0)"/>
</g>
<svg viewBox="0 0 15 15" width="100%" height="30px" preserveAspectRatio="xMaxYMin meet">
 <g id="arrow_out" transform="scale(0.3 0.3)">
  <a xlink:href="structIEEE_1_1__1588_1_1PTP_1_1__2019_1_1Types_1_1TimeInterval_a35d30c0bb2f6fbed6e21640c0813d272_icgraph_org.svg" target="_base">
   <rect id="button" ry="5" rx="5" y="6" x="6" height="38" width="38"
        fill="#f2f5e9" fill-opacity="0.5" stroke="#606060" stroke-width="1.0"/>
   <path id="arrow"
     d="M 11.500037,31.436501 C 11.940474,20.09759 22.043105,11.32322 32.158766,21.979434 L 37.068811,17.246167 C 37.068811,17.246167 37.088388,32 37.088388,32 L 22.160133,31.978069 C 22.160133,31.978069 26.997745,27.140456 26.997745,27.140456 C 18.528582,18.264221 13.291696,25.230495 11.500037,31.436501 z"
     style="fill:#404040;"/>
  </a>
 </g>
</svg>

<style type='text/css'>
<![CDATA[
[data-mouse-over-selected='false'] { opacity: 0.7; }
[data-mouse-over-selected='true']  { opacity: 1.0; }
]]>
</style>
<script type="application/ecmascript"><![CDATA[
document.addEventListener('DOMContentLoaded', (event) => {
  highlightEdges();
  highlightAdjacentNodes();
});
]]></script>
</svg>
