<?xml version="1.0" encoding="UTF-8" standalone="no"?>
<!DOCTYPE svg PUBLIC "-//W3C//DTD SVG 1.1//EN"
 "http://www.w3.org/Graphics/SVG/1.1/DTD/svg11.dtd">
<!-- Generated by graphviz version 2.43.0 (0)
 -->
<!-- Title: IEEE::_1588::PTP::_2019::Types::TimeInterval::fromNanoseconds Pages: 1 -->
<svg width="517pt" height="297pt"
 viewBox="0.00 0.00 517.00 297.00" xmlns="http://www.w3.org/2000/svg" xmlns:xlink="http://www.w3.org/1999/xlink">
<g id="graph0" class="graph" transform="scale(1 1) rotate(0) translate(4 293)">
<title>IEEE::_1588::PTP::_2019::Types::TimeInterval::fromNanoseconds</title>
<!-- Node1 -->
<g id="Node000001" class="node">
<title>Node1</title>
<g id="a_Node000001"><a xlink:title="Create from nanoseconds.">
<polygon fill="#999999" stroke="#666666" points="509,-171 361,-171 361,-130 509,-130 509,-171"/>
<text text-anchor="start" x="369" y="-159" font-family="Helvetica,sans-Serif" font-size="10.00">IEEE::_1588::PTP::</text>
<text text-anchor="start" x="369" y="-148" font-family="Helvetica,sans-Serif" font-size="10.00">_2019::Types::TimeInterval</text>
<text text-anchor="middle" x="435" y="-137" font-family="Helvetica,sans-Serif" font-size="10.00">::fromNanoseconds</text>
</a>
</g>
</g>
<!-- Node2 -->
<g id="Node000002" class="node">
<title>Node2</title>
<g id="a_Node000002"><a xlink:href="../../dd/d5b/classIEEE_1_1__1588_1_1PTP_1_1__2019_1_1Clocks_1_1PtpPort.html#a064d36dd0269a3997979bed8ec622f4b" target="_top" xlink:title="Process received Delay_Resp message.">
<polygon fill="white" stroke="#666666" points="325,-289 200,-289 200,-248 325,-248 325,-289"/>
<text text-anchor="start" x="208" y="-277" font-family="Helvetica,sans-Serif" font-size="10.00">IEEE::_1588::PTP::</text>
<text text-anchor="start" x="208" y="-266" font-family="Helvetica,sans-Serif" font-size="10.00">_2019::Clocks::PtpPort</text>
<text text-anchor="middle" x="262.5" y="-255" font-family="Helvetica,sans-Serif" font-size="10.00">::process_delay_resp</text>
</a>
</g>
</g>
<!-- Node1&#45;&gt;Node2 -->
<g id="edge1_Node000001_Node000002" class="edge">
<title>Node1&#45;&gt;Node2</title>
<g id="a_edge1_Node000001_Node000002"><a xlink:title=" ">
<path fill="none" stroke="#63b8ff" d="M404.2,-178.2C383.1,-196.94 353.58,-221.47 325,-239.5 320.31,-242.46 315.26,-245.31 310.16,-247.99"/>
<polygon fill="#63b8ff" stroke="#63b8ff" points="406.75,-180.61 411.85,-171.32 402.08,-175.4 406.75,-180.61"/>
</a>
</g>
</g>
<!-- Node4 -->
<g id="Node000004" class="node">
<title>Node4</title>
<g id="a_Node000004"><a xlink:href="../../dd/d5b/classIEEE_1_1__1588_1_1PTP_1_1__2019_1_1Clocks_1_1PtpPort.html#a4ab8635c746ecdc8190cb48fe0762e9f" target="_top" xlink:title="Process received Follow_Up message.">
<polygon fill="white" stroke="#666666" points="325,-230 200,-230 200,-189 325,-189 325,-230"/>
<text text-anchor="start" x="208" y="-218" font-family="Helvetica,sans-Serif" font-size="10.00">IEEE::_1588::PTP::</text>
<text text-anchor="start" x="208" y="-207" font-family="Helvetica,sans-Serif" font-size="10.00">_2019::Clocks::PtpPort</text>
<text text-anchor="middle" x="262.5" y="-196" font-family="Helvetica,sans-Serif" font-size="10.00">::process_follow_up</text>
</a>
</g>
</g>
<!-- Node1&#45;&gt;Node4 -->
<g id="edge3_Node000001_Node000004" class="edge">
<title>Node1&#45;&gt;Node4</title>
<g id="a_edge3_Node000001_Node000004"><a xlink:title=" ">
<path fill="none" stroke="#63b8ff" d="M364.83,-174.43C350.9,-179.26 336.37,-184.28 322.81,-188.98"/>
<polygon fill="#63b8ff" stroke="#63b8ff" points="366.06,-177.71 374.37,-171.14 363.77,-171.1 366.06,-177.71"/>
</a>
</g>
</g>
<!-- Node5 -->
<g id="Node000005" class="node">
<title>Node5</title>
<g id="a_Node000005"><a xlink:href="../../dd/d5b/classIEEE_1_1__1588_1_1PTP_1_1__2019_1_1Clocks_1_1PtpPort.html#a8c86e43ac020c11a1efa8043aa606bf2" target="_top" xlink:title="Process received Pdelay_Resp message (peer delay response)">
<polygon fill="white" stroke="#666666" points="325,-171 200,-171 200,-130 325,-130 325,-171"/>
<text text-anchor="start" x="208" y="-159" font-family="Helvetica,sans-Serif" font-size="10.00">IEEE::_1588::PTP::</text>
<text text-anchor="start" x="208" y="-148" font-family="Helvetica,sans-Serif" font-size="10.00">_2019::Clocks::PtpPort</text>
<text text-anchor="middle" x="262.5" y="-137" font-family="Helvetica,sans-Serif" font-size="10.00">::process_pdelay_resp</text>
</a>
</g>
</g>
<!-- Node1&#45;&gt;Node5 -->
<g id="edge5_Node000001_Node000005" class="edge">
<title>Node1&#45;&gt;Node5</title>
<g id="a_edge5_Node000001_Node000005"><a xlink:title=" ">
<path fill="none" stroke="#63b8ff" d="M350.67,-150.5C342.1,-150.5 333.5,-150.5 325.23,-150.5"/>
<polygon fill="#63b8ff" stroke="#63b8ff" points="350.7,-154 360.7,-150.5 350.7,-147 350.7,-154"/>
</a>
</g>
</g>
<!-- Node6 -->
<g id="Node000006" class="node">
<title>Node6</title>
<g id="a_Node000006"><a xlink:href="../../dd/d5b/classIEEE_1_1__1588_1_1PTP_1_1__2019_1_1Clocks_1_1PtpPort.html#a7cc9f5b6a271d9894ab1dfbc74ee450e" target="_top" xlink:title="Process received Pdelay_Resp_Follow_Up message (precise t3 timestamp)">
<polygon fill="white" stroke="#666666" points="325,-111.5 200,-111.5 200,-59.5 325,-59.5 325,-111.5"/>
<text text-anchor="start" x="208" y="-99.5" font-family="Helvetica,sans-Serif" font-size="10.00">IEEE::_1588::PTP::</text>
<text text-anchor="start" x="208" y="-88.5" font-family="Helvetica,sans-Serif" font-size="10.00">_2019::Clocks::PtpPort</text>
<text text-anchor="start" x="208" y="-77.5" font-family="Helvetica,sans-Serif" font-size="10.00">::process_pdelay_resp</text>
<text text-anchor="middle" x="262.5" y="-66.5" font-family="Helvetica,sans-Serif" font-size="10.00">_follow_up</text>
</a>
</g>
</g>
<!-- Node1&#45;&gt;Node6 -->
<g id="edge6_Node000001_Node000006" class="edge">
<title>Node1&#45;&gt;Node6</title>
<g id="a_edge6_Node000001_Node000006"><a xlink:title=" ">
<path fill="none" stroke="#63b8ff" d="M370.46,-126.28C355.63,-120.62 339.86,-114.61 325.11,-108.99"/>
<polygon fill="#63b8ff" stroke="#63b8ff" points="369.46,-129.64 380.05,-129.93 371.96,-123.1 369.46,-129.64"/>
</a>
</g>
</g>
<!-- Node7 -->
<g id="Node000007" class="node">
<title>Node7</title>
<g id="a_Node000007"><a xlink:href="../../dd/d5b/classIEEE_1_1__1588_1_1PTP_1_1__2019_1_1Clocks_1_1PtpPort.html#a0ae666364c0280a0abbc9f369f708aa4" target="_top" xlink:title="Process received Sync message.">
<polygon fill="white" stroke="#666666" points="325,-41 200,-41 200,0 325,0 325,-41"/>
<text text-anchor="start" x="208" y="-29" font-family="Helvetica,sans-Serif" font-size="10.00">IEEE::_1588::PTP::</text>
<text text-anchor="start" x="208" y="-18" font-family="Helvetica,sans-Serif" font-size="10.00">_2019::Clocks::PtpPort</text>
<text text-anchor="middle" x="262.5" y="-7" font-family="Helvetica,sans-Serif" font-size="10.00">::process_sync</text>
</a>
</g>
</g>
<!-- Node1&#45;&gt;Node7 -->
<g id="edge7_Node000001_Node000007" class="edge">
<title>Node1&#45;&gt;Node7</title>
<g id="a_edge7_Node000001_Node000007"><a xlink:title=" ">
<path fill="none" stroke="#63b8ff" d="M408,-122.59C387,-101.09 355.94,-71.58 325,-50.5 320.09,-47.16 314.75,-43.97 309.34,-41.02"/>
<polygon fill="#63b8ff" stroke="#63b8ff" points="405.53,-125.07 414.99,-129.83 410.56,-120.2 405.53,-125.07"/>
</a>
</g>
</g>
<!-- Node3 -->
<g id="Node000003" class="node">
<title>Node3</title>
<g id="a_Node000003"><a xlink:href="../../d0/d7d/classIEEE_1_1__1588_1_1PTP_1_1__2019_1_1Clocks_1_1BoundaryClock.html#a8d21ce8a95c4f7fcee5ab7853fa6c60e" target="_top" xlink:title="Process received PTP message on specific port.">
<polygon fill="white" stroke="#666666" points="164,-230 0,-230 0,-189 164,-189 164,-230"/>
<text text-anchor="start" x="8" y="-218" font-family="Helvetica,sans-Serif" font-size="10.00">IEEE::_1588::PTP::</text>
<text text-anchor="start" x="8" y="-207" font-family="Helvetica,sans-Serif" font-size="10.00">_2019::Clocks::BoundaryClock</text>
<text text-anchor="middle" x="82" y="-196" font-family="Helvetica,sans-Serif" font-size="10.00">::process_message</text>
</a>
</g>
</g>
<!-- Node2&#45;&gt;Node3 -->
<g id="edge2_Node000002_Node000003" class="edge">
<title>Node2&#45;&gt;Node3</title>
<g id="a_edge2_Node000002_Node000003"><a xlink:title=" ">
<path fill="none" stroke="#63b8ff" d="M190.18,-244.93C175.33,-240.02 159.78,-234.88 145.29,-230.09"/>
<polygon fill="#63b8ff" stroke="#63b8ff" points="189.23,-248.3 199.82,-248.11 191.42,-241.65 189.23,-248.3"/>
</a>
</g>
</g>
<!-- Node4&#45;&gt;Node3 -->
<g id="edge4_Node000004_Node000003" class="edge">
<title>Node4&#45;&gt;Node3</title>
<g id="a_edge4_Node000004_Node000003"><a xlink:title=" ">
<path fill="none" stroke="#63b8ff" d="M189.71,-209.5C181.32,-209.5 172.71,-209.5 164.2,-209.5"/>
<polygon fill="#63b8ff" stroke="#63b8ff" points="189.82,-213 199.82,-209.5 189.82,-206 189.82,-213"/>
</a>
</g>
</g>
<!-- Node7&#45;&gt;Node3 -->
<g id="edge8_Node000007_Node000003" class="edge">
<title>Node7&#45;&gt;Node3</title>
<g id="a_edge8_Node000007_Node000003"><a xlink:title=" ">
<path fill="none" stroke="#63b8ff" d="M204.8,-46.77C203.14,-47.97 201.54,-49.22 200,-50.5 151.31,-91.11 111.89,-156.06 93.77,-188.96"/>
<polygon fill="#63b8ff" stroke="#63b8ff" points="207,-49.51 213.4,-41.07 203.13,-43.67 207,-49.51"/>
</a>
</g>
</g>
</g>
</svg>
