<?xml version="1.0" encoding="UTF-8" standalone="no"?>
<!DOCTYPE svg PUBLIC "-//W3C//DTD SVG 1.1//EN"
 "http://www.w3.org/Graphics/SVG/1.1/DTD/svg11.dtd">
<!-- Generated by graphviz version 2.43.0 (0)
 -->
<!-- Title: IEEE::_1588::PTP::_2019::CommonHeader Pages: 1 -->
<!--zoomable 789 -->

<svg id="main" version="1.1" xmlns="http://www.w3.org/2000/svg" xmlns:xlink="http://www.w3.org/1999/xlink" xml:space="preserve" onload="init(evt)">
<style type="text/css"><![CDATA[
.node, .edge {opacity: 0.7;}
.node.selected, .edge.selected {opacity: 1;}
.edge:hover path { stroke: red; }
.edge:hover polygon { stroke: red; fill: red; }
]]></style>

<defs>
  <circle id="rim" cx="0" cy="0" r="7"/>
  <circle id="rim2" cx="0" cy="0" r="3.5"/>
  <g id="zoomPlus">
    <use xlink:href="#rim" fill="#404040"><set attributeName="fill" to="#808080" begin="zoomplus.mouseover" end="zoomplus.mouseout"/></use>
    <path d="M-4,0h8M0,-4v8" fill="none" stroke="white" stroke-width="1.5" pointer-events="none"/>
  </g>
  <g id="zoomMin">
    <use xlink:href="#rim" fill="#404040"><set attributeName="fill" to="#808080" begin="zoomminus.mouseover" end="zoomminus.mouseout"/></use>
    <path d="M-4,0h8" fill="none" stroke="white" stroke-width="1.5" pointer-events="none"/>
  </g>
  <g id="arrowUp" transform="translate(30 24)">
    <use xlink:href="#rim"/>
    <path pointer-events="none" fill="none" stroke="white" stroke-width="1.5" d="M0,-3.0v7 M-2.5,-0.5L0,-3.0L2.5,-0.5"/>
  </g>
  <g id="arrowRight" transform="rotate(90) translate(36 -43)">
    <use xlink:href="#rim"/>
    <path pointer-events="none" fill="none" stroke="white" stroke-width="1.5" d="M0,-3.0v7 M-2.5,-0.5L0,-3.0L2.5,-0.5"/>
  </g>
  <g id="arrowDown" transform="rotate(180) translate(-30 -48)">
    <use xlink:href="#rim"/>
    <path pointer-events="none" fill="none" stroke="white" stroke-width="1.5" d="M0,-3.0v7 M-2.5,-0.5L0,-3.0L2.5,-0.5"/>
  </g>
  <g id="arrowLeft" transform="rotate(270) translate(-36 17)">
    <use xlink:href="#rim"/>
    <path pointer-events="none" fill="none" stroke="white" stroke-width="1.5" d="M0,-3.0v7 M-2.5,-0.5L0,-3.0L2.5,-0.5"/>
  </g>
  <g id="resetDef">
    <use xlink:href="#rim2" fill="#404040"><set attributeName="fill" to="#808080" begin="reset.mouseover" end="reset.mouseout"/></use>
  </g>
</defs>
<script type="application/ecmascript">
var viewWidth = 341;
var viewHeight = 789;
var sectionId = 'dynsection-0';
</script>
<script type="application/ecmascript" xlink:href="../../svg.min.js"/>
<svg id="graph" class="graph">
<g id="viewport">
<title>IEEE::_1588::PTP::_2019::CommonHeader</title>
<!-- Node1 -->
<g id="Node000001" class="node">
<title>Node1</title>
<g id="a_Node000001"><a xlink:title="Common PTP Message Header &#45; present in all PTP messages.">
<polygon fill="#999999" stroke="transparent" points="212.5,-285 74.5,-285 74.5,0 212.5,0 212.5,-285"/>
<text text-anchor="start" x="86" y="-272.5" font-family="Helvetica,sans-Serif" font-size="10.00">IEEE::_1588::PTP::</text>
<text text-anchor="start" x="86" y="-261.5" font-family="Helvetica,sans-Serif" font-size="10.00">_2019::CommonHeader</text>
<text text-anchor="start" x="78.5" y="-246.5" font-family="Helvetica,sans-Serif" font-size="10.00">+</text>
<text text-anchor="start" x="91.5" y="-246.5" font-family="Helvetica,sans-Serif" font-size="10.00">transport_messageType</text>
<text text-anchor="start" x="78.5" y="-231.5" font-family="Helvetica,sans-Serif" font-size="10.00">+</text>
<text text-anchor="start" x="91.5" y="-231.5" font-family="Helvetica,sans-Serif" font-size="10.00">reserved_version</text>
<text text-anchor="start" x="78.5" y="-216.5" font-family="Helvetica,sans-Serif" font-size="10.00">+</text>
<text text-anchor="start" x="91.5" y="-216.5" font-family="Helvetica,sans-Serif" font-size="10.00">messageLength</text>
<text text-anchor="start" x="78.5" y="-201.5" font-family="Helvetica,sans-Serif" font-size="10.00">+</text>
<text text-anchor="start" x="91.5" y="-201.5" font-family="Helvetica,sans-Serif" font-size="10.00">domainNumber</text>
<text text-anchor="start" x="78.5" y="-186.5" font-family="Helvetica,sans-Serif" font-size="10.00">+</text>
<text text-anchor="start" x="91.5" y="-186.5" font-family="Helvetica,sans-Serif" font-size="10.00">minorVersionPTP</text>
<text text-anchor="start" x="78.5" y="-171.5" font-family="Helvetica,sans-Serif" font-size="10.00">+</text>
<text text-anchor="start" x="91.5" y="-171.5" font-family="Helvetica,sans-Serif" font-size="10.00">flagField</text>
<text text-anchor="start" x="78.5" y="-156.5" font-family="Helvetica,sans-Serif" font-size="10.00">+</text>
<text text-anchor="start" x="91.5" y="-156.5" font-family="Helvetica,sans-Serif" font-size="10.00">messageTypeSpecific</text>
<text text-anchor="start" x="78.5" y="-141.5" font-family="Helvetica,sans-Serif" font-size="10.00">+</text>
<text text-anchor="start" x="91.5" y="-141.5" font-family="Helvetica,sans-Serif" font-size="10.00">sequenceId</text>
<text text-anchor="start" x="78.5" y="-126.5" font-family="Helvetica,sans-Serif" font-size="10.00">+</text>
<text text-anchor="start" x="91.5" y="-126.5" font-family="Helvetica,sans-Serif" font-size="10.00">controlField</text>
<text text-anchor="start" x="78.5" y="-111.5" font-family="Helvetica,sans-Serif" font-size="10.00">+</text>
<text text-anchor="start" x="91.5" y="-111.5" font-family="Helvetica,sans-Serif" font-size="10.00">logMessageInterval</text>
<text text-anchor="start" x="78.5" y="-96.5" font-family="Helvetica,sans-Serif" font-size="10.00">+</text>
<text text-anchor="start" x="91.5" y="-96.5" font-family="Helvetica,sans-Serif" font-size="10.00">getMessageType()</text>
<text text-anchor="start" x="78.5" y="-81.5" font-family="Helvetica,sans-Serif" font-size="10.00">+</text>
<text text-anchor="start" x="91.5" y="-81.5" font-family="Helvetica,sans-Serif" font-size="10.00">setMessageType()</text>
<text text-anchor="start" x="78.5" y="-66.5" font-family="Helvetica,sans-Serif" font-size="10.00">+</text>
<text text-anchor="start" x="91.5" y="-66.5" font-family="Helvetica,sans-Serif" font-size="10.00">getVersion()</text>
<text text-anchor="start" x="78.5" y="-51.5" font-family="Helvetica,sans-Serif" font-size="10.00">+</text>
<text text-anchor="start" x="91.5" y="-51.5" font-family="Helvetica,sans-Serif" font-size="10.00">setVersion()</text>
<text text-anchor="start" x="78.5" y="-36.5" font-family="Helvetica,sans-Serif" font-size="10.00">+</text>
<text text-anchor="start" x="91.5" y="-36.5" font-family="Helvetica,sans-Serif" font-size="10.00">isTwoStep()</text>
<text text-anchor="start" x="78.5" y="-21.5" font-family="Helvetica,sans-Serif" font-size="10.00">+</text>
<text text-anchor="start" x="91.5" y="-21.5" font-family="Helvetica,sans-Serif" font-size="10.00">isEventMessage()</text>
<text text-anchor="start" x="78.5" y="-6.5" font-family="Helvetica,sans-Serif" font-size="10.00">+</text>
<text text-anchor="start" x="91.5" y="-6.5" font-family="Helvetica,sans-Serif" font-size="10.00">validate()</text>
<polygon fill="#666666" stroke="#666666" points="74.5,-256.5 74.5,-256.5 212.5,-256.5 212.5,-256.5 74.5,-256.5"/>
<polygon fill="#666666" stroke="#666666" points="74.5,-106.5 74.5,-106.5 89.5,-106.5 89.5,-106.5 74.5,-106.5"/>
<polygon fill="#666666" stroke="#666666" points="89.5,-106.5 89.5,-106.5 212.5,-106.5 212.5,-106.5 89.5,-106.5"/>
<polygon fill="none" stroke="#666666" points="74.5,0 74.5,-285 212.5,-285 212.5,0 74.5,0"/>
</a>
</g>
</g>
<!-- Node2 -->
<g id="Node000002" class="node">
<title>Node2</title>
<g id="a_Node000002"><a xlink:href="../../d9/d23/structIEEE_1_1__1588_1_1PTP_1_1__2019_1_1Types_1_1CorrectionField.html" target="_top" xlink:title="Correction Field &#45; time correction in units of nanoseconds * 2^16.">
<polygon fill="white" stroke="transparent" points="153,-482 0,-482 0,-332 153,-332 153,-482"/>
<text text-anchor="start" x="5.5" y="-470" font-family="Helvetica,sans-Serif" font-size="10.00">IEEE::_1588::PTP::</text>
<text text-anchor="start" x="5.5" y="-459" font-family="Helvetica,sans-Serif" font-size="10.00">_2019::Types::CorrectionField</text>
<text text-anchor="start" x="13" y="-444" font-family="Helvetica,sans-Serif" font-size="10.00">+</text>
<text text-anchor="start" x="34.5" y="-444" font-family="Helvetica,sans-Serif" font-size="10.00">value</text>
<text text-anchor="start" x="13" y="-429" font-family="Helvetica,sans-Serif" font-size="10.00">+</text>
<text text-anchor="start" x="34.5" y="-429" font-family="Helvetica,sans-Serif" font-size="10.00">CorrectionField()</text>
<text text-anchor="start" x="13" y="-414" font-family="Helvetica,sans-Serif" font-size="10.00">+</text>
<text text-anchor="start" x="34.5" y="-414" font-family="Helvetica,sans-Serif" font-size="10.00">CorrectionField()</text>
<text text-anchor="start" x="13" y="-399" font-family="Helvetica,sans-Serif" font-size="10.00">+</text>
<text text-anchor="start" x="34.5" y="-399" font-family="Helvetica,sans-Serif" font-size="10.00">toNanoseconds()</text>
<text text-anchor="start" x="13" y="-384" font-family="Helvetica,sans-Serif" font-size="10.00">+</text>
<text text-anchor="start" x="34.5" y="-384" font-family="Helvetica,sans-Serif" font-size="10.00">CorrectionField()</text>
<text text-anchor="start" x="13" y="-369" font-family="Helvetica,sans-Serif" font-size="10.00">+</text>
<text text-anchor="start" x="34.5" y="-369" font-family="Helvetica,sans-Serif" font-size="10.00">operator+=()</text>
<text text-anchor="start" x="13" y="-354" font-family="Helvetica,sans-Serif" font-size="10.00">+</text>
<text text-anchor="start" x="34.5" y="-354" font-family="Helvetica,sans-Serif" font-size="10.00">operator&lt;&lt;()</text>
<text text-anchor="start" x="13" y="-339" font-family="Helvetica,sans-Serif" font-size="10.00">+</text>
<text text-anchor="start" x="34.5" y="-339" font-family="Helvetica,sans-Serif" font-size="10.00">fromNanoseconds()</text>
<polygon fill="#666666" stroke="#666666" points="0.5,-454 0.5,-454 153.5,-454 153.5,-454 0.5,-454"/>
<polygon fill="#666666" stroke="#666666" points="0.5,-439 0.5,-439 32.5,-439 32.5,-439 0.5,-439"/>
<polygon fill="#666666" stroke="#666666" points="32.5,-439 32.5,-439 153.5,-439 153.5,-439 32.5,-439"/>
<polygon fill="none" stroke="#666666" points="0,-332 0,-482 153,-482 153,-332 0,-332"/>
</a>
</g>
</g>
<!-- Node2&#45;&gt;Node1 -->
<g id="edge1_Node000001_Node000002" class="edge">
<title>Node2&#45;&gt;Node1</title>
<g id="a_edge1_Node000001_Node000002"><a xlink:title=" ">
<path fill="none" stroke="#63b8ff" d="M95.43,-331.83C98.28,-320.69 101.29,-308.86 104.38,-296.78"/>
<polygon fill="none" stroke="#63b8ff" points="104.38,-296.75 101.99,-289.95 107.35,-285.13 109.74,-291.93 104.38,-296.75"/>
</a>
</g>
<text text-anchor="middle" x="143.5" y="-306" font-family="Helvetica,sans-Serif" font-size="10.00" fill="grey"> +correctionField</text>
</g>
<!-- Node3 -->
<g id="Node000003" class="node">
<title>Node3</title>
<g id="a_Node000003"><a xlink:href="../../dc/d02/structIEEE_1_1__1588_1_1PTP_1_1__2019_1_1Types_1_1PortIdentity.html" target="_top" xlink:title="Port Identity &#45; combination of clock identity and port number.">
<polygon fill="white" stroke="transparent" points="308,-452 171,-452 171,-362 308,-362 308,-452"/>
<text text-anchor="start" x="176.5" y="-440" font-family="Helvetica,sans-Serif" font-size="10.00">IEEE::_1588::PTP::</text>
<text text-anchor="start" x="176.5" y="-429" font-family="Helvetica,sans-Serif" font-size="10.00">_2019::Types::PortIdentity</text>
<text text-anchor="start" x="188" y="-414" font-family="Helvetica,sans-Serif" font-size="10.00">+</text>
<text text-anchor="start" x="213.5" y="-414" font-family="Helvetica,sans-Serif" font-size="10.00">port_number</text>
<text text-anchor="start" x="188" y="-399" font-family="Helvetica,sans-Serif" font-size="10.00">+</text>
<text text-anchor="start" x="213.5" y="-399" font-family="Helvetica,sans-Serif" font-size="10.00">operator==()</text>
<text text-anchor="start" x="188" y="-384" font-family="Helvetica,sans-Serif" font-size="10.00">+</text>
<text text-anchor="start" x="213.5" y="-384" font-family="Helvetica,sans-Serif" font-size="10.00">operator&lt;()</text>
<text text-anchor="start" x="188" y="-369" font-family="Helvetica,sans-Serif" font-size="10.00">+</text>
<text text-anchor="start" x="213.5" y="-369" font-family="Helvetica,sans-Serif" font-size="10.00">validate()</text>
<polygon fill="#666666" stroke="#666666" points="171.5,-424 171.5,-424 308.5,-424 308.5,-424 171.5,-424"/>
<polygon fill="#666666" stroke="#666666" points="171.5,-409 171.5,-409 211.5,-409 211.5,-409 171.5,-409"/>
<polygon fill="#666666" stroke="#666666" points="211.5,-409 211.5,-409 308.5,-409 308.5,-409 211.5,-409"/>
<polygon fill="none" stroke="#666666" points="171,-362 171,-452 308,-452 308,-362 171,-362"/>
</a>
</g>
</g>
<!-- Node3&#45;&gt;Node1 -->
<g id="edge2_Node000001_Node000003" class="edge">
<title>Node3&#45;&gt;Node1</title>
<g id="a_edge2_Node000001_Node000003"><a xlink:title=" ">
<path fill="none" stroke="#63b8ff" d="M223.32,-361.77C216.52,-343.16 208.16,-320.31 199.45,-296.48"/>
<polygon fill="none" stroke="#63b8ff" points="199.4,-296.36 193.59,-292.1 195.28,-285.09 201.1,-289.35 199.4,-296.36"/>
</a>
</g>
<text text-anchor="middle" x="256" y="-306" font-family="Helvetica,sans-Serif" font-size="10.00" fill="grey"> +sourcePortIdentity</text>
</g>
<!-- Node4 -->
<g id="Node000004" class="node">
<title>Node4</title>
<g id="a_Node000004"><a xlink:title=" ">
<polygon fill="white" stroke="transparent" points="296.5,-589 182.5,-589 182.5,-529 296.5,-529 296.5,-589"/>
<text text-anchor="start" x="187.5" y="-577" font-family="Helvetica,sans-Serif" font-size="10.00">std::array&lt; std::uint8</text>
<text text-anchor="start" x="223" y="-566" font-family="Helvetica,sans-Serif" font-size="10.00">_t, 8 &gt;</text>
<text text-anchor="start" x="198" y="-551" font-family="Helvetica,sans-Serif" font-size="10.00">+</text>
<text text-anchor="start" x="222.5" y="-551" font-family="Helvetica,sans-Serif" font-size="10.00">elements</text>
<text text-anchor="start" x="237.5" y="-536" font-family="Helvetica,sans-Serif" font-size="10.00"> </text>
<polygon fill="#666666" stroke="#666666" points="182.5,-561 182.5,-561 296.5,-561 296.5,-561 182.5,-561"/>
<polygon fill="#666666" stroke="#666666" points="182.5,-546 182.5,-546 220.5,-546 220.5,-546 182.5,-546"/>
<polygon fill="#666666" stroke="#666666" points="220.5,-546 220.5,-546 296.5,-546 296.5,-546 220.5,-546"/>
<polygon fill="none" stroke="#666666" points="182.5,-529 182.5,-589 296.5,-589 296.5,-529 182.5,-529"/>
</a>
</g>
</g>
<!-- Node4&#45;&gt;Node3 -->
<g id="edge3_Node000003_Node000004" class="edge">
<title>Node4&#45;&gt;Node3</title>
<g id="a_edge3_Node000003_Node000004"><a xlink:title=" ">
<path fill="none" stroke="#63b8ff" d="M239.5,-528.72C239.5,-510.46 239.5,-486.36 239.5,-464.49"/>
<polygon fill="none" stroke="#63b8ff" points="239.5,-464.28 235.5,-458.28 239.5,-452.28 243.5,-458.28 239.5,-464.28"/>
</a>
</g>
<text text-anchor="middle" x="279.5" y="-503" font-family="Helvetica,sans-Serif" font-size="10.00" fill="grey"> +clock_identity</text>
</g>
<!-- Node5 -->
<g id="Node000005" class="node">
<title>Node5</title>
<g id="a_Node000005"><a xlink:title=" ">
<polygon fill="white" stroke="transparent" points="282.5,-685 196.5,-685 196.5,-636 282.5,-636 282.5,-685"/>
<text text-anchor="start" x="201.5" y="-672.5" font-family="Helvetica,sans-Serif" font-size="10.00">std::array&lt; T &gt;</text>
<text text-anchor="start" x="237.5" y="-657.5" font-family="Helvetica,sans-Serif" font-size="10.00"> </text>
<text text-anchor="start" x="237.5" y="-642.5" font-family="Helvetica,sans-Serif" font-size="10.00"> </text>
<polygon fill="#666666" stroke="#666666" points="196.5,-667.5 196.5,-667.5 282.5,-667.5 282.5,-667.5 196.5,-667.5"/>
<polygon fill="#666666" stroke="#666666" points="196.5,-652.5 196.5,-652.5 282.5,-652.5 282.5,-652.5 196.5,-652.5"/>
<polygon fill="none" stroke="#666666" points="196.5,-636 196.5,-685 282.5,-685 282.5,-636 196.5,-636"/>
</a>
</g>
</g>
<!-- Node5&#45;&gt;Node4 -->
<g id="edge4_Node000004_Node000005" class="edge">
<title>Node5&#45;&gt;Node4</title>
<g id="a_edge4_Node000004_Node000005"><a xlink:title=" ">
<path fill="none" stroke="orange" d="M239.5,-625.87C239.5,-613.94 239.5,-600.62 239.5,-589.1"/>
<polygon fill="orange" stroke="orange" points="236,-625.92 239.5,-635.92 243,-625.92 236,-625.92"/>
</a>
</g>
<text text-anchor="middle" x="286" y="-610" font-family="Helvetica,sans-Serif" font-size="10.00" fill="grey"> &lt; std::uint8_t, 8 &gt;</text>
</g>
<!-- Node6 -->
<g id="Node000006" class="node">
<title>Node6</title>
<g id="a_Node000006"><a xlink:title=" ">
<polygon fill="white" stroke="transparent" points="248,-781 231,-781 231,-732 248,-732 248,-781"/>
<text text-anchor="start" x="236.5" y="-768.5" font-family="Helvetica,sans-Serif" font-size="10.00">T</text>
<text text-anchor="start" x="238" y="-753.5" font-family="Helvetica,sans-Serif" font-size="10.00"> </text>
<text text-anchor="start" x="238" y="-738.5" font-family="Helvetica,sans-Serif" font-size="10.00"> </text>
<polygon fill="#666666" stroke="#666666" points="231.5,-763.5 231.5,-763.5 248.5,-763.5 248.5,-763.5 231.5,-763.5"/>
<polygon fill="#666666" stroke="#666666" points="231.5,-748.5 231.5,-748.5 248.5,-748.5 248.5,-748.5 231.5,-748.5"/>
<polygon fill="none" stroke="#666666" points="231,-732 231,-781 248,-781 248,-732 231,-732"/>
</a>
</g>
</g>
<!-- Node6&#45;&gt;Node5 -->
<g id="edge5_Node000005_Node000006" class="edge">
<title>Node6&#45;&gt;Node5</title>
<g id="a_edge5_Node000005_Node000006"><a xlink:title=" ">
<path fill="none" stroke="#63b8ff" d="M239.5,-731.78C239.5,-721.32 239.5,-708.79 239.5,-697.23"/>
<polygon fill="none" stroke="#63b8ff" points="239.5,-697.21 235.5,-691.21 239.5,-685.21 243.5,-691.21 239.5,-697.21"/>
</a>
</g>
<text text-anchor="middle" x="268.5" y="-706" font-family="Helvetica,sans-Serif" font-size="10.00" fill="grey"> +elements</text>
</g>
</g>
</svg>

<g id="navigator" transform="translate(0 0)" fill="#404254">
  <rect fill="#f2f5e9" fill-opacity="0.5" stroke="#606060" stroke-width=".5" x="0" y="0" width="60" height="60"/>
  <use id="zoomplus" xlink:href="#zoomPlus" x="17" y="9" onmousedown="handleZoom(evt,'in')"/>
  <use id="zoomminus" xlink:href="#zoomMin" x="42" y="9" onmousedown="handleZoom(evt,'out')"/>
  <use id="reset" xlink:href="#resetDef" x="30" y="36" onmousedown="handleReset()"/>
   <use id="arrowup" xlink:href="#arrowUp" x="0" y="0" onmousedown="handlePan(0,-1)"/>
  <use id="arrowright" xlink:href="#arrowRight" x="0" y="0" onmousedown="handlePan(1,0)"/>
  <use id="arrowdown" xlink:href="#arrowDown" x="0" y="0" onmousedown="handlePan(0,1)"/>
  <use id="arrowleft" xlink:href="#arrowLeft" x="0" y="0" onmousedown="handlePan(-1,0)"/>
</g>
<svg viewBox="0 0 15 15" width="100%" height="30px" preserveAspectRatio="xMaxYMin meet">
 <g id="arrow_out" transform="scale(0.3 0.3)">
  <a xlink:href="structIEEE_1_1__1588_1_1PTP_1_1__2019_1_1CommonHeader__coll__graph_org.svg" target="_base">
   <rect id="button" ry="5" rx="5" y="6" x="6" height="38" width="38"
        fill="#f2f5e9" fill-opacity="0.5" stroke="#606060" stroke-width="1.0"/>
   <path id="arrow"
     d="M 11.500037,31.436501 C 11.940474,20.09759 22.043105,11.32322 32.158766,21.979434 L 37.068811,17.246167 C 37.068811,17.246167 37.088388,32 37.088388,32 L 22.160133,31.978069 C 22.160133,31.978069 26.997745,27.140456 26.997745,27.140456 C 18.528582,18.264221 13.291696,25.230495 11.500037,31.436501 z"
     style="fill:#404040;"/>
  </a>
 </g>
</svg>

<style type='text/css'>
<![CDATA[
[data-mouse-over-selected='false'] { opacity: 0.7; }
[data-mouse-over-selected='true']  { opacity: 1.0; }
]]>
</style>
<script type="application/ecmascript"><![CDATA[
document.addEventListener('DOMContentLoaded', (event) => {
  highlightEdges();
  highlightAdjacentNodes();
});
]]></script>
</svg>
