<?xml version="1.0" encoding="UTF-8" standalone="no"?>
<!DOCTYPE svg PUBLIC "-//W3C//DTD SVG 1.1//EN"
 "http://www.w3.org/Graphics/SVG/1.1/DTD/svg11.dtd">
<!-- Generated by graphviz version 2.43.0 (0)
 -->
<!-- Title: IEEE::_1588::PTP::_2019::Clocks::OrdinaryClock::initialize Pages: 1 -->
<svg width="519pt" height="49pt"
 viewBox="0.00 0.00 519.00 49.00" xmlns="http://www.w3.org/2000/svg" xmlns:xlink="http://www.w3.org/1999/xlink">
<g id="graph0" class="graph" transform="scale(1 1) rotate(0) translate(4 45)">
<title>IEEE::_1588::PTP::_2019::Clocks::OrdinaryClock::initialize</title>
<!-- Node1 -->
<g id="Node000001" class="node">
<title>Node1</title>
<g id="a_Node000001"><a xlink:title="Initialize ordinary clock.">
<polygon fill="#999999" stroke="#666666" points="159,-41 0,-41 0,0 159,0 159,-41"/>
<text text-anchor="start" x="8" y="-29" font-family="Helvetica,sans-Serif" font-size="10.00">IEEE::_1588::PTP::</text>
<text text-anchor="start" x="8" y="-18" font-family="Helvetica,sans-Serif" font-size="10.00">_2019::Clocks::OrdinaryClock</text>
<text text-anchor="middle" x="79.5" y="-7" font-family="Helvetica,sans-Serif" font-size="10.00">::initialize</text>
</a>
</g>
</g>
<!-- Node2 -->
<g id="Node000002" class="node">
<title>Node2</title>
<g id="a_Node000002"><a xlink:href="../../dd/d5b/classIEEE_1_1__1588_1_1PTP_1_1__2019_1_1Clocks_1_1PtpPort.html#add8c9fc3127416e3956871825e1c4688" target="_top" xlink:title="Initialize port state machine.">
<polygon fill="white" stroke="#666666" points="320,-41 195,-41 195,0 320,0 320,-41"/>
<text text-anchor="start" x="203" y="-29" font-family="Helvetica,sans-Serif" font-size="10.00">IEEE::_1588::PTP::</text>
<text text-anchor="start" x="203" y="-18" font-family="Helvetica,sans-Serif" font-size="10.00">_2019::Clocks::PtpPort</text>
<text text-anchor="middle" x="257.5" y="-7" font-family="Helvetica,sans-Serif" font-size="10.00">::initialize</text>
</a>
</g>
</g>
<!-- Node1&#45;&gt;Node2 -->
<g id="edge1_Node000001_Node000002" class="edge">
<title>Node1&#45;&gt;Node2</title>
<g id="a_edge1_Node000001_Node000002"><a xlink:title=" ">
<path fill="none" stroke="#63b8ff" d="M159.23,-20.5C167.76,-20.5 176.4,-20.5 184.83,-20.5"/>
<polygon fill="#63b8ff" stroke="#63b8ff" points="185,-24 195,-20.5 185,-17 185,-24"/>
</a>
</g>
</g>
<!-- Node3 -->
<g id="Node000003" class="node">
<title>Node3</title>
<g id="a_Node000003"><a xlink:href="../../d6/d79/structIEEE_1_1__1588_1_1PTP_1_1__2019_1_1Clocks_1_1PortStatistics.html#aed142f0da85e70bf12d58a4cb3eb5f99" target="_top" xlink:title="Reset all counters to zero.">
<polygon fill="white" stroke="#666666" points="511,-41 356,-41 356,0 511,0 511,-41"/>
<text text-anchor="start" x="364" y="-29" font-family="Helvetica,sans-Serif" font-size="10.00">IEEE::_1588::PTP::</text>
<text text-anchor="start" x="364" y="-18" font-family="Helvetica,sans-Serif" font-size="10.00">_2019::Clocks::PortStatistics</text>
<text text-anchor="middle" x="433.5" y="-7" font-family="Helvetica,sans-Serif" font-size="10.00">::reset</text>
</a>
</g>
</g>
<!-- Node2&#45;&gt;Node3 -->
<g id="edge2_Node000002_Node000003" class="edge">
<title>Node2&#45;&gt;Node3</title>
<g id="a_edge2_Node000002_Node000003"><a xlink:title=" ">
<path fill="none" stroke="#63b8ff" d="M320.34,-20.5C328.62,-20.5 337.24,-20.5 345.85,-20.5"/>
<polygon fill="#63b8ff" stroke="#63b8ff" points="345.94,-24 355.94,-20.5 345.94,-17 345.94,-24"/>
</a>
</g>
</g>
</g>
</svg>
