<?xml version="1.0" encoding="UTF-8" standalone="no"?>
<!DOCTYPE svg PUBLIC "-//W3C//DTD SVG 1.1//EN"
 "http://www.w3.org/Graphics/SVG/1.1/DTD/svg11.dtd">
<!-- Generated by graphviz version 2.43.0 (0)
 -->
<!-- Title: IEEE::_1588::PTP::_2019::Clocks::DefaultDataSet Pages: 1 -->
<svg width="294pt" height="472pt"
 viewBox="0.00 0.00 294.00 472.00" xmlns="http://www.w3.org/2000/svg" xmlns:xlink="http://www.w3.org/1999/xlink">
<g id="graph0" class="graph" transform="scale(1 1) rotate(0) translate(4 468)">
<title>IEEE::_1588::PTP::_2019::Clocks::DefaultDataSet</title>
<!-- Node1 -->
<g id="Node000001" class="node">
<title>Node1</title>
<g id="a_Node000001"><a xlink:title="Default Data Set per IEEE 1588&#45;2019 Section 8.2.1.">
<polygon fill="#999999" stroke="transparent" points="239.5,-135 80.5,-135 80.5,0 239.5,0 239.5,-135"/>
<text text-anchor="start" x="86" y="-122.5" font-family="Helvetica,sans-Serif" font-size="10.00">IEEE::_1588::PTP::</text>
<text text-anchor="start" x="86" y="-111.5" font-family="Helvetica,sans-Serif" font-size="10.00">_2019::Clocks::DefaultDataSet</text>
<text text-anchor="start" x="100.5" y="-96.5" font-family="Helvetica,sans-Serif" font-size="10.00">+</text>
<text text-anchor="start" x="129" y="-96.5" font-family="Helvetica,sans-Serif" font-size="10.00">twoStepFlag</text>
<text text-anchor="start" x="100.5" y="-81.5" font-family="Helvetica,sans-Serif" font-size="10.00">+</text>
<text text-anchor="start" x="129" y="-81.5" font-family="Helvetica,sans-Serif" font-size="10.00">numberPorts</text>
<text text-anchor="start" x="100.5" y="-66.5" font-family="Helvetica,sans-Serif" font-size="10.00">+</text>
<text text-anchor="start" x="129" y="-66.5" font-family="Helvetica,sans-Serif" font-size="10.00">priority1</text>
<text text-anchor="start" x="100.5" y="-51.5" font-family="Helvetica,sans-Serif" font-size="10.00">+</text>
<text text-anchor="start" x="129" y="-51.5" font-family="Helvetica,sans-Serif" font-size="10.00">priority2</text>
<text text-anchor="start" x="100.5" y="-36.5" font-family="Helvetica,sans-Serif" font-size="10.00">+</text>
<text text-anchor="start" x="129" y="-36.5" font-family="Helvetica,sans-Serif" font-size="10.00">domainNumber</text>
<text text-anchor="start" x="100.5" y="-21.5" font-family="Helvetica,sans-Serif" font-size="10.00">+</text>
<text text-anchor="start" x="129" y="-21.5" font-family="Helvetica,sans-Serif" font-size="10.00">slaveOnly</text>
<text text-anchor="start" x="158.5" y="-6.5" font-family="Helvetica,sans-Serif" font-size="10.00"> </text>
<polygon fill="#666666" stroke="#666666" points="81,-106.5 81,-106.5 240,-106.5 240,-106.5 81,-106.5"/>
<polygon fill="#666666" stroke="#666666" points="81,-16.5 81,-16.5 127,-16.5 127,-16.5 81,-16.5"/>
<polygon fill="#666666" stroke="#666666" points="127,-16.5 127,-16.5 240,-16.5 240,-16.5 127,-16.5"/>
<polygon fill="none" stroke="#666666" points="80.5,0 80.5,-135 239.5,-135 239.5,0 80.5,0"/>
</a>
</g>
</g>
<!-- Node2 -->
<g id="Node000002" class="node">
<title>Node2</title>
<g id="a_Node000002"><a xlink:title=" ">
<polygon fill="white" stroke="transparent" points="114,-257 0,-257 0,-197 114,-197 114,-257"/>
<text text-anchor="start" x="5" y="-245" font-family="Helvetica,sans-Serif" font-size="10.00">std::array&lt; std::uint8</text>
<text text-anchor="start" x="40.5" y="-234" font-family="Helvetica,sans-Serif" font-size="10.00">_t, 8 &gt;</text>
<text text-anchor="start" x="15.5" y="-219" font-family="Helvetica,sans-Serif" font-size="10.00">+</text>
<text text-anchor="start" x="40" y="-219" font-family="Helvetica,sans-Serif" font-size="10.00">elements</text>
<text text-anchor="start" x="55" y="-204" font-family="Helvetica,sans-Serif" font-size="10.00"> </text>
<polygon fill="#666666" stroke="#666666" points="0,-229 0,-229 114,-229 114,-229 0,-229"/>
<polygon fill="#666666" stroke="#666666" points="0,-214 0,-214 38,-214 38,-214 0,-214"/>
<polygon fill="#666666" stroke="#666666" points="38,-214 38,-214 114,-214 114,-214 38,-214"/>
<polygon fill="none" stroke="#666666" points="0,-197 0,-257 114,-257 114,-197 0,-197"/>
</a>
</g>
</g>
<!-- Node2&#45;&gt;Node1 -->
<g id="edge1_Node000001_Node000002" class="edge">
<title>Node2&#45;&gt;Node1</title>
<g id="a_edge1_Node000001_Node000002"><a xlink:title=" ">
<path fill="none" stroke="#63b8ff" d="M76.13,-196.74C85.7,-182.11 97.78,-163.63 109.77,-145.3"/>
<polygon fill="none" stroke="#63b8ff" points="109.84,-145.2 109.78,-137.99 116.41,-135.16 116.47,-142.37 109.84,-145.2"/>
</a>
</g>
<text text-anchor="middle" x="140.5" y="-156" font-family="Helvetica,sans-Serif" font-size="10.00" fill="grey"> +clockIdentity</text>
</g>
<!-- Node3 -->
<g id="Node000003" class="node">
<title>Node3</title>
<g id="a_Node000003"><a xlink:title=" ">
<polygon fill="white" stroke="transparent" points="100,-368 14,-368 14,-319 100,-319 100,-368"/>
<text text-anchor="start" x="19" y="-355.5" font-family="Helvetica,sans-Serif" font-size="10.00">std::array&lt; T &gt;</text>
<text text-anchor="start" x="55" y="-340.5" font-family="Helvetica,sans-Serif" font-size="10.00"> </text>
<text text-anchor="start" x="55" y="-325.5" font-family="Helvetica,sans-Serif" font-size="10.00"> </text>
<polygon fill="#666666" stroke="#666666" points="14,-350.5 14,-350.5 100,-350.5 100,-350.5 14,-350.5"/>
<polygon fill="#666666" stroke="#666666" points="14,-335.5 14,-335.5 100,-335.5 100,-335.5 14,-335.5"/>
<polygon fill="none" stroke="#666666" points="14,-319 14,-368 100,-368 100,-319 14,-319"/>
</a>
</g>
</g>
<!-- Node3&#45;&gt;Node2 -->
<g id="edge2_Node000002_Node000003" class="edge">
<title>Node3&#45;&gt;Node2</title>
<g id="a_edge2_Node000002_Node000003"><a xlink:title=" ">
<path fill="none" stroke="orange" d="M57,-308.59C57,-292.33 57,-273.03 57,-257.39"/>
<polygon fill="orange" stroke="orange" points="53.5,-308.78 57,-318.78 60.5,-308.78 53.5,-308.78"/>
</a>
</g>
<text text-anchor="middle" x="103.5" y="-293" font-family="Helvetica,sans-Serif" font-size="10.00" fill="grey"> &lt; std::uint8_t, 8 &gt;</text>
</g>
<!-- Node4 -->
<g id="Node000004" class="node">
<title>Node4</title>
<g id="a_Node000004"><a xlink:title=" ">
<polygon fill="white" stroke="transparent" points="65.5,-464 48.5,-464 48.5,-415 65.5,-415 65.5,-464"/>
<text text-anchor="start" x="54" y="-451.5" font-family="Helvetica,sans-Serif" font-size="10.00">T</text>
<text text-anchor="start" x="55.5" y="-436.5" font-family="Helvetica,sans-Serif" font-size="10.00"> </text>
<text text-anchor="start" x="55.5" y="-421.5" font-family="Helvetica,sans-Serif" font-size="10.00"> </text>
<polygon fill="#666666" stroke="#666666" points="49,-446.5 49,-446.5 66,-446.5 66,-446.5 49,-446.5"/>
<polygon fill="#666666" stroke="#666666" points="49,-431.5 49,-431.5 66,-431.5 66,-431.5 49,-431.5"/>
<polygon fill="none" stroke="#666666" points="48.5,-415 48.5,-464 65.5,-464 65.5,-415 48.5,-415"/>
</a>
</g>
</g>
<!-- Node4&#45;&gt;Node3 -->
<g id="edge3_Node000003_Node000004" class="edge">
<title>Node4&#45;&gt;Node3</title>
<g id="a_edge3_Node000003_Node000004"><a xlink:title=" ">
<path fill="none" stroke="#63b8ff" d="M57,-414.78C57,-404.32 57,-391.79 57,-380.23"/>
<polygon fill="none" stroke="#63b8ff" points="57,-380.21 53,-374.21 57,-368.21 61,-374.21 57,-380.21"/>
</a>
</g>
<text text-anchor="middle" x="86" y="-389" font-family="Helvetica,sans-Serif" font-size="10.00" fill="grey"> +elements</text>
</g>
<!-- Node5 -->
<g id="Node000005" class="node">
<title>Node5</title>
<g id="a_Node000005"><a xlink:href="../../de/da1/structIEEE_1_1__1588_1_1PTP_1_1__2019_1_1Types_1_1ClockQuality.html" target="_top" xlink:title="Clock Quality &#45; describes the quality of a clock.">
<polygon fill="white" stroke="transparent" points="286,-272 132,-272 132,-182 286,-182 286,-272"/>
<text text-anchor="start" x="143" y="-260" font-family="Helvetica,sans-Serif" font-size="10.00">IEEE::_1588::PTP::</text>
<text text-anchor="start" x="143" y="-249" font-family="Helvetica,sans-Serif" font-size="10.00">_2019::Types::ClockQuality</text>
<text text-anchor="start" x="136" y="-234" font-family="Helvetica,sans-Serif" font-size="10.00">+</text>
<text text-anchor="start" x="149" y="-234" font-family="Helvetica,sans-Serif" font-size="10.00">clock_class</text>
<text text-anchor="start" x="136" y="-219" font-family="Helvetica,sans-Serif" font-size="10.00">+</text>
<text text-anchor="start" x="149" y="-219" font-family="Helvetica,sans-Serif" font-size="10.00">clock_accuracy</text>
<text text-anchor="start" x="136" y="-204" font-family="Helvetica,sans-Serif" font-size="10.00">+</text>
<text text-anchor="start" x="149" y="-204" font-family="Helvetica,sans-Serif" font-size="10.00">offset_scaled_log_variance</text>
<text text-anchor="start" x="207" y="-189" font-family="Helvetica,sans-Serif" font-size="10.00"> </text>
<polygon fill="#666666" stroke="#666666" points="132,-244 132,-244 286,-244 286,-244 132,-244"/>
<polygon fill="#666666" stroke="#666666" points="132,-199 132,-199 147,-199 147,-199 132,-199"/>
<polygon fill="#666666" stroke="#666666" points="147,-199 147,-199 286,-199 286,-199 147,-199"/>
<polygon fill="none" stroke="#666666" points="132,-182 132,-272 286,-272 286,-182 132,-182"/>
</a>
</g>
</g>
<!-- Node5&#45;&gt;Node1 -->
<g id="edge4_Node000001_Node000005" class="edge">
<title>Node5&#45;&gt;Node1</title>
<g id="a_edge4_Node000001_Node000005"><a xlink:title=" ">
<path fill="none" stroke="#63b8ff" d="M195.22,-181.71C191.81,-170.75 188.05,-158.67 184.3,-146.62"/>
<polygon fill="none" stroke="#63b8ff" points="184.29,-146.56 178.68,-142.02 180.72,-135.11 186.32,-139.65 184.29,-146.56"/>
</a>
</g>
<text text-anchor="middle" x="224.5" y="-156" font-family="Helvetica,sans-Serif" font-size="10.00" fill="grey"> +clockQuality</text>
</g>
</g>
</svg>
