<?xml version="1.0" encoding="UTF-8" standalone="no"?>
<!DOCTYPE svg PUBLIC "-//W3C//DTD SVG 1.1//EN"
 "http://www.w3.org/Graphics/SVG/1.1/DTD/svg11.dtd">
<!-- Generated by graphviz version 2.43.0 (0)
 -->
<!-- Title: IEEE::_1588::PTP::_2019::Clocks::DefaultDataSet Pages: 1 -->
<!--zoomable 472 -->

<svg id="main" version="1.1" xmlns="http://www.w3.org/2000/svg" xmlns:xlink="http://www.w3.org/1999/xlink" xml:space="preserve" onload="init(evt)">
<style type="text/css"><![CDATA[
.node, .edge {opacity: 0.7;}
.node.selected, .edge.selected {opacity: 1;}
.edge:hover path { stroke: red; }
.edge:hover polygon { stroke: red; fill: red; }
]]></style>

<defs>
  <circle id="rim" cx="0" cy="0" r="7"/>
  <circle id="rim2" cx="0" cy="0" r="3.5"/>
  <g id="zoomPlus">
    <use xlink:href="#rim" fill="#404040"><set attributeName="fill" to="#808080" begin="zoomplus.mouseover" end="zoomplus.mouseout"/></use>
    <path d="M-4,0h8M0,-4v8" fill="none" stroke="white" stroke-width="1.5" pointer-events="none"/>
  </g>
  <g id="zoomMin">
    <use xlink:href="#rim" fill="#404040"><set attributeName="fill" to="#808080" begin="zoomminus.mouseover" end="zoomminus.mouseout"/></use>
    <path d="M-4,0h8" fill="none" stroke="white" stroke-width="1.5" pointer-events="none"/>
  </g>
  <g id="arrowUp" transform="translate(30 24)">
    <use xlink:href="#rim"/>
    <path pointer-events="none" fill="none" stroke="white" stroke-width="1.5" d="M0,-3.0v7 M-2.5,-0.5L0,-3.0L2.5,-0.5"/>
  </g>
  <g id="arrowRight" transform="rotate(90) translate(36 -43)">
    <use xlink:href="#rim"/>
    <path pointer-events="none" fill="none" stroke="white" stroke-width="1.5" d="M0,-3.0v7 M-2.5,-0.5L0,-3.0L2.5,-0.5"/>
  </g>
  <g id="arrowDown" transform="rotate(180) translate(-30 -48)">
    <use xlink:href="#rim"/>
    <path pointer-events="none" fill="none" stroke="white" stroke-width="1.5" d="M0,-3.0v7 M-2.5,-0.5L0,-3.0L2.5,-0.5"/>
  </g>
  <g id="arrowLeft" transform="rotate(270) translate(-36 17)">
    <use xlink:href="#rim"/>
    <path pointer-events="none" fill="none" stroke="white" stroke-width="1.5" d="M0,-3.0v7 M-2.5,-0.5L0,-3.0L2.5,-0.5"/>
  </g>
  <g id="resetDef">
    <use xlink:href="#rim2" fill="#404040"><set attributeName="fill" to="#808080" begin="reset.mouseover" end="reset.mouseout"/></use>
  </g>
</defs>
<script type="application/ecmascript">
var viewWidth = 294;
var viewHeight = 472;
var sectionId = 'dynsection-0';
</script>
<script type="application/ecmascript" xlink:href="../../svg.min.js"/>
<svg id="graph" class="graph">
<g id="viewport">
<title>IEEE::_1588::PTP::_2019::Clocks::DefaultDataSet</title>
<!-- Node1 -->
<g id="Node000001" class="node">
<title>Node1</title>
<g id="a_Node000001"><a xlink:title="Default Data Set per IEEE 1588&#45;2019 Section 8.2.1.">
<polygon fill="#999999" stroke="transparent" points="239.5,-135 80.5,-135 80.5,0 239.5,0 239.5,-135"/>
<text text-anchor="start" x="86" y="-122.5" font-family="Helvetica,sans-Serif" font-size="10.00">IEEE::_1588::PTP::</text>
<text text-anchor="start" x="86" y="-111.5" font-family="Helvetica,sans-Serif" font-size="10.00">_2019::Clocks::DefaultDataSet</text>
<text text-anchor="start" x="100.5" y="-96.5" font-family="Helvetica,sans-Serif" font-size="10.00">+</text>
<text text-anchor="start" x="129" y="-96.5" font-family="Helvetica,sans-Serif" font-size="10.00">twoStepFlag</text>
<text text-anchor="start" x="100.5" y="-81.5" font-family="Helvetica,sans-Serif" font-size="10.00">+</text>
<text text-anchor="start" x="129" y="-81.5" font-family="Helvetica,sans-Serif" font-size="10.00">numberPorts</text>
<text text-anchor="start" x="100.5" y="-66.5" font-family="Helvetica,sans-Serif" font-size="10.00">+</text>
<text text-anchor="start" x="129" y="-66.5" font-family="Helvetica,sans-Serif" font-size="10.00">priority1</text>
<text text-anchor="start" x="100.5" y="-51.5" font-family="Helvetica,sans-Serif" font-size="10.00">+</text>
<text text-anchor="start" x="129" y="-51.5" font-family="Helvetica,sans-Serif" font-size="10.00">priority2</text>
<text text-anchor="start" x="100.5" y="-36.5" font-family="Helvetica,sans-Serif" font-size="10.00">+</text>
<text text-anchor="start" x="129" y="-36.5" font-family="Helvetica,sans-Serif" font-size="10.00">domainNumber</text>
<text text-anchor="start" x="100.5" y="-21.5" font-family="Helvetica,sans-Serif" font-size="10.00">+</text>
<text text-anchor="start" x="129" y="-21.5" font-family="Helvetica,sans-Serif" font-size="10.00">slaveOnly</text>
<text text-anchor="start" x="158.5" y="-6.5" font-family="Helvetica,sans-Serif" font-size="10.00"> </text>
<polygon fill="#666666" stroke="#666666" points="81,-106.5 81,-106.5 240,-106.5 240,-106.5 81,-106.5"/>
<polygon fill="#666666" stroke="#666666" points="81,-16.5 81,-16.5 127,-16.5 127,-16.5 81,-16.5"/>
<polygon fill="#666666" stroke="#666666" points="127,-16.5 127,-16.5 240,-16.5 240,-16.5 127,-16.5"/>
<polygon fill="none" stroke="#666666" points="80.5,0 80.5,-135 239.5,-135 239.5,0 80.5,0"/>
</a>
</g>
</g>
<!-- Node2 -->
<g id="Node000002" class="node">
<title>Node2</title>
<g id="a_Node000002"><a xlink:title=" ">
<polygon fill="white" stroke="transparent" points="114,-257 0,-257 0,-197 114,-197 114,-257"/>
<text text-anchor="start" x="5" y="-245" font-family="Helvetica,sans-Serif" font-size="10.00">std::array&lt; std::uint8</text>
<text text-anchor="start" x="40.5" y="-234" font-family="Helvetica,sans-Serif" font-size="10.00">_t, 8 &gt;</text>
<text text-anchor="start" x="15.5" y="-219" font-family="Helvetica,sans-Serif" font-size="10.00">+</text>
<text text-anchor="start" x="40" y="-219" font-family="Helvetica,sans-Serif" font-size="10.00">elements</text>
<text text-anchor="start" x="55" y="-204" font-family="Helvetica,sans-Serif" font-size="10.00"> </text>
<polygon fill="#666666" stroke="#666666" points="0,-229 0,-229 114,-229 114,-229 0,-229"/>
<polygon fill="#666666" stroke="#666666" points="0,-214 0,-214 38,-214 38,-214 0,-214"/>
<polygon fill="#666666" stroke="#666666" points="38,-214 38,-214 114,-214 114,-214 38,-214"/>
<polygon fill="none" stroke="#666666" points="0,-197 0,-257 114,-257 114,-197 0,-197"/>
</a>
</g>
</g>
<!-- Node2&#45;&gt;Node1 -->
<g id="edge1_Node000001_Node000002" class="edge">
<title>Node2&#45;&gt;Node1</title>
<g id="a_edge1_Node000001_Node000002"><a xlink:title=" ">
<path fill="none" stroke="#63b8ff" d="M76.13,-196.74C85.7,-182.11 97.78,-163.63 109.77,-145.3"/>
<polygon fill="none" stroke="#63b8ff" points="109.84,-145.2 109.78,-137.99 116.41,-135.16 116.47,-142.37 109.84,-145.2"/>
</a>
</g>
<text text-anchor="middle" x="140.5" y="-156" font-family="Helvetica,sans-Serif" font-size="10.00" fill="grey"> +clockIdentity</text>
</g>
<!-- Node3 -->
<g id="Node000003" class="node">
<title>Node3</title>
<g id="a_Node000003"><a xlink:title=" ">
<polygon fill="white" stroke="transparent" points="100,-368 14,-368 14,-319 100,-319 100,-368"/>
<text text-anchor="start" x="19" y="-355.5" font-family="Helvetica,sans-Serif" font-size="10.00">std::array&lt; T &gt;</text>
<text text-anchor="start" x="55" y="-340.5" font-family="Helvetica,sans-Serif" font-size="10.00"> </text>
<text text-anchor="start" x="55" y="-325.5" font-family="Helvetica,sans-Serif" font-size="10.00"> </text>
<polygon fill="#666666" stroke="#666666" points="14,-350.5 14,-350.5 100,-350.5 100,-350.5 14,-350.5"/>
<polygon fill="#666666" stroke="#666666" points="14,-335.5 14,-335.5 100,-335.5 100,-335.5 14,-335.5"/>
<polygon fill="none" stroke="#666666" points="14,-319 14,-368 100,-368 100,-319 14,-319"/>
</a>
</g>
</g>
<!-- Node3&#45;&gt;Node2 -->
<g id="edge2_Node000002_Node000003" class="edge">
<title>Node3&#45;&gt;Node2</title>
<g id="a_edge2_Node000002_Node000003"><a xlink:title=" ">
<path fill="none" stroke="orange" d="M57,-308.59C57,-292.33 57,-273.03 57,-257.39"/>
<polygon fill="orange" stroke="orange" points="53.5,-308.78 57,-318.78 60.5,-308.78 53.5,-308.78"/>
</a>
</g>
<text text-anchor="middle" x="103.5" y="-293" font-family="Helvetica,sans-Serif" font-size="10.00" fill="grey"> &lt; std::uint8_t, 8 &gt;</text>
</g>
<!-- Node4 -->
<g id="Node000004" class="node">
<title>Node4</title>
<g id="a_Node000004"><a xlink:title=" ">
<polygon fill="white" stroke="transparent" points="65.5,-464 48.5,-464 48.5,-415 65.5,-415 65.5,-464"/>
<text text-anchor="start" x="54" y="-451.5" font-family="Helvetica,sans-Serif" font-size="10.00">T</text>
<text text-anchor="start" x="55.5" y="-436.5" font-family="Helvetica,sans-Serif" font-size="10.00"> </text>
<text text-anchor="start" x="55.5" y="-421.5" font-family="Helvetica,sans-Serif" font-size="10.00"> </text>
<polygon fill="#666666" stroke="#666666" points="49,-446.5 49,-446.5 66,-446.5 66,-446.5 49,-446.5"/>
<polygon fill="#666666" stroke="#666666" points="49,-431.5 49,-431.5 66,-431.5 66,-431.5 49,-431.5"/>
<polygon fill="none" stroke="#666666" points="48.5,-415 48.5,-464 65.5,-464 65.5,-415 48.5,-415"/>
</a>
</g>
</g>
<!-- Node4&#45;&gt;Node3 -->
<g id="edge3_Node000003_Node000004" class="edge">
<title>Node4&#45;&gt;Node3</title>
<g id="a_edge3_Node000003_Node000004"><a xlink:title=" ">
<path fill="none" stroke="#63b8ff" d="M57,-414.78C57,-404.32 57,-391.79 57,-380.23"/>
<polygon fill="none" stroke="#63b8ff" points="57,-380.21 53,-374.21 57,-368.21 61,-374.21 57,-380.21"/>
</a>
</g>
<text text-anchor="middle" x="86" y="-389" font-family="Helvetica,sans-Serif" font-size="10.00" fill="grey"> +elements</text>
</g>
<!-- Node5 -->
<g id="Node000005" class="node">
<title>Node5</title>
<g id="a_Node000005"><a xlink:href="../../de/da1/structIEEE_1_1__1588_1_1PTP_1_1__2019_1_1Types_1_1ClockQuality.html" target="_top" xlink:title="Clock Quality &#45; describes the quality of a clock.">
<polygon fill="white" stroke="transparent" points="286,-272 132,-272 132,-182 286,-182 286,-272"/>
<text text-anchor="start" x="143" y="-260" font-family="Helvetica,sans-Serif" font-size="10.00">IEEE::_1588::PTP::</text>
<text text-anchor="start" x="143" y="-249" font-family="Helvetica,sans-Serif" font-size="10.00">_2019::Types::ClockQuality</text>
<text text-anchor="start" x="136" y="-234" font-family="Helvetica,sans-Serif" font-size="10.00">+</text>
<text text-anchor="start" x="149" y="-234" font-family="Helvetica,sans-Serif" font-size="10.00">clock_class</text>
<text text-anchor="start" x="136" y="-219" font-family="Helvetica,sans-Serif" font-size="10.00">+</text>
<text text-anchor="start" x="149" y="-219" font-family="Helvetica,sans-Serif" font-size="10.00">clock_accuracy</text>
<text text-anchor="start" x="136" y="-204" font-family="Helvetica,sans-Serif" font-size="10.00">+</text>
<text text-anchor="start" x="149" y="-204" font-family="Helvetica,sans-Serif" font-size="10.00">offset_scaled_log_variance</text>
<text text-anchor="start" x="207" y="-189" font-family="Helvetica,sans-Serif" font-size="10.00"> </text>
<polygon fill="#666666" stroke="#666666" points="132,-244 132,-244 286,-244 286,-244 132,-244"/>
<polygon fill="#666666" stroke="#666666" points="132,-199 132,-199 147,-199 147,-199 132,-199"/>
<polygon fill="#666666" stroke="#666666" points="147,-199 147,-199 286,-199 286,-199 147,-199"/>
<polygon fill="none" stroke="#666666" points="132,-182 132,-272 286,-272 286,-182 132,-182"/>
</a>
</g>
</g>
<!-- Node5&#45;&gt;Node1 -->
<g id="edge4_Node000001_Node000005" class="edge">
<title>Node5&#45;&gt;Node1</title>
<g id="a_edge4_Node000001_Node000005"><a xlink:title=" ">
<path fill="none" stroke="#63b8ff" d="M195.22,-181.71C191.81,-170.75 188.05,-158.67 184.3,-146.62"/>
<polygon fill="none" stroke="#63b8ff" points="184.29,-146.56 178.68,-142.02 180.72,-135.11 186.32,-139.65 184.29,-146.56"/>
</a>
</g>
<text text-anchor="middle" x="224.5" y="-156" font-family="Helvetica,sans-Serif" font-size="10.00" fill="grey"> +clockQuality</text>
</g>
</g>
</svg>

<g id="navigator" transform="translate(0 0)" fill="#404254">
  <rect fill="#f2f5e9" fill-opacity="0.5" stroke="#606060" stroke-width=".5" x="0" y="0" width="60" height="60"/>
  <use id="zoomplus" xlink:href="#zoomPlus" x="17" y="9" onmousedown="handleZoom(evt,'in')"/>
  <use id="zoomminus" xlink:href="#zoomMin" x="42" y="9" onmousedown="handleZoom(evt,'out')"/>
  <use id="reset" xlink:href="#resetDef" x="30" y="36" onmousedown="handleReset()"/>
   <use id="arrowup" xlink:href="#arrowUp" x="0" y="0" onmousedown="handlePan(0,-1)"/>
  <use id="arrowright" xlink:href="#arrowRight" x="0" y="0" onmousedown="handlePan(1,0)"/>
  <use id="arrowdown" xlink:href="#arrowDown" x="0" y="0" onmousedown="handlePan(0,1)"/>
  <use id="arrowleft" xlink:href="#arrowLeft" x="0" y="0" onmousedown="handlePan(-1,0)"/>
</g>
<svg viewBox="0 0 15 15" width="100%" height="30px" preserveAspectRatio="xMaxYMin meet">
 <g id="arrow_out" transform="scale(0.3 0.3)">
  <a xlink:href="structIEEE_1_1__1588_1_1PTP_1_1__2019_1_1Clocks_1_1DefaultDataSet__coll__graph_org.svg" target="_base">
   <rect id="button" ry="5" rx="5" y="6" x="6" height="38" width="38"
        fill="#f2f5e9" fill-opacity="0.5" stroke="#606060" stroke-width="1.0"/>
   <path id="arrow"
     d="M 11.500037,31.436501 C 11.940474,20.09759 22.043105,11.32322 32.158766,21.979434 L 37.068811,17.246167 C 37.068811,17.246167 37.088388,32 37.088388,32 L 22.160133,31.978069 C 22.160133,31.978069 26.997745,27.140456 26.997745,27.140456 C 18.528582,18.264221 13.291696,25.230495 11.500037,31.436501 z"
     style="fill:#404040;"/>
  </a>
 </g>
</svg>

<style type='text/css'>
<![CDATA[
[data-mouse-over-selected='false'] { opacity: 0.7; }
[data-mouse-over-selected='true']  { opacity: 1.0; }
]]>
</style>
<script type="application/ecmascript"><![CDATA[
document.addEventListener('DOMContentLoaded', (event) => {
  highlightEdges();
  highlightAdjacentNodes();
});
]]></script>
</svg>
