<?xml version="1.0" encoding="UTF-8" standalone="no"?>
<!DOCTYPE svg PUBLIC "-//W3C//DTD SVG 1.1//EN"
 "http://www.w3.org/Graphics/SVG/1.1/DTD/svg11.dtd">
<!-- Generated by graphviz version 2.43.0 (0)
 -->
<!-- Title: Common::utils::config::rounding_compensation_flag Pages: 1 -->
<svg width="571pt" height="108pt"
 viewBox="0.00 0.00 571.00 108.00" xmlns="http://www.w3.org/2000/svg" xmlns:xlink="http://www.w3.org/1999/xlink">
<g id="graph0" class="graph" transform="scale(1 1) rotate(0) translate(4 104)">
<title>Common::utils::config::rounding_compensation_flag</title>
<!-- Node1 -->
<g id="Node000001" class="node">
<title>Node1</title>
<g id="a_Node000001"><a xlink:title=" ">
<polygon fill="#999999" stroke="#666666" points="563,-64.5 400,-64.5 400,-34.5 563,-34.5 563,-64.5"/>
<text text-anchor="start" x="408" y="-52.5" font-family="Helvetica,sans-Serif" font-size="10.00">Common::utils::config</text>
<text text-anchor="middle" x="481.5" y="-41.5" font-family="Helvetica,sans-Serif" font-size="10.00">::rounding_compensation_flag</text>
</a>
</g>
</g>
<!-- Node2 -->
<g id="Node000002" class="node">
<title>Node2</title>
<g id="a_Node000002"><a xlink:href="../../d6/d47/namespaceCommon_1_1utils_1_1config.html#a4104eaaedd5621f36f75fb32b41199e6" target="_top" xlink:title=" ">
<polygon fill="white" stroke="#666666" points="360.5,-100 207.5,-100 207.5,-59 360.5,-59 360.5,-100"/>
<text text-anchor="start" x="215.5" y="-88" font-family="Helvetica,sans-Serif" font-size="10.00">Common::utils::config</text>
<text text-anchor="start" x="215.5" y="-77" font-family="Helvetica,sans-Serif" font-size="10.00">::is_rounding_compensation</text>
<text text-anchor="middle" x="284" y="-66" font-family="Helvetica,sans-Serif" font-size="10.00">_enabled</text>
</a>
</g>
</g>
<!-- Node1&#45;&gt;Node2 -->
<g id="edge1_Node000001_Node000002" class="edge">
<title>Node1&#45;&gt;Node2</title>
<g id="a_edge1_Node000001_Node000002"><a xlink:title=" ">
<path fill="none" stroke="#63b8ff" d="M389.78,-63.42C380.07,-64.91 370.26,-66.42 360.75,-67.88"/>
<polygon fill="#63b8ff" stroke="#63b8ff" points="390.5,-66.85 399.85,-61.88 389.44,-59.93 390.5,-66.85"/>
</a>
</g>
</g>
<!-- Node4 -->
<g id="Node000004" class="node">
<title>Node4</title>
<g id="a_Node000004"><a xlink:href="../../d6/d47/namespaceCommon_1_1utils_1_1config.html#af2472dfffa9ac8d457f04a24fbef3f97" target="_top" xlink:title=" ">
<polygon fill="white" stroke="#666666" points="364,-41 204,-41 204,0 364,0 364,-41"/>
<text text-anchor="start" x="212" y="-29" font-family="Helvetica,sans-Serif" font-size="10.00">Common::utils::config</text>
<text text-anchor="start" x="212" y="-18" font-family="Helvetica,sans-Serif" font-size="10.00">::set_rounding_compensation</text>
<text text-anchor="middle" x="284" y="-7" font-family="Helvetica,sans-Serif" font-size="10.00">_enabled</text>
</a>
</g>
</g>
<!-- Node1&#45;&gt;Node4 -->
<g id="edge3_Node000001_Node000004" class="edge">
<title>Node1&#45;&gt;Node4</title>
<g id="a_edge3_Node000001_Node000004"><a xlink:title=" ">
<path fill="none" stroke="#63b8ff" d="M389.85,-36.05C381.28,-34.78 372.65,-33.5 364.2,-32.25"/>
<polygon fill="#63b8ff" stroke="#63b8ff" points="389.45,-39.53 399.85,-37.54 390.48,-32.61 389.45,-39.53"/>
</a>
</g>
</g>
<!-- Node3 -->
<g id="Node000003" class="node">
<title>Node3</title>
<g id="a_Node000003"><a xlink:href="../../d3/d0d/structIEEE_1_1__1588_1_1PTP_1_1__2019_1_1Clocks_1_1SynchronizationData.html#a678490ba0932bf8bcdbe56c5b278e48f" target="_top" xlink:title="Calculate offset from master using timestamps.">
<polygon fill="white" stroke="#666666" points="168,-100 0,-100 0,-59 168,-59 168,-100"/>
<text text-anchor="start" x="8" y="-88" font-family="Helvetica,sans-Serif" font-size="10.00">IEEE::_1588::PTP::</text>
<text text-anchor="start" x="8" y="-77" font-family="Helvetica,sans-Serif" font-size="10.00">_2019::Clocks::Synchronization</text>
<text text-anchor="middle" x="84" y="-66" font-family="Helvetica,sans-Serif" font-size="10.00">Data::calculateOffset</text>
</a>
</g>
</g>
<!-- Node2&#45;&gt;Node3 -->
<g id="edge2_Node000002_Node000003" class="edge">
<title>Node2&#45;&gt;Node3</title>
<g id="a_edge2_Node000002_Node000003"><a xlink:title=" ">
<path fill="none" stroke="#63b8ff" d="M197.02,-79.5C187.47,-79.5 177.76,-79.5 168.25,-79.5"/>
<polygon fill="#63b8ff" stroke="#63b8ff" points="197.3,-83 207.3,-79.5 197.3,-76 197.3,-83"/>
</a>
</g>
</g>
</g>
</svg>
