<?xml version="1.0" encoding="UTF-8" standalone="no"?>
<!DOCTYPE svg PUBLIC "-//W3C//DTD SVG 1.1//EN"
 "http://www.w3.org/Graphics/SVG/1.1/DTD/svg11.dtd">
<!-- Generated by graphviz version 2.43.0 (0)
 -->
<!-- Title: IEEE::_1588::PTP::_2019::Clocks::PortStatistics::reset Pages: 1 -->
<svg width="519pt" height="108pt"
 viewBox="0.00 0.00 519.00 108.00" xmlns="http://www.w3.org/2000/svg" xmlns:xlink="http://www.w3.org/1999/xlink">
<g id="graph0" class="graph" transform="scale(1 1) rotate(0) translate(4 104)">
<title>IEEE::_1588::PTP::_2019::Clocks::PortStatistics::reset</title>
<!-- Node1 -->
<g id="Node000001" class="node">
<title>Node1</title>
<g id="a_Node000001"><a xlink:title="Reset all counters to zero.">
<polygon fill="#999999" stroke="#666666" points="511,-70 356,-70 356,-29 511,-29 511,-70"/>
<text text-anchor="start" x="364" y="-58" font-family="Helvetica,sans-Serif" font-size="10.00">IEEE::_1588::PTP::</text>
<text text-anchor="start" x="364" y="-47" font-family="Helvetica,sans-Serif" font-size="10.00">_2019::Clocks::PortStatistics</text>
<text text-anchor="middle" x="433.5" y="-36" font-family="Helvetica,sans-Serif" font-size="10.00">::reset</text>
</a>
</g>
</g>
<!-- Node2 -->
<g id="Node000002" class="node">
<title>Node2</title>
<g id="a_Node000002"><a xlink:href="../../dd/d5b/classIEEE_1_1__1588_1_1PTP_1_1__2019_1_1Clocks_1_1PtpPort.html#a482742ee94b858b3d99ba6fb31a83592" target="_top" xlink:title="Clear all statistics counters.">
<polygon fill="white" stroke="#666666" points="320,-100 195,-100 195,-59 320,-59 320,-100"/>
<text text-anchor="start" x="203" y="-88" font-family="Helvetica,sans-Serif" font-size="10.00">IEEE::_1588::PTP::</text>
<text text-anchor="start" x="203" y="-77" font-family="Helvetica,sans-Serif" font-size="10.00">_2019::Clocks::PtpPort</text>
<text text-anchor="middle" x="257.5" y="-66" font-family="Helvetica,sans-Serif" font-size="10.00">::clear_statistics</text>
</a>
</g>
</g>
<!-- Node1&#45;&gt;Node2 -->
<g id="edge1_Node000001_Node000002" class="edge">
<title>Node1&#45;&gt;Node2</title>
<g id="a_edge1_Node000001_Node000002"><a xlink:title=" ">
<path fill="none" stroke="#63b8ff" d="M345.81,-64.45C337.17,-65.94 328.52,-67.43 320.22,-68.86"/>
<polygon fill="#63b8ff" stroke="#63b8ff" points="346.67,-67.85 355.93,-62.7 345.48,-60.95 346.67,-67.85"/>
</a>
</g>
</g>
<!-- Node3 -->
<g id="Node000003" class="node">
<title>Node3</title>
<g id="a_Node000003"><a xlink:href="../../dd/d5b/classIEEE_1_1__1588_1_1PTP_1_1__2019_1_1Clocks_1_1PtpPort.html#add8c9fc3127416e3956871825e1c4688" target="_top" xlink:title="Initialize port state machine.">
<polygon fill="white" stroke="#666666" points="320,-41 195,-41 195,0 320,0 320,-41"/>
<text text-anchor="start" x="203" y="-29" font-family="Helvetica,sans-Serif" font-size="10.00">IEEE::_1588::PTP::</text>
<text text-anchor="start" x="203" y="-18" font-family="Helvetica,sans-Serif" font-size="10.00">_2019::Clocks::PtpPort</text>
<text text-anchor="middle" x="257.5" y="-7" font-family="Helvetica,sans-Serif" font-size="10.00">::initialize</text>
</a>
</g>
</g>
<!-- Node1&#45;&gt;Node3 -->
<g id="edge2_Node000001_Node000003" class="edge">
<title>Node1&#45;&gt;Node3</title>
<g id="a_edge2_Node000001_Node000003"><a xlink:title=" ">
<path fill="none" stroke="#63b8ff" d="M345.81,-35.05C337.17,-33.61 328.52,-32.17 320.22,-30.79"/>
<polygon fill="#63b8ff" stroke="#63b8ff" points="345.49,-38.55 355.93,-36.74 346.64,-31.64 345.49,-38.55"/>
</a>
</g>
</g>
<!-- Node4 -->
<g id="Node000004" class="node">
<title>Node4</title>
<g id="a_Node000004"><a xlink:href="../../dc/dd4/classIEEE_1_1__1588_1_1PTP_1_1__2019_1_1Clocks_1_1OrdinaryClock.html#a0d90618a621f585bd1340608e7738566" target="_top" xlink:title="Initialize ordinary clock.">
<polygon fill="white" stroke="#666666" points="159,-41 0,-41 0,0 159,0 159,-41"/>
<text text-anchor="start" x="8" y="-29" font-family="Helvetica,sans-Serif" font-size="10.00">IEEE::_1588::PTP::</text>
<text text-anchor="start" x="8" y="-18" font-family="Helvetica,sans-Serif" font-size="10.00">_2019::Clocks::OrdinaryClock</text>
<text text-anchor="middle" x="79.5" y="-7" font-family="Helvetica,sans-Serif" font-size="10.00">::initialize</text>
</a>
</g>
</g>
<!-- Node3&#45;&gt;Node4 -->
<g id="edge3_Node000003_Node000004" class="edge">
<title>Node3&#45;&gt;Node4</title>
<g id="a_edge3_Node000003_Node000004"><a xlink:title=" ">
<path fill="none" stroke="#63b8ff" d="M184.74,-20.5C176.27,-20.5 167.59,-20.5 159.04,-20.5"/>
<polygon fill="#63b8ff" stroke="#63b8ff" points="184.94,-24 194.94,-20.5 184.94,-17 184.94,-24"/>
</a>
</g>
</g>
</g>
</svg>
