<?xml version="1.0" encoding="UTF-8" standalone="no"?>
<!DOCTYPE svg PUBLIC "-//W3C//DTD SVG 1.1//EN"
 "http://www.w3.org/Graphics/SVG/1.1/DTD/svg11.dtd">
<!-- Generated by graphviz version 2.43.0 (0)
 -->
<!-- Title: Common::utils::fi::reset Pages: 1 -->
<svg width="283pt" height="206pt"
 viewBox="0.00 0.00 283.00 205.50" xmlns="http://www.w3.org/2000/svg" xmlns:xlink="http://www.w3.org/1999/xlink">
<g id="graph0" class="graph" transform="scale(1 1) rotate(0) translate(4 201.5)">
<title>Common::utils::fi::reset</title>
<!-- Node1 -->
<g id="Node000001" class="node">
<title>Node1</title>
<g id="a_Node000001"><a xlink:title=" ">
<polygon fill="#999999" stroke="#666666" points="106,-111 0,-111 0,-81 106,-81 106,-111"/>
<text text-anchor="start" x="8" y="-99" font-family="Helvetica,sans-Serif" font-size="10.00">Common::utils::fi::</text>
<text text-anchor="middle" x="53" y="-88" font-family="Helvetica,sans-Serif" font-size="10.00">reset</text>
</a>
</g>
</g>
<!-- Node2 -->
<g id="Node000002" class="node">
<title>Node2</title>
<g id="a_Node000002"><a xlink:href="../../df/d79/namespaceCommon_1_1utils_1_1fi_1_1detail.html#af929e4de65b53a036c70751ab7c8eeba" target="_top" xlink:title=" ">
<polygon fill="white" stroke="#666666" points="274,-197.5 143,-197.5 143,-156.5 274,-156.5 274,-197.5"/>
<text text-anchor="start" x="151" y="-185.5" font-family="Helvetica,sans-Serif" font-size="10.00">Common::utils::fi::</text>
<text text-anchor="start" x="151" y="-174.5" font-family="Helvetica,sans-Serif" font-size="10.00">detail::bmca_tie_forced</text>
<text text-anchor="middle" x="208.5" y="-163.5" font-family="Helvetica,sans-Serif" font-size="10.00">_observed</text>
</a>
</g>
</g>
<!-- Node1&#45;&gt;Node2 -->
<g id="edge1_Node000001_Node000002" class="edge">
<title>Node1&#45;&gt;Node2</title>
<g id="a_edge1_Node000001_Node000002"><a xlink:title=" ">
<path fill="none" stroke="#63b8ff" d="M78.68,-111.15C96.13,-121.66 120.2,-135.72 142,-147 145.25,-148.68 148.6,-150.37 152.01,-152.04"/>
<polygon fill="#63b8ff" stroke="#63b8ff" points="150.54,-155.22 161.07,-156.4 153.58,-148.91 150.54,-155.22"/>
</a>
</g>
</g>
<!-- Node3 -->
<g id="Node000003" class="node">
<title>Node3</title>
<g id="a_Node000003"><a xlink:href="../../df/d79/namespaceCommon_1_1utils_1_1fi_1_1detail.html#a93d58450db4006503d3b7f709db231d5" target="_top" xlink:title=" ">
<polygon fill="white" stroke="#666666" points="275,-138 142,-138 142,-108 275,-108 275,-138"/>
<text text-anchor="start" x="150" y="-126" font-family="Helvetica,sans-Serif" font-size="10.00">Common::utils::fi::</text>
<text text-anchor="middle" x="208.5" y="-115" font-family="Helvetica,sans-Serif" font-size="10.00">detail::bmca_tie_tokens</text>
</a>
</g>
</g>
<!-- Node1&#45;&gt;Node3 -->
<g id="edge2_Node000001_Node000003" class="edge">
<title>Node1&#45;&gt;Node3</title>
<g id="a_edge2_Node000001_Node000003"><a xlink:title=" ">
<path fill="none" stroke="#63b8ff" d="M106.4,-105.22C114.57,-106.65 123.16,-108.17 131.74,-109.67"/>
<polygon fill="#63b8ff" stroke="#63b8ff" points="131.31,-113.15 141.77,-111.44 132.52,-106.26 131.31,-113.15"/>
</a>
</g>
</g>
<!-- Node4 -->
<g id="Node000004" class="node">
<title>Node4</title>
<g id="a_Node000004"><a xlink:href="../../df/d79/namespaceCommon_1_1utils_1_1fi_1_1detail.html#ab2140c4babb8f3b7306403e77d17d29f" target="_top" xlink:title=" ">
<polygon fill="white" stroke="#666666" points="262,-89.5 155,-89.5 155,-48.5 262,-48.5 262,-89.5"/>
<text text-anchor="start" x="163" y="-77.5" font-family="Helvetica,sans-Serif" font-size="10.00">Common::utils::fi::</text>
<text text-anchor="start" x="163" y="-66.5" font-family="Helvetica,sans-Serif" font-size="10.00">detail::offset_jitter</text>
<text text-anchor="middle" x="208.5" y="-55.5" font-family="Helvetica,sans-Serif" font-size="10.00">_enabled</text>
</a>
</g>
</g>
<!-- Node1&#45;&gt;Node4 -->
<g id="edge3_Node000001_Node000004" class="edge">
<title>Node1&#45;&gt;Node4</title>
<g id="a_edge3_Node000001_Node000004"><a xlink:title=" ">
<path fill="none" stroke="#63b8ff" d="M106.4,-86.78C118.73,-84.61 132,-82.28 144.74,-80.04"/>
<polygon fill="#63b8ff" stroke="#63b8ff" points="145.58,-83.45 154.82,-78.27 144.36,-76.55 145.58,-83.45"/>
</a>
</g>
</g>
<!-- Node5 -->
<g id="Node000005" class="node">
<title>Node5</title>
<g id="a_Node000005"><a xlink:href="../../df/d79/namespaceCommon_1_1utils_1_1fi_1_1detail.html#a1f0f6dafbdaac4f0597d7e453846a1b1" target="_top" xlink:title=" ">
<polygon fill="white" stroke="#666666" points="270,-30 147,-30 147,0 270,0 270,-30"/>
<text text-anchor="start" x="155" y="-18" font-family="Helvetica,sans-Serif" font-size="10.00">Common::utils::fi::</text>
<text text-anchor="middle" x="208.5" y="-7" font-family="Helvetica,sans-Serif" font-size="10.00">detail::offset_jitter_ns</text>
</a>
</g>
</g>
<!-- Node1&#45;&gt;Node5 -->
<g id="edge4_Node000001_Node000005" class="edge">
<title>Node1&#45;&gt;Node5</title>
<g id="a_edge4_Node000001_Node000005"><a xlink:title=" ">
<path fill="none" stroke="#63b8ff" d="M74.99,-80.93C92.38,-68.87 118.05,-52.03 142,-40 146.2,-37.89 150.62,-35.85 155.1,-33.9"/>
<polygon fill="#63b8ff" stroke="#63b8ff" points="156.45,-37.13 164.33,-30.05 153.75,-30.67 156.45,-37.13"/>
</a>
</g>
</g>
</g>
</svg>
