<?xml version="1.0" encoding="UTF-8" standalone="no"?>
<!DOCTYPE svg PUBLIC "-//W3C//DTD SVG 1.1//EN"
 "http://www.w3.org/Graphics/SVG/1.1/DTD/svg11.dtd">
<!-- Generated by graphviz version 2.43.0 (0)
 -->
<!-- Title: Common::utils::health::detail::last_offset_ns Pages: 1 -->
<!--zoomable 98 -->

<svg id="main" version="1.1" xmlns="http://www.w3.org/2000/svg" xmlns:xlink="http://www.w3.org/1999/xlink" xml:space="preserve" onload="init(evt)">
<style type="text/css"><![CDATA[
.node, .edge {opacity: 0.7;}
.node.selected, .edge.selected {opacity: 1;}
.edge:hover path { stroke: red; }
.edge:hover polygon { stroke: red; fill: red; }
]]></style>

<defs>
  <circle id="rim" cx="0" cy="0" r="7"/>
  <circle id="rim2" cx="0" cy="0" r="3.5"/>
  <g id="zoomPlus">
    <use xlink:href="#rim" fill="#404040"><set attributeName="fill" to="#808080" begin="zoomplus.mouseover" end="zoomplus.mouseout"/></use>
    <path d="M-4,0h8M0,-4v8" fill="none" stroke="white" stroke-width="1.5" pointer-events="none"/>
  </g>
  <g id="zoomMin">
    <use xlink:href="#rim" fill="#404040"><set attributeName="fill" to="#808080" begin="zoomminus.mouseover" end="zoomminus.mouseout"/></use>
    <path d="M-4,0h8" fill="none" stroke="white" stroke-width="1.5" pointer-events="none"/>
  </g>
  <g id="arrowUp" transform="translate(30 24)">
    <use xlink:href="#rim"/>
    <path pointer-events="none" fill="none" stroke="white" stroke-width="1.5" d="M0,-3.0v7 M-2.5,-0.5L0,-3.0L2.5,-0.5"/>
  </g>
  <g id="arrowRight" transform="rotate(90) translate(36 -43)">
    <use xlink:href="#rim"/>
    <path pointer-events="none" fill="none" stroke="white" stroke-width="1.5" d="M0,-3.0v7 M-2.5,-0.5L0,-3.0L2.5,-0.5"/>
  </g>
  <g id="arrowDown" transform="rotate(180) translate(-30 -48)">
    <use xlink:href="#rim"/>
    <path pointer-events="none" fill="none" stroke="white" stroke-width="1.5" d="M0,-3.0v7 M-2.5,-0.5L0,-3.0L2.5,-0.5"/>
  </g>
  <g id="arrowLeft" transform="rotate(270) translate(-36 17)">
    <use xlink:href="#rim"/>
    <path pointer-events="none" fill="none" stroke="white" stroke-width="1.5" d="M0,-3.0v7 M-2.5,-0.5L0,-3.0L2.5,-0.5"/>
  </g>
  <g id="resetDef">
    <use xlink:href="#rim2" fill="#404040"><set attributeName="fill" to="#808080" begin="reset.mouseover" end="reset.mouseout"/></use>
  </g>
</defs>
<script type="application/ecmascript">
var viewWidth = 659;
var viewHeight = 98;
var sectionId = 'dynsection-2';
</script>
<script type="application/ecmascript" xlink:href="../../svg.min.js"/>
<svg id="graph" class="graph">
<g id="viewport">
<title>Common::utils::health::detail::last_offset_ns</title>
<!-- Node1 -->
<g id="Node000001" class="node">
<title>Node1</title>
<g id="a_Node000001"><a xlink:title=" ">
<polygon fill="#999999" stroke="#666666" points="651,-59 526,-59 526,-29 651,-29 651,-59"/>
<text text-anchor="start" x="534" y="-47" font-family="Helvetica,sans-Serif" font-size="10.00">Common::utils::health</text>
<text text-anchor="middle" x="588.5" y="-36" font-family="Helvetica,sans-Serif" font-size="10.00">::detail::last_offset_ns</text>
</a>
</g>
</g>
<!-- Node2 -->
<g id="Node000002" class="node">
<title>Node2</title>
<g id="a_Node000002"><a xlink:href="../../d2/d0d/namespaceCommon_1_1utils_1_1health.html#af3d82132a2848a060a48ea17cd3e3c74" target="_top" xlink:title=" ">
<polygon fill="white" stroke="#666666" points="329,-84 204,-84 204,-54 329,-54 329,-84"/>
<text text-anchor="start" x="212" y="-72" font-family="Helvetica,sans-Serif" font-size="10.00">Common::utils::health</text>
<text text-anchor="middle" x="266.5" y="-61" font-family="Helvetica,sans-Serif" font-size="10.00">::record_offset_ns</text>
</a>
</g>
</g>
<!-- Node1&#45;&gt;Node2 -->
<g id="edge1_Node000001_Node000002" class="edge">
<title>Node1&#45;&gt;Node2</title>
<g id="a_edge1_Node000001_Node000002"><a xlink:title=" ">
<path fill="none" stroke="#63b8ff" d="M515.57,-49.62C459.44,-54 382.3,-60.03 329.01,-64.19"/>
<polygon fill="#63b8ff" stroke="#63b8ff" points="516.1,-53.09 525.8,-48.82 515.56,-46.11 516.1,-53.09"/>
</a>
</g>
</g>
<!-- Node4 -->
<g id="Node000004" class="node">
<title>Node4</title>
<g id="a_Node000004"><a xlink:href="../../d2/d0d/namespaceCommon_1_1utils_1_1health.html#aec9746d507dc8131538845de04614675" target="_top" xlink:title=" ">
<polygon fill="white" stroke="#666666" points="490,-38 365,-38 365,-8 490,-8 490,-38"/>
<text text-anchor="start" x="373" y="-26" font-family="Helvetica,sans-Serif" font-size="10.00">Common::utils::health</text>
<text text-anchor="middle" x="427.5" y="-15" font-family="Helvetica,sans-Serif" font-size="10.00">::self_test</text>
</a>
</g>
</g>
<!-- Node1&#45;&gt;Node4 -->
<g id="edge3_Node000001_Node000004" class="edge">
<title>Node1&#45;&gt;Node4</title>
<g id="a_edge3_Node000001_Node000004"><a xlink:title=" ">
<path fill="none" stroke="#63b8ff" d="M515.41,-34.48C507.01,-33.37 498.5,-32.25 490.26,-31.16"/>
<polygon fill="#63b8ff" stroke="#63b8ff" points="515.2,-37.98 525.57,-35.82 516.12,-31.04 515.2,-37.98"/>
</a>
</g>
</g>
<!-- Node3 -->
<g id="Node000003" class="node">
<title>Node3</title>
<g id="a_Node000003"><a xlink:href="../../d3/d0d/structIEEE_1_1__1588_1_1PTP_1_1__2019_1_1Clocks_1_1SynchronizationData.html#a678490ba0932bf8bcdbe56c5b278e48f" target="_top" xlink:title="Calculate offset from master using timestamps.">
<polygon fill="white" stroke="#666666" points="168,-89.5 0,-89.5 0,-48.5 168,-48.5 168,-89.5"/>
<text text-anchor="start" x="8" y="-77.5" font-family="Helvetica,sans-Serif" font-size="10.00">IEEE::_1588::PTP::</text>
<text text-anchor="start" x="8" y="-66.5" font-family="Helvetica,sans-Serif" font-size="10.00">_2019::Clocks::Synchronization</text>
<text text-anchor="middle" x="84" y="-55.5" font-family="Helvetica,sans-Serif" font-size="10.00">Data::calculateOffset</text>
</a>
</g>
</g>
<!-- Node2&#45;&gt;Node3 -->
<g id="edge2_Node000002_Node000003" class="edge">
<title>Node2&#45;&gt;Node3</title>
<g id="a_edge2_Node000002_Node000003"><a xlink:title=" ">
<path fill="none" stroke="#63b8ff" d="M193.73,-69C185.29,-69 176.62,-69 168.04,-69"/>
<polygon fill="#63b8ff" stroke="#63b8ff" points="193.89,-72.5 203.89,-69 193.89,-65.5 193.89,-72.5"/>
</a>
</g>
</g>
<!-- Node5 -->
<g id="Node000005" class="node">
<title>Node5</title>
<g id="a_Node000005"><a xlink:href="../../d2/d0d/namespaceCommon_1_1utils_1_1health.html#a039bc597c3de1a97c0f78590dc2a51f8" target="_top" xlink:title=" ">
<polygon fill="white" stroke="#666666" points="329,-36 204,-36 204,-6 329,-6 329,-36"/>
<text text-anchor="start" x="212" y="-24" font-family="Helvetica,sans-Serif" font-size="10.00">Common::utils::health</text>
<text text-anchor="middle" x="266.5" y="-13" font-family="Helvetica,sans-Serif" font-size="10.00">::emit</text>
</a>
</g>
</g>
<!-- Node4&#45;&gt;Node5 -->
<g id="edge4_Node000004_Node000005" class="edge">
<title>Node4&#45;&gt;Node5</title>
<g id="a_edge4_Node000004_Node000005"><a xlink:title=" ">
<path fill="none" stroke="#63b8ff" d="M354.41,-22.09C346.01,-21.99 337.5,-21.88 329.26,-21.78"/>
<polygon fill="#63b8ff" stroke="#63b8ff" points="354.53,-25.59 364.57,-22.22 354.62,-18.6 354.53,-25.59"/>
</a>
</g>
</g>
<!-- Node5&#45;&gt;Node3 -->
<g id="edge5_Node000005_Node000003" class="edge">
<title>Node5&#45;&gt;Node3</title>
<g id="a_edge5_Node000005_Node000003"><a xlink:title=" ">
<path fill="none" stroke="#63b8ff" d="M199,-38.68C187.04,-41.86 174.48,-45.2 162.25,-48.46"/>
<polygon fill="#63b8ff" stroke="#63b8ff" points="200.12,-42.01 208.88,-36.06 198.32,-35.24 200.12,-42.01"/>
</a>
</g>
</g>
<!-- Node6 -->
<g id="Node000006" class="node">
<title>Node6</title>
<g id="a_Node000006"><a xlink:href="../../dd/d5b/classIEEE_1_1__1588_1_1PTP_1_1__2019_1_1Clocks_1_1PtpPort.html#a594179632de9591927ebe2d192e2288e" target="_top" xlink:title="Execute periodic state machine tasks.">
<polygon fill="white" stroke="#666666" points="158.5,-30 9.5,-30 9.5,0 158.5,0 158.5,-30"/>
<text text-anchor="start" x="17.5" y="-18" font-family="Helvetica,sans-Serif" font-size="10.00">IEEE::_1588::PTP::</text>
<text text-anchor="middle" x="84" y="-7" font-family="Helvetica,sans-Serif" font-size="10.00">_2019::Clocks::PtpPort::tick</text>
</a>
</g>
</g>
<!-- Node5&#45;&gt;Node6 -->
<g id="edge6_Node000005_Node000006" class="edge">
<title>Node5&#45;&gt;Node6</title>
<g id="a_edge6_Node000005_Node000006"><a xlink:title=" ">
<path fill="none" stroke="#63b8ff" d="M193.88,-18.62C182.35,-18.24 170.39,-17.84 158.8,-17.45"/>
<polygon fill="#63b8ff" stroke="#63b8ff" points="193.78,-22.12 203.89,-18.95 194.01,-15.12 193.78,-22.12"/>
</a>
</g>
</g>
</g>
</svg>

<g id="navigator" transform="translate(0 0)" fill="#404254">
  <rect fill="#f2f5e9" fill-opacity="0.5" stroke="#606060" stroke-width=".5" x="0" y="0" width="60" height="60"/>
  <use id="zoomplus" xlink:href="#zoomPlus" x="17" y="9" onmousedown="handleZoom(evt,'in')"/>
  <use id="zoomminus" xlink:href="#zoomMin" x="42" y="9" onmousedown="handleZoom(evt,'out')"/>
  <use id="reset" xlink:href="#resetDef" x="30" y="36" onmousedown="handleReset()"/>
   <use id="arrowup" xlink:href="#arrowUp" x="0" y="0" onmousedown="handlePan(0,-1)"/>
  <use id="arrowright" xlink:href="#arrowRight" x="0" y="0" onmousedown="handlePan(1,0)"/>
  <use id="arrowdown" xlink:href="#arrowDown" x="0" y="0" onmousedown="handlePan(0,1)"/>
  <use id="arrowleft" xlink:href="#arrowLeft" x="0" y="0" onmousedown="handlePan(-1,0)"/>
</g>
<svg viewBox="0 0 15 15" width="100%" height="30px" preserveAspectRatio="xMaxYMin meet">
 <g id="arrow_out" transform="scale(0.3 0.3)">
  <a xlink:href="namespaceCommon_1_1utils_1_1health_1_1detail_ae4b87c4bfd1a0f705bcf13248e6db814_icgraph_org.svg" target="_base">
   <rect id="button" ry="5" rx="5" y="6" x="6" height="38" width="38"
        fill="#f2f5e9" fill-opacity="0.5" stroke="#606060" stroke-width="1.0"/>
   <path id="arrow"
     d="M 11.500037,31.436501 C 11.940474,20.09759 22.043105,11.32322 32.158766,21.979434 L 37.068811,17.246167 C 37.068811,17.246167 37.088388,32 37.088388,32 L 22.160133,31.978069 C 22.160133,31.978069 26.997745,27.140456 26.997745,27.140456 C 18.528582,18.264221 13.291696,25.230495 11.500037,31.436501 z"
     style="fill:#404040;"/>
  </a>
 </g>
</svg>

<style type='text/css'>
<![CDATA[
[data-mouse-over-selected='false'] { opacity: 0.7; }
[data-mouse-over-selected='true']  { opacity: 1.0; }
]]>
</style>
<script type="application/ecmascript"><![CDATA[
document.addEventListener('DOMContentLoaded', (event) => {
  highlightEdges();
  highlightAdjacentNodes();
});
]]></script>
</svg>
