<?xml version="1.0" encoding="UTF-8" standalone="no"?>
<!DOCTYPE svg PUBLIC "-//W3C//DTD SVG 1.1//EN"
 "http://www.w3.org/Graphics/SVG/1.1/DTD/svg11.dtd">
<!-- Generated by graphviz version 2.43.0 (0)
 -->
<!-- Title: IEEE::_1588::PTP::_2019::SignalingMessageBody Pages: 1 -->
<svg width="186pt" height="504pt"
 viewBox="0.00 0.00 185.50 504.00" xmlns="http://www.w3.org/2000/svg" xmlns:xlink="http://www.w3.org/1999/xlink">
<g id="graph0" class="graph" transform="scale(1 1) rotate(0) translate(4 500)">
<title>IEEE::_1588::PTP::_2019::SignalingMessageBody</title>
<!-- Node1 -->
<g id="Node000001" class="node">
<title>Node1</title>
<g id="a_Node000001"><a xlink:title="Signaling Message Body (IEEE 1588&#45;2019 Section 13.10.2)">
<polygon fill="#999999" stroke="transparent" points="159,-60 0,-60 0,0 159,0 159,-60"/>
<text text-anchor="start" x="5.5" y="-48" font-family="Helvetica,sans-Serif" font-size="10.00">IEEE::_1588::PTP::</text>
<text text-anchor="start" x="5.5" y="-37" font-family="Helvetica,sans-Serif" font-size="10.00">_2019::SignalingMessageBody</text>
<text text-anchor="start" x="78" y="-22" font-family="Helvetica,sans-Serif" font-size="10.00"> </text>
<text text-anchor="start" x="27" y="-7" font-family="Helvetica,sans-Serif" font-size="10.00">+</text>
<text text-anchor="start" x="62.5" y="-7" font-family="Helvetica,sans-Serif" font-size="10.00">validate()</text>
<polygon fill="#666666" stroke="#666666" points="0.5,-32 0.5,-32 159.5,-32 159.5,-32 0.5,-32"/>
<polygon fill="#666666" stroke="#666666" points="0.5,-17 0.5,-17 159.5,-17 159.5,-17 0.5,-17"/>
<polygon fill="none" stroke="#666666" points="0,0 0,-60 159,-60 159,0 0,0"/>
</a>
</g>
</g>
<!-- Node2 -->
<g id="Node000002" class="node">
<title>Node2</title>
<g id="a_Node000002"><a xlink:href="../../dc/d02/structIEEE_1_1__1588_1_1PTP_1_1__2019_1_1Types_1_1PortIdentity.html" target="_top" xlink:title="Port Identity &#45; combination of clock identity and port number.">
<polygon fill="white" stroke="transparent" points="148,-197 11,-197 11,-107 148,-107 148,-197"/>
<text text-anchor="start" x="16.5" y="-185" font-family="Helvetica,sans-Serif" font-size="10.00">IEEE::_1588::PTP::</text>
<text text-anchor="start" x="16.5" y="-174" font-family="Helvetica,sans-Serif" font-size="10.00">_2019::Types::PortIdentity</text>
<text text-anchor="start" x="28" y="-159" font-family="Helvetica,sans-Serif" font-size="10.00">+</text>
<text text-anchor="start" x="53.5" y="-159" font-family="Helvetica,sans-Serif" font-size="10.00">port_number</text>
<text text-anchor="start" x="28" y="-144" font-family="Helvetica,sans-Serif" font-size="10.00">+</text>
<text text-anchor="start" x="53.5" y="-144" font-family="Helvetica,sans-Serif" font-size="10.00">operator==()</text>
<text text-anchor="start" x="28" y="-129" font-family="Helvetica,sans-Serif" font-size="10.00">+</text>
<text text-anchor="start" x="53.5" y="-129" font-family="Helvetica,sans-Serif" font-size="10.00">operator&lt;()</text>
<text text-anchor="start" x="28" y="-114" font-family="Helvetica,sans-Serif" font-size="10.00">+</text>
<text text-anchor="start" x="53.5" y="-114" font-family="Helvetica,sans-Serif" font-size="10.00">validate()</text>
<polygon fill="#666666" stroke="#666666" points="11.5,-169 11.5,-169 148.5,-169 148.5,-169 11.5,-169"/>
<polygon fill="#666666" stroke="#666666" points="11.5,-154 11.5,-154 51.5,-154 51.5,-154 11.5,-154"/>
<polygon fill="#666666" stroke="#666666" points="51.5,-154 51.5,-154 148.5,-154 148.5,-154 51.5,-154"/>
<polygon fill="none" stroke="#666666" points="11,-107 11,-197 148,-197 148,-107 11,-107"/>
</a>
</g>
</g>
<!-- Node2&#45;&gt;Node1 -->
<g id="edge1_Node000001_Node000002" class="edge">
<title>Node2&#45;&gt;Node1</title>
<g id="a_edge1_Node000001_Node000002"><a xlink:title=" ">
<path fill="none" stroke="#63b8ff" d="M79.5,-107C79.5,-95.63 79.5,-83.43 79.5,-72.2"/>
<polygon fill="none" stroke="#63b8ff" points="79.5,-72.04 75.5,-66.04 79.5,-60.04 83.5,-66.04 79.5,-72.04"/>
</a>
</g>
<text text-anchor="middle" x="128.5" y="-81" font-family="Helvetica,sans-Serif" font-size="10.00" fill="grey"> +targetPortIdentity</text>
</g>
<!-- Node3 -->
<g id="Node000003" class="node">
<title>Node3</title>
<g id="a_Node000003"><a xlink:title=" ">
<polygon fill="white" stroke="transparent" points="136.5,-304 22.5,-304 22.5,-244 136.5,-244 136.5,-304"/>
<text text-anchor="start" x="27.5" y="-292" font-family="Helvetica,sans-Serif" font-size="10.00">std::array&lt; std::uint8</text>
<text text-anchor="start" x="63" y="-281" font-family="Helvetica,sans-Serif" font-size="10.00">_t, 8 &gt;</text>
<text text-anchor="start" x="38" y="-266" font-family="Helvetica,sans-Serif" font-size="10.00">+</text>
<text text-anchor="start" x="62.5" y="-266" font-family="Helvetica,sans-Serif" font-size="10.00">elements</text>
<text text-anchor="start" x="77.5" y="-251" font-family="Helvetica,sans-Serif" font-size="10.00"> </text>
<polygon fill="#666666" stroke="#666666" points="22.5,-276 22.5,-276 136.5,-276 136.5,-276 22.5,-276"/>
<polygon fill="#666666" stroke="#666666" points="22.5,-261 22.5,-261 60.5,-261 60.5,-261 22.5,-261"/>
<polygon fill="#666666" stroke="#666666" points="60.5,-261 60.5,-261 136.5,-261 136.5,-261 60.5,-261"/>
<polygon fill="none" stroke="#666666" points="22.5,-244 22.5,-304 136.5,-304 136.5,-244 22.5,-244"/>
</a>
</g>
</g>
<!-- Node3&#45;&gt;Node2 -->
<g id="edge2_Node000002_Node000003" class="edge">
<title>Node3&#45;&gt;Node2</title>
<g id="a_edge2_Node000002_Node000003"><a xlink:title=" ">
<path fill="none" stroke="#63b8ff" d="M79.5,-243.95C79.5,-233.55 79.5,-221.44 79.5,-209.52"/>
<polygon fill="none" stroke="#63b8ff" points="79.5,-209.24 75.5,-203.24 79.5,-197.24 83.5,-203.24 79.5,-209.24"/>
</a>
</g>
<text text-anchor="middle" x="119.5" y="-218" font-family="Helvetica,sans-Serif" font-size="10.00" fill="grey"> +clock_identity</text>
</g>
<!-- Node4 -->
<g id="Node000004" class="node">
<title>Node4</title>
<g id="a_Node000004"><a xlink:title=" ">
<polygon fill="white" stroke="transparent" points="122.5,-400 36.5,-400 36.5,-351 122.5,-351 122.5,-400"/>
<text text-anchor="start" x="41.5" y="-387.5" font-family="Helvetica,sans-Serif" font-size="10.00">std::array&lt; T &gt;</text>
<text text-anchor="start" x="77.5" y="-372.5" font-family="Helvetica,sans-Serif" font-size="10.00"> </text>
<text text-anchor="start" x="77.5" y="-357.5" font-family="Helvetica,sans-Serif" font-size="10.00"> </text>
<polygon fill="#666666" stroke="#666666" points="36.5,-382.5 36.5,-382.5 122.5,-382.5 122.5,-382.5 36.5,-382.5"/>
<polygon fill="#666666" stroke="#666666" points="36.5,-367.5 36.5,-367.5 122.5,-367.5 122.5,-367.5 36.5,-367.5"/>
<polygon fill="none" stroke="#666666" points="36.5,-351 36.5,-400 122.5,-400 122.5,-351 36.5,-351"/>
</a>
</g>
</g>
<!-- Node4&#45;&gt;Node3 -->
<g id="edge3_Node000003_Node000004" class="edge">
<title>Node4&#45;&gt;Node3</title>
<g id="a_edge3_Node000003_Node000004"><a xlink:title=" ">
<path fill="none" stroke="orange" d="M79.5,-340.87C79.5,-328.94 79.5,-315.62 79.5,-304.1"/>
<polygon fill="orange" stroke="orange" points="76,-340.92 79.5,-350.92 83,-340.92 76,-340.92"/>
</a>
</g>
<text text-anchor="middle" x="126" y="-325" font-family="Helvetica,sans-Serif" font-size="10.00" fill="grey"> &lt; std::uint8_t, 8 &gt;</text>
</g>
<!-- Node5 -->
<g id="Node000005" class="node">
<title>Node5</title>
<g id="a_Node000005"><a xlink:title=" ">
<polygon fill="white" stroke="transparent" points="88,-496 71,-496 71,-447 88,-447 88,-496"/>
<text text-anchor="start" x="76.5" y="-483.5" font-family="Helvetica,sans-Serif" font-size="10.00">T</text>
<text text-anchor="start" x="78" y="-468.5" font-family="Helvetica,sans-Serif" font-size="10.00"> </text>
<text text-anchor="start" x="78" y="-453.5" font-family="Helvetica,sans-Serif" font-size="10.00"> </text>
<polygon fill="#666666" stroke="#666666" points="71.5,-478.5 71.5,-478.5 88.5,-478.5 88.5,-478.5 71.5,-478.5"/>
<polygon fill="#666666" stroke="#666666" points="71.5,-463.5 71.5,-463.5 88.5,-463.5 88.5,-463.5 71.5,-463.5"/>
<polygon fill="none" stroke="#666666" points="71,-447 71,-496 88,-496 88,-447 71,-447"/>
</a>
</g>
</g>
<!-- Node5&#45;&gt;Node4 -->
<g id="edge4_Node000004_Node000005" class="edge">
<title>Node5&#45;&gt;Node4</title>
<g id="a_edge4_Node000004_Node000005"><a xlink:title=" ">
<path fill="none" stroke="#63b8ff" d="M79.5,-446.78C79.5,-436.32 79.5,-423.79 79.5,-412.23"/>
<polygon fill="none" stroke="#63b8ff" points="79.5,-412.21 75.5,-406.21 79.5,-400.21 83.5,-406.21 79.5,-412.21"/>
</a>
</g>
<text text-anchor="middle" x="108.5" y="-421" font-family="Helvetica,sans-Serif" font-size="10.00" fill="grey"> +elements</text>
</g>
</g>
</svg>
