<?xml version="1.0" encoding="UTF-8" standalone="no"?>
<!DOCTYPE svg PUBLIC "-//W3C//DTD SVG 1.1//EN"
 "http://www.w3.org/Graphics/SVG/1.1/DTD/svg11.dtd">
<!-- Generated by graphviz version 2.43.0 (0)
 -->
<!-- Title: IEEE::_1588::PTP::_2019::Clocks::PortDataSet Pages: 1 -->
<svg width="353pt" height="620pt"
 viewBox="0.00 0.00 352.50 620.00" xmlns="http://www.w3.org/2000/svg" xmlns:xlink="http://www.w3.org/1999/xlink">
<g id="graph0" class="graph" transform="scale(1 1) rotate(0) translate(4 616)">
<title>IEEE::_1588::PTP::_2019::Clocks::PortDataSet</title>
<!-- Node1 -->
<g id="Node000001" class="node">
<title>Node1</title>
<g id="a_Node000001"><a xlink:title="PTP Port Data Set per IEEE 1588&#45;2019 Section 8.2.5.">
<polygon fill="#999999" stroke="transparent" points="266,-176 109,-176 109,0 266,0 266,-176"/>
<text text-anchor="start" x="121.5" y="-164" font-family="Helvetica,sans-Serif" font-size="10.00">IEEE::_1588::PTP::</text>
<text text-anchor="start" x="121.5" y="-153" font-family="Helvetica,sans-Serif" font-size="10.00">_2019::Clocks::PortDataSet</text>
<text text-anchor="start" x="113.5" y="-138" font-family="Helvetica,sans-Serif" font-size="10.00">+</text>
<text text-anchor="start" x="126.5" y="-138" font-family="Helvetica,sans-Serif" font-size="10.00">port_state</text>
<text text-anchor="start" x="113.5" y="-123" font-family="Helvetica,sans-Serif" font-size="10.00">+</text>
<text text-anchor="start" x="126.5" y="-123" font-family="Helvetica,sans-Serif" font-size="10.00">log_min_delay_req_interval</text>
<text text-anchor="start" x="113.5" y="-108" font-family="Helvetica,sans-Serif" font-size="10.00">+</text>
<text text-anchor="start" x="126.5" y="-108" font-family="Helvetica,sans-Serif" font-size="10.00">log_announce_interval</text>
<text text-anchor="start" x="113.5" y="-93" font-family="Helvetica,sans-Serif" font-size="10.00">+</text>
<text text-anchor="start" x="126.5" y="-93" font-family="Helvetica,sans-Serif" font-size="10.00">announce_receipt_timeout</text>
<text text-anchor="start" x="113.5" y="-78" font-family="Helvetica,sans-Serif" font-size="10.00">+</text>
<text text-anchor="start" x="126.5" y="-78" font-family="Helvetica,sans-Serif" font-size="10.00">log_sync_interval</text>
<text text-anchor="start" x="113.5" y="-63" font-family="Helvetica,sans-Serif" font-size="10.00">+</text>
<text text-anchor="start" x="126.5" y="-63" font-family="Helvetica,sans-Serif" font-size="10.00">delay_mechanism</text>
<text text-anchor="start" x="113.5" y="-48" font-family="Helvetica,sans-Serif" font-size="10.00">+</text>
<text text-anchor="start" x="126.5" y="-48" font-family="Helvetica,sans-Serif" font-size="10.00">log_min_pdelay_req</text>
<text text-anchor="start" x="126.5" y="-37" font-family="Helvetica,sans-Serif" font-size="10.00">_interval</text>
<text text-anchor="start" x="113.5" y="-22" font-family="Helvetica,sans-Serif" font-size="10.00">+</text>
<text text-anchor="start" x="126.5" y="-22" font-family="Helvetica,sans-Serif" font-size="10.00">version_number</text>
<text text-anchor="start" x="186" y="-7" font-family="Helvetica,sans-Serif" font-size="10.00"> </text>
<polygon fill="#666666" stroke="#666666" points="109.5,-148 109.5,-148 266.5,-148 266.5,-148 109.5,-148"/>
<polygon fill="#666666" stroke="#666666" points="109.5,-17 109.5,-17 124.5,-17 124.5,-17 109.5,-17"/>
<polygon fill="#666666" stroke="#666666" points="124.5,-17 124.5,-17 266.5,-17 266.5,-17 124.5,-17"/>
<polygon fill="none" stroke="#666666" points="109,0 109,-176 266,-176 266,0 109,0"/>
</a>
</g>
</g>
<!-- Node2 -->
<g id="Node000002" class="node">
<title>Node2</title>
<g id="a_Node000002"><a xlink:href="../../dc/d02/structIEEE_1_1__1588_1_1PTP_1_1__2019_1_1Types_1_1PortIdentity.html" target="_top" xlink:title="Port Identity &#45; combination of clock identity and port number.">
<polygon fill="white" stroke="transparent" points="137,-313 0,-313 0,-223 137,-223 137,-313"/>
<text text-anchor="start" x="5.5" y="-301" font-family="Helvetica,sans-Serif" font-size="10.00">IEEE::_1588::PTP::</text>
<text text-anchor="start" x="5.5" y="-290" font-family="Helvetica,sans-Serif" font-size="10.00">_2019::Types::PortIdentity</text>
<text text-anchor="start" x="17" y="-275" font-family="Helvetica,sans-Serif" font-size="10.00">+</text>
<text text-anchor="start" x="42.5" y="-275" font-family="Helvetica,sans-Serif" font-size="10.00">port_number</text>
<text text-anchor="start" x="17" y="-260" font-family="Helvetica,sans-Serif" font-size="10.00">+</text>
<text text-anchor="start" x="42.5" y="-260" font-family="Helvetica,sans-Serif" font-size="10.00">operator==()</text>
<text text-anchor="start" x="17" y="-245" font-family="Helvetica,sans-Serif" font-size="10.00">+</text>
<text text-anchor="start" x="42.5" y="-245" font-family="Helvetica,sans-Serif" font-size="10.00">operator&lt;()</text>
<text text-anchor="start" x="17" y="-230" font-family="Helvetica,sans-Serif" font-size="10.00">+</text>
<text text-anchor="start" x="42.5" y="-230" font-family="Helvetica,sans-Serif" font-size="10.00">validate()</text>
<polygon fill="#666666" stroke="#666666" points="0.5,-285 0.5,-285 137.5,-285 137.5,-285 0.5,-285"/>
<polygon fill="#666666" stroke="#666666" points="0.5,-270 0.5,-270 40.5,-270 40.5,-270 0.5,-270"/>
<polygon fill="#666666" stroke="#666666" points="40.5,-270 40.5,-270 137.5,-270 137.5,-270 40.5,-270"/>
<polygon fill="none" stroke="#666666" points="0,-223 0,-313 137,-313 137,-223 0,-223"/>
</a>
</g>
</g>
<!-- Node2&#45;&gt;Node1 -->
<g id="edge1_Node000001_Node000002" class="edge">
<title>Node2&#45;&gt;Node1</title>
<g id="a_edge1_Node000001_Node000002"><a xlink:title=" ">
<path fill="none" stroke="#63b8ff" d="M97.92,-223C105.41,-211.79 113.77,-199.29 122.29,-186.55"/>
<polygon fill="none" stroke="#63b8ff" points="122.47,-186.28 122.48,-179.07 129.14,-176.3 129.13,-183.51 122.47,-186.28"/>
</a>
</g>
<text text-anchor="middle" x="151.5" y="-197" font-family="Helvetica,sans-Serif" font-size="10.00" fill="grey"> +port_identity</text>
</g>
<!-- Node3 -->
<g id="Node000003" class="node">
<title>Node3</title>
<g id="a_Node000003"><a xlink:title=" ">
<polygon fill="white" stroke="transparent" points="125.5,-420 11.5,-420 11.5,-360 125.5,-360 125.5,-420"/>
<text text-anchor="start" x="16.5" y="-408" font-family="Helvetica,sans-Serif" font-size="10.00">std::array&lt; std::uint8</text>
<text text-anchor="start" x="52" y="-397" font-family="Helvetica,sans-Serif" font-size="10.00">_t, 8 &gt;</text>
<text text-anchor="start" x="27" y="-382" font-family="Helvetica,sans-Serif" font-size="10.00">+</text>
<text text-anchor="start" x="51.5" y="-382" font-family="Helvetica,sans-Serif" font-size="10.00">elements</text>
<text text-anchor="start" x="66.5" y="-367" font-family="Helvetica,sans-Serif" font-size="10.00"> </text>
<polygon fill="#666666" stroke="#666666" points="11.5,-392 11.5,-392 125.5,-392 125.5,-392 11.5,-392"/>
<polygon fill="#666666" stroke="#666666" points="11.5,-377 11.5,-377 49.5,-377 49.5,-377 11.5,-377"/>
<polygon fill="#666666" stroke="#666666" points="49.5,-377 49.5,-377 125.5,-377 125.5,-377 49.5,-377"/>
<polygon fill="none" stroke="#666666" points="11.5,-360 11.5,-420 125.5,-420 125.5,-360 11.5,-360"/>
</a>
</g>
</g>
<!-- Node3&#45;&gt;Node2 -->
<g id="edge2_Node000002_Node000003" class="edge">
<title>Node3&#45;&gt;Node2</title>
<g id="a_edge2_Node000002_Node000003"><a xlink:title=" ">
<path fill="none" stroke="#63b8ff" d="M68.5,-359.95C68.5,-349.55 68.5,-337.44 68.5,-325.52"/>
<polygon fill="none" stroke="#63b8ff" points="68.5,-325.24 64.5,-319.24 68.5,-313.24 72.5,-319.24 68.5,-325.24"/>
</a>
</g>
<text text-anchor="middle" x="108.5" y="-334" font-family="Helvetica,sans-Serif" font-size="10.00" fill="grey"> +clock_identity</text>
</g>
<!-- Node4 -->
<g id="Node000004" class="node">
<title>Node4</title>
<g id="a_Node000004"><a xlink:title=" ">
<polygon fill="white" stroke="transparent" points="111.5,-516 25.5,-516 25.5,-467 111.5,-467 111.5,-516"/>
<text text-anchor="start" x="30.5" y="-503.5" font-family="Helvetica,sans-Serif" font-size="10.00">std::array&lt; T &gt;</text>
<text text-anchor="start" x="66.5" y="-488.5" font-family="Helvetica,sans-Serif" font-size="10.00"> </text>
<text text-anchor="start" x="66.5" y="-473.5" font-family="Helvetica,sans-Serif" font-size="10.00"> </text>
<polygon fill="#666666" stroke="#666666" points="25.5,-498.5 25.5,-498.5 111.5,-498.5 111.5,-498.5 25.5,-498.5"/>
<polygon fill="#666666" stroke="#666666" points="25.5,-483.5 25.5,-483.5 111.5,-483.5 111.5,-483.5 25.5,-483.5"/>
<polygon fill="none" stroke="#666666" points="25.5,-467 25.5,-516 111.5,-516 111.5,-467 25.5,-467"/>
</a>
</g>
</g>
<!-- Node4&#45;&gt;Node3 -->
<g id="edge3_Node000003_Node000004" class="edge">
<title>Node4&#45;&gt;Node3</title>
<g id="a_edge3_Node000003_Node000004"><a xlink:title=" ">
<path fill="none" stroke="orange" d="M68.5,-456.87C68.5,-444.94 68.5,-431.62 68.5,-420.1"/>
<polygon fill="orange" stroke="orange" points="65,-456.92 68.5,-466.92 72,-456.92 65,-456.92"/>
</a>
</g>
<text text-anchor="middle" x="115" y="-441" font-family="Helvetica,sans-Serif" font-size="10.00" fill="grey"> &lt; std::uint8_t, 8 &gt;</text>
</g>
<!-- Node5 -->
<g id="Node000005" class="node">
<title>Node5</title>
<g id="a_Node000005"><a xlink:title=" ">
<polygon fill="white" stroke="transparent" points="77,-612 60,-612 60,-563 77,-563 77,-612"/>
<text text-anchor="start" x="65.5" y="-599.5" font-family="Helvetica,sans-Serif" font-size="10.00">T</text>
<text text-anchor="start" x="67" y="-584.5" font-family="Helvetica,sans-Serif" font-size="10.00"> </text>
<text text-anchor="start" x="67" y="-569.5" font-family="Helvetica,sans-Serif" font-size="10.00"> </text>
<polygon fill="#666666" stroke="#666666" points="60.5,-594.5 60.5,-594.5 77.5,-594.5 77.5,-594.5 60.5,-594.5"/>
<polygon fill="#666666" stroke="#666666" points="60.5,-579.5 60.5,-579.5 77.5,-579.5 77.5,-579.5 60.5,-579.5"/>
<polygon fill="none" stroke="#666666" points="60,-563 60,-612 77,-612 77,-563 60,-563"/>
</a>
</g>
</g>
<!-- Node5&#45;&gt;Node4 -->
<g id="edge4_Node000004_Node000005" class="edge">
<title>Node5&#45;&gt;Node4</title>
<g id="a_edge4_Node000004_Node000005"><a xlink:title=" ">
<path fill="none" stroke="#63b8ff" d="M68.5,-562.78C68.5,-552.32 68.5,-539.79 68.5,-528.23"/>
<polygon fill="none" stroke="#63b8ff" points="68.5,-528.21 64.5,-522.21 68.5,-516.21 72.5,-522.21 68.5,-528.21"/>
</a>
</g>
<text text-anchor="middle" x="97.5" y="-537" font-family="Helvetica,sans-Serif" font-size="10.00" fill="grey"> +elements</text>
</g>
<!-- Node6 -->
<g id="Node000006" class="node">
<title>Node6</title>
<g id="a_Node000006"><a xlink:href="../../d6/df7/structIEEE_1_1__1588_1_1PTP_1_1__2019_1_1Types_1_1TimeInterval.html" target="_top" xlink:title="Time Interval &#45; scaled nanoseconds for time intervals.">
<polygon fill="white" stroke="transparent" points="318,-313 155,-313 155,-223 318,-223 318,-313"/>
<text text-anchor="start" x="171" y="-301" font-family="Helvetica,sans-Serif" font-size="10.00">IEEE::_1588::PTP::</text>
<text text-anchor="start" x="171" y="-290" font-family="Helvetica,sans-Serif" font-size="10.00">_2019::Types::TimeInterval</text>
<text text-anchor="start" x="159.5" y="-275" font-family="Helvetica,sans-Serif" font-size="10.00">+</text>
<text text-anchor="start" x="172.5" y="-275" font-family="Helvetica,sans-Serif" font-size="10.00">scaled_nanoseconds</text>
<text text-anchor="start" x="159.5" y="-260" font-family="Helvetica,sans-Serif" font-size="10.00">+</text>
<text text-anchor="start" x="172.5" y="-260" font-family="Helvetica,sans-Serif" font-size="10.00">toNanoseconds()</text>
<text text-anchor="start" x="159.5" y="-245" font-family="Helvetica,sans-Serif" font-size="10.00">+</text>
<text text-anchor="start" x="172.5" y="-245" font-family="Helvetica,sans-Serif" font-size="10.00">fromNanoseconds()</text>
<text text-anchor="start" x="159.5" y="-230" font-family="Helvetica,sans-Serif" font-size="10.00">+</text>
<text text-anchor="start" x="172.5" y="-230" font-family="Helvetica,sans-Serif" font-size="10.00">fromNanosecondsUnbiased()</text>
<polygon fill="#666666" stroke="#666666" points="155.5,-285 155.5,-285 318.5,-285 318.5,-285 155.5,-285"/>
<polygon fill="#666666" stroke="#666666" points="155.5,-270 155.5,-270 170.5,-270 170.5,-270 155.5,-270"/>
<polygon fill="#666666" stroke="#666666" points="170.5,-270 170.5,-270 318.5,-270 318.5,-270 170.5,-270"/>
<polygon fill="none" stroke="#666666" points="155,-223 155,-313 318,-313 318,-223 155,-223"/>
</a>
</g>
</g>
<!-- Node6&#45;&gt;Node1 -->
<g id="edge5_Node000001_Node000006" class="edge">
<title>Node6&#45;&gt;Node1</title>
<g id="a_edge5_Node000001_Node000006"><a xlink:title=" ">
<path fill="none" stroke="#63b8ff" d="M224.39,-223C221.42,-212.23 218.13,-200.27 214.77,-188.06"/>
<polygon fill="none" stroke="#63b8ff" points="214.72,-187.87 209.27,-183.15 211.53,-176.3 216.98,-181.02 214.72,-187.87"/>
</a>
</g>
<text text-anchor="middle" x="281.5" y="-197" font-family="Helvetica,sans-Serif" font-size="10.00" fill="grey"> +peer_mean_path_delay</text>
</g>
</g>
</svg>
