<?xml version="1.0" encoding="UTF-8" standalone="no"?>
<!DOCTYPE svg PUBLIC "-//W3C//DTD SVG 1.1//EN"
 "http://www.w3.org/Graphics/SVG/1.1/DTD/svg11.dtd">
<!-- Generated by graphviz version 2.43.0 (0)
 -->
<!-- Title: IEEE::_1588::PTP::_2019::SyncIntegration::stop Pages: 1 -->
<svg width="333pt" height="108pt"
 viewBox="0.00 0.00 333.00 108.00" xmlns="http://www.w3.org/2000/svg" xmlns:xlink="http://www.w3.org/1999/xlink">
<g id="graph0" class="graph" transform="scale(1 1) rotate(0) translate(4 104)">
<title>IEEE::_1588::PTP::_2019::SyncIntegration::stop</title>
<!-- Node1 -->
<g id="Node000001" class="node">
<title>Node1</title>
<g id="a_Node000001"><a xlink:title="Stop synchronization monitoring.">
<polygon fill="#999999" stroke="#666666" points="155,-64.5 0,-64.5 0,-34.5 155,-34.5 155,-64.5"/>
<text text-anchor="start" x="8" y="-52.5" font-family="Helvetica,sans-Serif" font-size="10.00">IEEE::_1588::PTP::</text>
<text text-anchor="middle" x="77.5" y="-41.5" font-family="Helvetica,sans-Serif" font-size="10.00">_2019::SyncIntegration::stop</text>
</a>
</g>
</g>
<!-- Node2 -->
<g id="Node000002" class="node">
<title>Node2</title>
<g id="a_Node000002"><a xlink:href="../../df/d1f/classIEEE_1_1__1588_1_1PTP_1_1__2019_1_1Types_1_1PTPResult.html#ab098752bb1a00689c62a2f0f0a258f21" target="_top" xlink:title="Create error result (static method)">
<polygon fill="white" stroke="#666666" points="325,-100 191,-100 191,-59 325,-59 325,-100"/>
<text text-anchor="start" x="199" y="-88" font-family="Helvetica,sans-Serif" font-size="10.00">IEEE::_1588::PTP::</text>
<text text-anchor="start" x="199" y="-77" font-family="Helvetica,sans-Serif" font-size="10.00">_2019::Types::PTPResult</text>
<text text-anchor="middle" x="258" y="-66" font-family="Helvetica,sans-Serif" font-size="10.00">::failure</text>
</a>
</g>
</g>
<!-- Node1&#45;&gt;Node2 -->
<g id="edge1_Node000001_Node000002" class="edge">
<title>Node1&#45;&gt;Node2</title>
<g id="a_edge1_Node000001_Node000002"><a xlink:title=" ">
<path fill="none" stroke="#63b8ff" d="M155.24,-62.4C163.79,-63.84 172.51,-65.3 181.05,-66.74"/>
<polygon fill="#63b8ff" stroke="#63b8ff" points="180.55,-70.2 190.99,-68.41 181.71,-63.3 180.55,-70.2"/>
</a>
</g>
</g>
<!-- Node3 -->
<g id="Node000003" class="node">
<title>Node3</title>
<g id="a_Node000003"><a xlink:href="../../df/d1f/classIEEE_1_1__1588_1_1PTP_1_1__2019_1_1Types_1_1PTPResult.html#a873027aad818e35452ddab7583b7a7e5" target="_top" xlink:title="Create successful result (static method)">
<polygon fill="white" stroke="#666666" points="325,-41 191,-41 191,0 325,0 325,-41"/>
<text text-anchor="start" x="199" y="-29" font-family="Helvetica,sans-Serif" font-size="10.00">IEEE::_1588::PTP::</text>
<text text-anchor="start" x="199" y="-18" font-family="Helvetica,sans-Serif" font-size="10.00">_2019::Types::PTPResult</text>
<text text-anchor="middle" x="258" y="-7" font-family="Helvetica,sans-Serif" font-size="10.00">::success</text>
</a>
</g>
</g>
<!-- Node1&#45;&gt;Node3 -->
<g id="edge2_Node000001_Node000003" class="edge">
<title>Node1&#45;&gt;Node3</title>
<g id="a_edge2_Node000001_Node000003"><a xlink:title=" ">
<path fill="none" stroke="#63b8ff" d="M155.24,-37.03C163.79,-35.64 172.51,-34.23 181.05,-32.84"/>
<polygon fill="#63b8ff" stroke="#63b8ff" points="181.68,-36.28 190.99,-31.22 180.56,-29.37 181.68,-36.28"/>
</a>
</g>
</g>
</g>
</svg>
