<?xml version="1.0" encoding="UTF-8" standalone="no"?>
<!DOCTYPE svg PUBLIC "-//W3C//DTD SVG 1.1//EN"
 "http://www.w3.org/Graphics/SVG/1.1/DTD/svg11.dtd">
<!-- Generated by graphviz version 2.43.0 (0)
 -->
<!-- Title: IEEE::_1588::PTP::_2019::Types::PTPResult::makeError Pages: 1 -->
<svg width="536pt" height="344pt"
 viewBox="0.00 0.00 536.00 344.00" xmlns="http://www.w3.org/2000/svg" xmlns:xlink="http://www.w3.org/1999/xlink">
<g id="graph0" class="graph" transform="scale(1 1) rotate(0) translate(4 340)">
<title>IEEE::_1588::PTP::_2019::Types::PTPResult::makeError</title>
<!-- Node1 -->
<g id="Node000001" class="node">
<title>Node1</title>
<g id="a_Node000001"><a xlink:title="Create error result (alias for failure)">
<polygon fill="#999999" stroke="#666666" points="528,-218 394,-218 394,-177 528,-177 528,-218"/>
<text text-anchor="start" x="402" y="-206" font-family="Helvetica,sans-Serif" font-size="10.00">IEEE::_1588::PTP::</text>
<text text-anchor="start" x="402" y="-195" font-family="Helvetica,sans-Serif" font-size="10.00">_2019::Types::PTPResult</text>
<text text-anchor="middle" x="461" y="-184" font-family="Helvetica,sans-Serif" font-size="10.00">::makeError</text>
</a>
</g>
</g>
<!-- Node2 -->
<g id="Node000002" class="node">
<title>Node2</title>
<g id="a_Node000002"><a xlink:href="../../d5/dab/structIEEE_1_1__1588_1_1PTP_1_1__2019_1_1CommonHeader.html#acfa5f3eedb7017790b9646cd6e009368" target="_top" xlink:title="Validate header consistency with deterministic checks.">
<polygon fill="white" stroke="#666666" points="352,-336 221,-336 221,-295 352,-295 352,-336"/>
<text text-anchor="start" x="229" y="-324" font-family="Helvetica,sans-Serif" font-size="10.00">IEEE::_1588::PTP::</text>
<text text-anchor="start" x="229" y="-313" font-family="Helvetica,sans-Serif" font-size="10.00">_2019::CommonHeader</text>
<text text-anchor="middle" x="286.5" y="-302" font-family="Helvetica,sans-Serif" font-size="10.00">::validate</text>
</a>
</g>
</g>
<!-- Node1&#45;&gt;Node2 -->
<g id="edge1_Node000001_Node000002" class="edge">
<title>Node1&#45;&gt;Node2</title>
<g id="a_edge1_Node000001_Node000002"><a xlink:title=" ">
<path fill="none" stroke="#63b8ff" d="M433.17,-225.31C413.66,-244.38 385.88,-269.26 358,-286.5 353.16,-289.49 347.96,-292.3 342.65,-294.9"/>
<polygon fill="#63b8ff" stroke="#63b8ff" points="435.85,-227.58 440.49,-218.06 430.92,-222.61 435.85,-227.58"/>
</a>
</g>
</g>
<!-- Node4 -->
<g id="Node000004" class="node">
<title>Node4</title>
<g id="a_Node000004"><a xlink:href="../../dd/d8c/structIEEE_1_1__1588_1_1PTP_1_1__2019_1_1AnnounceBody.html#a9eba687b764b366ae8cd9e2c5075b802" target="_top" xlink:title="Validate announce message fields.">
<polygon fill="white" stroke="#666666" points="349,-277 224,-277 224,-236 349,-236 349,-277"/>
<text text-anchor="start" x="232" y="-265" font-family="Helvetica,sans-Serif" font-size="10.00">IEEE::_1588::PTP::</text>
<text text-anchor="start" x="232" y="-254" font-family="Helvetica,sans-Serif" font-size="10.00">_2019::AnnounceBody</text>
<text text-anchor="middle" x="286.5" y="-243" font-family="Helvetica,sans-Serif" font-size="10.00">::validate</text>
</a>
</g>
</g>
<!-- Node1&#45;&gt;Node4 -->
<g id="edge3_Node000001_Node000004" class="edge">
<title>Node1&#45;&gt;Node4</title>
<g id="a_edge3_Node000001_Node000004"><a xlink:title=" ">
<path fill="none" stroke="#63b8ff" d="M390.02,-221.43C375.93,-226.26 361.23,-231.28 347.51,-235.98"/>
<polygon fill="#63b8ff" stroke="#63b8ff" points="391.34,-224.68 399.67,-218.14 389.07,-218.06 391.34,-224.68"/>
</a>
</g>
</g>
<!-- Node5 -->
<g id="Node000005" class="node">
<title>Node5</title>
<g id="a_Node000005"><a xlink:href="../../dd/d52/structIEEE_1_1__1588_1_1PTP_1_1__2019_1_1PdelayReqBody.html#aa3fdb1e829644541b9530784270dc3fb" target="_top" xlink:title="Validate peer delay request message.">
<polygon fill="white" stroke="#666666" points="350.5,-218 222.5,-218 222.5,-177 350.5,-177 350.5,-218"/>
<text text-anchor="start" x="230.5" y="-206" font-family="Helvetica,sans-Serif" font-size="10.00">IEEE::_1588::PTP::</text>
<text text-anchor="start" x="230.5" y="-195" font-family="Helvetica,sans-Serif" font-size="10.00">_2019::PdelayReqBody</text>
<text text-anchor="middle" x="286.5" y="-184" font-family="Helvetica,sans-Serif" font-size="10.00">::validate</text>
</a>
</g>
</g>
<!-- Node1&#45;&gt;Node5 -->
<g id="edge4_Node000001_Node000005" class="edge">
<title>Node1&#45;&gt;Node5</title>
<g id="a_edge4_Node000001_Node000005"><a xlink:title=" ">
<path fill="none" stroke="#63b8ff" d="M383.74,-197.5C372.7,-197.5 361.43,-197.5 350.68,-197.5"/>
<polygon fill="#63b8ff" stroke="#63b8ff" points="383.8,-201 393.8,-197.5 383.8,-194 383.8,-201"/>
</a>
</g>
</g>
<!-- Node6 -->
<g id="Node000006" class="node">
<title>Node6</title>
<g id="a_Node000006"><a xlink:href="../../d4/d6e/structIEEE_1_1__1588_1_1PTP_1_1__2019_1_1Types_1_1Timestamp.html#a5874260dca7c0dc51aac826383452f13" target="_top" xlink:title="Validate timestamp fields.">
<polygon fill="white" stroke="#666666" points="357,-159 216,-159 216,-118 357,-118 357,-159"/>
<text text-anchor="start" x="224" y="-147" font-family="Helvetica,sans-Serif" font-size="10.00">IEEE::_1588::PTP::</text>
<text text-anchor="start" x="224" y="-136" font-family="Helvetica,sans-Serif" font-size="10.00">_2019::Types::Timestamp</text>
<text text-anchor="middle" x="286.5" y="-125" font-family="Helvetica,sans-Serif" font-size="10.00">::validate</text>
</a>
</g>
</g>
<!-- Node1&#45;&gt;Node6 -->
<g id="edge5_Node000001_Node000006" class="edge">
<title>Node1&#45;&gt;Node6</title>
<g id="a_edge5_Node000001_Node000006"><a xlink:title=" ">
<path fill="none" stroke="#63b8ff" d="M390.02,-173.57C375.93,-168.74 361.23,-163.72 347.51,-159.02"/>
<polygon fill="#63b8ff" stroke="#63b8ff" points="389.07,-176.94 399.67,-176.86 391.34,-170.32 389.07,-176.94"/>
</a>
</g>
</g>
<!-- Node12 -->
<g id="Node000012" class="node">
<title>Node12</title>
<g id="a_Node000012"><a xlink:href="../../dc/d02/structIEEE_1_1__1588_1_1PTP_1_1__2019_1_1Types_1_1PortIdentity.html#a714e06f89558350dad4807a3a76c1307" target="_top" xlink:title="Validate port identity fields.">
<polygon fill="white" stroke="#666666" points="358,-100 215,-100 215,-59 358,-59 358,-100"/>
<text text-anchor="start" x="223" y="-88" font-family="Helvetica,sans-Serif" font-size="10.00">IEEE::_1588::PTP::</text>
<text text-anchor="start" x="223" y="-77" font-family="Helvetica,sans-Serif" font-size="10.00">_2019::Types::PortIdentity</text>
<text text-anchor="middle" x="286.5" y="-66" font-family="Helvetica,sans-Serif" font-size="10.00">::validate</text>
</a>
</g>
</g>
<!-- Node1&#45;&gt;Node12 -->
<g id="edge11_Node000001_Node000012" class="edge">
<title>Node1&#45;&gt;Node12</title>
<g id="a_edge11_Node000001_Node000012"><a xlink:title=" ">
<path fill="none" stroke="#63b8ff" d="M432.68,-169.77C413.13,-151.01 385.51,-126.64 358,-109.5 352.58,-106.12 346.71,-102.96 340.76,-100.05"/>
<polygon fill="#63b8ff" stroke="#63b8ff" points="430.41,-172.44 440.02,-176.91 435.29,-167.42 430.41,-172.44"/>
</a>
</g>
</g>
<!-- Node3 -->
<g id="Node000003" class="node">
<title>Node3</title>
<g id="a_Node000003"><a xlink:href="../../d0/de3/structIEEE_1_1__1588_1_1PTP_1_1__2019_1_1PTPMessage.html#ab8bcc56e4cfd00c45bf6da5c959dce25" target="_top" xlink:title="Validate complete message structure.">
<polygon fill="white" stroke="#666666" points="169,-330.5 10,-330.5 10,-300.5 169,-300.5 169,-330.5"/>
<text text-anchor="start" x="18" y="-318.5" font-family="Helvetica,sans-Serif" font-size="10.00">IEEE::_1588::PTP::</text>
<text text-anchor="middle" x="89.5" y="-307.5" font-family="Helvetica,sans-Serif" font-size="10.00">_2019::PTPMessage::validate</text>
</a>
</g>
</g>
<!-- Node2&#45;&gt;Node3 -->
<g id="edge2_Node000002_Node000003" class="edge">
<title>Node2&#45;&gt;Node3</title>
<g id="a_edge2_Node000002_Node000003"><a xlink:title=" ">
<path fill="none" stroke="#63b8ff" d="M210.61,-315.5C197.06,-315.5 182.9,-315.5 169.24,-315.5"/>
<polygon fill="#63b8ff" stroke="#63b8ff" points="210.84,-319 220.84,-315.5 210.84,-312 210.84,-319"/>
</a>
</g>
</g>
<!-- Node7 -->
<g id="Node000007" class="node">
<title>Node7</title>
<g id="a_Node000007"><a xlink:href="../../d2/da3/structIEEE_1_1__1588_1_1PTP_1_1__2019_1_1SyncBody.html#acf9e7c4cdba384075d31e75f9e4663a4" target="_top" xlink:title="Validate sync message timestamp.">
<polygon fill="white" stroke="#666666" points="162,-266.5 17,-266.5 17,-236.5 162,-236.5 162,-266.5"/>
<text text-anchor="start" x="25" y="-254.5" font-family="Helvetica,sans-Serif" font-size="10.00">IEEE::_1588::PTP::</text>
<text text-anchor="middle" x="89.5" y="-243.5" font-family="Helvetica,sans-Serif" font-size="10.00">_2019::SyncBody::validate</text>
</a>
</g>
</g>
<!-- Node6&#45;&gt;Node7 -->
<g id="edge6_Node000006_Node000007" class="edge">
<title>Node6&#45;&gt;Node7</title>
<g id="a_edge6_Node000006_Node000007"><a xlink:title=" ">
<path fill="none" stroke="#63b8ff" d="M219.71,-164.73C218.08,-165.94 216.51,-167.2 215,-168.5 191.76,-188.58 203.57,-209.06 179,-227.5 173.91,-231.32 168.25,-234.54 162.32,-237.24"/>
<polygon fill="#63b8ff" stroke="#63b8ff" points="221.82,-167.54 228.22,-159.1 217.95,-161.7 221.82,-167.54"/>
</a>
</g>
</g>
<!-- Node8 -->
<g id="Node000008" class="node">
<title>Node8</title>
<g id="a_Node000008"><a xlink:href="../../d4/d80/structIEEE_1_1__1588_1_1PTP_1_1__2019_1_1FollowUpBody.html#afb9bb687271f04014b80607c3b2249f3" target="_top" xlink:title="Validate follow&#45;up message timestamp.">
<polygon fill="white" stroke="#666666" points="150.5,-218 28.5,-218 28.5,-177 150.5,-177 150.5,-218"/>
<text text-anchor="start" x="36.5" y="-206" font-family="Helvetica,sans-Serif" font-size="10.00">IEEE::_1588::PTP::</text>
<text text-anchor="start" x="36.5" y="-195" font-family="Helvetica,sans-Serif" font-size="10.00">_2019::FollowUpBody</text>
<text text-anchor="middle" x="89.5" y="-184" font-family="Helvetica,sans-Serif" font-size="10.00">::validate</text>
</a>
</g>
</g>
<!-- Node6&#45;&gt;Node8 -->
<g id="edge7_Node000006_Node000008" class="edge">
<title>Node6&#45;&gt;Node8</title>
<g id="a_edge7_Node000006_Node000008"><a xlink:title=" ">
<path fill="none" stroke="#63b8ff" d="M207.75,-162.02C188.76,-167.77 168.73,-173.83 150.7,-179.28"/>
<polygon fill="#63b8ff" stroke="#63b8ff" points="209.01,-165.3 217.57,-159.05 206.99,-158.6 209.01,-165.3"/>
</a>
</g>
</g>
<!-- Node9 -->
<g id="Node000009" class="node">
<title>Node9</title>
<g id="a_Node000009"><a xlink:href="../../da/d7c/structIEEE_1_1__1588_1_1PTP_1_1__2019_1_1DelayRespBody.html#a6236945466a2b89b84877b755b9e17ff" target="_top" xlink:title="Validate delay response message.">
<polygon fill="white" stroke="#666666" points="154,-159 25,-159 25,-118 154,-118 154,-159"/>
<text text-anchor="start" x="33" y="-147" font-family="Helvetica,sans-Serif" font-size="10.00">IEEE::_1588::PTP::</text>
<text text-anchor="start" x="33" y="-136" font-family="Helvetica,sans-Serif" font-size="10.00">_2019::DelayRespBody</text>
<text text-anchor="middle" x="89.5" y="-125" font-family="Helvetica,sans-Serif" font-size="10.00">::validate</text>
</a>
</g>
</g>
<!-- Node6&#45;&gt;Node9 -->
<g id="edge8_Node000006_Node000009" class="edge">
<title>Node6&#45;&gt;Node9</title>
<g id="a_edge8_Node000006_Node000009"><a xlink:title=" ">
<path fill="none" stroke="#63b8ff" d="M205.9,-138.5C188.69,-138.5 170.7,-138.5 154.19,-138.5"/>
<polygon fill="#63b8ff" stroke="#63b8ff" points="205.93,-142 215.93,-138.5 205.93,-135 205.93,-142"/>
</a>
</g>
</g>
<!-- Node10 -->
<g id="Node000010" class="node">
<title>Node10</title>
<g id="a_Node000010"><a xlink:href="../../d2/d6a/structIEEE_1_1__1588_1_1PTP_1_1__2019_1_1PdelayRespBody.html#ab248d75568694c9ea373bfea8f200ef8" target="_top" xlink:title="Validate peer delay response message.">
<polygon fill="white" stroke="#666666" points="156.5,-100 22.5,-100 22.5,-59 156.5,-59 156.5,-100"/>
<text text-anchor="start" x="30.5" y="-88" font-family="Helvetica,sans-Serif" font-size="10.00">IEEE::_1588::PTP::</text>
<text text-anchor="start" x="30.5" y="-77" font-family="Helvetica,sans-Serif" font-size="10.00">_2019::PdelayRespBody</text>
<text text-anchor="middle" x="89.5" y="-66" font-family="Helvetica,sans-Serif" font-size="10.00">::validate</text>
</a>
</g>
</g>
<!-- Node6&#45;&gt;Node10 -->
<g id="edge9_Node000006_Node000010" class="edge">
<title>Node6&#45;&gt;Node10</title>
<g id="a_edge9_Node000006_Node000010"><a xlink:title=" ">
<path fill="none" stroke="#63b8ff" d="M207.71,-114.96C190.76,-109.83 172.98,-104.46 156.54,-99.48"/>
<polygon fill="#63b8ff" stroke="#63b8ff" points="206.99,-118.4 217.57,-117.95 209.01,-111.7 206.99,-118.4"/>
</a>
</g>
</g>
<!-- Node11 -->
<g id="Node000011" class="node">
<title>Node11</title>
<g id="a_Node000011"><a xlink:href="../../d6/d6d/structIEEE_1_1__1588_1_1PTP_1_1__2019_1_1PdelayRespFollowUpBody.html#af8ca846093cffd802c2383d9d01308b7" target="_top" xlink:title="Validate peer delay response follow&#45;up message.">
<polygon fill="white" stroke="#666666" points="179,-41 0,-41 0,0 179,0 179,-41"/>
<text text-anchor="start" x="8" y="-29" font-family="Helvetica,sans-Serif" font-size="10.00">IEEE::_1588::PTP::</text>
<text text-anchor="start" x="8" y="-18" font-family="Helvetica,sans-Serif" font-size="10.00">_2019::PdelayRespFollowUpBody</text>
<text text-anchor="middle" x="89.5" y="-7" font-family="Helvetica,sans-Serif" font-size="10.00">::validate</text>
</a>
</g>
</g>
<!-- Node6&#45;&gt;Node11 -->
<g id="edge10_Node000006_Node000011" class="edge">
<title>Node6&#45;&gt;Node11</title>
<g id="a_edge10_Node000006_Node000011"><a xlink:title=" ">
<path fill="none" stroke="#63b8ff" d="M218.49,-112.33C217.29,-111.41 216.13,-110.47 215,-109.5 191.42,-89.22 203.31,-68.9 179,-49.5 175.08,-46.37 170.82,-43.58 166.34,-41.08"/>
<polygon fill="#63b8ff" stroke="#63b8ff" points="216.55,-115.24 226.79,-117.94 220.47,-109.44 216.55,-115.24"/>
</a>
</g>
</g>
<!-- Node12&#45;&gt;Node9 -->
<g id="edge12_Node000012_Node000009" class="edge">
<title>Node12&#45;&gt;Node9</title>
<g id="a_edge12_Node000012_Node000009"><a xlink:title=" ">
<path fill="none" stroke="#63b8ff" d="M207.81,-103.01C190.04,-108.38 171.36,-114.03 154.26,-119.21"/>
<polygon fill="#63b8ff" stroke="#63b8ff" points="209.01,-106.3 217.57,-100.05 206.99,-99.6 209.01,-106.3"/>
</a>
</g>
</g>
<!-- Node12&#45;&gt;Node10 -->
<g id="edge13_Node000012_Node000010" class="edge">
<title>Node12&#45;&gt;Node10</title>
<g id="a_edge13_Node000012_Node000010"><a xlink:title=" ">
<path fill="none" stroke="#63b8ff" d="M204.48,-79.5C188.57,-79.5 172.06,-79.5 156.71,-79.5"/>
<polygon fill="#63b8ff" stroke="#63b8ff" points="204.82,-83 214.82,-79.5 204.82,-76 204.82,-83"/>
</a>
</g>
</g>
<!-- Node12&#45;&gt;Node11 -->
<g id="edge14_Node000012_Node000011" class="edge">
<title>Node12&#45;&gt;Node11</title>
<g id="a_edge14_Node000012_Node000011"><a xlink:title=" ">
<path fill="none" stroke="#63b8ff" d="M207.58,-55.92C191.35,-51.01 174.36,-45.87 158.51,-41.08"/>
<polygon fill="#63b8ff" stroke="#63b8ff" points="206.99,-59.4 217.57,-58.95 209.01,-52.7 206.99,-59.4"/>
</a>
</g>
</g>
</g>
</svg>
