<?xml version="1.0" encoding="UTF-8" standalone="no"?>
<!DOCTYPE svg PUBLIC "-//W3C//DTD SVG 1.1//EN"
 "http://www.w3.org/Graphics/SVG/1.1/DTD/svg11.dtd">
<!-- Generated by graphviz version 2.43.0 (0)
 -->
<!-- Title: IEEE::_1588::PTP::_2019::Types::PTPResult::failure Pages: 1 -->
<svg width="575pt" height="1257pt"
 viewBox="0.00 0.00 575.00 1257.00" xmlns="http://www.w3.org/2000/svg" xmlns:xlink="http://www.w3.org/1999/xlink">
<g id="graph0" class="graph" transform="scale(1 1) rotate(0) translate(4 1253)">
<title>IEEE::_1588::PTP::_2019::Types::PTPResult::failure</title>
<!-- Node1 -->
<g id="Node000001" class="node">
<title>Node1</title>
<g id="a_Node000001"><a xlink:title="Create error result (static method)">
<polygon fill="#999999" stroke="#666666" points="567,-629 433,-629 433,-588 567,-588 567,-629"/>
<text text-anchor="start" x="441" y="-617" font-family="Helvetica,sans-Serif" font-size="10.00">IEEE::_1588::PTP::</text>
<text text-anchor="start" x="441" y="-606" font-family="Helvetica,sans-Serif" font-size="10.00">_2019::Types::PTPResult</text>
<text text-anchor="middle" x="500" y="-595" font-family="Helvetica,sans-Serif" font-size="10.00">::failure</text>
</a>
</g>
</g>
<!-- Node2 -->
<g id="Node000002" class="node">
<title>Node2</title>
<g id="a_Node000002"><a xlink:href="../../d1/db2/classIEEE_1_1__1588_1_1PTP_1_1__2019_1_1Integration_1_1BMCAIntegration.html#ad6dee8f51818082ec96a885f99285f80" target="_top" xlink:title="Configure BMCA execution behavior.">
<polygon fill="white" stroke="#666666" points="379.5,-1249 229.5,-1249 229.5,-1208 379.5,-1208 379.5,-1249"/>
<text text-anchor="start" x="237.5" y="-1237" font-family="Helvetica,sans-Serif" font-size="10.00">IEEE::_1588::PTP::</text>
<text text-anchor="start" x="237.5" y="-1226" font-family="Helvetica,sans-Serif" font-size="10.00">_2019::Integration::</text>
<text text-anchor="middle" x="304.5" y="-1215" font-family="Helvetica,sans-Serif" font-size="10.00">BMCAIntegration::configure</text>
</a>
</g>
</g>
<!-- Node1&#45;&gt;Node2 -->
<g id="edge1_Node000001_Node000002" class="edge">
<title>Node1&#45;&gt;Node2</title>
<g id="a_edge1_Node000001_Node000002"><a xlink:title=" ">
<path fill="none" stroke="#63b8ff" d="M497.81,-639.14C492.97,-748.02 471.36,-1114.27 397,-1199.5 392.18,-1205.03 386.31,-1209.51 379.9,-1213.14"/>
<polygon fill="#63b8ff" stroke="#63b8ff" points="501.31,-639.28 498.24,-629.14 494.31,-638.98 501.31,-639.28"/>
</a>
</g>
</g>
<!-- Node3 -->
<g id="Node000003" class="node">
<title>Node3</title>
<g id="a_Node000003"><a xlink:href="../../d1/d29/classIEEE_1_1__1588_1_1PTP_1_1__2019_1_1SyncIntegration.html#ac2e95782b8e0968a2c83b5e143d2fd0e" target="_top" xlink:title="Configure synchronization behavior.">
<polygon fill="white" stroke="#666666" points="368.5,-1190 240.5,-1190 240.5,-1149 368.5,-1149 368.5,-1190"/>
<text text-anchor="start" x="248.5" y="-1178" font-family="Helvetica,sans-Serif" font-size="10.00">IEEE::_1588::PTP::</text>
<text text-anchor="start" x="248.5" y="-1167" font-family="Helvetica,sans-Serif" font-size="10.00">_2019::SyncIntegration</text>
<text text-anchor="middle" x="304.5" y="-1156" font-family="Helvetica,sans-Serif" font-size="10.00">::configure</text>
</a>
</g>
</g>
<!-- Node1&#45;&gt;Node3 -->
<g id="edge2_Node000001_Node000003" class="edge">
<title>Node1&#45;&gt;Node3</title>
<g id="a_edge2_Node000001_Node000003"><a xlink:title=" ">
<path fill="none" stroke="#63b8ff" d="M497.15,-639.37C490.44,-741.3 464.14,-1064.97 397,-1140.5 389.47,-1148.97 379.49,-1154.99 368.88,-1159.25"/>
<polygon fill="#63b8ff" stroke="#63b8ff" points="500.66,-639.33 497.81,-629.13 493.67,-638.89 500.66,-639.33"/>
</a>
</g>
</g>
<!-- Node4 -->
<g id="Node000004" class="node">
<title>Node4</title>
<g id="a_Node000004"><a xlink:href="../../d1/db2/classIEEE_1_1__1588_1_1PTP_1_1__2019_1_1Integration_1_1BMCAIntegration.html#a61764d463d80c5077ec39de2238620a3" target="_top" xlink:title="Force immediate BMCA execution.">
<polygon fill="white" stroke="#666666" points="392.5,-1131 216.5,-1131 216.5,-1090 392.5,-1090 392.5,-1131"/>
<text text-anchor="start" x="224.5" y="-1119" font-family="Helvetica,sans-Serif" font-size="10.00">IEEE::_1588::PTP::</text>
<text text-anchor="start" x="224.5" y="-1108" font-family="Helvetica,sans-Serif" font-size="10.00">_2019::Integration::</text>
<text text-anchor="middle" x="304.5" y="-1097" font-family="Helvetica,sans-Serif" font-size="10.00">BMCAIntegration::execute_bmca</text>
</a>
</g>
</g>
<!-- Node1&#45;&gt;Node4 -->
<g id="edge3_Node000001_Node000004" class="edge">
<title>Node1&#45;&gt;Node4</title>
<g id="a_edge3_Node000001_Node000004"><a xlink:title=" ">
<path fill="none" stroke="#63b8ff" d="M496.38,-639.03C487.71,-733 457.08,-1015.46 397,-1081.5 394.2,-1084.58 391.07,-1087.34 387.7,-1089.8"/>
<polygon fill="#63b8ff" stroke="#63b8ff" points="499.86,-639.31 497.28,-629.03 492.89,-638.68 499.86,-639.31"/>
</a>
</g>
</g>
<!-- Node5 -->
<g id="Node000005" class="node">
<title>Node5</title>
<g id="a_Node000005"><a xlink:href="../../d5/d1f/classIEEE_1_1__1588_1_1PTP_1_1__2019_1_1Clocks_1_1TransparentClock.html#ab7d23f1350caccec3dda50cf2f9813c2" target="_top" xlink:title="Forward PTP message with residence time correction.">
<polygon fill="white" stroke="#666666" points="378,-1072 231,-1072 231,-1031 378,-1031 378,-1072"/>
<text text-anchor="start" x="239" y="-1060" font-family="Helvetica,sans-Serif" font-size="10.00">IEEE::_1588::PTP::</text>
<text text-anchor="start" x="239" y="-1049" font-family="Helvetica,sans-Serif" font-size="10.00">_2019::Clocks::Transparent</text>
<text text-anchor="middle" x="304.5" y="-1038" font-family="Helvetica,sans-Serif" font-size="10.00">Clock::forward_message</text>
</a>
</g>
</g>
<!-- Node1&#45;&gt;Node5 -->
<g id="edge4_Node000001_Node000005" class="edge">
<title>Node1&#45;&gt;Node5</title>
<g id="a_edge4_Node000001_Node000005"><a xlink:title=" ">
<path fill="none" stroke="#63b8ff" d="M495.34,-639.16C484.5,-725.14 449.96,-965.96 397,-1022.5 391.65,-1028.22 385.17,-1032.81 378.17,-1036.5"/>
<polygon fill="#63b8ff" stroke="#63b8ff" points="498.84,-639.36 496.6,-629.01 491.9,-638.5 498.84,-639.36"/>
</a>
</g>
</g>
<!-- Node6 -->
<g id="Node000006" class="node">
<title>Node6</title>
<g id="a_Node000006"><a xlink:href="../../dc/dd4/namespaceIEEE_1_1__1588_1_1PTP_1_1__2019_1_1Clocks.html#ac0e542a5609624685a2a3db7d6ef5ed4" target="_top" xlink:title="Parse Management TLV from buffer.">
<polygon fill="white" stroke="#666666" points="363,-1013 246,-1013 246,-972 363,-972 363,-1013"/>
<text text-anchor="start" x="254" y="-1001" font-family="Helvetica,sans-Serif" font-size="10.00">IEEE::_1588::PTP::</text>
<text text-anchor="start" x="254" y="-990" font-family="Helvetica,sans-Serif" font-size="10.00">_2019::Clocks::parse</text>
<text text-anchor="middle" x="304.5" y="-979" font-family="Helvetica,sans-Serif" font-size="10.00">_management_tlv</text>
</a>
</g>
</g>
<!-- Node1&#45;&gt;Node6 -->
<g id="edge5_Node000001_Node000006" class="edge">
<title>Node1&#45;&gt;Node6</title>
<g id="a_edge5_Node000001_Node000006"><a xlink:title=" ">
<path fill="none" stroke="#63b8ff" d="M499.32,-639.51C498.31,-707.71 486.15,-871.9 397,-963.5 387.82,-972.93 375.59,-979.31 363.07,-983.61"/>
<polygon fill="#63b8ff" stroke="#63b8ff" points="502.82,-639.45 499.4,-629.42 495.82,-639.39 502.82,-639.45"/>
</a>
</g>
</g>
<!-- Node7 -->
<g id="Node000007" class="node">
<title>Node7</title>
<g id="a_Node000007"><a xlink:href="../../dc/dd4/namespaceIEEE_1_1__1588_1_1PTP_1_1__2019_1_1Clocks.html#a250b7da224170aa029dc2ff5daf2aeb3" target="_top" xlink:title="Parse TLV header from buffer.">
<polygon fill="white" stroke="#666666" points="363,-954 246,-954 246,-913 363,-913 363,-954"/>
<text text-anchor="start" x="254" y="-942" font-family="Helvetica,sans-Serif" font-size="10.00">IEEE::_1588::PTP::</text>
<text text-anchor="start" x="254" y="-931" font-family="Helvetica,sans-Serif" font-size="10.00">_2019::Clocks::parse</text>
<text text-anchor="middle" x="304.5" y="-920" font-family="Helvetica,sans-Serif" font-size="10.00">_tlv_header</text>
</a>
</g>
</g>
<!-- Node1&#45;&gt;Node7 -->
<g id="edge6_Node000001_Node000007" class="edge">
<title>Node1&#45;&gt;Node7</title>
<g id="a_edge6_Node000001_Node000007"><a xlink:title=" ">
<path fill="none" stroke="#63b8ff" d="M497.23,-639.28C492.13,-698.95 472.46,-830.9 397,-904.5 387.7,-913.58 375.57,-919.81 363.2,-924.1"/>
<polygon fill="#63b8ff" stroke="#63b8ff" points="500.74,-639.26 498.02,-629.02 493.76,-638.72 500.74,-639.26"/>
</a>
</g>
</g>
<!-- Node8 -->
<g id="Node000008" class="node">
<title>Node8</title>
<g id="a_Node000008"><a xlink:href="../../dd/d5b/classIEEE_1_1__1588_1_1PTP_1_1__2019_1_1Clocks_1_1PtpPort.html#a6eea3cfb2fa2d3bf60f457204aac263d" target="_top" xlink:title="Process Management message (dataset GET/SET operations)">
<polygon fill="white" stroke="#666666" points="370,-895 239,-895 239,-854 370,-854 370,-895"/>
<text text-anchor="start" x="247" y="-883" font-family="Helvetica,sans-Serif" font-size="10.00">IEEE::_1588::PTP::</text>
<text text-anchor="start" x="247" y="-872" font-family="Helvetica,sans-Serif" font-size="10.00">_2019::Clocks::PtpPort</text>
<text text-anchor="middle" x="304.5" y="-861" font-family="Helvetica,sans-Serif" font-size="10.00">::process_management</text>
</a>
</g>
</g>
<!-- Node1&#45;&gt;Node8 -->
<g id="edge7_Node000001_Node000008" class="edge">
<title>Node1&#45;&gt;Node8</title>
<g id="a_edge7_Node000001_Node000008"><a xlink:title=" ">
<path fill="none" stroke="#63b8ff" d="M494.19,-639.22C484.7,-689.54 458.86,-789.51 397,-845.5 389.34,-852.43 380.02,-857.71 370.3,-861.72"/>
<polygon fill="#63b8ff" stroke="#63b8ff" points="497.65,-639.73 495.97,-629.27 490.76,-638.5 497.65,-639.73"/>
</a>
</g>
</g>
<!-- Node9 -->
<g id="Node000009" class="node">
<title>Node9</title>
<g id="a_Node000009"><a xlink:href="../../dc/dd4/classIEEE_1_1__1588_1_1PTP_1_1__2019_1_1Clocks_1_1OrdinaryClock.html#a0f1c7a8b05a28a9df0fbd2c7b14c5c53" target="_top" xlink:title="Process received PTP message.">
<polygon fill="white" stroke="#666666" points="384,-836 225,-836 225,-795 384,-795 384,-836"/>
<text text-anchor="start" x="233" y="-824" font-family="Helvetica,sans-Serif" font-size="10.00">IEEE::_1588::PTP::</text>
<text text-anchor="start" x="233" y="-813" font-family="Helvetica,sans-Serif" font-size="10.00">_2019::Clocks::OrdinaryClock</text>
<text text-anchor="middle" x="304.5" y="-802" font-family="Helvetica,sans-Serif" font-size="10.00">::process_message</text>
</a>
</g>
</g>
<!-- Node1&#45;&gt;Node9 -->
<g id="edge8_Node000001_Node000009" class="edge">
<title>Node1&#45;&gt;Node9</title>
<g id="a_edge8_Node000001_Node000009"><a xlink:title=" ">
<path fill="none" stroke="#63b8ff" d="M489.46,-638.77C475.45,-678.37 445.59,-747.32 397,-786.5 393.11,-789.64 388.87,-792.44 384.43,-794.94"/>
<polygon fill="#63b8ff" stroke="#63b8ff" points="492.83,-639.72 492.76,-629.13 486.21,-637.46 492.83,-639.72"/>
</a>
</g>
</g>
<!-- Node10 -->
<g id="Node000010" class="node">
<title>Node10</title>
<g id="a_Node000010"><a xlink:href="../../d0/d7d/classIEEE_1_1__1588_1_1PTP_1_1__2019_1_1Clocks_1_1BoundaryClock.html#a8d21ce8a95c4f7fcee5ab7853fa6c60e" target="_top" xlink:title="Process received PTP message on specific port.">
<polygon fill="white" stroke="#666666" points="386.5,-777 222.5,-777 222.5,-736 386.5,-736 386.5,-777"/>
<text text-anchor="start" x="230.5" y="-765" font-family="Helvetica,sans-Serif" font-size="10.00">IEEE::_1588::PTP::</text>
<text text-anchor="start" x="230.5" y="-754" font-family="Helvetica,sans-Serif" font-size="10.00">_2019::Clocks::BoundaryClock</text>
<text text-anchor="middle" x="304.5" y="-743" font-family="Helvetica,sans-Serif" font-size="10.00">::process_message</text>
</a>
</g>
</g>
<!-- Node1&#45;&gt;Node10 -->
<g id="edge9_Node000001_Node000010" class="edge">
<title>Node1&#45;&gt;Node10</title>
<g id="a_edge9_Node000001_Node000010"><a xlink:title=" ">
<path fill="none" stroke="#63b8ff" d="M480.79,-637.9C462.66,-664.85 432.47,-704.03 397,-727.5 392.27,-730.63 387.19,-733.43 381.93,-735.95"/>
<polygon fill="#63b8ff" stroke="#63b8ff" points="483.89,-639.54 486.46,-629.26 478.04,-635.7 483.89,-639.54"/>
</a>
</g>
</g>
<!-- Node11 -->
<g id="Node000011" class="node">
<title>Node11</title>
<g id="a_Node000011"><a xlink:href="../../dd/d5b/classIEEE_1_1__1588_1_1PTP_1_1__2019_1_1Clocks_1_1PtpPort.html#ad1c71f4696ee7b634b9fda2f9fdafad7" target="_top" xlink:title="Process Signaling message (unicast negotiation, PATH_TRACE, etc.)">
<polygon fill="white" stroke="#666666" points="367,-718 242,-718 242,-677 367,-677 367,-718"/>
<text text-anchor="start" x="250" y="-706" font-family="Helvetica,sans-Serif" font-size="10.00">IEEE::_1588::PTP::</text>
<text text-anchor="start" x="250" y="-695" font-family="Helvetica,sans-Serif" font-size="10.00">_2019::Clocks::PtpPort</text>
<text text-anchor="middle" x="304.5" y="-684" font-family="Helvetica,sans-Serif" font-size="10.00">::process_signaling</text>
</a>
</g>
</g>
<!-- Node1&#45;&gt;Node11 -->
<g id="edge10_Node000001_Node000011" class="edge">
<title>Node1&#45;&gt;Node11</title>
<g id="a_edge10_Node000001_Node000011"><a xlink:title=" ">
<path fill="none" stroke="#63b8ff" d="M459.56,-634.51C441.08,-645.96 418.45,-658.94 397,-668.5 387.56,-672.71 377.33,-676.58 367.24,-680.03"/>
<polygon fill="#63b8ff" stroke="#63b8ff" points="461.66,-637.32 468.27,-629.04 457.94,-631.39 461.66,-637.32"/>
</a>
</g>
</g>
<!-- Node12 -->
<g id="Node000012" class="node">
<title>Node12</title>
<g id="a_Node000012"><a xlink:href="../../d1/d29/classIEEE_1_1__1588_1_1PTP_1_1__2019_1_1SyncIntegration.html#a91b3b67eba6938d8d104b1cf67b4eccb" target="_top" xlink:title="Force immediate synchronization sample.">
<polygon fill="white" stroke="#666666" points="368.5,-659 240.5,-659 240.5,-618 368.5,-618 368.5,-659"/>
<text text-anchor="start" x="248.5" y="-647" font-family="Helvetica,sans-Serif" font-size="10.00">IEEE::_1588::PTP::</text>
<text text-anchor="start" x="248.5" y="-636" font-family="Helvetica,sans-Serif" font-size="10.00">_2019::SyncIntegration</text>
<text text-anchor="middle" x="304.5" y="-625" font-family="Helvetica,sans-Serif" font-size="10.00">::sample_now</text>
</a>
</g>
</g>
<!-- Node1&#45;&gt;Node12 -->
<g id="edge11_Node000001_Node000012" class="edge">
<title>Node1&#45;&gt;Node12</title>
<g id="a_edge11_Node000001_Node000012"><a xlink:title=" ">
<path fill="none" stroke="#63b8ff" d="M423.06,-620.27C405.04,-623.07 386.02,-626.02 368.64,-628.71"/>
<polygon fill="#63b8ff" stroke="#63b8ff" points="423.6,-623.73 432.95,-618.74 422.53,-616.81 423.6,-623.73"/>
</a>
</g>
</g>
<!-- Node13 -->
<g id="Node000013" class="node">
<title>Node13</title>
<g id="a_Node000013"><a xlink:href="../../dd/d5b/classIEEE_1_1__1588_1_1PTP_1_1__2019_1_1Clocks_1_1PtpPort.html#a2811af5d111ab99d5a60d42c96efd4e5" target="_top" xlink:title="Update announce interval.">
<polygon fill="white" stroke="#666666" points="371,-600 238,-600 238,-559 371,-559 371,-600"/>
<text text-anchor="start" x="246" y="-588" font-family="Helvetica,sans-Serif" font-size="10.00">IEEE::_1588::PTP::</text>
<text text-anchor="start" x="246" y="-577" font-family="Helvetica,sans-Serif" font-size="10.00">_2019::Clocks::PtpPort</text>
<text text-anchor="middle" x="304.5" y="-566" font-family="Helvetica,sans-Serif" font-size="10.00">::set_announce_interval</text>
</a>
</g>
</g>
<!-- Node1&#45;&gt;Node13 -->
<g id="edge12_Node000001_Node000013" class="edge">
<title>Node1&#45;&gt;Node13</title>
<g id="a_edge12_Node000001_Node000013"><a xlink:title=" ">
<path fill="none" stroke="#63b8ff" d="M423,-597.11C405.9,-594.55 387.89,-591.85 371.25,-589.35"/>
<polygon fill="#63b8ff" stroke="#63b8ff" points="422.54,-600.58 432.95,-598.6 423.58,-593.66 422.54,-600.58"/>
</a>
</g>
</g>
<!-- Node14 -->
<g id="Node000014" class="node">
<title>Node14</title>
<g id="a_Node000014"><a xlink:href="../../dd/d5b/classIEEE_1_1__1588_1_1PTP_1_1__2019_1_1Clocks_1_1PtpPort.html#a8899a4df072f1e3753a1d23b2365417e" target="_top" xlink:title="Update sync interval.">
<polygon fill="white" stroke="#666666" points="367,-541 242,-541 242,-500 367,-500 367,-541"/>
<text text-anchor="start" x="250" y="-529" font-family="Helvetica,sans-Serif" font-size="10.00">IEEE::_1588::PTP::</text>
<text text-anchor="start" x="250" y="-518" font-family="Helvetica,sans-Serif" font-size="10.00">_2019::Clocks::PtpPort</text>
<text text-anchor="middle" x="304.5" y="-507" font-family="Helvetica,sans-Serif" font-size="10.00">::set_sync_interval</text>
</a>
</g>
</g>
<!-- Node1&#45;&gt;Node14 -->
<g id="edge13_Node000001_Node000014" class="edge">
<title>Node1&#45;&gt;Node14</title>
<g id="a_edge13_Node000001_Node000014"><a xlink:title=" ">
<path fill="none" stroke="#63b8ff" d="M458.15,-582.78C439.88,-571.93 417.81,-559.72 397,-550.5 387.52,-546.3 377.27,-542.38 367.17,-538.84"/>
<polygon fill="#63b8ff" stroke="#63b8ff" points="456.42,-585.82 466.79,-587.97 460.02,-579.82 456.42,-585.82"/>
</a>
</g>
</g>
<!-- Node15 -->
<g id="Node000015" class="node">
<title>Node15</title>
<g id="a_Node000015"><a xlink:href="../../d1/db2/classIEEE_1_1__1588_1_1PTP_1_1__2019_1_1Integration_1_1BMCAIntegration.html#a697fef5b98bc6c79c858bd428419018c" target="_top" xlink:title="Start BMCA execution coordination.">
<polygon fill="white" stroke="#666666" points="368.5,-482 240.5,-482 240.5,-441 368.5,-441 368.5,-482"/>
<text text-anchor="start" x="248.5" y="-470" font-family="Helvetica,sans-Serif" font-size="10.00">IEEE::_1588::PTP::</text>
<text text-anchor="start" x="248.5" y="-459" font-family="Helvetica,sans-Serif" font-size="10.00">_2019::Integration::</text>
<text text-anchor="middle" x="304.5" y="-448" font-family="Helvetica,sans-Serif" font-size="10.00">BMCAIntegration::start</text>
</a>
</g>
</g>
<!-- Node1&#45;&gt;Node15 -->
<g id="edge14_Node000001_Node000015" class="edge">
<title>Node1&#45;&gt;Node15</title>
<g id="a_edge14_Node000001_Node000015"><a xlink:title=" ">
<path fill="none" stroke="#63b8ff" d="M480.31,-579.23C462.03,-552.81 431.91,-514.64 397,-491.5 388.36,-485.77 378.54,-481.06 368.61,-477.21"/>
<polygon fill="#63b8ff" stroke="#63b8ff" points="477.54,-581.38 486.04,-587.7 483.33,-577.46 477.54,-581.38"/>
</a>
</g>
</g>
<!-- Node17 -->
<g id="Node000017" class="node">
<title>Node17</title>
<g id="a_Node000017"><a xlink:href="../../d1/d29/classIEEE_1_1__1588_1_1PTP_1_1__2019_1_1SyncIntegration.html#ab18dedbcb23a91f6f1a9f541124ed6f2" target="_top" xlink:title="Start synchronization monitoring.">
<polygon fill="white" stroke="#666666" points="368.5,-423 240.5,-423 240.5,-382 368.5,-382 368.5,-423"/>
<text text-anchor="start" x="248.5" y="-411" font-family="Helvetica,sans-Serif" font-size="10.00">IEEE::_1588::PTP::</text>
<text text-anchor="start" x="248.5" y="-400" font-family="Helvetica,sans-Serif" font-size="10.00">_2019::SyncIntegration</text>
<text text-anchor="middle" x="304.5" y="-389" font-family="Helvetica,sans-Serif" font-size="10.00">::start</text>
</a>
</g>
</g>
<!-- Node1&#45;&gt;Node17 -->
<g id="edge16_Node000001_Node000017" class="edge">
<title>Node1&#45;&gt;Node17</title>
<g id="a_edge16_Node000001_Node000017"><a xlink:title=" ">
<path fill="none" stroke="#63b8ff" d="M489.19,-578.34C474.97,-539.21 444.95,-471.37 397,-432.5 388.69,-425.76 378.81,-420.52 368.68,-416.44"/>
<polygon fill="#63b8ff" stroke="#63b8ff" points="485.93,-579.59 492.55,-587.86 492.53,-577.27 485.93,-579.59"/>
</a>
</g>
</g>
<!-- Node18 -->
<g id="Node000018" class="node">
<title>Node18</title>
<g id="a_Node000018"><a xlink:href="../../d1/db2/classIEEE_1_1__1588_1_1PTP_1_1__2019_1_1Integration_1_1BMCAIntegration.html#abf258a80286cd66856b3bcf5ecdfd38f" target="_top" xlink:title="Stop BMCA execution coordination.">
<polygon fill="white" stroke="#666666" points="367.5,-364 241.5,-364 241.5,-323 367.5,-323 367.5,-364"/>
<text text-anchor="start" x="249.5" y="-352" font-family="Helvetica,sans-Serif" font-size="10.00">IEEE::_1588::PTP::</text>
<text text-anchor="start" x="249.5" y="-341" font-family="Helvetica,sans-Serif" font-size="10.00">_2019::Integration::</text>
<text text-anchor="middle" x="304.5" y="-330" font-family="Helvetica,sans-Serif" font-size="10.00">BMCAIntegration::stop</text>
</a>
</g>
</g>
<!-- Node1&#45;&gt;Node18 -->
<g id="edge18_Node000001_Node000018" class="edge">
<title>Node1&#45;&gt;Node18</title>
<g id="a_edge18_Node000001_Node000018"><a xlink:title=" ">
<path fill="none" stroke="#63b8ff" d="M494.05,-578.1C484.35,-528.3 458.23,-429.3 397,-373.5 388.72,-365.96 378.51,-360.3 367.94,-356.07"/>
<polygon fill="#63b8ff" stroke="#63b8ff" points="490.61,-578.75 495.87,-587.95 497.49,-577.48 490.61,-578.75"/>
</a>
</g>
</g>
<!-- Node19 -->
<g id="Node000019" class="node">
<title>Node19</title>
<g id="a_Node000019"><a xlink:href="../../d1/d29/classIEEE_1_1__1588_1_1PTP_1_1__2019_1_1SyncIntegration.html#a98e298d19a63703bf3b6c4360228b2ce" target="_top" xlink:title="Stop synchronization monitoring.">
<polygon fill="white" stroke="#666666" points="382,-304.5 227,-304.5 227,-274.5 382,-274.5 382,-304.5"/>
<text text-anchor="start" x="235" y="-292.5" font-family="Helvetica,sans-Serif" font-size="10.00">IEEE::_1588::PTP::</text>
<text text-anchor="middle" x="304.5" y="-281.5" font-family="Helvetica,sans-Serif" font-size="10.00">_2019::SyncIntegration::stop</text>
</a>
</g>
</g>
<!-- Node1&#45;&gt;Node19 -->
<g id="edge20_Node000001_Node000019" class="edge">
<title>Node1&#45;&gt;Node19</title>
<g id="a_edge20_Node000001_Node000019"><a xlink:title=" ">
<path fill="none" stroke="#63b8ff" d="M497.42,-577.65C492.65,-517.91 473.53,-386.05 397,-314.5 392.55,-310.34 387.47,-306.86 382.05,-303.95"/>
<polygon fill="#63b8ff" stroke="#63b8ff" points="493.95,-578.21 498.15,-587.93 500.93,-577.71 493.95,-578.21"/>
</a>
</g>
</g>
<!-- Node20 -->
<g id="Node000020" class="node">
<title>Node20</title>
<g id="a_Node000020"><a xlink:href="../../d1/db2/classIEEE_1_1__1588_1_1PTP_1_1__2019_1_1Integration_1_1BMCAIntegration.html#a7af857d41454f00a13973561f6b7ef47" target="_top" xlink:title="Periodic tick for BMCA execution and health monitoring.">
<polygon fill="white" stroke="#666666" points="366,-256 243,-256 243,-215 366,-215 366,-256"/>
<text text-anchor="start" x="251" y="-244" font-family="Helvetica,sans-Serif" font-size="10.00">IEEE::_1588::PTP::</text>
<text text-anchor="start" x="251" y="-233" font-family="Helvetica,sans-Serif" font-size="10.00">_2019::Integration::</text>
<text text-anchor="middle" x="304.5" y="-222" font-family="Helvetica,sans-Serif" font-size="10.00">BMCAIntegration::tick</text>
</a>
</g>
</g>
<!-- Node1&#45;&gt;Node20 -->
<g id="edge22_Node000001_Node000020" class="edge">
<title>Node1&#45;&gt;Node20</title>
<g id="a_edge22_Node000001_Node000020"><a xlink:title=" ">
<path fill="none" stroke="#63b8ff" d="M498.89,-577.69C496.94,-511.36 482.96,-353.88 397,-265.5 388.61,-256.87 377.7,-250.72 366.35,-246.34"/>
<polygon fill="#63b8ff" stroke="#63b8ff" points="495.39,-577.97 499.11,-587.9 502.39,-577.82 495.39,-577.97"/>
</a>
</g>
</g>
<!-- Node21 -->
<g id="Node000021" class="node">
<title>Node21</title>
<g id="a_Node000021"><a xlink:href="../../d1/d29/classIEEE_1_1__1588_1_1PTP_1_1__2019_1_1SyncIntegration.html#ad19e491252ce7b0b2e7695347cde11c1" target="_top" xlink:title="Periodic tick for sync monitoring and servo control.">
<polygon fill="white" stroke="#666666" points="380.5,-196.5 228.5,-196.5 228.5,-166.5 380.5,-166.5 380.5,-196.5"/>
<text text-anchor="start" x="236.5" y="-184.5" font-family="Helvetica,sans-Serif" font-size="10.00">IEEE::_1588::PTP::</text>
<text text-anchor="middle" x="304.5" y="-173.5" font-family="Helvetica,sans-Serif" font-size="10.00">_2019::SyncIntegration::tick</text>
</a>
</g>
</g>
<!-- Node1&#45;&gt;Node21 -->
<g id="edge23_Node000001_Node000021" class="edge">
<title>Node1&#45;&gt;Node21</title>
<g id="a_edge23_Node000001_Node000021"><a xlink:title=" ">
<path fill="none" stroke="#63b8ff" d="M495.21,-577.74C484.2,-493.21 449.61,-260.08 397,-206.5 392.27,-201.68 386.71,-197.77 380.7,-194.59"/>
<polygon fill="#63b8ff" stroke="#63b8ff" points="491.75,-578.28 496.5,-587.75 498.7,-577.39 491.75,-578.28"/>
</a>
</g>
</g>
<!-- Node22 -->
<g id="Node000022" class="node">
<title>Node22</title>
<g id="a_Node000022"><a xlink:href="../../da/d44/structIEEE_1_1__1588_1_1PTP_1_1__2019_1_1TLVHeader.html#ae4467c38de8f3a88b72ed79b9d6f4300" target="_top" xlink:title="Validate TLV header.">
<polygon fill="white" stroke="#666666" points="379.5,-148.5 229.5,-148.5 229.5,-118.5 379.5,-118.5 379.5,-148.5"/>
<text text-anchor="start" x="237.5" y="-136.5" font-family="Helvetica,sans-Serif" font-size="10.00">IEEE::_1588::PTP::</text>
<text text-anchor="middle" x="304.5" y="-125.5" font-family="Helvetica,sans-Serif" font-size="10.00">_2019::TLVHeader::validate</text>
</a>
</g>
</g>
<!-- Node1&#45;&gt;Node22 -->
<g id="edge24_Node000001_Node000022" class="edge">
<title>Node1&#45;&gt;Node22</title>
<g id="a_edge24_Node000001_Node000022"><a xlink:title=" ">
<path fill="none" stroke="#63b8ff" d="M496.16,-577.73C487.1,-486.25 455.96,-218.51 397,-157.5 392.09,-152.42 386.25,-148.37 379.93,-145.15"/>
<polygon fill="#63b8ff" stroke="#63b8ff" points="492.68,-578.13 497.13,-587.75 499.65,-577.46 492.68,-578.13"/>
</a>
</g>
</g>
<!-- Node23 -->
<g id="Node000023" class="node">
<title>Node23</title>
<g id="a_Node000023"><a xlink:href="../../d2/db7/structIEEE_1_1__1588_1_1PTP_1_1__2019_1_1ManagementMessageBody.html#a62575a1c11a38721698204a65d6f2cb4" target="_top" xlink:title="Validate management message body.">
<polygon fill="white" stroke="#666666" points="397,-100 212,-100 212,-59 397,-59 397,-100"/>
<text text-anchor="start" x="220" y="-88" font-family="Helvetica,sans-Serif" font-size="10.00">IEEE::_1588::PTP::</text>
<text text-anchor="start" x="220" y="-77" font-family="Helvetica,sans-Serif" font-size="10.00">_2019::ManagementMessageBody</text>
<text text-anchor="middle" x="304.5" y="-66" font-family="Helvetica,sans-Serif" font-size="10.00">::validate</text>
</a>
</g>
</g>
<!-- Node1&#45;&gt;Node23 -->
<g id="edge25_Node000001_Node000023" class="edge">
<title>Node1&#45;&gt;Node23</title>
<g id="a_edge25_Node000001_Node000023"><a xlink:title=" ">
<path fill="none" stroke="#63b8ff" d="M496.69,-577.63C488.79,-479.96 459.79,-179.98 397,-109.5 393.89,-106.01 390.36,-102.92 386.55,-100.19"/>
<polygon fill="#63b8ff" stroke="#63b8ff" points="493.21,-578.05 497.49,-587.74 500.19,-577.49 493.21,-578.05"/>
</a>
</g>
</g>
<!-- Node24 -->
<g id="Node000024" class="node">
<title>Node24</title>
<g id="a_Node000024"><a xlink:href="../../dc/dd4/namespaceIEEE_1_1__1588_1_1PTP_1_1__2019_1_1Clocks.html#acbf721ede1d1595c80b913fef8c77a95" target="_top" xlink:title="Validate TLV length field against buffer bounds.">
<polygon fill="white" stroke="#666666" points="369.5,-41 239.5,-41 239.5,0 369.5,0 369.5,-41"/>
<text text-anchor="start" x="247.5" y="-29" font-family="Helvetica,sans-Serif" font-size="10.00">IEEE::_1588::PTP::</text>
<text text-anchor="start" x="247.5" y="-18" font-family="Helvetica,sans-Serif" font-size="10.00">_2019::Clocks::validate</text>
<text text-anchor="middle" x="304.5" y="-7" font-family="Helvetica,sans-Serif" font-size="10.00">_tlv_length</text>
</a>
</g>
</g>
<!-- Node1&#45;&gt;Node24 -->
<g id="edge26_Node000001_Node000024" class="edge">
<title>Node1&#45;&gt;Node24</title>
<g id="a_edge26_Node000001_Node000024"><a xlink:title=" ">
<path fill="none" stroke="#63b8ff" d="M497.42,-577.55C491.43,-472.35 466.88,-130.59 397,-50.5 389.75,-42.19 380.15,-36.16 369.9,-31.81"/>
<polygon fill="#63b8ff" stroke="#63b8ff" points="493.94,-578.02 497.98,-587.81 500.93,-577.64 493.94,-578.02"/>
</a>
</g>
</g>
<!-- Node16 -->
<g id="Node000016" class="node">
<title>Node16</title>
<g id="a_Node000016"><a xlink:href="../../d3/d1e/classIEEE_1_1__1588_1_1PTP_1_1__2019_1_1MessageFlowCoordinator.html#ae5378f7adda0a2d9a93dcb7979b1a44b" target="_top" xlink:title="Start message flow processing.">
<polygon fill="white" stroke="#666666" points="176,-393 0,-393 0,-352 176,-352 176,-393"/>
<text text-anchor="start" x="8" y="-381" font-family="Helvetica,sans-Serif" font-size="10.00">IEEE::_1588::PTP::</text>
<text text-anchor="start" x="8" y="-370" font-family="Helvetica,sans-Serif" font-size="10.00">_2019::MessageFlowCoordinator</text>
<text text-anchor="middle" x="88" y="-359" font-family="Helvetica,sans-Serif" font-size="10.00">::start</text>
</a>
</g>
</g>
<!-- Node15&#45;&gt;Node16 -->
<g id="edge15_Node000015_Node000016" class="edge">
<title>Node15&#45;&gt;Node16</title>
<g id="a_edge15_Node000015_Node000016"><a xlink:title=" ">
<path fill="none" stroke="#63b8ff" d="M230.27,-439.35C224.05,-437.15 217.89,-434.85 212,-432.5 182.99,-420.9 151.33,-405.39 127.39,-393.04"/>
<polygon fill="#63b8ff" stroke="#63b8ff" points="229.47,-442.78 240.07,-442.73 231.76,-436.16 229.47,-442.78"/>
</a>
</g>
</g>
<!-- Node17&#45;&gt;Node16 -->
<g id="edge17_Node000017_Node000016" class="edge">
<title>Node17&#45;&gt;Node16</title>
<g id="a_edge17_Node000017_Node000016"><a xlink:title=" ">
<path fill="none" stroke="#63b8ff" d="M230.27,-392.26C212.93,-389.83 194.27,-387.22 176.38,-384.72"/>
<polygon fill="#63b8ff" stroke="#63b8ff" points="229.91,-395.74 240.3,-393.66 230.88,-388.81 229.91,-395.74"/>
</a>
</g>
</g>
<!-- Node18&#45;&gt;Node16 -->
<g id="edge19_Node000018_Node000016" class="edge">
<title>Node18&#45;&gt;Node16</title>
<g id="a_edge19_Node000018_Node000016"><a xlink:title=" ">
<path fill="none" stroke="#63b8ff" d="M231.21,-353.27C213.5,-355.67 194.36,-358.26 176.03,-360.73"/>
<polygon fill="#63b8ff" stroke="#63b8ff" points="232.02,-356.7 241.46,-351.89 231.08,-349.76 232.02,-356.7"/>
</a>
</g>
</g>
<!-- Node19&#45;&gt;Node16 -->
<g id="edge21_Node000019_Node000016" class="edge">
<title>Node19&#45;&gt;Node16</title>
<g id="a_edge21_Node000019_Node000016"><a xlink:title=" ">
<path fill="none" stroke="#63b8ff" d="M232.83,-307.48C225.74,-309.68 218.69,-312.03 212,-314.5 183.21,-325.13 151.94,-339.92 128.13,-351.9"/>
<polygon fill="#63b8ff" stroke="#63b8ff" points="233.92,-310.81 242.49,-304.58 231.91,-304.1 233.92,-310.81"/>
</a>
</g>
</g>
</g>
</svg>
