<?xml version="1.0" encoding="UTF-8" standalone="no"?>
<!DOCTYPE svg PUBLIC "-//W3C//DTD SVG 1.1//EN"
 "http://www.w3.org/Graphics/SVG/1.1/DTD/svg11.dtd">
<!-- Generated by graphviz version 2.43.0 (0)
 -->
<!-- Title: IEEE::_1588::PTP::_2019::CommonHeader::setMessageType Pages: 1 -->
<svg width="536pt" height="98pt"
 viewBox="0.00 0.00 536.00 97.50" xmlns="http://www.w3.org/2000/svg" xmlns:xlink="http://www.w3.org/1999/xlink">
<g id="graph0" class="graph" transform="scale(1 1) rotate(0) translate(4 93.5)">
<title>IEEE::_1588::PTP::_2019::CommonHeader::setMessageType</title>
<!-- Node1 -->
<g id="Node000001" class="node">
<title>Node1</title>
<g id="a_Node000001"><a xlink:title="Set message type with deterministic execution.">
<polygon fill="#999999" stroke="#666666" points="528,-68 397,-68 397,-27 528,-27 528,-68"/>
<text text-anchor="start" x="405" y="-56" font-family="Helvetica,sans-Serif" font-size="10.00">IEEE::_1588::PTP::</text>
<text text-anchor="start" x="405" y="-45" font-family="Helvetica,sans-Serif" font-size="10.00">_2019::CommonHeader</text>
<text text-anchor="middle" x="462.5" y="-34" font-family="Helvetica,sans-Serif" font-size="10.00">::setMessageType</text>
</a>
</g>
</g>
<!-- Node2 -->
<g id="Node000002" class="node">
<title>Node2</title>
<g id="a_Node000002"><a xlink:href="../../d0/de3/structIEEE_1_1__1588_1_1PTP_1_1__2019_1_1PTPMessage.html#a243dec37d21b12d026928fae10a9f6e6" target="_top" xlink:title="Initialize message with proper defaults.">
<polygon fill="white" stroke="#666666" points="361,-89.5 200,-89.5 200,-59.5 361,-59.5 361,-89.5"/>
<text text-anchor="start" x="208" y="-77.5" font-family="Helvetica,sans-Serif" font-size="10.00">IEEE::_1588::PTP::</text>
<text text-anchor="middle" x="280.5" y="-66.5" font-family="Helvetica,sans-Serif" font-size="10.00">_2019::PTPMessage::initialize</text>
</a>
</g>
</g>
<!-- Node1&#45;&gt;Node2 -->
<g id="edge1_Node000001_Node000002" class="edge">
<title>Node1&#45;&gt;Node2</title>
<g id="a_edge1_Node000001_Node000002"><a xlink:title=" ">
<path fill="none" stroke="#63b8ff" d="M386.87,-58.7C378.34,-59.97 369.62,-61.28 361.03,-62.57"/>
<polygon fill="#63b8ff" stroke="#63b8ff" points="387.4,-62.15 396.77,-57.21 386.36,-55.23 387.4,-62.15"/>
</a>
</g>
</g>
<!-- Node3 -->
<g id="Node000003" class="node">
<title>Node3</title>
<g id="a_Node000003"><a xlink:href="../../dd/d5b/classIEEE_1_1__1588_1_1PTP_1_1__2019_1_1Clocks_1_1PtpPort.html#a31e8d5698f3088d9f9cbda5dc8a859f6" target="_top" xlink:title="Process received Delay_Req message.">
<polygon fill="white" stroke="#666666" points="343,-41 218,-41 218,0 343,0 343,-41"/>
<text text-anchor="start" x="226" y="-29" font-family="Helvetica,sans-Serif" font-size="10.00">IEEE::_1588::PTP::</text>
<text text-anchor="start" x="226" y="-18" font-family="Helvetica,sans-Serif" font-size="10.00">_2019::Clocks::PtpPort</text>
<text text-anchor="middle" x="280.5" y="-7" font-family="Helvetica,sans-Serif" font-size="10.00">::process_delay_req</text>
</a>
</g>
</g>
<!-- Node1&#45;&gt;Node3 -->
<g id="edge2_Node000001_Node000003" class="edge">
<title>Node1&#45;&gt;Node3</title>
<g id="a_edge2_Node000001_Node000003"><a xlink:title=" ">
<path fill="none" stroke="#63b8ff" d="M386.84,-36.3C372.33,-34.12 357.28,-31.87 343.25,-29.76"/>
<polygon fill="#63b8ff" stroke="#63b8ff" points="386.36,-39.77 396.77,-37.79 387.4,-32.85 386.36,-39.77"/>
</a>
</g>
</g>
<!-- Node4 -->
<g id="Node000004" class="node">
<title>Node4</title>
<g id="a_Node000004"><a xlink:href="../../d0/d7d/classIEEE_1_1__1588_1_1PTP_1_1__2019_1_1Clocks_1_1BoundaryClock.html#a8d21ce8a95c4f7fcee5ab7853fa6c60e" target="_top" xlink:title="Process received PTP message on specific port.">
<polygon fill="white" stroke="#666666" points="164,-41 0,-41 0,0 164,0 164,-41"/>
<text text-anchor="start" x="8" y="-29" font-family="Helvetica,sans-Serif" font-size="10.00">IEEE::_1588::PTP::</text>
<text text-anchor="start" x="8" y="-18" font-family="Helvetica,sans-Serif" font-size="10.00">_2019::Clocks::BoundaryClock</text>
<text text-anchor="middle" x="82" y="-7" font-family="Helvetica,sans-Serif" font-size="10.00">::process_message</text>
</a>
</g>
</g>
<!-- Node3&#45;&gt;Node4 -->
<g id="edge3_Node000003_Node000004" class="edge">
<title>Node3&#45;&gt;Node4</title>
<g id="a_edge3_Node000003_Node000004"><a xlink:title=" ">
<path fill="none" stroke="#63b8ff" d="M207.73,-20.5C193.59,-20.5 178.67,-20.5 164.25,-20.5"/>
<polygon fill="#63b8ff" stroke="#63b8ff" points="207.87,-24 217.87,-20.5 207.87,-17 207.87,-24"/>
</a>
</g>
</g>
</g>
</svg>
