<?xml version="1.0" encoding="UTF-8" standalone="no"?>
<!DOCTYPE svg PUBLIC "-//W3C//DTD SVG 1.1//EN"
 "http://www.w3.org/Graphics/SVG/1.1/DTD/svg11.dtd">
<!-- Generated by graphviz version 2.43.0 (0)
 -->
<!-- Title: IEEE::_1588::PTP::_2019::Clocks::ParentDataSet Pages: 1 -->
<svg width="494pt" height="597pt"
 viewBox="0.00 0.00 494.00 597.00" xmlns="http://www.w3.org/2000/svg" xmlns:xlink="http://www.w3.org/1999/xlink">
<g id="graph0" class="graph" transform="scale(1 1) rotate(0) translate(4 593)">
<title>IEEE::_1588::PTP::_2019::Clocks::ParentDataSet</title>
<!-- Node1 -->
<g id="Node000001" class="node">
<title>Node1</title>
<g id="a_Node000001"><a xlink:title="Parent Data Set per IEEE 1588&#45;2019 Section 8.2.3.">
<polygon fill="#999999" stroke="transparent" points="322,-142 168,-142 168,0 322,0 322,-142"/>
<text text-anchor="start" x="173" y="-130" font-family="Helvetica,sans-Serif" font-size="10.00">IEEE::_1588::PTP::</text>
<text text-anchor="start" x="173" y="-119" font-family="Helvetica,sans-Serif" font-size="10.00">_2019::Clocks::ParentDataSet</text>
<text text-anchor="start" x="176.5" y="-104" font-family="Helvetica,sans-Serif" font-size="10.00">+</text>
<text text-anchor="start" x="194" y="-104" font-family="Helvetica,sans-Serif" font-size="10.00">parent_stats</text>
<text text-anchor="start" x="176.5" y="-89" font-family="Helvetica,sans-Serif" font-size="10.00">+</text>
<text text-anchor="start" x="194" y="-89" font-family="Helvetica,sans-Serif" font-size="10.00">observed_parent_offset</text>
<text text-anchor="start" x="194" y="-78" font-family="Helvetica,sans-Serif" font-size="10.00">_scaled_log_variance</text>
<text text-anchor="start" x="176.5" y="-63" font-family="Helvetica,sans-Serif" font-size="10.00">+</text>
<text text-anchor="start" x="194" y="-63" font-family="Helvetica,sans-Serif" font-size="10.00">observed_parent_clock</text>
<text text-anchor="start" x="194" y="-52" font-family="Helvetica,sans-Serif" font-size="10.00">_phase_change_rate</text>
<text text-anchor="start" x="176.5" y="-37" font-family="Helvetica,sans-Serif" font-size="10.00">+</text>
<text text-anchor="start" x="194" y="-37" font-family="Helvetica,sans-Serif" font-size="10.00">grandmaster_priority1</text>
<text text-anchor="start" x="176.5" y="-22" font-family="Helvetica,sans-Serif" font-size="10.00">+</text>
<text text-anchor="start" x="194" y="-22" font-family="Helvetica,sans-Serif" font-size="10.00">grandmaster_priority2</text>
<text text-anchor="start" x="243" y="-7" font-family="Helvetica,sans-Serif" font-size="10.00"> </text>
<polygon fill="#666666" stroke="#666666" points="168,-114 168,-114 322,-114 322,-114 168,-114"/>
<polygon fill="#666666" stroke="#666666" points="168,-17 168,-17 192,-17 192,-17 168,-17"/>
<polygon fill="#666666" stroke="#666666" points="192,-17 192,-17 322,-17 322,-17 192,-17"/>
<polygon fill="none" stroke="#666666" points="168,0 168,-142 322,-142 322,0 168,0"/>
</a>
</g>
</g>
<!-- Node2 -->
<g id="Node000002" class="node">
<title>Node2</title>
<g id="a_Node000002"><a xlink:href="../../dc/d02/structIEEE_1_1__1588_1_1PTP_1_1__2019_1_1Types_1_1PortIdentity.html" target="_top" xlink:title="Port Identity &#45; combination of clock identity and port number.">
<polygon fill="white" stroke="transparent" points="313.5,-290 176.5,-290 176.5,-200 313.5,-200 313.5,-290"/>
<text text-anchor="start" x="182" y="-278" font-family="Helvetica,sans-Serif" font-size="10.00">IEEE::_1588::PTP::</text>
<text text-anchor="start" x="182" y="-267" font-family="Helvetica,sans-Serif" font-size="10.00">_2019::Types::PortIdentity</text>
<text text-anchor="start" x="193.5" y="-252" font-family="Helvetica,sans-Serif" font-size="10.00">+</text>
<text text-anchor="start" x="219" y="-252" font-family="Helvetica,sans-Serif" font-size="10.00">port_number</text>
<text text-anchor="start" x="193.5" y="-237" font-family="Helvetica,sans-Serif" font-size="10.00">+</text>
<text text-anchor="start" x="219" y="-237" font-family="Helvetica,sans-Serif" font-size="10.00">operator==()</text>
<text text-anchor="start" x="193.5" y="-222" font-family="Helvetica,sans-Serif" font-size="10.00">+</text>
<text text-anchor="start" x="219" y="-222" font-family="Helvetica,sans-Serif" font-size="10.00">operator&lt;()</text>
<text text-anchor="start" x="193.5" y="-207" font-family="Helvetica,sans-Serif" font-size="10.00">+</text>
<text text-anchor="start" x="219" y="-207" font-family="Helvetica,sans-Serif" font-size="10.00">validate()</text>
<polygon fill="#666666" stroke="#666666" points="177,-262 177,-262 314,-262 314,-262 177,-262"/>
<polygon fill="#666666" stroke="#666666" points="177,-247 177,-247 217,-247 217,-247 177,-247"/>
<polygon fill="#666666" stroke="#666666" points="217,-247 217,-247 314,-247 314,-247 217,-247"/>
<polygon fill="none" stroke="#666666" points="176.5,-200 176.5,-290 313.5,-290 313.5,-200 176.5,-200"/>
</a>
</g>
</g>
<!-- Node2&#45;&gt;Node1 -->
<g id="edge1_Node000001_Node000002" class="edge">
<title>Node2&#45;&gt;Node1</title>
<g id="a_edge1_Node000001_Node000002"><a xlink:title=" ">
<path fill="none" stroke="#63b8ff" d="M245,-199.71C245,-185.88 245,-170.16 245,-154.59"/>
<polygon fill="none" stroke="#63b8ff" points="245,-154.18 241,-148.18 245,-142.18 249,-148.18 245,-154.18"/>
</a>
</g>
<text text-anchor="middle" x="300.5" y="-168.5" font-family="Helvetica,sans-Serif" font-size="10.00" fill="grey"> +parent_port_identity</text>
</g>
<!-- Node3 -->
<g id="Node000003" class="node">
<title>Node3</title>
<g id="a_Node000003"><a xlink:title=" ">
<polygon fill="white" stroke="transparent" points="114,-397 0,-397 0,-337 114,-337 114,-397"/>
<text text-anchor="start" x="5" y="-385" font-family="Helvetica,sans-Serif" font-size="10.00">std::array&lt; std::uint8</text>
<text text-anchor="start" x="40.5" y="-374" font-family="Helvetica,sans-Serif" font-size="10.00">_t, 8 &gt;</text>
<text text-anchor="start" x="15.5" y="-359" font-family="Helvetica,sans-Serif" font-size="10.00">+</text>
<text text-anchor="start" x="40" y="-359" font-family="Helvetica,sans-Serif" font-size="10.00">elements</text>
<text text-anchor="start" x="55" y="-344" font-family="Helvetica,sans-Serif" font-size="10.00"> </text>
<polygon fill="#666666" stroke="#666666" points="0,-369 0,-369 114,-369 114,-369 0,-369"/>
<polygon fill="#666666" stroke="#666666" points="0,-354 0,-354 38,-354 38,-354 0,-354"/>
<polygon fill="#666666" stroke="#666666" points="38,-354 38,-354 114,-354 114,-354 38,-354"/>
<polygon fill="none" stroke="#666666" points="0,-337 0,-397 114,-397 114,-337 0,-337"/>
</a>
</g>
</g>
<!-- Node3&#45;&gt;Node1 -->
<g id="edge5_Node000001_Node000003" class="edge">
<title>Node3&#45;&gt;Node1</title>
<g id="a_edge5_Node000001_Node000003"><a xlink:title=" ">
<path fill="none" stroke="#63b8ff" d="M47.27,-336.99C37.44,-302.19 26.71,-243.15 50,-200 72.91,-157.56 116.7,-126.91 156.98,-106.26"/>
<polygon fill="none" stroke="#63b8ff" points="157.2,-106.15 160.81,-99.91 167.96,-100.83 164.35,-107.08 157.2,-106.15"/>
</a>
</g>
<text text-anchor="middle" x="108.5" y="-242.5" font-family="Helvetica,sans-Serif" font-size="10.00" fill="grey"> +grandmaster_identity</text>
</g>
<!-- Node3&#45;&gt;Node2 -->
<g id="edge2_Node000002_Node000003" class="edge">
<title>Node3&#45;&gt;Node2</title>
<g id="a_edge2_Node000002_Node000003"><a xlink:title=" ">
<path fill="none" stroke="#63b8ff" d="M102.51,-336.95C121.65,-324.74 144.48,-310.16 166.2,-296.3"/>
<polygon fill="none" stroke="#63b8ff" points="166.3,-296.24 169.2,-289.64 176.41,-289.78 173.51,-296.38 166.3,-296.24"/>
</a>
</g>
<text text-anchor="middle" x="186" y="-311" font-family="Helvetica,sans-Serif" font-size="10.00" fill="grey"> +clock_identity</text>
</g>
<!-- Node4 -->
<g id="Node000004" class="node">
<title>Node4</title>
<g id="a_Node000004"><a xlink:title=" ">
<polygon fill="white" stroke="transparent" points="100,-493 14,-493 14,-444 100,-444 100,-493"/>
<text text-anchor="start" x="19" y="-480.5" font-family="Helvetica,sans-Serif" font-size="10.00">std::array&lt; T &gt;</text>
<text text-anchor="start" x="55" y="-465.5" font-family="Helvetica,sans-Serif" font-size="10.00"> </text>
<text text-anchor="start" x="55" y="-450.5" font-family="Helvetica,sans-Serif" font-size="10.00"> </text>
<polygon fill="#666666" stroke="#666666" points="14,-475.5 14,-475.5 100,-475.5 100,-475.5 14,-475.5"/>
<polygon fill="#666666" stroke="#666666" points="14,-460.5 14,-460.5 100,-460.5 100,-460.5 14,-460.5"/>
<polygon fill="none" stroke="#666666" points="14,-444 14,-493 100,-493 100,-444 14,-444"/>
</a>
</g>
</g>
<!-- Node4&#45;&gt;Node3 -->
<g id="edge3_Node000003_Node000004" class="edge">
<title>Node4&#45;&gt;Node3</title>
<g id="a_edge3_Node000003_Node000004"><a xlink:title=" ">
<path fill="none" stroke="orange" d="M57,-433.87C57,-421.94 57,-408.62 57,-397.1"/>
<polygon fill="orange" stroke="orange" points="53.5,-433.92 57,-443.92 60.5,-433.92 53.5,-433.92"/>
</a>
</g>
<text text-anchor="middle" x="103.5" y="-418" font-family="Helvetica,sans-Serif" font-size="10.00" fill="grey"> &lt; std::uint8_t, 8 &gt;</text>
</g>
<!-- Node5 -->
<g id="Node000005" class="node">
<title>Node5</title>
<g id="a_Node000005"><a xlink:title=" ">
<polygon fill="white" stroke="transparent" points="65.5,-589 48.5,-589 48.5,-540 65.5,-540 65.5,-589"/>
<text text-anchor="start" x="54" y="-576.5" font-family="Helvetica,sans-Serif" font-size="10.00">T</text>
<text text-anchor="start" x="55.5" y="-561.5" font-family="Helvetica,sans-Serif" font-size="10.00"> </text>
<text text-anchor="start" x="55.5" y="-546.5" font-family="Helvetica,sans-Serif" font-size="10.00"> </text>
<polygon fill="#666666" stroke="#666666" points="49,-571.5 49,-571.5 66,-571.5 66,-571.5 49,-571.5"/>
<polygon fill="#666666" stroke="#666666" points="49,-556.5 49,-556.5 66,-556.5 66,-556.5 49,-556.5"/>
<polygon fill="none" stroke="#666666" points="48.5,-540 48.5,-589 65.5,-589 65.5,-540 48.5,-540"/>
</a>
</g>
</g>
<!-- Node5&#45;&gt;Node4 -->
<g id="edge4_Node000004_Node000005" class="edge">
<title>Node5&#45;&gt;Node4</title>
<g id="a_edge4_Node000004_Node000005"><a xlink:title=" ">
<path fill="none" stroke="#63b8ff" d="M57,-539.78C57,-529.32 57,-516.79 57,-505.23"/>
<polygon fill="none" stroke="#63b8ff" points="57,-505.21 53,-499.21 57,-493.21 61,-499.21 57,-505.21"/>
</a>
</g>
<text text-anchor="middle" x="86" y="-514" font-family="Helvetica,sans-Serif" font-size="10.00" fill="grey"> +elements</text>
</g>
<!-- Node6 -->
<g id="Node000006" class="node">
<title>Node6</title>
<g id="a_Node000006"><a xlink:href="../../de/da1/structIEEE_1_1__1588_1_1PTP_1_1__2019_1_1Types_1_1ClockQuality.html" target="_top" xlink:title="Clock Quality &#45; describes the quality of a clock.">
<polygon fill="white" stroke="transparent" points="486,-290 332,-290 332,-200 486,-200 486,-290"/>
<text text-anchor="start" x="343" y="-278" font-family="Helvetica,sans-Serif" font-size="10.00">IEEE::_1588::PTP::</text>
<text text-anchor="start" x="343" y="-267" font-family="Helvetica,sans-Serif" font-size="10.00">_2019::Types::ClockQuality</text>
<text text-anchor="start" x="336" y="-252" font-family="Helvetica,sans-Serif" font-size="10.00">+</text>
<text text-anchor="start" x="349" y="-252" font-family="Helvetica,sans-Serif" font-size="10.00">clock_class</text>
<text text-anchor="start" x="336" y="-237" font-family="Helvetica,sans-Serif" font-size="10.00">+</text>
<text text-anchor="start" x="349" y="-237" font-family="Helvetica,sans-Serif" font-size="10.00">clock_accuracy</text>
<text text-anchor="start" x="336" y="-222" font-family="Helvetica,sans-Serif" font-size="10.00">+</text>
<text text-anchor="start" x="349" y="-222" font-family="Helvetica,sans-Serif" font-size="10.00">offset_scaled_log_variance</text>
<text text-anchor="start" x="407" y="-207" font-family="Helvetica,sans-Serif" font-size="10.00"> </text>
<polygon fill="#666666" stroke="#666666" points="332,-262 332,-262 486,-262 486,-262 332,-262"/>
<polygon fill="#666666" stroke="#666666" points="332,-217 332,-217 347,-217 347,-217 332,-217"/>
<polygon fill="#666666" stroke="#666666" points="347,-217 347,-217 486,-217 486,-217 347,-217"/>
<polygon fill="none" stroke="#666666" points="332,-200 332,-290 486,-290 486,-200 332,-200"/>
</a>
</g>
</g>
<!-- Node6&#45;&gt;Node1 -->
<g id="edge6_Node000001_Node000006" class="edge">
<title>Node6&#45;&gt;Node1</title>
<g id="a_edge6_Node000001_Node000006"><a xlink:title=" ">
<path fill="none" stroke="#63b8ff" d="M387.58,-199.96C379.89,-186.39 370.5,-171.9 360,-160 351.47,-150.33 341.74,-141 331.63,-132.27"/>
<polygon fill="none" stroke="#63b8ff" points="331.47,-132.13 324.3,-131.34 322.27,-124.42 329.44,-125.21 331.47,-132.13"/>
</a>
</g>
<text text-anchor="start" x="376" y="-174" font-family="Helvetica,sans-Serif" font-size="10.00" fill="grey"> +grandmaster_clock</text>
<text text-anchor="middle" x="428.5" y="-163" font-family="Helvetica,sans-Serif" font-size="10.00" fill="grey">_quality</text>
</g>
</g>
</svg>
