<?xml version="1.0" encoding="UTF-8" standalone="no"?>
<!DOCTYPE svg PUBLIC "-//W3C//DTD SVG 1.1//EN"
 "http://www.w3.org/Graphics/SVG/1.1/DTD/svg11.dtd">
<!-- Generated by graphviz version 2.43.0 (0)
 -->
<!-- Title: IEEE::_1588::PTP::_2019::Clocks::SynchronizationData Pages: 1 -->
<svg width="495pt" height="396pt"
 viewBox="0.00 0.00 495.00 396.00" xmlns="http://www.w3.org/2000/svg" xmlns:xlink="http://www.w3.org/1999/xlink">

<svg id="main" version="1.1" xmlns="http://www.w3.org/2000/svg" xmlns:xlink="http://www.w3.org/1999/xlink" xml:space="preserve" onload="init(evt)">
<style type="text/css"><![CDATA[
.node, .edge {opacity: 0.7;}
.node.selected, .edge.selected {opacity: 1;}
.edge:hover path { stroke: red; }
.edge:hover polygon { stroke: red; fill: red; }
]]></style>
<script type="application/ecmascript" xlink:href="../../svg.min.js"/>
<svg id="graph" class="graph">
<g id="graph0" class="graph" transform="scale(1 1) rotate(0) translate(4 392)">
<title>IEEE::_1588::PTP::_2019::Clocks::SynchronizationData</title>
<!-- Node1 -->
<g id="Node000001" class="node">
<title>Node1</title>
<g id="a_Node000001"><a xlink:title="Clock synchronization information.">
<polygon fill="#999999" stroke="transparent" points="322,-75 137,-75 137,0 322,0 322,-75"/>
<text text-anchor="start" x="142.5" y="-62.5" font-family="Helvetica,sans-Serif" font-size="10.00">IEEE::_1588::PTP::</text>
<text text-anchor="start" x="142.5" y="-51.5" font-family="Helvetica,sans-Serif" font-size="10.00">_2019::Clocks::SynchronizationData</text>
<text text-anchor="start" x="228" y="-36.5" font-family="Helvetica,sans-Serif" font-size="10.00"> </text>
<text text-anchor="start" x="155" y="-21.5" font-family="Helvetica,sans-Serif" font-size="10.00">+</text>
<text text-anchor="start" x="181.5" y="-21.5" font-family="Helvetica,sans-Serif" font-size="10.00">SynchronizationData()</text>
<text text-anchor="start" x="155" y="-6.5" font-family="Helvetica,sans-Serif" font-size="10.00">+</text>
<text text-anchor="start" x="181.5" y="-6.5" font-family="Helvetica,sans-Serif" font-size="10.00">calculateOffset()</text>
<polygon fill="#666666" stroke="#666666" points="137.5,-46.5 137.5,-46.5 322.5,-46.5 322.5,-46.5 137.5,-46.5"/>
<polygon fill="#666666" stroke="#666666" points="137.5,-31.5 137.5,-31.5 322.5,-31.5 322.5,-31.5 137.5,-31.5"/>
<polygon fill="none" stroke="#666666" points="137,0 137,-75 322,-75 322,0 137,0"/>
</a>
</g>
</g>
<!-- Node2 -->
<g id="Node000002" class="node">
<title>Node2</title>
<g id="a_Node000002"><a xlink:href="../../d4/d6e/structIEEE_1_1__1588_1_1PTP_1_1__2019_1_1Types_1_1Timestamp.html" target="_top" xlink:title="PTP Timestamp &#45; seconds and nanoseconds representation.">
<polygon fill="white" stroke="transparent" points="135,-388 0,-388 0,-133 135,-133 135,-388"/>
<text text-anchor="start" x="5.5" y="-375.5" font-family="Helvetica,sans-Serif" font-size="10.00">IEEE::_1588::PTP::</text>
<text text-anchor="start" x="5.5" y="-364.5" font-family="Helvetica,sans-Serif" font-size="10.00">_2019::Types::Timestamp</text>
<text text-anchor="start" x="11" y="-349.5" font-family="Helvetica,sans-Serif" font-size="10.00">+</text>
<text text-anchor="start" x="30.5" y="-349.5" font-family="Helvetica,sans-Serif" font-size="10.00">seconds_high</text>
<text text-anchor="start" x="11" y="-334.5" font-family="Helvetica,sans-Serif" font-size="10.00">+</text>
<text text-anchor="start" x="30.5" y="-334.5" font-family="Helvetica,sans-Serif" font-size="10.00">seconds_low</text>
<text text-anchor="start" x="11" y="-319.5" font-family="Helvetica,sans-Serif" font-size="10.00">+</text>
<text text-anchor="start" x="30.5" y="-319.5" font-family="Helvetica,sans-Serif" font-size="10.00">nanoseconds</text>
<text text-anchor="start" x="11" y="-304.5" font-family="Helvetica,sans-Serif" font-size="10.00">+</text>
<text text-anchor="start" x="30.5" y="-304.5" font-family="Helvetica,sans-Serif" font-size="10.00">getTotalSeconds()</text>
<text text-anchor="start" x="11" y="-289.5" font-family="Helvetica,sans-Serif" font-size="10.00">+</text>
<text text-anchor="start" x="30.5" y="-289.5" font-family="Helvetica,sans-Serif" font-size="10.00">setTotalSeconds()</text>
<text text-anchor="start" x="11" y="-274.5" font-family="Helvetica,sans-Serif" font-size="10.00">+</text>
<text text-anchor="start" x="30.5" y="-274.5" font-family="Helvetica,sans-Serif" font-size="10.00">isValid()</text>
<text text-anchor="start" x="11" y="-259.5" font-family="Helvetica,sans-Serif" font-size="10.00">+</text>
<text text-anchor="start" x="30.5" y="-259.5" font-family="Helvetica,sans-Serif" font-size="10.00">validate()</text>
<text text-anchor="start" x="11" y="-244.5" font-family="Helvetica,sans-Serif" font-size="10.00">+</text>
<text text-anchor="start" x="30.5" y="-244.5" font-family="Helvetica,sans-Serif" font-size="10.00">operator&lt;()</text>
<text text-anchor="start" x="11" y="-229.5" font-family="Helvetica,sans-Serif" font-size="10.00">+</text>
<text text-anchor="start" x="30.5" y="-229.5" font-family="Helvetica,sans-Serif" font-size="10.00">operator&gt;()</text>
<text text-anchor="start" x="11" y="-214.5" font-family="Helvetica,sans-Serif" font-size="10.00">+</text>
<text text-anchor="start" x="30.5" y="-214.5" font-family="Helvetica,sans-Serif" font-size="10.00">operator&lt;=()</text>
<text text-anchor="start" x="11" y="-199.5" font-family="Helvetica,sans-Serif" font-size="10.00">+</text>
<text text-anchor="start" x="30.5" y="-199.5" font-family="Helvetica,sans-Serif" font-size="10.00">operator&gt;=()</text>
<text text-anchor="start" x="11" y="-184.5" font-family="Helvetica,sans-Serif" font-size="10.00">+</text>
<text text-anchor="start" x="30.5" y="-184.5" font-family="Helvetica,sans-Serif" font-size="10.00">operator==()</text>
<text text-anchor="start" x="11" y="-169.5" font-family="Helvetica,sans-Serif" font-size="10.00">+</text>
<text text-anchor="start" x="30.5" y="-169.5" font-family="Helvetica,sans-Serif" font-size="10.00">operator!=()</text>
<text text-anchor="start" x="11" y="-154.5" font-family="Helvetica,sans-Serif" font-size="10.00">+</text>
<text text-anchor="start" x="30.5" y="-154.5" font-family="Helvetica,sans-Serif" font-size="10.00">operator&#45;()</text>
<text text-anchor="start" x="11" y="-139.5" font-family="Helvetica,sans-Serif" font-size="10.00">+</text>
<text text-anchor="start" x="30.5" y="-139.5" font-family="Helvetica,sans-Serif" font-size="10.00">operator*()</text>
<polygon fill="#666666" stroke="#666666" points="0.5,-359.5 0.5,-359.5 135.5,-359.5 135.5,-359.5 0.5,-359.5"/>
<polygon fill="#666666" stroke="#666666" points="0.5,-314.5 0.5,-314.5 28.5,-314.5 28.5,-314.5 0.5,-314.5"/>
<polygon fill="#666666" stroke="#666666" points="28.5,-314.5 28.5,-314.5 135.5,-314.5 135.5,-314.5 28.5,-314.5"/>
<polygon fill="none" stroke="#666666" points="0,-133 0,-388 135,-388 135,-133 0,-133"/>
</a>
</g>
</g>
<!-- Node2&#45;&gt;Node1 -->
<g id="edge1_Node000001_Node000002" class="edge">
<title>Node2&#45;&gt;Node1</title>
<g id="a_edge1_Node000001_Node000002"><a xlink:title=" ">
<path fill="none" stroke="#63b8ff" d="M97.37,-132.85C104.12,-118.48 112.39,-104.78 122.5,-93 125.62,-89.37 129.04,-85.95 132.68,-82.73"/>
<polygon fill="none" stroke="#63b8ff" points="132.78,-82.65 134.97,-75.78 142.15,-75.15 139.97,-82.02 132.78,-82.65"/>
</a>
</g>
<text text-anchor="middle" x="174" y="-107" font-family="Helvetica,sans-Serif" font-size="10.00" fill="grey"> +masterTimeStamp</text>
<text text-anchor="middle" x="174" y="-96" font-family="Helvetica,sans-Serif" font-size="10.00" fill="grey">+slaveTimeStamp</text>
</g>
<!-- Node3 -->
<g id="Node000003" class="node">
<title>Node3</title>
<g id="a_Node000003"><a xlink:href="../../d9/d23/structIEEE_1_1__1588_1_1PTP_1_1__2019_1_1Types_1_1CorrectionField.html" target="_top" xlink:title="Correction Field &#45; time correction in units of nanoseconds * 2^16.">
<polygon fill="white" stroke="transparent" points="306,-335.5 153,-335.5 153,-185.5 306,-185.5 306,-335.5"/>
<text text-anchor="start" x="158.5" y="-323.5" font-family="Helvetica,sans-Serif" font-size="10.00">IEEE::_1588::PTP::</text>
<text text-anchor="start" x="158.5" y="-312.5" font-family="Helvetica,sans-Serif" font-size="10.00">_2019::Types::CorrectionField</text>
<text text-anchor="start" x="166" y="-297.5" font-family="Helvetica,sans-Serif" font-size="10.00">+</text>
<text text-anchor="start" x="187.5" y="-297.5" font-family="Helvetica,sans-Serif" font-size="10.00">value</text>
<text text-anchor="start" x="166" y="-282.5" font-family="Helvetica,sans-Serif" font-size="10.00">+</text>
<text text-anchor="start" x="187.5" y="-282.5" font-family="Helvetica,sans-Serif" font-size="10.00">CorrectionField()</text>
<text text-anchor="start" x="166" y="-267.5" font-family="Helvetica,sans-Serif" font-size="10.00">+</text>
<text text-anchor="start" x="187.5" y="-267.5" font-family="Helvetica,sans-Serif" font-size="10.00">CorrectionField()</text>
<text text-anchor="start" x="166" y="-252.5" font-family="Helvetica,sans-Serif" font-size="10.00">+</text>
<text text-anchor="start" x="187.5" y="-252.5" font-family="Helvetica,sans-Serif" font-size="10.00">toNanoseconds()</text>
<text text-anchor="start" x="166" y="-237.5" font-family="Helvetica,sans-Serif" font-size="10.00">+</text>
<text text-anchor="start" x="187.5" y="-237.5" font-family="Helvetica,sans-Serif" font-size="10.00">CorrectionField()</text>
<text text-anchor="start" x="166" y="-222.5" font-family="Helvetica,sans-Serif" font-size="10.00">+</text>
<text text-anchor="start" x="187.5" y="-222.5" font-family="Helvetica,sans-Serif" font-size="10.00">operator+=()</text>
<text text-anchor="start" x="166" y="-207.5" font-family="Helvetica,sans-Serif" font-size="10.00">+</text>
<text text-anchor="start" x="187.5" y="-207.5" font-family="Helvetica,sans-Serif" font-size="10.00">operator&lt;&lt;()</text>
<text text-anchor="start" x="166" y="-192.5" font-family="Helvetica,sans-Serif" font-size="10.00">+</text>
<text text-anchor="start" x="187.5" y="-192.5" font-family="Helvetica,sans-Serif" font-size="10.00">fromNanoseconds()</text>
<polygon fill="#666666" stroke="#666666" points="153.5,-307.5 153.5,-307.5 306.5,-307.5 306.5,-307.5 153.5,-307.5"/>
<polygon fill="#666666" stroke="#666666" points="153.5,-292.5 153.5,-292.5 185.5,-292.5 185.5,-292.5 153.5,-292.5"/>
<polygon fill="#666666" stroke="#666666" points="185.5,-292.5 185.5,-292.5 306.5,-292.5 306.5,-292.5 185.5,-292.5"/>
<polygon fill="none" stroke="#666666" points="153,-185.5 153,-335.5 306,-335.5 306,-185.5 153,-185.5"/>
</a>
</g>
</g>
<!-- Node3&#45;&gt;Node1 -->
<g id="edge2_Node000001_Node000003" class="edge">
<title>Node3&#45;&gt;Node1</title>
<g id="a_edge2_Node000001_Node000003"><a xlink:title=" ">
<path fill="none" stroke="#63b8ff" d="M229.5,-185.3C229.5,-152.96 229.5,-115.97 229.5,-87.2"/>
<polygon fill="none" stroke="#63b8ff" points="229.5,-87.02 225.5,-81.02 229.5,-75.02 233.5,-81.02 229.5,-87.02"/>
</a>
</g>
<text text-anchor="middle" x="260" y="-101.5" font-family="Helvetica,sans-Serif" font-size="10.00" fill="grey"> +correction</text>
</g>
<!-- Node4 -->
<g id="Node000004" class="node">
<title>Node4</title>
<g id="a_Node000004"><a xlink:href="../../d6/df7/structIEEE_1_1__1588_1_1PTP_1_1__2019_1_1Types_1_1TimeInterval.html" target="_top" xlink:title="Time Interval &#45; scaled nanoseconds for time intervals.">
<polygon fill="white" stroke="transparent" points="487,-305.5 324,-305.5 324,-215.5 487,-215.5 487,-305.5"/>
<text text-anchor="start" x="340" y="-293.5" font-family="Helvetica,sans-Serif" font-size="10.00">IEEE::_1588::PTP::</text>
<text text-anchor="start" x="340" y="-282.5" font-family="Helvetica,sans-Serif" font-size="10.00">_2019::Types::TimeInterval</text>
<text text-anchor="start" x="328.5" y="-267.5" font-family="Helvetica,sans-Serif" font-size="10.00">+</text>
<text text-anchor="start" x="341.5" y="-267.5" font-family="Helvetica,sans-Serif" font-size="10.00">scaled_nanoseconds</text>
<text text-anchor="start" x="328.5" y="-252.5" font-family="Helvetica,sans-Serif" font-size="10.00">+</text>
<text text-anchor="start" x="341.5" y="-252.5" font-family="Helvetica,sans-Serif" font-size="10.00">toNanoseconds()</text>
<text text-anchor="start" x="328.5" y="-237.5" font-family="Helvetica,sans-Serif" font-size="10.00">+</text>
<text text-anchor="start" x="341.5" y="-237.5" font-family="Helvetica,sans-Serif" font-size="10.00">fromNanoseconds()</text>
<text text-anchor="start" x="328.5" y="-222.5" font-family="Helvetica,sans-Serif" font-size="10.00">+</text>
<text text-anchor="start" x="341.5" y="-222.5" font-family="Helvetica,sans-Serif" font-size="10.00">fromNanosecondsUnbiased()</text>
<polygon fill="#666666" stroke="#666666" points="324.5,-277.5 324.5,-277.5 487.5,-277.5 487.5,-277.5 324.5,-277.5"/>
<polygon fill="#666666" stroke="#666666" points="324.5,-262.5 324.5,-262.5 339.5,-262.5 339.5,-262.5 324.5,-262.5"/>
<polygon fill="#666666" stroke="#666666" points="339.5,-262.5 339.5,-262.5 487.5,-262.5 487.5,-262.5 339.5,-262.5"/>
<polygon fill="none" stroke="#666666" points="324,-215.5 324,-305.5 487,-305.5 487,-215.5 324,-215.5"/>
</a>
</g>
</g>
<!-- Node4&#45;&gt;Node1 -->
<g id="edge3_Node000001_Node000004" class="edge">
<title>Node4&#45;&gt;Node1</title>
<g id="a_edge3_Node000001_Node000004"><a xlink:title=" ">
<path fill="none" stroke="#63b8ff" d="M380.8,-215.34C360.12,-180.29 328.58,-131.04 294.5,-93 291.58,-89.74 288.45,-86.5 285.22,-83.32"/>
<polygon fill="none" stroke="#63b8ff" points="285.19,-83.29 278.08,-82.09 276.45,-75.07 283.56,-76.27 285.19,-83.29"/>
</a>
</g>
<text text-anchor="middle" x="359" y="-107" font-family="Helvetica,sans-Serif" font-size="10.00" fill="grey"> +meanPathDelay</text>
<text text-anchor="middle" x="359" y="-96" font-family="Helvetica,sans-Serif" font-size="10.00" fill="grey">+offsetFromMaster</text>
</g>
</g>
</svg>
</svg>

<style type='text/css'>
<![CDATA[
[data-mouse-over-selected='false'] { opacity: 0.7; }
[data-mouse-over-selected='true']  { opacity: 1.0; }
]]>
</style>
<script type="application/ecmascript"><![CDATA[
document.addEventListener('DOMContentLoaded', (event) => {
  highlightEdges();
  highlightAdjacentNodes();
});
]]></script>
</svg>
