<?xml version="1.0" encoding="UTF-8" standalone="no"?>
<!DOCTYPE svg PUBLIC "-//W3C//DTD SVG 1.1//EN"
 "http://www.w3.org/Graphics/SVG/1.1/DTD/svg11.dtd">
<!-- Generated by graphviz version 2.43.0 (0)
 -->
<!-- Title: /home/runner/work/IEEE_1588_2019/IEEE_1588_2019/src/message_flow_integration_bup.cpp Pages: 1 -->
<svg width="1156pt" height="434pt"
 viewBox="0.00 0.00 1156.44 434.00" xmlns="http://www.w3.org/2000/svg" xmlns:xlink="http://www.w3.org/1999/xlink">
<g id="graph0" class="graph" transform="scale(1 1) rotate(0) translate(4 430)">
<title>/home/runner/work/IEEE_1588_2019/IEEE_1588_2019/src/message_flow_integration_bup.cpp</title>
<!-- Node1 -->
<g id="Node000001" class="node">
<title>Node1</title>
<g id="a_Node000001"><a xlink:title=" ">
<polygon fill="#999999" stroke="#666666" points="869.5,-426 704.5,-426 704.5,-374 869.5,-374 869.5,-426"/>
<text text-anchor="start" x="712.5" y="-414" font-family="Helvetica,sans-Serif" font-size="10.00">/home/runner/work/IEEE</text>
<text text-anchor="start" x="712.5" y="-403" font-family="Helvetica,sans-Serif" font-size="10.00">_1588_2019/IEEE_1588_2019</text>
<text text-anchor="start" x="712.5" y="-392" font-family="Helvetica,sans-Serif" font-size="10.00">/src/message_flow_integration</text>
<text text-anchor="middle" x="787" y="-381" font-family="Helvetica,sans-Serif" font-size="10.00">_bup.cpp</text>
</a>
</g>
</g>
<!-- Node2 -->
<g id="Node000002" class="node">
<title>Node2</title>
<g id="a_Node000002"><a xlink:href="../../de/d83/message__flow__integration_8hpp.html" target="_top" xlink:title="IEEE 1588&#45;2019 Message Flow Integration Coordinator.">
<polygon fill="white" stroke="#666666" points="815.5,-338 646.5,-338 646.5,-308 815.5,-308 815.5,-338"/>
<text text-anchor="start" x="654.5" y="-326" font-family="Helvetica,sans-Serif" font-size="10.00">IEEE/1588/PTP/2019</text>
<text text-anchor="middle" x="731" y="-315" font-family="Helvetica,sans-Serif" font-size="10.00">/message_flow_integration.hpp</text>
</a>
</g>
</g>
<!-- Node1&#45;&gt;Node2 -->
<g id="edge1_Node000001_Node000002" class="edge">
<title>Node1&#45;&gt;Node2</title>
<g id="a_edge1_Node000001_Node000002"><a xlink:title=" ">
<path fill="none" stroke="#63b8ff" d="M768.04,-373.61C761.47,-364.81 754.16,-355.02 747.78,-346.47"/>
<polygon fill="#63b8ff" stroke="#63b8ff" points="750.56,-344.35 741.77,-338.43 744.95,-348.53 750.56,-344.35"/>
</a>
</g>
</g>
<!-- Node8 -->
<g id="Node000008" class="node">
<title>Node8</title>
<g id="a_Node000008"><a xlink:href="../../d4/dbb/bmca__integration_8hpp.html" target="_top" xlink:title="BMCA Runtime Integration Coordinator.">
<polygon fill="white" stroke="#666666" points="500,-272 374,-272 374,-242 500,-242 500,-272"/>
<text text-anchor="start" x="382" y="-260" font-family="Helvetica,sans-Serif" font-size="10.00">IEEE/1588/PTP/2019</text>
<text text-anchor="middle" x="437" y="-249" font-family="Helvetica,sans-Serif" font-size="10.00">/bmca_integration.hpp</text>
</a>
</g>
</g>
<!-- Node1&#45;&gt;Node8 -->
<g id="edge55_Node000001_Node000008" class="edge">
<title>Node1&#45;&gt;Node8</title>
<g id="a_edge55_Node000001_Node000008"><a xlink:title=" ">
<path fill="none" stroke="#63b8ff" d="M714.66,-373.91C684.87,-363.27 650.11,-350.47 619,-338 569.45,-318.14 513.33,-293.07 476.67,-276.34"/>
<polygon fill="#63b8ff" stroke="#63b8ff" points="477.88,-273.04 467.33,-272.07 474.97,-279.41 477.88,-273.04"/>
</a>
</g>
</g>
<!-- Node20 -->
<g id="Node000020" class="node">
<title>Node20</title>
<g id="a_Node000020"><a xlink:href="../../d0/d75/sync__integration_8hpp.html" target="_top" xlink:title="IEEE 1588&#45;2019 Synchronization Integration Coordinator.">
<polygon fill="white" stroke="#666666" points="1134,-272 1012,-272 1012,-242 1134,-242 1134,-272"/>
<text text-anchor="start" x="1020" y="-260" font-family="Helvetica,sans-Serif" font-size="10.00">IEEE/1588/PTP/2019</text>
<text text-anchor="middle" x="1073" y="-249" font-family="Helvetica,sans-Serif" font-size="10.00">/sync_integration.hpp</text>
</a>
</g>
</g>
<!-- Node1&#45;&gt;Node20 -->
<g id="edge56_Node000001_Node000020" class="edge">
<title>Node1&#45;&gt;Node20</title>
<g id="a_edge56_Node000001_Node000020"><a xlink:title=" ">
<path fill="none" stroke="#63b8ff" d="M801.26,-373.88C814.38,-353.07 835.76,-324.34 862,-308 874.08,-300.48 945.47,-284.4 1001.91,-272.5"/>
<polygon fill="#63b8ff" stroke="#63b8ff" points="1002.83,-275.88 1011.9,-270.41 1001.39,-269.03 1002.83,-275.88"/>
</a>
</g>
</g>
<!-- Node22 -->
<g id="Node000022" class="node">
<title>Node22</title>
<g id="a_Node000022"><a xlink:href="../../da/d7e/servo__integration_8hpp.html" target="_top" xlink:title="IEEE 1588&#45;2019 Servo Integration &#45; Clock Adjustment Control.">
<polygon fill="white" stroke="#666666" points="682,-272 556,-272 556,-242 682,-242 682,-272"/>
<text text-anchor="start" x="564" y="-260" font-family="Helvetica,sans-Serif" font-size="10.00">IEEE/1588/PTP/2019</text>
<text text-anchor="middle" x="619" y="-249" font-family="Helvetica,sans-Serif" font-size="10.00">/servo_integration.hpp</text>
</a>
</g>
</g>
<!-- Node1&#45;&gt;Node22 -->
<g id="edge57_Node000001_Node000022" class="edge">
<title>Node1&#45;&gt;Node22</title>
<g id="a_edge57_Node000001_Node000022"><a xlink:title=" ">
<path fill="none" stroke="#63b8ff" d="M704.12,-381.14C679.37,-372.03 654.27,-358.38 637,-338 624.02,-322.68 619.88,-299.94 618.78,-282.62"/>
<polygon fill="#63b8ff" stroke="#63b8ff" points="622.26,-282.03 618.43,-272.15 615.26,-282.26 622.26,-282.03"/>
</a>
</g>
</g>
<!-- Node23 -->
<g id="Node000023" class="node">
<title>Node23</title>
<g id="a_Node000023"><a xlink:title=" ">
<polygon fill="#e0e0e0" stroke="#999999" points="935,-332.5 871,-332.5 871,-313.5 935,-313.5 935,-332.5"/>
<text text-anchor="middle" x="903" y="-320.5" font-family="Helvetica,sans-Serif" font-size="10.00">algorithm</text>
</a>
</g>
</g>
<!-- Node1&#45;&gt;Node23 -->
<g id="edge58_Node000001_Node000023" class="edge">
<title>Node1&#45;&gt;Node23</title>
<g id="a_edge58_Node000001_Node000023"><a xlink:title=" ">
<path fill="none" stroke="#63b8ff" d="M825.95,-373.82C844.44,-361.86 865.83,-348.03 881.37,-337.98"/>
<polygon fill="#63b8ff" stroke="#63b8ff" points="883.29,-340.91 889.79,-332.54 879.49,-335.03 883.29,-340.91"/>
</a>
</g>
</g>
<!-- Node24 -->
<g id="Node000024" class="node">
<title>Node24</title>
<g id="a_Node000024"><a xlink:title=" ">
<polygon fill="#e0e0e0" stroke="#999999" points="1000.5,-332.5 953.5,-332.5 953.5,-313.5 1000.5,-313.5 1000.5,-332.5"/>
<text text-anchor="middle" x="977" y="-320.5" font-family="Helvetica,sans-Serif" font-size="10.00">cmath</text>
</a>
</g>
</g>
<!-- Node1&#45;&gt;Node24 -->
<g id="edge59_Node000001_Node000024" class="edge">
<title>Node1&#45;&gt;Node24</title>
<g id="a_edge59_Node000001_Node000024"><a xlink:title=" ">
<path fill="none" stroke="#63b8ff" d="M852.87,-373.92C881.02,-363.07 914.2,-350.11 944,-338 945.2,-337.51 946.42,-337.01 947.66,-336.5"/>
<polygon fill="#63b8ff" stroke="#63b8ff" points="949.27,-339.62 957.15,-332.54 946.57,-333.16 949.27,-339.62"/>
</a>
</g>
</g>
<!-- Node3 -->
<g id="Node000003" class="node">
<title>Node3</title>
<g id="a_Node000003"><a xlink:href="../../dd/de3/types_8hpp.html" target="_top" xlink:title="IEEE 1588&#45;2019 PTP v2.1 fundamental data types and constants.">
<polygon fill="white" stroke="#666666" points="1002.5,-85 889.5,-85 889.5,-55 1002.5,-55 1002.5,-85"/>
<text text-anchor="start" x="897.5" y="-73" font-family="Helvetica,sans-Serif" font-size="10.00">IEEE/1588/PTP/2019</text>
<text text-anchor="middle" x="946" y="-62" font-family="Helvetica,sans-Serif" font-size="10.00">/types.hpp</text>
</a>
</g>
</g>
<!-- Node2&#45;&gt;Node3 -->
<g id="edge2_Node000002_Node000003" class="edge">
<title>Node2&#45;&gt;Node3</title>
<g id="a_edge2_Node000002_Node000003"><a xlink:title=" ">
<path fill="none" stroke="#63b8ff" d="M769.98,-307.96C826.45,-285.16 928.47,-234.08 967,-151 975.48,-132.71 968.34,-110.41 960.16,-94"/>
<polygon fill="#63b8ff" stroke="#63b8ff" points="963.18,-92.23 955.34,-85.1 957.02,-95.56 963.18,-92.23"/>
</a>
</g>
</g>
<!-- Node4 -->
<g id="Node000004" class="node">
<title>Node4</title>
<g id="a_Node000004"><a xlink:title=" ">
<polygon fill="#e0e0e0" stroke="#999999" points="636,-19 586,-19 586,0 636,0 636,-19"/>
<text text-anchor="middle" x="611" y="-7" font-family="Helvetica,sans-Serif" font-size="10.00">cstdint</text>
</a>
</g>
</g>
<!-- Node2&#45;&gt;Node4 -->
<g id="edge51_Node000002_Node000004" class="edge">
<title>Node2&#45;&gt;Node4</title>
<g id="a_edge51_Node000002_Node000004"><a xlink:title=" ">
<path fill="none" stroke="#63b8ff" d="M739.25,-307.93C752.56,-283.52 776.37,-231.63 767,-187 753.83,-124.29 754.03,-100.59 709,-55 691.73,-37.52 666.35,-26.26 645.75,-19.44"/>
<polygon fill="#63b8ff" stroke="#63b8ff" points="646.66,-16.06 636.07,-16.44 644.58,-22.74 646.66,-16.06"/>
</a>
</g>
</g>
<!-- Node7 -->
<g id="Node000007" class="node">
<title>Node7</title>
<g id="a_Node000007"><a xlink:href="../../d4/d64/messages_8hpp.html" target="_top" xlink:title="IEEE 1588&#45;2019 PTP Message Format Structures.">
<polygon fill="white" stroke="#666666" points="917.5,-151 804.5,-151 804.5,-121 917.5,-121 917.5,-151"/>
<text text-anchor="start" x="812.5" y="-139" font-family="Helvetica,sans-Serif" font-size="10.00">IEEE/1588/PTP/2019</text>
<text text-anchor="middle" x="861" y="-128" font-family="Helvetica,sans-Serif" font-size="10.00">/messages.hpp</text>
</a>
</g>
</g>
<!-- Node2&#45;&gt;Node7 -->
<g id="edge6_Node000002_Node000007" class="edge">
<title>Node2&#45;&gt;Node7</title>
<g id="a_edge6_Node000002_Node000007"><a xlink:title=" ">
<path fill="none" stroke="#63b8ff" d="M756.86,-307.8C771.05,-298.98 788.13,-286.56 800,-272 827.65,-238.09 845.49,-189.64 854.34,-160.94"/>
<polygon fill="#63b8ff" stroke="#63b8ff" points="857.71,-161.91 857.2,-151.33 851,-159.91 857.71,-161.91"/>
</a>
</g>
</g>
<!-- Node2&#45;&gt;Node8 -->
<g id="edge10_Node000002_Node000008" class="edge">
<title>Node2&#45;&gt;Node8</title>
<g id="a_edge10_Node000002_Node000008"><a xlink:title=" ">
<path fill="none" stroke="#63b8ff" d="M666.48,-307.95C620.32,-297.91 558.12,-284.37 510.12,-273.92"/>
<polygon fill="#63b8ff" stroke="#63b8ff" points="510.62,-270.44 500.11,-271.74 509.13,-277.28 510.62,-270.44"/>
</a>
</g>
</g>
<!-- Node9 -->
<g id="Node000009" class="node">
<title>Node9</title>
<g id="a_Node000009"><a xlink:href="../../dd/dc5/clocks_8hpp.html" target="_top" xlink:title="IEEE 1588&#45;2019 PTP Clock State Machines Implementation.">
<polygon fill="white" stroke="#666666" points="655,-206 587,-206 587,-187 655,-187 655,-206"/>
<text text-anchor="middle" x="621" y="-194" font-family="Helvetica,sans-Serif" font-size="10.00">clocks.hpp</text>
</a>
</g>
</g>
<!-- Node2&#45;&gt;Node9 -->
<g id="edge50_Node000002_Node000009" class="edge">
<title>Node2&#45;&gt;Node9</title>
<g id="a_edge50_Node000002_Node000009"><a xlink:title=" ">
<path fill="none" stroke="#63b8ff" d="M726.58,-307.92C720.66,-290.79 708.79,-261.71 691,-242 679.4,-229.14 663.25,-218.55 649.39,-210.92"/>
<polygon fill="#63b8ff" stroke="#63b8ff" points="650.72,-207.67 640.24,-206.13 647.47,-213.87 650.72,-207.67"/>
</a>
</g>
</g>
<!-- Node17 -->
<g id="Node000017" class="node">
<title>Node17</title>
<g id="a_Node000017"><a xlink:title=" ">
<polygon fill="#e0e0e0" stroke="#999999" points="137.5,-206 72.5,-206 72.5,-187 137.5,-187 137.5,-206"/>
<text text-anchor="middle" x="105" y="-194" font-family="Helvetica,sans-Serif" font-size="10.00">functional</text>
</a>
</g>
</g>
<!-- Node2&#45;&gt;Node17 -->
<g id="edge53_Node000002_Node000017" class="edge">
<title>Node2&#45;&gt;Node17</title>
<g id="a_edge53_Node000002_Node000017"><a xlink:title=" ">
<path fill="none" stroke="#63b8ff" d="M646.46,-313.93C571.9,-305.98 460.55,-292.11 365,-272 283.11,-254.77 189.23,-225.42 139.74,-209.18"/>
<polygon fill="#63b8ff" stroke="#63b8ff" points="140.75,-205.83 130.16,-206.02 138.56,-212.48 140.75,-205.83"/>
</a>
</g>
</g>
<!-- Node18 -->
<g id="Node000018" class="node">
<title>Node18</title>
<g id="a_Node000018"><a xlink:title=" ">
<polygon fill="#e0e0e0" stroke="#999999" points="495,-206 437,-206 437,-187 495,-187 495,-206"/>
<text text-anchor="middle" x="466" y="-194" font-family="Helvetica,sans-Serif" font-size="10.00">memory</text>
</a>
</g>
</g>
<!-- Node2&#45;&gt;Node18 -->
<g id="edge54_Node000002_Node000018" class="edge">
<title>Node2&#45;&gt;Node18</title>
<g id="a_edge54_Node000002_Node000018"><a xlink:title=" ">
<path fill="none" stroke="#63b8ff" d="M646.69,-307.98C614.2,-300.34 577.57,-288.88 547,-272 532.52,-264.01 500.57,-232.75 481.41,-213.35"/>
<polygon fill="#63b8ff" stroke="#63b8ff" points="483.8,-210.78 474.3,-206.1 478.8,-215.69 483.8,-210.78"/>
</a>
</g>
</g>
<!-- Node19 -->
<g id="Node000019" class="node">
<title>Node19</title>
<g id="a_Node000019"><a xlink:title=" ">
<polygon fill="#e0e0e0" stroke="#999999" points="758,-206 714,-206 714,-187 758,-187 758,-206"/>
<text text-anchor="middle" x="736" y="-194" font-family="Helvetica,sans-Serif" font-size="10.00">string</text>
</a>
</g>
</g>
<!-- Node2&#45;&gt;Node19 -->
<g id="edge52_Node000002_Node000019" class="edge">
<title>Node2&#45;&gt;Node19</title>
<g id="a_edge52_Node000002_Node000019"><a xlink:title=" ">
<path fill="none" stroke="#63b8ff" d="M731.57,-307.72C732.48,-285.12 734.25,-241.12 735.25,-216.09"/>
<polygon fill="#63b8ff" stroke="#63b8ff" points="738.75,-216.2 735.66,-206.07 731.76,-215.92 738.75,-216.2"/>
</a>
</g>
</g>
<!-- Node2&#45;&gt;Node20 -->
<g id="edge40_Node000002_Node000020" class="edge">
<title>Node2&#45;&gt;Node20</title>
<g id="a_edge40_Node000002_Node000020"><a xlink:title=" ">
<path fill="none" stroke="#63b8ff" d="M806.05,-307.95C864.3,-297.06 944.5,-282.05 1001.76,-271.33"/>
<polygon fill="#63b8ff" stroke="#63b8ff" points="1002.63,-274.73 1011.81,-269.45 1001.34,-267.85 1002.63,-274.73"/>
</a>
</g>
</g>
<!-- Node2&#45;&gt;Node22 -->
<g id="edge46_Node000002_Node000022" class="edge">
<title>Node2&#45;&gt;Node22</title>
<g id="a_edge46_Node000002_Node000022"><a xlink:title=" ">
<path fill="none" stroke="#63b8ff" d="M706.42,-307.95C690.52,-298.87 669.62,-286.93 652.24,-277"/>
<polygon fill="#63b8ff" stroke="#63b8ff" points="653.94,-273.93 643.52,-272.01 650.47,-280.01 653.94,-273.93"/>
</a>
</g>
</g>
<!-- Node3&#45;&gt;Node4 -->
<g id="edge3_Node000003_Node000004" class="edge">
<title>Node3&#45;&gt;Node4</title>
<g id="a_edge3_Node000003_Node000004"><a xlink:title=" ">
<path fill="none" stroke="#63b8ff" d="M889.17,-59.08C819.76,-46.95 704.44,-26.82 646.51,-16.7"/>
<polygon fill="#63b8ff" stroke="#63b8ff" points="646.84,-13.21 636.39,-14.93 645.64,-20.1 646.84,-13.21"/>
</a>
</g>
</g>
<!-- Node5 -->
<g id="Node000005" class="node">
<title>Node5</title>
<g id="a_Node000005"><a xlink:title=" ">
<polygon fill="#e0e0e0" stroke="#999999" points="863,-19 821,-19 821,0 863,0 863,-19"/>
<text text-anchor="middle" x="842" y="-7" font-family="Helvetica,sans-Serif" font-size="10.00">array</text>
</a>
</g>
</g>
<!-- Node3&#45;&gt;Node5 -->
<g id="edge4_Node000003_Node000005" class="edge">
<title>Node3&#45;&gt;Node5</title>
<g id="a_edge4_Node000003_Node000005"><a xlink:title=" ">
<path fill="none" stroke="#63b8ff" d="M921.09,-54.99C904.51,-45.66 882.84,-33.47 866.37,-24.21"/>
<polygon fill="#63b8ff" stroke="#63b8ff" points="867.79,-20.99 857.36,-19.14 864.36,-27.09 867.79,-20.99"/>
</a>
</g>
</g>
<!-- Node6 -->
<g id="Node000006" class="node">
<title>Node6</title>
<g id="a_Node000006"><a xlink:title=" ">
<polygon fill="#e0e0e0" stroke="#999999" points="972.5,-19 919.5,-19 919.5,0 972.5,0 972.5,-19"/>
<text text-anchor="middle" x="946" y="-7" font-family="Helvetica,sans-Serif" font-size="10.00">cstddef</text>
</a>
</g>
</g>
<!-- Node3&#45;&gt;Node6 -->
<g id="edge5_Node000003_Node000006" class="edge">
<title>Node3&#45;&gt;Node6</title>
<g id="a_edge5_Node000003_Node000006"><a xlink:title=" ">
<path fill="none" stroke="#63b8ff" d="M946,-54.84C946,-47.21 946,-37.7 946,-29.45"/>
<polygon fill="#63b8ff" stroke="#63b8ff" points="949.5,-29.27 946,-19.27 942.5,-29.27 949.5,-29.27"/>
</a>
</g>
</g>
<!-- Node7&#45;&gt;Node3 -->
<g id="edge7_Node000007_Node000003" class="edge">
<title>Node7&#45;&gt;Node3</title>
<g id="a_edge7_Node000007_Node000003"><a xlink:title=" ">
<path fill="none" stroke="#63b8ff" d="M879.86,-120.8C891.42,-112.1 906.39,-100.82 919.17,-91.2"/>
<polygon fill="#63b8ff" stroke="#63b8ff" points="921.31,-93.98 927.19,-85.16 917.09,-88.38 921.31,-93.98"/>
</a>
</g>
</g>
<!-- Node7&#45;&gt;Node4 -->
<g id="edge8_Node000007_Node000004" class="edge">
<title>Node7&#45;&gt;Node4</title>
<g id="a_edge8_Node000007_Node000004"><a xlink:title=" ">
<path fill="none" stroke="#63b8ff" d="M847.03,-120.84C828.77,-103.09 795.09,-72.81 761,-55 724.01,-35.67 677.4,-23.51 646.03,-16.88"/>
<polygon fill="#63b8ff" stroke="#63b8ff" points="646.51,-13.41 636.01,-14.84 645.11,-20.27 646.51,-13.41"/>
</a>
</g>
</g>
<!-- Node7&#45;&gt;Node5 -->
<g id="edge9_Node000007_Node000005" class="edge">
<title>Node7&#45;&gt;Node5</title>
<g id="a_edge9_Node000007_Node000005"><a xlink:title=" ">
<path fill="none" stroke="#63b8ff" d="M858.82,-120.72C855.37,-98.12 848.66,-54.12 844.84,-29.09"/>
<polygon fill="#63b8ff" stroke="#63b8ff" points="848.28,-28.43 843.31,-19.07 841.36,-29.48 848.28,-28.43"/>
</a>
</g>
</g>
<!-- Node8&#45;&gt;Node3 -->
<g id="edge11_Node000008_Node000003" class="edge">
<title>Node8&#45;&gt;Node3</title>
<g id="a_edge11_Node000008_Node000003"><a xlink:title=" ">
<path fill="none" stroke="#63b8ff" d="M500.14,-245.9C546.25,-237.6 609.89,-224.25 664,-206 683.03,-199.58 685.76,-192.75 705,-187 757.52,-171.32 913.18,-192.49 949,-151 962.13,-135.79 959.47,-112.23 954.67,-94.61"/>
<polygon fill="#63b8ff" stroke="#63b8ff" points="958,-93.55 951.7,-85.04 951.32,-95.62 958,-93.55"/>
</a>
</g>
</g>
<!-- Node8&#45;&gt;Node4 -->
<g id="edge39_Node000008_Node000004" class="edge">
<title>Node8&#45;&gt;Node4</title>
<g id="a_edge39_Node000008_Node000004"><a xlink:title=" ">
<path fill="none" stroke="#63b8ff" d="M385.53,-241.92C286.71,-212.54 86.77,-140.3 164,-55 191.49,-24.63 474.92,-14.14 575.69,-11.35"/>
<polygon fill="#63b8ff" stroke="#63b8ff" points="576.05,-14.84 585.95,-11.08 575.86,-7.84 576.05,-14.84"/>
</a>
</g>
</g>
<!-- Node8&#45;&gt;Node9 -->
<g id="edge12_Node000008_Node000009" class="edge">
<title>Node8&#45;&gt;Node9</title>
<g id="a_edge12_Node000008_Node000009"><a xlink:title=" ">
<path fill="none" stroke="#63b8ff" d="M481.07,-241.99C512.69,-231.94 554.78,-218.55 584.52,-209.1"/>
<polygon fill="#63b8ff" stroke="#63b8ff" points="585.63,-212.42 594.1,-206.05 583.51,-205.75 585.63,-212.42"/>
</a>
</g>
</g>
<!-- Node14 -->
<g id="Node000014" class="node">
<title>Node14</title>
<g id="a_Node000014"><a xlink:href="../../d4/d44/metrics_8hpp.html" target="_top" xlink:title=" ">
<polygon fill="white" stroke="#666666" points="485,-79.5 339,-79.5 339,-60.5 485,-60.5 485,-79.5"/>
<text text-anchor="middle" x="412" y="-67.5" font-family="Helvetica,sans-Serif" font-size="10.00">Common/utils/metrics.hpp</text>
</a>
</g>
</g>
<!-- Node8&#45;&gt;Node14 -->
<g id="edge35_Node000008_Node000014" class="edge">
<title>Node8&#45;&gt;Node14</title>
<g id="a_edge35_Node000008_Node000014"><a xlink:title=" ">
<path fill="none" stroke="#63b8ff" d="M434.17,-241.6C432.27,-231.63 429.8,-218.04 428,-206 421.81,-164.52 416.51,-115.58 413.84,-89.52"/>
<polygon fill="#63b8ff" stroke="#63b8ff" points="417.32,-89.15 412.83,-79.55 410.35,-89.85 417.32,-89.15"/>
</a>
</g>
</g>
<!-- Node15 -->
<g id="Node000015" class="node">
<title>Node15</title>
<g id="a_Node000015"><a xlink:href="../../de/d18/health_8hpp.html" target="_top" xlink:title=" ">
<polygon fill="white" stroke="#666666" points="381,-145.5 241,-145.5 241,-126.5 381,-126.5 381,-145.5"/>
<text text-anchor="middle" x="311" y="-133.5" font-family="Helvetica,sans-Serif" font-size="10.00">Common/utils/health.hpp</text>
</a>
</g>
</g>
<!-- Node8&#45;&gt;Node15 -->
<g id="edge34_Node000008_Node000015" class="edge">
<title>Node8&#45;&gt;Node15</title>
<g id="a_edge34_Node000008_Node000015"><a xlink:title=" ">
<path fill="none" stroke="#63b8ff" d="M422.05,-241.88C398.39,-219.54 352.47,-176.16 327.74,-152.81"/>
<polygon fill="#63b8ff" stroke="#63b8ff" points="329.9,-150.03 320.22,-145.71 325.09,-155.12 329.9,-150.03"/>
</a>
</g>
</g>
<!-- Node8&#45;&gt;Node17 -->
<g id="edge36_Node000008_Node000017" class="edge">
<title>Node8&#45;&gt;Node17</title>
<g id="a_edge36_Node000008_Node000017"><a xlink:title=" ">
<path fill="none" stroke="#63b8ff" d="M373.87,-245.02C316.11,-234.96 228.29,-219.59 152,-206 150.55,-205.74 149.07,-205.48 147.57,-205.21"/>
<polygon fill="#63b8ff" stroke="#63b8ff" points="148.07,-201.74 137.61,-203.42 146.84,-208.63 148.07,-201.74"/>
</a>
</g>
</g>
<!-- Node8&#45;&gt;Node18 -->
<g id="edge37_Node000008_Node000018" class="edge">
<title>Node8&#45;&gt;Node18</title>
<g id="a_edge37_Node000008_Node000018"><a xlink:title=" ">
<path fill="none" stroke="#63b8ff" d="M444.02,-241.84C447.97,-233.87 452.94,-223.84 457.16,-215.33"/>
<polygon fill="#63b8ff" stroke="#63b8ff" points="460.35,-216.78 461.65,-206.27 454.08,-213.67 460.35,-216.78"/>
</a>
</g>
</g>
<!-- Node8&#45;&gt;Node19 -->
<g id="edge38_Node000008_Node000019" class="edge">
<title>Node8&#45;&gt;Node19</title>
<g id="a_edge38_Node000008_Node000019"><a xlink:title=" ">
<path fill="none" stroke="#63b8ff" d="M500.13,-244.8C553.5,-235.14 631.93,-220.5 700,-206 701.27,-205.73 702.57,-205.45 703.88,-205.16"/>
<polygon fill="#63b8ff" stroke="#63b8ff" points="704.98,-208.5 713.95,-202.87 703.42,-201.67 704.98,-208.5"/>
</a>
</g>
</g>
<!-- Node9&#45;&gt;Node3 -->
<g id="edge13_Node000009_Node000003" class="edge">
<title>Node9&#45;&gt;Node3</title>
<g id="a_edge13_Node000009_Node000003"><a xlink:title=" ">
<path fill="none" stroke="#63b8ff" d="M655.27,-189.67C660.86,-188.75 666.59,-187.83 672,-187 728.56,-178.3 884.7,-189.54 927,-151 942.28,-137.08 946.35,-113.32 947.01,-95.3"/>
<polygon fill="#63b8ff" stroke="#63b8ff" points="950.51,-95.23 947.05,-85.22 943.51,-95.2 950.51,-95.23"/>
</a>
</g>
</g>
<!-- Node9&#45;&gt;Node4 -->
<g id="edge15_Node000009_Node000004" class="edge">
<title>Node9&#45;&gt;Node4</title>
<g id="a_edge15_Node000009_Node000004"><a xlink:title=" ">
<path fill="none" stroke="#63b8ff" d="M639.44,-186.98C653.31,-179.54 671.48,-167.37 681,-151 702.52,-113.99 710.5,-92.02 689,-55 679.66,-38.92 662.1,-28.17 646,-21.27"/>
<polygon fill="#63b8ff" stroke="#63b8ff" points="646.84,-17.84 636.25,-17.45 644.29,-24.35 646.84,-17.84"/>
</a>
</g>
</g>
<!-- Node9&#45;&gt;Node5 -->
<g id="edge17_Node000009_Node000005" class="edge">
<title>Node9&#45;&gt;Node5</title>
<g id="a_edge17_Node000009_Node000005"><a xlink:title=" ">
<path fill="none" stroke="#63b8ff" d="M640.52,-186.91C657.76,-178.87 683.18,-165.88 703,-151 754.25,-112.52 804.71,-55.4 828.25,-27.32"/>
<polygon fill="#63b8ff" stroke="#63b8ff" points="831.23,-29.22 834.91,-19.28 825.84,-24.75 831.23,-29.22"/>
</a>
</g>
</g>
<!-- Node9&#45;&gt;Node7 -->
<g id="edge14_Node000009_Node000007" class="edge">
<title>Node9&#45;&gt;Node7</title>
<g id="a_edge14_Node000009_Node000007"><a xlink:title=" ">
<path fill="none" stroke="#63b8ff" d="M655.13,-187.18C691.3,-178.36 749.33,-164.22 794.57,-153.19"/>
<polygon fill="#63b8ff" stroke="#63b8ff" points="795.42,-156.59 804.31,-150.82 793.77,-149.79 795.42,-156.59"/>
</a>
</g>
</g>
<!-- Node10 -->
<g id="Node000010" class="node">
<title>Node10</title>
<g id="a_Node000010"><a xlink:title=" ">
<polygon fill="#e0e0e0" stroke="#999999" points="672,-145.5 622,-145.5 622,-126.5 672,-126.5 672,-145.5"/>
<text text-anchor="middle" x="647" y="-133.5" font-family="Helvetica,sans-Serif" font-size="10.00">cstring</text>
</a>
</g>
</g>
<!-- Node9&#45;&gt;Node10 -->
<g id="edge16_Node000009_Node000010" class="edge">
<title>Node9&#45;&gt;Node10</title>
<g id="a_edge16_Node000009_Node000010"><a xlink:title=" ">
<path fill="none" stroke="#63b8ff" d="M624.84,-186.87C628.56,-178.49 634.33,-165.51 639.05,-154.89"/>
<polygon fill="#63b8ff" stroke="#63b8ff" points="642.28,-156.23 643.15,-145.67 635.89,-153.38 642.28,-156.23"/>
</a>
</g>
</g>
<!-- Node11 -->
<g id="Node000011" class="node">
<title>Node11</title>
<g id="a_Node000011"><a xlink:href="../../d6/da3/logger_8hpp.html" target="_top" xlink:title=" ">
<polygon fill="white" stroke="#666666" points="680.5,-79.5 541.5,-79.5 541.5,-60.5 680.5,-60.5 680.5,-79.5"/>
<text text-anchor="middle" x="611" y="-67.5" font-family="Helvetica,sans-Serif" font-size="10.00">Common/utils/logger.hpp</text>
</a>
</g>
</g>
<!-- Node9&#45;&gt;Node11 -->
<g id="edge18_Node000009_Node000011" class="edge">
<title>Node9&#45;&gt;Node11</title>
<g id="a_edge18_Node000009_Node000011"><a xlink:title=" ">
<path fill="none" stroke="#63b8ff" d="M619.01,-186.69C617.08,-177.75 614.27,-163.49 613,-151 610.89,-130.31 610.57,-106.47 610.66,-90.23"/>
<polygon fill="#63b8ff" stroke="#63b8ff" points="614.16,-89.95 610.78,-79.91 607.16,-89.86 614.16,-89.95"/>
</a>
</g>
</g>
<!-- Node12 -->
<g id="Node000012" class="node">
<title>Node12</title>
<g id="a_Node000012"><a xlink:href="../../d4/d35/fault__injection_8hpp.html" target="_top" xlink:title=" ">
<polygon fill="white" stroke="#666666" points="283,-85 173,-85 173,-55 283,-55 283,-85"/>
<text text-anchor="start" x="181" y="-73" font-family="Helvetica,sans-Serif" font-size="10.00">Common/utils/fault</text>
<text text-anchor="middle" x="228" y="-62" font-family="Helvetica,sans-Serif" font-size="10.00">_injection.hpp</text>
</a>
</g>
</g>
<!-- Node9&#45;&gt;Node12 -->
<g id="edge20_Node000009_Node000012" class="edge">
<title>Node9&#45;&gt;Node12</title>
<g id="a_edge20_Node000009_Node000012"><a xlink:title=" ">
<path fill="none" stroke="#63b8ff" d="M594.71,-186.9C551.87,-172.92 464.34,-144.46 390,-121 354.79,-109.89 315.2,-97.66 283.97,-88.08"/>
<polygon fill="#63b8ff" stroke="#63b8ff" points="284.72,-84.65 274.14,-85.07 282.67,-91.35 284.72,-84.65"/>
</a>
</g>
</g>
<!-- Node9&#45;&gt;Node14 -->
<g id="edge23_Node000009_Node000014" class="edge">
<title>Node9&#45;&gt;Node14</title>
<g id="a_edge23_Node000009_Node000014"><a xlink:title=" ">
<path fill="none" stroke="#63b8ff" d="M606.63,-186.94C571.06,-165.75 478.63,-110.69 435.19,-84.82"/>
<polygon fill="#63b8ff" stroke="#63b8ff" points="436.85,-81.73 426.47,-79.62 433.27,-87.74 436.85,-81.73"/>
</a>
</g>
</g>
<!-- Node9&#45;&gt;Node15 -->
<g id="edge27_Node000009_Node000015" class="edge">
<title>Node9&#45;&gt;Node15</title>
<g id="a_edge27_Node000009_Node000015"><a xlink:title=" ">
<path fill="none" stroke="#63b8ff" d="M586.94,-189.07C533.64,-179.01 430.02,-159.46 366.03,-147.39"/>
<polygon fill="#63b8ff" stroke="#63b8ff" points="366.59,-143.93 356.12,-145.51 365.29,-150.81 366.59,-143.93"/>
</a>
</g>
</g>
<!-- Node16 -->
<g id="Node000016" class="node">
<title>Node16</title>
<g id="a_Node000016"><a xlink:href="../../d8/dfd/config_8hpp.html" target="_top" xlink:title=" ">
<polygon fill="white" stroke="#666666" points="138,-145.5 0,-145.5 0,-126.5 138,-126.5 138,-145.5"/>
<text text-anchor="middle" x="69" y="-133.5" font-family="Helvetica,sans-Serif" font-size="10.00">Common/utils/config.hpp</text>
</a>
</g>
</g>
<!-- Node9&#45;&gt;Node16 -->
<g id="edge32_Node000009_Node000016" class="edge">
<title>Node9&#45;&gt;Node16</title>
<g id="a_edge32_Node000009_Node000016"><a xlink:title=" ">
<path fill="none" stroke="#63b8ff" d="M586.89,-191.88C500.35,-182.71 270.5,-158.35 148.18,-145.39"/>
<polygon fill="#63b8ff" stroke="#63b8ff" points="148.43,-141.9 138.12,-144.33 147.7,-148.86 148.43,-141.9"/>
</a>
</g>
</g>
<!-- Node11&#45;&gt;Node4 -->
<g id="edge19_Node000011_Node000004" class="edge">
<title>Node11&#45;&gt;Node4</title>
<g id="a_edge19_Node000011_Node000004"><a xlink:title=" ">
<path fill="none" stroke="#63b8ff" d="M611,-60.37C611,-52.25 611,-39.81 611,-29.39"/>
<polygon fill="#63b8ff" stroke="#63b8ff" points="614.5,-29.17 611,-19.17 607.5,-29.17 614.5,-29.17"/>
</a>
</g>
</g>
<!-- Node12&#45;&gt;Node4 -->
<g id="edge22_Node000012_Node000004" class="edge">
<title>Node12&#45;&gt;Node4</title>
<g id="a_edge22_Node000012_Node000004"><a xlink:title=" ">
<path fill="none" stroke="#63b8ff" d="M283.31,-57.48C287.93,-56.61 292.54,-55.77 297,-55 397.63,-37.68 517.25,-22.1 575.53,-14.83"/>
<polygon fill="#63b8ff" stroke="#63b8ff" points="576.19,-18.27 585.69,-13.57 575.33,-11.33 576.19,-18.27"/>
</a>
</g>
</g>
<!-- Node13 -->
<g id="Node000013" class="node">
<title>Node13</title>
<g id="a_Node000013"><a xlink:title=" ">
<polygon fill="#e0e0e0" stroke="#999999" points="193,-19 143,-19 143,0 193,0 193,-19"/>
<text text-anchor="middle" x="168" y="-7" font-family="Helvetica,sans-Serif" font-size="10.00">atomic</text>
</a>
</g>
</g>
<!-- Node12&#45;&gt;Node13 -->
<g id="edge21_Node000012_Node000013" class="edge">
<title>Node12&#45;&gt;Node13</title>
<g id="a_edge21_Node000012_Node000013"><a xlink:title=" ">
<path fill="none" stroke="#63b8ff" d="M213.48,-54.84C204.68,-46.26 193.43,-35.3 184.33,-26.42"/>
<polygon fill="#63b8ff" stroke="#63b8ff" points="186.59,-23.74 176.99,-19.27 181.71,-28.75 186.59,-23.74"/>
</a>
</g>
</g>
<!-- Node14&#45;&gt;Node4 -->
<g id="edge25_Node000014_Node000004" class="edge">
<title>Node14&#45;&gt;Node4</title>
<g id="a_edge25_Node000014_Node000004"><a xlink:title=" ">
<path fill="none" stroke="#63b8ff" d="M440.94,-60.49C476.76,-49.96 537.72,-32.04 576.1,-20.76"/>
<polygon fill="#63b8ff" stroke="#63b8ff" points="577.2,-24.08 585.81,-17.9 575.23,-17.37 577.2,-24.08"/>
</a>
</g>
</g>
<!-- Node14&#45;&gt;Node5 -->
<g id="edge26_Node000014_Node000005" class="edge">
<title>Node14&#45;&gt;Node5</title>
<g id="a_edge26_Node000014_Node000005"><a xlink:title=" ">
<path fill="none" stroke="#63b8ff" d="M474.53,-60.49C567.8,-47.8 739.96,-24.38 810.55,-14.78"/>
<polygon fill="#63b8ff" stroke="#63b8ff" points="811.16,-18.23 820.59,-13.41 810.21,-11.29 811.16,-18.23"/>
</a>
</g>
</g>
<!-- Node14&#45;&gt;Node13 -->
<g id="edge24_Node000014_Node000013" class="edge">
<title>Node14&#45;&gt;Node13</title>
<g id="a_edge24_Node000014_Node000013"><a xlink:title=" ">
<path fill="none" stroke="#63b8ff" d="M376.52,-60.49C330.07,-49.36 249.15,-29.96 202.96,-18.88"/>
<polygon fill="#63b8ff" stroke="#63b8ff" points="203.65,-15.45 193.11,-16.52 202.01,-22.25 203.65,-15.45"/>
</a>
</g>
</g>
<!-- Node15&#45;&gt;Node4 -->
<g id="edge29_Node000015_Node000004" class="edge">
<title>Node15&#45;&gt;Node4</title>
<g id="a_edge29_Node000015_Node000004"><a xlink:title=" ">
<path fill="none" stroke="#63b8ff" d="M310.21,-126.25C309.25,-109.69 309.79,-73.73 330,-55 365.16,-22.42 508.57,-13.66 575.84,-11.33"/>
<polygon fill="#63b8ff" stroke="#63b8ff" points="576.07,-14.83 585.96,-11.01 575.85,-7.83 576.07,-14.83"/>
</a>
</g>
</g>
<!-- Node15&#45;&gt;Node12 -->
<g id="edge31_Node000015_Node000012" class="edge">
<title>Node15&#45;&gt;Node12</title>
<g id="a_edge31_Node000015_Node000012"><a xlink:title=" ">
<path fill="none" stroke="#63b8ff" d="M299.81,-126.37C288.23,-117.44 269.74,-103.19 254.43,-91.38"/>
<polygon fill="#63b8ff" stroke="#63b8ff" points="256.36,-88.45 246.31,-85.12 252.09,-93.99 256.36,-88.45"/>
</a>
</g>
</g>
<!-- Node15&#45;&gt;Node13 -->
<g id="edge28_Node000015_Node000013" class="edge">
<title>Node15&#45;&gt;Node13</title>
<g id="a_edge28_Node000015_Node000013"><a xlink:title=" ">
<path fill="none" stroke="#63b8ff" d="M240.86,-128.72C212.18,-122.3 181.66,-109.66 164,-85 152.37,-68.76 156.2,-45.05 161.09,-28.76"/>
<polygon fill="#63b8ff" stroke="#63b8ff" points="164.41,-29.88 164.3,-19.29 157.78,-27.63 164.41,-29.88"/>
</a>
</g>
</g>
<!-- Node15&#45;&gt;Node14 -->
<g id="edge30_Node000015_Node000014" class="edge">
<title>Node15&#45;&gt;Node14</title>
<g id="a_edge30_Node000015_Node000014"><a xlink:title=" ">
<path fill="none" stroke="#63b8ff" d="M324.62,-126.37C341.34,-115.78 369.91,-97.67 389.81,-85.06"/>
<polygon fill="#63b8ff" stroke="#63b8ff" points="391.7,-88.01 398.27,-79.7 387.95,-82.1 391.7,-88.01"/>
</a>
</g>
</g>
<!-- Node16&#45;&gt;Node13 -->
<g id="edge33_Node000016_Node000013" class="edge">
<title>Node16&#45;&gt;Node13</title>
<g id="a_edge33_Node000016_Node000013"><a xlink:title=" ">
<path fill="none" stroke="#63b8ff" d="M69.56,-126.37C70.98,-110.61 75.95,-76.82 93,-55 103.86,-41.1 120.36,-30.64 135.13,-23.36"/>
<polygon fill="#63b8ff" stroke="#63b8ff" points="136.89,-26.41 144.5,-19.04 133.96,-20.05 136.89,-26.41"/>
</a>
</g>
</g>
<!-- Node20&#45;&gt;Node3 -->
<g id="edge42_Node000020_Node000003" class="edge">
<title>Node20&#45;&gt;Node3</title>
<g id="a_edge42_Node000020_Node000003"><a xlink:title=" ">
<path fill="none" stroke="#63b8ff" d="M1106.37,-241.94C1130.84,-229.43 1157.75,-209.62 1145,-187 1116.16,-135.83 1054.91,-105.19 1007.93,-88.37"/>
<polygon fill="#63b8ff" stroke="#63b8ff" points="1009.03,-85.05 998.44,-85.09 1006.74,-91.66 1009.03,-85.05"/>
</a>
</g>
</g>
<!-- Node20&#45;&gt;Node4 -->
<g id="edge43_Node000020_Node000004" class="edge">
<title>Node20&#45;&gt;Node4</title>
<g id="a_edge43_Node000020_Node000004"><a xlink:title=" ">
<path fill="none" stroke="#63b8ff" d="M1073.54,-241.76C1074.09,-204.4 1069.92,-103.13 1012,-55 984.09,-31.8 738.52,-17 646.03,-12.2"/>
<polygon fill="#63b8ff" stroke="#63b8ff" points="646.21,-8.71 636.04,-11.69 645.85,-15.7 646.21,-8.71"/>
</a>
</g>
</g>
<!-- Node20&#45;&gt;Node9 -->
<g id="edge41_Node000020_Node000009" class="edge">
<title>Node20&#45;&gt;Node9</title>
<g id="a_edge41_Node000020_Node000009"><a xlink:title=" ">
<path fill="none" stroke="#63b8ff" d="M1011.57,-248.05C919.17,-236.09 746.6,-213.76 665.4,-203.25"/>
<polygon fill="#63b8ff" stroke="#63b8ff" points="665.4,-199.72 655.03,-201.9 664.5,-206.66 665.4,-199.72"/>
</a>
</g>
</g>
<!-- Node20&#45;&gt;Node19 -->
<g id="edge44_Node000020_Node000019" class="edge">
<title>Node20&#45;&gt;Node19</title>
<g id="a_edge44_Node000020_Node000019"><a xlink:title=" ">
<path fill="none" stroke="#63b8ff" d="M1011.97,-245.41C940.34,-232.97 824.23,-212.82 768.23,-203.1"/>
<polygon fill="#63b8ff" stroke="#63b8ff" points="768.63,-199.61 758.18,-201.35 767.44,-206.51 768.63,-199.61"/>
</a>
</g>
</g>
<!-- Node21 -->
<g id="Node000021" class="node">
<title>Node21</title>
<g id="a_Node000021"><a xlink:title=" ">
<polygon fill="#e0e0e0" stroke="#999999" points="1135.5,-206 1088.5,-206 1088.5,-187 1135.5,-187 1135.5,-206"/>
<text text-anchor="middle" x="1112" y="-194" font-family="Helvetica,sans-Serif" font-size="10.00">vector</text>
</a>
</g>
</g>
<!-- Node20&#45;&gt;Node21 -->
<g id="edge45_Node000020_Node000021" class="edge">
<title>Node20&#45;&gt;Node21</title>
<g id="a_edge45_Node000020_Node000021"><a xlink:title=" ">
<path fill="none" stroke="#63b8ff" d="M1082.44,-241.84C1087.87,-233.69 1094.73,-223.4 1100.48,-214.78"/>
<polygon fill="#63b8ff" stroke="#63b8ff" points="1103.52,-216.53 1106.16,-206.27 1097.7,-212.65 1103.52,-216.53"/>
</a>
</g>
</g>
<!-- Node22&#45;&gt;Node4 -->
<g id="edge48_Node000022_Node000004" class="edge">
<title>Node22&#45;&gt;Node4</title>
<g id="a_edge48_Node000022_Node000004"><a xlink:title=" ">
<path fill="none" stroke="#63b8ff" d="M605.08,-241.62C596.42,-232.11 585.54,-219.02 578,-206 549.16,-156.22 542.39,-141.59 532,-85 529.59,-71.89 525.27,-66.51 532,-55 541.63,-38.53 559.85,-27.68 576.37,-20.82"/>
<polygon fill="#63b8ff" stroke="#63b8ff" points="577.71,-24.05 585.82,-17.23 575.23,-17.51 577.71,-24.05"/>
</a>
</g>
</g>
<!-- Node22&#45;&gt;Node9 -->
<g id="edge47_Node000022_Node000009" class="edge">
<title>Node22&#45;&gt;Node9</title>
<g id="a_edge47_Node000022_Node000009"><a xlink:title=" ">
<path fill="none" stroke="#63b8ff" d="M619.48,-241.84C619.74,-234.21 620.07,-224.7 620.35,-216.45"/>
<polygon fill="#63b8ff" stroke="#63b8ff" points="623.86,-216.38 620.7,-206.27 616.86,-216.14 623.86,-216.38"/>
</a>
</g>
</g>
<!-- Node22&#45;&gt;Node19 -->
<g id="edge49_Node000022_Node000019" class="edge">
<title>Node22&#45;&gt;Node19</title>
<g id="a_edge49_Node000022_Node000019"><a xlink:title=" ">
<path fill="none" stroke="#63b8ff" d="M647.02,-241.99C666.02,-232.49 690.97,-220.02 709.61,-210.69"/>
<polygon fill="#63b8ff" stroke="#63b8ff" points="711.34,-213.74 718.72,-206.14 708.21,-207.48 711.34,-213.74"/>
</a>
</g>
</g>
</g>
</svg>
