<?xml version="1.0" encoding="UTF-8" standalone="no"?>
<!DOCTYPE svg PUBLIC "-//W3C//DTD SVG 1.1//EN"
 "http://www.w3.org/Graphics/SVG/1.1/DTD/svg11.dtd">
<!-- Generated by graphviz version 2.43.0 (0)
 -->
<!-- Title: /home/runner/work/IEEE_1588_2019/IEEE_1588_2019/include/Common/utils/health.hpp Pages: 1 -->
<svg width="334pt" height="170pt"
 viewBox="0.00 0.00 334.00 170.00" xmlns="http://www.w3.org/2000/svg" xmlns:xlink="http://www.w3.org/1999/xlink">

<svg id="main" version="1.1" xmlns="http://www.w3.org/2000/svg" xmlns:xlink="http://www.w3.org/1999/xlink" xml:space="preserve" onload="init(evt)">
<style type="text/css"><![CDATA[
.node, .edge {opacity: 0.7;}
.node.selected, .edge.selected {opacity: 1;}
.edge:hover path { stroke: red; }
.edge:hover polygon { stroke: red; fill: red; }
]]></style>
<script type="application/ecmascript" xlink:href="../../svg.min.js"/>
<svg id="graph" class="graph">
<g id="graph0" class="graph" transform="scale(1 1) rotate(0) translate(4 166)">
<title>/home/runner/work/IEEE_1588_2019/IEEE_1588_2019/include/Common/utils/health.hpp</title>
<!-- Node1 -->
<g id="Node000001" class="node">
<title>Node1</title>
<g id="a_Node000001"><a xlink:title=" ">
<polygon fill="#999999" stroke="#666666" points="305.5,-162 124.5,-162 124.5,-121 305.5,-121 305.5,-162"/>
<text text-anchor="start" x="132.5" y="-150" font-family="Helvetica,sans-Serif" font-size="10.00">/home/runner/work/IEEE</text>
<text text-anchor="start" x="132.5" y="-139" font-family="Helvetica,sans-Serif" font-size="10.00">_1588_2019/IEEE_1588_2019</text>
<text text-anchor="middle" x="215" y="-128" font-family="Helvetica,sans-Serif" font-size="10.00">/include/Common/utils/health.hpp</text>
</a>
</g>
</g>
<!-- Node2 -->
<g id="Node000002" class="node">
<title>Node2</title>
<g id="a_Node000002"><a xlink:title=" ">
<polygon fill="#e0e0e0" stroke="#999999" points="199,-19 149,-19 149,0 199,0 199,-19"/>
<text text-anchor="middle" x="174" y="-7" font-family="Helvetica,sans-Serif" font-size="10.00">atomic</text>
</a>
</g>
</g>
<!-- Node1&#45;&gt;Node2 -->
<g id="edge1_Node000001_Node000002" class="edge">
<title>Node1&#45;&gt;Node2</title>
<g id="a_edge1_Node000001_Node000002"><a xlink:title=" ">
<path fill="none" stroke="#63b8ff" d="M206.54,-120.94C202.16,-110.41 196.93,-97.13 193,-85 186.96,-66.38 181.61,-44.65 178.14,-29.48"/>
<polygon fill="#63b8ff" stroke="#63b8ff" points="181.46,-28.32 175.87,-19.32 174.63,-29.84 181.46,-28.32"/>
</a>
</g>
</g>
<!-- Node3 -->
<g id="Node000003" class="node">
<title>Node3</title>
<g id="a_Node000003"><a xlink:title=" ">
<polygon fill="#e0e0e0" stroke="#999999" points="282,-19 232,-19 232,0 282,0 282,-19"/>
<text text-anchor="middle" x="257" y="-7" font-family="Helvetica,sans-Serif" font-size="10.00">cstdint</text>
</a>
</g>
</g>
<!-- Node1&#45;&gt;Node3 -->
<g id="edge2_Node000001_Node000003" class="edge">
<title>Node1&#45;&gt;Node3</title>
<g id="a_edge2_Node000001_Node000003"><a xlink:title=" ">
<path fill="none" stroke="#63b8ff" d="M278.7,-120.93C295.35,-112.6 311.32,-100.99 321,-85 327.9,-73.59 327.18,-66.82 321,-55 313.89,-41.39 300.51,-31.1 287.81,-23.87"/>
<polygon fill="#63b8ff" stroke="#63b8ff" points="289.27,-20.68 278.79,-19.13 286.02,-26.88 289.27,-20.68"/>
</a>
</g>
</g>
<!-- Node4 -->
<g id="Node000004" class="node">
<title>Node4</title>
<g id="a_Node000004"><a xlink:href="../../d4/d44/metrics_8hpp.html" target="_top" xlink:title=" ">
<polygon fill="white" stroke="#666666" points="146,-79.5 0,-79.5 0,-60.5 146,-60.5 146,-79.5"/>
<text text-anchor="middle" x="73" y="-67.5" font-family="Helvetica,sans-Serif" font-size="10.00">Common/utils/metrics.hpp</text>
</a>
</g>
</g>
<!-- Node1&#45;&gt;Node4 -->
<g id="edge3_Node000001_Node000004" class="edge">
<title>Node1&#45;&gt;Node4</title>
<g id="a_edge3_Node000001_Node000004"><a xlink:title=" ">
<path fill="none" stroke="#63b8ff" d="M175.07,-120.96C150.88,-109.12 120.7,-94.35 99.45,-83.95"/>
<polygon fill="#63b8ff" stroke="#63b8ff" points="100.89,-80.76 90.37,-79.5 97.82,-87.04 100.89,-80.76"/>
</a>
</g>
</g>
<!-- Node6 -->
<g id="Node000006" class="node">
<title>Node6</title>
<g id="a_Node000006"><a xlink:href="../../d4/d35/fault__injection_8hpp.html" target="_top" xlink:title=" ">
<polygon fill="white" stroke="#666666" points="312,-85 202,-85 202,-55 312,-55 312,-85"/>
<text text-anchor="start" x="210" y="-73" font-family="Helvetica,sans-Serif" font-size="10.00">Common/utils/fault</text>
<text text-anchor="middle" x="257" y="-62" font-family="Helvetica,sans-Serif" font-size="10.00">_injection.hpp</text>
</a>
</g>
</g>
<!-- Node1&#45;&gt;Node6 -->
<g id="edge7_Node000001_Node000006" class="edge">
<title>Node1&#45;&gt;Node6</title>
<g id="a_edge7_Node000001_Node000006"><a xlink:title=" ">
<path fill="none" stroke="#63b8ff" d="M226.92,-120.77C232.04,-112.31 238.04,-102.38 243.33,-93.63"/>
<polygon fill="#63b8ff" stroke="#63b8ff" points="246.34,-95.41 248.52,-85.04 240.35,-91.79 246.34,-95.41"/>
</a>
</g>
</g>
<!-- Node4&#45;&gt;Node2 -->
<g id="edge4_Node000004_Node000002" class="edge">
<title>Node4&#45;&gt;Node2</title>
<g id="a_edge4_Node000004_Node000002"><a xlink:title=" ">
<path fill="none" stroke="#63b8ff" d="M87.9,-60.37C104.31,-50.86 130.93,-35.45 150.23,-24.27"/>
<polygon fill="#63b8ff" stroke="#63b8ff" points="152.14,-27.21 159.04,-19.17 148.63,-21.15 152.14,-27.21"/>
</a>
</g>
</g>
<!-- Node4&#45;&gt;Node3 -->
<g id="edge5_Node000004_Node000003" class="edge">
<title>Node4&#45;&gt;Node3</title>
<g id="a_edge5_Node000004_Node000003"><a xlink:title=" ">
<path fill="none" stroke="#63b8ff" d="M99.76,-60.49C132.05,-50.23 186.45,-32.93 222.03,-21.62"/>
<polygon fill="#63b8ff" stroke="#63b8ff" points="223.52,-24.82 231.98,-18.45 221.39,-18.15 223.52,-24.82"/>
</a>
</g>
</g>
<!-- Node5 -->
<g id="Node000005" class="node">
<title>Node5</title>
<g id="a_Node000005"><a xlink:title=" ">
<polygon fill="#e0e0e0" stroke="#999999" points="94,-19 52,-19 52,0 94,0 94,-19"/>
<text text-anchor="middle" x="73" y="-7" font-family="Helvetica,sans-Serif" font-size="10.00">array</text>
</a>
</g>
</g>
<!-- Node4&#45;&gt;Node5 -->
<g id="edge6_Node000004_Node000005" class="edge">
<title>Node4&#45;&gt;Node5</title>
<g id="a_edge6_Node000004_Node000005"><a xlink:title=" ">
<path fill="none" stroke="#63b8ff" d="M73,-60.37C73,-52.25 73,-39.81 73,-29.39"/>
<polygon fill="#63b8ff" stroke="#63b8ff" points="76.5,-29.17 73,-19.17 69.5,-29.17 76.5,-29.17"/>
</a>
</g>
</g>
<!-- Node6&#45;&gt;Node2 -->
<g id="edge8_Node000006_Node000002" class="edge">
<title>Node6&#45;&gt;Node2</title>
<g id="a_edge8_Node000006_Node000002"><a xlink:title=" ">
<path fill="none" stroke="#63b8ff" d="M236.91,-54.84C224.12,-45.83 207.6,-34.18 194.7,-25.09"/>
<polygon fill="#63b8ff" stroke="#63b8ff" points="196.63,-22.17 186.44,-19.27 192.59,-27.89 196.63,-22.17"/>
</a>
</g>
</g>
<!-- Node6&#45;&gt;Node3 -->
<g id="edge9_Node000006_Node000003" class="edge">
<title>Node6&#45;&gt;Node3</title>
<g id="a_edge9_Node000006_Node000003"><a xlink:title=" ">
<path fill="none" stroke="#63b8ff" d="M257,-54.84C257,-47.21 257,-37.7 257,-29.45"/>
<polygon fill="#63b8ff" stroke="#63b8ff" points="260.5,-29.27 257,-19.27 253.5,-29.27 260.5,-29.27"/>
</a>
</g>
</g>
</g>
</svg>
</svg>

<style type='text/css'>
<![CDATA[
[data-mouse-over-selected='false'] { opacity: 0.7; }
[data-mouse-over-selected='true']  { opacity: 1.0; }
]]>
</style>
<script type="application/ecmascript"><![CDATA[
document.addEventListener('DOMContentLoaded', (event) => {
  highlightEdges();
  highlightAdjacentNodes();
});
]]></script>
</svg>
