<?xml version="1.0" encoding="UTF-8" standalone="no"?>
<!DOCTYPE svg PUBLIC "-//W3C//DTD SVG 1.1//EN"
 "http://www.w3.org/Graphics/SVG/1.1/DTD/svg11.dtd">
<!-- Generated by graphviz version 2.43.0 (0)
 -->
<!-- Title: /home/runner/work/IEEE_1588_2019/IEEE_1588_2019/include/Common/utils/logger.hpp Pages: 1 -->
<svg width="1115pt" height="390pt"
 viewBox="0.00 0.00 1115.00 390.00" xmlns="http://www.w3.org/2000/svg" xmlns:xlink="http://www.w3.org/1999/xlink">
<g id="graph0" class="graph" transform="scale(1 1) rotate(0) translate(4 386)">
<title>/home/runner/work/IEEE_1588_2019/IEEE_1588_2019/include/Common/utils/logger.hpp</title>
<!-- Node1 -->
<g id="Node000001" class="node">
<title>Node1</title>
<g id="a_Node000001"><a xlink:title=" ">
<polygon fill="#999999" stroke="#666666" points="851,-382 671,-382 671,-341 851,-341 851,-382"/>
<text text-anchor="start" x="679" y="-370" font-family="Helvetica,sans-Serif" font-size="10.00">/home/runner/work/IEEE</text>
<text text-anchor="start" x="679" y="-359" font-family="Helvetica,sans-Serif" font-size="10.00">_1588_2019/IEEE_1588_2019</text>
<text text-anchor="middle" x="761" y="-348" font-family="Helvetica,sans-Serif" font-size="10.00">/include/Common/utils/logger.hpp</text>
</a>
</g>
</g>
<!-- Node2 -->
<g id="Node000002" class="node">
<title>Node2</title>
<g id="a_Node000002"><a xlink:href="../../dd/dc5/clocks_8hpp.html" target="_top" xlink:title="IEEE 1588&#45;2019 PTP Clock State Machines Implementation.">
<polygon fill="white" stroke="#666666" points="645,-305 487,-305 487,-264 645,-264 645,-305"/>
<text text-anchor="start" x="495" y="-293" font-family="Helvetica,sans-Serif" font-size="10.00">/home/runner/work/IEEE</text>
<text text-anchor="start" x="495" y="-282" font-family="Helvetica,sans-Serif" font-size="10.00">_1588_2019/IEEE_1588_2019</text>
<text text-anchor="middle" x="566" y="-271" font-family="Helvetica,sans-Serif" font-size="10.00">/include/clocks.hpp</text>
</a>
</g>
</g>
<!-- Node1&#45;&gt;Node2 -->
<g id="edge1_Node000001_Node000002" class="edge">
<title>Node1&#45;&gt;Node2</title>
<g id="a_edge1_Node000001_Node000002"><a xlink:title=" ">
<path fill="none" stroke="#63b8ff" d="M700.6,-337.27C673.73,-326.94 642.45,-314.9 616.81,-305.04"/>
<polygon fill="#63b8ff" stroke="#63b8ff" points="699.69,-340.67 710.28,-340.99 702.2,-334.13 699.69,-340.67"/>
</a>
</g>
</g>
<!-- Node7 -->
<g id="Node000007" class="node">
<title>Node7</title>
<g id="a_Node000007"><a xlink:href="../../dc/df9/bmca__integration_8cpp.html" target="_top" xlink:title="BMCA Runtime Integration Coordinator Implementation.">
<polygon fill="white" stroke="#666666" points="1107,-134.5 949,-134.5 949,-93.5 1107,-93.5 1107,-134.5"/>
<text text-anchor="start" x="957" y="-122.5" font-family="Helvetica,sans-Serif" font-size="10.00">/home/runner/work/IEEE</text>
<text text-anchor="start" x="957" y="-111.5" font-family="Helvetica,sans-Serif" font-size="10.00">_1588_2019/IEEE_1588_2019</text>
<text text-anchor="middle" x="1028" y="-100.5" font-family="Helvetica,sans-Serif" font-size="10.00">/src/bmca_integration.cpp</text>
</a>
</g>
</g>
<!-- Node1&#45;&gt;Node7 -->
<g id="edge24_Node000001_Node000007" class="edge">
<title>Node1&#45;&gt;Node7</title>
<g id="a_edge24_Node000001_Node000007"><a xlink:title=" ">
<path fill="none" stroke="#63b8ff" d="M827.59,-337.06C878.68,-315.91 947.44,-280.06 990,-228 1012.53,-200.44 1021.94,-158.9 1025.69,-134.61"/>
<polygon fill="#63b8ff" stroke="#63b8ff" points="826.22,-333.84 818.27,-340.84 828.85,-340.33 826.22,-333.84"/>
</a>
</g>
</g>
<!-- Node3 -->
<g id="Node000003" class="node">
<title>Node3</title>
<g id="a_Node000003"><a xlink:href="../../d4/dbb/bmca__integration_8hpp.html" target="_top" xlink:title="BMCA Runtime Integration Coordinator.">
<polygon fill="white" stroke="#666666" points="981,-228 823,-228 823,-176 981,-176 981,-228"/>
<text text-anchor="start" x="831" y="-216" font-family="Helvetica,sans-Serif" font-size="10.00">/home/runner/work/IEEE</text>
<text text-anchor="start" x="831" y="-205" font-family="Helvetica,sans-Serif" font-size="10.00">_1588_2019/IEEE_1588_2019</text>
<text text-anchor="start" x="831" y="-194" font-family="Helvetica,sans-Serif" font-size="10.00">/include/IEEE/1588/PTP/2019</text>
<text text-anchor="middle" x="902" y="-183" font-family="Helvetica,sans-Serif" font-size="10.00">/bmca_integration.hpp</text>
</a>
</g>
</g>
<!-- Node2&#45;&gt;Node3 -->
<g id="edge2_Node000002_Node000003" class="edge">
<title>Node2&#45;&gt;Node3</title>
<g id="a_edge2_Node000002_Node000003"><a xlink:title=" ">
<path fill="none" stroke="#63b8ff" d="M654.94,-264.87C702.32,-254.63 761.5,-241.32 814,-228 816.92,-227.26 819.9,-226.49 822.9,-225.7"/>
<polygon fill="#63b8ff" stroke="#63b8ff" points="654.05,-261.48 645.01,-267.01 655.53,-268.33 654.05,-261.48"/>
</a>
</g>
</g>
<!-- Node4 -->
<g id="Node000004" class="node">
<title>Node4</title>
<g id="a_Node000004"><a xlink:href="../../de/d83/message__flow__integration_8hpp.html" target="_top" xlink:title="IEEE 1588&#45;2019 Message Flow Integration Coordinator.">
<polygon fill="white" stroke="#666666" points="641.5,-140 472.5,-140 472.5,-88 641.5,-88 641.5,-140"/>
<text text-anchor="start" x="480.5" y="-128" font-family="Helvetica,sans-Serif" font-size="10.00">/home/runner/work/IEEE</text>
<text text-anchor="start" x="480.5" y="-117" font-family="Helvetica,sans-Serif" font-size="10.00">_1588_2019/IEEE_1588_2019</text>
<text text-anchor="start" x="480.5" y="-106" font-family="Helvetica,sans-Serif" font-size="10.00">/include/IEEE/1588/PTP/2019</text>
<text text-anchor="middle" x="557" y="-95" font-family="Helvetica,sans-Serif" font-size="10.00">/message_flow_integration.hpp</text>
</a>
</g>
</g>
<!-- Node2&#45;&gt;Node4 -->
<g id="edge9_Node000002_Node000004" class="edge">
<title>Node2&#45;&gt;Node4</title>
<g id="a_edge9_Node000002_Node000004"><a xlink:title=" ">
<path fill="none" stroke="#63b8ff" d="M587.33,-255.36C592.51,-246.99 597.32,-237.5 600,-228 606.27,-205.76 606.98,-198.03 600,-176 595.89,-163.03 587.92,-150.44 579.94,-140.1"/>
<polygon fill="#63b8ff" stroke="#63b8ff" points="584.25,-253.67 581.65,-263.95 590.09,-257.53 584.25,-253.67"/>
</a>
</g>
</g>
<!-- Node8 -->
<g id="Node000008" class="node">
<title>Node8</title>
<g id="a_Node000008"><a xlink:href="../../d9/dbe/profile_8hpp.html" target="_top" xlink:title="Generic PTP profile abstraction supporting multiple external standards (IEEE 1588&#45;2019 core,...">
<polygon fill="white" stroke="#666666" points="239,-228 81,-228 81,-176 239,-176 239,-228"/>
<text text-anchor="start" x="89" y="-216" font-family="Helvetica,sans-Serif" font-size="10.00">/home/runner/work/IEEE</text>
<text text-anchor="start" x="89" y="-205" font-family="Helvetica,sans-Serif" font-size="10.00">_1588_2019/IEEE_1588_2019</text>
<text text-anchor="start" x="89" y="-194" font-family="Helvetica,sans-Serif" font-size="10.00">/include/IEEE/1588/PTP/2019</text>
<text text-anchor="middle" x="160" y="-183" font-family="Helvetica,sans-Serif" font-size="10.00">/profile.hpp</text>
</a>
</g>
</g>
<!-- Node2&#45;&gt;Node8 -->
<g id="edge10_Node000002_Node000008" class="edge">
<title>Node2&#45;&gt;Node8</title>
<g id="a_edge10_Node000002_Node000008"><a xlink:title=" ">
<path fill="none" stroke="#63b8ff" d="M476.75,-270.47C412.73,-260.5 324.62,-245.52 248,-228 245.06,-227.33 242.07,-226.62 239.05,-225.88"/>
<polygon fill="#63b8ff" stroke="#63b8ff" points="476.39,-273.95 486.81,-272.02 477.46,-267.04 476.39,-273.95"/>
</a>
</g>
</g>
<!-- Node9 -->
<g id="Node000009" class="node">
<title>Node9</title>
<g id="a_Node000009"><a xlink:href="../../d3/d46/profile__adapter_8hpp.html" target="_top" xlink:title="Minimal adapter to apply a ProfileConfig to a PTP PortConfiguration.">
<polygon fill="white" stroke="#666666" points="158,-140 0,-140 0,-88 158,-88 158,-140"/>
<text text-anchor="start" x="8" y="-128" font-family="Helvetica,sans-Serif" font-size="10.00">/home/runner/work/IEEE</text>
<text text-anchor="start" x="8" y="-117" font-family="Helvetica,sans-Serif" font-size="10.00">_1588_2019/IEEE_1588_2019</text>
<text text-anchor="start" x="8" y="-106" font-family="Helvetica,sans-Serif" font-size="10.00">/include/IEEE/1588/PTP/2019</text>
<text text-anchor="middle" x="79" y="-95" font-family="Helvetica,sans-Serif" font-size="10.00">/profile_adapter.hpp</text>
</a>
</g>
</g>
<!-- Node2&#45;&gt;Node9 -->
<g id="edge12_Node000002_Node000009" class="edge">
<title>Node2&#45;&gt;Node9</title>
<g id="a_edge12_Node000002_Node000009"><a xlink:title=" ">
<path fill="none" stroke="#63b8ff" d="M476.67,-279.81C341.65,-273.29 98.43,-257.57 72,-228 50.91,-204.41 59.12,-165.8 68.11,-140.39"/>
<polygon fill="#63b8ff" stroke="#63b8ff" points="476.84,-283.32 487,-280.3 477.17,-276.33 476.84,-283.32"/>
</a>
</g>
</g>
<!-- Node10 -->
<g id="Node000010" class="node">
<title>Node10</title>
<g id="a_Node000010"><a xlink:href="../../da/d7e/servo__integration_8hpp.html" target="_top" xlink:title="IEEE 1588&#45;2019 Servo Integration &#45; Clock Adjustment Control.">
<polygon fill="white" stroke="#666666" points="805,-228 647,-228 647,-176 805,-176 805,-228"/>
<text text-anchor="start" x="655" y="-216" font-family="Helvetica,sans-Serif" font-size="10.00">/home/runner/work/IEEE</text>
<text text-anchor="start" x="655" y="-205" font-family="Helvetica,sans-Serif" font-size="10.00">_1588_2019/IEEE_1588_2019</text>
<text text-anchor="start" x="655" y="-194" font-family="Helvetica,sans-Serif" font-size="10.00">/include/IEEE/1588/PTP/2019</text>
<text text-anchor="middle" x="726" y="-183" font-family="Helvetica,sans-Serif" font-size="10.00">/servo_integration.hpp</text>
</a>
</g>
</g>
<!-- Node2&#45;&gt;Node10 -->
<g id="edge13_Node000002_Node000010" class="edge">
<title>Node2&#45;&gt;Node10</title>
<g id="a_edge13_Node000002_Node000010"><a xlink:title=" ">
<path fill="none" stroke="#63b8ff" d="M614.18,-259.26C633.74,-249.42 656.33,-238.06 676.06,-228.13"/>
<polygon fill="#63b8ff" stroke="#63b8ff" points="612.5,-256.19 605.14,-263.81 615.65,-262.44 612.5,-256.19"/>
</a>
</g>
</g>
<!-- Node12 -->
<g id="Node000012" class="node">
<title>Node12</title>
<g id="a_Node000012"><a xlink:href="../../d0/d75/sync__integration_8hpp.html" target="_top" xlink:title="IEEE 1588&#45;2019 Synchronization Integration Coordinator.">
<polygon fill="white" stroke="#666666" points="415,-228 257,-228 257,-176 415,-176 415,-228"/>
<text text-anchor="start" x="265" y="-216" font-family="Helvetica,sans-Serif" font-size="10.00">/home/runner/work/IEEE</text>
<text text-anchor="start" x="265" y="-205" font-family="Helvetica,sans-Serif" font-size="10.00">_1588_2019/IEEE_1588_2019</text>
<text text-anchor="start" x="265" y="-194" font-family="Helvetica,sans-Serif" font-size="10.00">/include/IEEE/1588/PTP/2019</text>
<text text-anchor="middle" x="336" y="-183" font-family="Helvetica,sans-Serif" font-size="10.00">/sync_integration.hpp</text>
</a>
</g>
</g>
<!-- Node2&#45;&gt;Node12 -->
<g id="edge18_Node000002_Node000012" class="edge">
<title>Node2&#45;&gt;Node12</title>
<g id="a_edge18_Node000002_Node000012"><a xlink:title=" ">
<path fill="none" stroke="#63b8ff" d="M500.4,-260.54C471.39,-250.39 437.2,-238.42 407.54,-228.04"/>
<polygon fill="#63b8ff" stroke="#63b8ff" points="499.43,-263.91 510.03,-263.91 501.75,-257.3 499.43,-263.91"/>
</a>
</g>
</g>
<!-- Node14 -->
<g id="Node000014" class="node">
<title>Node14</title>
<g id="a_Node000014"><a xlink:href="../../d0/d70/clocks_8cpp.html" target="_top" xlink:title="IEEE 1588&#45;2019 PTP Clock State Machines Implementation.">
<polygon fill="white" stroke="#666666" points="591,-222.5 433,-222.5 433,-181.5 591,-181.5 591,-222.5"/>
<text text-anchor="start" x="441" y="-210.5" font-family="Helvetica,sans-Serif" font-size="10.00">/home/runner/work/IEEE</text>
<text text-anchor="start" x="441" y="-199.5" font-family="Helvetica,sans-Serif" font-size="10.00">_1588_2019/IEEE_1588_2019</text>
<text text-anchor="middle" x="512" y="-188.5" font-family="Helvetica,sans-Serif" font-size="10.00">/src/clocks.cpp</text>
</a>
</g>
</g>
<!-- Node2&#45;&gt;Node14 -->
<g id="edge23_Node000002_Node000014" class="edge">
<title>Node2&#45;&gt;Node14</title>
<g id="a_edge23_Node000002_Node000014"><a xlink:title=" ">
<path fill="none" stroke="#63b8ff" d="M546.87,-254.98C539.7,-244.29 531.71,-232.38 525.19,-222.67"/>
<polygon fill="#63b8ff" stroke="#63b8ff" points="544.17,-257.25 552.65,-263.6 549.99,-253.35 544.17,-257.25"/>
</a>
</g>
</g>
<!-- Node3&#45;&gt;Node4 -->
<g id="edge3_Node000003_Node000004" class="edge">
<title>Node3&#45;&gt;Node4</title>
<g id="a_edge3_Node000003_Node000004"><a xlink:title=" ">
<path fill="none" stroke="#63b8ff" d="M812.83,-175.73C750.21,-159.53 689.39,-145.12 641.73,-134.13"/>
<polygon fill="#63b8ff" stroke="#63b8ff" points="812.33,-179.22 822.89,-178.35 814.09,-172.45 812.33,-179.22"/>
</a>
</g>
</g>
<!-- Node5 -->
<g id="Node000005" class="node">
<title>Node5</title>
<g id="a_Node000005"><a xlink:href="../../d7/daa/message__flow__integration_8cpp.html" target="_top" xlink:title="IEEE 1588&#45;2019 Message Flow Integration Implementation.">
<polygon fill="white" stroke="#666666" points="753.5,-46.5 568.5,-46.5 568.5,-5.5 753.5,-5.5 753.5,-46.5"/>
<text text-anchor="start" x="576.5" y="-34.5" font-family="Helvetica,sans-Serif" font-size="10.00">/home/runner/work/IEEE</text>
<text text-anchor="start" x="576.5" y="-23.5" font-family="Helvetica,sans-Serif" font-size="10.00">_1588_2019/IEEE_1588_2019</text>
<text text-anchor="middle" x="661" y="-12.5" font-family="Helvetica,sans-Serif" font-size="10.00">/src/message_flow_integration.cpp</text>
</a>
</g>
</g>
<!-- Node3&#45;&gt;Node5 -->
<g id="edge7_Node000003_Node000005" class="edge">
<title>Node3&#45;&gt;Node5</title>
<g id="a_edge7_Node000003_Node000005"><a xlink:title=" ">
<path fill="none" stroke="#63b8ff" d="M910.51,-165.58C914.18,-141.15 914.31,-109.36 897,-88 878.65,-65.36 811.72,-49.42 753.8,-39.53"/>
<polygon fill="#63b8ff" stroke="#63b8ff" points="907.04,-165.09 908.76,-175.54 913.94,-166.3 907.04,-165.09"/>
</a>
</g>
</g>
<!-- Node6 -->
<g id="Node000006" class="node">
<title>Node6</title>
<g id="a_Node000006"><a xlink:href="../../d6/d99/message__flow__integration__bup_8cpp.html" target="_top" xlink:title=" ">
<polygon fill="white" stroke="#666666" points="542.5,-52 377.5,-52 377.5,0 542.5,0 542.5,-52"/>
<text text-anchor="start" x="385.5" y="-40" font-family="Helvetica,sans-Serif" font-size="10.00">/home/runner/work/IEEE</text>
<text text-anchor="start" x="385.5" y="-29" font-family="Helvetica,sans-Serif" font-size="10.00">_1588_2019/IEEE_1588_2019</text>
<text text-anchor="start" x="385.5" y="-18" font-family="Helvetica,sans-Serif" font-size="10.00">/src/message_flow_integration</text>
<text text-anchor="middle" x="460" y="-7" font-family="Helvetica,sans-Serif" font-size="10.00">_bup.cpp</text>
</a>
</g>
</g>
<!-- Node3&#45;&gt;Node6 -->
<g id="edge8_Node000003_Node000006" class="edge">
<title>Node3&#45;&gt;Node6</title>
<g id="a_edge8_Node000003_Node000006"><a xlink:title=" ">
<path fill="none" stroke="#63b8ff" d="M899.84,-165.9C896.28,-140.26 887.16,-106.81 864,-88 811.19,-45.11 626.91,-64.27 560,-52 554.37,-50.97 548.58,-49.8 542.77,-48.55"/>
<polygon fill="#63b8ff" stroke="#63b8ff" points="896.38,-166.47 901.01,-176 903.33,-165.66 896.38,-166.47"/>
</a>
</g>
</g>
<!-- Node3&#45;&gt;Node7 -->
<g id="edge6_Node000003_Node000007" class="edge">
<title>Node3&#45;&gt;Node7</title>
<g id="a_edge6_Node000003_Node000007"><a xlink:title=" ">
<path fill="none" stroke="#63b8ff" d="M947.15,-170.19C964.56,-158.3 983.96,-145.06 999.39,-134.53"/>
<polygon fill="#63b8ff" stroke="#63b8ff" points="945.07,-167.37 938.78,-175.89 949.02,-173.15 945.07,-167.37"/>
</a>
</g>
</g>
<!-- Node4&#45;&gt;Node5 -->
<g id="edge4_Node000004_Node000005" class="edge">
<title>Node4&#45;&gt;Node5</title>
<g id="a_edge4_Node000004_Node000005"><a xlink:title=" ">
<path fill="none" stroke="#63b8ff" d="M595.44,-81.21C609.51,-69.58 624.99,-56.77 637.38,-46.53"/>
<polygon fill="#63b8ff" stroke="#63b8ff" points="592.84,-78.82 587.36,-87.89 597.3,-84.22 592.84,-78.82"/>
</a>
</g>
</g>
<!-- Node4&#45;&gt;Node6 -->
<g id="edge5_Node000004_Node000006" class="edge">
<title>Node4&#45;&gt;Node6</title>
<g id="a_edge5_Node000004_Node000006"><a xlink:title=" ">
<path fill="none" stroke="#63b8ff" d="M521.06,-81.13C510.32,-71.62 498.71,-61.32 488.52,-52.29"/>
<polygon fill="#63b8ff" stroke="#63b8ff" points="518.88,-83.88 528.68,-87.89 523.52,-78.64 518.88,-83.88"/>
</a>
</g>
</g>
<!-- Node8&#45;&gt;Node9 -->
<g id="edge11_Node000008_Node000009" class="edge">
<title>Node8&#45;&gt;Node9</title>
<g id="a_edge11_Node000008_Node000009"><a xlink:title=" ">
<path fill="none" stroke="#63b8ff" d="M129.25,-168.35C120.45,-159.01 111,-148.98 102.69,-140.16"/>
<polygon fill="#63b8ff" stroke="#63b8ff" points="126.73,-170.78 136.14,-175.66 131.83,-165.98 126.73,-170.78"/>
</a>
</g>
</g>
<!-- Node10&#45;&gt;Node4 -->
<g id="edge14_Node000010_Node000004" class="edge">
<title>Node10&#45;&gt;Node4</title>
<g id="a_edge14_Node000010_Node000004"><a xlink:title=" ">
<path fill="none" stroke="#63b8ff" d="M667.66,-171.31C647.7,-161.16 625.58,-149.9 606.4,-140.14"/>
<polygon fill="#63b8ff" stroke="#63b8ff" points="666.16,-174.48 676.66,-175.89 669.34,-168.24 666.16,-174.48"/>
</a>
</g>
</g>
<!-- Node10&#45;&gt;Node5 -->
<g id="edge15_Node000010_Node000005" class="edge">
<title>Node10&#45;&gt;Node5</title>
<g id="a_edge15_Node000010_Node000005"><a xlink:title=" ">
<path fill="none" stroke="#63b8ff" d="M702.3,-167.26C697.02,-158.66 691.86,-149.23 688,-140 674.93,-108.73 667.39,-69.84 663.75,-46.79"/>
<polygon fill="#63b8ff" stroke="#63b8ff" points="699.47,-169.32 707.79,-175.88 705.37,-165.56 699.47,-169.32"/>
</a>
</g>
</g>
<!-- Node10&#45;&gt;Node6 -->
<g id="edge16_Node000010_Node000006" class="edge">
<title>Node10&#45;&gt;Node6</title>
<g id="a_edge16_Node000010_Node000006"><a xlink:title=" ">
<path fill="none" stroke="#63b8ff" d="M636.86,-182.92C563.17,-167.56 469.71,-146.93 464,-140 443.91,-115.6 447.51,-77.2 452.95,-52.05"/>
<polygon fill="#63b8ff" stroke="#63b8ff" points="636.15,-186.35 646.66,-184.96 637.58,-179.5 636.15,-186.35"/>
</a>
</g>
</g>
<!-- Node11 -->
<g id="Node000011" class="node">
<title>Node11</title>
<g id="a_Node000011"><a xlink:href="../../d3/d20/servo__integration_8cpp.html" target="_top" xlink:title="IEEE 1588&#45;2019 Servo Integration Implementation.">
<polygon fill="white" stroke="#666666" points="855,-134.5 697,-134.5 697,-93.5 855,-93.5 855,-134.5"/>
<text text-anchor="start" x="705" y="-122.5" font-family="Helvetica,sans-Serif" font-size="10.00">/home/runner/work/IEEE</text>
<text text-anchor="start" x="705" y="-111.5" font-family="Helvetica,sans-Serif" font-size="10.00">_1588_2019/IEEE_1588_2019</text>
<text text-anchor="middle" x="776" y="-100.5" font-family="Helvetica,sans-Serif" font-size="10.00">/src/servo_integration.cpp</text>
</a>
</g>
</g>
<!-- Node10&#45;&gt;Node11 -->
<g id="edge17_Node000010_Node000011" class="edge">
<title>Node10&#45;&gt;Node11</title>
<g id="a_edge17_Node000010_Node000011"><a xlink:title=" ">
<path fill="none" stroke="#63b8ff" d="M745.9,-166.76C752.24,-155.88 759.02,-144.2 764.54,-134.7"/>
<polygon fill="#63b8ff" stroke="#63b8ff" points="742.73,-165.26 740.73,-175.66 748.78,-168.78 742.73,-165.26"/>
</a>
</g>
</g>
<!-- Node12&#45;&gt;Node4 -->
<g id="edge19_Node000012_Node000004" class="edge">
<title>Node12&#45;&gt;Node4</title>
<g id="a_edge19_Node000012_Node000004"><a xlink:title=" ">
<path fill="none" stroke="#63b8ff" d="M410.18,-172.14C436.82,-161.77 466.64,-150.16 492.4,-140.14"/>
<polygon fill="#63b8ff" stroke="#63b8ff" points="408.57,-169.01 400.52,-175.89 411.11,-175.53 408.57,-169.01"/>
</a>
</g>
</g>
<!-- Node12&#45;&gt;Node5 -->
<g id="edge20_Node000012_Node000005" class="edge">
<title>Node12&#45;&gt;Node5</title>
<g id="a_edge20_Node000012_Node000005"><a xlink:title=" ">
<path fill="none" stroke="#63b8ff" d="M365.28,-168.5C389.54,-143.34 426.06,-109.31 464,-88 485.38,-75.99 540.3,-59.36 586.73,-46.5"/>
<polygon fill="#63b8ff" stroke="#63b8ff" points="362.51,-166.33 358.16,-175.99 367.59,-171.15 362.51,-166.33"/>
</a>
</g>
</g>
<!-- Node12&#45;&gt;Node6 -->
<g id="edge21_Node000012_Node000006" class="edge">
<title>Node12&#45;&gt;Node6</title>
<g id="a_edge21_Node000012_Node000006"><a xlink:title=" ">
<path fill="none" stroke="#63b8ff" d="M349.61,-166.18C359.66,-142.81 374.74,-112.03 393,-88 402.9,-74.97 415.81,-62.46 427.66,-52.2"/>
<polygon fill="#63b8ff" stroke="#63b8ff" points="346.26,-165.12 345.62,-175.7 352.71,-167.83 346.26,-165.12"/>
</a>
</g>
</g>
<!-- Node13 -->
<g id="Node000013" class="node">
<title>Node13</title>
<g id="a_Node000013"><a xlink:href="../../da/d84/sync__integration_8cpp.html" target="_top" xlink:title="IEEE 1588&#45;2019 Synchronization Integration Implementation.">
<polygon fill="white" stroke="#666666" points="341,-134.5 183,-134.5 183,-93.5 341,-93.5 341,-134.5"/>
<text text-anchor="start" x="191" y="-122.5" font-family="Helvetica,sans-Serif" font-size="10.00">/home/runner/work/IEEE</text>
<text text-anchor="start" x="191" y="-111.5" font-family="Helvetica,sans-Serif" font-size="10.00">_1588_2019/IEEE_1588_2019</text>
<text text-anchor="middle" x="262" y="-100.5" font-family="Helvetica,sans-Serif" font-size="10.00">/src/sync_integration.cpp</text>
</a>
</g>
</g>
<!-- Node12&#45;&gt;Node13 -->
<g id="edge22_Node000012_Node000013" class="edge">
<title>Node12&#45;&gt;Node13</title>
<g id="a_edge22_Node000012_Node000013"><a xlink:title=" ">
<path fill="none" stroke="#63b8ff" d="M307.66,-168.07C297.98,-156.81 287.45,-144.58 278.95,-134.7"/>
<polygon fill="#63b8ff" stroke="#63b8ff" points="305.02,-170.37 314.2,-175.66 310.33,-165.8 305.02,-170.37"/>
</a>
</g>
</g>
</g>
</svg>
