<?xml version="1.0" encoding="UTF-8" standalone="no"?>
<!DOCTYPE svg PUBLIC "-//W3C//DTD SVG 1.1//EN"
 "http://www.w3.org/Graphics/SVG/1.1/DTD/svg11.dtd">
<!-- Generated by graphviz version 2.43.0 (0)
 -->
<!-- Title: /home/runner/work/IEEE_1588_2019/IEEE_1588_2019/include/Common/utils/config.hpp Pages: 1 -->
<!--zoomable 390 -->

<svg id="main" version="1.1" xmlns="http://www.w3.org/2000/svg" xmlns:xlink="http://www.w3.org/1999/xlink" xml:space="preserve" onload="init(evt)">
<style type="text/css"><![CDATA[
.node, .edge {opacity: 0.7;}
.node.selected, .edge.selected {opacity: 1;}
.edge:hover path { stroke: red; }
.edge:hover polygon { stroke: red; fill: red; }
]]></style>

<defs>
  <circle id="rim" cx="0" cy="0" r="7"/>
  <circle id="rim2" cx="0" cy="0" r="3.5"/>
  <g id="zoomPlus">
    <use xlink:href="#rim" fill="#404040"><set attributeName="fill" to="#808080" begin="zoomplus.mouseover" end="zoomplus.mouseout"/></use>
    <path d="M-4,0h8M0,-4v8" fill="none" stroke="white" stroke-width="1.5" pointer-events="none"/>
  </g>
  <g id="zoomMin">
    <use xlink:href="#rim" fill="#404040"><set attributeName="fill" to="#808080" begin="zoomminus.mouseover" end="zoomminus.mouseout"/></use>
    <path d="M-4,0h8" fill="none" stroke="white" stroke-width="1.5" pointer-events="none"/>
  </g>
  <g id="arrowUp" transform="translate(30 24)">
    <use xlink:href="#rim"/>
    <path pointer-events="none" fill="none" stroke="white" stroke-width="1.5" d="M0,-3.0v7 M-2.5,-0.5L0,-3.0L2.5,-0.5"/>
  </g>
  <g id="arrowRight" transform="rotate(90) translate(36 -43)">
    <use xlink:href="#rim"/>
    <path pointer-events="none" fill="none" stroke="white" stroke-width="1.5" d="M0,-3.0v7 M-2.5,-0.5L0,-3.0L2.5,-0.5"/>
  </g>
  <g id="arrowDown" transform="rotate(180) translate(-30 -48)">
    <use xlink:href="#rim"/>
    <path pointer-events="none" fill="none" stroke="white" stroke-width="1.5" d="M0,-3.0v7 M-2.5,-0.5L0,-3.0L2.5,-0.5"/>
  </g>
  <g id="arrowLeft" transform="rotate(270) translate(-36 17)">
    <use xlink:href="#rim"/>
    <path pointer-events="none" fill="none" stroke="white" stroke-width="1.5" d="M0,-3.0v7 M-2.5,-0.5L0,-3.0L2.5,-0.5"/>
  </g>
  <g id="resetDef">
    <use xlink:href="#rim2" fill="#404040"><set attributeName="fill" to="#808080" begin="reset.mouseover" end="reset.mouseout"/></use>
  </g>
</defs>
<script type="application/ecmascript">
var viewWidth = 1177;
var viewHeight = 390;
var sectionId = 'dynsection-1';
</script>
<script type="application/ecmascript" xlink:href="../../svg.min.js"/>
<svg id="graph" class="graph">
<g id="viewport">
<title>/home/runner/work/IEEE_1588_2019/IEEE_1588_2019/include/Common/utils/config.hpp</title>
<!-- Node1 -->
<g id="Node000001" class="node">
<title>Node1</title>
<g id="a_Node000001"><a xlink:title=" ">
<polygon fill="#999999" stroke="#666666" points="789.5,-382 610.5,-382 610.5,-341 789.5,-341 789.5,-382"/>
<text text-anchor="start" x="618.5" y="-370" font-family="Helvetica,sans-Serif" font-size="10.00">/home/runner/work/IEEE</text>
<text text-anchor="start" x="618.5" y="-359" font-family="Helvetica,sans-Serif" font-size="10.00">_1588_2019/IEEE_1588_2019</text>
<text text-anchor="middle" x="700" y="-348" font-family="Helvetica,sans-Serif" font-size="10.00">/include/Common/utils/config.hpp</text>
</a>
</g>
</g>
<!-- Node2 -->
<g id="Node000002" class="node">
<title>Node2</title>
<g id="a_Node000002"><a xlink:href="../../dd/dc5/clocks_8hpp.html" target="_top" xlink:title="IEEE 1588&#45;2019 PTP Clock State Machines Implementation.">
<polygon fill="white" stroke="#666666" points="779,-305 621,-305 621,-264 779,-264 779,-305"/>
<text text-anchor="start" x="629" y="-293" font-family="Helvetica,sans-Serif" font-size="10.00">/home/runner/work/IEEE</text>
<text text-anchor="start" x="629" y="-282" font-family="Helvetica,sans-Serif" font-size="10.00">_1588_2019/IEEE_1588_2019</text>
<text text-anchor="middle" x="700" y="-271" font-family="Helvetica,sans-Serif" font-size="10.00">/include/clocks.hpp</text>
</a>
</g>
</g>
<!-- Node1&#45;&gt;Node2 -->
<g id="edge1_Node000001_Node000002" class="edge">
<title>Node1&#45;&gt;Node2</title>
<g id="a_edge1_Node000001_Node000002"><a xlink:title=" ">
<path fill="none" stroke="#63b8ff" d="M700,-330.69C700,-322.08 700,-312.9 700,-305.07"/>
<polygon fill="#63b8ff" stroke="#63b8ff" points="696.5,-330.79 700,-340.79 703.5,-330.79 696.5,-330.79"/>
</a>
</g>
</g>
<!-- Node3 -->
<g id="Node000003" class="node">
<title>Node3</title>
<g id="a_Node000003"><a xlink:href="../../d4/dbb/bmca__integration_8hpp.html" target="_top" xlink:title="BMCA Runtime Integration Coordinator.">
<polygon fill="white" stroke="#666666" points="303,-228 145,-228 145,-176 303,-176 303,-228"/>
<text text-anchor="start" x="153" y="-216" font-family="Helvetica,sans-Serif" font-size="10.00">/home/runner/work/IEEE</text>
<text text-anchor="start" x="153" y="-205" font-family="Helvetica,sans-Serif" font-size="10.00">_1588_2019/IEEE_1588_2019</text>
<text text-anchor="start" x="153" y="-194" font-family="Helvetica,sans-Serif" font-size="10.00">/include/IEEE/1588/PTP/2019</text>
<text text-anchor="middle" x="224" y="-183" font-family="Helvetica,sans-Serif" font-size="10.00">/bmca_integration.hpp</text>
</a>
</g>
</g>
<!-- Node2&#45;&gt;Node3 -->
<g id="edge2_Node000002_Node000003" class="edge">
<title>Node2&#45;&gt;Node3</title>
<g id="a_edge2_Node000002_Node000003"><a xlink:title=" ">
<path fill="none" stroke="#63b8ff" d="M610.45,-269.21C542.28,-258.23 446.16,-242.53 362,-228 342.93,-224.71 322.39,-221.05 303.14,-217.57"/>
<polygon fill="#63b8ff" stroke="#63b8ff" points="610.29,-272.73 620.72,-270.86 611.4,-265.82 610.29,-272.73"/>
</a>
</g>
</g>
<!-- Node4 -->
<g id="Node000004" class="node">
<title>Node4</title>
<g id="a_Node000004"><a xlink:href="../../de/d83/message__flow__integration_8hpp.html" target="_top" xlink:title="IEEE 1588&#45;2019 Message Flow Integration Coordinator.">
<polygon fill="white" stroke="#666666" points="458.5,-140 289.5,-140 289.5,-88 458.5,-88 458.5,-140"/>
<text text-anchor="start" x="297.5" y="-128" font-family="Helvetica,sans-Serif" font-size="10.00">/home/runner/work/IEEE</text>
<text text-anchor="start" x="297.5" y="-117" font-family="Helvetica,sans-Serif" font-size="10.00">_1588_2019/IEEE_1588_2019</text>
<text text-anchor="start" x="297.5" y="-106" font-family="Helvetica,sans-Serif" font-size="10.00">/include/IEEE/1588/PTP/2019</text>
<text text-anchor="middle" x="374" y="-95" font-family="Helvetica,sans-Serif" font-size="10.00">/message_flow_integration.hpp</text>
</a>
</g>
</g>
<!-- Node2&#45;&gt;Node4 -->
<g id="edge9_Node000002_Node000004" class="edge">
<title>Node2&#45;&gt;Node4</title>
<g id="a_edge9_Node000002_Node000004"><a xlink:title=" ">
<path fill="none" stroke="#63b8ff" d="M610.68,-277.92C532.78,-271.17 427.71,-256.9 398,-228 374.71,-205.34 371.29,-166.11 371.91,-140.35"/>
<polygon fill="#63b8ff" stroke="#63b8ff" points="610.74,-281.44 620.99,-278.78 611.32,-274.46 610.74,-281.44"/>
</a>
</g>
</g>
<!-- Node8 -->
<g id="Node000008" class="node">
<title>Node8</title>
<g id="a_Node000008"><a xlink:href="../../d9/dbe/profile_8hpp.html" target="_top" xlink:title="Generic PTP profile abstraction supporting multiple external standards (IEEE 1588&#45;2019 core,...">
<polygon fill="white" stroke="#666666" points="955,-228 797,-228 797,-176 955,-176 955,-228"/>
<text text-anchor="start" x="805" y="-216" font-family="Helvetica,sans-Serif" font-size="10.00">/home/runner/work/IEEE</text>
<text text-anchor="start" x="805" y="-205" font-family="Helvetica,sans-Serif" font-size="10.00">_1588_2019/IEEE_1588_2019</text>
<text text-anchor="start" x="805" y="-194" font-family="Helvetica,sans-Serif" font-size="10.00">/include/IEEE/1588/PTP/2019</text>
<text text-anchor="middle" x="876" y="-183" font-family="Helvetica,sans-Serif" font-size="10.00">/profile.hpp</text>
</a>
</g>
</g>
<!-- Node2&#45;&gt;Node8 -->
<g id="edge10_Node000002_Node000008" class="edge">
<title>Node2&#45;&gt;Node8</title>
<g id="a_edge10_Node000002_Node000008"><a xlink:title=" ">
<path fill="none" stroke="#63b8ff" d="M752.42,-259.53C774.06,-249.63 799.16,-238.14 821.06,-228.13"/>
<polygon fill="#63b8ff" stroke="#63b8ff" points="750.69,-256.47 743.05,-263.81 753.6,-262.83 750.69,-256.47"/>
</a>
</g>
</g>
<!-- Node9 -->
<g id="Node000009" class="node">
<title>Node9</title>
<g id="a_Node000009"><a xlink:href="../../d3/d46/profile__adapter_8hpp.html" target="_top" xlink:title="Minimal adapter to apply a ProfileConfig to a PTP PortConfiguration.">
<polygon fill="white" stroke="#666666" points="1100,-140 942,-140 942,-88 1100,-88 1100,-140"/>
<text text-anchor="start" x="950" y="-128" font-family="Helvetica,sans-Serif" font-size="10.00">/home/runner/work/IEEE</text>
<text text-anchor="start" x="950" y="-117" font-family="Helvetica,sans-Serif" font-size="10.00">_1588_2019/IEEE_1588_2019</text>
<text text-anchor="start" x="950" y="-106" font-family="Helvetica,sans-Serif" font-size="10.00">/include/IEEE/1588/PTP/2019</text>
<text text-anchor="middle" x="1021" y="-95" font-family="Helvetica,sans-Serif" font-size="10.00">/profile_adapter.hpp</text>
</a>
</g>
</g>
<!-- Node2&#45;&gt;Node9 -->
<g id="edge12_Node000002_Node000009" class="edge">
<title>Node2&#45;&gt;Node9</title>
<g id="a_edge12_Node000002_Node000009"><a xlink:title=" ">
<path fill="none" stroke="#63b8ff" d="M789,-273.15C854.57,-264.01 936.85,-248.87 964,-228 978.94,-216.52 999.44,-169.71 1011.35,-140.05"/>
<polygon fill="#63b8ff" stroke="#63b8ff" points="788.48,-269.69 779.04,-274.51 789.43,-276.63 788.48,-269.69"/>
</a>
</g>
</g>
<!-- Node10 -->
<g id="Node000010" class="node">
<title>Node10</title>
<g id="a_Node000010"><a xlink:href="../../da/d7e/servo__integration_8hpp.html" target="_top" xlink:title="IEEE 1588&#45;2019 Servo Integration &#45; Clock Adjustment Control.">
<polygon fill="white" stroke="#666666" points="565,-228 407,-228 407,-176 565,-176 565,-228"/>
<text text-anchor="start" x="415" y="-216" font-family="Helvetica,sans-Serif" font-size="10.00">/home/runner/work/IEEE</text>
<text text-anchor="start" x="415" y="-205" font-family="Helvetica,sans-Serif" font-size="10.00">_1588_2019/IEEE_1588_2019</text>
<text text-anchor="start" x="415" y="-194" font-family="Helvetica,sans-Serif" font-size="10.00">/include/IEEE/1588/PTP/2019</text>
<text text-anchor="middle" x="486" y="-183" font-family="Helvetica,sans-Serif" font-size="10.00">/servo_integration.hpp</text>
</a>
</g>
</g>
<!-- Node2&#45;&gt;Node10 -->
<g id="edge13_Node000002_Node000010" class="edge">
<title>Node2&#45;&gt;Node10</title>
<g id="a_edge13_Node000002_Node000010"><a xlink:title=" ">
<path fill="none" stroke="#63b8ff" d="M638.26,-260.28C611.42,-250.18 579.92,-238.33 552.56,-228.04"/>
<polygon fill="#63b8ff" stroke="#63b8ff" points="637.33,-263.67 647.92,-263.91 639.8,-257.11 637.33,-263.67"/>
</a>
</g>
</g>
<!-- Node12 -->
<g id="Node000012" class="node">
<title>Node12</title>
<g id="a_Node000012"><a xlink:href="../../d0/d75/sync__integration_8hpp.html" target="_top" xlink:title="IEEE 1588&#45;2019 Synchronization Integration Coordinator.">
<polygon fill="white" stroke="#666666" points="779,-228 621,-228 621,-176 779,-176 779,-228"/>
<text text-anchor="start" x="629" y="-216" font-family="Helvetica,sans-Serif" font-size="10.00">/home/runner/work/IEEE</text>
<text text-anchor="start" x="629" y="-205" font-family="Helvetica,sans-Serif" font-size="10.00">_1588_2019/IEEE_1588_2019</text>
<text text-anchor="start" x="629" y="-194" font-family="Helvetica,sans-Serif" font-size="10.00">/include/IEEE/1588/PTP/2019</text>
<text text-anchor="middle" x="700" y="-183" font-family="Helvetica,sans-Serif" font-size="10.00">/sync_integration.hpp</text>
</a>
</g>
</g>
<!-- Node2&#45;&gt;Node12 -->
<g id="edge18_Node000002_Node000012" class="edge">
<title>Node2&#45;&gt;Node12</title>
<g id="a_edge18_Node000002_Node000012"><a xlink:title=" ">
<path fill="none" stroke="#63b8ff" d="M700,-253.49C700,-245.15 700,-236.19 700,-228.16"/>
<polygon fill="#63b8ff" stroke="#63b8ff" points="696.5,-253.6 700,-263.6 703.5,-253.6 696.5,-253.6"/>
</a>
</g>
</g>
<!-- Node14 -->
<g id="Node000014" class="node">
<title>Node14</title>
<g id="a_Node000014"><a xlink:href="../../d0/d70/clocks_8cpp.html" target="_top" xlink:title="IEEE 1588&#45;2019 PTP Clock State Machines Implementation.">
<polygon fill="white" stroke="#666666" points="1169,-222.5 1011,-222.5 1011,-181.5 1169,-181.5 1169,-222.5"/>
<text text-anchor="start" x="1019" y="-210.5" font-family="Helvetica,sans-Serif" font-size="10.00">/home/runner/work/IEEE</text>
<text text-anchor="start" x="1019" y="-199.5" font-family="Helvetica,sans-Serif" font-size="10.00">_1588_2019/IEEE_1588_2019</text>
<text text-anchor="middle" x="1090" y="-188.5" font-family="Helvetica,sans-Serif" font-size="10.00">/src/clocks.cpp</text>
</a>
</g>
</g>
<!-- Node2&#45;&gt;Node14 -->
<g id="edge23_Node000002_Node000014" class="edge">
<title>Node2&#45;&gt;Node14</title>
<g id="a_edge23_Node000002_Node000014"><a xlink:title=" ">
<path fill="none" stroke="#63b8ff" d="M789.2,-268.7C848.37,-258.42 927.62,-243.78 997,-228 1004.34,-226.33 1011.97,-224.48 1019.56,-222.55"/>
<polygon fill="#63b8ff" stroke="#63b8ff" points="788.39,-265.29 779.13,-270.44 789.58,-272.18 788.39,-265.29"/>
</a>
</g>
</g>
<!-- Node3&#45;&gt;Node4 -->
<g id="edge3_Node000003_Node000004" class="edge">
<title>Node3&#45;&gt;Node4</title>
<g id="a_edge3_Node000003_Node000004"><a xlink:title=" ">
<path fill="none" stroke="#63b8ff" d="M276.74,-170.76C294.2,-160.75 313.43,-149.72 330.16,-140.14"/>
<polygon fill="#63b8ff" stroke="#63b8ff" points="274.72,-167.88 267.79,-175.89 278.21,-173.96 274.72,-167.88"/>
</a>
</g>
</g>
<!-- Node5 -->
<g id="Node000005" class="node">
<title>Node5</title>
<g id="a_Node000005"><a xlink:href="../../d7/daa/message__flow__integration_8cpp.html" target="_top" xlink:title="IEEE 1588&#45;2019 Message Flow Integration Implementation.">
<polygon fill="white" stroke="#666666" points="570.5,-46.5 385.5,-46.5 385.5,-5.5 570.5,-5.5 570.5,-46.5"/>
<text text-anchor="start" x="393.5" y="-34.5" font-family="Helvetica,sans-Serif" font-size="10.00">/home/runner/work/IEEE</text>
<text text-anchor="start" x="393.5" y="-23.5" font-family="Helvetica,sans-Serif" font-size="10.00">_1588_2019/IEEE_1588_2019</text>
<text text-anchor="middle" x="478" y="-12.5" font-family="Helvetica,sans-Serif" font-size="10.00">/src/message_flow_integration.cpp</text>
</a>
</g>
</g>
<!-- Node3&#45;&gt;Node5 -->
<g id="edge7_Node000003_Node000005" class="edge">
<title>Node3&#45;&gt;Node5</title>
<g id="a_edge7_Node000003_Node000005"><a xlink:title=" ">
<path fill="none" stroke="#63b8ff" d="M233.27,-165.92C241.6,-140.88 256.25,-108.2 280,-88 297.43,-73.17 346.46,-58.01 391.36,-46.52"/>
<polygon fill="#63b8ff" stroke="#63b8ff" points="229.83,-165.19 230.18,-175.78 236.51,-167.28 229.83,-165.19"/>
</a>
</g>
</g>
<!-- Node6 -->
<g id="Node000006" class="node">
<title>Node6</title>
<g id="a_Node000006"><a xlink:href="../../d6/d99/message__flow__integration__bup_8cpp.html" target="_top" xlink:title=" ">
<polygon fill="white" stroke="#666666" points="359.5,-52 194.5,-52 194.5,0 359.5,0 359.5,-52"/>
<text text-anchor="start" x="202.5" y="-40" font-family="Helvetica,sans-Serif" font-size="10.00">/home/runner/work/IEEE</text>
<text text-anchor="start" x="202.5" y="-29" font-family="Helvetica,sans-Serif" font-size="10.00">_1588_2019/IEEE_1588_2019</text>
<text text-anchor="start" x="202.5" y="-18" font-family="Helvetica,sans-Serif" font-size="10.00">/src/message_flow_integration</text>
<text text-anchor="middle" x="277" y="-7" font-family="Helvetica,sans-Serif" font-size="10.00">_bup.cpp</text>
</a>
</g>
</g>
<!-- Node3&#45;&gt;Node6 -->
<g id="edge8_Node000003_Node000006" class="edge">
<title>Node3&#45;&gt;Node6</title>
<g id="a_edge8_Node000003_Node000006"><a xlink:title=" ">
<path fill="none" stroke="#63b8ff" d="M210.48,-165.94C203.76,-142.9 199.14,-112.57 210,-88 216.17,-74.04 227.28,-61.91 238.71,-52.21"/>
<polygon fill="#63b8ff" stroke="#63b8ff" points="207.2,-167.18 213.55,-175.66 213.87,-165.07 207.2,-167.18"/>
</a>
</g>
</g>
<!-- Node7 -->
<g id="Node000007" class="node">
<title>Node7</title>
<g id="a_Node000007"><a xlink:href="../../dc/df9/bmca__integration_8cpp.html" target="_top" xlink:title="BMCA Runtime Integration Coordinator Implementation.">
<polygon fill="white" stroke="#666666" points="158,-134.5 0,-134.5 0,-93.5 158,-93.5 158,-134.5"/>
<text text-anchor="start" x="8" y="-122.5" font-family="Helvetica,sans-Serif" font-size="10.00">/home/runner/work/IEEE</text>
<text text-anchor="start" x="8" y="-111.5" font-family="Helvetica,sans-Serif" font-size="10.00">_1588_2019/IEEE_1588_2019</text>
<text text-anchor="middle" x="79" y="-100.5" font-family="Helvetica,sans-Serif" font-size="10.00">/src/bmca_integration.cpp</text>
</a>
</g>
</g>
<!-- Node3&#45;&gt;Node7 -->
<g id="edge6_Node000003_Node000007" class="edge">
<title>Node3&#45;&gt;Node7</title>
<g id="a_edge6_Node000003_Node000007"><a xlink:title=" ">
<path fill="none" stroke="#63b8ff" d="M172.86,-170.67C152.62,-158.66 129.93,-145.21 111.93,-134.53"/>
<polygon fill="#63b8ff" stroke="#63b8ff" points="171.28,-173.8 181.67,-175.89 174.85,-167.78 171.28,-173.8"/>
</a>
</g>
</g>
<!-- Node4&#45;&gt;Node5 -->
<g id="edge4_Node000004_Node000005" class="edge">
<title>Node4&#45;&gt;Node5</title>
<g id="a_edge4_Node000004_Node000005"><a xlink:title=" ">
<path fill="none" stroke="#63b8ff" d="M412.44,-81.21C426.51,-69.58 441.99,-56.77 454.38,-46.53"/>
<polygon fill="#63b8ff" stroke="#63b8ff" points="409.84,-78.82 404.36,-87.89 414.3,-84.22 409.84,-78.82"/>
</a>
</g>
</g>
<!-- Node4&#45;&gt;Node6 -->
<g id="edge5_Node000004_Node000006" class="edge">
<title>Node4&#45;&gt;Node6</title>
<g id="a_edge5_Node000004_Node000006"><a xlink:title=" ">
<path fill="none" stroke="#63b8ff" d="M338.06,-81.13C327.32,-71.62 315.71,-61.32 305.52,-52.29"/>
<polygon fill="#63b8ff" stroke="#63b8ff" points="335.88,-83.88 345.68,-87.89 340.52,-78.64 335.88,-83.88"/>
</a>
</g>
</g>
<!-- Node8&#45;&gt;Node9 -->
<g id="edge11_Node000008_Node000009" class="edge">
<title>Node8&#45;&gt;Node9</title>
<g id="a_edge11_Node000008_Node000009"><a xlink:title=" ">
<path fill="none" stroke="#63b8ff" d="M926.98,-170.76C943.86,-160.75 962.45,-149.72 978.62,-140.14"/>
<polygon fill="#63b8ff" stroke="#63b8ff" points="925.15,-167.78 918.33,-175.89 928.72,-173.8 925.15,-167.78"/>
</a>
</g>
</g>
<!-- Node10&#45;&gt;Node4 -->
<g id="edge14_Node000010_Node000004" class="edge">
<title>Node10&#45;&gt;Node4</title>
<g id="a_edge14_Node000010_Node000004"><a xlink:title=" ">
<path fill="none" stroke="#63b8ff" d="M445.22,-169.69C432.63,-160.02 418.92,-149.49 406.93,-140.29"/>
<polygon fill="#63b8ff" stroke="#63b8ff" points="443.24,-172.58 453.3,-175.89 447.5,-167.03 443.24,-172.58"/>
</a>
</g>
</g>
<!-- Node10&#45;&gt;Node5 -->
<g id="edge15_Node000010_Node000005" class="edge">
<title>Node10&#45;&gt;Node5</title>
<g id="a_edge15_Node000010_Node000005"><a xlink:title=" ">
<path fill="none" stroke="#63b8ff" d="M484.37,-165.65C482.73,-129.77 480.23,-75.52 478.9,-46.66"/>
<polygon fill="#63b8ff" stroke="#63b8ff" points="480.88,-165.87 484.84,-175.7 487.87,-165.55 480.88,-165.87"/>
</a>
</g>
</g>
<!-- Node10&#45;&gt;Node6 -->
<g id="edge16_Node000010_Node000006" class="edge">
<title>Node10&#45;&gt;Node6</title>
<g id="a_edge16_Node000010_Node000006"><a xlink:title=" ">
<path fill="none" stroke="#63b8ff" d="M396.97,-185.37C348.26,-174.84 294.85,-159.34 280,-140 260.88,-115.09 264.49,-77.18 269.88,-52.25"/>
<polygon fill="#63b8ff" stroke="#63b8ff" points="396.45,-188.84 406.96,-187.48 397.9,-181.99 396.45,-188.84"/>
</a>
</g>
</g>
<!-- Node11 -->
<g id="Node000011" class="node">
<title>Node11</title>
<g id="a_Node000011"><a xlink:href="../../d3/d20/servo__integration_8cpp.html" target="_top" xlink:title="IEEE 1588&#45;2019 Servo Integration Implementation.">
<polygon fill="white" stroke="#666666" points="672,-134.5 514,-134.5 514,-93.5 672,-93.5 672,-134.5"/>
<text text-anchor="start" x="522" y="-122.5" font-family="Helvetica,sans-Serif" font-size="10.00">/home/runner/work/IEEE</text>
<text text-anchor="start" x="522" y="-111.5" font-family="Helvetica,sans-Serif" font-size="10.00">_1588_2019/IEEE_1588_2019</text>
<text text-anchor="middle" x="593" y="-100.5" font-family="Helvetica,sans-Serif" font-size="10.00">/src/servo_integration.cpp</text>
</a>
</g>
</g>
<!-- Node10&#45;&gt;Node11 -->
<g id="edge17_Node000010_Node000011" class="edge">
<title>Node10&#45;&gt;Node11</title>
<g id="a_edge17_Node000010_Node000011"><a xlink:title=" ">
<path fill="none" stroke="#63b8ff" d="M525.15,-169.54C539.72,-157.82 555.84,-144.87 568.7,-134.53"/>
<polygon fill="#63b8ff" stroke="#63b8ff" points="522.84,-166.9 517.24,-175.89 527.22,-172.36 522.84,-166.9"/>
</a>
</g>
</g>
<!-- Node12&#45;&gt;Node4 -->
<g id="edge19_Node000012_Node000004" class="edge">
<title>Node12&#45;&gt;Node4</title>
<g id="a_edge19_Node000012_Node000004"><a xlink:title=" ">
<path fill="none" stroke="#63b8ff" d="M610.71,-177.45C563.26,-164.93 505.26,-149.63 458.54,-137.3"/>
<polygon fill="#63b8ff" stroke="#63b8ff" points="610.11,-180.91 620.67,-180.07 611.89,-174.14 610.11,-180.91"/>
</a>
</g>
</g>
<!-- Node12&#45;&gt;Node5 -->
<g id="edge20_Node000012_Node000005" class="edge">
<title>Node12&#45;&gt;Node5</title>
<g id="a_edge20_Node000012_Node000005"><a xlink:title=" ">
<path fill="none" stroke="#63b8ff" d="M788.97,-175.69C838.73,-161.12 891.5,-144.76 895,-140 908.69,-121.38 910.11,-105.48 895,-88 853.97,-40.53 680.77,-29.29 570.9,-27.04"/>
<polygon fill="#63b8ff" stroke="#63b8ff" points="787.69,-172.42 779.07,-178.58 789.65,-179.14 787.69,-172.42"/>
</a>
</g>
</g>
<!-- Node12&#45;&gt;Node6 -->
<g id="edge21_Node000012_Node000006" class="edge">
<title>Node12&#45;&gt;Node6</title>
<g id="a_edge21_Node000012_Node000006"><a xlink:title=" ">
<path fill="none" stroke="#63b8ff" d="M704.21,-165.65C705.1,-140.4 701.55,-107.56 681,-88 631.57,-40.94 443.12,-64.38 376,-52 370.68,-51.02 365.23,-49.92 359.74,-48.74"/>
<polygon fill="#63b8ff" stroke="#63b8ff" points="700.7,-165.76 703.6,-175.95 707.69,-166.18 700.7,-165.76"/>
</a>
</g>
</g>
<!-- Node13 -->
<g id="Node000013" class="node">
<title>Node13</title>
<g id="a_Node000013"><a xlink:href="../../da/d84/sync__integration_8cpp.html" target="_top" xlink:title="IEEE 1588&#45;2019 Synchronization Integration Implementation.">
<polygon fill="white" stroke="#666666" points="886,-134.5 728,-134.5 728,-93.5 886,-93.5 886,-134.5"/>
<text text-anchor="start" x="736" y="-122.5" font-family="Helvetica,sans-Serif" font-size="10.00">/home/runner/work/IEEE</text>
<text text-anchor="start" x="736" y="-111.5" font-family="Helvetica,sans-Serif" font-size="10.00">_1588_2019/IEEE_1588_2019</text>
<text text-anchor="middle" x="807" y="-100.5" font-family="Helvetica,sans-Serif" font-size="10.00">/src/sync_integration.cpp</text>
</a>
</g>
</g>
<!-- Node12&#45;&gt;Node13 -->
<g id="edge22_Node000012_Node000013" class="edge">
<title>Node12&#45;&gt;Node13</title>
<g id="a_edge22_Node000012_Node000013"><a xlink:title=" ">
<path fill="none" stroke="#63b8ff" d="M739.15,-169.54C753.72,-157.82 769.84,-144.87 782.7,-134.53"/>
<polygon fill="#63b8ff" stroke="#63b8ff" points="736.84,-166.9 731.24,-175.89 741.22,-172.36 736.84,-166.9"/>
</a>
</g>
</g>
</g>
</svg>

<g id="navigator" transform="translate(0 0)" fill="#404254">
  <rect fill="#f2f5e9" fill-opacity="0.5" stroke="#606060" stroke-width=".5" x="0" y="0" width="60" height="60"/>
  <use id="zoomplus" xlink:href="#zoomPlus" x="17" y="9" onmousedown="handleZoom(evt,'in')"/>
  <use id="zoomminus" xlink:href="#zoomMin" x="42" y="9" onmousedown="handleZoom(evt,'out')"/>
  <use id="reset" xlink:href="#resetDef" x="30" y="36" onmousedown="handleReset()"/>
   <use id="arrowup" xlink:href="#arrowUp" x="0" y="0" onmousedown="handlePan(0,-1)"/>
  <use id="arrowright" xlink:href="#arrowRight" x="0" y="0" onmousedown="handlePan(1,0)"/>
  <use id="arrowdown" xlink:href="#arrowDown" x="0" y="0" onmousedown="handlePan(0,1)"/>
  <use id="arrowleft" xlink:href="#arrowLeft" x="0" y="0" onmousedown="handlePan(-1,0)"/>
</g>
<svg viewBox="0 0 15 15" width="100%" height="30px" preserveAspectRatio="xMaxYMin meet">
 <g id="arrow_out" transform="scale(0.3 0.3)">
  <a xlink:href="config_8hpp__dep__incl_org.svg" target="_base">
   <rect id="button" ry="5" rx="5" y="6" x="6" height="38" width="38"
        fill="#f2f5e9" fill-opacity="0.5" stroke="#606060" stroke-width="1.0"/>
   <path id="arrow"
     d="M 11.500037,31.436501 C 11.940474,20.09759 22.043105,11.32322 32.158766,21.979434 L 37.068811,17.246167 C 37.068811,17.246167 37.088388,32 37.088388,32 L 22.160133,31.978069 C 22.160133,31.978069 26.997745,27.140456 26.997745,27.140456 C 18.528582,18.264221 13.291696,25.230495 11.500037,31.436501 z"
     style="fill:#404040;"/>
  </a>
 </g>
</svg>

<style type='text/css'>
<![CDATA[
[data-mouse-over-selected='false'] { opacity: 0.7; }
[data-mouse-over-selected='true']  { opacity: 1.0; }
]]>
</style>
<script type="application/ecmascript"><![CDATA[
document.addEventListener('DOMContentLoaded', (event) => {
  highlightEdges();
  highlightAdjacentNodes();
});
]]></script>
</svg>
