<?xml version="1.0" encoding="UTF-8" standalone="no"?>
<!DOCTYPE svg PUBLIC "-//W3C//DTD SVG 1.1//EN"
 "http://www.w3.org/Graphics/SVG/1.1/DTD/svg11.dtd">
<!-- Generated by graphviz version 2.43.0 (0)
 -->
<!-- Title: IEEE::_1588::_2019::ProfileResult Pages: 1 -->
<svg width="110pt" height="98pt"
 viewBox="0.00 0.00 110.00 98.00" xmlns="http://www.w3.org/2000/svg" xmlns:xlink="http://www.w3.org/1999/xlink">
<g id="graph0" class="graph" transform="scale(1 1) rotate(0) translate(4 94)">
<title>IEEE::_1588::_2019::ProfileResult</title>
<!-- Node1 -->
<g id="Node000001" class="node">
<title>Node1</title>
<g id="a_Node000001"><a xlink:title="Simple Result type for profile operations.">
<polygon fill="#999999" stroke="transparent" points="102,-90 0,-90 0,0 102,0 102,-90"/>
<text text-anchor="start" x="5" y="-78" font-family="Helvetica,sans-Serif" font-size="10.00">IEEE::_1588::_2019</text>
<text text-anchor="start" x="17" y="-67" font-family="Helvetica,sans-Serif" font-size="10.00">::ProfileResult</text>
<text text-anchor="start" x="9" y="-52" font-family="Helvetica,sans-Serif" font-size="10.00">+</text>
<text text-anchor="start" x="27" y="-52" font-family="Helvetica,sans-Serif" font-size="10.00">success</text>
<text text-anchor="start" x="9" y="-37" font-family="Helvetica,sans-Serif" font-size="10.00">+</text>
<text text-anchor="start" x="27" y="-37" font-family="Helvetica,sans-Serif" font-size="10.00">is_success()</text>
<text text-anchor="start" x="9" y="-22" font-family="Helvetica,sans-Serif" font-size="10.00">+</text>
<text text-anchor="start" x="27" y="-22" font-family="Helvetica,sans-Serif" font-size="10.00">ok()</text>
<text text-anchor="start" x="9" y="-7" font-family="Helvetica,sans-Serif" font-size="10.00">+</text>
<text text-anchor="start" x="27" y="-7" font-family="Helvetica,sans-Serif" font-size="10.00">fail()</text>
<polygon fill="#666666" stroke="#666666" points="0,-62 0,-62 102,-62 102,-62 0,-62"/>
<polygon fill="#666666" stroke="#666666" points="0,-47 0,-47 25,-47 25,-47 0,-47"/>
<polygon fill="#666666" stroke="#666666" points="25,-47 25,-47 102,-47 102,-47 25,-47"/>
<polygon fill="none" stroke="#666666" points="0,0 0,-90 102,-90 102,0 0,0"/>
</a>
</g>
</g>
</g>
</svg>
