<?xml version="1.0" encoding="UTF-8" standalone="no"?>
<!DOCTYPE svg PUBLIC "-//W3C//DTD SVG 1.1//EN"
 "http://www.w3.org/Graphics/SVG/1.1/DTD/svg11.dtd">
<!-- Generated by graphviz version 2.43.0 (0)
 -->
<!-- Title: /home/runner/work/IEEE_1588_2019/IEEE_1588_2019/include/IEEE/1588/PTP/2019/profile_adapter.hpp Pages: 1 -->
<!--zoomable 357 -->

<svg id="main" version="1.1" xmlns="http://www.w3.org/2000/svg" xmlns:xlink="http://www.w3.org/1999/xlink" xml:space="preserve" onload="init(evt)">
<style type="text/css"><![CDATA[
.node, .edge {opacity: 0.7;}
.node.selected, .edge.selected {opacity: 1;}
.edge:hover path { stroke: red; }
.edge:hover polygon { stroke: red; fill: red; }
]]></style>

<defs>
  <circle id="rim" cx="0" cy="0" r="7"/>
  <circle id="rim2" cx="0" cy="0" r="3.5"/>
  <g id="zoomPlus">
    <use xlink:href="#rim" fill="#404040"><set attributeName="fill" to="#808080" begin="zoomplus.mouseover" end="zoomplus.mouseout"/></use>
    <path d="M-4,0h8M0,-4v8" fill="none" stroke="white" stroke-width="1.5" pointer-events="none"/>
  </g>
  <g id="zoomMin">
    <use xlink:href="#rim" fill="#404040"><set attributeName="fill" to="#808080" begin="zoomminus.mouseover" end="zoomminus.mouseout"/></use>
    <path d="M-4,0h8" fill="none" stroke="white" stroke-width="1.5" pointer-events="none"/>
  </g>
  <g id="arrowUp" transform="translate(30 24)">
    <use xlink:href="#rim"/>
    <path pointer-events="none" fill="none" stroke="white" stroke-width="1.5" d="M0,-3.0v7 M-2.5,-0.5L0,-3.0L2.5,-0.5"/>
  </g>
  <g id="arrowRight" transform="rotate(90) translate(36 -43)">
    <use xlink:href="#rim"/>
    <path pointer-events="none" fill="none" stroke="white" stroke-width="1.5" d="M0,-3.0v7 M-2.5,-0.5L0,-3.0L2.5,-0.5"/>
  </g>
  <g id="arrowDown" transform="rotate(180) translate(-30 -48)">
    <use xlink:href="#rim"/>
    <path pointer-events="none" fill="none" stroke="white" stroke-width="1.5" d="M0,-3.0v7 M-2.5,-0.5L0,-3.0L2.5,-0.5"/>
  </g>
  <g id="arrowLeft" transform="rotate(270) translate(-36 17)">
    <use xlink:href="#rim"/>
    <path pointer-events="none" fill="none" stroke="white" stroke-width="1.5" d="M0,-3.0v7 M-2.5,-0.5L0,-3.0L2.5,-0.5"/>
  </g>
  <g id="resetDef">
    <use xlink:href="#rim2" fill="#404040"><set attributeName="fill" to="#808080" begin="reset.mouseover" end="reset.mouseout"/></use>
  </g>
</defs>
<script type="application/ecmascript">
var viewWidth = 976;
var viewHeight = 357;
var sectionId = 'dynsection-0';
</script>
<script type="application/ecmascript" xlink:href="../../svg.min.js"/>
<svg id="graph" class="graph">
<g id="viewport">
<title>/home/runner/work/IEEE_1588_2019/IEEE_1588_2019/include/IEEE/1588/PTP/2019/profile_adapter.hpp</title>
<!-- Node1 -->
<g id="Node000001" class="node">
<title>Node1</title>
<g id="a_Node000001"><a xlink:title="Minimal adapter to apply a ProfileConfig to a PTP PortConfiguration.">
<polygon fill="#999999" stroke="#666666" points="262,-349 104,-349 104,-297 262,-297 262,-349"/>
<text text-anchor="start" x="112" y="-337" font-family="Helvetica,sans-Serif" font-size="10.00">/home/runner/work/IEEE</text>
<text text-anchor="start" x="112" y="-326" font-family="Helvetica,sans-Serif" font-size="10.00">_1588_2019/IEEE_1588_2019</text>
<text text-anchor="start" x="112" y="-315" font-family="Helvetica,sans-Serif" font-size="10.00">/include/IEEE/1588/PTP/2019</text>
<text text-anchor="middle" x="183" y="-304" font-family="Helvetica,sans-Serif" font-size="10.00">/profile_adapter.hpp</text>
</a>
</g>
</g>
<!-- Node2 -->
<g id="Node000002" class="node">
<title>Node2</title>
<g id="a_Node000002"><a xlink:href="../../d9/dbe/profile_8hpp.html" target="_top" xlink:title="Generic PTP profile abstraction supporting multiple external standards (IEEE 1588&#45;2019 core,...">
<polygon fill="white" stroke="#666666" points="186,-261 118,-261 118,-242 186,-242 186,-261"/>
<text text-anchor="middle" x="152" y="-249" font-family="Helvetica,sans-Serif" font-size="10.00">profile.hpp</text>
</a>
</g>
</g>
<!-- Node1&#45;&gt;Node2 -->
<g id="edge1_Node000001_Node000002" class="edge">
<title>Node1&#45;&gt;Node2</title>
<g id="a_edge1_Node000001_Node000002"><a xlink:title=" ">
<path fill="none" stroke="#63b8ff" d="M171.81,-296.91C167.91,-288.16 163.61,-278.52 160.02,-270.47"/>
<polygon fill="#63b8ff" stroke="#63b8ff" points="163.2,-269.01 155.93,-261.3 156.8,-271.86 163.2,-269.01"/>
</a>
</g>
</g>
<!-- Node5 -->
<g id="Node000005" class="node">
<title>Node5</title>
<g id="a_Node000005"><a xlink:href="../../dd/dc5/clocks_8hpp.html" target="_top" xlink:title="IEEE 1588&#45;2019 PTP Clock State Machines Implementation.">
<polygon fill="white" stroke="#666666" points="403,-206 299,-206 299,-187 403,-187 403,-206"/>
<text text-anchor="middle" x="351" y="-194" font-family="Helvetica,sans-Serif" font-size="10.00">../../../../clocks.hpp</text>
</a>
</g>
</g>
<!-- Node1&#45;&gt;Node5 -->
<g id="edge32_Node000001_Node000005" class="edge">
<title>Node1&#45;&gt;Node5</title>
<g id="a_edge32_Node000001_Node000005"><a xlink:title=" ">
<path fill="none" stroke="#63b8ff" d="M217,-296.81C251.26,-271.42 302.97,-233.1 331.08,-212.26"/>
<polygon fill="#63b8ff" stroke="#63b8ff" points="333.38,-214.92 339.33,-206.15 329.21,-209.29 333.38,-214.92"/>
</a>
</g>
</g>
<!-- Node3 -->
<g id="Node000003" class="node">
<title>Node3</title>
<g id="a_Node000003"><a xlink:title=" ">
<polygon fill="#e0e0e0" stroke="#999999" points="440,-19 390,-19 390,0 440,0 440,-19"/>
<text text-anchor="middle" x="415" y="-7" font-family="Helvetica,sans-Serif" font-size="10.00">cstdint</text>
</a>
</g>
</g>
<!-- Node2&#45;&gt;Node3 -->
<g id="edge2_Node000002_Node000003" class="edge">
<title>Node2&#45;&gt;Node3</title>
<g id="a_edge2_Node000002_Node000003"><a xlink:title=" ">
<path fill="none" stroke="#63b8ff" d="M144.45,-241.97C130.59,-225.69 101.56,-188.44 91,-151 77.21,-102.12 108.24,-79.01 153,-55 226.6,-15.51 327.12,-9.62 379.69,-9.55"/>
<polygon fill="#63b8ff" stroke="#63b8ff" points="379.82,-13.06 389.84,-9.61 379.86,-6.06 379.82,-13.06"/>
</a>
</g>
</g>
<!-- Node4 -->
<g id="Node000004" class="node">
<title>Node4</title>
<g id="a_Node000004"><a xlink:title=" ">
<polygon fill="#e0e0e0" stroke="#999999" points="44,-206 0,-206 0,-187 44,-187 44,-206"/>
<text text-anchor="middle" x="22" y="-194" font-family="Helvetica,sans-Serif" font-size="10.00">string</text>
</a>
</g>
</g>
<!-- Node2&#45;&gt;Node4 -->
<g id="edge3_Node000002_Node000004" class="edge">
<title>Node2&#45;&gt;Node4</title>
<g id="a_edge3_Node000002_Node000004"><a xlink:title=" ">
<path fill="none" stroke="#63b8ff" d="M131.11,-241.98C109.92,-233.34 76.87,-219.87 52.7,-210.02"/>
<polygon fill="#63b8ff" stroke="#63b8ff" points="53.85,-206.7 43.27,-206.17 51.21,-213.19 53.85,-206.7"/>
</a>
</g>
</g>
<!-- Node2&#45;&gt;Node5 -->
<g id="edge4_Node000002_Node000005" class="edge">
<title>Node2&#45;&gt;Node5</title>
<g id="a_edge4_Node000002_Node000005"><a xlink:title=" ">
<path fill="none" stroke="#63b8ff" d="M183.97,-241.98C217.82,-232.97 271.4,-218.7 308.71,-208.76"/>
<polygon fill="#63b8ff" stroke="#63b8ff" points="310.01,-212.04 318.78,-206.08 308.21,-205.27 310.01,-212.04"/>
</a>
</g>
</g>
<!-- Node5&#45;&gt;Node3 -->
<g id="edge13_Node000005_Node000003" class="edge">
<title>Node5&#45;&gt;Node3</title>
<g id="a_edge13_Node000005_Node000003"><a xlink:title=" ">
<path fill="none" stroke="#63b8ff" d="M403.29,-192.83C433,-188.3 467.97,-177.25 487,-151 494.83,-140.21 491.93,-133.39 487,-121 478.87,-100.55 465.68,-102.98 453,-85 440.35,-67.07 429.4,-44.35 422.54,-28.74"/>
<polygon fill="#63b8ff" stroke="#63b8ff" points="425.62,-27.04 418.48,-19.21 419.18,-29.79 425.62,-27.04"/>
</a>
</g>
</g>
<!-- Node6 -->
<g id="Node000006" class="node">
<title>Node6</title>
<g id="a_Node000006"><a xlink:href="../../dd/de3/types_8hpp.html" target="_top" xlink:title="IEEE 1588&#45;2019 PTP v2.1 fundamental data types and constants.">
<polygon fill="white" stroke="#666666" points="275.5,-85 162.5,-85 162.5,-55 275.5,-55 275.5,-85"/>
<text text-anchor="start" x="170.5" y="-73" font-family="Helvetica,sans-Serif" font-size="10.00">IEEE/1588/PTP/2019</text>
<text text-anchor="middle" x="219" y="-62" font-family="Helvetica,sans-Serif" font-size="10.00">/types.hpp</text>
</a>
</g>
</g>
<!-- Node5&#45;&gt;Node6 -->
<g id="edge5_Node000005_Node000006" class="edge">
<title>Node5&#45;&gt;Node6</title>
<g id="a_edge5_Node000005_Node000006"><a xlink:title=" ">
<path fill="none" stroke="#63b8ff" d="M323.07,-186.87C303.74,-179.76 278.46,-168.04 261,-151 244.86,-135.25 233.6,-111.95 226.83,-94.56"/>
<polygon fill="#63b8ff" stroke="#63b8ff" points="230.09,-93.28 223.36,-85.1 223.52,-95.69 230.09,-93.28"/>
</a>
</g>
</g>
<!-- Node7 -->
<g id="Node000007" class="node">
<title>Node7</title>
<g id="a_Node000007"><a xlink:title=" ">
<polygon fill="#e0e0e0" stroke="#999999" points="122,-19 80,-19 80,0 122,0 122,-19"/>
<text text-anchor="middle" x="101" y="-7" font-family="Helvetica,sans-Serif" font-size="10.00">array</text>
</a>
</g>
</g>
<!-- Node5&#45;&gt;Node7 -->
<g id="edge15_Node000005_Node000007" class="edge">
<title>Node5&#45;&gt;Node7</title>
<g id="a_edge15_Node000005_Node000007"><a xlink:title=" ">
<path fill="none" stroke="#63b8ff" d="M298.89,-194.23C230.77,-191.34 117.06,-181.89 91,-151 61.65,-116.2 80.27,-57.73 92.62,-28.4"/>
<polygon fill="#63b8ff" stroke="#63b8ff" points="95.92,-29.58 96.78,-19.02 89.53,-26.74 95.92,-29.58"/>
</a>
</g>
</g>
<!-- Node9 -->
<g id="Node000009" class="node">
<title>Node9</title>
<g id="a_Node000009"><a xlink:href="../../d4/d64/messages_8hpp.html" target="_top" xlink:title="IEEE 1588&#45;2019 PTP Message Format Structures.">
<polygon fill="white" stroke="#666666" points="213.5,-151 100.5,-151 100.5,-121 213.5,-121 213.5,-151"/>
<text text-anchor="start" x="108.5" y="-139" font-family="Helvetica,sans-Serif" font-size="10.00">IEEE/1588/PTP/2019</text>
<text text-anchor="middle" x="157" y="-128" font-family="Helvetica,sans-Serif" font-size="10.00">/messages.hpp</text>
</a>
</g>
</g>
<!-- Node5&#45;&gt;Node9 -->
<g id="edge9_Node000005_Node000009" class="edge">
<title>Node5&#45;&gt;Node9</title>
<g id="a_edge9_Node000005_Node000009"><a xlink:title=" ">
<path fill="none" stroke="#63b8ff" d="M322.79,-186.99C294.26,-178.39 249.38,-164.86 213.5,-154.04"/>
<polygon fill="#63b8ff" stroke="#63b8ff" points="214.23,-150.6 203.64,-151.06 212.2,-157.3 214.23,-150.6"/>
</a>
</g>
</g>
<!-- Node10 -->
<g id="Node000010" class="node">
<title>Node10</title>
<g id="a_Node000010"><a xlink:title=" ">
<polygon fill="#e0e0e0" stroke="#999999" points="320,-145.5 270,-145.5 270,-126.5 320,-126.5 320,-145.5"/>
<text text-anchor="middle" x="295" y="-133.5" font-family="Helvetica,sans-Serif" font-size="10.00">cstring</text>
</a>
</g>
</g>
<!-- Node5&#45;&gt;Node10 -->
<g id="edge14_Node000005_Node000010" class="edge">
<title>Node5&#45;&gt;Node10</title>
<g id="a_edge14_Node000005_Node000010"><a xlink:title=" ">
<path fill="none" stroke="#63b8ff" d="M342.74,-186.87C334.22,-177.97 320.74,-163.89 310.27,-152.95"/>
<polygon fill="#63b8ff" stroke="#63b8ff" points="312.74,-150.47 303.3,-145.67 307.68,-155.31 312.74,-150.47"/>
</a>
</g>
</g>
<!-- Node11 -->
<g id="Node000011" class="node">
<title>Node11</title>
<g id="a_Node000011"><a xlink:href="../../d6/da3/logger_8hpp.html" target="_top" xlink:title=" ">
<polygon fill="white" stroke="#666666" points="477.5,-145.5 338.5,-145.5 338.5,-126.5 477.5,-126.5 477.5,-145.5"/>
<text text-anchor="middle" x="408" y="-133.5" font-family="Helvetica,sans-Serif" font-size="10.00">Common/utils/logger.hpp</text>
</a>
</g>
</g>
<!-- Node5&#45;&gt;Node11 -->
<g id="edge16_Node000005_Node000011" class="edge">
<title>Node5&#45;&gt;Node11</title>
<g id="a_edge16_Node000005_Node000011"><a xlink:title=" ">
<path fill="none" stroke="#63b8ff" d="M359.41,-186.87C368.08,-177.97 381.8,-163.89 392.46,-152.95"/>
<polygon fill="#63b8ff" stroke="#63b8ff" points="395.08,-155.27 399.55,-145.67 390.07,-150.39 395.08,-155.27"/>
</a>
</g>
</g>
<!-- Node12 -->
<g id="Node000012" class="node">
<title>Node12</title>
<g id="a_Node000012"><a xlink:href="../../d4/d35/fault__injection_8hpp.html" target="_top" xlink:title=" ">
<polygon fill="white" stroke="#666666" points="812,-85 702,-85 702,-55 812,-55 812,-85"/>
<text text-anchor="start" x="710" y="-73" font-family="Helvetica,sans-Serif" font-size="10.00">Common/utils/fault</text>
<text text-anchor="middle" x="757" y="-62" font-family="Helvetica,sans-Serif" font-size="10.00">_injection.hpp</text>
</a>
</g>
</g>
<!-- Node5&#45;&gt;Node12 -->
<g id="edge18_Node000005_Node000012" class="edge">
<title>Node5&#45;&gt;Node12</title>
<g id="a_edge18_Node000005_Node000012"><a xlink:title=" ">
<path fill="none" stroke="#63b8ff" d="M403.29,-195.4C493.07,-194.23 671.67,-187.26 721,-151 738.95,-137.8 748.14,-113.57 752.72,-95.22"/>
<polygon fill="#63b8ff" stroke="#63b8ff" points="756.19,-95.74 754.92,-85.22 749.36,-94.23 756.19,-95.74"/>
</a>
</g>
</g>
<!-- Node14 -->
<g id="Node000014" class="node">
<title>Node14</title>
<g id="a_Node000014"><a xlink:href="../../d4/d44/metrics_8hpp.html" target="_top" xlink:title=" ">
<polygon fill="white" stroke="#666666" points="608,-79.5 462,-79.5 462,-60.5 608,-60.5 608,-79.5"/>
<text text-anchor="middle" x="535" y="-67.5" font-family="Helvetica,sans-Serif" font-size="10.00">Common/utils/metrics.hpp</text>
</a>
</g>
</g>
<!-- Node5&#45;&gt;Node14 -->
<g id="edge21_Node000005_Node000014" class="edge">
<title>Node5&#45;&gt;Node14</title>
<g id="a_edge21_Node000005_Node000014"><a xlink:title=" ">
<path fill="none" stroke="#63b8ff" d="M403.38,-187.94C446.91,-180.57 504.19,-167.99 520,-151 535.23,-134.63 537.36,-107.93 536.77,-89.92"/>
<polygon fill="#63b8ff" stroke="#63b8ff" points="540.25,-89.53 536.12,-79.78 533.27,-89.98 540.25,-89.53"/>
</a>
</g>
</g>
<!-- Node15 -->
<g id="Node000015" class="node">
<title>Node15</title>
<g id="a_Node000015"><a xlink:href="../../de/d18/health_8hpp.html" target="_top" xlink:title=" ">
<polygon fill="white" stroke="#666666" points="712,-145.5 572,-145.5 572,-126.5 712,-126.5 712,-145.5"/>
<text text-anchor="middle" x="642" y="-133.5" font-family="Helvetica,sans-Serif" font-size="10.00">Common/utils/health.hpp</text>
</a>
</g>
</g>
<!-- Node5&#45;&gt;Node15 -->
<g id="edge25_Node000005_Node000015" class="edge">
<title>Node5&#45;&gt;Node15</title>
<g id="a_edge25_Node000005_Node000015"><a xlink:title=" ">
<path fill="none" stroke="#63b8ff" d="M393.31,-186.99C445.25,-176.55 533.33,-158.85 589.53,-147.55"/>
<polygon fill="#63b8ff" stroke="#63b8ff" points="590.52,-150.92 599.64,-145.52 589.14,-144.06 590.52,-150.92"/>
</a>
</g>
</g>
<!-- Node16 -->
<g id="Node000016" class="node">
<title>Node16</title>
<g id="a_Node000016"><a xlink:href="../../d8/dfd/config_8hpp.html" target="_top" xlink:title=" ">
<polygon fill="white" stroke="#666666" points="968,-79.5 830,-79.5 830,-60.5 968,-60.5 968,-79.5"/>
<text text-anchor="middle" x="899" y="-67.5" font-family="Helvetica,sans-Serif" font-size="10.00">Common/utils/config.hpp</text>
</a>
</g>
</g>
<!-- Node5&#45;&gt;Node16 -->
<g id="edge30_Node000005_Node000016" class="edge">
<title>Node5&#45;&gt;Node16</title>
<g id="a_edge30_Node000005_Node000016"><a xlink:title=" ">
<path fill="none" stroke="#63b8ff" d="M403.04,-195.68C479.78,-194.6 627.05,-187.4 746,-151 796.21,-135.63 849.36,-103.83 877.9,-85.29"/>
<polygon fill="#63b8ff" stroke="#63b8ff" points="880.18,-87.98 886.6,-79.55 876.32,-82.13 880.18,-87.98"/>
</a>
</g>
</g>
<!-- Node6&#45;&gt;Node3 -->
<g id="edge6_Node000006_Node000003" class="edge">
<title>Node6&#45;&gt;Node3</title>
<g id="a_edge6_Node000006_Node000003"><a xlink:title=" ">
<path fill="none" stroke="#63b8ff" d="M265.95,-54.99C301.1,-44.5 348.41,-30.37 380.22,-20.88"/>
<polygon fill="#63b8ff" stroke="#63b8ff" points="381.39,-24.18 389.97,-17.97 379.39,-17.48 381.39,-24.18"/>
</a>
</g>
</g>
<!-- Node6&#45;&gt;Node7 -->
<g id="edge7_Node000006_Node000007" class="edge">
<title>Node6&#45;&gt;Node7</title>
<g id="a_edge7_Node000006_Node000007"><a xlink:title=" ">
<path fill="none" stroke="#63b8ff" d="M190.74,-54.99C171.58,-45.49 146.42,-33.02 127.61,-23.69"/>
<polygon fill="#63b8ff" stroke="#63b8ff" points="128.94,-20.45 118.43,-19.14 125.83,-26.72 128.94,-20.45"/>
</a>
</g>
</g>
<!-- Node8 -->
<g id="Node000008" class="node">
<title>Node8</title>
<g id="a_Node000008"><a xlink:title=" ">
<polygon fill="#e0e0e0" stroke="#999999" points="245.5,-19 192.5,-19 192.5,0 245.5,0 245.5,-19"/>
<text text-anchor="middle" x="219" y="-7" font-family="Helvetica,sans-Serif" font-size="10.00">cstddef</text>
</a>
</g>
</g>
<!-- Node6&#45;&gt;Node8 -->
<g id="edge8_Node000006_Node000008" class="edge">
<title>Node6&#45;&gt;Node8</title>
<g id="a_edge8_Node000006_Node000008"><a xlink:title=" ">
<path fill="none" stroke="#63b8ff" d="M219,-54.84C219,-47.21 219,-37.7 219,-29.45"/>
<polygon fill="#63b8ff" stroke="#63b8ff" points="222.5,-29.27 219,-19.27 215.5,-29.27 222.5,-29.27"/>
</a>
</g>
</g>
<!-- Node9&#45;&gt;Node3 -->
<g id="edge11_Node000009_Node000003" class="edge">
<title>Node9&#45;&gt;Node3</title>
<g id="a_edge11_Node000009_Node000003"><a xlink:title=" ">
<path fill="none" stroke="#63b8ff" d="M196.81,-120.99C222.15,-111.66 255.46,-98.65 284,-85 323.31,-66.2 366.92,-40.33 392.59,-24.55"/>
<polygon fill="#63b8ff" stroke="#63b8ff" points="394.54,-27.46 401.2,-19.22 390.85,-21.51 394.54,-27.46"/>
</a>
</g>
</g>
<!-- Node9&#45;&gt;Node6 -->
<g id="edge10_Node000009_Node000006" class="edge">
<title>Node9&#45;&gt;Node6</title>
<g id="a_edge10_Node000009_Node000006"><a xlink:title=" ">
<path fill="none" stroke="#63b8ff" d="M170.76,-120.8C178.79,-112.51 189.07,-101.89 198.09,-92.59"/>
<polygon fill="#63b8ff" stroke="#63b8ff" points="200.83,-94.78 205.28,-85.16 195.81,-89.91 200.83,-94.78"/>
</a>
</g>
</g>
<!-- Node9&#45;&gt;Node7 -->
<g id="edge12_Node000009_Node000007" class="edge">
<title>Node9&#45;&gt;Node7</title>
<g id="a_edge12_Node000009_Node000007"><a xlink:title=" ">
<path fill="none" stroke="#63b8ff" d="M150.58,-120.72C140.32,-97.92 120.26,-53.33 109.06,-28.42"/>
<polygon fill="#63b8ff" stroke="#63b8ff" points="112.15,-26.75 104.85,-19.07 105.76,-29.63 112.15,-26.75"/>
</a>
</g>
</g>
<!-- Node11&#45;&gt;Node3 -->
<g id="edge17_Node000011_Node000003" class="edge">
<title>Node11&#45;&gt;Node3</title>
<g id="a_edge17_Node000011_Node000003"><a xlink:title=" ">
<path fill="none" stroke="#63b8ff" d="M408.48,-126.44C409.6,-106.54 412.4,-56.76 413.94,-29.35"/>
<polygon fill="#63b8ff" stroke="#63b8ff" points="417.45,-29.3 414.52,-19.12 410.46,-28.9 417.45,-29.3"/>
</a>
</g>
</g>
<!-- Node12&#45;&gt;Node3 -->
<g id="edge20_Node000012_Node000003" class="edge">
<title>Node12&#45;&gt;Node3</title>
<g id="a_edge20_Node000012_Node000003"><a xlink:title=" ">
<path fill="none" stroke="#63b8ff" d="M701.67,-59.54C630.69,-47.39 509.66,-26.69 450.15,-16.51"/>
<polygon fill="#63b8ff" stroke="#63b8ff" points="450.56,-13.03 440.12,-14.8 449.38,-19.93 450.56,-13.03"/>
</a>
</g>
</g>
<!-- Node13 -->
<g id="Node000013" class="node">
<title>Node13</title>
<g id="a_Node000013"><a xlink:title=" ">
<polygon fill="#e0e0e0" stroke="#999999" points="740,-19 690,-19 690,0 740,0 740,-19"/>
<text text-anchor="middle" x="715" y="-7" font-family="Helvetica,sans-Serif" font-size="10.00">atomic</text>
</a>
</g>
</g>
<!-- Node12&#45;&gt;Node13 -->
<g id="edge19_Node000012_Node000013" class="edge">
<title>Node12&#45;&gt;Node13</title>
<g id="a_edge19_Node000012_Node000013"><a xlink:title=" ">
<path fill="none" stroke="#63b8ff" d="M746.83,-54.84C740.92,-46.61 733.44,-36.18 727.21,-27.51"/>
<polygon fill="#63b8ff" stroke="#63b8ff" points="729.97,-25.35 721.29,-19.27 724.28,-29.43 729.97,-25.35"/>
</a>
</g>
</g>
<!-- Node14&#45;&gt;Node3 -->
<g id="edge23_Node000014_Node000003" class="edge">
<title>Node14&#45;&gt;Node3</title>
<g id="a_edge23_Node000014_Node000003"><a xlink:title=" ">
<path fill="none" stroke="#63b8ff" d="M517.55,-60.49C497.64,-50.79 464.86,-34.81 441.73,-23.53"/>
<polygon fill="#63b8ff" stroke="#63b8ff" points="442.99,-20.25 432.47,-19.02 439.93,-26.54 442.99,-20.25"/>
</a>
</g>
</g>
<!-- Node14&#45;&gt;Node7 -->
<g id="edge24_Node000014_Node000007" class="edge">
<title>Node14&#45;&gt;Node7</title>
<g id="a_edge24_Node000014_Node000007"><a xlink:title=" ">
<path fill="none" stroke="#63b8ff" d="M471.89,-60.49C377.53,-47.77 203.17,-24.27 132.24,-14.71"/>
<polygon fill="#63b8ff" stroke="#63b8ff" points="132.53,-11.22 122.16,-13.35 131.6,-18.16 132.53,-11.22"/>
</a>
</g>
</g>
<!-- Node14&#45;&gt;Node13 -->
<g id="edge22_Node000014_Node000013" class="edge">
<title>Node14&#45;&gt;Node13</title>
<g id="a_edge22_Node000014_Node000013"><a xlink:title=" ">
<path fill="none" stroke="#63b8ff" d="M561.17,-60.49C592.59,-50.28 645.38,-33.13 680.21,-21.81"/>
<polygon fill="#63b8ff" stroke="#63b8ff" points="681.53,-25.06 689.96,-18.64 679.36,-18.4 681.53,-25.06"/>
</a>
</g>
</g>
<!-- Node15&#45;&gt;Node3 -->
<g id="edge27_Node000015_Node000003" class="edge">
<title>Node15&#45;&gt;Node3</title>
<g id="a_edge27_Node000015_Node000003"><a xlink:title=" ">
<path fill="none" stroke="#63b8ff" d="M641.95,-126.04C641.36,-109.44 637.59,-73.89 617,-55 592.99,-32.97 501.49,-19.81 450.27,-14.02"/>
<polygon fill="#63b8ff" stroke="#63b8ff" points="450.61,-10.53 440.29,-12.92 449.85,-17.49 450.61,-10.53"/>
</a>
</g>
</g>
<!-- Node15&#45;&gt;Node12 -->
<g id="edge29_Node000015_Node000012" class="edge">
<title>Node15&#45;&gt;Node12</title>
<g id="a_edge29_Node000015_Node000012"><a xlink:title=" ">
<path fill="none" stroke="#63b8ff" d="M657.51,-126.37C674.14,-117.11 701.07,-102.12 722.73,-90.07"/>
<polygon fill="#63b8ff" stroke="#63b8ff" points="724.6,-93.04 731.64,-85.12 721.2,-86.92 724.6,-93.04"/>
</a>
</g>
</g>
<!-- Node15&#45;&gt;Node13 -->
<g id="edge26_Node000015_Node000013" class="edge">
<title>Node15&#45;&gt;Node13</title>
<g id="a_edge26_Node000015_Node000013"><a xlink:title=" ">
<path fill="none" stroke="#63b8ff" d="M647.02,-126.44C658.89,-106.19 688.92,-54.97 704.8,-27.9"/>
<polygon fill="#63b8ff" stroke="#63b8ff" points="707.91,-29.51 709.95,-19.12 701.87,-25.97 707.91,-29.51"/>
</a>
</g>
</g>
<!-- Node15&#45;&gt;Node14 -->
<g id="edge28_Node000015_Node000014" class="edge">
<title>Node15&#45;&gt;Node14</title>
<g id="a_edge28_Node000015_Node000014"><a xlink:title=" ">
<path fill="none" stroke="#63b8ff" d="M627.57,-126.37C609.78,-115.73 579.32,-97.51 558.22,-84.89"/>
<polygon fill="#63b8ff" stroke="#63b8ff" points="559.92,-81.83 549.54,-79.7 556.33,-87.84 559.92,-81.83"/>
</a>
</g>
</g>
<!-- Node16&#45;&gt;Node13 -->
<g id="edge31_Node000016_Node000013" class="edge">
<title>Node16&#45;&gt;Node13</title>
<g id="a_edge31_Node000016_Node000013"><a xlink:title=" ">
<path fill="none" stroke="#63b8ff" d="M872.24,-60.49C839.95,-50.23 785.55,-32.93 749.97,-21.62"/>
<polygon fill="#63b8ff" stroke="#63b8ff" points="750.61,-18.15 740.02,-18.45 748.48,-24.82 750.61,-18.15"/>
</a>
</g>
</g>
</g>
</svg>

<g id="navigator" transform="translate(0 0)" fill="#404254">
  <rect fill="#f2f5e9" fill-opacity="0.5" stroke="#606060" stroke-width=".5" x="0" y="0" width="60" height="60"/>
  <use id="zoomplus" xlink:href="#zoomPlus" x="17" y="9" onmousedown="handleZoom(evt,'in')"/>
  <use id="zoomminus" xlink:href="#zoomMin" x="42" y="9" onmousedown="handleZoom(evt,'out')"/>
  <use id="reset" xlink:href="#resetDef" x="30" y="36" onmousedown="handleReset()"/>
   <use id="arrowup" xlink:href="#arrowUp" x="0" y="0" onmousedown="handlePan(0,-1)"/>
  <use id="arrowright" xlink:href="#arrowRight" x="0" y="0" onmousedown="handlePan(1,0)"/>
  <use id="arrowdown" xlink:href="#arrowDown" x="0" y="0" onmousedown="handlePan(0,1)"/>
  <use id="arrowleft" xlink:href="#arrowLeft" x="0" y="0" onmousedown="handlePan(-1,0)"/>
</g>
<svg viewBox="0 0 15 15" width="100%" height="30px" preserveAspectRatio="xMaxYMin meet">
 <g id="arrow_out" transform="scale(0.3 0.3)">
  <a xlink:href="profile__adapter_8hpp__incl_org.svg" target="_base">
   <rect id="button" ry="5" rx="5" y="6" x="6" height="38" width="38"
        fill="#f2f5e9" fill-opacity="0.5" stroke="#606060" stroke-width="1.0"/>
   <path id="arrow"
     d="M 11.500037,31.436501 C 11.940474,20.09759 22.043105,11.32322 32.158766,21.979434 L 37.068811,17.246167 C 37.068811,17.246167 37.088388,32 37.088388,32 L 22.160133,31.978069 C 22.160133,31.978069 26.997745,27.140456 26.997745,27.140456 C 18.528582,18.264221 13.291696,25.230495 11.500037,31.436501 z"
     style="fill:#404040;"/>
  </a>
 </g>
</svg>

<style type='text/css'>
<![CDATA[
[data-mouse-over-selected='false'] { opacity: 0.7; }
[data-mouse-over-selected='true']  { opacity: 1.0; }
]]>
</style>
<script type="application/ecmascript"><![CDATA[
document.addEventListener('DOMContentLoaded', (event) => {
  highlightEdges();
  highlightAdjacentNodes();
});
]]></script>
</svg>
