<?xml version="1.0" encoding="UTF-8" standalone="no"?>
<!DOCTYPE svg PUBLIC "-//W3C//DTD SVG 1.1//EN"
 "http://www.w3.org/Graphics/SVG/1.1/DTD/svg11.dtd">
<!-- Generated by graphviz version 2.43.0 (0)
 -->
<!-- Title: /home/runner/work/IEEE_1588_2019/IEEE_1588_2019/src/bmca_integration.cpp Pages: 1 -->
<!--zoomable 357 -->

<svg id="main" version="1.1" xmlns="http://www.w3.org/2000/svg" xmlns:xlink="http://www.w3.org/1999/xlink" xml:space="preserve" onload="init(evt)">
<style type="text/css"><![CDATA[
.node, .edge {opacity: 0.7;}
.node.selected, .edge.selected {opacity: 1;}
.edge:hover path { stroke: red; }
.edge:hover polygon { stroke: red; fill: red; }
]]></style>

<defs>
  <circle id="rim" cx="0" cy="0" r="7"/>
  <circle id="rim2" cx="0" cy="0" r="3.5"/>
  <g id="zoomPlus">
    <use xlink:href="#rim" fill="#404040"><set attributeName="fill" to="#808080" begin="zoomplus.mouseover" end="zoomplus.mouseout"/></use>
    <path d="M-4,0h8M0,-4v8" fill="none" stroke="white" stroke-width="1.5" pointer-events="none"/>
  </g>
  <g id="zoomMin">
    <use xlink:href="#rim" fill="#404040"><set attributeName="fill" to="#808080" begin="zoomminus.mouseover" end="zoomminus.mouseout"/></use>
    <path d="M-4,0h8" fill="none" stroke="white" stroke-width="1.5" pointer-events="none"/>
  </g>
  <g id="arrowUp" transform="translate(30 24)">
    <use xlink:href="#rim"/>
    <path pointer-events="none" fill="none" stroke="white" stroke-width="1.5" d="M0,-3.0v7 M-2.5,-0.5L0,-3.0L2.5,-0.5"/>
  </g>
  <g id="arrowRight" transform="rotate(90) translate(36 -43)">
    <use xlink:href="#rim"/>
    <path pointer-events="none" fill="none" stroke="white" stroke-width="1.5" d="M0,-3.0v7 M-2.5,-0.5L0,-3.0L2.5,-0.5"/>
  </g>
  <g id="arrowDown" transform="rotate(180) translate(-30 -48)">
    <use xlink:href="#rim"/>
    <path pointer-events="none" fill="none" stroke="white" stroke-width="1.5" d="M0,-3.0v7 M-2.5,-0.5L0,-3.0L2.5,-0.5"/>
  </g>
  <g id="arrowLeft" transform="rotate(270) translate(-36 17)">
    <use xlink:href="#rim"/>
    <path pointer-events="none" fill="none" stroke="white" stroke-width="1.5" d="M0,-3.0v7 M-2.5,-0.5L0,-3.0L2.5,-0.5"/>
  </g>
  <g id="resetDef">
    <use xlink:href="#rim2" fill="#404040"><set attributeName="fill" to="#808080" begin="reset.mouseover" end="reset.mouseout"/></use>
  </g>
</defs>
<script type="application/ecmascript">
var viewWidth = 1102;
var viewHeight = 357;
var sectionId = 'dynsection-0';
</script>
<script type="application/ecmascript" xlink:href="../../svg.min.js"/>
<svg id="graph" class="graph">
<g id="viewport">
<title>/home/runner/work/IEEE_1588_2019/IEEE_1588_2019/src/bmca_integration.cpp</title>
<!-- Node1 -->
<g id="Node000001" class="node">
<title>Node1</title>
<g id="a_Node000001"><a xlink:title="BMCA Runtime Integration Coordinator Implementation.">
<polygon fill="#999999" stroke="#666666" points="1094,-349 936,-349 936,-308 1094,-308 1094,-349"/>
<text text-anchor="start" x="944" y="-337" font-family="Helvetica,sans-Serif" font-size="10.00">/home/runner/work/IEEE</text>
<text text-anchor="start" x="944" y="-326" font-family="Helvetica,sans-Serif" font-size="10.00">_1588_2019/IEEE_1588_2019</text>
<text text-anchor="middle" x="1015" y="-315" font-family="Helvetica,sans-Serif" font-size="10.00">/src/bmca_integration.cpp</text>
</a>
</g>
</g>
<!-- Node2 -->
<g id="Node000002" class="node">
<title>Node2</title>
<g id="a_Node000002"><a xlink:href="../../d4/dbb/bmca__integration_8hpp.html" target="_top" xlink:title="BMCA Runtime Integration Coordinator.">
<polygon fill="white" stroke="#666666" points="587,-272 461,-272 461,-242 587,-242 587,-272"/>
<text text-anchor="start" x="469" y="-260" font-family="Helvetica,sans-Serif" font-size="10.00">IEEE/1588/PTP/2019</text>
<text text-anchor="middle" x="524" y="-249" font-family="Helvetica,sans-Serif" font-size="10.00">/bmca_integration.hpp</text>
</a>
</g>
</g>
<!-- Node1&#45;&gt;Node2 -->
<g id="edge1_Node000001_Node000002" class="edge">
<title>Node1&#45;&gt;Node2</title>
<g id="a_edge1_Node000001_Node000002"><a xlink:title=" ">
<path fill="none" stroke="#63b8ff" d="M935.84,-316.3C842.24,-303.05 687.74,-281.18 596.94,-268.33"/>
<polygon fill="#63b8ff" stroke="#63b8ff" points="597.4,-264.85 587.01,-266.92 596.42,-271.79 597.4,-264.85"/>
</a>
</g>
</g>
<!-- Node9 -->
<g id="Node000009" class="node">
<title>Node9</title>
<g id="a_Node000009"><a xlink:title=" ">
<polygon fill="#e0e0e0" stroke="#999999" points="1014,-145.5 964,-145.5 964,-126.5 1014,-126.5 1014,-145.5"/>
<text text-anchor="middle" x="989" y="-133.5" font-family="Helvetica,sans-Serif" font-size="10.00">cstring</text>
</a>
</g>
</g>
<!-- Node1&#45;&gt;Node9 -->
<g id="edge38_Node000001_Node000009" class="edge">
<title>Node1&#45;&gt;Node9</title>
<g id="a_edge38_Node000001_Node000009"><a xlink:title=" ">
<path fill="none" stroke="#63b8ff" d="M1022.13,-307.79C1031.03,-280.02 1043.44,-228.17 1029,-187 1024.45,-174.02 1014.95,-161.9 1006.35,-152.85"/>
<polygon fill="#63b8ff" stroke="#63b8ff" points="1008.74,-150.29 999.17,-145.74 1003.81,-155.26 1008.74,-150.29"/>
</a>
</g>
</g>
<!-- Node10 -->
<g id="Node000010" class="node">
<title>Node10</title>
<g id="a_Node000010"><a xlink:href="../../d6/da3/logger_8hpp.html" target="_top" xlink:title=" ">
<polygon fill="white" stroke="#666666" points="907.5,-145.5 768.5,-145.5 768.5,-126.5 907.5,-126.5 907.5,-145.5"/>
<text text-anchor="middle" x="838" y="-133.5" font-family="Helvetica,sans-Serif" font-size="10.00">Common/utils/logger.hpp</text>
</a>
</g>
</g>
<!-- Node1&#45;&gt;Node10 -->
<g id="edge37_Node000001_Node000010" class="edge">
<title>Node1&#45;&gt;Node10</title>
<g id="a_edge37_Node000001_Node000010"><a xlink:title=" ">
<path fill="none" stroke="#63b8ff" d="M996.72,-307.83C961.56,-269.99 885.13,-187.72 852.85,-152.99"/>
<polygon fill="#63b8ff" stroke="#63b8ff" points="855.36,-150.54 845.99,-145.6 850.23,-155.3 855.36,-150.54"/>
</a>
</g>
</g>
<!-- Node3 -->
<g id="Node000003" class="node">
<title>Node3</title>
<g id="a_Node000003"><a xlink:href="../../dd/de3/types_8hpp.html" target="_top" xlink:title="IEEE 1588&#45;2019 PTP v2.1 fundamental data types and constants.">
<polygon fill="white" stroke="#666666" points="817.5,-79.5 752.5,-79.5 752.5,-60.5 817.5,-60.5 817.5,-79.5"/>
<text text-anchor="middle" x="785" y="-67.5" font-family="Helvetica,sans-Serif" font-size="10.00">types.hpp</text>
</a>
</g>
</g>
<!-- Node2&#45;&gt;Node3 -->
<g id="edge2_Node000002_Node000003" class="edge">
<title>Node2&#45;&gt;Node3</title>
<g id="a_edge2_Node000002_Node000003"><a xlink:title=" ">
<path fill="none" stroke="#63b8ff" d="M587.17,-252.31C708.89,-243.73 968.75,-217.85 1023,-151 1076.67,-84.86 909.76,-73.08 827.73,-71.21"/>
<polygon fill="#63b8ff" stroke="#63b8ff" points="827.75,-67.71 817.69,-71.02 827.62,-74.71 827.75,-67.71"/>
</a>
</g>
</g>
<!-- Node4 -->
<g id="Node000004" class="node">
<title>Node4</title>
<g id="a_Node000004"><a xlink:title=" ">
<polygon fill="#e0e0e0" stroke="#999999" points="546,-19 496,-19 496,0 546,0 546,-19"/>
<text text-anchor="middle" x="521" y="-7" font-family="Helvetica,sans-Serif" font-size="10.00">cstdint</text>
</a>
</g>
</g>
<!-- Node2&#45;&gt;Node4 -->
<g id="edge36_Node000002_Node000004" class="edge">
<title>Node2&#45;&gt;Node4</title>
<g id="a_edge36_Node000002_Node000004"><a xlink:title=" ">
<path fill="none" stroke="#63b8ff" d="M460.74,-252.03C394.67,-244.12 294.11,-220.6 246,-151 238.42,-140.03 245.4,-134.32 246,-121 247.33,-91.58 231.95,-76.58 252,-55 283.06,-21.58 419.87,-13.26 485.56,-11.19"/>
<polygon fill="#63b8ff" stroke="#63b8ff" points="485.94,-14.68 495.84,-10.9 485.74,-7.68 485.94,-14.68"/>
</a>
</g>
</g>
<!-- Node7 -->
<g id="Node000007" class="node">
<title>Node7</title>
<g id="a_Node000007"><a xlink:href="../../dd/dc5/clocks_8hpp.html" target="_top" xlink:title="IEEE 1588&#45;2019 PTP Clock State Machines Implementation.">
<polygon fill="white" stroke="#666666" points="643,-206 575,-206 575,-187 643,-187 643,-206"/>
<text text-anchor="middle" x="609" y="-194" font-family="Helvetica,sans-Serif" font-size="10.00">clocks.hpp</text>
</a>
</g>
</g>
<!-- Node2&#45;&gt;Node7 -->
<g id="edge6_Node000002_Node000007" class="edge">
<title>Node2&#45;&gt;Node7</title>
<g id="a_edge6_Node000002_Node000007"><a xlink:title=" ">
<path fill="none" stroke="#63b8ff" d="M544.58,-241.84C557.67,-232.83 574.59,-221.18 587.8,-212.09"/>
<polygon fill="#63b8ff" stroke="#63b8ff" points="590.01,-214.82 596.26,-206.27 586.04,-209.05 590.01,-214.82"/>
</a>
</g>
</g>
<!-- Node13 -->
<g id="Node000013" class="node">
<title>Node13</title>
<g id="a_Node000013"><a xlink:href="../../d4/d44/metrics_8hpp.html" target="_top" xlink:title=" ">
<polygon fill="white" stroke="#666666" points="544,-79.5 398,-79.5 398,-60.5 544,-60.5 544,-79.5"/>
<text text-anchor="middle" x="471" y="-67.5" font-family="Helvetica,sans-Serif" font-size="10.00">Common/utils/metrics.hpp</text>
</a>
</g>
</g>
<!-- Node2&#45;&gt;Node13 -->
<g id="edge32_Node000002_Node000013" class="edge">
<title>Node2&#45;&gt;Node13</title>
<g id="a_edge32_Node000002_Node000013"><a xlink:title=" ">
<path fill="none" stroke="#63b8ff" d="M507.99,-241.91C498.68,-232.7 487.69,-219.84 482,-206 466.04,-167.16 466.99,-116.82 469.03,-89.92"/>
<polygon fill="#63b8ff" stroke="#63b8ff" points="472.54,-89.9 469.95,-79.63 465.57,-89.28 472.54,-89.9"/>
</a>
</g>
</g>
<!-- Node14 -->
<g id="Node000014" class="node">
<title>Node14</title>
<g id="a_Node000014"><a xlink:href="../../de/d18/health_8hpp.html" target="_top" xlink:title=" ">
<polygon fill="white" stroke="#666666" points="395,-145.5 255,-145.5 255,-126.5 395,-126.5 395,-145.5"/>
<text text-anchor="middle" x="325" y="-133.5" font-family="Helvetica,sans-Serif" font-size="10.00">Common/utils/health.hpp</text>
</a>
</g>
</g>
<!-- Node2&#45;&gt;Node14 -->
<g id="edge31_Node000002_Node000014" class="edge">
<title>Node2&#45;&gt;Node14</title>
<g id="a_edge31_Node000002_Node000014"><a xlink:title=" ">
<path fill="none" stroke="#63b8ff" d="M500.39,-241.88C461.95,-218.9 386.31,-173.66 348.16,-150.85"/>
<polygon fill="#63b8ff" stroke="#63b8ff" points="349.69,-147.69 339.32,-145.56 346.1,-153.7 349.69,-147.69"/>
</a>
</g>
</g>
<!-- Node16 -->
<g id="Node000016" class="node">
<title>Node16</title>
<g id="a_Node000016"><a xlink:title=" ">
<polygon fill="#e0e0e0" stroke="#999999" points="556.5,-206 491.5,-206 491.5,-187 556.5,-187 556.5,-206"/>
<text text-anchor="middle" x="524" y="-194" font-family="Helvetica,sans-Serif" font-size="10.00">functional</text>
</a>
</g>
</g>
<!-- Node2&#45;&gt;Node16 -->
<g id="edge33_Node000002_Node000016" class="edge">
<title>Node2&#45;&gt;Node16</title>
<g id="a_edge33_Node000002_Node000016"><a xlink:title=" ">
<path fill="none" stroke="#63b8ff" d="M524,-241.84C524,-234.21 524,-224.7 524,-216.45"/>
<polygon fill="#63b8ff" stroke="#63b8ff" points="527.5,-216.27 524,-206.27 520.5,-216.27 527.5,-216.27"/>
</a>
</g>
</g>
<!-- Node17 -->
<g id="Node000017" class="node">
<title>Node17</title>
<g id="a_Node000017"><a xlink:title=" ">
<polygon fill="#e0e0e0" stroke="#999999" points="719,-206 661,-206 661,-187 719,-187 719,-206"/>
<text text-anchor="middle" x="690" y="-194" font-family="Helvetica,sans-Serif" font-size="10.00">memory</text>
</a>
</g>
</g>
<!-- Node2&#45;&gt;Node17 -->
<g id="edge34_Node000002_Node000017" class="edge">
<title>Node2&#45;&gt;Node17</title>
<g id="a_edge34_Node000002_Node000017"><a xlink:title=" ">
<path fill="none" stroke="#63b8ff" d="M563.76,-241.99C591.83,-232.1 629.05,-218.98 655.79,-209.56"/>
<polygon fill="#63b8ff" stroke="#63b8ff" points="657.22,-212.76 665.49,-206.14 654.89,-206.16 657.22,-212.76"/>
</a>
</g>
</g>
<!-- Node18 -->
<g id="Node000018" class="node">
<title>Node18</title>
<g id="a_Node000018"><a xlink:title=" ">
<polygon fill="#e0e0e0" stroke="#999999" points="138,-206 94,-206 94,-187 138,-187 138,-206"/>
<text text-anchor="middle" x="116" y="-194" font-family="Helvetica,sans-Serif" font-size="10.00">string</text>
</a>
</g>
</g>
<!-- Node2&#45;&gt;Node18 -->
<g id="edge35_Node000002_Node000018" class="edge">
<title>Node2&#45;&gt;Node18</title>
<g id="a_edge35_Node000002_Node000018"><a xlink:title=" ">
<path fill="none" stroke="#63b8ff" d="M460.84,-249.43C386.6,-241.26 259.81,-225.92 152,-206 150.72,-205.76 149.42,-205.51 148.11,-205.25"/>
<polygon fill="#63b8ff" stroke="#63b8ff" points="148.53,-201.76 138.01,-203.06 147.04,-208.6 148.53,-201.76"/>
</a>
</g>
</g>
<!-- Node3&#45;&gt;Node4 -->
<g id="edge3_Node000003_Node000004" class="edge">
<title>Node3&#45;&gt;Node4</title>
<g id="a_edge3_Node000003_Node000004"><a xlink:title=" ">
<path fill="none" stroke="#63b8ff" d="M752.36,-61.77C702.42,-50.7 607.42,-29.65 556.06,-18.27"/>
<polygon fill="#63b8ff" stroke="#63b8ff" points="556.61,-14.81 546.09,-16.06 555.1,-21.64 556.61,-14.81"/>
</a>
</g>
</g>
<!-- Node5 -->
<g id="Node000005" class="node">
<title>Node5</title>
<g id="a_Node000005"><a xlink:title=" ">
<polygon fill="#e0e0e0" stroke="#999999" points="685,-19 643,-19 643,0 685,0 685,-19"/>
<text text-anchor="middle" x="664" y="-7" font-family="Helvetica,sans-Serif" font-size="10.00">array</text>
</a>
</g>
</g>
<!-- Node3&#45;&gt;Node5 -->
<g id="edge4_Node000003_Node000005" class="edge">
<title>Node3&#45;&gt;Node5</title>
<g id="a_edge4_Node000003_Node000005"><a xlink:title=" ">
<path fill="none" stroke="#63b8ff" d="M767.41,-60.49C747.24,-50.75 713.98,-34.66 690.64,-23.38"/>
<polygon fill="#63b8ff" stroke="#63b8ff" points="692.14,-20.22 681.62,-19.02 689.1,-26.52 692.14,-20.22"/>
</a>
</g>
</g>
<!-- Node6 -->
<g id="Node000006" class="node">
<title>Node6</title>
<g id="a_Node000006"><a xlink:title=" ">
<polygon fill="#e0e0e0" stroke="#999999" points="811.5,-19 758.5,-19 758.5,0 811.5,0 811.5,-19"/>
<text text-anchor="middle" x="785" y="-7" font-family="Helvetica,sans-Serif" font-size="10.00">cstddef</text>
</a>
</g>
</g>
<!-- Node3&#45;&gt;Node6 -->
<g id="edge5_Node000003_Node000006" class="edge">
<title>Node3&#45;&gt;Node6</title>
<g id="a_edge5_Node000003_Node000006"><a xlink:title=" ">
<path fill="none" stroke="#63b8ff" d="M785,-60.37C785,-52.25 785,-39.81 785,-29.39"/>
<polygon fill="#63b8ff" stroke="#63b8ff" points="788.5,-29.17 785,-19.17 781.5,-29.17 788.5,-29.17"/>
</a>
</g>
</g>
<!-- Node7&#45;&gt;Node3 -->
<g id="edge7_Node000007_Node000003" class="edge">
<title>Node7&#45;&gt;Node3</title>
<g id="a_edge7_Node000007_Node000003"><a xlink:title=" ">
<path fill="none" stroke="#63b8ff" d="M643.23,-188.54C646.19,-188 649.15,-187.48 652,-187 710.4,-177.25 877.06,-195.61 916,-151 946.25,-116.35 876.15,-92.05 827.27,-79.91"/>
<polygon fill="#63b8ff" stroke="#63b8ff" points="828.06,-76.49 817.51,-77.57 826.42,-83.3 828.06,-76.49"/>
</a>
</g>
</g>
<!-- Node7&#45;&gt;Node4 -->
<g id="edge12_Node000007_Node000004" class="edge">
<title>Node7&#45;&gt;Node4</title>
<g id="a_edge12_Node000007_Node000004"><a xlink:title=" ">
<path fill="none" stroke="#63b8ff" d="M606.4,-186.94C599.42,-164.51 579,-102.44 553,-55 547.69,-45.32 540.62,-35.27 534.48,-27.18"/>
<polygon fill="#63b8ff" stroke="#63b8ff" points="537.22,-25 528.3,-19.27 531.7,-29.31 537.22,-25"/>
</a>
</g>
</g>
<!-- Node7&#45;&gt;Node5 -->
<g id="edge14_Node000007_Node000005" class="edge">
<title>Node7&#45;&gt;Node5</title>
<g id="a_edge14_Node000007_Node000005"><a xlink:title=" ">
<path fill="none" stroke="#63b8ff" d="M611.04,-186.73C614.34,-172.76 621.16,-144.59 628,-121 637.52,-88.18 650.2,-50.41 657.69,-28.62"/>
<polygon fill="#63b8ff" stroke="#63b8ff" points="661.05,-29.63 661.01,-19.04 654.43,-27.34 661.05,-29.63"/>
</a>
</g>
</g>
<!-- Node8 -->
<g id="Node000008" class="node">
<title>Node8</title>
<g id="a_Node000008"><a xlink:href="../../d4/d64/messages_8hpp.html" target="_top" xlink:title="IEEE 1588&#45;2019 PTP Message Format Structures.">
<polygon fill="white" stroke="#666666" points="750.5,-151 637.5,-151 637.5,-121 750.5,-121 750.5,-151"/>
<text text-anchor="start" x="645.5" y="-139" font-family="Helvetica,sans-Serif" font-size="10.00">IEEE/1588/PTP/2019</text>
<text text-anchor="middle" x="694" y="-128" font-family="Helvetica,sans-Serif" font-size="10.00">/messages.hpp</text>
</a>
</g>
</g>
<!-- Node7&#45;&gt;Node8 -->
<g id="edge8_Node000007_Node000008" class="edge">
<title>Node7&#45;&gt;Node8</title>
<g id="a_edge8_Node000007_Node000008"><a xlink:title=" ">
<path fill="none" stroke="#63b8ff" d="M621.54,-186.87C632.97,-179 650.27,-167.09 665.11,-156.89"/>
<polygon fill="#63b8ff" stroke="#63b8ff" points="667.24,-159.67 673.49,-151.11 663.27,-153.9 667.24,-159.67"/>
</a>
</g>
</g>
<!-- Node7&#45;&gt;Node9 -->
<g id="edge13_Node000007_Node000009" class="edge">
<title>Node7&#45;&gt;Node9</title>
<g id="a_edge13_Node000007_Node000009"><a xlink:title=" ">
<path fill="none" stroke="#63b8ff" d="M643.23,-188.49C646.19,-187.96 649.14,-187.45 652,-187 783.75,-166.05 820.18,-181.73 950,-151 952.66,-150.37 955.4,-149.62 958.12,-148.79"/>
<polygon fill="#63b8ff" stroke="#63b8ff" points="959.41,-152.05 967.8,-145.58 957.21,-145.41 959.41,-152.05"/>
</a>
</g>
</g>
<!-- Node7&#45;&gt;Node10 -->
<g id="edge15_Node000007_Node000010" class="edge">
<title>Node7&#45;&gt;Node10</title>
<g id="a_edge15_Node000007_Node000010"><a xlink:title=" ">
<path fill="none" stroke="#63b8ff" d="M642.3,-186.99C682.58,-176.7 750.48,-159.36 794.77,-148.04"/>
<polygon fill="#63b8ff" stroke="#63b8ff" points="795.84,-151.38 804.66,-145.52 794.11,-144.6 795.84,-151.38"/>
</a>
</g>
</g>
<!-- Node11 -->
<g id="Node000011" class="node">
<title>Node11</title>
<g id="a_Node000011"><a xlink:href="../../d4/d35/fault__injection_8hpp.html" target="_top" xlink:title=" ">
<polygon fill="white" stroke="#666666" points="380,-85 270,-85 270,-55 380,-55 380,-85"/>
<text text-anchor="start" x="278" y="-73" font-family="Helvetica,sans-Serif" font-size="10.00">Common/utils/fault</text>
<text text-anchor="middle" x="325" y="-62" font-family="Helvetica,sans-Serif" font-size="10.00">_injection.hpp</text>
</a>
</g>
</g>
<!-- Node7&#45;&gt;Node11 -->
<g id="edge17_Node000007_Node000011" class="edge">
<title>Node7&#45;&gt;Node11</title>
<g id="a_edge17_Node000007_Node000011"><a xlink:title=" ">
<path fill="none" stroke="#63b8ff" d="M589.48,-186.94C543.8,-166.92 429.12,-116.64 366.83,-89.34"/>
<polygon fill="#63b8ff" stroke="#63b8ff" points="367.87,-85.97 357.3,-85.16 365.06,-92.38 367.87,-85.97"/>
</a>
</g>
</g>
<!-- Node7&#45;&gt;Node13 -->
<g id="edge20_Node000007_Node000013" class="edge">
<title>Node7&#45;&gt;Node13</title>
<g id="a_edge20_Node000007_Node000013"><a xlink:title=" ">
<path fill="none" stroke="#63b8ff" d="M598.53,-186.76C587.95,-177.88 571.19,-163.66 557,-151 532.42,-129.07 504.61,-102.95 487.44,-86.67"/>
<polygon fill="#63b8ff" stroke="#63b8ff" points="489.59,-83.88 479.93,-79.53 484.76,-88.96 489.59,-83.88"/>
</a>
</g>
</g>
<!-- Node7&#45;&gt;Node14 -->
<g id="edge24_Node000007_Node000014" class="edge">
<title>Node7&#45;&gt;Node14</title>
<g id="a_edge24_Node000007_Node000014"><a xlink:title=" ">
<path fill="none" stroke="#63b8ff" d="M574.74,-188.44C525.34,-178.27 433.71,-159.39 376.24,-147.55"/>
<polygon fill="#63b8ff" stroke="#63b8ff" points="376.77,-144.09 366.27,-145.5 375.36,-150.95 376.77,-144.09"/>
</a>
</g>
</g>
<!-- Node15 -->
<g id="Node000015" class="node">
<title>Node15</title>
<g id="a_Node000015"><a xlink:href="../../d8/dfd/config_8hpp.html" target="_top" xlink:title=" ">
<polygon fill="white" stroke="#666666" points="138,-79.5 0,-79.5 0,-60.5 138,-60.5 138,-79.5"/>
<text text-anchor="middle" x="69" y="-67.5" font-family="Helvetica,sans-Serif" font-size="10.00">Common/utils/config.hpp</text>
</a>
</g>
</g>
<!-- Node7&#45;&gt;Node15 -->
<g id="edge29_Node000007_Node000015" class="edge">
<title>Node7&#45;&gt;Node15</title>
<g id="a_edge29_Node000007_Node000015"><a xlink:title=" ">
<path fill="none" stroke="#63b8ff" d="M574.94,-188.65C571.58,-188.05 568.23,-187.49 565,-187 423.96,-165.45 383.57,-188.84 246,-151 188.59,-135.21 126.17,-103.14 92.96,-84.76"/>
<polygon fill="#63b8ff" stroke="#63b8ff" points="94.45,-81.59 84.02,-79.75 91.03,-87.69 94.45,-81.59"/>
</a>
</g>
</g>
<!-- Node8&#45;&gt;Node3 -->
<g id="edge9_Node000008_Node000003" class="edge">
<title>Node8&#45;&gt;Node3</title>
<g id="a_edge9_Node000008_Node000003"><a xlink:title=" ">
<path fill="none" stroke="#63b8ff" d="M714.2,-120.8C729.03,-110.37 749.11,-96.24 764.11,-85.69"/>
<polygon fill="#63b8ff" stroke="#63b8ff" points="766.52,-88.27 772.69,-79.66 762.5,-82.55 766.52,-88.27"/>
</a>
</g>
</g>
<!-- Node8&#45;&gt;Node4 -->
<g id="edge10_Node000008_Node000004" class="edge">
<title>Node8&#45;&gt;Node4</title>
<g id="a_edge10_Node000008_Node000004"><a xlink:title=" ">
<path fill="none" stroke="#63b8ff" d="M675.42,-120.91C654.03,-104.76 617.74,-77.61 586,-55 571.66,-44.78 555.3,-33.59 542.58,-24.98"/>
<polygon fill="#63b8ff" stroke="#63b8ff" points="544.3,-21.91 534.05,-19.22 540.38,-27.72 544.3,-21.91"/>
</a>
</g>
</g>
<!-- Node8&#45;&gt;Node5 -->
<g id="edge11_Node000008_Node000005" class="edge">
<title>Node8&#45;&gt;Node5</title>
<g id="a_edge11_Node000008_Node000005"><a xlink:title=" ">
<path fill="none" stroke="#63b8ff" d="M690.56,-120.72C685.11,-98.12 674.51,-54.12 668.48,-29.09"/>
<polygon fill="#63b8ff" stroke="#63b8ff" points="671.81,-27.97 666.06,-19.07 665.01,-29.61 671.81,-27.97"/>
</a>
</g>
</g>
<!-- Node10&#45;&gt;Node4 -->
<g id="edge16_Node000010_Node000004" class="edge">
<title>Node10&#45;&gt;Node4</title>
<g id="a_edge16_Node000010_Node000004"><a xlink:title=" ">
<path fill="none" stroke="#63b8ff" d="M816.21,-126.44C761.24,-104.85 616.74,-48.1 552.53,-22.88"/>
<polygon fill="#63b8ff" stroke="#63b8ff" points="553.53,-19.52 542.94,-19.12 550.97,-26.03 553.53,-19.52"/>
</a>
</g>
</g>
<!-- Node11&#45;&gt;Node4 -->
<g id="edge19_Node000011_Node000004" class="edge">
<title>Node11&#45;&gt;Node4</title>
<g id="a_edge19_Node000011_Node000004"><a xlink:title=" ">
<path fill="none" stroke="#63b8ff" d="M371.95,-54.99C407.1,-44.5 454.41,-30.37 486.22,-20.88"/>
<polygon fill="#63b8ff" stroke="#63b8ff" points="487.39,-24.18 495.97,-17.97 485.39,-17.48 487.39,-24.18"/>
</a>
</g>
</g>
<!-- Node12 -->
<g id="Node000012" class="node">
<title>Node12</title>
<g id="a_Node000012"><a xlink:title=" ">
<polygon fill="#e0e0e0" stroke="#999999" points="290,-19 240,-19 240,0 290,0 290,-19"/>
<text text-anchor="middle" x="265" y="-7" font-family="Helvetica,sans-Serif" font-size="10.00">atomic</text>
</a>
</g>
</g>
<!-- Node11&#45;&gt;Node12 -->
<g id="edge18_Node000011_Node000012" class="edge">
<title>Node11&#45;&gt;Node12</title>
<g id="a_edge18_Node000011_Node000012"><a xlink:title=" ">
<path fill="none" stroke="#63b8ff" d="M310.48,-54.84C301.68,-46.26 290.43,-35.3 281.33,-26.42"/>
<polygon fill="#63b8ff" stroke="#63b8ff" points="283.59,-23.74 273.99,-19.27 278.71,-28.75 283.59,-23.74"/>
</a>
</g>
</g>
<!-- Node13&#45;&gt;Node4 -->
<g id="edge22_Node000013_Node000004" class="edge">
<title>Node13&#45;&gt;Node4</title>
<g id="a_edge22_Node000013_Node000004"><a xlink:title=" ">
<path fill="none" stroke="#63b8ff" d="M478.38,-60.37C485.91,-51.55 497.79,-37.66 507.09,-26.77"/>
<polygon fill="#63b8ff" stroke="#63b8ff" points="509.76,-29.04 513.59,-19.17 504.43,-24.5 509.76,-29.04"/>
</a>
</g>
</g>
<!-- Node13&#45;&gt;Node5 -->
<g id="edge23_Node000013_Node000005" class="edge">
<title>Node13&#45;&gt;Node5</title>
<g id="a_edge23_Node000013_Node000005"><a xlink:title=" ">
<path fill="none" stroke="#63b8ff" d="M499.06,-60.49C534.71,-49.69 596.02,-31.11 633.01,-19.89"/>
<polygon fill="#63b8ff" stroke="#63b8ff" points="634.2,-23.19 642.75,-16.94 632.17,-16.49 634.2,-23.19"/>
</a>
</g>
</g>
<!-- Node13&#45;&gt;Node12 -->
<g id="edge21_Node000013_Node000012" class="edge">
<title>Node13&#45;&gt;Node12</title>
<g id="a_edge21_Node000013_Node000012"><a xlink:title=" ">
<path fill="none" stroke="#63b8ff" d="M441.05,-60.49C403.58,-49.85 339.54,-31.67 299.89,-20.41"/>
<polygon fill="#63b8ff" stroke="#63b8ff" points="300.71,-17 290.13,-17.64 298.79,-23.74 300.71,-17"/>
</a>
</g>
</g>
<!-- Node14&#45;&gt;Node4 -->
<g id="edge26_Node000014_Node000004" class="edge">
<title>Node14&#45;&gt;Node4</title>
<g id="a_edge26_Node000014_Node000004"><a xlink:title=" ">
<path fill="none" stroke="#63b8ff" d="M309.29,-126.48C284.06,-111.72 239.44,-80.56 261,-55 289.32,-21.42 421.18,-13.18 485.51,-11.16"/>
<polygon fill="#63b8ff" stroke="#63b8ff" points="485.7,-14.65 495.6,-10.87 485.5,-7.66 485.7,-14.65"/>
</a>
</g>
</g>
<!-- Node14&#45;&gt;Node11 -->
<g id="edge28_Node000014_Node000011" class="edge">
<title>Node14&#45;&gt;Node11</title>
<g id="a_edge28_Node000014_Node000011"><a xlink:title=" ">
<path fill="none" stroke="#63b8ff" d="M325,-126.37C325,-118.49 325,-106.45 325,-95.6"/>
<polygon fill="#63b8ff" stroke="#63b8ff" points="328.5,-95.36 325,-85.36 321.5,-95.36 328.5,-95.36"/>
</a>
</g>
</g>
<!-- Node14&#45;&gt;Node12 -->
<g id="edge25_Node000014_Node000012" class="edge">
<title>Node14&#45;&gt;Node12</title>
<g id="a_edge25_Node000014_Node000012"><a xlink:title=" ">
<path fill="none" stroke="#63b8ff" d="M288.42,-126.36C266.78,-119.17 241.12,-106.52 228,-85 216.09,-65.47 233.08,-41.59 247.77,-26.21"/>
<polygon fill="#63b8ff" stroke="#63b8ff" points="250.41,-28.53 255.08,-19.02 245.5,-23.54 250.41,-28.53"/>
</a>
</g>
</g>
<!-- Node14&#45;&gt;Node13 -->
<g id="edge27_Node000014_Node000013" class="edge">
<title>Node14&#45;&gt;Node13</title>
<g id="a_edge27_Node000014_Node000013"><a xlink:title=" ">
<path fill="none" stroke="#63b8ff" d="M344.69,-126.37C369.73,-115.39 413.15,-96.36 441.98,-83.72"/>
<polygon fill="#63b8ff" stroke="#63b8ff" points="443.4,-86.92 451.16,-79.7 440.59,-80.51 443.4,-86.92"/>
</a>
</g>
</g>
<!-- Node15&#45;&gt;Node12 -->
<g id="edge30_Node000015_Node000012" class="edge">
<title>Node15&#45;&gt;Node12</title>
<g id="a_edge30_Node000015_Node000012"><a xlink:title=" ">
<path fill="none" stroke="#63b8ff" d="M97.5,-60.49C132.53,-50.04 191.98,-32.29 229.83,-21"/>
<polygon fill="#63b8ff" stroke="#63b8ff" points="231.31,-24.21 239.89,-18 229.3,-17.5 231.31,-24.21"/>
</a>
</g>
</g>
</g>
</svg>

<g id="navigator" transform="translate(0 0)" fill="#404254">
  <rect fill="#f2f5e9" fill-opacity="0.5" stroke="#606060" stroke-width=".5" x="0" y="0" width="60" height="60"/>
  <use id="zoomplus" xlink:href="#zoomPlus" x="17" y="9" onmousedown="handleZoom(evt,'in')"/>
  <use id="zoomminus" xlink:href="#zoomMin" x="42" y="9" onmousedown="handleZoom(evt,'out')"/>
  <use id="reset" xlink:href="#resetDef" x="30" y="36" onmousedown="handleReset()"/>
   <use id="arrowup" xlink:href="#arrowUp" x="0" y="0" onmousedown="handlePan(0,-1)"/>
  <use id="arrowright" xlink:href="#arrowRight" x="0" y="0" onmousedown="handlePan(1,0)"/>
  <use id="arrowdown" xlink:href="#arrowDown" x="0" y="0" onmousedown="handlePan(0,1)"/>
  <use id="arrowleft" xlink:href="#arrowLeft" x="0" y="0" onmousedown="handlePan(-1,0)"/>
</g>
<svg viewBox="0 0 15 15" width="100%" height="30px" preserveAspectRatio="xMaxYMin meet">
 <g id="arrow_out" transform="scale(0.3 0.3)">
  <a xlink:href="bmca__integration_8cpp__incl_org.svg" target="_base">
   <rect id="button" ry="5" rx="5" y="6" x="6" height="38" width="38"
        fill="#f2f5e9" fill-opacity="0.5" stroke="#606060" stroke-width="1.0"/>
   <path id="arrow"
     d="M 11.500037,31.436501 C 11.940474,20.09759 22.043105,11.32322 32.158766,21.979434 L 37.068811,17.246167 C 37.068811,17.246167 37.088388,32 37.088388,32 L 22.160133,31.978069 C 22.160133,31.978069 26.997745,27.140456 26.997745,27.140456 C 18.528582,18.264221 13.291696,25.230495 11.500037,31.436501 z"
     style="fill:#404040;"/>
  </a>
 </g>
</svg>

<style type='text/css'>
<![CDATA[
[data-mouse-over-selected='false'] { opacity: 0.7; }
[data-mouse-over-selected='true']  { opacity: 1.0; }
]]>
</style>
<script type="application/ecmascript"><![CDATA[
document.addEventListener('DOMContentLoaded', (event) => {
  highlightEdges();
  highlightAdjacentNodes();
});
]]></script>
</svg>
