<?xml version="1.0" encoding="UTF-8" standalone="no"?>
<!DOCTYPE svg PUBLIC "-//W3C//DTD SVG 1.1//EN"
 "http://www.w3.org/Graphics/SVG/1.1/DTD/svg11.dtd">
<!-- Generated by graphviz version 2.43.0 (0)
 -->
<!-- Title: IEEE::_1588::PTP::_2019::SyncBody::validate Pages: 1 -->
<svg width="500pt" height="108pt"
 viewBox="0.00 0.00 500.00 108.00" xmlns="http://www.w3.org/2000/svg" xmlns:xlink="http://www.w3.org/1999/xlink">
<g id="graph0" class="graph" transform="scale(1 1) rotate(0) translate(4 104)">
<title>IEEE::_1588::PTP::_2019::SyncBody::validate</title>
<!-- Node1 -->
<g id="Node000001" class="node">
<title>Node1</title>
<g id="a_Node000001"><a xlink:title="Validate sync message timestamp.">
<polygon fill="#999999" stroke="#666666" points="145,-64.5 0,-64.5 0,-34.5 145,-34.5 145,-64.5"/>
<text text-anchor="start" x="8" y="-52.5" font-family="Helvetica,sans-Serif" font-size="10.00">IEEE::_1588::PTP::</text>
<text text-anchor="middle" x="72.5" y="-41.5" font-family="Helvetica,sans-Serif" font-size="10.00">_2019::SyncBody::validate</text>
</a>
</g>
</g>
<!-- Node2 -->
<g id="Node000002" class="node">
<title>Node2</title>
<g id="a_Node000002"><a xlink:href="../../d4/d6e/structIEEE_1_1__1588_1_1PTP_1_1__2019_1_1Types_1_1Timestamp.html#a5874260dca7c0dc51aac826383452f13" target="_top" xlink:title="Validate timestamp fields.">
<polygon fill="white" stroke="#666666" points="322,-70 181,-70 181,-29 322,-29 322,-70"/>
<text text-anchor="start" x="189" y="-58" font-family="Helvetica,sans-Serif" font-size="10.00">IEEE::_1588::PTP::</text>
<text text-anchor="start" x="189" y="-47" font-family="Helvetica,sans-Serif" font-size="10.00">_2019::Types::Timestamp</text>
<text text-anchor="middle" x="251.5" y="-36" font-family="Helvetica,sans-Serif" font-size="10.00">::validate</text>
</a>
</g>
</g>
<!-- Node1&#45;&gt;Node2 -->
<g id="edge1_Node000001_Node000002" class="edge">
<title>Node1&#45;&gt;Node2</title>
<g id="a_edge1_Node000001_Node000002"><a xlink:title=" ">
<path fill="none" stroke="#63b8ff" d="M145.24,-49.5C153.62,-49.5 162.21,-49.5 170.69,-49.5"/>
<polygon fill="#63b8ff" stroke="#63b8ff" points="170.96,-53 180.96,-49.5 170.96,-46 170.96,-53"/>
</a>
</g>
</g>
<!-- Node3 -->
<g id="Node000003" class="node">
<title>Node3</title>
<g id="a_Node000003"><a xlink:href="../../df/d1f/classIEEE_1_1__1588_1_1PTP_1_1__2019_1_1Types_1_1PTPResult.html#acf151a8e3d48dc72ba72d7793942017f" target="_top" xlink:title="Create error result (alias for failure)">
<polygon fill="white" stroke="#666666" points="492,-100 358,-100 358,-59 492,-59 492,-100"/>
<text text-anchor="start" x="366" y="-88" font-family="Helvetica,sans-Serif" font-size="10.00">IEEE::_1588::PTP::</text>
<text text-anchor="start" x="366" y="-77" font-family="Helvetica,sans-Serif" font-size="10.00">_2019::Types::PTPResult</text>
<text text-anchor="middle" x="425" y="-66" font-family="Helvetica,sans-Serif" font-size="10.00">::makeError</text>
</a>
</g>
</g>
<!-- Node2&#45;&gt;Node3 -->
<g id="edge2_Node000002_Node000003" class="edge">
<title>Node2&#45;&gt;Node3</title>
<g id="a_edge2_Node000002_Node000003"><a xlink:title=" ">
<path fill="none" stroke="#63b8ff" d="M322.26,-61.7C330.72,-63.18 339.4,-64.7 347.95,-66.2"/>
<polygon fill="#63b8ff" stroke="#63b8ff" points="347.45,-69.66 357.91,-67.94 348.66,-62.77 347.45,-69.66"/>
</a>
</g>
</g>
<!-- Node4 -->
<g id="Node000004" class="node">
<title>Node4</title>
<g id="a_Node000004"><a xlink:href="../../df/d1f/classIEEE_1_1__1588_1_1PTP_1_1__2019_1_1Types_1_1PTPResult.html#a873027aad818e35452ddab7583b7a7e5" target="_top" xlink:title="Create successful result (static method)">
<polygon fill="white" stroke="#666666" points="492,-41 358,-41 358,0 492,0 492,-41"/>
<text text-anchor="start" x="366" y="-29" font-family="Helvetica,sans-Serif" font-size="10.00">IEEE::_1588::PTP::</text>
<text text-anchor="start" x="366" y="-18" font-family="Helvetica,sans-Serif" font-size="10.00">_2019::Types::PTPResult</text>
<text text-anchor="middle" x="425" y="-7" font-family="Helvetica,sans-Serif" font-size="10.00">::success</text>
</a>
</g>
</g>
<!-- Node2&#45;&gt;Node4 -->
<g id="edge3_Node000002_Node000004" class="edge">
<title>Node2&#45;&gt;Node4</title>
<g id="a_edge3_Node000002_Node000004"><a xlink:title=" ">
<path fill="none" stroke="#63b8ff" d="M322.26,-37.7C330.72,-36.27 339.4,-34.81 347.95,-33.36"/>
<polygon fill="#63b8ff" stroke="#63b8ff" points="348.63,-36.79 357.91,-31.68 347.46,-29.89 348.63,-36.79"/>
</a>
</g>
</g>
</g>
</svg>
