<?xml version="1.0" encoding="UTF-8" standalone="no"?>
<!DOCTYPE svg PUBLIC "-//W3C//DTD SVG 1.1//EN"
 "http://www.w3.org/Graphics/SVG/1.1/DTD/svg11.dtd">
<!-- Generated by graphviz version 2.43.0 (0)
 -->
<!-- Title: IEEE::_1588::PTP::_2019::RequestUnicastTransmissionTLV Pages: 1 -->
<svg width="211pt" height="113pt"
 viewBox="0.00 0.00 211.00 113.00" xmlns="http://www.w3.org/2000/svg" xmlns:xlink="http://www.w3.org/1999/xlink">
<g id="graph0" class="graph" transform="scale(1 1) rotate(0) translate(4 109)">
<title>IEEE::_1588::PTP::_2019::RequestUnicastTransmissionTLV</title>
<!-- Node1 -->
<g id="Node000001" class="node">
<title>Node1</title>
<g id="a_Node000001"><a xlink:title="REQUEST_UNICAST_TRANSMISSION TLV (IEEE 1588&#45;2019 Section 16.1.4.1)">
<polygon fill="#999999" stroke="transparent" points="203,-105 0,-105 0,0 203,0 203,-105"/>
<text text-anchor="start" x="5.5" y="-92.5" font-family="Helvetica,sans-Serif" font-size="10.00">IEEE::_1588::PTP::</text>
<text text-anchor="start" x="5.5" y="-81.5" font-family="Helvetica,sans-Serif" font-size="10.00">_2019::RequestUnicastTransmissionTLV</text>
<text text-anchor="start" x="22" y="-66.5" font-family="Helvetica,sans-Serif" font-size="10.00">+</text>
<text text-anchor="start" x="52.5" y="-66.5" font-family="Helvetica,sans-Serif" font-size="10.00">messageType</text>
<text text-anchor="start" x="22" y="-51.5" font-family="Helvetica,sans-Serif" font-size="10.00">+</text>
<text text-anchor="start" x="52.5" y="-51.5" font-family="Helvetica,sans-Serif" font-size="10.00">reserved</text>
<text text-anchor="start" x="22" y="-36.5" font-family="Helvetica,sans-Serif" font-size="10.00">+</text>
<text text-anchor="start" x="52.5" y="-36.5" font-family="Helvetica,sans-Serif" font-size="10.00">logInterMessagePeriod</text>
<text text-anchor="start" x="22" y="-21.5" font-family="Helvetica,sans-Serif" font-size="10.00">+</text>
<text text-anchor="start" x="52.5" y="-21.5" font-family="Helvetica,sans-Serif" font-size="10.00">durationField</text>
<text text-anchor="start" x="100" y="-6.5" font-family="Helvetica,sans-Serif" font-size="10.00"> </text>
<polygon fill="#666666" stroke="#666666" points="0.5,-76.5 0.5,-76.5 203.5,-76.5 203.5,-76.5 0.5,-76.5"/>
<polygon fill="#666666" stroke="#666666" points="0.5,-16.5 0.5,-16.5 50.5,-16.5 50.5,-16.5 0.5,-16.5"/>
<polygon fill="#666666" stroke="#666666" points="50.5,-16.5 50.5,-16.5 203.5,-16.5 203.5,-16.5 50.5,-16.5"/>
<polygon fill="none" stroke="#666666" points="0,0 0,-105 203,-105 203,0 0,0"/>
</a>
</g>
</g>
</g>
</svg>
