<?xml version="1.0" encoding="UTF-8" standalone="no"?>
<!DOCTYPE svg PUBLIC "-//W3C//DTD SVG 1.1//EN"
 "http://www.w3.org/Graphics/SVG/1.1/DTD/svg11.dtd">
<!-- Generated by graphviz version 2.43.0 (0)
 -->
<!-- Title: /home/runner/work/IEEE_1588_2019/IEEE_1588_2019/include/IEEE/1588/PTP/2019/bmca_integration.hpp Pages: 1 -->
<svg width="995pt" height="302pt"
 viewBox="0.00 0.00 994.50 302.00" xmlns="http://www.w3.org/2000/svg" xmlns:xlink="http://www.w3.org/1999/xlink">
<g id="graph0" class="graph" transform="scale(1 1) rotate(0) translate(4 298)">
<title>/home/runner/work/IEEE_1588_2019/IEEE_1588_2019/include/IEEE/1588/PTP/2019/bmca_integration.hpp</title>
<!-- Node1 -->
<g id="Node000001" class="node">
<title>Node1</title>
<g id="a_Node000001"><a xlink:title="BMCA Runtime Integration Coordinator.">
<polygon fill="#999999" stroke="#666666" points="727.5,-294 569.5,-294 569.5,-242 727.5,-242 727.5,-294"/>
<text text-anchor="start" x="577.5" y="-282" font-family="Helvetica,sans-Serif" font-size="10.00">/home/runner/work/IEEE</text>
<text text-anchor="start" x="577.5" y="-271" font-family="Helvetica,sans-Serif" font-size="10.00">_1588_2019/IEEE_1588_2019</text>
<text text-anchor="start" x="577.5" y="-260" font-family="Helvetica,sans-Serif" font-size="10.00">/include/IEEE/1588/PTP/2019</text>
<text text-anchor="middle" x="648.5" y="-249" font-family="Helvetica,sans-Serif" font-size="10.00">/bmca_integration.hpp</text>
</a>
</g>
</g>
<!-- Node2 -->
<g id="Node000002" class="node">
<title>Node2</title>
<g id="a_Node000002"><a xlink:href="../../dd/de3/types_8hpp.html" target="_top" xlink:title="IEEE 1588&#45;2019 PTP v2.1 fundamental data types and constants.">
<polygon fill="white" stroke="#666666" points="65,-79.5 0,-79.5 0,-60.5 65,-60.5 65,-79.5"/>
<text text-anchor="middle" x="32.5" y="-67.5" font-family="Helvetica,sans-Serif" font-size="10.00">types.hpp</text>
</a>
</g>
</g>
<!-- Node1&#45;&gt;Node2 -->
<g id="edge1_Node000001_Node000002" class="edge">
<title>Node1&#45;&gt;Node2</title>
<g id="a_edge1_Node000001_Node000002"><a xlink:title=" ">
<path fill="none" stroke="#63b8ff" d="M569.38,-263.2C421.53,-254.36 111.89,-227.02 41.5,-151 26.4,-134.69 26.59,-107.78 28.89,-89.73"/>
<polygon fill="#63b8ff" stroke="#63b8ff" points="32.36,-90.24 30.49,-79.81 25.45,-89.13 32.36,-90.24"/>
</a>
</g>
</g>
<!-- Node3 -->
<g id="Node000003" class="node">
<title>Node3</title>
<g id="a_Node000003"><a xlink:title=" ">
<polygon fill="#e0e0e0" stroke="#999999" points="458.5,-19 408.5,-19 408.5,0 458.5,0 458.5,-19"/>
<text text-anchor="middle" x="433.5" y="-7" font-family="Helvetica,sans-Serif" font-size="10.00">cstdint</text>
</a>
</g>
</g>
<!-- Node1&#45;&gt;Node3 -->
<g id="edge35_Node000001_Node000003" class="edge">
<title>Node1&#45;&gt;Node3</title>
<g id="a_edge35_Node000001_Node000003"><a xlink:title=" ">
<path fill="none" stroke="#63b8ff" d="M619.07,-241.85C581.5,-208.67 516.03,-147.17 471.5,-85 458.72,-67.16 447.79,-44.42 440.97,-28.78"/>
<polygon fill="#63b8ff" stroke="#63b8ff" points="444.06,-27.09 436.94,-19.24 437.61,-29.81 444.06,-27.09"/>
</a>
</g>
</g>
<!-- Node6 -->
<g id="Node000006" class="node">
<title>Node6</title>
<g id="a_Node000006"><a xlink:href="../../dd/dc5/clocks_8hpp.html" target="_top" xlink:title="IEEE 1588&#45;2019 PTP Clock State Machines Implementation.">
<polygon fill="white" stroke="#666666" points="451.5,-206 383.5,-206 383.5,-187 451.5,-187 451.5,-206"/>
<text text-anchor="middle" x="417.5" y="-194" font-family="Helvetica,sans-Serif" font-size="10.00">clocks.hpp</text>
</a>
</g>
</g>
<!-- Node1&#45;&gt;Node6 -->
<g id="edge5_Node000001_Node000006" class="edge">
<title>Node1&#45;&gt;Node6</title>
<g id="a_edge5_Node000001_Node000006"><a xlink:title=" ">
<path fill="none" stroke="#63b8ff" d="M569.33,-243.18C530.96,-231.63 486.63,-218.3 455.82,-209.03"/>
<polygon fill="#63b8ff" stroke="#63b8ff" points="456.5,-205.58 445.91,-206.05 454.48,-212.28 456.5,-205.58"/>
</a>
</g>
</g>
<!-- Node12 -->
<g id="Node000012" class="node">
<title>Node12</title>
<g id="a_Node000012"><a xlink:href="../../d4/d44/metrics_8hpp.html" target="_top" xlink:title=" ">
<polygon fill="white" stroke="#666666" points="626.5,-79.5 480.5,-79.5 480.5,-60.5 626.5,-60.5 626.5,-79.5"/>
<text text-anchor="middle" x="553.5" y="-67.5" font-family="Helvetica,sans-Serif" font-size="10.00">Common/utils/metrics.hpp</text>
</a>
</g>
</g>
<!-- Node1&#45;&gt;Node12 -->
<g id="edge31_Node000001_Node000012" class="edge">
<title>Node1&#45;&gt;Node12</title>
<g id="a_edge31_Node000001_Node000012"><a xlink:title=" ">
<path fill="none" stroke="#63b8ff" d="M636.27,-241.78C616.75,-201.5 579.02,-123.65 562.09,-88.72"/>
<polygon fill="#63b8ff" stroke="#63b8ff" points="565.23,-87.18 557.72,-79.71 558.93,-90.23 565.23,-87.18"/>
</a>
</g>
</g>
<!-- Node13 -->
<g id="Node000013" class="node">
<title>Node13</title>
<g id="a_Node000013"><a xlink:href="../../de/d18/health_8hpp.html" target="_top" xlink:title=" ">
<polygon fill="white" stroke="#666666" points="797.5,-145.5 657.5,-145.5 657.5,-126.5 797.5,-126.5 797.5,-145.5"/>
<text text-anchor="middle" x="727.5" y="-133.5" font-family="Helvetica,sans-Serif" font-size="10.00">Common/utils/health.hpp</text>
</a>
</g>
</g>
<!-- Node1&#45;&gt;Node13 -->
<g id="edge30_Node000001_Node000013" class="edge">
<title>Node1&#45;&gt;Node13</title>
<g id="a_edge30_Node000001_Node000013"><a xlink:title=" ">
<path fill="none" stroke="#63b8ff" d="M659.09,-241.73C666.26,-225.6 676.43,-204.5 687.5,-187 694.96,-175.2 704.73,-162.95 712.74,-153.53"/>
<polygon fill="#63b8ff" stroke="#63b8ff" points="715.57,-155.61 719.49,-145.76 710.29,-151.01 715.57,-155.61"/>
</a>
</g>
</g>
<!-- Node15 -->
<g id="Node000015" class="node">
<title>Node15</title>
<g id="a_Node000015"><a xlink:title=" ">
<polygon fill="#e0e0e0" stroke="#999999" points="761,-206 696,-206 696,-187 761,-187 761,-206"/>
<text text-anchor="middle" x="728.5" y="-194" font-family="Helvetica,sans-Serif" font-size="10.00">functional</text>
</a>
</g>
</g>
<!-- Node1&#45;&gt;Node15 -->
<g id="edge32_Node000001_Node000015" class="edge">
<title>Node1&#45;&gt;Node15</title>
<g id="a_edge32_Node000001_Node000015"><a xlink:title=" ">
<path fill="none" stroke="#63b8ff" d="M677.38,-241.91C688.46,-232.29 700.77,-221.59 710.54,-213.11"/>
<polygon fill="#63b8ff" stroke="#63b8ff" points="713.11,-215.5 718.37,-206.3 708.52,-210.22 713.11,-215.5"/>
</a>
</g>
</g>
<!-- Node16 -->
<g id="Node000016" class="node">
<title>Node16</title>
<g id="a_Node000016"><a xlink:title=" ">
<polygon fill="#e0e0e0" stroke="#999999" points="837.5,-206 779.5,-206 779.5,-187 837.5,-187 837.5,-206"/>
<text text-anchor="middle" x="808.5" y="-194" font-family="Helvetica,sans-Serif" font-size="10.00">memory</text>
</a>
</g>
</g>
<!-- Node1&#45;&gt;Node16 -->
<g id="edge33_Node000001_Node000016" class="edge">
<title>Node1&#45;&gt;Node16</title>
<g id="a_edge33_Node000001_Node000016"><a xlink:title=" ">
<path fill="none" stroke="#63b8ff" d="M706.26,-241.91C731.03,-231.15 758.89,-219.05 779.27,-210.2"/>
<polygon fill="#63b8ff" stroke="#63b8ff" points="780.84,-213.33 788.62,-206.14 778.05,-206.91 780.84,-213.33"/>
</a>
</g>
</g>
<!-- Node17 -->
<g id="Node000017" class="node">
<title>Node17</title>
<g id="a_Node000017"><a xlink:title=" ">
<polygon fill="#e0e0e0" stroke="#999999" points="899.5,-206 855.5,-206 855.5,-187 899.5,-187 899.5,-206"/>
<text text-anchor="middle" x="877.5" y="-194" font-family="Helvetica,sans-Serif" font-size="10.00">string</text>
</a>
</g>
</g>
<!-- Node1&#45;&gt;Node17 -->
<g id="edge34_Node000001_Node000017" class="edge">
<title>Node1&#45;&gt;Node17</title>
<g id="a_edge34_Node000001_Node000017"><a xlink:title=" ">
<path fill="none" stroke="#63b8ff" d="M727.63,-242.98C768.17,-230.68 815.26,-216.39 845.68,-207.16"/>
<polygon fill="#63b8ff" stroke="#63b8ff" points="846.77,-210.48 855.32,-204.23 844.74,-203.79 846.77,-210.48"/>
</a>
</g>
</g>
<!-- Node2&#45;&gt;Node3 -->
<g id="edge2_Node000002_Node000003" class="edge">
<title>Node2&#45;&gt;Node3</title>
<g id="a_edge2_Node000002_Node000003"><a xlink:title=" ">
<path fill="none" stroke="#63b8ff" d="M65.32,-64.21C139.81,-53.34 321.19,-26.88 398.1,-15.66"/>
<polygon fill="#63b8ff" stroke="#63b8ff" points="398.84,-19.09 408.23,-14.19 397.83,-12.17 398.84,-19.09"/>
</a>
</g>
</g>
<!-- Node4 -->
<g id="Node000004" class="node">
<title>Node4</title>
<g id="a_Node000004"><a xlink:title=" ">
<polygon fill="#e0e0e0" stroke="#999999" points="142.5,-19 100.5,-19 100.5,0 142.5,0 142.5,-19"/>
<text text-anchor="middle" x="121.5" y="-7" font-family="Helvetica,sans-Serif" font-size="10.00">array</text>
</a>
</g>
</g>
<!-- Node2&#45;&gt;Node4 -->
<g id="edge3_Node000002_Node000004" class="edge">
<title>Node2&#45;&gt;Node4</title>
<g id="a_edge3_Node000002_Node000004"><a xlink:title=" ">
<path fill="none" stroke="#63b8ff" d="M45.63,-60.37C59.83,-51.04 82.7,-36.01 99.62,-24.88"/>
<polygon fill="#63b8ff" stroke="#63b8ff" points="101.88,-27.58 108.31,-19.17 98.03,-21.74 101.88,-27.58"/>
</a>
</g>
</g>
<!-- Node5 -->
<g id="Node000005" class="node">
<title>Node5</title>
<g id="a_Node000005"><a xlink:title=" ">
<polygon fill="#e0e0e0" stroke="#999999" points="59,-19 6,-19 6,0 59,0 59,-19"/>
<text text-anchor="middle" x="32.5" y="-7" font-family="Helvetica,sans-Serif" font-size="10.00">cstddef</text>
</a>
</g>
</g>
<!-- Node2&#45;&gt;Node5 -->
<g id="edge4_Node000002_Node000005" class="edge">
<title>Node2&#45;&gt;Node5</title>
<g id="a_edge4_Node000002_Node000005"><a xlink:title=" ">
<path fill="none" stroke="#63b8ff" d="M32.5,-60.37C32.5,-52.25 32.5,-39.81 32.5,-29.39"/>
<polygon fill="#63b8ff" stroke="#63b8ff" points="36,-29.17 32.5,-19.17 29,-29.17 36,-29.17"/>
</a>
</g>
</g>
<!-- Node6&#45;&gt;Node2 -->
<g id="edge6_Node000006_Node000002" class="edge">
<title>Node6&#45;&gt;Node2</title>
<g id="a_edge6_Node000006_Node000002"><a xlink:title=" ">
<path fill="none" stroke="#63b8ff" d="M383.38,-195.34C305.38,-194.31 116.91,-187.97 67.5,-151 47.91,-136.34 39.11,-108.36 35.28,-89.69"/>
<polygon fill="#63b8ff" stroke="#63b8ff" points="38.7,-88.94 33.52,-79.7 31.81,-90.16 38.7,-88.94"/>
</a>
</g>
</g>
<!-- Node6&#45;&gt;Node3 -->
<g id="edge11_Node000006_Node000003" class="edge">
<title>Node6&#45;&gt;Node3</title>
<g id="a_edge11_Node000006_Node000003"><a xlink:title=" ">
<path fill="none" stroke="#63b8ff" d="M387.23,-186.92C369.66,-180.21 348.98,-168.94 338.5,-151 331.77,-139.49 333.86,-133.5 338.5,-121 353.54,-80.44 390.87,-44.76 414.01,-25.54"/>
<polygon fill="#63b8ff" stroke="#63b8ff" points="416.25,-28.23 421.82,-19.23 411.85,-22.79 416.25,-28.23"/>
</a>
</g>
</g>
<!-- Node6&#45;&gt;Node4 -->
<g id="edge13_Node000006_Node000004" class="edge">
<title>Node6&#45;&gt;Node4</title>
<g id="a_edge13_Node000006_Node000004"><a xlink:title=" ">
<path fill="none" stroke="#63b8ff" d="M383.31,-196.07C309.07,-196.49 136.87,-192.83 100.5,-151 70.25,-116.2 95.38,-57.3 111.14,-28.05"/>
<polygon fill="#63b8ff" stroke="#63b8ff" points="114.36,-29.47 116.22,-19.03 108.26,-26.03 114.36,-29.47"/>
</a>
</g>
</g>
<!-- Node7 -->
<g id="Node000007" class="node">
<title>Node7</title>
<g id="a_Node000007"><a xlink:href="../../d4/d64/messages_8hpp.html" target="_top" xlink:title="IEEE 1588&#45;2019 PTP Message Format Structures.">
<polygon fill="white" stroke="#666666" points="223,-151 110,-151 110,-121 223,-121 223,-151"/>
<text text-anchor="start" x="118" y="-139" font-family="Helvetica,sans-Serif" font-size="10.00">IEEE/1588/PTP/2019</text>
<text text-anchor="middle" x="166.5" y="-128" font-family="Helvetica,sans-Serif" font-size="10.00">/messages.hpp</text>
</a>
</g>
</g>
<!-- Node6&#45;&gt;Node7 -->
<g id="edge7_Node000006_Node000007" class="edge">
<title>Node6&#45;&gt;Node7</title>
<g id="a_edge7_Node000006_Node000007"><a xlink:title=" ">
<path fill="none" stroke="#63b8ff" d="M383.39,-187.55C344.89,-178.58 281.33,-163.76 232.95,-152.49"/>
<polygon fill="#63b8ff" stroke="#63b8ff" points="233.71,-149.07 223.18,-150.21 232.12,-155.89 233.71,-149.07"/>
</a>
</g>
</g>
<!-- Node8 -->
<g id="Node000008" class="node">
<title>Node8</title>
<g id="a_Node000008"><a xlink:title=" ">
<polygon fill="#e0e0e0" stroke="#999999" points="291.5,-145.5 241.5,-145.5 241.5,-126.5 291.5,-126.5 291.5,-145.5"/>
<text text-anchor="middle" x="266.5" y="-133.5" font-family="Helvetica,sans-Serif" font-size="10.00">cstring</text>
</a>
</g>
</g>
<!-- Node6&#45;&gt;Node8 -->
<g id="edge12_Node000006_Node000008" class="edge">
<title>Node6&#45;&gt;Node8</title>
<g id="a_edge12_Node000006_Node000008"><a xlink:title=" ">
<path fill="none" stroke="#63b8ff" d="M395.54,-186.99C369.82,-177.03 327.02,-160.45 297.82,-149.13"/>
<polygon fill="#63b8ff" stroke="#63b8ff" points="299.07,-145.87 288.48,-145.52 296.54,-152.39 299.07,-145.87"/>
</a>
</g>
</g>
<!-- Node9 -->
<g id="Node000009" class="node">
<title>Node9</title>
<g id="a_Node000009"><a xlink:href="../../d6/da3/logger_8hpp.html" target="_top" xlink:title=" ">
<polygon fill="white" stroke="#666666" points="487,-145.5 348,-145.5 348,-126.5 487,-126.5 487,-145.5"/>
<text text-anchor="middle" x="417.5" y="-133.5" font-family="Helvetica,sans-Serif" font-size="10.00">Common/utils/logger.hpp</text>
</a>
</g>
</g>
<!-- Node6&#45;&gt;Node9 -->
<g id="edge14_Node000006_Node000009" class="edge">
<title>Node6&#45;&gt;Node9</title>
<g id="a_edge14_Node000006_Node000009"><a xlink:title=" ">
<path fill="none" stroke="#63b8ff" d="M417.5,-186.87C417.5,-178.75 417.5,-166.31 417.5,-155.89"/>
<polygon fill="#63b8ff" stroke="#63b8ff" points="421,-155.67 417.5,-145.67 414,-155.67 421,-155.67"/>
</a>
</g>
</g>
<!-- Node10 -->
<g id="Node000010" class="node">
<title>Node10</title>
<g id="a_Node000010"><a xlink:href="../../d4/d35/fault__injection_8hpp.html" target="_top" xlink:title=" ">
<polygon fill="white" stroke="#666666" points="792.5,-85 682.5,-85 682.5,-55 792.5,-55 792.5,-85"/>
<text text-anchor="start" x="690.5" y="-73" font-family="Helvetica,sans-Serif" font-size="10.00">Common/utils/fault</text>
<text text-anchor="middle" x="737.5" y="-62" font-family="Helvetica,sans-Serif" font-size="10.00">_injection.hpp</text>
</a>
</g>
</g>
<!-- Node6&#45;&gt;Node10 -->
<g id="edge16_Node000006_Node000010" class="edge">
<title>Node6&#45;&gt;Node10</title>
<g id="a_edge16_Node000006_Node000010"><a xlink:title=" ">
<path fill="none" stroke="#63b8ff" d="M439.49,-186.94C491.35,-166.77 622.12,-115.89 691.93,-88.73"/>
<polygon fill="#63b8ff" stroke="#63b8ff" points="693.31,-91.95 701.36,-85.06 690.78,-85.42 693.31,-91.95"/>
</a>
</g>
</g>
<!-- Node6&#45;&gt;Node12 -->
<g id="edge19_Node000006_Node000012" class="edge">
<title>Node6&#45;&gt;Node12</title>
<g id="a_edge19_Node000006_Node000012"><a xlink:title=" ">
<path fill="none" stroke="#63b8ff" d="M437.59,-186.96C454.3,-179.21 478.09,-166.61 495.5,-151 515.89,-132.71 533.41,-106.12 543.7,-88.69"/>
<polygon fill="#63b8ff" stroke="#63b8ff" points="546.97,-90.04 548.9,-79.62 540.89,-86.56 546.97,-90.04"/>
</a>
</g>
</g>
<!-- Node6&#45;&gt;Node13 -->
<g id="edge23_Node000006_Node000013" class="edge">
<title>Node6&#45;&gt;Node13</title>
<g id="a_edge23_Node000006_Node000013"><a xlink:title=" ">
<path fill="none" stroke="#63b8ff" d="M451.56,-189.07C504.86,-179.01 608.48,-159.46 672.47,-147.39"/>
<polygon fill="#63b8ff" stroke="#63b8ff" points="673.21,-150.81 682.38,-145.51 671.91,-143.93 673.21,-150.81"/>
</a>
</g>
</g>
<!-- Node14 -->
<g id="Node000014" class="node">
<title>Node14</title>
<g id="a_Node000014"><a xlink:href="../../d8/dfd/config_8hpp.html" target="_top" xlink:title=" ">
<polygon fill="white" stroke="#666666" points="986.5,-79.5 848.5,-79.5 848.5,-60.5 986.5,-60.5 986.5,-79.5"/>
<text text-anchor="middle" x="917.5" y="-67.5" font-family="Helvetica,sans-Serif" font-size="10.00">Common/utils/config.hpp</text>
</a>
</g>
</g>
<!-- Node6&#45;&gt;Node14 -->
<g id="edge28_Node000006_Node000014" class="edge">
<title>Node6&#45;&gt;Node14</title>
<g id="a_edge28_Node000006_Node000014"><a xlink:title=" ">
<path fill="none" stroke="#63b8ff" d="M451.73,-193.8C534.23,-189.36 742,-175.96 806.5,-151 844.47,-136.31 881.35,-105.43 901.58,-86.63"/>
<polygon fill="#63b8ff" stroke="#63b8ff" points="904.12,-89.04 908.95,-79.61 899.3,-83.97 904.12,-89.04"/>
</a>
</g>
</g>
<!-- Node7&#45;&gt;Node2 -->
<g id="edge8_Node000007_Node000002" class="edge">
<title>Node7&#45;&gt;Node2</title>
<g id="a_edge8_Node000007_Node000002"><a xlink:title=" ">
<path fill="none" stroke="#63b8ff" d="M137.09,-120.95C114.01,-109.93 82.12,-94.7 59.64,-83.96"/>
<polygon fill="#63b8ff" stroke="#63b8ff" points="60.87,-80.67 50.33,-79.52 57.85,-86.99 60.87,-80.67"/>
</a>
</g>
</g>
<!-- Node7&#45;&gt;Node3 -->
<g id="edge9_Node000007_Node000003" class="edge">
<title>Node7&#45;&gt;Node3</title>
<g id="a_edge9_Node000007_Node000003"><a xlink:title=" ">
<path fill="none" stroke="#63b8ff" d="M187.97,-120.94C214.72,-103.83 262.19,-74.78 305.5,-55 336.11,-41.02 372.46,-28.77 398.6,-20.68"/>
<polygon fill="#63b8ff" stroke="#63b8ff" points="399.88,-23.95 408.42,-17.69 397.84,-17.26 399.88,-23.95"/>
</a>
</g>
</g>
<!-- Node7&#45;&gt;Node4 -->
<g id="edge10_Node000007_Node000004" class="edge">
<title>Node7&#45;&gt;Node4</title>
<g id="a_edge10_Node000007_Node000004"><a xlink:title=" ">
<path fill="none" stroke="#63b8ff" d="M161.34,-120.72C153.13,-98.02 137.12,-53.72 128.1,-28.75"/>
<polygon fill="#63b8ff" stroke="#63b8ff" points="131.29,-27.28 124.6,-19.07 124.71,-29.66 131.29,-27.28"/>
</a>
</g>
</g>
<!-- Node9&#45;&gt;Node3 -->
<g id="edge15_Node000009_Node000003" class="edge">
<title>Node9&#45;&gt;Node3</title>
<g id="a_edge15_Node000009_Node000003"><a xlink:title=" ">
<path fill="none" stroke="#63b8ff" d="M418.6,-126.44C421.16,-106.54 427.55,-56.76 431.08,-29.35"/>
<polygon fill="#63b8ff" stroke="#63b8ff" points="434.59,-29.48 432.39,-19.12 427.65,-28.59 434.59,-29.48"/>
</a>
</g>
</g>
<!-- Node10&#45;&gt;Node3 -->
<g id="edge18_Node000010_Node000003" class="edge">
<title>Node10&#45;&gt;Node3</title>
<g id="a_edge18_Node000010_Node000003"><a xlink:title=" ">
<path fill="none" stroke="#63b8ff" d="M682.15,-57.7C677.53,-56.78 672.94,-55.87 668.5,-55 597.62,-41.1 514.56,-25.54 468.6,-17"/>
<polygon fill="#63b8ff" stroke="#63b8ff" points="469.03,-13.52 458.56,-15.13 467.75,-20.4 469.03,-13.52"/>
</a>
</g>
</g>
<!-- Node11 -->
<g id="Node000011" class="node">
<title>Node11</title>
<g id="a_Node000011"><a xlink:title=" ">
<polygon fill="#e0e0e0" stroke="#999999" points="803.5,-19 753.5,-19 753.5,0 803.5,0 803.5,-19"/>
<text text-anchor="middle" x="778.5" y="-7" font-family="Helvetica,sans-Serif" font-size="10.00">atomic</text>
</a>
</g>
</g>
<!-- Node10&#45;&gt;Node11 -->
<g id="edge17_Node000010_Node000011" class="edge">
<title>Node10&#45;&gt;Node11</title>
<g id="a_edge17_Node000010_Node000011"><a xlink:title=" ">
<path fill="none" stroke="#63b8ff" d="M747.42,-54.84C753.19,-46.61 760.5,-36.18 766.58,-27.51"/>
<polygon fill="#63b8ff" stroke="#63b8ff" points="769.48,-29.46 772.36,-19.27 763.75,-25.45 769.48,-29.46"/>
</a>
</g>
</g>
<!-- Node12&#45;&gt;Node3 -->
<g id="edge21_Node000012_Node000003" class="edge">
<title>Node12&#45;&gt;Node3</title>
<g id="a_edge21_Node000012_Node000003"><a xlink:title=" ">
<path fill="none" stroke="#63b8ff" d="M536.05,-60.49C516.14,-50.79 483.36,-34.81 460.23,-23.53"/>
<polygon fill="#63b8ff" stroke="#63b8ff" points="461.49,-20.25 450.97,-19.02 458.43,-26.54 461.49,-20.25"/>
</a>
</g>
</g>
<!-- Node12&#45;&gt;Node4 -->
<g id="edge22_Node000012_Node000004" class="edge">
<title>Node12&#45;&gt;Node4</title>
<g id="a_edge22_Node000012_Node000004"><a xlink:title=" ">
<path fill="none" stroke="#63b8ff" d="M490.68,-60.49C396.75,-47.77 223.19,-24.27 152.59,-14.71"/>
<polygon fill="#63b8ff" stroke="#63b8ff" points="152.94,-11.23 142.56,-13.35 152,-18.16 152.94,-11.23"/>
</a>
</g>
</g>
<!-- Node12&#45;&gt;Node11 -->
<g id="edge20_Node000012_Node000011" class="edge">
<title>Node12&#45;&gt;Node11</title>
<g id="a_edge20_Node000012_Node000011"><a xlink:title=" ">
<path fill="none" stroke="#63b8ff" d="M586.22,-60.49C628.19,-49.58 700.7,-30.73 743.67,-19.56"/>
<polygon fill="#63b8ff" stroke="#63b8ff" points="744.6,-22.93 753.4,-17.03 742.84,-16.15 744.6,-22.93"/>
</a>
</g>
</g>
<!-- Node13&#45;&gt;Node3 -->
<g id="edge25_Node000013_Node000003" class="edge">
<title>Node13&#45;&gt;Node3</title>
<g id="a_edge25_Node000013_Node000003"><a xlink:title=" ">
<path fill="none" stroke="#63b8ff" d="M718.22,-126.46C696.81,-106.84 645.05,-59.81 635.5,-55 581.24,-27.69 510.48,-17.04 468.73,-12.96"/>
<polygon fill="#63b8ff" stroke="#63b8ff" points="469.04,-9.47 458.76,-12.06 468.41,-16.45 469.04,-9.47"/>
</a>
</g>
</g>
<!-- Node13&#45;&gt;Node10 -->
<g id="edge27_Node000013_Node000010" class="edge">
<title>Node13&#45;&gt;Node10</title>
<g id="a_edge27_Node000013_Node000010"><a xlink:title=" ">
<path fill="none" stroke="#63b8ff" d="M728.85,-126.37C730.09,-118.4 732,-106.2 733.71,-95.27"/>
<polygon fill="#63b8ff" stroke="#63b8ff" points="737.17,-95.78 735.26,-85.36 730.25,-94.7 737.17,-95.78"/>
</a>
</g>
</g>
<!-- Node13&#45;&gt;Node11 -->
<g id="edge24_Node000013_Node000011" class="edge">
<title>Node13&#45;&gt;Node11</title>
<g id="a_edge24_Node000013_Node000011"><a xlink:title=" ">
<path fill="none" stroke="#63b8ff" d="M750.51,-126.47C768,-118.63 790.81,-105.13 801.5,-85 811.28,-66.59 800.97,-43.36 791.2,-27.78"/>
<polygon fill="#63b8ff" stroke="#63b8ff" points="793.87,-25.49 785.37,-19.18 788.08,-29.42 793.87,-25.49"/>
</a>
</g>
</g>
<!-- Node13&#45;&gt;Node12 -->
<g id="edge26_Node000013_Node000012" class="edge">
<title>Node13&#45;&gt;Node12</title>
<g id="a_edge26_Node000013_Node000012"><a xlink:title=" ">
<path fill="none" stroke="#63b8ff" d="M704.03,-126.37C673.72,-115.22 620.79,-95.75 586.46,-83.12"/>
<polygon fill="#63b8ff" stroke="#63b8ff" points="587.47,-79.76 576.87,-79.6 585.05,-86.33 587.47,-79.76"/>
</a>
</g>
</g>
<!-- Node14&#45;&gt;Node11 -->
<g id="edge29_Node000014_Node000011" class="edge">
<title>Node14&#45;&gt;Node11</title>
<g id="a_edge29_Node000014_Node000011"><a xlink:title=" ">
<path fill="none" stroke="#63b8ff" d="M897.29,-60.49C873.82,-50.62 834.89,-34.23 808.04,-22.93"/>
<polygon fill="#63b8ff" stroke="#63b8ff" points="809.31,-19.67 798.74,-19.02 806.6,-26.12 809.31,-19.67"/>
</a>
</g>
</g>
</g>
</svg>
