<?xml version="1.0" encoding="UTF-8" standalone="no"?>
<!DOCTYPE svg PUBLIC "-//W3C//DTD SVG 1.1//EN"
 "http://www.w3.org/Graphics/SVG/1.1/DTD/svg11.dtd">
<!-- Generated by graphviz version 2.43.0 (0)
 -->
<!-- Title: /home/runner/work/IEEE_1588_2019/IEEE_1588_2019/include/IEEE/1588/PTP/2019/types.hpp Pages: 1 -->
<svg width="1153pt" height="489pt"
 viewBox="0.00 0.00 1153.00 489.00" xmlns="http://www.w3.org/2000/svg" xmlns:xlink="http://www.w3.org/1999/xlink">
<g id="graph0" class="graph" transform="scale(1 1) rotate(0) translate(4 485)">
<title>/home/runner/work/IEEE_1588_2019/IEEE_1588_2019/include/IEEE/1588/PTP/2019/types.hpp</title>
<!-- Node1 -->
<g id="Node000001" class="node">
<title>Node1</title>
<g id="a_Node000001"><a xlink:title="IEEE 1588&#45;2019 PTP v2.1 fundamental data types and constants.">
<polygon fill="#999999" stroke="#666666" points="712,-481 554,-481 554,-429 712,-429 712,-481"/>
<text text-anchor="start" x="562" y="-469" font-family="Helvetica,sans-Serif" font-size="10.00">/home/runner/work/IEEE</text>
<text text-anchor="start" x="562" y="-458" font-family="Helvetica,sans-Serif" font-size="10.00">_1588_2019/IEEE_1588_2019</text>
<text text-anchor="start" x="562" y="-447" font-family="Helvetica,sans-Serif" font-size="10.00">/include/IEEE/1588/PTP/2019</text>
<text text-anchor="middle" x="633" y="-436" font-family="Helvetica,sans-Serif" font-size="10.00">/types.hpp</text>
</a>
</g>
</g>
<!-- Node2 -->
<g id="Node000002" class="node">
<title>Node2</title>
<g id="a_Node000002"><a xlink:href="../../d4/dbb/bmca__integration_8hpp.html" target="_top" xlink:title="BMCA Runtime Integration Coordinator.">
<polygon fill="white" stroke="#666666" points="196,-228 38,-228 38,-176 196,-176 196,-228"/>
<text text-anchor="start" x="46" y="-216" font-family="Helvetica,sans-Serif" font-size="10.00">/home/runner/work/IEEE</text>
<text text-anchor="start" x="46" y="-205" font-family="Helvetica,sans-Serif" font-size="10.00">_1588_2019/IEEE_1588_2019</text>
<text text-anchor="start" x="46" y="-194" font-family="Helvetica,sans-Serif" font-size="10.00">/include/IEEE/1588/PTP/2019</text>
<text text-anchor="middle" x="117" y="-183" font-family="Helvetica,sans-Serif" font-size="10.00">/bmca_integration.hpp</text>
</a>
</g>
</g>
<!-- Node1&#45;&gt;Node2 -->
<g id="edge1_Node000001_Node000002" class="edge">
<title>Node1&#45;&gt;Node2</title>
<g id="a_edge1_Node000001_Node000002"><a xlink:title=" ">
<path fill="none" stroke="#63b8ff" d="M544.13,-429.39C512.3,-419.48 476.53,-407.06 445,-393 334.71,-343.83 214,-267.53 154.48,-228.25"/>
<polygon fill="#63b8ff" stroke="#63b8ff" points="543.28,-432.79 553.86,-432.39 545.33,-426.1 543.28,-432.79"/>
</a>
</g>
</g>
<!-- Node3 -->
<g id="Node000003" class="node">
<title>Node3</title>
<g id="a_Node000003"><a xlink:href="../../de/d83/message__flow__integration_8hpp.html" target="_top" xlink:title="IEEE 1588&#45;2019 Message Flow Integration Coordinator.">
<polygon fill="white" stroke="#666666" points="893.5,-140 724.5,-140 724.5,-88 893.5,-88 893.5,-140"/>
<text text-anchor="start" x="732.5" y="-128" font-family="Helvetica,sans-Serif" font-size="10.00">/home/runner/work/IEEE</text>
<text text-anchor="start" x="732.5" y="-117" font-family="Helvetica,sans-Serif" font-size="10.00">_1588_2019/IEEE_1588_2019</text>
<text text-anchor="start" x="732.5" y="-106" font-family="Helvetica,sans-Serif" font-size="10.00">/include/IEEE/1588/PTP/2019</text>
<text text-anchor="middle" x="809" y="-95" font-family="Helvetica,sans-Serif" font-size="10.00">/message_flow_integration.hpp</text>
</a>
</g>
</g>
<!-- Node1&#45;&gt;Node3 -->
<g id="edge9_Node000001_Node000003" class="edge">
<title>Node1&#45;&gt;Node3</title>
<g id="a_edge9_Node000001_Node000003"><a xlink:title=" ">
<path fill="none" stroke="#63b8ff" d="M722.13,-444.7C754.94,-436.45 788.95,-421.17 809,-393 864.13,-315.54 834.41,-192.67 817.79,-140.15"/>
<polygon fill="#63b8ff" stroke="#63b8ff" points="720.96,-441.37 712,-447.04 722.53,-448.2 720.96,-441.37"/>
</a>
</g>
</g>
<!-- Node7 -->
<g id="Node000007" class="node">
<title>Node7</title>
<g id="a_Node000007"><a xlink:href="../../d3/dec/ieee1588__2019_8hpp.html" target="_top" xlink:title="IEEE 1588&#45;2019 PTP v2.1 main include header.">
<polygon fill="white" stroke="#666666" points="624,-393 466,-393 466,-341 624,-341 624,-393"/>
<text text-anchor="start" x="474" y="-381" font-family="Helvetica,sans-Serif" font-size="10.00">/home/runner/work/IEEE</text>
<text text-anchor="start" x="474" y="-370" font-family="Helvetica,sans-Serif" font-size="10.00">_1588_2019/IEEE_1588_2019</text>
<text text-anchor="start" x="474" y="-359" font-family="Helvetica,sans-Serif" font-size="10.00">/include/IEEE/1588/PTP/2019</text>
<text text-anchor="middle" x="545" y="-348" font-family="Helvetica,sans-Serif" font-size="10.00">/ieee1588_2019.hpp</text>
</a>
</g>
</g>
<!-- Node1&#45;&gt;Node7 -->
<g id="edge8_Node000001_Node000007" class="edge">
<title>Node1&#45;&gt;Node7</title>
<g id="a_edge8_Node000001_Node000007"><a xlink:title=" ">
<path fill="none" stroke="#63b8ff" d="M599.88,-421.63C590.24,-412.21 579.86,-402.06 570.74,-393.16"/>
<polygon fill="#63b8ff" stroke="#63b8ff" points="597.47,-424.18 607.07,-428.66 602.37,-419.17 597.47,-424.18"/>
</a>
</g>
</g>
<!-- Node8 -->
<g id="Node000008" class="node">
<title>Node8</title>
<g id="a_Node000008"><a xlink:href="../../d4/d64/messages_8hpp.html" target="_top" xlink:title="IEEE 1588&#45;2019 PTP Message Format Structures.">
<polygon fill="white" stroke="#666666" points="800,-393 642,-393 642,-341 800,-341 800,-393"/>
<text text-anchor="start" x="650" y="-381" font-family="Helvetica,sans-Serif" font-size="10.00">/home/runner/work/IEEE</text>
<text text-anchor="start" x="650" y="-370" font-family="Helvetica,sans-Serif" font-size="10.00">_1588_2019/IEEE_1588_2019</text>
<text text-anchor="start" x="650" y="-359" font-family="Helvetica,sans-Serif" font-size="10.00">/include/IEEE/1588/PTP/2019</text>
<text text-anchor="middle" x="721" y="-348" font-family="Helvetica,sans-Serif" font-size="10.00">/messages.hpp</text>
</a>
</g>
</g>
<!-- Node1&#45;&gt;Node8 -->
<g id="edge10_Node000001_Node000008" class="edge">
<title>Node1&#45;&gt;Node8</title>
<g id="a_edge10_Node000001_Node000008"><a xlink:title=" ">
<path fill="none" stroke="#63b8ff" d="M666.12,-421.63C675.76,-412.21 686.14,-402.06 695.26,-393.16"/>
<polygon fill="#63b8ff" stroke="#63b8ff" points="663.63,-419.17 658.93,-428.66 668.53,-424.18 663.63,-419.17"/>
</a>
</g>
</g>
<!-- Node9 -->
<g id="Node000009" class="node">
<title>Node9</title>
<g id="a_Node000009"><a xlink:href="../../dd/dc5/clocks_8hpp.html" target="_top" xlink:title="IEEE 1588&#45;2019 PTP Clock State Machines Implementation.">
<polygon fill="white" stroke="#666666" points="586,-305 428,-305 428,-264 586,-264 586,-305"/>
<text text-anchor="start" x="436" y="-293" font-family="Helvetica,sans-Serif" font-size="10.00">/home/runner/work/IEEE</text>
<text text-anchor="start" x="436" y="-282" font-family="Helvetica,sans-Serif" font-size="10.00">_1588_2019/IEEE_1588_2019</text>
<text text-anchor="middle" x="507" y="-271" font-family="Helvetica,sans-Serif" font-size="10.00">/include/clocks.hpp</text>
</a>
</g>
</g>
<!-- Node1&#45;&gt;Node9 -->
<g id="edge30_Node000001_Node000009" class="edge">
<title>Node1&#45;&gt;Node9</title>
<g id="a_edge30_Node000001_Node000009"><a xlink:title=" ">
<path fill="none" stroke="#63b8ff" d="M543.87,-444.7C511.06,-436.45 477.05,-421.17 457,-393 443.6,-374.17 448.71,-362.57 457,-341 462.3,-327.2 472.8,-314.68 482.81,-305.04"/>
<polygon fill="#63b8ff" stroke="#63b8ff" points="543.47,-448.2 554,-447.04 545.04,-441.37 543.47,-448.2"/>
</a>
</g>
</g>
<!-- Node14 -->
<g id="Node000014" class="node">
<title>Node14</title>
<g id="a_Node000014"><a xlink:href="../../d0/d75/sync__integration_8hpp.html" target="_top" xlink:title="IEEE 1588&#45;2019 Synchronization Integration Coordinator.">
<polygon fill="white" stroke="#666666" points="1052,-228 894,-228 894,-176 1052,-176 1052,-228"/>
<text text-anchor="start" x="902" y="-216" font-family="Helvetica,sans-Serif" font-size="10.00">/home/runner/work/IEEE</text>
<text text-anchor="start" x="902" y="-205" font-family="Helvetica,sans-Serif" font-size="10.00">_1588_2019/IEEE_1588_2019</text>
<text text-anchor="start" x="902" y="-194" font-family="Helvetica,sans-Serif" font-size="10.00">/include/IEEE/1588/PTP/2019</text>
<text text-anchor="middle" x="973" y="-183" font-family="Helvetica,sans-Serif" font-size="10.00">/sync_integration.hpp</text>
</a>
</g>
</g>
<!-- Node1&#45;&gt;Node14 -->
<g id="edge29_Node000001_Node000014" class="edge">
<title>Node1&#45;&gt;Node14</title>
<g id="a_edge29_Node000001_Node000014"><a xlink:title=" ">
<path fill="none" stroke="#63b8ff" d="M722.01,-441.88C761.56,-433.17 806.97,-418.3 842,-393 902.41,-349.36 944.19,-268.84 962.52,-228.06"/>
<polygon fill="#63b8ff" stroke="#63b8ff" points="721.16,-438.48 712.09,-443.96 722.6,-445.33 721.16,-438.48"/>
</a>
</g>
</g>
<!-- Node2&#45;&gt;Node3 -->
<g id="edge2_Node000002_Node000003" class="edge">
<title>Node2&#45;&gt;Node3</title>
<g id="a_edge2_Node000002_Node000003"><a xlink:title=" ">
<path fill="none" stroke="#63b8ff" d="M205.97,-182.04C218.37,-179.78 230.98,-177.68 243,-176 435.12,-149.08 485.79,-166.22 678,-140 693.03,-137.95 708.94,-135.31 724.3,-132.52"/>
<polygon fill="#63b8ff" stroke="#63b8ff" points="205.27,-178.61 196.08,-183.89 206.55,-185.5 205.27,-178.61"/>
</a>
</g>
</g>
<!-- Node4 -->
<g id="Node000004" class="node">
<title>Node4</title>
<g id="a_Node000004"><a xlink:href="../../d7/daa/message__flow__integration_8cpp.html" target="_top" xlink:title="IEEE 1588&#45;2019 Message Flow Integration Implementation.">
<polygon fill="white" stroke="#666666" points="642.5,-46.5 457.5,-46.5 457.5,-5.5 642.5,-5.5 642.5,-46.5"/>
<text text-anchor="start" x="465.5" y="-34.5" font-family="Helvetica,sans-Serif" font-size="10.00">/home/runner/work/IEEE</text>
<text text-anchor="start" x="465.5" y="-23.5" font-family="Helvetica,sans-Serif" font-size="10.00">_1588_2019/IEEE_1588_2019</text>
<text text-anchor="middle" x="550" y="-12.5" font-family="Helvetica,sans-Serif" font-size="10.00">/src/message_flow_integration.cpp</text>
</a>
</g>
</g>
<!-- Node2&#45;&gt;Node4 -->
<g id="edge6_Node000002_Node000004" class="edge">
<title>Node2&#45;&gt;Node4</title>
<g id="a_edge6_Node000002_Node000004"><a xlink:title=" ">
<path fill="none" stroke="#63b8ff" d="M144.37,-167.61C171.6,-134.4 209.44,-88.33 210,-88 251.01,-63.98 371.57,-46.32 457.46,-36.35"/>
<polygon fill="#63b8ff" stroke="#63b8ff" points="141.33,-165.79 137.7,-175.74 146.75,-170.23 141.33,-165.79"/>
</a>
</g>
</g>
<!-- Node5 -->
<g id="Node000005" class="node">
<title>Node5</title>
<g id="a_Node000005"><a xlink:href="../../d6/d99/message__flow__integration__bup_8cpp.html" target="_top" xlink:title=" ">
<polygon fill="white" stroke="#666666" points="835.5,-52 670.5,-52 670.5,0 835.5,0 835.5,-52"/>
<text text-anchor="start" x="678.5" y="-40" font-family="Helvetica,sans-Serif" font-size="10.00">/home/runner/work/IEEE</text>
<text text-anchor="start" x="678.5" y="-29" font-family="Helvetica,sans-Serif" font-size="10.00">_1588_2019/IEEE_1588_2019</text>
<text text-anchor="start" x="678.5" y="-18" font-family="Helvetica,sans-Serif" font-size="10.00">/src/message_flow_integration</text>
<text text-anchor="middle" x="753" y="-7" font-family="Helvetica,sans-Serif" font-size="10.00">_bup.cpp</text>
</a>
</g>
</g>
<!-- Node2&#45;&gt;Node5 -->
<g id="edge7_Node000002_Node000005" class="edge">
<title>Node2&#45;&gt;Node5</title>
<g id="a_edge7_Node000002_Node000005"><a xlink:title=" ">
<path fill="none" stroke="#63b8ff" d="M166.75,-170.15C179.52,-161.17 192.8,-150.84 204,-140 224.75,-119.9 217.75,-102.04 243,-88 322.54,-43.75 561.21,-66.88 651,-52 657.3,-50.96 663.78,-49.73 670.27,-48.39"/>
<polygon fill="#63b8ff" stroke="#63b8ff" points="164.72,-167.3 158.46,-175.84 168.68,-173.07 164.72,-167.3"/>
</a>
</g>
</g>
<!-- Node6 -->
<g id="Node000006" class="node">
<title>Node6</title>
<g id="a_Node000006"><a xlink:href="../../dc/df9/bmca__integration_8cpp.html" target="_top" xlink:title="BMCA Runtime Integration Coordinator Implementation.">
<polygon fill="white" stroke="#666666" points="158,-134.5 0,-134.5 0,-93.5 158,-93.5 158,-134.5"/>
<text text-anchor="start" x="8" y="-122.5" font-family="Helvetica,sans-Serif" font-size="10.00">/home/runner/work/IEEE</text>
<text text-anchor="start" x="8" y="-111.5" font-family="Helvetica,sans-Serif" font-size="10.00">_1588_2019/IEEE_1588_2019</text>
<text text-anchor="middle" x="79" y="-100.5" font-family="Helvetica,sans-Serif" font-size="10.00">/src/bmca_integration.cpp</text>
</a>
</g>
</g>
<!-- Node2&#45;&gt;Node6 -->
<g id="edge5_Node000002_Node000006" class="edge">
<title>Node2&#45;&gt;Node6</title>
<g id="a_edge5_Node000002_Node000006"><a xlink:title=" ">
<path fill="none" stroke="#63b8ff" d="M101.73,-166.44C96.96,-155.64 91.86,-144.11 87.71,-134.7"/>
<polygon fill="#63b8ff" stroke="#63b8ff" points="98.56,-167.93 105.8,-175.66 104.96,-165.1 98.56,-167.93"/>
</a>
</g>
</g>
<!-- Node3&#45;&gt;Node4 -->
<g id="edge3_Node000003_Node000004" class="edge">
<title>Node3&#45;&gt;Node4</title>
<g id="a_edge3_Node000003_Node000004"><a xlink:title=" ">
<path fill="none" stroke="#63b8ff" d="M723.46,-84.6C685.88,-72.12 642.7,-57.78 608.82,-46.53"/>
<polygon fill="#63b8ff" stroke="#63b8ff" points="722.8,-88.06 733.39,-87.89 725,-81.42 722.8,-88.06"/>
</a>
</g>
</g>
<!-- Node3&#45;&gt;Node5 -->
<g id="edge4_Node000003_Node000005" class="edge">
<title>Node3&#45;&gt;Node5</title>
<g id="a_edge4_Node000003_Node000005"><a xlink:title=" ">
<path fill="none" stroke="#63b8ff" d="M787.02,-79.24C781.14,-70.22 774.9,-60.63 769.38,-52.16"/>
<polygon fill="#63b8ff" stroke="#63b8ff" points="784.11,-81.19 792.5,-87.66 789.98,-77.37 784.11,-81.19"/>
</a>
</g>
</g>
<!-- Node8&#45;&gt;Node3 -->
<g id="edge11_Node000008_Node000003" class="edge">
<title>Node8&#45;&gt;Node3</title>
<g id="a_edge11_Node000008_Node000003"><a xlink:title=" ">
<path fill="none" stroke="#63b8ff" d="M745.91,-332.39C764.32,-305.59 788.16,-266.32 800,-228 809.01,-198.86 810.41,-163.58 810.11,-140.28"/>
<polygon fill="#63b8ff" stroke="#63b8ff" points="743,-330.43 740.14,-340.64 748.74,-334.44 743,-330.43"/>
</a>
</g>
</g>
<!-- Node8&#45;&gt;Node9 -->
<g id="edge12_Node000008_Node000009" class="edge">
<title>Node8&#45;&gt;Node9</title>
<g id="a_edge12_Node000008_Node000009"><a xlink:title=" ">
<path fill="none" stroke="#63b8ff" d="M644.93,-337.38C616.42,-326.66 584.71,-314.73 558.88,-305.02"/>
<polygon fill="#63b8ff" stroke="#63b8ff" points="643.87,-340.73 654.46,-340.97 646.33,-334.17 643.87,-340.73"/>
</a>
</g>
</g>
<!-- Node9&#45;&gt;Node2 -->
<g id="edge13_Node000009_Node000002" class="edge">
<title>Node9&#45;&gt;Node2</title>
<g id="a_edge13_Node000009_Node000002"><a xlink:title=" ">
<path fill="none" stroke="#63b8ff" d="M417.8,-268.7C358.63,-258.42 279.38,-243.78 210,-228 205.44,-226.96 200.76,-225.85 196.04,-224.7"/>
<polygon fill="#63b8ff" stroke="#63b8ff" points="417.42,-272.18 427.87,-270.44 418.61,-265.29 417.42,-272.18"/>
</a>
</g>
</g>
<!-- Node9&#45;&gt;Node3 -->
<g id="edge14_Node000009_Node000003" class="edge">
<title>Node9&#45;&gt;Node3</title>
<g id="a_edge14_Node000009_Node000003"><a xlink:title=" ">
<path fill="none" stroke="#63b8ff" d="M596.22,-274.27C662.36,-265.72 745.32,-250.83 771,-228 796.21,-205.58 804.72,-165.9 807.58,-140.03"/>
<polygon fill="#63b8ff" stroke="#63b8ff" points="595.65,-270.82 586.17,-275.54 596.53,-277.76 595.65,-270.82"/>
</a>
</g>
</g>
<!-- Node10 -->
<g id="Node000010" class="node">
<title>Node10</title>
<g id="a_Node000010"><a xlink:href="../../d9/dbe/profile_8hpp.html" target="_top" xlink:title="Generic PTP profile abstraction supporting multiple external standards (IEEE 1588&#45;2019 core,...">
<polygon fill="white" stroke="#666666" points="410,-228 252,-228 252,-176 410,-176 410,-228"/>
<text text-anchor="start" x="260" y="-216" font-family="Helvetica,sans-Serif" font-size="10.00">/home/runner/work/IEEE</text>
<text text-anchor="start" x="260" y="-205" font-family="Helvetica,sans-Serif" font-size="10.00">_1588_2019/IEEE_1588_2019</text>
<text text-anchor="start" x="260" y="-194" font-family="Helvetica,sans-Serif" font-size="10.00">/include/IEEE/1588/PTP/2019</text>
<text text-anchor="middle" x="331" y="-183" font-family="Helvetica,sans-Serif" font-size="10.00">/profile.hpp</text>
</a>
</g>
</g>
<!-- Node9&#45;&gt;Node10 -->
<g id="edge15_Node000009_Node000010" class="edge">
<title>Node9&#45;&gt;Node10</title>
<g id="a_edge15_Node000009_Node000010"><a xlink:title=" ">
<path fill="none" stroke="#63b8ff" d="M454.58,-259.53C432.94,-249.63 407.84,-238.14 385.94,-228.13"/>
<polygon fill="#63b8ff" stroke="#63b8ff" points="453.4,-262.83 463.95,-263.81 456.31,-256.47 453.4,-262.83"/>
</a>
</g>
</g>
<!-- Node11 -->
<g id="Node000011" class="node">
<title>Node11</title>
<g id="a_Node000011"><a xlink:href="../../d3/d46/profile__adapter_8hpp.html" target="_top" xlink:title="Minimal adapter to apply a ProfileConfig to a PTP PortConfiguration.">
<polygon fill="white" stroke="#666666" points="410,-140 252,-140 252,-88 410,-88 410,-140"/>
<text text-anchor="start" x="260" y="-128" font-family="Helvetica,sans-Serif" font-size="10.00">/home/runner/work/IEEE</text>
<text text-anchor="start" x="260" y="-117" font-family="Helvetica,sans-Serif" font-size="10.00">_1588_2019/IEEE_1588_2019</text>
<text text-anchor="start" x="260" y="-106" font-family="Helvetica,sans-Serif" font-size="10.00">/include/IEEE/1588/PTP/2019</text>
<text text-anchor="middle" x="331" y="-95" font-family="Helvetica,sans-Serif" font-size="10.00">/profile_adapter.hpp</text>
</a>
</g>
</g>
<!-- Node9&#45;&gt;Node11 -->
<g id="edge17_Node000009_Node000011" class="edge">
<title>Node9&#45;&gt;Node11</title>
<g id="a_edge17_Node000009_Node000011"><a xlink:title=" ">
<path fill="none" stroke="#63b8ff" d="M417.55,-276.59C349.83,-269.28 264.86,-254.94 243,-228 228.44,-210.06 232.28,-196.47 243,-176 250.67,-161.34 263.65,-149.5 277.31,-140.3"/>
<polygon fill="#63b8ff" stroke="#63b8ff" points="417.52,-280.11 427.83,-277.66 418.24,-273.14 417.52,-280.11"/>
</a>
</g>
</g>
<!-- Node12 -->
<g id="Node000012" class="node">
<title>Node12</title>
<g id="a_Node000012"><a xlink:href="../../da/d7e/servo__integration_8hpp.html" target="_top" xlink:title="IEEE 1588&#45;2019 Servo Integration &#45; Clock Adjustment Control.">
<polygon fill="white" stroke="#666666" points="762,-228 604,-228 604,-176 762,-176 762,-228"/>
<text text-anchor="start" x="612" y="-216" font-family="Helvetica,sans-Serif" font-size="10.00">/home/runner/work/IEEE</text>
<text text-anchor="start" x="612" y="-205" font-family="Helvetica,sans-Serif" font-size="10.00">_1588_2019/IEEE_1588_2019</text>
<text text-anchor="start" x="612" y="-194" font-family="Helvetica,sans-Serif" font-size="10.00">/include/IEEE/1588/PTP/2019</text>
<text text-anchor="middle" x="683" y="-183" font-family="Helvetica,sans-Serif" font-size="10.00">/servo_integration.hpp</text>
</a>
</g>
</g>
<!-- Node9&#45;&gt;Node12 -->
<g id="edge18_Node000009_Node000012" class="edge">
<title>Node9&#45;&gt;Node12</title>
<g id="a_edge18_Node000009_Node000012"><a xlink:title=" ">
<path fill="none" stroke="#63b8ff" d="M559.42,-259.53C581.06,-249.63 606.16,-238.14 628.06,-228.13"/>
<polygon fill="#63b8ff" stroke="#63b8ff" points="557.69,-256.47 550.05,-263.81 560.6,-262.83 557.69,-256.47"/>
</a>
</g>
</g>
<!-- Node9&#45;&gt;Node14 -->
<g id="edge23_Node000009_Node000014" class="edge">
<title>Node9&#45;&gt;Node14</title>
<g id="a_edge23_Node000009_Node000014"><a xlink:title=" ">
<path fill="none" stroke="#63b8ff" d="M596.07,-268.11C682.18,-253.24 811.4,-230.92 893.95,-216.66"/>
<polygon fill="#63b8ff" stroke="#63b8ff" points="595.31,-264.69 586.05,-269.84 596.5,-271.59 595.31,-264.69"/>
</a>
</g>
</g>
<!-- Node16 -->
<g id="Node000016" class="node">
<title>Node16</title>
<g id="a_Node000016"><a xlink:href="../../d0/d70/clocks_8cpp.html" target="_top" xlink:title="IEEE 1588&#45;2019 PTP Clock State Machines Implementation.">
<polygon fill="white" stroke="#666666" points="586,-222.5 428,-222.5 428,-181.5 586,-181.5 586,-222.5"/>
<text text-anchor="start" x="436" y="-210.5" font-family="Helvetica,sans-Serif" font-size="10.00">/home/runner/work/IEEE</text>
<text text-anchor="start" x="436" y="-199.5" font-family="Helvetica,sans-Serif" font-size="10.00">_1588_2019/IEEE_1588_2019</text>
<text text-anchor="middle" x="507" y="-188.5" font-family="Helvetica,sans-Serif" font-size="10.00">/src/clocks.cpp</text>
</a>
</g>
</g>
<!-- Node9&#45;&gt;Node16 -->
<g id="edge28_Node000009_Node000016" class="edge">
<title>Node9&#45;&gt;Node16</title>
<g id="a_edge28_Node000009_Node000016"><a xlink:title=" ">
<path fill="none" stroke="#63b8ff" d="M507,-253.37C507,-243.1 507,-231.9 507,-222.67"/>
<polygon fill="#63b8ff" stroke="#63b8ff" points="503.5,-253.6 507,-263.6 510.5,-253.6 503.5,-253.6"/>
</a>
</g>
</g>
<!-- Node10&#45;&gt;Node11 -->
<g id="edge16_Node000010_Node000011" class="edge">
<title>Node10&#45;&gt;Node11</title>
<g id="a_edge16_Node000010_Node000011"><a xlink:title=" ">
<path fill="none" stroke="#63b8ff" d="M331,-165.56C331,-157.04 331,-148.1 331,-140.16"/>
<polygon fill="#63b8ff" stroke="#63b8ff" points="327.5,-165.66 331,-175.66 334.5,-165.66 327.5,-165.66"/>
</a>
</g>
</g>
<!-- Node12&#45;&gt;Node3 -->
<g id="edge19_Node000012_Node000003" class="edge">
<title>Node12&#45;&gt;Node3</title>
<g id="a_edge19_Node000012_Node000003"><a xlink:title=" ">
<path fill="none" stroke="#63b8ff" d="M728.07,-170.24C742.46,-160.42 758.2,-149.67 771.95,-140.29"/>
<polygon fill="#63b8ff" stroke="#63b8ff" points="726.07,-167.37 719.78,-175.89 730.02,-173.15 726.07,-167.37"/>
</a>
</g>
</g>
<!-- Node12&#45;&gt;Node4 -->
<g id="edge20_Node000012_Node000004" class="edge">
<title>Node12&#45;&gt;Node4</title>
<g id="a_edge20_Node000012_Node000004"><a xlink:title=" ">
<path fill="none" stroke="#63b8ff" d="M594.2,-173.53C549.92,-159.42 505.08,-144.29 502,-140 480.86,-110.57 508.96,-70.4 530.23,-46.73"/>
<polygon fill="#63b8ff" stroke="#63b8ff" points="593.33,-176.93 603.92,-176.62 595.45,-170.26 593.33,-176.93"/>
</a>
</g>
</g>
<!-- Node12&#45;&gt;Node5 -->
<g id="edge21_Node000012_Node000005" class="edge">
<title>Node12&#45;&gt;Node5</title>
<g id="a_edge21_Node000012_Node000005"><a xlink:title=" ">
<path fill="none" stroke="#63b8ff" d="M690.77,-165.76C696.39,-143.03 704.93,-113.14 716,-88 721.44,-75.64 728.95,-62.75 735.79,-52.02"/>
<polygon fill="#63b8ff" stroke="#63b8ff" points="687.33,-165.11 688.4,-175.65 694.13,-166.74 687.33,-165.11"/>
</a>
</g>
</g>
<!-- Node13 -->
<g id="Node000013" class="node">
<title>Node13</title>
<g id="a_Node000013"><a xlink:href="../../d3/d20/servo__integration_8cpp.html" target="_top" xlink:title="IEEE 1588&#45;2019 Servo Integration Implementation.">
<polygon fill="white" stroke="#666666" points="669,-134.5 511,-134.5 511,-93.5 669,-93.5 669,-134.5"/>
<text text-anchor="start" x="519" y="-122.5" font-family="Helvetica,sans-Serif" font-size="10.00">/home/runner/work/IEEE</text>
<text text-anchor="start" x="519" y="-111.5" font-family="Helvetica,sans-Serif" font-size="10.00">_1588_2019/IEEE_1588_2019</text>
<text text-anchor="middle" x="590" y="-100.5" font-family="Helvetica,sans-Serif" font-size="10.00">/src/servo_integration.cpp</text>
</a>
</g>
</g>
<!-- Node12&#45;&gt;Node13 -->
<g id="edge22_Node000012_Node000013" class="edge">
<title>Node12&#45;&gt;Node13</title>
<g id="a_edge22_Node000012_Node000013"><a xlink:title=" ">
<path fill="none" stroke="#63b8ff" d="M648.09,-168.72C635.73,-157.28 622.2,-144.77 611.31,-134.7"/>
<polygon fill="#63b8ff" stroke="#63b8ff" points="645.88,-171.44 655.6,-175.66 650.63,-166.3 645.88,-171.44"/>
</a>
</g>
</g>
<!-- Node14&#45;&gt;Node3 -->
<g id="edge24_Node000014_Node000003" class="edge">
<title>Node14&#45;&gt;Node3</title>
<g id="a_edge24_Node000014_Node000003"><a xlink:title=" ">
<path fill="none" stroke="#63b8ff" d="M916.13,-171.18C896.83,-161.06 875.47,-149.86 856.94,-140.14"/>
<polygon fill="#63b8ff" stroke="#63b8ff" points="914.64,-174.35 925.12,-175.89 917.89,-168.15 914.64,-174.35"/>
</a>
</g>
</g>
<!-- Node14&#45;&gt;Node4 -->
<g id="edge25_Node000014_Node000004" class="edge">
<title>Node14&#45;&gt;Node4</title>
<g id="a_edge25_Node000014_Node000004"><a xlink:title=" ">
<path fill="none" stroke="#63b8ff" d="M951.87,-167.19C931.12,-134.01 902.49,-88.32 902,-88 811.36,-28.74 767.45,-71.91 661,-52 652.17,-50.35 642.96,-48.49 633.81,-46.56"/>
<polygon fill="#63b8ff" stroke="#63b8ff" points="948.95,-169.12 957.22,-175.74 954.88,-165.41 948.95,-169.12"/>
</a>
</g>
</g>
<!-- Node14&#45;&gt;Node5 -->
<g id="edge26_Node000014_Node000005" class="edge">
<title>Node14&#45;&gt;Node5</title>
<g id="a_edge26_Node000014_Node000005"><a xlink:title=" ">
<path fill="none" stroke="#63b8ff" d="M969.37,-165.5C965.06,-140.75 955.63,-108.61 935,-88 908.59,-61.62 870.46,-46.65 835.91,-38.15"/>
<polygon fill="#63b8ff" stroke="#63b8ff" points="965.95,-166.24 970.92,-175.6 972.86,-165.18 965.95,-166.24"/>
</a>
</g>
</g>
<!-- Node15 -->
<g id="Node000015" class="node">
<title>Node15</title>
<g id="a_Node000015"><a xlink:href="../../da/d84/sync__integration_8cpp.html" target="_top" xlink:title="IEEE 1588&#45;2019 Synchronization Integration Implementation.">
<polygon fill="white" stroke="#666666" points="1145,-134.5 987,-134.5 987,-93.5 1145,-93.5 1145,-134.5"/>
<text text-anchor="start" x="995" y="-122.5" font-family="Helvetica,sans-Serif" font-size="10.00">/home/runner/work/IEEE</text>
<text text-anchor="start" x="995" y="-111.5" font-family="Helvetica,sans-Serif" font-size="10.00">_1588_2019/IEEE_1588_2019</text>
<text text-anchor="middle" x="1066" y="-100.5" font-family="Helvetica,sans-Serif" font-size="10.00">/src/sync_integration.cpp</text>
</a>
</g>
</g>
<!-- Node14&#45;&gt;Node15 -->
<g id="edge27_Node000014_Node000015" class="edge">
<title>Node14&#45;&gt;Node15</title>
<g id="a_edge27_Node000014_Node000015"><a xlink:title=" ">
<path fill="none" stroke="#63b8ff" d="M1007.91,-168.72C1020.27,-157.28 1033.8,-144.77 1044.69,-134.7"/>
<polygon fill="#63b8ff" stroke="#63b8ff" points="1005.37,-166.3 1000.4,-175.66 1010.12,-171.44 1005.37,-166.3"/>
</a>
</g>
</g>
</g>
</svg>
