<?xml version="1.0" encoding="UTF-8" standalone="no"?>
<!DOCTYPE svg PUBLIC "-//W3C//DTD SVG 1.1//EN"
 "http://www.w3.org/Graphics/SVG/1.1/DTD/svg11.dtd">
<!-- Generated by graphviz version 2.43.0 (0)
 -->
<!-- Title: IEEE::_1588::PTP::_2019::PTPMessage::initialize Pages: 1 -->
<svg width="534pt" height="194pt"
 viewBox="0.00 0.00 534.00 193.50" xmlns="http://www.w3.org/2000/svg" xmlns:xlink="http://www.w3.org/1999/xlink">
<g id="graph0" class="graph" transform="scale(1 1) rotate(0) translate(4 189.5)">
<title>IEEE::_1588::PTP::_2019::PTPMessage::initialize</title>
<!-- Node1 -->
<g id="Node000001" class="node">
<title>Node1</title>
<g id="a_Node000001"><a xlink:title="Initialize message with proper defaults.">
<polygon fill="#999999" stroke="#666666" points="161,-118.5 0,-118.5 0,-88.5 161,-88.5 161,-118.5"/>
<text text-anchor="start" x="8" y="-106.5" font-family="Helvetica,sans-Serif" font-size="10.00">IEEE::_1588::PTP::</text>
<text text-anchor="middle" x="80.5" y="-95.5" font-family="Helvetica,sans-Serif" font-size="10.00">_2019::PTPMessage::initialize</text>
</a>
</g>
</g>
<!-- Node2 -->
<g id="Node000002" class="node">
<title>Node2</title>
<g id="a_Node000002"><a xlink:href="../../d0/de3/structIEEE_1_1__1588_1_1PTP_1_1__2019_1_1PTPMessage.html#a7f40b717c81ff9b970c02155c3b063e0" target="_top" xlink:title="Get total message size.">
<polygon fill="white" stroke="#666666" points="396,-185.5 197,-185.5 197,-155.5 396,-155.5 396,-185.5"/>
<text text-anchor="start" x="205" y="-173.5" font-family="Helvetica,sans-Serif" font-size="10.00">IEEE::_1588::PTP::</text>
<text text-anchor="middle" x="296.5" y="-162.5" font-family="Helvetica,sans-Serif" font-size="10.00">_2019::PTPMessage::getMessageSize</text>
</a>
</g>
</g>
<!-- Node1&#45;&gt;Node2 -->
<g id="edge1_Node000001_Node000002" class="edge">
<title>Node1&#45;&gt;Node2</title>
<g id="a_edge1_Node000001_Node000002"><a xlink:title=" ">
<path fill="none" stroke="#63b8ff" d="M118.57,-118.57C141.04,-127.38 170.41,-138.34 197,-146.5 204.28,-148.73 211.9,-150.9 219.56,-152.95"/>
<polygon fill="#63b8ff" stroke="#63b8ff" points="218.68,-156.34 229.24,-155.49 220.46,-149.57 218.68,-156.34"/>
</a>
</g>
</g>
<!-- Node3 -->
<g id="Node000003" class="node">
<title>Node3</title>
<g id="a_Node000003"><a xlink:href="../../dd/d39/namespacedetail.html#a996eb85710c236449da938fd178891dc" target="_top" xlink:title=" ">
<polygon fill="white" stroke="#666666" points="354.5,-137 238.5,-137 238.5,-118 354.5,-118 354.5,-137"/>
<text text-anchor="middle" x="296.5" y="-125" font-family="Helvetica,sans-Serif" font-size="10.00">detail::host_to_be16</text>
</a>
</g>
</g>
<!-- Node1&#45;&gt;Node3 -->
<g id="edge2_Node000001_Node000003" class="edge">
<title>Node1&#45;&gt;Node3</title>
<g id="a_edge2_Node000001_Node000003"><a xlink:title=" ">
<path fill="none" stroke="#63b8ff" d="M161.19,-112.44C183.34,-114.92 207.18,-117.59 228.53,-119.99"/>
<polygon fill="#63b8ff" stroke="#63b8ff" points="228.14,-123.47 238.47,-121.1 228.92,-116.51 228.14,-123.47"/>
</a>
</g>
</g>
<!-- Node5 -->
<g id="Node000005" class="node">
<title>Node5</title>
<g id="a_Node000005"><a xlink:href="../../d5/dab/structIEEE_1_1__1588_1_1PTP_1_1__2019_1_1CommonHeader.html#a5ff024fa34cac7be52ef4263e4976a31" target="_top" xlink:title="Set message type with deterministic execution.">
<polygon fill="white" stroke="#666666" points="362,-100 231,-100 231,-59 362,-59 362,-100"/>
<text text-anchor="start" x="239" y="-88" font-family="Helvetica,sans-Serif" font-size="10.00">IEEE::_1588::PTP::</text>
<text text-anchor="start" x="239" y="-77" font-family="Helvetica,sans-Serif" font-size="10.00">_2019::CommonHeader</text>
<text text-anchor="middle" x="296.5" y="-66" font-family="Helvetica,sans-Serif" font-size="10.00">::setMessageType</text>
</a>
</g>
</g>
<!-- Node1&#45;&gt;Node5 -->
<g id="edge4_Node000001_Node000005" class="edge">
<title>Node1&#45;&gt;Node5</title>
<g id="a_edge4_Node000001_Node000005"><a xlink:title=" ">
<path fill="none" stroke="#63b8ff" d="M161.19,-94.56C180.63,-92.38 201.36,-90.06 220.57,-87.9"/>
<polygon fill="#63b8ff" stroke="#63b8ff" points="221.21,-91.35 230.76,-86.76 220.43,-84.4 221.21,-91.35"/>
</a>
</g>
</g>
<!-- Node6 -->
<g id="Node000006" class="node">
<title>Node6</title>
<g id="a_Node000006"><a xlink:href="../../d5/dab/structIEEE_1_1__1588_1_1PTP_1_1__2019_1_1CommonHeader.html#a75fcb9b963617b03ecb38b2ef2e2bd8f" target="_top" xlink:title="Set PTP version (typically 2 for IEEE 1588&#45;2019)">
<polygon fill="white" stroke="#666666" points="362,-41 231,-41 231,0 362,0 362,-41"/>
<text text-anchor="start" x="239" y="-29" font-family="Helvetica,sans-Serif" font-size="10.00">IEEE::_1588::PTP::</text>
<text text-anchor="start" x="239" y="-18" font-family="Helvetica,sans-Serif" font-size="10.00">_2019::CommonHeader</text>
<text text-anchor="middle" x="296.5" y="-7" font-family="Helvetica,sans-Serif" font-size="10.00">::setVersion</text>
</a>
</g>
</g>
<!-- Node1&#45;&gt;Node6 -->
<g id="edge5_Node000001_Node000006" class="edge">
<title>Node1&#45;&gt;Node6</title>
<g id="a_edge5_Node000001_Node000006"><a xlink:title=" ">
<path fill="none" stroke="#63b8ff" d="M111.42,-88.42C134.47,-77.14 167.3,-61.78 197,-50.5 204.81,-47.54 213.05,-44.65 221.3,-41.92"/>
<polygon fill="#63b8ff" stroke="#63b8ff" points="222.53,-45.2 230.97,-38.79 220.37,-38.54 222.53,-45.2"/>
</a>
</g>
</g>
<!-- Node4 -->
<g id="Node000004" class="node">
<title>Node4</title>
<g id="a_Node000004"><a xlink:href="../../dd/d39/namespacedetail.html#af252a1f9a94bf9b62e57b592d3268f51" target="_top" xlink:title=" ">
<polygon fill="white" stroke="#666666" points="526,-137 432,-137 432,-118 526,-118 526,-137"/>
<text text-anchor="middle" x="479" y="-125" font-family="Helvetica,sans-Serif" font-size="10.00">detail::bswap16</text>
</a>
</g>
</g>
<!-- Node3&#45;&gt;Node4 -->
<g id="edge3_Node000003_Node000004" class="edge">
<title>Node3&#45;&gt;Node4</title>
<g id="a_edge3_Node000003_Node000004"><a xlink:title=" ">
<path fill="none" stroke="#63b8ff" d="M354.61,-127.5C376,-127.5 400.28,-127.5 421.6,-127.5"/>
<polygon fill="#63b8ff" stroke="#63b8ff" points="421.81,-131 431.81,-127.5 421.81,-124 421.81,-131"/>
</a>
</g>
</g>
</g>
</svg>
