<?xml version="1.0" encoding="UTF-8" standalone="no"?>
<!DOCTYPE svg PUBLIC "-//W3C//DTD SVG 1.1//EN"
 "http://www.w3.org/Graphics/SVG/1.1/DTD/svg11.dtd">
<!-- Generated by graphviz version 2.43.0 (0)
 -->
<!-- Title: IEEE::_1588::PTP::_2019::ManagementMessageBody Pages: 1 -->
<svg width="196pt" height="579pt"
 viewBox="0.00 0.00 195.50 579.00" xmlns="http://www.w3.org/2000/svg" xmlns:xlink="http://www.w3.org/1999/xlink">
<g id="graph0" class="graph" transform="scale(1 1) rotate(0) translate(4 575)">
<title>IEEE::_1588::PTP::_2019::ManagementMessageBody</title>
<!-- Node1 -->
<g id="Node000001" class="node">
<title>Node1</title>
<g id="a_Node000001"><a xlink:title="Management Message Body (IEEE 1588&#45;2019 Section 15.5.3)">
<polygon fill="#999999" stroke="transparent" points="179,-135 0,-135 0,0 179,0 179,-135"/>
<text text-anchor="start" x="5.5" y="-122.5" font-family="Helvetica,sans-Serif" font-size="10.00">IEEE::_1588::PTP::</text>
<text text-anchor="start" x="5.5" y="-111.5" font-family="Helvetica,sans-Serif" font-size="10.00">_2019::ManagementMessageBody</text>
<text text-anchor="start" x="16.5" y="-96.5" font-family="Helvetica,sans-Serif" font-size="10.00">+</text>
<text text-anchor="start" x="41.5" y="-96.5" font-family="Helvetica,sans-Serif" font-size="10.00">startingBoundaryHops</text>
<text text-anchor="start" x="16.5" y="-81.5" font-family="Helvetica,sans-Serif" font-size="10.00">+</text>
<text text-anchor="start" x="41.5" y="-81.5" font-family="Helvetica,sans-Serif" font-size="10.00">boundaryHops</text>
<text text-anchor="start" x="16.5" y="-66.5" font-family="Helvetica,sans-Serif" font-size="10.00">+</text>
<text text-anchor="start" x="41.5" y="-66.5" font-family="Helvetica,sans-Serif" font-size="10.00">reserved_actionField</text>
<text text-anchor="start" x="16.5" y="-51.5" font-family="Helvetica,sans-Serif" font-size="10.00">+</text>
<text text-anchor="start" x="41.5" y="-51.5" font-family="Helvetica,sans-Serif" font-size="10.00">reserved</text>
<text text-anchor="start" x="16.5" y="-36.5" font-family="Helvetica,sans-Serif" font-size="10.00">+</text>
<text text-anchor="start" x="41.5" y="-36.5" font-family="Helvetica,sans-Serif" font-size="10.00">getActionField()</text>
<text text-anchor="start" x="16.5" y="-21.5" font-family="Helvetica,sans-Serif" font-size="10.00">+</text>
<text text-anchor="start" x="41.5" y="-21.5" font-family="Helvetica,sans-Serif" font-size="10.00">setActionField()</text>
<text text-anchor="start" x="16.5" y="-6.5" font-family="Helvetica,sans-Serif" font-size="10.00">+</text>
<text text-anchor="start" x="41.5" y="-6.5" font-family="Helvetica,sans-Serif" font-size="10.00">validate()</text>
<polygon fill="#666666" stroke="#666666" points="0.5,-106.5 0.5,-106.5 179.5,-106.5 179.5,-106.5 0.5,-106.5"/>
<polygon fill="#666666" stroke="#666666" points="0.5,-46.5 0.5,-46.5 39.5,-46.5 39.5,-46.5 0.5,-46.5"/>
<polygon fill="#666666" stroke="#666666" points="39.5,-46.5 39.5,-46.5 179.5,-46.5 179.5,-46.5 39.5,-46.5"/>
<polygon fill="none" stroke="#666666" points="0,0 0,-135 179,-135 179,0 0,0"/>
</a>
</g>
</g>
<!-- Node2 -->
<g id="Node000002" class="node">
<title>Node2</title>
<g id="a_Node000002"><a xlink:href="../../dc/d02/structIEEE_1_1__1588_1_1PTP_1_1__2019_1_1Types_1_1PortIdentity.html" target="_top" xlink:title="Port Identity &#45; combination of clock identity and port number.">
<polygon fill="white" stroke="transparent" points="158,-272 21,-272 21,-182 158,-182 158,-272"/>
<text text-anchor="start" x="26.5" y="-260" font-family="Helvetica,sans-Serif" font-size="10.00">IEEE::_1588::PTP::</text>
<text text-anchor="start" x="26.5" y="-249" font-family="Helvetica,sans-Serif" font-size="10.00">_2019::Types::PortIdentity</text>
<text text-anchor="start" x="38" y="-234" font-family="Helvetica,sans-Serif" font-size="10.00">+</text>
<text text-anchor="start" x="63.5" y="-234" font-family="Helvetica,sans-Serif" font-size="10.00">port_number</text>
<text text-anchor="start" x="38" y="-219" font-family="Helvetica,sans-Serif" font-size="10.00">+</text>
<text text-anchor="start" x="63.5" y="-219" font-family="Helvetica,sans-Serif" font-size="10.00">operator==()</text>
<text text-anchor="start" x="38" y="-204" font-family="Helvetica,sans-Serif" font-size="10.00">+</text>
<text text-anchor="start" x="63.5" y="-204" font-family="Helvetica,sans-Serif" font-size="10.00">operator&lt;()</text>
<text text-anchor="start" x="38" y="-189" font-family="Helvetica,sans-Serif" font-size="10.00">+</text>
<text text-anchor="start" x="63.5" y="-189" font-family="Helvetica,sans-Serif" font-size="10.00">validate()</text>
<polygon fill="#666666" stroke="#666666" points="21.5,-244 21.5,-244 158.5,-244 158.5,-244 21.5,-244"/>
<polygon fill="#666666" stroke="#666666" points="21.5,-229 21.5,-229 61.5,-229 61.5,-229 21.5,-229"/>
<polygon fill="#666666" stroke="#666666" points="61.5,-229 61.5,-229 158.5,-229 158.5,-229 61.5,-229"/>
<polygon fill="none" stroke="#666666" points="21,-182 21,-272 158,-272 158,-182 21,-182"/>
</a>
</g>
</g>
<!-- Node2&#45;&gt;Node1 -->
<g id="edge1_Node000001_Node000002" class="edge">
<title>Node2&#45;&gt;Node1</title>
<g id="a_edge1_Node000001_Node000002"><a xlink:title=" ">
<path fill="none" stroke="#63b8ff" d="M89.5,-181.71C89.5,-170.97 89.5,-159.17 89.5,-147.36"/>
<polygon fill="none" stroke="#63b8ff" points="89.5,-147.11 85.5,-141.11 89.5,-135.11 93.5,-141.11 89.5,-147.11"/>
</a>
</g>
<text text-anchor="middle" x="138.5" y="-156" font-family="Helvetica,sans-Serif" font-size="10.00" fill="grey"> +targetPortIdentity</text>
</g>
<!-- Node3 -->
<g id="Node000003" class="node">
<title>Node3</title>
<g id="a_Node000003"><a xlink:title=" ">
<polygon fill="white" stroke="transparent" points="146.5,-379 32.5,-379 32.5,-319 146.5,-319 146.5,-379"/>
<text text-anchor="start" x="37.5" y="-367" font-family="Helvetica,sans-Serif" font-size="10.00">std::array&lt; std::uint8</text>
<text text-anchor="start" x="73" y="-356" font-family="Helvetica,sans-Serif" font-size="10.00">_t, 8 &gt;</text>
<text text-anchor="start" x="48" y="-341" font-family="Helvetica,sans-Serif" font-size="10.00">+</text>
<text text-anchor="start" x="72.5" y="-341" font-family="Helvetica,sans-Serif" font-size="10.00">elements</text>
<text text-anchor="start" x="87.5" y="-326" font-family="Helvetica,sans-Serif" font-size="10.00"> </text>
<polygon fill="#666666" stroke="#666666" points="32.5,-351 32.5,-351 146.5,-351 146.5,-351 32.5,-351"/>
<polygon fill="#666666" stroke="#666666" points="32.5,-336 32.5,-336 70.5,-336 70.5,-336 32.5,-336"/>
<polygon fill="#666666" stroke="#666666" points="70.5,-336 70.5,-336 146.5,-336 146.5,-336 70.5,-336"/>
<polygon fill="none" stroke="#666666" points="32.5,-319 32.5,-379 146.5,-379 146.5,-319 32.5,-319"/>
</a>
</g>
</g>
<!-- Node3&#45;&gt;Node2 -->
<g id="edge2_Node000002_Node000003" class="edge">
<title>Node3&#45;&gt;Node2</title>
<g id="a_edge2_Node000002_Node000003"><a xlink:title=" ">
<path fill="none" stroke="#63b8ff" d="M89.5,-318.95C89.5,-308.55 89.5,-296.44 89.5,-284.52"/>
<polygon fill="none" stroke="#63b8ff" points="89.5,-284.24 85.5,-278.24 89.5,-272.24 93.5,-278.24 89.5,-284.24"/>
</a>
</g>
<text text-anchor="middle" x="129.5" y="-293" font-family="Helvetica,sans-Serif" font-size="10.00" fill="grey"> +clock_identity</text>
</g>
<!-- Node4 -->
<g id="Node000004" class="node">
<title>Node4</title>
<g id="a_Node000004"><a xlink:title=" ">
<polygon fill="white" stroke="transparent" points="132.5,-475 46.5,-475 46.5,-426 132.5,-426 132.5,-475"/>
<text text-anchor="start" x="51.5" y="-462.5" font-family="Helvetica,sans-Serif" font-size="10.00">std::array&lt; T &gt;</text>
<text text-anchor="start" x="87.5" y="-447.5" font-family="Helvetica,sans-Serif" font-size="10.00"> </text>
<text text-anchor="start" x="87.5" y="-432.5" font-family="Helvetica,sans-Serif" font-size="10.00"> </text>
<polygon fill="#666666" stroke="#666666" points="46.5,-457.5 46.5,-457.5 132.5,-457.5 132.5,-457.5 46.5,-457.5"/>
<polygon fill="#666666" stroke="#666666" points="46.5,-442.5 46.5,-442.5 132.5,-442.5 132.5,-442.5 46.5,-442.5"/>
<polygon fill="none" stroke="#666666" points="46.5,-426 46.5,-475 132.5,-475 132.5,-426 46.5,-426"/>
</a>
</g>
</g>
<!-- Node4&#45;&gt;Node3 -->
<g id="edge3_Node000003_Node000004" class="edge">
<title>Node4&#45;&gt;Node3</title>
<g id="a_edge3_Node000003_Node000004"><a xlink:title=" ">
<path fill="none" stroke="orange" d="M89.5,-415.87C89.5,-403.94 89.5,-390.62 89.5,-379.1"/>
<polygon fill="orange" stroke="orange" points="86,-415.92 89.5,-425.92 93,-415.92 86,-415.92"/>
</a>
</g>
<text text-anchor="middle" x="136" y="-400" font-family="Helvetica,sans-Serif" font-size="10.00" fill="grey"> &lt; std::uint8_t, 8 &gt;</text>
</g>
<!-- Node5 -->
<g id="Node000005" class="node">
<title>Node5</title>
<g id="a_Node000005"><a xlink:title=" ">
<polygon fill="white" stroke="transparent" points="98,-571 81,-571 81,-522 98,-522 98,-571"/>
<text text-anchor="start" x="86.5" y="-558.5" font-family="Helvetica,sans-Serif" font-size="10.00">T</text>
<text text-anchor="start" x="88" y="-543.5" font-family="Helvetica,sans-Serif" font-size="10.00"> </text>
<text text-anchor="start" x="88" y="-528.5" font-family="Helvetica,sans-Serif" font-size="10.00"> </text>
<polygon fill="#666666" stroke="#666666" points="81.5,-553.5 81.5,-553.5 98.5,-553.5 98.5,-553.5 81.5,-553.5"/>
<polygon fill="#666666" stroke="#666666" points="81.5,-538.5 81.5,-538.5 98.5,-538.5 98.5,-538.5 81.5,-538.5"/>
<polygon fill="none" stroke="#666666" points="81,-522 81,-571 98,-571 98,-522 81,-522"/>
</a>
</g>
</g>
<!-- Node5&#45;&gt;Node4 -->
<g id="edge4_Node000004_Node000005" class="edge">
<title>Node5&#45;&gt;Node4</title>
<g id="a_edge4_Node000004_Node000005"><a xlink:title=" ">
<path fill="none" stroke="#63b8ff" d="M89.5,-521.78C89.5,-511.32 89.5,-498.79 89.5,-487.23"/>
<polygon fill="none" stroke="#63b8ff" points="89.5,-487.21 85.5,-481.21 89.5,-475.21 93.5,-481.21 89.5,-487.21"/>
</a>
</g>
<text text-anchor="middle" x="118.5" y="-496" font-family="Helvetica,sans-Serif" font-size="10.00" fill="grey"> +elements</text>
</g>
</g>
</svg>
