<?xml version="1.0" encoding="UTF-8" standalone="no"?>
<!DOCTYPE svg PUBLIC "-//W3C//DTD SVG 1.1//EN"
 "http://www.w3.org/Graphics/SVG/1.1/DTD/svg11.dtd">
<!-- Generated by graphviz version 2.43.0 (0)
 -->
<!-- Title: IEEE::_1588::PTP::_2019::Clocks::SynchronizationData::calculateOffset Pages: 1 -->
<!--zoomable 530 -->

<svg id="main" version="1.1" xmlns="http://www.w3.org/2000/svg" xmlns:xlink="http://www.w3.org/1999/xlink" xml:space="preserve" onload="init(evt)">
<style type="text/css"><![CDATA[
.node, .edge {opacity: 0.7;}
.node.selected, .edge.selected {opacity: 1;}
.edge:hover path { stroke: red; }
.edge:hover polygon { stroke: red; fill: red; }
]]></style>

<defs>
  <circle id="rim" cx="0" cy="0" r="7"/>
  <circle id="rim2" cx="0" cy="0" r="3.5"/>
  <g id="zoomPlus">
    <use xlink:href="#rim" fill="#404040"><set attributeName="fill" to="#808080" begin="zoomplus.mouseover" end="zoomplus.mouseout"/></use>
    <path d="M-4,0h8M0,-4v8" fill="none" stroke="white" stroke-width="1.5" pointer-events="none"/>
  </g>
  <g id="zoomMin">
    <use xlink:href="#rim" fill="#404040"><set attributeName="fill" to="#808080" begin="zoomminus.mouseover" end="zoomminus.mouseout"/></use>
    <path d="M-4,0h8" fill="none" stroke="white" stroke-width="1.5" pointer-events="none"/>
  </g>
  <g id="arrowUp" transform="translate(30 24)">
    <use xlink:href="#rim"/>
    <path pointer-events="none" fill="none" stroke="white" stroke-width="1.5" d="M0,-3.0v7 M-2.5,-0.5L0,-3.0L2.5,-0.5"/>
  </g>
  <g id="arrowRight" transform="rotate(90) translate(36 -43)">
    <use xlink:href="#rim"/>
    <path pointer-events="none" fill="none" stroke="white" stroke-width="1.5" d="M0,-3.0v7 M-2.5,-0.5L0,-3.0L2.5,-0.5"/>
  </g>
  <g id="arrowDown" transform="rotate(180) translate(-30 -48)">
    <use xlink:href="#rim"/>
    <path pointer-events="none" fill="none" stroke="white" stroke-width="1.5" d="M0,-3.0v7 M-2.5,-0.5L0,-3.0L2.5,-0.5"/>
  </g>
  <g id="arrowLeft" transform="rotate(270) translate(-36 17)">
    <use xlink:href="#rim"/>
    <path pointer-events="none" fill="none" stroke="white" stroke-width="1.5" d="M0,-3.0v7 M-2.5,-0.5L0,-3.0L2.5,-0.5"/>
  </g>
  <g id="resetDef">
    <use xlink:href="#rim2" fill="#404040"><set attributeName="fill" to="#808080" begin="reset.mouseover" end="reset.mouseout"/></use>
  </g>
</defs>
<script type="application/ecmascript">
var viewWidth = 906;
var viewHeight = 530;
var sectionId = 'dynsection-1';
</script>
<script type="application/ecmascript" xlink:href="../../svg.min.js"/>
<svg id="graph" class="graph">
<g id="viewport">
<title>IEEE::_1588::PTP::_2019::Clocks::SynchronizationData::calculateOffset</title>
<!-- Node1 -->
<g id="Node000001" class="node">
<title>Node1</title>
<g id="a_Node000001"><a xlink:title="Calculate offset from master using timestamps.">
<polygon fill="#999999" stroke="#666666" points="168,-275 0,-275 0,-234 168,-234 168,-275"/>
<text text-anchor="start" x="8" y="-263" font-family="Helvetica,sans-Serif" font-size="10.00">IEEE::_1588::PTP::</text>
<text text-anchor="start" x="8" y="-252" font-family="Helvetica,sans-Serif" font-size="10.00">_2019::Clocks::Synchronization</text>
<text text-anchor="middle" x="84" y="-241" font-family="Helvetica,sans-Serif" font-size="10.00">Data::calculateOffset</text>
</a>
</g>
</g>
<!-- Node2 -->
<g id="Node000002" class="node">
<title>Node2</title>
<g id="a_Node000002"><a xlink:href="../../d2/d59/namespaceCommon_1_1utils_1_1logging.html#abd4d1491b89d46b3c1a23c3215e05aa9" target="_top" xlink:title=" ">
<polygon fill="white" stroke="#666666" points="345.5,-477.5 215.5,-477.5 215.5,-447.5 345.5,-447.5 345.5,-477.5"/>
<text text-anchor="start" x="223.5" y="-465.5" font-family="Helvetica,sans-Serif" font-size="10.00">Common::utils::logging</text>
<text text-anchor="middle" x="280.5" y="-454.5" font-family="Helvetica,sans-Serif" font-size="10.00">::debug</text>
</a>
</g>
</g>
<!-- Node1&#45;&gt;Node2 -->
<g id="edge1_Node000001_Node000002" class="edge">
<title>Node1&#45;&gt;Node2</title>
<g id="a_edge1_Node000001_Node000002"><a xlink:title=" ">
<path fill="none" stroke="#63b8ff" d="M92.91,-275.06C108.45,-312.76 146.53,-393.18 204,-437.5 206.44,-439.38 209.02,-441.12 211.71,-442.73"/>
<polygon fill="#63b8ff" stroke="#63b8ff" points="210.12,-445.85 220.59,-447.46 213.41,-439.67 210.12,-445.85"/>
</a>
</g>
</g>
<!-- Node5 -->
<g id="Node000005" class="node">
<title>Node5</title>
<g id="a_Node000005"><a xlink:href="../../d2/d0d/namespaceCommon_1_1utils_1_1health.html#a039bc597c3de1a97c0f78590dc2a51f8" target="_top" xlink:title=" ">
<polygon fill="white" stroke="#666666" points="343,-339.5 218,-339.5 218,-309.5 343,-309.5 343,-339.5"/>
<text text-anchor="start" x="226" y="-327.5" font-family="Helvetica,sans-Serif" font-size="10.00">Common::utils::health</text>
<text text-anchor="middle" x="280.5" y="-316.5" font-family="Helvetica,sans-Serif" font-size="10.00">::emit</text>
</a>
</g>
</g>
<!-- Node1&#45;&gt;Node5 -->
<g id="edge4_Node000001_Node000005" class="edge">
<title>Node1&#45;&gt;Node5</title>
<g id="a_edge4_Node000001_Node000005"><a xlink:title=" ">
<path fill="none" stroke="#63b8ff" d="M142.04,-275.03C169.3,-284.84 201.66,-296.49 228.14,-306.02"/>
<polygon fill="#63b8ff" stroke="#63b8ff" points="227.02,-309.33 237.61,-309.42 229.39,-302.74 227.02,-309.33"/>
</a>
</g>
</g>
<!-- Node9 -->
<g id="Node000009" class="node">
<title>Node9</title>
<g id="a_Node000009"><a xlink:href="../../df/db5/namespaceCommon_1_1utils_1_1fi.html#a559225123b8c3e95a1a93186fb7aba1c" target="_top" xlink:title=" ">
<polygon fill="white" stroke="#666666" points="727,-243.5 596,-243.5 596,-213.5 727,-213.5 727,-243.5"/>
<text text-anchor="start" x="604" y="-231.5" font-family="Helvetica,sans-Serif" font-size="10.00">Common::utils::fi::</text>
<text text-anchor="middle" x="661.5" y="-220.5" font-family="Helvetica,sans-Serif" font-size="10.00">is_offset_jitter_enabled</text>
</a>
</g>
</g>
<!-- Node1&#45;&gt;Node9 -->
<g id="edge18_Node000001_Node000009" class="edge">
<title>Node1&#45;&gt;Node9</title>
<g id="a_edge18_Node000001_Node000009"><a xlink:title=" ">
<path fill="none" stroke="#63b8ff" d="M168.07,-250.75C280.09,-245.69 477.93,-236.75 585.6,-231.88"/>
<polygon fill="#63b8ff" stroke="#63b8ff" points="585.9,-235.37 595.73,-231.43 585.58,-228.38 585.9,-235.37"/>
</a>
</g>
</g>
<!-- Node15 -->
<g id="Node000015" class="node">
<title>Node15</title>
<g id="a_Node000015"><a xlink:href="../../df/db5/namespaceCommon_1_1utils_1_1fi.html#a38bf85a4ce24939548abd7b9466b65a9" target="_top" xlink:title=" ">
<polygon fill="white" stroke="#666666" points="335.5,-207.5 225.5,-207.5 225.5,-177.5 335.5,-177.5 335.5,-207.5"/>
<text text-anchor="start" x="233.5" y="-195.5" font-family="Helvetica,sans-Serif" font-size="10.00">Common::utils::fi::</text>
<text text-anchor="middle" x="280.5" y="-184.5" font-family="Helvetica,sans-Serif" font-size="10.00">get_offset_jitter_ns</text>
</a>
</g>
</g>
<!-- Node1&#45;&gt;Node15 -->
<g id="edge14_Node000001_Node000015" class="edge">
<title>Node1&#45;&gt;Node15</title>
<g id="a_edge14_Node000001_Node000015"><a xlink:title=" ">
<path fill="none" stroke="#63b8ff" d="M149.5,-233.94C173.2,-226.38 199.85,-217.89 222.81,-210.57"/>
<polygon fill="#63b8ff" stroke="#63b8ff" points="223.95,-213.88 232.41,-207.51 221.82,-207.21 223.95,-213.88"/>
</a>
</g>
</g>
<!-- Node17 -->
<g id="Node000017" class="node">
<title>Node17</title>
<g id="a_Node000017"><a xlink:href="../../da/d3c/namespaceCommon_1_1utils_1_1metrics.html#a03bb1ad6c5348aaaf75d0217bbb2dd63" target="_top" xlink:title=" ">
<polygon fill="white" stroke="#666666" points="540,-435.5 409,-435.5 409,-405.5 540,-405.5 540,-435.5"/>
<text text-anchor="start" x="417" y="-423.5" font-family="Helvetica,sans-Serif" font-size="10.00">Common::utils::metrics</text>
<text text-anchor="middle" x="474.5" y="-412.5" font-family="Helvetica,sans-Serif" font-size="10.00">::increment</text>
</a>
</g>
</g>
<!-- Node1&#45;&gt;Node17 -->
<g id="edge16_Node000001_Node000017" class="edge">
<title>Node1&#45;&gt;Node17</title>
<g id="a_edge16_Node000001_Node000017"><a xlink:title=" ">
<path fill="none" stroke="#63b8ff" d="M105.52,-275.09C127.88,-296.41 165.64,-329.26 204,-348.5 204.59,-348.79 327.59,-381.61 407.2,-402.83"/>
<polygon fill="#63b8ff" stroke="#63b8ff" points="406.6,-406.29 417.16,-405.49 408.4,-399.53 406.6,-406.29"/>
</a>
</g>
</g>
<!-- Node18 -->
<g id="Node000018" class="node">
<title>Node18</title>
<g id="a_Node000018"><a xlink:href="../../d6/d47/namespaceCommon_1_1utils_1_1config.html#a4104eaaedd5621f36f75fb32b41199e6" target="_top" xlink:title=" ">
<polygon fill="white" stroke="#666666" points="357,-159 204,-159 204,-118 357,-118 357,-159"/>
<text text-anchor="start" x="212" y="-147" font-family="Helvetica,sans-Serif" font-size="10.00">Common::utils::config</text>
<text text-anchor="start" x="212" y="-136" font-family="Helvetica,sans-Serif" font-size="10.00">::is_rounding_compensation</text>
<text text-anchor="middle" x="280.5" y="-125" font-family="Helvetica,sans-Serif" font-size="10.00">_enabled</text>
</a>
</g>
</g>
<!-- Node1&#45;&gt;Node18 -->
<g id="edge19_Node000001_Node000018" class="edge">
<title>Node1&#45;&gt;Node18</title>
<g id="a_edge19_Node000001_Node000018"><a xlink:title=" ">
<path fill="none" stroke="#63b8ff" d="M109.78,-233.78C133.05,-215.03 169.37,-187.51 204,-168.5 207.22,-166.73 210.56,-165.02 213.98,-163.36"/>
<polygon fill="#63b8ff" stroke="#63b8ff" points="215.53,-166.49 223.12,-159.1 212.58,-160.14 215.53,-166.49"/>
</a>
</g>
</g>
<!-- Node20 -->
<g id="Node000020" class="node">
<title>Node20</title>
<g id="a_Node000020"><a xlink:href="../../d2/d0d/namespaceCommon_1_1utils_1_1health.html#af3d82132a2848a060a48ea17cd3e3c74" target="_top" xlink:title=" ">
<polygon fill="white" stroke="#666666" points="537,-291.5 412,-291.5 412,-261.5 537,-261.5 537,-291.5"/>
<text text-anchor="start" x="420" y="-279.5" font-family="Helvetica,sans-Serif" font-size="10.00">Common::utils::health</text>
<text text-anchor="middle" x="474.5" y="-268.5" font-family="Helvetica,sans-Serif" font-size="10.00">::record_offset_ns</text>
</a>
</g>
</g>
<!-- Node1&#45;&gt;Node20 -->
<g id="edge21_Node000001_Node000020" class="edge">
<title>Node1&#45;&gt;Node20</title>
<g id="a_edge21_Node000001_Node000020"><a xlink:title=" ">
<path fill="none" stroke="#63b8ff" d="M168.34,-259.22C237.76,-263.15 335.59,-268.69 401.61,-272.43"/>
<polygon fill="#63b8ff" stroke="#63b8ff" points="401.75,-275.94 411.93,-273.01 402.14,-268.95 401.75,-275.94"/>
</a>
</g>
</g>
<!-- Node21 -->
<g id="Node000021" class="node">
<title>Node21</title>
<g id="a_Node000021"><a xlink:href="../../df/d1f/classIEEE_1_1__1588_1_1PTP_1_1__2019_1_1Types_1_1PTPResult.html#a873027aad818e35452ddab7583b7a7e5" target="_top" xlink:title="Create successful result (static method)">
<polygon fill="white" stroke="#666666" points="347.5,-100 213.5,-100 213.5,-59 347.5,-59 347.5,-100"/>
<text text-anchor="start" x="221.5" y="-88" font-family="Helvetica,sans-Serif" font-size="10.00">IEEE::_1588::PTP::</text>
<text text-anchor="start" x="221.5" y="-77" font-family="Helvetica,sans-Serif" font-size="10.00">_2019::Types::PTPResult</text>
<text text-anchor="middle" x="280.5" y="-66" font-family="Helvetica,sans-Serif" font-size="10.00">::success</text>
</a>
</g>
</g>
<!-- Node1&#45;&gt;Node21 -->
<g id="edge23_Node000001_Node000021" class="edge">
<title>Node1&#45;&gt;Node21</title>
<g id="a_edge23_Node000001_Node000021"><a xlink:title=" ">
<path fill="none" stroke="#63b8ff" d="M96.84,-233.96C115.77,-202.8 155.67,-143.51 204,-108.5 205.45,-107.45 206.94,-106.44 208.46,-105.45"/>
<polygon fill="#63b8ff" stroke="#63b8ff" points="210.64,-108.23 217.51,-100.17 207.11,-102.19 210.64,-108.23"/>
</a>
</g>
</g>
<!-- Node22 -->
<g id="Node000022" class="node">
<title>Node22</title>
<g id="a_Node000022"><a xlink:href="../../d6/df7/structIEEE_1_1__1588_1_1PTP_1_1__2019_1_1Types_1_1TimeInterval.html#a59657a3e53f13082a7ece9007e975e6b" target="_top" xlink:title="Convert to nanoseconds.">
<polygon fill="white" stroke="#666666" points="354.5,-41 206.5,-41 206.5,0 354.5,0 354.5,-41"/>
<text text-anchor="start" x="214.5" y="-29" font-family="Helvetica,sans-Serif" font-size="10.00">IEEE::_1588::PTP::</text>
<text text-anchor="start" x="214.5" y="-18" font-family="Helvetica,sans-Serif" font-size="10.00">_2019::Types::TimeInterval</text>
<text text-anchor="middle" x="280.5" y="-7" font-family="Helvetica,sans-Serif" font-size="10.00">::toNanoseconds</text>
</a>
</g>
</g>
<!-- Node1&#45;&gt;Node22 -->
<g id="edge24_Node000001_Node000022" class="edge">
<title>Node1&#45;&gt;Node22</title>
<g id="a_edge24_Node000001_Node000022"><a xlink:title=" ">
<path fill="none" stroke="#63b8ff" d="M91.65,-233.99C105.85,-193.25 142.92,-101.55 204,-49.5 205.14,-48.53 206.31,-47.59 207.51,-46.69"/>
<polygon fill="#63b8ff" stroke="#63b8ff" points="209.47,-49.58 215.84,-41.12 205.58,-43.77 209.47,-49.58"/>
</a>
</g>
</g>
<!-- Node23 -->
<g id="Node000023" class="node">
<title>Node23</title>
<g id="a_Node000023"><a xlink:href="../../d2/d59/namespaceCommon_1_1utils_1_1logging.html#a13808fa27e8709ab556ab27063fd6c97" target="_top" xlink:title=" ">
<polygon fill="white" stroke="#666666" points="345.5,-428.5 215.5,-428.5 215.5,-398.5 345.5,-398.5 345.5,-428.5"/>
<text text-anchor="start" x="223.5" y="-416.5" font-family="Helvetica,sans-Serif" font-size="10.00">Common::utils::logging</text>
<text text-anchor="middle" x="280.5" y="-405.5" font-family="Helvetica,sans-Serif" font-size="10.00">::warn</text>
</a>
</g>
</g>
<!-- Node1&#45;&gt;Node23 -->
<g id="edge25_Node000001_Node000023" class="edge">
<title>Node1&#45;&gt;Node23</title>
<g id="a_edge25_Node000001_Node000023"><a xlink:title=" ">
<path fill="none" stroke="#63b8ff" d="M99.3,-275.05C119.68,-302.98 159.55,-352.96 204,-383.5 209.7,-387.42 215.99,-390.93 222.43,-394.06"/>
<polygon fill="#63b8ff" stroke="#63b8ff" points="221.37,-397.42 231.93,-398.37 224.26,-391.05 221.37,-397.42"/>
</a>
</g>
</g>
<!-- Node3 -->
<g id="Node000003" class="node">
<title>Node3</title>
<g id="a_Node000003"><a xlink:href="../../d2/d59/namespaceCommon_1_1utils_1_1logging.html#ad30a8c57a6af65c91d9085ce0a592463" target="_top" xlink:title=" ">
<polygon fill="white" stroke="#666666" points="550,-473 399,-473 399,-454 550,-454 550,-473"/>
<text text-anchor="middle" x="474.5" y="-461" font-family="Helvetica,sans-Serif" font-size="10.00">Common::utils::logging::log</text>
</a>
</g>
</g>
<!-- Node2&#45;&gt;Node3 -->
<g id="edge2_Node000002_Node000003" class="edge">
<title>Node2&#45;&gt;Node3</title>
<g id="a_edge2_Node000002_Node000003"><a xlink:title=" ">
<path fill="none" stroke="#63b8ff" d="M345.7,-462.83C359.38,-462.91 374.04,-462.98 388.37,-463.06"/>
<polygon fill="#63b8ff" stroke="#63b8ff" points="388.71,-466.56 398.73,-463.11 388.75,-459.56 388.71,-466.56"/>
</a>
</g>
</g>
<!-- Node4 -->
<g id="Node000004" class="node">
<title>Node4</title>
<g id="a_Node000004"><a xlink:href="../../d2/d59/namespaceCommon_1_1utils_1_1logging.html#a0d4c11f80297a0645e32fad0fe3e4272" target="_top" xlink:title=" ">
<polygon fill="white" stroke="#666666" points="726.5,-521.5 596.5,-521.5 596.5,-491.5 726.5,-491.5 726.5,-521.5"/>
<text text-anchor="start" x="604.5" y="-509.5" font-family="Helvetica,sans-Serif" font-size="10.00">Common::utils::logging</text>
<text text-anchor="middle" x="661.5" y="-498.5" font-family="Helvetica,sans-Serif" font-size="10.00">::sink_ref</text>
</a>
</g>
</g>
<!-- Node3&#45;&gt;Node4 -->
<g id="edge3_Node000003_Node000004" class="edge">
<title>Node3&#45;&gt;Node4</title>
<g id="a_edge3_Node000003_Node000004"><a xlink:title=" ">
<path fill="none" stroke="#63b8ff" d="M516.56,-473.04C537.14,-477.83 562.71,-483.77 586.56,-489.31"/>
<polygon fill="#63b8ff" stroke="#63b8ff" points="585.77,-492.72 596.3,-491.58 587.35,-485.9 585.77,-492.72"/>
</a>
</g>
</g>
<!-- Node6 -->
<g id="Node000006" class="node">
<title>Node6</title>
<g id="a_Node000006"><a xlink:href="../../d5/d7e/namespaceCommon_1_1utils_1_1health_1_1detail.html#ad44220949fd128899e071696e6e472d4" target="_top" xlink:title=" ">
<polygon fill="white" stroke="#666666" points="537,-387.5 412,-387.5 412,-357.5 537,-357.5 537,-387.5"/>
<text text-anchor="start" x="420" y="-375.5" font-family="Helvetica,sans-Serif" font-size="10.00">Common::utils::health</text>
<text text-anchor="middle" x="474.5" y="-364.5" font-family="Helvetica,sans-Serif" font-size="10.00">::detail::observer</text>
</a>
</g>
</g>
<!-- Node5&#45;&gt;Node6 -->
<g id="edge5_Node000005_Node000006" class="edge">
<title>Node5&#45;&gt;Node6</title>
<g id="a_edge5_Node000005_Node000006"><a xlink:title=" ">
<path fill="none" stroke="#63b8ff" d="M341.72,-339.56C361.38,-344.47 383.37,-349.97 403.68,-355.04"/>
<polygon fill="#63b8ff" stroke="#63b8ff" points="402.94,-358.47 413.49,-357.5 404.64,-351.68 402.94,-358.47"/>
</a>
</g>
</g>
<!-- Node7 -->
<g id="Node000007" class="node">
<title>Node7</title>
<g id="a_Node000007"><a xlink:href="../../d2/d0d/namespaceCommon_1_1utils_1_1health.html#aec9746d507dc8131538845de04614675" target="_top" xlink:title=" ">
<polygon fill="white" stroke="#666666" points="537,-339.5 412,-339.5 412,-309.5 537,-309.5 537,-339.5"/>
<text text-anchor="start" x="420" y="-327.5" font-family="Helvetica,sans-Serif" font-size="10.00">Common::utils::health</text>
<text text-anchor="middle" x="474.5" y="-316.5" font-family="Helvetica,sans-Serif" font-size="10.00">::self_test</text>
</a>
</g>
</g>
<!-- Node5&#45;&gt;Node7 -->
<g id="edge6_Node000005_Node000007" class="edge">
<title>Node5&#45;&gt;Node7</title>
<g id="a_edge6_Node000005_Node000007"><a xlink:title=" ">
<path fill="none" stroke="#63b8ff" d="M343.04,-324.5C361.73,-324.5 382.43,-324.5 401.73,-324.5"/>
<polygon fill="#63b8ff" stroke="#63b8ff" points="401.98,-328 411.98,-324.5 401.98,-321 401.98,-328"/>
</a>
</g>
</g>
<!-- Node8 -->
<g id="Node000008" class="node">
<title>Node8</title>
<g id="a_Node000008"><a xlink:href="../../d5/d7e/namespaceCommon_1_1utils_1_1health_1_1detail.html#a35fac6eb49eb88a95a0eb9e8a37f9c46" target="_top" xlink:title=" ">
<polygon fill="white" stroke="#666666" points="730,-435.5 593,-435.5 593,-405.5 730,-405.5 730,-435.5"/>
<text text-anchor="start" x="601" y="-423.5" font-family="Helvetica,sans-Serif" font-size="10.00">Common::utils::health</text>
<text text-anchor="middle" x="661.5" y="-412.5" font-family="Helvetica,sans-Serif" font-size="10.00">::detail::bmca_tie_forced</text>
</a>
</g>
</g>
<!-- Node7&#45;&gt;Node8 -->
<g id="edge7_Node000007_Node000008" class="edge">
<title>Node7&#45;&gt;Node8</title>
<g id="a_edge7_Node000007_Node000008"><a xlink:title=" ">
<path fill="none" stroke="#63b8ff" d="M537.2,-338.36C543.84,-341.15 550.26,-344.5 556,-348.5 577.88,-363.74 570.49,-380.74 592,-396.5 594.05,-398 596.19,-399.41 598.41,-400.74"/>
<polygon fill="#63b8ff" stroke="#63b8ff" points="596.81,-403.85 607.28,-405.46 600.1,-397.67 596.81,-403.85"/>
</a>
</g>
</g>
<!-- Node7&#45;&gt;Node9 -->
<g id="edge8_Node000007_Node000009" class="edge">
<title>Node7&#45;&gt;Node9</title>
<g id="a_edge8_Node000007_Node000009"><a xlink:title=" ">
<path fill="none" stroke="#63b8ff" d="M537.2,-310.64C543.84,-307.85 550.26,-304.5 556,-300.5 577.88,-285.26 570.49,-268.26 592,-252.5 594.05,-251 596.19,-249.59 598.41,-248.26"/>
<polygon fill="#63b8ff" stroke="#63b8ff" points="600.1,-251.33 607.28,-243.54 596.81,-245.15 600.1,-251.33"/>
</a>
</g>
</g>
<!-- Node11 -->
<g id="Node000011" class="node">
<title>Node11</title>
<g id="a_Node000011"><a xlink:href="../../d5/d7e/namespaceCommon_1_1utils_1_1health_1_1detail.html#ac739d4b51b96e82b000ee9251f7d87ec" target="_top" xlink:title=" ">
<polygon fill="white" stroke="#666666" points="731,-387.5 592,-387.5 592,-357.5 731,-357.5 731,-387.5"/>
<text text-anchor="start" x="600" y="-375.5" font-family="Helvetica,sans-Serif" font-size="10.00">Common::utils::health</text>
<text text-anchor="middle" x="661.5" y="-364.5" font-family="Helvetica,sans-Serif" font-size="10.00">::detail::last_bmca_index</text>
</a>
</g>
</g>
<!-- Node7&#45;&gt;Node11 -->
<g id="edge10_Node000007_Node000011" class="edge">
<title>Node7&#45;&gt;Node11</title>
<g id="a_edge10_Node000007_Node000011"><a xlink:title=" ">
<path fill="none" stroke="#63b8ff" d="M533.53,-339.56C552.38,-344.45 573.47,-349.92 592.96,-354.98"/>
<polygon fill="#63b8ff" stroke="#63b8ff" points="592.12,-358.37 602.68,-357.5 593.88,-351.6 592.12,-358.37"/>
</a>
</g>
</g>
<!-- Node12 -->
<g id="Node000012" class="node">
<title>Node12</title>
<g id="a_Node000012"><a xlink:href="../../d5/d7e/namespaceCommon_1_1utils_1_1health_1_1detail.html#ae4b87c4bfd1a0f705bcf13248e6db814" target="_top" xlink:title=" ">
<polygon fill="white" stroke="#666666" points="724,-291.5 599,-291.5 599,-261.5 724,-261.5 724,-291.5"/>
<text text-anchor="start" x="607" y="-279.5" font-family="Helvetica,sans-Serif" font-size="10.00">Common::utils::health</text>
<text text-anchor="middle" x="661.5" y="-268.5" font-family="Helvetica,sans-Serif" font-size="10.00">::detail::last_offset_ns</text>
</a>
</g>
</g>
<!-- Node7&#45;&gt;Node12 -->
<g id="edge11_Node000007_Node000012" class="edge">
<title>Node7&#45;&gt;Node12</title>
<g id="a_edge11_Node000007_Node000012"><a xlink:title=" ">
<path fill="none" stroke="#63b8ff" d="M533.53,-309.44C552.38,-304.55 573.47,-299.08 592.96,-294.02"/>
<polygon fill="#63b8ff" stroke="#63b8ff" points="593.88,-297.4 602.68,-291.5 592.12,-290.63 593.88,-297.4"/>
</a>
</g>
</g>
<!-- Node13 -->
<g id="Node000013" class="node">
<title>Node13</title>
<g id="a_Node000013"><a xlink:href="../../da/d3c/namespaceCommon_1_1utils_1_1metrics.html#a91a447237c08bb1ce67d7a5a40b18341" target="_top" xlink:title=" ">
<polygon fill="white" stroke="#666666" points="727,-339.5 596,-339.5 596,-309.5 727,-309.5 727,-339.5"/>
<text text-anchor="start" x="604" y="-327.5" font-family="Helvetica,sans-Serif" font-size="10.00">Common::utils::metrics</text>
<text text-anchor="middle" x="661.5" y="-316.5" font-family="Helvetica,sans-Serif" font-size="10.00">::snapshot</text>
</a>
</g>
</g>
<!-- Node7&#45;&gt;Node13 -->
<g id="edge12_Node000007_Node000013" class="edge">
<title>Node7&#45;&gt;Node13</title>
<g id="a_edge12_Node000007_Node000013"><a xlink:title=" ">
<path fill="none" stroke="#63b8ff" d="M537.1,-324.5C552.62,-324.5 569.45,-324.5 585.55,-324.5"/>
<polygon fill="#63b8ff" stroke="#63b8ff" points="586,-328 596,-324.5 586,-321 586,-328"/>
</a>
</g>
</g>
<!-- Node10 -->
<g id="Node000010" class="node">
<title>Node10</title>
<g id="a_Node000010"><a xlink:href="../../df/d79/namespaceCommon_1_1utils_1_1fi_1_1detail.html#ab2140c4babb8f3b7306403e77d17d29f" target="_top" xlink:title=" ">
<polygon fill="white" stroke="#666666" points="886,-249 779,-249 779,-208 886,-208 886,-249"/>
<text text-anchor="start" x="787" y="-237" font-family="Helvetica,sans-Serif" font-size="10.00">Common::utils::fi::</text>
<text text-anchor="start" x="787" y="-226" font-family="Helvetica,sans-Serif" font-size="10.00">detail::offset_jitter</text>
<text text-anchor="middle" x="832.5" y="-215" font-family="Helvetica,sans-Serif" font-size="10.00">_enabled</text>
</a>
</g>
</g>
<!-- Node9&#45;&gt;Node10 -->
<g id="edge9_Node000009_Node000010" class="edge">
<title>Node9&#45;&gt;Node10</title>
<g id="a_edge9_Node000009_Node000010"><a xlink:title=" ">
<path fill="none" stroke="#63b8ff" d="M727.36,-228.5C740.93,-228.5 755.22,-228.5 768.72,-228.5"/>
<polygon fill="#63b8ff" stroke="#63b8ff" points="768.86,-232 778.86,-228.5 768.86,-225 768.86,-232"/>
</a>
</g>
</g>
<!-- Node14 -->
<g id="Node000014" class="node">
<title>Node14</title>
<g id="a_Node000014"><a xlink:href="../../d5/d53/namespaceCommon_1_1utils_1_1metrics_1_1detail.html#aa3719e4e32c969a881318a4788803429" target="_top" xlink:title=" ">
<polygon fill="white" stroke="#666666" points="898,-408.5 767,-408.5 767,-378.5 898,-378.5 898,-408.5"/>
<text text-anchor="start" x="775" y="-396.5" font-family="Helvetica,sans-Serif" font-size="10.00">Common::utils::metrics</text>
<text text-anchor="middle" x="832.5" y="-385.5" font-family="Helvetica,sans-Serif" font-size="10.00">::detail::counters</text>
</a>
</g>
</g>
<!-- Node13&#45;&gt;Node14 -->
<g id="edge13_Node000013_Node000014" class="edge">
<title>Node13&#45;&gt;Node14</title>
<g id="a_edge13_Node000013_Node000014"><a xlink:title=" ">
<path fill="none" stroke="#63b8ff" d="M707.29,-339.58C715.23,-342.43 723.39,-345.47 731,-348.5 750.81,-356.39 772.44,-365.95 790.54,-374.22"/>
<polygon fill="#63b8ff" stroke="#63b8ff" points="789.11,-377.42 799.66,-378.42 792.04,-371.06 789.11,-377.42"/>
</a>
</g>
</g>
<!-- Node16 -->
<g id="Node000016" class="node">
<title>Node16</title>
<g id="a_Node000016"><a xlink:href="../../df/d79/namespaceCommon_1_1utils_1_1fi_1_1detail.html#a1f0f6dafbdaac4f0597d7e453846a1b1" target="_top" xlink:title=" ">
<polygon fill="white" stroke="#666666" points="536,-205.5 413,-205.5 413,-175.5 536,-175.5 536,-205.5"/>
<text text-anchor="start" x="421" y="-193.5" font-family="Helvetica,sans-Serif" font-size="10.00">Common::utils::fi::</text>
<text text-anchor="middle" x="474.5" y="-182.5" font-family="Helvetica,sans-Serif" font-size="10.00">detail::offset_jitter_ns</text>
</a>
</g>
</g>
<!-- Node15&#45;&gt;Node16 -->
<g id="edge15_Node000015_Node000016" class="edge">
<title>Node15&#45;&gt;Node16</title>
<g id="a_edge15_Node000015_Node000016"><a xlink:title=" ">
<path fill="none" stroke="#63b8ff" d="M335.75,-191.93C356.62,-191.72 380.75,-191.47 402.94,-191.24"/>
<polygon fill="#63b8ff" stroke="#63b8ff" points="403.01,-194.73 412.97,-191.13 402.94,-187.73 403.01,-194.73"/>
</a>
</g>
</g>
<!-- Node17&#45;&gt;Node14 -->
<g id="edge17_Node000017_Node000014" class="edge">
<title>Node17&#45;&gt;Node14</title>
<g id="a_edge17_Node000017_Node000014"><a xlink:title=" ">
<path fill="none" stroke="#63b8ff" d="M529.06,-435.56C581.26,-447.9 662.54,-460.88 731,-444.5 755.81,-438.57 781.41,-425.45 800.56,-414.01"/>
<polygon fill="#63b8ff" stroke="#63b8ff" points="802.46,-416.95 809.15,-408.73 798.8,-410.98 802.46,-416.95"/>
</a>
</g>
</g>
<!-- Node19 -->
<g id="Node000019" class="node">
<title>Node19</title>
<g id="a_Node000019"><a xlink:href="../../d6/d47/namespaceCommon_1_1utils_1_1config.html#a9e95f4a96a3da415e836d88866144d39" target="_top" xlink:title=" ">
<polygon fill="white" stroke="#666666" points="556,-153.5 393,-153.5 393,-123.5 556,-123.5 556,-153.5"/>
<text text-anchor="start" x="401" y="-141.5" font-family="Helvetica,sans-Serif" font-size="10.00">Common::utils::config</text>
<text text-anchor="middle" x="474.5" y="-130.5" font-family="Helvetica,sans-Serif" font-size="10.00">::rounding_compensation_flag</text>
</a>
</g>
</g>
<!-- Node18&#45;&gt;Node19 -->
<g id="edge20_Node000018_Node000019" class="edge">
<title>Node18&#45;&gt;Node19</title>
<g id="a_edge20_Node000018_Node000019"><a xlink:title=" ">
<path fill="none" stroke="#63b8ff" d="M357.11,-138.5C365.56,-138.5 374.22,-138.5 382.83,-138.5"/>
<polygon fill="#63b8ff" stroke="#63b8ff" points="382.9,-142 392.9,-138.5 382.9,-135 382.9,-142"/>
</a>
</g>
</g>
<!-- Node20&#45;&gt;Node12 -->
<g id="edge22_Node000020_Node000012" class="edge">
<title>Node20&#45;&gt;Node12</title>
<g id="a_edge22_Node000020_Node000012"><a xlink:title=" ">
<path fill="none" stroke="#63b8ff" d="M537.1,-276.5C553.55,-276.5 571.48,-276.5 588.44,-276.5"/>
<polygon fill="#63b8ff" stroke="#63b8ff" points="588.85,-280 598.85,-276.5 588.85,-273 588.85,-280"/>
</a>
</g>
</g>
<!-- Node23&#45;&gt;Node3 -->
<g id="edge26_Node000023_Node000003" class="edge">
<title>Node23&#45;&gt;Node3</title>
<g id="a_edge26_Node000023_Node000003"><a xlink:title=" ">
<path fill="none" stroke="#63b8ff" d="M333.85,-428.51C352.48,-433.73 373.64,-439.53 393,-444.5 402.29,-446.89 412.21,-449.32 421.81,-451.62"/>
<polygon fill="#63b8ff" stroke="#63b8ff" points="421.1,-455.05 431.64,-453.95 422.72,-448.24 421.1,-455.05"/>
</a>
</g>
</g>
</g>
</svg>

<g id="navigator" transform="translate(0 0)" fill="#404254">
  <rect fill="#f2f5e9" fill-opacity="0.5" stroke="#606060" stroke-width=".5" x="0" y="0" width="60" height="60"/>
  <use id="zoomplus" xlink:href="#zoomPlus" x="17" y="9" onmousedown="handleZoom(evt,'in')"/>
  <use id="zoomminus" xlink:href="#zoomMin" x="42" y="9" onmousedown="handleZoom(evt,'out')"/>
  <use id="reset" xlink:href="#resetDef" x="30" y="36" onmousedown="handleReset()"/>
   <use id="arrowup" xlink:href="#arrowUp" x="0" y="0" onmousedown="handlePan(0,-1)"/>
  <use id="arrowright" xlink:href="#arrowRight" x="0" y="0" onmousedown="handlePan(1,0)"/>
  <use id="arrowdown" xlink:href="#arrowDown" x="0" y="0" onmousedown="handlePan(0,1)"/>
  <use id="arrowleft" xlink:href="#arrowLeft" x="0" y="0" onmousedown="handlePan(-1,0)"/>
</g>
<svg viewBox="0 0 15 15" width="100%" height="30px" preserveAspectRatio="xMaxYMin meet">
 <g id="arrow_out" transform="scale(0.3 0.3)">
  <a xlink:href="structIEEE_1_1__1588_1_1PTP_1_1__2019_1_1Clocks_1_1SynchronizationData_a678490ba0932bf8bcdbe56c5b278e48f_cgraph_org.svg" target="_base">
   <rect id="button" ry="5" rx="5" y="6" x="6" height="38" width="38"
        fill="#f2f5e9" fill-opacity="0.5" stroke="#606060" stroke-width="1.0"/>
   <path id="arrow"
     d="M 11.500037,31.436501 C 11.940474,20.09759 22.043105,11.32322 32.158766,21.979434 L 37.068811,17.246167 C 37.068811,17.246167 37.088388,32 37.088388,32 L 22.160133,31.978069 C 22.160133,31.978069 26.997745,27.140456 26.997745,27.140456 C 18.528582,18.264221 13.291696,25.230495 11.500037,31.436501 z"
     style="fill:#404040;"/>
  </a>
 </g>
</svg>

<style type='text/css'>
<![CDATA[
[data-mouse-over-selected='false'] { opacity: 0.7; }
[data-mouse-over-selected='true']  { opacity: 1.0; }
]]>
</style>
<script type="application/ecmascript"><![CDATA[
document.addEventListener('DOMContentLoaded', (event) => {
  highlightEdges();
  highlightAdjacentNodes();
});
]]></script>
</svg>
