<?xml version="1.0" encoding="UTF-8" standalone="no"?>
<!DOCTYPE svg PUBLIC "-//W3C//DTD SVG 1.1//EN"
 "http://www.w3.org/Graphics/SVG/1.1/DTD/svg11.dtd">
<!-- Generated by graphviz version 2.43.0 (0)
 -->
<!-- Title: IEEE::_1588::PTP::_2019::SyncStatistics::reset Pages: 1 -->
<svg width="504pt" height="108pt"
 viewBox="0.00 0.00 504.00 108.00" xmlns="http://www.w3.org/2000/svg" xmlns:xlink="http://www.w3.org/1999/xlink">
<g id="graph0" class="graph" transform="scale(1 1) rotate(0) translate(4 104)">
<title>IEEE::_1588::PTP::_2019::SyncStatistics::reset</title>
<!-- Node1 -->
<g id="Node000001" class="node">
<title>Node1</title>
<g id="a_Node000001"><a xlink:title="Reset all statistics to initial state.">
<polygon fill="#999999" stroke="#666666" points="496,-70 376,-70 376,-29 496,-29 496,-70"/>
<text text-anchor="start" x="384" y="-58" font-family="Helvetica,sans-Serif" font-size="10.00">IEEE::_1588::PTP::</text>
<text text-anchor="start" x="384" y="-47" font-family="Helvetica,sans-Serif" font-size="10.00">_2019::SyncStatistics</text>
<text text-anchor="middle" x="436" y="-36" font-family="Helvetica,sans-Serif" font-size="10.00">::reset</text>
</a>
</g>
</g>
<!-- Node2 -->
<g id="Node000002" class="node">
<title>Node2</title>
<g id="a_Node000002"><a xlink:href="../../d1/d29/classIEEE_1_1__1588_1_1PTP_1_1__2019_1_1SyncIntegration.html#a111a9652c40512f6c3f79fcca1e4dfff" target="_top" xlink:title="Reset all statistics and health indicators.">
<polygon fill="white" stroke="#666666" points="340,-100 212,-100 212,-59 340,-59 340,-100"/>
<text text-anchor="start" x="220" y="-88" font-family="Helvetica,sans-Serif" font-size="10.00">IEEE::_1588::PTP::</text>
<text text-anchor="start" x="220" y="-77" font-family="Helvetica,sans-Serif" font-size="10.00">_2019::SyncIntegration</text>
<text text-anchor="middle" x="276" y="-66" font-family="Helvetica,sans-Serif" font-size="10.00">::reset</text>
</a>
</g>
</g>
<!-- Node1&#45;&gt;Node2 -->
<g id="edge1_Node000001_Node000002" class="edge">
<title>Node1&#45;&gt;Node2</title>
<g id="a_edge1_Node000001_Node000002"><a xlink:title=" ">
<path fill="none" stroke="#63b8ff" d="M365.77,-62.64C357.22,-64.27 348.51,-65.92 340.05,-67.53"/>
<polygon fill="#63b8ff" stroke="#63b8ff" points="366.55,-66.06 375.72,-60.76 365.24,-59.18 366.55,-66.06"/>
</a>
</g>
</g>
<!-- Node3 -->
<g id="Node000003" class="node">
<title>Node3</title>
<g id="a_Node000003"><a xlink:href="../../d1/d29/classIEEE_1_1__1588_1_1PTP_1_1__2019_1_1SyncIntegration.html#ab18dedbcb23a91f6f1a9f541124ed6f2" target="_top" xlink:title="Start synchronization monitoring.">
<polygon fill="white" stroke="#666666" points="340,-41 212,-41 212,0 340,0 340,-41"/>
<text text-anchor="start" x="220" y="-29" font-family="Helvetica,sans-Serif" font-size="10.00">IEEE::_1588::PTP::</text>
<text text-anchor="start" x="220" y="-18" font-family="Helvetica,sans-Serif" font-size="10.00">_2019::SyncIntegration</text>
<text text-anchor="middle" x="276" y="-7" font-family="Helvetica,sans-Serif" font-size="10.00">::start</text>
</a>
</g>
</g>
<!-- Node1&#45;&gt;Node3 -->
<g id="edge2_Node000001_Node000003" class="edge">
<title>Node1&#45;&gt;Node3</title>
<g id="a_edge2_Node000001_Node000003"><a xlink:title=" ">
<path fill="none" stroke="#63b8ff" d="M365.77,-36.79C357.22,-35.22 348.51,-33.62 340.05,-32.07"/>
<polygon fill="#63b8ff" stroke="#63b8ff" points="365.25,-40.26 375.72,-38.62 366.51,-33.37 365.25,-40.26"/>
</a>
</g>
</g>
<!-- Node4 -->
<g id="Node000004" class="node">
<title>Node4</title>
<g id="a_Node000004"><a xlink:href="../../d3/d1e/classIEEE_1_1__1588_1_1PTP_1_1__2019_1_1MessageFlowCoordinator.html#ae5378f7adda0a2d9a93dcb7979b1a44b" target="_top" xlink:title="Start message flow processing.">
<polygon fill="white" stroke="#666666" points="176,-41 0,-41 0,0 176,0 176,-41"/>
<text text-anchor="start" x="8" y="-29" font-family="Helvetica,sans-Serif" font-size="10.00">IEEE::_1588::PTP::</text>
<text text-anchor="start" x="8" y="-18" font-family="Helvetica,sans-Serif" font-size="10.00">_2019::MessageFlowCoordinator</text>
<text text-anchor="middle" x="88" y="-7" font-family="Helvetica,sans-Serif" font-size="10.00">::start</text>
</a>
</g>
</g>
<!-- Node3&#45;&gt;Node4 -->
<g id="edge3_Node000003_Node000004" class="edge">
<title>Node3&#45;&gt;Node4</title>
<g id="a_edge3_Node000003_Node000004"><a xlink:title=" ">
<path fill="none" stroke="#63b8ff" d="M201.66,-20.5C193.27,-20.5 184.66,-20.5 176.11,-20.5"/>
<polygon fill="#63b8ff" stroke="#63b8ff" points="201.77,-24 211.77,-20.5 201.77,-17 201.77,-24"/>
</a>
</g>
</g>
</g>
</svg>
