<?xml version="1.0" encoding="UTF-8" standalone="no"?>
<!DOCTYPE svg PUBLIC "-//W3C//DTD SVG 1.1//EN"
 "http://www.w3.org/Graphics/SVG/1.1/DTD/svg11.dtd">
<!-- Generated by graphviz version 2.43.0 (0)
 -->
<!-- Title: IEEE::_1588::PTP::_2019::AnnounceBody Pages: 1 -->
<svg width="312pt" height="682pt"
 viewBox="0.00 0.00 311.50 682.00" xmlns="http://www.w3.org/2000/svg" xmlns:xlink="http://www.w3.org/1999/xlink">
<g id="graph0" class="graph" transform="scale(1 1) rotate(0) translate(4 678)">
<title>IEEE::_1588::PTP::_2019::AnnounceBody</title>
<!-- Node1 -->
<g id="Node000001" class="node">
<title>Node1</title>
<g id="a_Node000001"><a xlink:title="Announce message body for Best Master Clock Algorithm.">
<polygon fill="#999999" stroke="transparent" points="204,-180 49,-180 49,0 204,0 204,-180"/>
<text text-anchor="start" x="72.5" y="-168" font-family="Helvetica,sans-Serif" font-size="10.00">IEEE::_1588::PTP::</text>
<text text-anchor="start" x="72.5" y="-157" font-family="Helvetica,sans-Serif" font-size="10.00">_2019::AnnounceBody</text>
<text text-anchor="start" x="53.5" y="-142" font-family="Helvetica,sans-Serif" font-size="10.00">+</text>
<text text-anchor="start" x="66.5" y="-142" font-family="Helvetica,sans-Serif" font-size="10.00">currentUtcOffset</text>
<text text-anchor="start" x="53.5" y="-127" font-family="Helvetica,sans-Serif" font-size="10.00">+</text>
<text text-anchor="start" x="66.5" y="-127" font-family="Helvetica,sans-Serif" font-size="10.00">reserved</text>
<text text-anchor="start" x="53.5" y="-112" font-family="Helvetica,sans-Serif" font-size="10.00">+</text>
<text text-anchor="start" x="66.5" y="-112" font-family="Helvetica,sans-Serif" font-size="10.00">grandmasterPriority1</text>
<text text-anchor="start" x="53.5" y="-97" font-family="Helvetica,sans-Serif" font-size="10.00">+</text>
<text text-anchor="start" x="66.5" y="-97" font-family="Helvetica,sans-Serif" font-size="10.00">grandmasterClockClass</text>
<text text-anchor="start" x="53.5" y="-82" font-family="Helvetica,sans-Serif" font-size="10.00">+</text>
<text text-anchor="start" x="66.5" y="-82" font-family="Helvetica,sans-Serif" font-size="10.00">grandmasterClockAccuracy</text>
<text text-anchor="start" x="53.5" y="-67" font-family="Helvetica,sans-Serif" font-size="10.00">+</text>
<text text-anchor="start" x="66.5" y="-67" font-family="Helvetica,sans-Serif" font-size="10.00">grandmasterClockVariance</text>
<text text-anchor="start" x="53.5" y="-52" font-family="Helvetica,sans-Serif" font-size="10.00">+</text>
<text text-anchor="start" x="66.5" y="-52" font-family="Helvetica,sans-Serif" font-size="10.00">grandmasterPriority2</text>
<text text-anchor="start" x="53.5" y="-37" font-family="Helvetica,sans-Serif" font-size="10.00">+</text>
<text text-anchor="start" x="66.5" y="-37" font-family="Helvetica,sans-Serif" font-size="10.00">stepsRemoved</text>
<text text-anchor="start" x="53.5" y="-22" font-family="Helvetica,sans-Serif" font-size="10.00">+</text>
<text text-anchor="start" x="66.5" y="-22" font-family="Helvetica,sans-Serif" font-size="10.00">timeSource</text>
<text text-anchor="start" x="53.5" y="-7" font-family="Helvetica,sans-Serif" font-size="10.00">+</text>
<text text-anchor="start" x="66.5" y="-7" font-family="Helvetica,sans-Serif" font-size="10.00">validate()</text>
<polygon fill="#666666" stroke="#666666" points="49.5,-152 49.5,-152 204.5,-152 204.5,-152 49.5,-152"/>
<polygon fill="#666666" stroke="#666666" points="49.5,-17 49.5,-17 64.5,-17 64.5,-17 49.5,-17"/>
<polygon fill="#666666" stroke="#666666" points="64.5,-17 64.5,-17 204.5,-17 204.5,-17 64.5,-17"/>
<polygon fill="none" stroke="#666666" points="49,0 49,-180 204,-180 204,0 49,0"/>
</a>
</g>
</g>
<!-- Node2 -->
<g id="Node000002" class="node">
<title>Node2</title>
<g id="a_Node000002"><a xlink:href="../../d4/d6e/structIEEE_1_1__1588_1_1PTP_1_1__2019_1_1Types_1_1Timestamp.html" target="_top" xlink:title="PTP Timestamp &#45; seconds and nanoseconds representation.">
<polygon fill="white" stroke="transparent" points="135,-482 0,-482 0,-227 135,-227 135,-482"/>
<text text-anchor="start" x="5.5" y="-469.5" font-family="Helvetica,sans-Serif" font-size="10.00">IEEE::_1588::PTP::</text>
<text text-anchor="start" x="5.5" y="-458.5" font-family="Helvetica,sans-Serif" font-size="10.00">_2019::Types::Timestamp</text>
<text text-anchor="start" x="11" y="-443.5" font-family="Helvetica,sans-Serif" font-size="10.00">+</text>
<text text-anchor="start" x="30.5" y="-443.5" font-family="Helvetica,sans-Serif" font-size="10.00">seconds_high</text>
<text text-anchor="start" x="11" y="-428.5" font-family="Helvetica,sans-Serif" font-size="10.00">+</text>
<text text-anchor="start" x="30.5" y="-428.5" font-family="Helvetica,sans-Serif" font-size="10.00">seconds_low</text>
<text text-anchor="start" x="11" y="-413.5" font-family="Helvetica,sans-Serif" font-size="10.00">+</text>
<text text-anchor="start" x="30.5" y="-413.5" font-family="Helvetica,sans-Serif" font-size="10.00">nanoseconds</text>
<text text-anchor="start" x="11" y="-398.5" font-family="Helvetica,sans-Serif" font-size="10.00">+</text>
<text text-anchor="start" x="30.5" y="-398.5" font-family="Helvetica,sans-Serif" font-size="10.00">getTotalSeconds()</text>
<text text-anchor="start" x="11" y="-383.5" font-family="Helvetica,sans-Serif" font-size="10.00">+</text>
<text text-anchor="start" x="30.5" y="-383.5" font-family="Helvetica,sans-Serif" font-size="10.00">setTotalSeconds()</text>
<text text-anchor="start" x="11" y="-368.5" font-family="Helvetica,sans-Serif" font-size="10.00">+</text>
<text text-anchor="start" x="30.5" y="-368.5" font-family="Helvetica,sans-Serif" font-size="10.00">isValid()</text>
<text text-anchor="start" x="11" y="-353.5" font-family="Helvetica,sans-Serif" font-size="10.00">+</text>
<text text-anchor="start" x="30.5" y="-353.5" font-family="Helvetica,sans-Serif" font-size="10.00">validate()</text>
<text text-anchor="start" x="11" y="-338.5" font-family="Helvetica,sans-Serif" font-size="10.00">+</text>
<text text-anchor="start" x="30.5" y="-338.5" font-family="Helvetica,sans-Serif" font-size="10.00">operator&lt;()</text>
<text text-anchor="start" x="11" y="-323.5" font-family="Helvetica,sans-Serif" font-size="10.00">+</text>
<text text-anchor="start" x="30.5" y="-323.5" font-family="Helvetica,sans-Serif" font-size="10.00">operator&gt;()</text>
<text text-anchor="start" x="11" y="-308.5" font-family="Helvetica,sans-Serif" font-size="10.00">+</text>
<text text-anchor="start" x="30.5" y="-308.5" font-family="Helvetica,sans-Serif" font-size="10.00">operator&lt;=()</text>
<text text-anchor="start" x="11" y="-293.5" font-family="Helvetica,sans-Serif" font-size="10.00">+</text>
<text text-anchor="start" x="30.5" y="-293.5" font-family="Helvetica,sans-Serif" font-size="10.00">operator&gt;=()</text>
<text text-anchor="start" x="11" y="-278.5" font-family="Helvetica,sans-Serif" font-size="10.00">+</text>
<text text-anchor="start" x="30.5" y="-278.5" font-family="Helvetica,sans-Serif" font-size="10.00">operator==()</text>
<text text-anchor="start" x="11" y="-263.5" font-family="Helvetica,sans-Serif" font-size="10.00">+</text>
<text text-anchor="start" x="30.5" y="-263.5" font-family="Helvetica,sans-Serif" font-size="10.00">operator!=()</text>
<text text-anchor="start" x="11" y="-248.5" font-family="Helvetica,sans-Serif" font-size="10.00">+</text>
<text text-anchor="start" x="30.5" y="-248.5" font-family="Helvetica,sans-Serif" font-size="10.00">operator&#45;()</text>
<text text-anchor="start" x="11" y="-233.5" font-family="Helvetica,sans-Serif" font-size="10.00">+</text>
<text text-anchor="start" x="30.5" y="-233.5" font-family="Helvetica,sans-Serif" font-size="10.00">operator*()</text>
<polygon fill="#666666" stroke="#666666" points="0.5,-453.5 0.5,-453.5 135.5,-453.5 135.5,-453.5 0.5,-453.5"/>
<polygon fill="#666666" stroke="#666666" points="0.5,-408.5 0.5,-408.5 28.5,-408.5 28.5,-408.5 0.5,-408.5"/>
<polygon fill="#666666" stroke="#666666" points="28.5,-408.5 28.5,-408.5 135.5,-408.5 135.5,-408.5 28.5,-408.5"/>
<polygon fill="none" stroke="#666666" points="0,-227 0,-482 135,-482 135,-227 0,-227"/>
</a>
</g>
</g>
<!-- Node2&#45;&gt;Node1 -->
<g id="edge1_Node000001_Node000002" class="edge">
<title>Node2&#45;&gt;Node1</title>
<g id="a_edge1_Node000001_Node000002"><a xlink:title=" ">
<path fill="none" stroke="#63b8ff" d="M74.63,-226.91C76.24,-217.06 78.17,-207.33 80.5,-198 81.01,-195.98 81.54,-193.94 82.11,-191.9"/>
<polygon fill="none" stroke="#63b8ff" points="82.19,-191.66 80.11,-184.75 85.68,-180.18 87.76,-187.08 82.19,-191.66"/>
</a>
</g>
<text text-anchor="middle" x="128" y="-201" font-family="Helvetica,sans-Serif" font-size="10.00" fill="grey"> +originTimestamp</text>
</g>
<!-- Node3 -->
<g id="Node000003" class="node">
<title>Node3</title>
<g id="a_Node000003"><a xlink:title=" ">
<polygon fill="white" stroke="transparent" points="267.5,-384.5 153.5,-384.5 153.5,-324.5 267.5,-324.5 267.5,-384.5"/>
<text text-anchor="start" x="158.5" y="-372.5" font-family="Helvetica,sans-Serif" font-size="10.00">std::array&lt; std::uint8</text>
<text text-anchor="start" x="194" y="-361.5" font-family="Helvetica,sans-Serif" font-size="10.00">_t, 8 &gt;</text>
<text text-anchor="start" x="169" y="-346.5" font-family="Helvetica,sans-Serif" font-size="10.00">+</text>
<text text-anchor="start" x="193.5" y="-346.5" font-family="Helvetica,sans-Serif" font-size="10.00">elements</text>
<text text-anchor="start" x="208.5" y="-331.5" font-family="Helvetica,sans-Serif" font-size="10.00"> </text>
<polygon fill="#666666" stroke="#666666" points="153.5,-356.5 153.5,-356.5 267.5,-356.5 267.5,-356.5 153.5,-356.5"/>
<polygon fill="#666666" stroke="#666666" points="153.5,-341.5 153.5,-341.5 191.5,-341.5 191.5,-341.5 153.5,-341.5"/>
<polygon fill="#666666" stroke="#666666" points="191.5,-341.5 191.5,-341.5 267.5,-341.5 267.5,-341.5 191.5,-341.5"/>
<polygon fill="none" stroke="#666666" points="153.5,-324.5 153.5,-384.5 267.5,-384.5 267.5,-324.5 153.5,-324.5"/>
</a>
</g>
</g>
<!-- Node3&#45;&gt;Node1 -->
<g id="edge2_Node000001_Node000003" class="edge">
<title>Node3&#45;&gt;Node1</title>
<g id="a_edge2_Node000001_Node000003"><a xlink:title=" ">
<path fill="none" stroke="#63b8ff" d="M205.81,-324.35C200.29,-292.72 190.01,-241 175.5,-198 174.75,-195.79 173.97,-193.56 173.17,-191.32"/>
<polygon fill="none" stroke="#63b8ff" points="173.16,-191.29 167.31,-187.08 168.94,-180.06 174.8,-184.27 173.16,-191.29"/>
</a>
</g>
<text text-anchor="middle" x="234.5" y="-201" font-family="Helvetica,sans-Serif" font-size="10.00" fill="grey"> +grandmasterIdentity</text>
</g>
<!-- Node4 -->
<g id="Node000004" class="node">
<title>Node4</title>
<g id="a_Node000004"><a xlink:title=" ">
<polygon fill="white" stroke="transparent" points="253.5,-578 167.5,-578 167.5,-529 253.5,-529 253.5,-578"/>
<text text-anchor="start" x="172.5" y="-565.5" font-family="Helvetica,sans-Serif" font-size="10.00">std::array&lt; T &gt;</text>
<text text-anchor="start" x="208.5" y="-550.5" font-family="Helvetica,sans-Serif" font-size="10.00"> </text>
<text text-anchor="start" x="208.5" y="-535.5" font-family="Helvetica,sans-Serif" font-size="10.00"> </text>
<polygon fill="#666666" stroke="#666666" points="167.5,-560.5 167.5,-560.5 253.5,-560.5 253.5,-560.5 167.5,-560.5"/>
<polygon fill="#666666" stroke="#666666" points="167.5,-545.5 167.5,-545.5 253.5,-545.5 253.5,-545.5 167.5,-545.5"/>
<polygon fill="none" stroke="#666666" points="167.5,-529 167.5,-578 253.5,-578 253.5,-529 167.5,-529"/>
</a>
</g>
</g>
<!-- Node4&#45;&gt;Node3 -->
<g id="edge3_Node000003_Node000004" class="edge">
<title>Node4&#45;&gt;Node3</title>
<g id="a_edge3_Node000003_Node000004"><a xlink:title=" ">
<path fill="none" stroke="orange" d="M210.5,-518.26C210.5,-480.51 210.5,-420.43 210.5,-384.79"/>
<polygon fill="orange" stroke="orange" points="207,-518.74 210.5,-528.74 214,-518.74 207,-518.74"/>
</a>
</g>
<text text-anchor="middle" x="257" y="-503" font-family="Helvetica,sans-Serif" font-size="10.00" fill="grey"> &lt; std::uint8_t, 8 &gt;</text>
</g>
<!-- Node5 -->
<g id="Node000005" class="node">
<title>Node5</title>
<g id="a_Node000005"><a xlink:title=" ">
<polygon fill="white" stroke="transparent" points="219,-674 202,-674 202,-625 219,-625 219,-674"/>
<text text-anchor="start" x="207.5" y="-661.5" font-family="Helvetica,sans-Serif" font-size="10.00">T</text>
<text text-anchor="start" x="209" y="-646.5" font-family="Helvetica,sans-Serif" font-size="10.00"> </text>
<text text-anchor="start" x="209" y="-631.5" font-family="Helvetica,sans-Serif" font-size="10.00"> </text>
<polygon fill="#666666" stroke="#666666" points="202.5,-656.5 202.5,-656.5 219.5,-656.5 219.5,-656.5 202.5,-656.5"/>
<polygon fill="#666666" stroke="#666666" points="202.5,-641.5 202.5,-641.5 219.5,-641.5 219.5,-641.5 202.5,-641.5"/>
<polygon fill="none" stroke="#666666" points="202,-625 202,-674 219,-674 219,-625 202,-625"/>
</a>
</g>
</g>
<!-- Node5&#45;&gt;Node4 -->
<g id="edge4_Node000004_Node000005" class="edge">
<title>Node5&#45;&gt;Node4</title>
<g id="a_edge4_Node000004_Node000005"><a xlink:title=" ">
<path fill="none" stroke="#63b8ff" d="M210.5,-624.78C210.5,-614.32 210.5,-601.79 210.5,-590.23"/>
<polygon fill="none" stroke="#63b8ff" points="210.5,-590.21 206.5,-584.21 210.5,-578.21 214.5,-584.21 210.5,-590.21"/>
</a>
</g>
<text text-anchor="middle" x="239.5" y="-599" font-family="Helvetica,sans-Serif" font-size="10.00" fill="grey"> +elements</text>
</g>
</g>
</svg>
