<?xml version="1.0" encoding="UTF-8" standalone="no"?>
<!DOCTYPE svg PUBLIC "-//W3C//DTD SVG 1.1//EN"
 "http://www.w3.org/Graphics/SVG/1.1/DTD/svg11.dtd">
<!-- Generated by graphviz version 2.43.0 (0)
 -->
<!-- Title: IEEE::_1588::PTP::_2019::AnnounceBody Pages: 1 -->
<!--zoomable 682 -->

<svg id="main" version="1.1" xmlns="http://www.w3.org/2000/svg" xmlns:xlink="http://www.w3.org/1999/xlink" xml:space="preserve" onload="init(evt)">
<style type="text/css"><![CDATA[
.node, .edge {opacity: 0.7;}
.node.selected, .edge.selected {opacity: 1;}
.edge:hover path { stroke: red; }
.edge:hover polygon { stroke: red; fill: red; }
]]></style>

<defs>
  <circle id="rim" cx="0" cy="0" r="7"/>
  <circle id="rim2" cx="0" cy="0" r="3.5"/>
  <g id="zoomPlus">
    <use xlink:href="#rim" fill="#404040"><set attributeName="fill" to="#808080" begin="zoomplus.mouseover" end="zoomplus.mouseout"/></use>
    <path d="M-4,0h8M0,-4v8" fill="none" stroke="white" stroke-width="1.5" pointer-events="none"/>
  </g>
  <g id="zoomMin">
    <use xlink:href="#rim" fill="#404040"><set attributeName="fill" to="#808080" begin="zoomminus.mouseover" end="zoomminus.mouseout"/></use>
    <path d="M-4,0h8" fill="none" stroke="white" stroke-width="1.5" pointer-events="none"/>
  </g>
  <g id="arrowUp" transform="translate(30 24)">
    <use xlink:href="#rim"/>
    <path pointer-events="none" fill="none" stroke="white" stroke-width="1.5" d="M0,-3.0v7 M-2.5,-0.5L0,-3.0L2.5,-0.5"/>
  </g>
  <g id="arrowRight" transform="rotate(90) translate(36 -43)">
    <use xlink:href="#rim"/>
    <path pointer-events="none" fill="none" stroke="white" stroke-width="1.5" d="M0,-3.0v7 M-2.5,-0.5L0,-3.0L2.5,-0.5"/>
  </g>
  <g id="arrowDown" transform="rotate(180) translate(-30 -48)">
    <use xlink:href="#rim"/>
    <path pointer-events="none" fill="none" stroke="white" stroke-width="1.5" d="M0,-3.0v7 M-2.5,-0.5L0,-3.0L2.5,-0.5"/>
  </g>
  <g id="arrowLeft" transform="rotate(270) translate(-36 17)">
    <use xlink:href="#rim"/>
    <path pointer-events="none" fill="none" stroke="white" stroke-width="1.5" d="M0,-3.0v7 M-2.5,-0.5L0,-3.0L2.5,-0.5"/>
  </g>
  <g id="resetDef">
    <use xlink:href="#rim2" fill="#404040"><set attributeName="fill" to="#808080" begin="reset.mouseover" end="reset.mouseout"/></use>
  </g>
</defs>
<script type="application/ecmascript">
var viewWidth = 312;
var viewHeight = 682;
var sectionId = 'dynsection-0';
</script>
<script type="application/ecmascript" xlink:href="../../svg.min.js"/>
<svg id="graph" class="graph">
<g id="viewport">
<title>IEEE::_1588::PTP::_2019::AnnounceBody</title>
<!-- Node1 -->
<g id="Node000001" class="node">
<title>Node1</title>
<g id="a_Node000001"><a xlink:title="Announce message body for Best Master Clock Algorithm.">
<polygon fill="#999999" stroke="transparent" points="204,-180 49,-180 49,0 204,0 204,-180"/>
<text text-anchor="start" x="72.5" y="-168" font-family="Helvetica,sans-Serif" font-size="10.00">IEEE::_1588::PTP::</text>
<text text-anchor="start" x="72.5" y="-157" font-family="Helvetica,sans-Serif" font-size="10.00">_2019::AnnounceBody</text>
<text text-anchor="start" x="53.5" y="-142" font-family="Helvetica,sans-Serif" font-size="10.00">+</text>
<text text-anchor="start" x="66.5" y="-142" font-family="Helvetica,sans-Serif" font-size="10.00">currentUtcOffset</text>
<text text-anchor="start" x="53.5" y="-127" font-family="Helvetica,sans-Serif" font-size="10.00">+</text>
<text text-anchor="start" x="66.5" y="-127" font-family="Helvetica,sans-Serif" font-size="10.00">reserved</text>
<text text-anchor="start" x="53.5" y="-112" font-family="Helvetica,sans-Serif" font-size="10.00">+</text>
<text text-anchor="start" x="66.5" y="-112" font-family="Helvetica,sans-Serif" font-size="10.00">grandmasterPriority1</text>
<text text-anchor="start" x="53.5" y="-97" font-family="Helvetica,sans-Serif" font-size="10.00">+</text>
<text text-anchor="start" x="66.5" y="-97" font-family="Helvetica,sans-Serif" font-size="10.00">grandmasterClockClass</text>
<text text-anchor="start" x="53.5" y="-82" font-family="Helvetica,sans-Serif" font-size="10.00">+</text>
<text text-anchor="start" x="66.5" y="-82" font-family="Helvetica,sans-Serif" font-size="10.00">grandmasterClockAccuracy</text>
<text text-anchor="start" x="53.5" y="-67" font-family="Helvetica,sans-Serif" font-size="10.00">+</text>
<text text-anchor="start" x="66.5" y="-67" font-family="Helvetica,sans-Serif" font-size="10.00">grandmasterClockVariance</text>
<text text-anchor="start" x="53.5" y="-52" font-family="Helvetica,sans-Serif" font-size="10.00">+</text>
<text text-anchor="start" x="66.5" y="-52" font-family="Helvetica,sans-Serif" font-size="10.00">grandmasterPriority2</text>
<text text-anchor="start" x="53.5" y="-37" font-family="Helvetica,sans-Serif" font-size="10.00">+</text>
<text text-anchor="start" x="66.5" y="-37" font-family="Helvetica,sans-Serif" font-size="10.00">stepsRemoved</text>
<text text-anchor="start" x="53.5" y="-22" font-family="Helvetica,sans-Serif" font-size="10.00">+</text>
<text text-anchor="start" x="66.5" y="-22" font-family="Helvetica,sans-Serif" font-size="10.00">timeSource</text>
<text text-anchor="start" x="53.5" y="-7" font-family="Helvetica,sans-Serif" font-size="10.00">+</text>
<text text-anchor="start" x="66.5" y="-7" font-family="Helvetica,sans-Serif" font-size="10.00">validate()</text>
<polygon fill="#666666" stroke="#666666" points="49.5,-152 49.5,-152 204.5,-152 204.5,-152 49.5,-152"/>
<polygon fill="#666666" stroke="#666666" points="49.5,-17 49.5,-17 64.5,-17 64.5,-17 49.5,-17"/>
<polygon fill="#666666" stroke="#666666" points="64.5,-17 64.5,-17 204.5,-17 204.5,-17 64.5,-17"/>
<polygon fill="none" stroke="#666666" points="49,0 49,-180 204,-180 204,0 49,0"/>
</a>
</g>
</g>
<!-- Node2 -->
<g id="Node000002" class="node">
<title>Node2</title>
<g id="a_Node000002"><a xlink:href="../../d4/d6e/structIEEE_1_1__1588_1_1PTP_1_1__2019_1_1Types_1_1Timestamp.html" target="_top" xlink:title="PTP Timestamp &#45; seconds and nanoseconds representation.">
<polygon fill="white" stroke="transparent" points="135,-482 0,-482 0,-227 135,-227 135,-482"/>
<text text-anchor="start" x="5.5" y="-469.5" font-family="Helvetica,sans-Serif" font-size="10.00">IEEE::_1588::PTP::</text>
<text text-anchor="start" x="5.5" y="-458.5" font-family="Helvetica,sans-Serif" font-size="10.00">_2019::Types::Timestamp</text>
<text text-anchor="start" x="11" y="-443.5" font-family="Helvetica,sans-Serif" font-size="10.00">+</text>
<text text-anchor="start" x="30.5" y="-443.5" font-family="Helvetica,sans-Serif" font-size="10.00">seconds_high</text>
<text text-anchor="start" x="11" y="-428.5" font-family="Helvetica,sans-Serif" font-size="10.00">+</text>
<text text-anchor="start" x="30.5" y="-428.5" font-family="Helvetica,sans-Serif" font-size="10.00">seconds_low</text>
<text text-anchor="start" x="11" y="-413.5" font-family="Helvetica,sans-Serif" font-size="10.00">+</text>
<text text-anchor="start" x="30.5" y="-413.5" font-family="Helvetica,sans-Serif" font-size="10.00">nanoseconds</text>
<text text-anchor="start" x="11" y="-398.5" font-family="Helvetica,sans-Serif" font-size="10.00">+</text>
<text text-anchor="start" x="30.5" y="-398.5" font-family="Helvetica,sans-Serif" font-size="10.00">getTotalSeconds()</text>
<text text-anchor="start" x="11" y="-383.5" font-family="Helvetica,sans-Serif" font-size="10.00">+</text>
<text text-anchor="start" x="30.5" y="-383.5" font-family="Helvetica,sans-Serif" font-size="10.00">setTotalSeconds()</text>
<text text-anchor="start" x="11" y="-368.5" font-family="Helvetica,sans-Serif" font-size="10.00">+</text>
<text text-anchor="start" x="30.5" y="-368.5" font-family="Helvetica,sans-Serif" font-size="10.00">isValid()</text>
<text text-anchor="start" x="11" y="-353.5" font-family="Helvetica,sans-Serif" font-size="10.00">+</text>
<text text-anchor="start" x="30.5" y="-353.5" font-family="Helvetica,sans-Serif" font-size="10.00">validate()</text>
<text text-anchor="start" x="11" y="-338.5" font-family="Helvetica,sans-Serif" font-size="10.00">+</text>
<text text-anchor="start" x="30.5" y="-338.5" font-family="Helvetica,sans-Serif" font-size="10.00">operator&lt;()</text>
<text text-anchor="start" x="11" y="-323.5" font-family="Helvetica,sans-Serif" font-size="10.00">+</text>
<text text-anchor="start" x="30.5" y="-323.5" font-family="Helvetica,sans-Serif" font-size="10.00">operator&gt;()</text>
<text text-anchor="start" x="11" y="-308.5" font-family="Helvetica,sans-Serif" font-size="10.00">+</text>
<text text-anchor="start" x="30.5" y="-308.5" font-family="Helvetica,sans-Serif" font-size="10.00">operator&lt;=()</text>
<text text-anchor="start" x="11" y="-293.5" font-family="Helvetica,sans-Serif" font-size="10.00">+</text>
<text text-anchor="start" x="30.5" y="-293.5" font-family="Helvetica,sans-Serif" font-size="10.00">operator&gt;=()</text>
<text text-anchor="start" x="11" y="-278.5" font-family="Helvetica,sans-Serif" font-size="10.00">+</text>
<text text-anchor="start" x="30.5" y="-278.5" font-family="Helvetica,sans-Serif" font-size="10.00">operator==()</text>
<text text-anchor="start" x="11" y="-263.5" font-family="Helvetica,sans-Serif" font-size="10.00">+</text>
<text text-anchor="start" x="30.5" y="-263.5" font-family="Helvetica,sans-Serif" font-size="10.00">operator!=()</text>
<text text-anchor="start" x="11" y="-248.5" font-family="Helvetica,sans-Serif" font-size="10.00">+</text>
<text text-anchor="start" x="30.5" y="-248.5" font-family="Helvetica,sans-Serif" font-size="10.00">operator&#45;()</text>
<text text-anchor="start" x="11" y="-233.5" font-family="Helvetica,sans-Serif" font-size="10.00">+</text>
<text text-anchor="start" x="30.5" y="-233.5" font-family="Helvetica,sans-Serif" font-size="10.00">operator*()</text>
<polygon fill="#666666" stroke="#666666" points="0.5,-453.5 0.5,-453.5 135.5,-453.5 135.5,-453.5 0.5,-453.5"/>
<polygon fill="#666666" stroke="#666666" points="0.5,-408.5 0.5,-408.5 28.5,-408.5 28.5,-408.5 0.5,-408.5"/>
<polygon fill="#666666" stroke="#666666" points="28.5,-408.5 28.5,-408.5 135.5,-408.5 135.5,-408.5 28.5,-408.5"/>
<polygon fill="none" stroke="#666666" points="0,-227 0,-482 135,-482 135,-227 0,-227"/>
</a>
</g>
</g>
<!-- Node2&#45;&gt;Node1 -->
<g id="edge1_Node000001_Node000002" class="edge">
<title>Node2&#45;&gt;Node1</title>
<g id="a_edge1_Node000001_Node000002"><a xlink:title=" ">
<path fill="none" stroke="#63b8ff" d="M74.63,-226.91C76.24,-217.06 78.17,-207.33 80.5,-198 81.01,-195.98 81.54,-193.94 82.11,-191.9"/>
<polygon fill="none" stroke="#63b8ff" points="82.19,-191.66 80.11,-184.75 85.68,-180.18 87.76,-187.08 82.19,-191.66"/>
</a>
</g>
<text text-anchor="middle" x="128" y="-201" font-family="Helvetica,sans-Serif" font-size="10.00" fill="grey"> +originTimestamp</text>
</g>
<!-- Node3 -->
<g id="Node000003" class="node">
<title>Node3</title>
<g id="a_Node000003"><a xlink:title=" ">
<polygon fill="white" stroke="transparent" points="267.5,-384.5 153.5,-384.5 153.5,-324.5 267.5,-324.5 267.5,-384.5"/>
<text text-anchor="start" x="158.5" y="-372.5" font-family="Helvetica,sans-Serif" font-size="10.00">std::array&lt; std::uint8</text>
<text text-anchor="start" x="194" y="-361.5" font-family="Helvetica,sans-Serif" font-size="10.00">_t, 8 &gt;</text>
<text text-anchor="start" x="169" y="-346.5" font-family="Helvetica,sans-Serif" font-size="10.00">+</text>
<text text-anchor="start" x="193.5" y="-346.5" font-family="Helvetica,sans-Serif" font-size="10.00">elements</text>
<text text-anchor="start" x="208.5" y="-331.5" font-family="Helvetica,sans-Serif" font-size="10.00"> </text>
<polygon fill="#666666" stroke="#666666" points="153.5,-356.5 153.5,-356.5 267.5,-356.5 267.5,-356.5 153.5,-356.5"/>
<polygon fill="#666666" stroke="#666666" points="153.5,-341.5 153.5,-341.5 191.5,-341.5 191.5,-341.5 153.5,-341.5"/>
<polygon fill="#666666" stroke="#666666" points="191.5,-341.5 191.5,-341.5 267.5,-341.5 267.5,-341.5 191.5,-341.5"/>
<polygon fill="none" stroke="#666666" points="153.5,-324.5 153.5,-384.5 267.5,-384.5 267.5,-324.5 153.5,-324.5"/>
</a>
</g>
</g>
<!-- Node3&#45;&gt;Node1 -->
<g id="edge2_Node000001_Node000003" class="edge">
<title>Node3&#45;&gt;Node1</title>
<g id="a_edge2_Node000001_Node000003"><a xlink:title=" ">
<path fill="none" stroke="#63b8ff" d="M205.81,-324.35C200.29,-292.72 190.01,-241 175.5,-198 174.75,-195.79 173.97,-193.56 173.17,-191.32"/>
<polygon fill="none" stroke="#63b8ff" points="173.16,-191.29 167.31,-187.08 168.94,-180.06 174.8,-184.27 173.16,-191.29"/>
</a>
</g>
<text text-anchor="middle" x="234.5" y="-201" font-family="Helvetica,sans-Serif" font-size="10.00" fill="grey"> +grandmasterIdentity</text>
</g>
<!-- Node4 -->
<g id="Node000004" class="node">
<title>Node4</title>
<g id="a_Node000004"><a xlink:title=" ">
<polygon fill="white" stroke="transparent" points="253.5,-578 167.5,-578 167.5,-529 253.5,-529 253.5,-578"/>
<text text-anchor="start" x="172.5" y="-565.5" font-family="Helvetica,sans-Serif" font-size="10.00">std::array&lt; T &gt;</text>
<text text-anchor="start" x="208.5" y="-550.5" font-family="Helvetica,sans-Serif" font-size="10.00"> </text>
<text text-anchor="start" x="208.5" y="-535.5" font-family="Helvetica,sans-Serif" font-size="10.00"> </text>
<polygon fill="#666666" stroke="#666666" points="167.5,-560.5 167.5,-560.5 253.5,-560.5 253.5,-560.5 167.5,-560.5"/>
<polygon fill="#666666" stroke="#666666" points="167.5,-545.5 167.5,-545.5 253.5,-545.5 253.5,-545.5 167.5,-545.5"/>
<polygon fill="none" stroke="#666666" points="167.5,-529 167.5,-578 253.5,-578 253.5,-529 167.5,-529"/>
</a>
</g>
</g>
<!-- Node4&#45;&gt;Node3 -->
<g id="edge3_Node000003_Node000004" class="edge">
<title>Node4&#45;&gt;Node3</title>
<g id="a_edge3_Node000003_Node000004"><a xlink:title=" ">
<path fill="none" stroke="orange" d="M210.5,-518.26C210.5,-480.51 210.5,-420.43 210.5,-384.79"/>
<polygon fill="orange" stroke="orange" points="207,-518.74 210.5,-528.74 214,-518.74 207,-518.74"/>
</a>
</g>
<text text-anchor="middle" x="257" y="-503" font-family="Helvetica,sans-Serif" font-size="10.00" fill="grey"> &lt; std::uint8_t, 8 &gt;</text>
</g>
<!-- Node5 -->
<g id="Node000005" class="node">
<title>Node5</title>
<g id="a_Node000005"><a xlink:title=" ">
<polygon fill="white" stroke="transparent" points="219,-674 202,-674 202,-625 219,-625 219,-674"/>
<text text-anchor="start" x="207.5" y="-661.5" font-family="Helvetica,sans-Serif" font-size="10.00">T</text>
<text text-anchor="start" x="209" y="-646.5" font-family="Helvetica,sans-Serif" font-size="10.00"> </text>
<text text-anchor="start" x="209" y="-631.5" font-family="Helvetica,sans-Serif" font-size="10.00"> </text>
<polygon fill="#666666" stroke="#666666" points="202.5,-656.5 202.5,-656.5 219.5,-656.5 219.5,-656.5 202.5,-656.5"/>
<polygon fill="#666666" stroke="#666666" points="202.5,-641.5 202.5,-641.5 219.5,-641.5 219.5,-641.5 202.5,-641.5"/>
<polygon fill="none" stroke="#666666" points="202,-625 202,-674 219,-674 219,-625 202,-625"/>
</a>
</g>
</g>
<!-- Node5&#45;&gt;Node4 -->
<g id="edge4_Node000004_Node000005" class="edge">
<title>Node5&#45;&gt;Node4</title>
<g id="a_edge4_Node000004_Node000005"><a xlink:title=" ">
<path fill="none" stroke="#63b8ff" d="M210.5,-624.78C210.5,-614.32 210.5,-601.79 210.5,-590.23"/>
<polygon fill="none" stroke="#63b8ff" points="210.5,-590.21 206.5,-584.21 210.5,-578.21 214.5,-584.21 210.5,-590.21"/>
</a>
</g>
<text text-anchor="middle" x="239.5" y="-599" font-family="Helvetica,sans-Serif" font-size="10.00" fill="grey"> +elements</text>
</g>
</g>
</svg>

<g id="navigator" transform="translate(0 0)" fill="#404254">
  <rect fill="#f2f5e9" fill-opacity="0.5" stroke="#606060" stroke-width=".5" x="0" y="0" width="60" height="60"/>
  <use id="zoomplus" xlink:href="#zoomPlus" x="17" y="9" onmousedown="handleZoom(evt,'in')"/>
  <use id="zoomminus" xlink:href="#zoomMin" x="42" y="9" onmousedown="handleZoom(evt,'out')"/>
  <use id="reset" xlink:href="#resetDef" x="30" y="36" onmousedown="handleReset()"/>
   <use id="arrowup" xlink:href="#arrowUp" x="0" y="0" onmousedown="handlePan(0,-1)"/>
  <use id="arrowright" xlink:href="#arrowRight" x="0" y="0" onmousedown="handlePan(1,0)"/>
  <use id="arrowdown" xlink:href="#arrowDown" x="0" y="0" onmousedown="handlePan(0,1)"/>
  <use id="arrowleft" xlink:href="#arrowLeft" x="0" y="0" onmousedown="handlePan(-1,0)"/>
</g>
<svg viewBox="0 0 15 15" width="100%" height="30px" preserveAspectRatio="xMaxYMin meet">
 <g id="arrow_out" transform="scale(0.3 0.3)">
  <a xlink:href="structIEEE_1_1__1588_1_1PTP_1_1__2019_1_1AnnounceBody__coll__graph_org.svg" target="_base">
   <rect id="button" ry="5" rx="5" y="6" x="6" height="38" width="38"
        fill="#f2f5e9" fill-opacity="0.5" stroke="#606060" stroke-width="1.0"/>
   <path id="arrow"
     d="M 11.500037,31.436501 C 11.940474,20.09759 22.043105,11.32322 32.158766,21.979434 L 37.068811,17.246167 C 37.068811,17.246167 37.088388,32 37.088388,32 L 22.160133,31.978069 C 22.160133,31.978069 26.997745,27.140456 26.997745,27.140456 C 18.528582,18.264221 13.291696,25.230495 11.500037,31.436501 z"
     style="fill:#404040;"/>
  </a>
 </g>
</svg>

<style type='text/css'>
<![CDATA[
[data-mouse-over-selected='false'] { opacity: 0.7; }
[data-mouse-over-selected='true']  { opacity: 1.0; }
]]>
</style>
<script type="application/ecmascript"><![CDATA[
document.addEventListener('DOMContentLoaded', (event) => {
  highlightEdges();
  highlightAdjacentNodes();
});
]]></script>
</svg>
