<?xml version="1.0" encoding="UTF-8" standalone="no"?>
<!DOCTYPE svg PUBLIC "-//W3C//DTD SVG 1.1//EN"
 "http://www.w3.org/Graphics/SVG/1.1/DTD/svg11.dtd">
<!-- Generated by graphviz version 2.43.0 (0)
 -->
<!-- Title: IEEE::_1588::PTP::_2019::Types::PortIdentity Pages: 1 -->
<svg width="170pt" height="397pt"
 viewBox="0.00 0.00 169.50 397.00" xmlns="http://www.w3.org/2000/svg" xmlns:xlink="http://www.w3.org/1999/xlink">

<svg id="main" version="1.1" xmlns="http://www.w3.org/2000/svg" xmlns:xlink="http://www.w3.org/1999/xlink" xml:space="preserve" onload="init(evt)">
<style type="text/css"><![CDATA[
.node, .edge {opacity: 0.7;}
.node.selected, .edge.selected {opacity: 1;}
.edge:hover path { stroke: red; }
.edge:hover polygon { stroke: red; fill: red; }
]]></style>
<script type="application/ecmascript" xlink:href="../../svg.min.js"/>
<svg id="graph" class="graph">
<g id="graph0" class="graph" transform="scale(1 1) rotate(0) translate(4 393)">
<title>IEEE::_1588::PTP::_2019::Types::PortIdentity</title>
<!-- Node1 -->
<g id="Node000001" class="node">
<title>Node1</title>
<g id="a_Node000001"><a xlink:title="Port Identity &#45; combination of clock identity and port number.">
<polygon fill="#999999" stroke="transparent" points="137,-90 0,-90 0,0 137,0 137,-90"/>
<text text-anchor="start" x="5.5" y="-78" font-family="Helvetica,sans-Serif" font-size="10.00">IEEE::_1588::PTP::</text>
<text text-anchor="start" x="5.5" y="-67" font-family="Helvetica,sans-Serif" font-size="10.00">_2019::Types::PortIdentity</text>
<text text-anchor="start" x="17" y="-52" font-family="Helvetica,sans-Serif" font-size="10.00">+</text>
<text text-anchor="start" x="42.5" y="-52" font-family="Helvetica,sans-Serif" font-size="10.00">port_number</text>
<text text-anchor="start" x="17" y="-37" font-family="Helvetica,sans-Serif" font-size="10.00">+</text>
<text text-anchor="start" x="42.5" y="-37" font-family="Helvetica,sans-Serif" font-size="10.00">operator==()</text>
<text text-anchor="start" x="17" y="-22" font-family="Helvetica,sans-Serif" font-size="10.00">+</text>
<text text-anchor="start" x="42.5" y="-22" font-family="Helvetica,sans-Serif" font-size="10.00">operator&lt;()</text>
<text text-anchor="start" x="17" y="-7" font-family="Helvetica,sans-Serif" font-size="10.00">+</text>
<text text-anchor="start" x="42.5" y="-7" font-family="Helvetica,sans-Serif" font-size="10.00">validate()</text>
<polygon fill="#666666" stroke="#666666" points="0.5,-62 0.5,-62 137.5,-62 137.5,-62 0.5,-62"/>
<polygon fill="#666666" stroke="#666666" points="0.5,-47 0.5,-47 40.5,-47 40.5,-47 0.5,-47"/>
<polygon fill="#666666" stroke="#666666" points="40.5,-47 40.5,-47 137.5,-47 137.5,-47 40.5,-47"/>
<polygon fill="none" stroke="#666666" points="0,0 0,-90 137,-90 137,0 0,0"/>
</a>
</g>
</g>
<!-- Node2 -->
<g id="Node000002" class="node">
<title>Node2</title>
<g id="a_Node000002"><a xlink:title=" ">
<polygon fill="white" stroke="transparent" points="125.5,-197 11.5,-197 11.5,-137 125.5,-137 125.5,-197"/>
<text text-anchor="start" x="16.5" y="-185" font-family="Helvetica,sans-Serif" font-size="10.00">std::array&lt; std::uint8</text>
<text text-anchor="start" x="52" y="-174" font-family="Helvetica,sans-Serif" font-size="10.00">_t, 8 &gt;</text>
<text text-anchor="start" x="27" y="-159" font-family="Helvetica,sans-Serif" font-size="10.00">+</text>
<text text-anchor="start" x="51.5" y="-159" font-family="Helvetica,sans-Serif" font-size="10.00">elements</text>
<text text-anchor="start" x="66.5" y="-144" font-family="Helvetica,sans-Serif" font-size="10.00"> </text>
<polygon fill="#666666" stroke="#666666" points="11.5,-169 11.5,-169 125.5,-169 125.5,-169 11.5,-169"/>
<polygon fill="#666666" stroke="#666666" points="11.5,-154 11.5,-154 49.5,-154 49.5,-154 11.5,-154"/>
<polygon fill="#666666" stroke="#666666" points="49.5,-154 49.5,-154 125.5,-154 125.5,-154 49.5,-154"/>
<polygon fill="none" stroke="#666666" points="11.5,-137 11.5,-197 125.5,-197 125.5,-137 11.5,-137"/>
</a>
</g>
</g>
<!-- Node2&#45;&gt;Node1 -->
<g id="edge1_Node000001_Node000002" class="edge">
<title>Node2&#45;&gt;Node1</title>
<g id="a_edge1_Node000001_Node000002"><a xlink:title=" ">
<path fill="none" stroke="#63b8ff" d="M68.5,-136.95C68.5,-126.55 68.5,-114.44 68.5,-102.52"/>
<polygon fill="none" stroke="#63b8ff" points="68.5,-102.24 64.5,-96.24 68.5,-90.24 72.5,-96.24 68.5,-102.24"/>
</a>
</g>
<text text-anchor="middle" x="108.5" y="-111" font-family="Helvetica,sans-Serif" font-size="10.00" fill="grey"> +clock_identity</text>
</g>
<!-- Node3 -->
<g id="Node000003" class="node">
<title>Node3</title>
<g id="a_Node000003"><a xlink:title=" ">
<polygon fill="white" stroke="transparent" points="111.5,-293 25.5,-293 25.5,-244 111.5,-244 111.5,-293"/>
<text text-anchor="start" x="30.5" y="-280.5" font-family="Helvetica,sans-Serif" font-size="10.00">std::array&lt; T &gt;</text>
<text text-anchor="start" x="66.5" y="-265.5" font-family="Helvetica,sans-Serif" font-size="10.00"> </text>
<text text-anchor="start" x="66.5" y="-250.5" font-family="Helvetica,sans-Serif" font-size="10.00"> </text>
<polygon fill="#666666" stroke="#666666" points="25.5,-275.5 25.5,-275.5 111.5,-275.5 111.5,-275.5 25.5,-275.5"/>
<polygon fill="#666666" stroke="#666666" points="25.5,-260.5 25.5,-260.5 111.5,-260.5 111.5,-260.5 25.5,-260.5"/>
<polygon fill="none" stroke="#666666" points="25.5,-244 25.5,-293 111.5,-293 111.5,-244 25.5,-244"/>
</a>
</g>
</g>
<!-- Node3&#45;&gt;Node2 -->
<g id="edge2_Node000002_Node000003" class="edge">
<title>Node3&#45;&gt;Node2</title>
<g id="a_edge2_Node000002_Node000003"><a xlink:title=" ">
<path fill="none" stroke="orange" d="M68.5,-233.87C68.5,-221.94 68.5,-208.62 68.5,-197.1"/>
<polygon fill="orange" stroke="orange" points="65,-233.92 68.5,-243.92 72,-233.92 65,-233.92"/>
</a>
</g>
<text text-anchor="middle" x="115" y="-218" font-family="Helvetica,sans-Serif" font-size="10.00" fill="grey"> &lt; std::uint8_t, 8 &gt;</text>
</g>
<!-- Node4 -->
<g id="Node000004" class="node">
<title>Node4</title>
<g id="a_Node000004"><a xlink:title=" ">
<polygon fill="white" stroke="transparent" points="77,-389 60,-389 60,-340 77,-340 77,-389"/>
<text text-anchor="start" x="65.5" y="-376.5" font-family="Helvetica,sans-Serif" font-size="10.00">T</text>
<text text-anchor="start" x="67" y="-361.5" font-family="Helvetica,sans-Serif" font-size="10.00"> </text>
<text text-anchor="start" x="67" y="-346.5" font-family="Helvetica,sans-Serif" font-size="10.00"> </text>
<polygon fill="#666666" stroke="#666666" points="60.5,-371.5 60.5,-371.5 77.5,-371.5 77.5,-371.5 60.5,-371.5"/>
<polygon fill="#666666" stroke="#666666" points="60.5,-356.5 60.5,-356.5 77.5,-356.5 77.5,-356.5 60.5,-356.5"/>
<polygon fill="none" stroke="#666666" points="60,-340 60,-389 77,-389 77,-340 60,-340"/>
</a>
</g>
</g>
<!-- Node4&#45;&gt;Node3 -->
<g id="edge3_Node000003_Node000004" class="edge">
<title>Node4&#45;&gt;Node3</title>
<g id="a_edge3_Node000003_Node000004"><a xlink:title=" ">
<path fill="none" stroke="#63b8ff" d="M68.5,-339.78C68.5,-329.32 68.5,-316.79 68.5,-305.23"/>
<polygon fill="none" stroke="#63b8ff" points="68.5,-305.21 64.5,-299.21 68.5,-293.21 72.5,-299.21 68.5,-305.21"/>
</a>
</g>
<text text-anchor="middle" x="97.5" y="-314" font-family="Helvetica,sans-Serif" font-size="10.00" fill="grey"> +elements</text>
</g>
</g>
</svg>
</svg>

<style type='text/css'>
<![CDATA[
[data-mouse-over-selected='false'] { opacity: 0.7; }
[data-mouse-over-selected='true']  { opacity: 1.0; }
]]>
</style>
<script type="application/ecmascript"><![CDATA[
document.addEventListener('DOMContentLoaded', (event) => {
  highlightEdges();
  highlightAdjacentNodes();
});
]]></script>
</svg>
