<?xml version="1.0" encoding="UTF-8" standalone="no"?>
<!DOCTYPE svg PUBLIC "-//W3C//DTD SVG 1.1//EN"
 "http://www.w3.org/Graphics/SVG/1.1/DTD/svg11.dtd">
<!-- Generated by graphviz version 2.43.0 (0)
 -->
<!-- Title: /home/runner/work/IEEE_1588_2019/IEEE_1588_2019/include/IEEE/1588/PTP/2019/sync_integration.hpp Pages: 1 -->
<svg width="942pt" height="302pt"
 viewBox="0.00 0.00 941.50 302.00" xmlns="http://www.w3.org/2000/svg" xmlns:xlink="http://www.w3.org/1999/xlink">
<g id="graph0" class="graph" transform="scale(1 1) rotate(0) translate(4 298)">
<title>/home/runner/work/IEEE_1588_2019/IEEE_1588_2019/include/IEEE/1588/PTP/2019/sync_integration.hpp</title>
<!-- Node1 -->
<g id="Node000001" class="node">
<title>Node1</title>
<g id="a_Node000001"><a xlink:title="IEEE 1588&#45;2019 Synchronization Integration Coordinator.">
<polygon fill="#999999" stroke="#666666" points="413.5,-294 255.5,-294 255.5,-242 413.5,-242 413.5,-294"/>
<text text-anchor="start" x="263.5" y="-282" font-family="Helvetica,sans-Serif" font-size="10.00">/home/runner/work/IEEE</text>
<text text-anchor="start" x="263.5" y="-271" font-family="Helvetica,sans-Serif" font-size="10.00">_1588_2019/IEEE_1588_2019</text>
<text text-anchor="start" x="263.5" y="-260" font-family="Helvetica,sans-Serif" font-size="10.00">/include/IEEE/1588/PTP/2019</text>
<text text-anchor="middle" x="334.5" y="-249" font-family="Helvetica,sans-Serif" font-size="10.00">/sync_integration.hpp</text>
</a>
</g>
</g>
<!-- Node2 -->
<g id="Node000002" class="node">
<title>Node2</title>
<g id="a_Node000002"><a xlink:href="../../dd/dc5/clocks_8hpp.html" target="_top" xlink:title="IEEE 1588&#45;2019 PTP Clock State Machines Implementation.">
<polygon fill="white" stroke="#666666" points="368.5,-206 300.5,-206 300.5,-187 368.5,-187 368.5,-206"/>
<text text-anchor="middle" x="334.5" y="-194" font-family="Helvetica,sans-Serif" font-size="10.00">clocks.hpp</text>
</a>
</g>
</g>
<!-- Node1&#45;&gt;Node2 -->
<g id="edge1_Node000001_Node000002" class="edge">
<title>Node1&#45;&gt;Node2</title>
<g id="a_edge1_Node000001_Node000002"><a xlink:title=" ">
<path fill="none" stroke="#63b8ff" d="M334.5,-241.91C334.5,-233.55 334.5,-224.38 334.5,-216.55"/>
<polygon fill="#63b8ff" stroke="#63b8ff" points="338,-216.3 334.5,-206.3 331,-216.3 338,-216.3"/>
</a>
</g>
</g>
<!-- Node3 -->
<g id="Node000003" class="node">
<title>Node3</title>
<g id="a_Node000003"><a xlink:href="../../dd/de3/types_8hpp.html" target="_top" xlink:title="IEEE 1588&#45;2019 PTP v2.1 fundamental data types and constants.">
<polygon fill="white" stroke="#666666" points="113,-85 0,-85 0,-55 113,-55 113,-85"/>
<text text-anchor="start" x="8" y="-73" font-family="Helvetica,sans-Serif" font-size="10.00">IEEE/1588/PTP/2019</text>
<text text-anchor="middle" x="56.5" y="-62" font-family="Helvetica,sans-Serif" font-size="10.00">/types.hpp</text>
</a>
</g>
</g>
<!-- Node1&#45;&gt;Node3 -->
<g id="edge29_Node000001_Node000003" class="edge">
<title>Node1&#45;&gt;Node3</title>
<g id="a_edge29_Node000001_Node000003"><a xlink:title=" ">
<path fill="none" stroke="#63b8ff" d="M255.37,-258.71C188.01,-247.01 95.12,-218.82 49.5,-151 38.48,-134.62 41.79,-111.88 46.96,-94.83"/>
<polygon fill="#63b8ff" stroke="#63b8ff" points="50.37,-95.65 50.3,-85.06 43.75,-93.39 50.37,-95.65"/>
</a>
</g>
</g>
<!-- Node4 -->
<g id="Node000004" class="node">
<title>Node4</title>
<g id="a_Node000004"><a xlink:title=" ">
<polygon fill="#e0e0e0" stroke="#999999" points="405.5,-19 355.5,-19 355.5,0 405.5,0 405.5,-19"/>
<text text-anchor="middle" x="380.5" y="-7" font-family="Helvetica,sans-Serif" font-size="10.00">cstdint</text>
</a>
</g>
</g>
<!-- Node1&#45;&gt;Node4 -->
<g id="edge30_Node000001_Node000004" class="edge">
<title>Node1&#45;&gt;Node4</title>
<g id="a_edge30_Node000001_Node000004"><a xlink:title=" ">
<path fill="none" stroke="#63b8ff" d="M311.81,-241.99C288.35,-212.95 257.38,-163.59 274.5,-121 291.44,-78.86 332.99,-43.75 358.75,-25.05"/>
<polygon fill="#63b8ff" stroke="#63b8ff" points="360.98,-27.76 367.13,-19.14 356.94,-22.04 360.98,-27.76"/>
</a>
</g>
</g>
<!-- Node15 -->
<g id="Node000015" class="node">
<title>Node15</title>
<g id="a_Node000015"><a xlink:title=" ">
<polygon fill="#e0e0e0" stroke="#999999" points="430.5,-206 386.5,-206 386.5,-187 430.5,-187 430.5,-206"/>
<text text-anchor="middle" x="408.5" y="-194" font-family="Helvetica,sans-Serif" font-size="10.00">string</text>
</a>
</g>
</g>
<!-- Node1&#45;&gt;Node15 -->
<g id="edge31_Node000001_Node000015" class="edge">
<title>Node1&#45;&gt;Node15</title>
<g id="a_edge31_Node000001_Node000015"><a xlink:title=" ">
<path fill="none" stroke="#63b8ff" d="M361.22,-241.91C371.36,-232.38 382.62,-221.8 391.61,-213.36"/>
<polygon fill="#63b8ff" stroke="#63b8ff" points="394.23,-215.7 399.13,-206.3 389.44,-210.6 394.23,-215.7"/>
</a>
</g>
</g>
<!-- Node16 -->
<g id="Node000016" class="node">
<title>Node16</title>
<g id="a_Node000016"><a xlink:title=" ">
<polygon fill="#e0e0e0" stroke="#999999" points="496,-206 449,-206 449,-187 496,-187 496,-206"/>
<text text-anchor="middle" x="472.5" y="-194" font-family="Helvetica,sans-Serif" font-size="10.00">vector</text>
</a>
</g>
</g>
<!-- Node1&#45;&gt;Node16 -->
<g id="edge32_Node000001_Node000016" class="edge">
<title>Node1&#45;&gt;Node16</title>
<g id="a_edge32_Node000001_Node000016"><a xlink:title=" ">
<path fill="none" stroke="#63b8ff" d="M384.32,-241.91C405.3,-231.35 428.84,-219.49 446.32,-210.68"/>
<polygon fill="#63b8ff" stroke="#63b8ff" points="448,-213.76 455.35,-206.14 444.85,-207.51 448,-213.76"/>
</a>
</g>
</g>
<!-- Node2&#45;&gt;Node3 -->
<g id="edge2_Node000002_Node000003" class="edge">
<title>Node2&#45;&gt;Node3</title>
<g id="a_edge2_Node000002_Node000003"><a xlink:title=" ">
<path fill="none" stroke="#63b8ff" d="M300.28,-194.73C235.4,-192.51 98.15,-183.95 66.5,-151 52.54,-136.47 51.12,-112.99 52.55,-95.21"/>
<polygon fill="#63b8ff" stroke="#63b8ff" points="56.03,-95.6 53.68,-85.27 49.07,-94.81 56.03,-95.6"/>
</a>
</g>
</g>
<!-- Node2&#45;&gt;Node4 -->
<g id="edge10_Node000002_Node000004" class="edge">
<title>Node2&#45;&gt;Node4</title>
<g id="a_edge10_Node000002_Node000004"><a xlink:title=" ">
<path fill="none" stroke="#63b8ff" d="M336.72,-186.58C343.82,-158.01 366.11,-68.36 375.86,-29.16"/>
<polygon fill="#63b8ff" stroke="#63b8ff" points="379.29,-29.88 378.3,-19.33 372.49,-28.19 379.29,-29.88"/>
</a>
</g>
</g>
<!-- Node5 -->
<g id="Node000005" class="node">
<title>Node5</title>
<g id="a_Node000005"><a xlink:title=" ">
<polygon fill="#e0e0e0" stroke="#999999" points="219.5,-19 177.5,-19 177.5,0 219.5,0 219.5,-19"/>
<text text-anchor="middle" x="198.5" y="-7" font-family="Helvetica,sans-Serif" font-size="10.00">array</text>
</a>
</g>
</g>
<!-- Node2&#45;&gt;Node5 -->
<g id="edge12_Node000002_Node000005" class="edge">
<title>Node2&#45;&gt;Node5</title>
<g id="a_edge12_Node000002_Node000005"><a xlink:title=" ">
<path fill="none" stroke="#63b8ff" d="M319.49,-186.97C306.39,-178.96 287.5,-165.99 274.5,-151 241.16,-112.54 216.56,-57 205.3,-28.65"/>
<polygon fill="#63b8ff" stroke="#63b8ff" points="208.52,-27.27 201.65,-19.2 201.99,-29.79 208.52,-27.27"/>
</a>
</g>
</g>
<!-- Node7 -->
<g id="Node000007" class="node">
<title>Node7</title>
<g id="a_Node000007"><a xlink:href="../../d4/d64/messages_8hpp.html" target="_top" xlink:title="IEEE 1588&#45;2019 PTP Message Format Structures.">
<polygon fill="white" stroke="#666666" points="189,-151 76,-151 76,-121 189,-121 189,-151"/>
<text text-anchor="start" x="84" y="-139" font-family="Helvetica,sans-Serif" font-size="10.00">IEEE/1588/PTP/2019</text>
<text text-anchor="middle" x="132.5" y="-128" font-family="Helvetica,sans-Serif" font-size="10.00">/messages.hpp</text>
</a>
</g>
</g>
<!-- Node2&#45;&gt;Node7 -->
<g id="edge6_Node000002_Node000007" class="edge">
<title>Node2&#45;&gt;Node7</title>
<g id="a_edge6_Node000002_Node000007"><a xlink:title=" ">
<path fill="none" stroke="#63b8ff" d="M305.13,-186.99C275.29,-178.35 228.29,-164.74 190.85,-153.9"/>
<polygon fill="#63b8ff" stroke="#63b8ff" points="191.64,-150.48 181.06,-151.06 189.7,-157.21 191.64,-150.48"/>
</a>
</g>
</g>
<!-- Node8 -->
<g id="Node000008" class="node">
<title>Node8</title>
<g id="a_Node000008"><a xlink:title=" ">
<polygon fill="#e0e0e0" stroke="#999999" points="333.5,-145.5 283.5,-145.5 283.5,-126.5 333.5,-126.5 333.5,-145.5"/>
<text text-anchor="middle" x="308.5" y="-133.5" font-family="Helvetica,sans-Serif" font-size="10.00">cstring</text>
</a>
</g>
</g>
<!-- Node2&#45;&gt;Node8 -->
<g id="edge11_Node000002_Node000008" class="edge">
<title>Node2&#45;&gt;Node8</title>
<g id="a_edge11_Node000002_Node000008"><a xlink:title=" ">
<path fill="none" stroke="#63b8ff" d="M330.66,-186.87C326.94,-178.49 321.17,-165.51 316.45,-154.89"/>
<polygon fill="#63b8ff" stroke="#63b8ff" points="319.61,-153.38 312.35,-145.67 313.22,-156.23 319.61,-153.38"/>
</a>
</g>
</g>
<!-- Node9 -->
<g id="Node000009" class="node">
<title>Node9</title>
<g id="a_Node000009"><a xlink:href="../../d6/da3/logger_8hpp.html" target="_top" xlink:title=" ">
<polygon fill="white" stroke="#666666" points="529,-145.5 390,-145.5 390,-126.5 529,-126.5 529,-145.5"/>
<text text-anchor="middle" x="459.5" y="-133.5" font-family="Helvetica,sans-Serif" font-size="10.00">Common/utils/logger.hpp</text>
</a>
</g>
</g>
<!-- Node2&#45;&gt;Node9 -->
<g id="edge13_Node000002_Node000009" class="edge">
<title>Node2&#45;&gt;Node9</title>
<g id="a_edge13_Node000002_Node000009"><a xlink:title=" ">
<path fill="none" stroke="#63b8ff" d="M352.68,-186.99C373.51,-177.25 407.87,-161.16 431.98,-149.88"/>
<polygon fill="#63b8ff" stroke="#63b8ff" points="433.73,-152.93 441.3,-145.52 430.76,-146.59 433.73,-152.93"/>
</a>
</g>
</g>
<!-- Node10 -->
<g id="Node000010" class="node">
<title>Node10</title>
<g id="a_Node000010"><a xlink:href="../../d4/d35/fault__injection_8hpp.html" target="_top" xlink:title=" ">
<polygon fill="white" stroke="#666666" points="739.5,-85 629.5,-85 629.5,-55 739.5,-55 739.5,-85"/>
<text text-anchor="start" x="637.5" y="-73" font-family="Helvetica,sans-Serif" font-size="10.00">Common/utils/fault</text>
<text text-anchor="middle" x="684.5" y="-62" font-family="Helvetica,sans-Serif" font-size="10.00">_injection.hpp</text>
</a>
</g>
</g>
<!-- Node2&#45;&gt;Node10 -->
<g id="edge15_Node000002_Node000010" class="edge">
<title>Node2&#45;&gt;Node10</title>
<g id="a_edge15_Node000002_Node000010"><a xlink:title=" ">
<path fill="none" stroke="#63b8ff" d="M368.72,-188.43C371.68,-187.91 374.64,-187.43 377.5,-187 456.37,-175.26 681.02,-210.14 734.5,-151 750.91,-132.85 731.13,-108.63 711.82,-91.62"/>
<polygon fill="#63b8ff" stroke="#63b8ff" points="713.87,-88.77 703.96,-85.03 709.37,-94.13 713.87,-88.77"/>
</a>
</g>
</g>
<!-- Node12 -->
<g id="Node000012" class="node">
<title>Node12</title>
<g id="a_Node000012"><a xlink:href="../../d4/d44/metrics_8hpp.html" target="_top" xlink:title=" ">
<polygon fill="white" stroke="#666666" points="573.5,-79.5 427.5,-79.5 427.5,-60.5 573.5,-60.5 573.5,-79.5"/>
<text text-anchor="middle" x="500.5" y="-67.5" font-family="Helvetica,sans-Serif" font-size="10.00">Common/utils/metrics.hpp</text>
</a>
</g>
</g>
<!-- Node2&#45;&gt;Node12 -->
<g id="edge18_Node000002_Node000012" class="edge">
<title>Node2&#45;&gt;Node12</title>
<g id="a_edge18_Node000002_Node000012"><a xlink:title=" ">
<path fill="none" stroke="#63b8ff" d="M368.55,-188.64C425.9,-177 535.81,-154.33 538.5,-151 554.39,-131.27 534.09,-103.8 517.59,-86.72"/>
<polygon fill="#63b8ff" stroke="#63b8ff" points="520.01,-84.19 510.43,-79.67 515.1,-89.18 520.01,-84.19"/>
</a>
</g>
</g>
<!-- Node13 -->
<g id="Node000013" class="node">
<title>Node13</title>
<g id="a_Node000013"><a xlink:href="../../de/d18/health_8hpp.html" target="_top" xlink:title=" ">
<polygon fill="white" stroke="#666666" points="725.5,-145.5 585.5,-145.5 585.5,-126.5 725.5,-126.5 725.5,-145.5"/>
<text text-anchor="middle" x="655.5" y="-133.5" font-family="Helvetica,sans-Serif" font-size="10.00">Common/utils/health.hpp</text>
</a>
</g>
</g>
<!-- Node2&#45;&gt;Node13 -->
<g id="edge22_Node000002_Node000013" class="edge">
<title>Node2&#45;&gt;Node13</title>
<g id="a_edge22_Node000002_Node000013"><a xlink:title=" ">
<path fill="none" stroke="#63b8ff" d="M368.76,-188.67C371.71,-188.1 374.66,-187.54 377.5,-187 453.03,-172.74 540.29,-157.2 596.6,-147.29"/>
<polygon fill="#63b8ff" stroke="#63b8ff" points="597.5,-150.69 606.74,-145.51 596.29,-143.79 597.5,-150.69"/>
</a>
</g>
</g>
<!-- Node14 -->
<g id="Node000014" class="node">
<title>Node14</title>
<g id="a_Node000014"><a xlink:href="../../d8/dfd/config_8hpp.html" target="_top" xlink:title=" ">
<polygon fill="white" stroke="#666666" points="933.5,-79.5 795.5,-79.5 795.5,-60.5 933.5,-60.5 933.5,-79.5"/>
<text text-anchor="middle" x="864.5" y="-67.5" font-family="Helvetica,sans-Serif" font-size="10.00">Common/utils/config.hpp</text>
</a>
</g>
</g>
<!-- Node2&#45;&gt;Node14 -->
<g id="edge27_Node000002_Node000014" class="edge">
<title>Node2&#45;&gt;Node14</title>
<g id="a_edge27_Node000002_Node000014"><a xlink:title=" ">
<path fill="none" stroke="#63b8ff" d="M368.71,-188.42C371.68,-187.9 374.64,-187.42 377.5,-187 542.72,-162.78 594.98,-209.2 751.5,-151 790.11,-136.64 827.67,-105.65 848.28,-86.74"/>
<polygon fill="#63b8ff" stroke="#63b8ff" points="850.9,-89.08 855.79,-79.68 846.11,-83.98 850.9,-89.08"/>
</a>
</g>
</g>
<!-- Node3&#45;&gt;Node4 -->
<g id="edge3_Node000003_Node000004" class="edge">
<title>Node3&#45;&gt;Node4</title>
<g id="a_edge3_Node000003_Node000004"><a xlink:title=" ">
<path fill="none" stroke="#63b8ff" d="M113.31,-58.74C180.31,-46.64 289.62,-26.91 345.38,-16.84"/>
<polygon fill="#63b8ff" stroke="#63b8ff" points="346.25,-20.24 355.47,-15.02 345,-13.35 346.25,-20.24"/>
</a>
</g>
</g>
<!-- Node3&#45;&gt;Node5 -->
<g id="edge4_Node000003_Node000005" class="edge">
<title>Node3&#45;&gt;Node5</title>
<g id="a_edge4_Node000003_Node000005"><a xlink:title=" ">
<path fill="none" stroke="#63b8ff" d="M90.51,-54.99C114.1,-45.27 145.24,-32.44 168.02,-23.06"/>
<polygon fill="#63b8ff" stroke="#63b8ff" points="169.62,-26.18 177.53,-19.14 166.95,-19.71 169.62,-26.18"/>
</a>
</g>
</g>
<!-- Node6 -->
<g id="Node000006" class="node">
<title>Node6</title>
<g id="a_Node000006"><a xlink:title=" ">
<polygon fill="#e0e0e0" stroke="#999999" points="83,-19 30,-19 30,0 83,0 83,-19"/>
<text text-anchor="middle" x="56.5" y="-7" font-family="Helvetica,sans-Serif" font-size="10.00">cstddef</text>
</a>
</g>
</g>
<!-- Node3&#45;&gt;Node6 -->
<g id="edge5_Node000003_Node000006" class="edge">
<title>Node3&#45;&gt;Node6</title>
<g id="a_edge5_Node000003_Node000006"><a xlink:title=" ">
<path fill="none" stroke="#63b8ff" d="M56.5,-54.84C56.5,-47.21 56.5,-37.7 56.5,-29.45"/>
<polygon fill="#63b8ff" stroke="#63b8ff" points="60,-29.27 56.5,-19.27 53,-29.27 60,-29.27"/>
</a>
</g>
</g>
<!-- Node7&#45;&gt;Node3 -->
<g id="edge7_Node000007_Node000003" class="edge">
<title>Node7&#45;&gt;Node3</title>
<g id="a_edge7_Node000007_Node000003"><a xlink:title=" ">
<path fill="none" stroke="#63b8ff" d="M115.63,-120.8C105.5,-112.26 92.42,-101.25 81.15,-91.75"/>
<polygon fill="#63b8ff" stroke="#63b8ff" points="83.22,-88.93 73.32,-85.16 78.71,-94.28 83.22,-88.93"/>
</a>
</g>
</g>
<!-- Node7&#45;&gt;Node4 -->
<g id="edge8_Node000007_Node000004" class="edge">
<title>Node7&#45;&gt;Node4</title>
<g id="a_edge8_Node000007_Node000004"><a xlink:title=" ">
<path fill="none" stroke="#63b8ff" d="M141.19,-120.8C153.01,-102.7 175.88,-71.77 203.5,-55 247.82,-28.1 307.79,-17.4 345.3,-13.19"/>
<polygon fill="#63b8ff" stroke="#63b8ff" points="345.66,-16.67 355.25,-12.17 344.95,-9.71 345.66,-16.67"/>
</a>
</g>
</g>
<!-- Node7&#45;&gt;Node5 -->
<g id="edge9_Node000007_Node000005" class="edge">
<title>Node7&#45;&gt;Node5</title>
<g id="a_edge9_Node000007_Node000005"><a xlink:title=" ">
<path fill="none" stroke="#63b8ff" d="M137.11,-120.93C142.75,-104.56 153.08,-76.97 165.5,-55 170.99,-45.29 178.29,-35.24 184.62,-27.15"/>
<polygon fill="#63b8ff" stroke="#63b8ff" points="187.43,-29.24 190.98,-19.26 181.98,-24.84 187.43,-29.24"/>
</a>
</g>
</g>
<!-- Node9&#45;&gt;Node4 -->
<g id="edge14_Node000009_Node000004" class="edge">
<title>Node9&#45;&gt;Node4</title>
<g id="a_edge14_Node000009_Node000004"><a xlink:title=" ">
<path fill="none" stroke="#63b8ff" d="M451.32,-126.24C442.57,-116.59 428.58,-100.41 418.5,-85 406.49,-66.64 395.42,-43.99 388.36,-28.52"/>
<polygon fill="#63b8ff" stroke="#63b8ff" points="391.43,-26.8 384.15,-19.1 385.03,-29.65 391.43,-26.8"/>
</a>
</g>
</g>
<!-- Node10&#45;&gt;Node4 -->
<g id="edge17_Node000010_Node000004" class="edge">
<title>Node10&#45;&gt;Node4</title>
<g id="a_edge17_Node000010_Node000004"><a xlink:title=" ">
<path fill="none" stroke="#63b8ff" d="M629.15,-57.7C624.53,-56.78 619.94,-55.87 615.5,-55 544.62,-41.1 461.56,-25.54 415.6,-17"/>
<polygon fill="#63b8ff" stroke="#63b8ff" points="416.03,-13.52 405.56,-15.13 414.75,-20.4 416.03,-13.52"/>
</a>
</g>
</g>
<!-- Node11 -->
<g id="Node000011" class="node">
<title>Node11</title>
<g id="a_Node000011"><a xlink:title=" ">
<polygon fill="#e0e0e0" stroke="#999999" points="750.5,-19 700.5,-19 700.5,0 750.5,0 750.5,-19"/>
<text text-anchor="middle" x="725.5" y="-7" font-family="Helvetica,sans-Serif" font-size="10.00">atomic</text>
</a>
</g>
</g>
<!-- Node10&#45;&gt;Node11 -->
<g id="edge16_Node000010_Node000011" class="edge">
<title>Node10&#45;&gt;Node11</title>
<g id="a_edge16_Node000010_Node000011"><a xlink:title=" ">
<path fill="none" stroke="#63b8ff" d="M694.42,-54.84C700.19,-46.61 707.5,-36.18 713.58,-27.51"/>
<polygon fill="#63b8ff" stroke="#63b8ff" points="716.48,-29.46 719.36,-19.27 710.75,-25.45 716.48,-29.46"/>
</a>
</g>
</g>
<!-- Node12&#45;&gt;Node4 -->
<g id="edge20_Node000012_Node000004" class="edge">
<title>Node12&#45;&gt;Node4</title>
<g id="a_edge20_Node000012_Node000004"><a xlink:title=" ">
<path fill="none" stroke="#63b8ff" d="M483.05,-60.49C463.14,-50.79 430.36,-34.81 407.23,-23.53"/>
<polygon fill="#63b8ff" stroke="#63b8ff" points="408.49,-20.25 397.97,-19.02 405.43,-26.54 408.49,-20.25"/>
</a>
</g>
</g>
<!-- Node12&#45;&gt;Node5 -->
<g id="edge21_Node000012_Node000005" class="edge">
<title>Node12&#45;&gt;Node5</title>
<g id="a_edge21_Node000012_Node000005"><a xlink:title=" ">
<path fill="none" stroke="#63b8ff" d="M456.59,-60.49C394.78,-48.52 283.66,-27 229.65,-16.53"/>
<polygon fill="#63b8ff" stroke="#63b8ff" points="230.13,-13.06 219.65,-14.6 228.8,-19.93 230.13,-13.06"/>
</a>
</g>
</g>
<!-- Node12&#45;&gt;Node11 -->
<g id="edge19_Node000012_Node000011" class="edge">
<title>Node12&#45;&gt;Node11</title>
<g id="a_edge19_Node000012_Node000011"><a xlink:title=" ">
<path fill="none" stroke="#63b8ff" d="M533.22,-60.49C575.19,-49.58 647.7,-30.73 690.67,-19.56"/>
<polygon fill="#63b8ff" stroke="#63b8ff" points="691.6,-22.93 700.4,-17.03 689.84,-16.15 691.6,-22.93"/>
</a>
</g>
</g>
<!-- Node13&#45;&gt;Node4 -->
<g id="edge24_Node000013_Node000004" class="edge">
<title>Node13&#45;&gt;Node4</title>
<g id="a_edge24_Node000013_Node000004"><a xlink:title=" ">
<path fill="none" stroke="#63b8ff" d="M650.29,-126.41C639.72,-109.78 614.08,-73.25 582.5,-55 529.62,-24.44 457.84,-14.85 415.61,-11.85"/>
<polygon fill="#63b8ff" stroke="#63b8ff" points="415.74,-8.35 405.55,-11.22 415.31,-15.33 415.74,-8.35"/>
</a>
</g>
</g>
<!-- Node13&#45;&gt;Node10 -->
<g id="edge26_Node000013_Node000010" class="edge">
<title>Node13&#45;&gt;Node10</title>
<g id="a_edge26_Node000013_Node000010"><a xlink:title=" ">
<path fill="none" stroke="#63b8ff" d="M659.41,-126.37C663.09,-118.24 668.78,-105.69 673.81,-94.59"/>
<polygon fill="#63b8ff" stroke="#63b8ff" points="677.05,-95.91 677.99,-85.36 670.68,-93.02 677.05,-95.91"/>
</a>
</g>
</g>
<!-- Node13&#45;&gt;Node11 -->
<g id="edge23_Node000013_Node000011" class="edge">
<title>Node13&#45;&gt;Node11</title>
<g id="a_edge23_Node000013_Node000011"><a xlink:title=" ">
<path fill="none" stroke="#63b8ff" d="M689.21,-126.45C710.26,-119.17 735.71,-106.4 748.5,-85 759.3,-66.93 748.5,-43.33 738.35,-27.58"/>
<polygon fill="#63b8ff" stroke="#63b8ff" points="741.19,-25.54 732.62,-19.32 735.44,-29.53 741.19,-25.54"/>
</a>
</g>
</g>
<!-- Node13&#45;&gt;Node12 -->
<g id="edge25_Node000013_Node000012" class="edge">
<title>Node13&#45;&gt;Node12</title>
<g id="a_edge25_Node000013_Node000012"><a xlink:title=" ">
<path fill="none" stroke="#63b8ff" d="M634.6,-126.37C607.9,-115.35 561.51,-96.19 530.91,-83.55"/>
<polygon fill="#63b8ff" stroke="#63b8ff" points="532.15,-80.28 521.57,-79.7 529.48,-86.75 532.15,-80.28"/>
</a>
</g>
</g>
<!-- Node14&#45;&gt;Node11 -->
<g id="edge28_Node000014_Node000011" class="edge">
<title>Node14&#45;&gt;Node11</title>
<g id="a_edge28_Node000014_Node000011"><a xlink:title=" ">
<path fill="none" stroke="#63b8ff" d="M844.29,-60.49C820.82,-50.62 781.89,-34.23 755.04,-22.93"/>
<polygon fill="#63b8ff" stroke="#63b8ff" points="756.31,-19.67 745.74,-19.02 753.6,-26.12 756.31,-19.67"/>
</a>
</g>
</g>
</g>
</svg>
