<?xml version="1.0" encoding="UTF-8" standalone="no"?>
<!DOCTYPE svg PUBLIC "-//W3C//DTD SVG 1.1//EN"
 "http://www.w3.org/Graphics/SVG/1.1/DTD/svg11.dtd">
<!-- Generated by graphviz version 2.43.0 (0)
 -->
<!-- Title: IEEE::_1588::PTP::_2019::PdelayRespBody Pages: 1 -->
<!--zoomable 669 -->

<svg id="main" version="1.1" xmlns="http://www.w3.org/2000/svg" xmlns:xlink="http://www.w3.org/1999/xlink" xml:space="preserve" onload="init(evt)">
<style type="text/css"><![CDATA[
.node, .edge {opacity: 0.7;}
.node.selected, .edge.selected {opacity: 1;}
.edge:hover path { stroke: red; }
.edge:hover polygon { stroke: red; fill: red; }
]]></style>

<defs>
  <circle id="rim" cx="0" cy="0" r="7"/>
  <circle id="rim2" cx="0" cy="0" r="3.5"/>
  <g id="zoomPlus">
    <use xlink:href="#rim" fill="#404040"><set attributeName="fill" to="#808080" begin="zoomplus.mouseover" end="zoomplus.mouseout"/></use>
    <path d="M-4,0h8M0,-4v8" fill="none" stroke="white" stroke-width="1.5" pointer-events="none"/>
  </g>
  <g id="zoomMin">
    <use xlink:href="#rim" fill="#404040"><set attributeName="fill" to="#808080" begin="zoomminus.mouseover" end="zoomminus.mouseout"/></use>
    <path d="M-4,0h8" fill="none" stroke="white" stroke-width="1.5" pointer-events="none"/>
  </g>
  <g id="arrowUp" transform="translate(30 24)">
    <use xlink:href="#rim"/>
    <path pointer-events="none" fill="none" stroke="white" stroke-width="1.5" d="M0,-3.0v7 M-2.5,-0.5L0,-3.0L2.5,-0.5"/>
  </g>
  <g id="arrowRight" transform="rotate(90) translate(36 -43)">
    <use xlink:href="#rim"/>
    <path pointer-events="none" fill="none" stroke="white" stroke-width="1.5" d="M0,-3.0v7 M-2.5,-0.5L0,-3.0L2.5,-0.5"/>
  </g>
  <g id="arrowDown" transform="rotate(180) translate(-30 -48)">
    <use xlink:href="#rim"/>
    <path pointer-events="none" fill="none" stroke="white" stroke-width="1.5" d="M0,-3.0v7 M-2.5,-0.5L0,-3.0L2.5,-0.5"/>
  </g>
  <g id="arrowLeft" transform="rotate(270) translate(-36 17)">
    <use xlink:href="#rim"/>
    <path pointer-events="none" fill="none" stroke="white" stroke-width="1.5" d="M0,-3.0v7 M-2.5,-0.5L0,-3.0L2.5,-0.5"/>
  </g>
  <g id="resetDef">
    <use xlink:href="#rim2" fill="#404040"><set attributeName="fill" to="#808080" begin="reset.mouseover" end="reset.mouseout"/></use>
  </g>
</defs>
<script type="application/ecmascript">
var viewWidth = 344;
var viewHeight = 669;
var sectionId = 'dynsection-0';
</script>
<script type="application/ecmascript" xlink:href="../../svg.min.js"/>
<svg id="graph" class="graph">
<g id="viewport">
<title>IEEE::_1588::PTP::_2019::PdelayRespBody</title>
<!-- Node1 -->
<g id="Node000001" class="node">
<title>Node1</title>
<g id="a_Node000001"><a xlink:title="Pdelay_Resp message body &#45; peer&#45;to&#45;peer delay measurement response.">
<polygon fill="#999999" stroke="transparent" points="214.5,-60 86.5,-60 86.5,0 214.5,0 214.5,-60"/>
<text text-anchor="start" x="91.5" y="-48" font-family="Helvetica,sans-Serif" font-size="10.00">IEEE::_1588::PTP::</text>
<text text-anchor="start" x="91.5" y="-37" font-family="Helvetica,sans-Serif" font-size="10.00">_2019::PdelayRespBody</text>
<text text-anchor="start" x="148.5" y="-22" font-family="Helvetica,sans-Serif" font-size="10.00"> </text>
<text text-anchor="start" x="105" y="-7" font-family="Helvetica,sans-Serif" font-size="10.00">+</text>
<text text-anchor="start" x="132.5" y="-7" font-family="Helvetica,sans-Serif" font-size="10.00">validate()</text>
<polygon fill="#666666" stroke="#666666" points="86.5,-32 86.5,-32 214.5,-32 214.5,-32 86.5,-32"/>
<polygon fill="#666666" stroke="#666666" points="86.5,-17 86.5,-17 214.5,-17 214.5,-17 86.5,-17"/>
<polygon fill="none" stroke="#666666" points="86.5,0 86.5,-60 214.5,-60 214.5,0 86.5,0"/>
</a>
</g>
</g>
<!-- Node2 -->
<g id="Node000002" class="node">
<title>Node2</title>
<g id="a_Node000002"><a xlink:href="../../d4/d6e/structIEEE_1_1__1588_1_1PTP_1_1__2019_1_1Types_1_1Timestamp.html" target="_top" xlink:title="PTP Timestamp &#45; seconds and nanoseconds representation.">
<polygon fill="white" stroke="transparent" points="135,-362 0,-362 0,-107 135,-107 135,-362"/>
<text text-anchor="start" x="5.5" y="-349.5" font-family="Helvetica,sans-Serif" font-size="10.00">IEEE::_1588::PTP::</text>
<text text-anchor="start" x="5.5" y="-338.5" font-family="Helvetica,sans-Serif" font-size="10.00">_2019::Types::Timestamp</text>
<text text-anchor="start" x="11" y="-323.5" font-family="Helvetica,sans-Serif" font-size="10.00">+</text>
<text text-anchor="start" x="30.5" y="-323.5" font-family="Helvetica,sans-Serif" font-size="10.00">seconds_high</text>
<text text-anchor="start" x="11" y="-308.5" font-family="Helvetica,sans-Serif" font-size="10.00">+</text>
<text text-anchor="start" x="30.5" y="-308.5" font-family="Helvetica,sans-Serif" font-size="10.00">seconds_low</text>
<text text-anchor="start" x="11" y="-293.5" font-family="Helvetica,sans-Serif" font-size="10.00">+</text>
<text text-anchor="start" x="30.5" y="-293.5" font-family="Helvetica,sans-Serif" font-size="10.00">nanoseconds</text>
<text text-anchor="start" x="11" y="-278.5" font-family="Helvetica,sans-Serif" font-size="10.00">+</text>
<text text-anchor="start" x="30.5" y="-278.5" font-family="Helvetica,sans-Serif" font-size="10.00">getTotalSeconds()</text>
<text text-anchor="start" x="11" y="-263.5" font-family="Helvetica,sans-Serif" font-size="10.00">+</text>
<text text-anchor="start" x="30.5" y="-263.5" font-family="Helvetica,sans-Serif" font-size="10.00">setTotalSeconds()</text>
<text text-anchor="start" x="11" y="-248.5" font-family="Helvetica,sans-Serif" font-size="10.00">+</text>
<text text-anchor="start" x="30.5" y="-248.5" font-family="Helvetica,sans-Serif" font-size="10.00">isValid()</text>
<text text-anchor="start" x="11" y="-233.5" font-family="Helvetica,sans-Serif" font-size="10.00">+</text>
<text text-anchor="start" x="30.5" y="-233.5" font-family="Helvetica,sans-Serif" font-size="10.00">validate()</text>
<text text-anchor="start" x="11" y="-218.5" font-family="Helvetica,sans-Serif" font-size="10.00">+</text>
<text text-anchor="start" x="30.5" y="-218.5" font-family="Helvetica,sans-Serif" font-size="10.00">operator&lt;()</text>
<text text-anchor="start" x="11" y="-203.5" font-family="Helvetica,sans-Serif" font-size="10.00">+</text>
<text text-anchor="start" x="30.5" y="-203.5" font-family="Helvetica,sans-Serif" font-size="10.00">operator&gt;()</text>
<text text-anchor="start" x="11" y="-188.5" font-family="Helvetica,sans-Serif" font-size="10.00">+</text>
<text text-anchor="start" x="30.5" y="-188.5" font-family="Helvetica,sans-Serif" font-size="10.00">operator&lt;=()</text>
<text text-anchor="start" x="11" y="-173.5" font-family="Helvetica,sans-Serif" font-size="10.00">+</text>
<text text-anchor="start" x="30.5" y="-173.5" font-family="Helvetica,sans-Serif" font-size="10.00">operator&gt;=()</text>
<text text-anchor="start" x="11" y="-158.5" font-family="Helvetica,sans-Serif" font-size="10.00">+</text>
<text text-anchor="start" x="30.5" y="-158.5" font-family="Helvetica,sans-Serif" font-size="10.00">operator==()</text>
<text text-anchor="start" x="11" y="-143.5" font-family="Helvetica,sans-Serif" font-size="10.00">+</text>
<text text-anchor="start" x="30.5" y="-143.5" font-family="Helvetica,sans-Serif" font-size="10.00">operator!=()</text>
<text text-anchor="start" x="11" y="-128.5" font-family="Helvetica,sans-Serif" font-size="10.00">+</text>
<text text-anchor="start" x="30.5" y="-128.5" font-family="Helvetica,sans-Serif" font-size="10.00">operator&#45;()</text>
<text text-anchor="start" x="11" y="-113.5" font-family="Helvetica,sans-Serif" font-size="10.00">+</text>
<text text-anchor="start" x="30.5" y="-113.5" font-family="Helvetica,sans-Serif" font-size="10.00">operator*()</text>
<polygon fill="#666666" stroke="#666666" points="0.5,-333.5 0.5,-333.5 135.5,-333.5 135.5,-333.5 0.5,-333.5"/>
<polygon fill="#666666" stroke="#666666" points="0.5,-288.5 0.5,-288.5 28.5,-288.5 28.5,-288.5 0.5,-288.5"/>
<polygon fill="#666666" stroke="#666666" points="28.5,-288.5 28.5,-288.5 135.5,-288.5 135.5,-288.5 28.5,-288.5"/>
<polygon fill="none" stroke="#666666" points="0,-107 0,-362 135,-362 135,-107 0,-107"/>
</a>
</g>
</g>
<!-- Node2&#45;&gt;Node1 -->
<g id="edge1_Node000001_Node000002" class="edge">
<title>Node2&#45;&gt;Node1</title>
<g id="a_edge1_Node000001_Node000002"><a xlink:title=" ">
<path fill="none" stroke="#63b8ff" d="M57.09,-106.93C59.57,-96.77 63.26,-86.98 68.5,-78 70.94,-73.82 73.91,-69.97 77.26,-66.44"/>
<polygon fill="none" stroke="#63b8ff" points="77.35,-66.36 79.12,-59.37 86.25,-58.32 84.48,-65.31 77.35,-66.36"/>
</a>
</g>
<text text-anchor="middle" x="140" y="-81" font-family="Helvetica,sans-Serif" font-size="10.00" fill="grey"> +requestReceiveTimestamp</text>
</g>
<!-- Node3 -->
<g id="Node000003" class="node">
<title>Node3</title>
<g id="a_Node000003"><a xlink:href="../../dc/d02/structIEEE_1_1__1588_1_1PTP_1_1__2019_1_1Types_1_1PortIdentity.html" target="_top" xlink:title="Port Identity &#45; combination of clock identity and port number.">
<polygon fill="white" stroke="transparent" points="302,-279.5 165,-279.5 165,-189.5 302,-189.5 302,-279.5"/>
<text text-anchor="start" x="170.5" y="-267.5" font-family="Helvetica,sans-Serif" font-size="10.00">IEEE::_1588::PTP::</text>
<text text-anchor="start" x="170.5" y="-256.5" font-family="Helvetica,sans-Serif" font-size="10.00">_2019::Types::PortIdentity</text>
<text text-anchor="start" x="182" y="-241.5" font-family="Helvetica,sans-Serif" font-size="10.00">+</text>
<text text-anchor="start" x="207.5" y="-241.5" font-family="Helvetica,sans-Serif" font-size="10.00">port_number</text>
<text text-anchor="start" x="182" y="-226.5" font-family="Helvetica,sans-Serif" font-size="10.00">+</text>
<text text-anchor="start" x="207.5" y="-226.5" font-family="Helvetica,sans-Serif" font-size="10.00">operator==()</text>
<text text-anchor="start" x="182" y="-211.5" font-family="Helvetica,sans-Serif" font-size="10.00">+</text>
<text text-anchor="start" x="207.5" y="-211.5" font-family="Helvetica,sans-Serif" font-size="10.00">operator&lt;()</text>
<text text-anchor="start" x="182" y="-196.5" font-family="Helvetica,sans-Serif" font-size="10.00">+</text>
<text text-anchor="start" x="207.5" y="-196.5" font-family="Helvetica,sans-Serif" font-size="10.00">validate()</text>
<polygon fill="#666666" stroke="#666666" points="165.5,-251.5 165.5,-251.5 302.5,-251.5 302.5,-251.5 165.5,-251.5"/>
<polygon fill="#666666" stroke="#666666" points="165.5,-236.5 165.5,-236.5 205.5,-236.5 205.5,-236.5 165.5,-236.5"/>
<polygon fill="#666666" stroke="#666666" points="205.5,-236.5 205.5,-236.5 302.5,-236.5 302.5,-236.5 205.5,-236.5"/>
<polygon fill="none" stroke="#666666" points="165,-189.5 165,-279.5 302,-279.5 302,-189.5 165,-189.5"/>
</a>
</g>
</g>
<!-- Node3&#45;&gt;Node1 -->
<g id="edge2_Node000001_Node000003" class="edge">
<title>Node3&#45;&gt;Node1</title>
<g id="a_edge2_Node000001_Node000003"><a xlink:title=" ">
<path fill="none" stroke="#63b8ff" d="M235.9,-189.39C235.72,-156.57 231.19,-111.81 211.5,-78 209.64,-74.81 207.48,-71.76 205.09,-68.86"/>
<polygon fill="none" stroke="#63b8ff" points="205.06,-68.83 198.03,-67.22 196.82,-60.11 203.85,-61.73 205.06,-68.83"/>
</a>
</g>
<text text-anchor="middle" x="275" y="-81" font-family="Helvetica,sans-Serif" font-size="10.00" fill="grey"> +requestingPortIdentity</text>
</g>
<!-- Node4 -->
<g id="Node000004" class="node">
<title>Node4</title>
<g id="a_Node000004"><a xlink:title=" ">
<polygon fill="white" stroke="transparent" points="290.5,-469 176.5,-469 176.5,-409 290.5,-409 290.5,-469"/>
<text text-anchor="start" x="181.5" y="-457" font-family="Helvetica,sans-Serif" font-size="10.00">std::array&lt; std::uint8</text>
<text text-anchor="start" x="217" y="-446" font-family="Helvetica,sans-Serif" font-size="10.00">_t, 8 &gt;</text>
<text text-anchor="start" x="192" y="-431" font-family="Helvetica,sans-Serif" font-size="10.00">+</text>
<text text-anchor="start" x="216.5" y="-431" font-family="Helvetica,sans-Serif" font-size="10.00">elements</text>
<text text-anchor="start" x="231.5" y="-416" font-family="Helvetica,sans-Serif" font-size="10.00"> </text>
<polygon fill="#666666" stroke="#666666" points="176.5,-441 176.5,-441 290.5,-441 290.5,-441 176.5,-441"/>
<polygon fill="#666666" stroke="#666666" points="176.5,-426 176.5,-426 214.5,-426 214.5,-426 176.5,-426"/>
<polygon fill="#666666" stroke="#666666" points="214.5,-426 214.5,-426 290.5,-426 290.5,-426 214.5,-426"/>
<polygon fill="none" stroke="#666666" points="176.5,-409 176.5,-469 290.5,-469 290.5,-409 176.5,-409"/>
</a>
</g>
</g>
<!-- Node4&#45;&gt;Node3 -->
<g id="edge3_Node000003_Node000004" class="edge">
<title>Node4&#45;&gt;Node3</title>
<g id="a_edge3_Node000003_Node000004"><a xlink:title=" ">
<path fill="none" stroke="#63b8ff" d="M233.5,-408.99C233.5,-378.63 233.5,-330.18 233.5,-292.2"/>
<polygon fill="none" stroke="#63b8ff" points="233.5,-291.75 229.5,-285.75 233.5,-279.75 237.5,-285.75 233.5,-291.75"/>
</a>
</g>
<text text-anchor="middle" x="273.5" y="-383" font-family="Helvetica,sans-Serif" font-size="10.00" fill="grey"> +clock_identity</text>
</g>
<!-- Node5 -->
<g id="Node000005" class="node">
<title>Node5</title>
<g id="a_Node000005"><a xlink:title=" ">
<polygon fill="white" stroke="transparent" points="276.5,-565 190.5,-565 190.5,-516 276.5,-516 276.5,-565"/>
<text text-anchor="start" x="195.5" y="-552.5" font-family="Helvetica,sans-Serif" font-size="10.00">std::array&lt; T &gt;</text>
<text text-anchor="start" x="231.5" y="-537.5" font-family="Helvetica,sans-Serif" font-size="10.00"> </text>
<text text-anchor="start" x="231.5" y="-522.5" font-family="Helvetica,sans-Serif" font-size="10.00"> </text>
<polygon fill="#666666" stroke="#666666" points="190.5,-547.5 190.5,-547.5 276.5,-547.5 276.5,-547.5 190.5,-547.5"/>
<polygon fill="#666666" stroke="#666666" points="190.5,-532.5 190.5,-532.5 276.5,-532.5 276.5,-532.5 190.5,-532.5"/>
<polygon fill="none" stroke="#666666" points="190.5,-516 190.5,-565 276.5,-565 276.5,-516 190.5,-516"/>
</a>
</g>
</g>
<!-- Node5&#45;&gt;Node4 -->
<g id="edge4_Node000004_Node000005" class="edge">
<title>Node5&#45;&gt;Node4</title>
<g id="a_edge4_Node000004_Node000005"><a xlink:title=" ">
<path fill="none" stroke="orange" d="M233.5,-505.87C233.5,-493.94 233.5,-480.62 233.5,-469.1"/>
<polygon fill="orange" stroke="orange" points="230,-505.92 233.5,-515.92 237,-505.92 230,-505.92"/>
</a>
</g>
<text text-anchor="middle" x="280" y="-490" font-family="Helvetica,sans-Serif" font-size="10.00" fill="grey"> &lt; std::uint8_t, 8 &gt;</text>
</g>
<!-- Node6 -->
<g id="Node000006" class="node">
<title>Node6</title>
<g id="a_Node000006"><a xlink:title=" ">
<polygon fill="white" stroke="transparent" points="242,-661 225,-661 225,-612 242,-612 242,-661"/>
<text text-anchor="start" x="230.5" y="-648.5" font-family="Helvetica,sans-Serif" font-size="10.00">T</text>
<text text-anchor="start" x="232" y="-633.5" font-family="Helvetica,sans-Serif" font-size="10.00"> </text>
<text text-anchor="start" x="232" y="-618.5" font-family="Helvetica,sans-Serif" font-size="10.00"> </text>
<polygon fill="#666666" stroke="#666666" points="225.5,-643.5 225.5,-643.5 242.5,-643.5 242.5,-643.5 225.5,-643.5"/>
<polygon fill="#666666" stroke="#666666" points="225.5,-628.5 225.5,-628.5 242.5,-628.5 242.5,-628.5 225.5,-628.5"/>
<polygon fill="none" stroke="#666666" points="225,-612 225,-661 242,-661 242,-612 225,-612"/>
</a>
</g>
</g>
<!-- Node6&#45;&gt;Node5 -->
<g id="edge5_Node000005_Node000006" class="edge">
<title>Node6&#45;&gt;Node5</title>
<g id="a_edge5_Node000005_Node000006"><a xlink:title=" ">
<path fill="none" stroke="#63b8ff" d="M233.5,-611.78C233.5,-601.32 233.5,-588.79 233.5,-577.23"/>
<polygon fill="none" stroke="#63b8ff" points="233.5,-577.21 229.5,-571.21 233.5,-565.21 237.5,-571.21 233.5,-577.21"/>
</a>
</g>
<text text-anchor="middle" x="262.5" y="-586" font-family="Helvetica,sans-Serif" font-size="10.00" fill="grey"> +elements</text>
</g>
</g>
</svg>

<g id="navigator" transform="translate(0 0)" fill="#404254">
  <rect fill="#f2f5e9" fill-opacity="0.5" stroke="#606060" stroke-width=".5" x="0" y="0" width="60" height="60"/>
  <use id="zoomplus" xlink:href="#zoomPlus" x="17" y="9" onmousedown="handleZoom(evt,'in')"/>
  <use id="zoomminus" xlink:href="#zoomMin" x="42" y="9" onmousedown="handleZoom(evt,'out')"/>
  <use id="reset" xlink:href="#resetDef" x="30" y="36" onmousedown="handleReset()"/>
   <use id="arrowup" xlink:href="#arrowUp" x="0" y="0" onmousedown="handlePan(0,-1)"/>
  <use id="arrowright" xlink:href="#arrowRight" x="0" y="0" onmousedown="handlePan(1,0)"/>
  <use id="arrowdown" xlink:href="#arrowDown" x="0" y="0" onmousedown="handlePan(0,1)"/>
  <use id="arrowleft" xlink:href="#arrowLeft" x="0" y="0" onmousedown="handlePan(-1,0)"/>
</g>
<svg viewBox="0 0 15 15" width="100%" height="30px" preserveAspectRatio="xMaxYMin meet">
 <g id="arrow_out" transform="scale(0.3 0.3)">
  <a xlink:href="structIEEE_1_1__1588_1_1PTP_1_1__2019_1_1PdelayRespBody__coll__graph_org.svg" target="_base">
   <rect id="button" ry="5" rx="5" y="6" x="6" height="38" width="38"
        fill="#f2f5e9" fill-opacity="0.5" stroke="#606060" stroke-width="1.0"/>
   <path id="arrow"
     d="M 11.500037,31.436501 C 11.940474,20.09759 22.043105,11.32322 32.158766,21.979434 L 37.068811,17.246167 C 37.068811,17.246167 37.088388,32 37.088388,32 L 22.160133,31.978069 C 22.160133,31.978069 26.997745,27.140456 26.997745,27.140456 C 18.528582,18.264221 13.291696,25.230495 11.500037,31.436501 z"
     style="fill:#404040;"/>
  </a>
 </g>
</svg>

<style type='text/css'>
<![CDATA[
[data-mouse-over-selected='false'] { opacity: 0.7; }
[data-mouse-over-selected='true']  { opacity: 1.0; }
]]>
</style>
<script type="application/ecmascript"><![CDATA[
document.addEventListener('DOMContentLoaded', (event) => {
  highlightEdges();
  highlightAdjacentNodes();
});
]]></script>
</svg>
