<?xml version="1.0" encoding="UTF-8" standalone="no"?>
<!DOCTYPE svg PUBLIC "-//W3C//DTD SVG 1.1//EN"
 "http://www.w3.org/Graphics/SVG/1.1/DTD/svg11.dtd">
<!-- Generated by graphviz version 2.43.0 (0)
 -->
<!-- Title: IEEE::_1588::PTP::_2019::PdelayRespBody Pages: 1 -->
<svg width="344pt" height="669pt"
 viewBox="0.00 0.00 343.50 669.00" xmlns="http://www.w3.org/2000/svg" xmlns:xlink="http://www.w3.org/1999/xlink">
<g id="graph0" class="graph" transform="scale(1 1) rotate(0) translate(4 665)">
<title>IEEE::_1588::PTP::_2019::PdelayRespBody</title>
<!-- Node1 -->
<g id="Node000001" class="node">
<title>Node1</title>
<g id="a_Node000001"><a xlink:title="Pdelay_Resp message body &#45; peer&#45;to&#45;peer delay measurement response.">
<polygon fill="#999999" stroke="transparent" points="214.5,-60 86.5,-60 86.5,0 214.5,0 214.5,-60"/>
<text text-anchor="start" x="91.5" y="-48" font-family="Helvetica,sans-Serif" font-size="10.00">IEEE::_1588::PTP::</text>
<text text-anchor="start" x="91.5" y="-37" font-family="Helvetica,sans-Serif" font-size="10.00">_2019::PdelayRespBody</text>
<text text-anchor="start" x="148.5" y="-22" font-family="Helvetica,sans-Serif" font-size="10.00"> </text>
<text text-anchor="start" x="105" y="-7" font-family="Helvetica,sans-Serif" font-size="10.00">+</text>
<text text-anchor="start" x="132.5" y="-7" font-family="Helvetica,sans-Serif" font-size="10.00">validate()</text>
<polygon fill="#666666" stroke="#666666" points="86.5,-32 86.5,-32 214.5,-32 214.5,-32 86.5,-32"/>
<polygon fill="#666666" stroke="#666666" points="86.5,-17 86.5,-17 214.5,-17 214.5,-17 86.5,-17"/>
<polygon fill="none" stroke="#666666" points="86.5,0 86.5,-60 214.5,-60 214.5,0 86.5,0"/>
</a>
</g>
</g>
<!-- Node2 -->
<g id="Node000002" class="node">
<title>Node2</title>
<g id="a_Node000002"><a xlink:href="../../d4/d6e/structIEEE_1_1__1588_1_1PTP_1_1__2019_1_1Types_1_1Timestamp.html" target="_top" xlink:title="PTP Timestamp &#45; seconds and nanoseconds representation.">
<polygon fill="white" stroke="transparent" points="135,-362 0,-362 0,-107 135,-107 135,-362"/>
<text text-anchor="start" x="5.5" y="-349.5" font-family="Helvetica,sans-Serif" font-size="10.00">IEEE::_1588::PTP::</text>
<text text-anchor="start" x="5.5" y="-338.5" font-family="Helvetica,sans-Serif" font-size="10.00">_2019::Types::Timestamp</text>
<text text-anchor="start" x="11" y="-323.5" font-family="Helvetica,sans-Serif" font-size="10.00">+</text>
<text text-anchor="start" x="30.5" y="-323.5" font-family="Helvetica,sans-Serif" font-size="10.00">seconds_high</text>
<text text-anchor="start" x="11" y="-308.5" font-family="Helvetica,sans-Serif" font-size="10.00">+</text>
<text text-anchor="start" x="30.5" y="-308.5" font-family="Helvetica,sans-Serif" font-size="10.00">seconds_low</text>
<text text-anchor="start" x="11" y="-293.5" font-family="Helvetica,sans-Serif" font-size="10.00">+</text>
<text text-anchor="start" x="30.5" y="-293.5" font-family="Helvetica,sans-Serif" font-size="10.00">nanoseconds</text>
<text text-anchor="start" x="11" y="-278.5" font-family="Helvetica,sans-Serif" font-size="10.00">+</text>
<text text-anchor="start" x="30.5" y="-278.5" font-family="Helvetica,sans-Serif" font-size="10.00">getTotalSeconds()</text>
<text text-anchor="start" x="11" y="-263.5" font-family="Helvetica,sans-Serif" font-size="10.00">+</text>
<text text-anchor="start" x="30.5" y="-263.5" font-family="Helvetica,sans-Serif" font-size="10.00">setTotalSeconds()</text>
<text text-anchor="start" x="11" y="-248.5" font-family="Helvetica,sans-Serif" font-size="10.00">+</text>
<text text-anchor="start" x="30.5" y="-248.5" font-family="Helvetica,sans-Serif" font-size="10.00">isValid()</text>
<text text-anchor="start" x="11" y="-233.5" font-family="Helvetica,sans-Serif" font-size="10.00">+</text>
<text text-anchor="start" x="30.5" y="-233.5" font-family="Helvetica,sans-Serif" font-size="10.00">validate()</text>
<text text-anchor="start" x="11" y="-218.5" font-family="Helvetica,sans-Serif" font-size="10.00">+</text>
<text text-anchor="start" x="30.5" y="-218.5" font-family="Helvetica,sans-Serif" font-size="10.00">operator&lt;()</text>
<text text-anchor="start" x="11" y="-203.5" font-family="Helvetica,sans-Serif" font-size="10.00">+</text>
<text text-anchor="start" x="30.5" y="-203.5" font-family="Helvetica,sans-Serif" font-size="10.00">operator&gt;()</text>
<text text-anchor="start" x="11" y="-188.5" font-family="Helvetica,sans-Serif" font-size="10.00">+</text>
<text text-anchor="start" x="30.5" y="-188.5" font-family="Helvetica,sans-Serif" font-size="10.00">operator&lt;=()</text>
<text text-anchor="start" x="11" y="-173.5" font-family="Helvetica,sans-Serif" font-size="10.00">+</text>
<text text-anchor="start" x="30.5" y="-173.5" font-family="Helvetica,sans-Serif" font-size="10.00">operator&gt;=()</text>
<text text-anchor="start" x="11" y="-158.5" font-family="Helvetica,sans-Serif" font-size="10.00">+</text>
<text text-anchor="start" x="30.5" y="-158.5" font-family="Helvetica,sans-Serif" font-size="10.00">operator==()</text>
<text text-anchor="start" x="11" y="-143.5" font-family="Helvetica,sans-Serif" font-size="10.00">+</text>
<text text-anchor="start" x="30.5" y="-143.5" font-family="Helvetica,sans-Serif" font-size="10.00">operator!=()</text>
<text text-anchor="start" x="11" y="-128.5" font-family="Helvetica,sans-Serif" font-size="10.00">+</text>
<text text-anchor="start" x="30.5" y="-128.5" font-family="Helvetica,sans-Serif" font-size="10.00">operator&#45;()</text>
<text text-anchor="start" x="11" y="-113.5" font-family="Helvetica,sans-Serif" font-size="10.00">+</text>
<text text-anchor="start" x="30.5" y="-113.5" font-family="Helvetica,sans-Serif" font-size="10.00">operator*()</text>
<polygon fill="#666666" stroke="#666666" points="0.5,-333.5 0.5,-333.5 135.5,-333.5 135.5,-333.5 0.5,-333.5"/>
<polygon fill="#666666" stroke="#666666" points="0.5,-288.5 0.5,-288.5 28.5,-288.5 28.5,-288.5 0.5,-288.5"/>
<polygon fill="#666666" stroke="#666666" points="28.5,-288.5 28.5,-288.5 135.5,-288.5 135.5,-288.5 28.5,-288.5"/>
<polygon fill="none" stroke="#666666" points="0,-107 0,-362 135,-362 135,-107 0,-107"/>
</a>
</g>
</g>
<!-- Node2&#45;&gt;Node1 -->
<g id="edge1_Node000001_Node000002" class="edge">
<title>Node2&#45;&gt;Node1</title>
<g id="a_edge1_Node000001_Node000002"><a xlink:title=" ">
<path fill="none" stroke="#63b8ff" d="M57.09,-106.93C59.57,-96.77 63.26,-86.98 68.5,-78 70.94,-73.82 73.91,-69.97 77.26,-66.44"/>
<polygon fill="none" stroke="#63b8ff" points="77.35,-66.36 79.12,-59.37 86.25,-58.32 84.48,-65.31 77.35,-66.36"/>
</a>
</g>
<text text-anchor="middle" x="140" y="-81" font-family="Helvetica,sans-Serif" font-size="10.00" fill="grey"> +requestReceiveTimestamp</text>
</g>
<!-- Node3 -->
<g id="Node000003" class="node">
<title>Node3</title>
<g id="a_Node000003"><a xlink:href="../../dc/d02/structIEEE_1_1__1588_1_1PTP_1_1__2019_1_1Types_1_1PortIdentity.html" target="_top" xlink:title="Port Identity &#45; combination of clock identity and port number.">
<polygon fill="white" stroke="transparent" points="302,-279.5 165,-279.5 165,-189.5 302,-189.5 302,-279.5"/>
<text text-anchor="start" x="170.5" y="-267.5" font-family="Helvetica,sans-Serif" font-size="10.00">IEEE::_1588::PTP::</text>
<text text-anchor="start" x="170.5" y="-256.5" font-family="Helvetica,sans-Serif" font-size="10.00">_2019::Types::PortIdentity</text>
<text text-anchor="start" x="182" y="-241.5" font-family="Helvetica,sans-Serif" font-size="10.00">+</text>
<text text-anchor="start" x="207.5" y="-241.5" font-family="Helvetica,sans-Serif" font-size="10.00">port_number</text>
<text text-anchor="start" x="182" y="-226.5" font-family="Helvetica,sans-Serif" font-size="10.00">+</text>
<text text-anchor="start" x="207.5" y="-226.5" font-family="Helvetica,sans-Serif" font-size="10.00">operator==()</text>
<text text-anchor="start" x="182" y="-211.5" font-family="Helvetica,sans-Serif" font-size="10.00">+</text>
<text text-anchor="start" x="207.5" y="-211.5" font-family="Helvetica,sans-Serif" font-size="10.00">operator&lt;()</text>
<text text-anchor="start" x="182" y="-196.5" font-family="Helvetica,sans-Serif" font-size="10.00">+</text>
<text text-anchor="start" x="207.5" y="-196.5" font-family="Helvetica,sans-Serif" font-size="10.00">validate()</text>
<polygon fill="#666666" stroke="#666666" points="165.5,-251.5 165.5,-251.5 302.5,-251.5 302.5,-251.5 165.5,-251.5"/>
<polygon fill="#666666" stroke="#666666" points="165.5,-236.5 165.5,-236.5 205.5,-236.5 205.5,-236.5 165.5,-236.5"/>
<polygon fill="#666666" stroke="#666666" points="205.5,-236.5 205.5,-236.5 302.5,-236.5 302.5,-236.5 205.5,-236.5"/>
<polygon fill="none" stroke="#666666" points="165,-189.5 165,-279.5 302,-279.5 302,-189.5 165,-189.5"/>
</a>
</g>
</g>
<!-- Node3&#45;&gt;Node1 -->
<g id="edge2_Node000001_Node000003" class="edge">
<title>Node3&#45;&gt;Node1</title>
<g id="a_edge2_Node000001_Node000003"><a xlink:title=" ">
<path fill="none" stroke="#63b8ff" d="M235.9,-189.39C235.72,-156.57 231.19,-111.81 211.5,-78 209.64,-74.81 207.48,-71.76 205.09,-68.86"/>
<polygon fill="none" stroke="#63b8ff" points="205.06,-68.83 198.03,-67.22 196.82,-60.11 203.85,-61.73 205.06,-68.83"/>
</a>
</g>
<text text-anchor="middle" x="275" y="-81" font-family="Helvetica,sans-Serif" font-size="10.00" fill="grey"> +requestingPortIdentity</text>
</g>
<!-- Node4 -->
<g id="Node000004" class="node">
<title>Node4</title>
<g id="a_Node000004"><a xlink:title=" ">
<polygon fill="white" stroke="transparent" points="290.5,-469 176.5,-469 176.5,-409 290.5,-409 290.5,-469"/>
<text text-anchor="start" x="181.5" y="-457" font-family="Helvetica,sans-Serif" font-size="10.00">std::array&lt; std::uint8</text>
<text text-anchor="start" x="217" y="-446" font-family="Helvetica,sans-Serif" font-size="10.00">_t, 8 &gt;</text>
<text text-anchor="start" x="192" y="-431" font-family="Helvetica,sans-Serif" font-size="10.00">+</text>
<text text-anchor="start" x="216.5" y="-431" font-family="Helvetica,sans-Serif" font-size="10.00">elements</text>
<text text-anchor="start" x="231.5" y="-416" font-family="Helvetica,sans-Serif" font-size="10.00"> </text>
<polygon fill="#666666" stroke="#666666" points="176.5,-441 176.5,-441 290.5,-441 290.5,-441 176.5,-441"/>
<polygon fill="#666666" stroke="#666666" points="176.5,-426 176.5,-426 214.5,-426 214.5,-426 176.5,-426"/>
<polygon fill="#666666" stroke="#666666" points="214.5,-426 214.5,-426 290.5,-426 290.5,-426 214.5,-426"/>
<polygon fill="none" stroke="#666666" points="176.5,-409 176.5,-469 290.5,-469 290.5,-409 176.5,-409"/>
</a>
</g>
</g>
<!-- Node4&#45;&gt;Node3 -->
<g id="edge3_Node000003_Node000004" class="edge">
<title>Node4&#45;&gt;Node3</title>
<g id="a_edge3_Node000003_Node000004"><a xlink:title=" ">
<path fill="none" stroke="#63b8ff" d="M233.5,-408.99C233.5,-378.63 233.5,-330.18 233.5,-292.2"/>
<polygon fill="none" stroke="#63b8ff" points="233.5,-291.75 229.5,-285.75 233.5,-279.75 237.5,-285.75 233.5,-291.75"/>
</a>
</g>
<text text-anchor="middle" x="273.5" y="-383" font-family="Helvetica,sans-Serif" font-size="10.00" fill="grey"> +clock_identity</text>
</g>
<!-- Node5 -->
<g id="Node000005" class="node">
<title>Node5</title>
<g id="a_Node000005"><a xlink:title=" ">
<polygon fill="white" stroke="transparent" points="276.5,-565 190.5,-565 190.5,-516 276.5,-516 276.5,-565"/>
<text text-anchor="start" x="195.5" y="-552.5" font-family="Helvetica,sans-Serif" font-size="10.00">std::array&lt; T &gt;</text>
<text text-anchor="start" x="231.5" y="-537.5" font-family="Helvetica,sans-Serif" font-size="10.00"> </text>
<text text-anchor="start" x="231.5" y="-522.5" font-family="Helvetica,sans-Serif" font-size="10.00"> </text>
<polygon fill="#666666" stroke="#666666" points="190.5,-547.5 190.5,-547.5 276.5,-547.5 276.5,-547.5 190.5,-547.5"/>
<polygon fill="#666666" stroke="#666666" points="190.5,-532.5 190.5,-532.5 276.5,-532.5 276.5,-532.5 190.5,-532.5"/>
<polygon fill="none" stroke="#666666" points="190.5,-516 190.5,-565 276.5,-565 276.5,-516 190.5,-516"/>
</a>
</g>
</g>
<!-- Node5&#45;&gt;Node4 -->
<g id="edge4_Node000004_Node000005" class="edge">
<title>Node5&#45;&gt;Node4</title>
<g id="a_edge4_Node000004_Node000005"><a xlink:title=" ">
<path fill="none" stroke="orange" d="M233.5,-505.87C233.5,-493.94 233.5,-480.62 233.5,-469.1"/>
<polygon fill="orange" stroke="orange" points="230,-505.92 233.5,-515.92 237,-505.92 230,-505.92"/>
</a>
</g>
<text text-anchor="middle" x="280" y="-490" font-family="Helvetica,sans-Serif" font-size="10.00" fill="grey"> &lt; std::uint8_t, 8 &gt;</text>
</g>
<!-- Node6 -->
<g id="Node000006" class="node">
<title>Node6</title>
<g id="a_Node000006"><a xlink:title=" ">
<polygon fill="white" stroke="transparent" points="242,-661 225,-661 225,-612 242,-612 242,-661"/>
<text text-anchor="start" x="230.5" y="-648.5" font-family="Helvetica,sans-Serif" font-size="10.00">T</text>
<text text-anchor="start" x="232" y="-633.5" font-family="Helvetica,sans-Serif" font-size="10.00"> </text>
<text text-anchor="start" x="232" y="-618.5" font-family="Helvetica,sans-Serif" font-size="10.00"> </text>
<polygon fill="#666666" stroke="#666666" points="225.5,-643.5 225.5,-643.5 242.5,-643.5 242.5,-643.5 225.5,-643.5"/>
<polygon fill="#666666" stroke="#666666" points="225.5,-628.5 225.5,-628.5 242.5,-628.5 242.5,-628.5 225.5,-628.5"/>
<polygon fill="none" stroke="#666666" points="225,-612 225,-661 242,-661 242,-612 225,-612"/>
</a>
</g>
</g>
<!-- Node6&#45;&gt;Node5 -->
<g id="edge5_Node000005_Node000006" class="edge">
<title>Node6&#45;&gt;Node5</title>
<g id="a_edge5_Node000005_Node000006"><a xlink:title=" ">
<path fill="none" stroke="#63b8ff" d="M233.5,-611.78C233.5,-601.32 233.5,-588.79 233.5,-577.23"/>
<polygon fill="none" stroke="#63b8ff" points="233.5,-577.21 229.5,-571.21 233.5,-565.21 237.5,-571.21 233.5,-577.21"/>
</a>
</g>
<text text-anchor="middle" x="262.5" y="-586" font-family="Helvetica,sans-Serif" font-size="10.00" fill="grey"> +elements</text>
</g>
</g>
</svg>
