<?xml version="1.0" encoding="UTF-8" standalone="no"?>
<!DOCTYPE svg PUBLIC "-//W3C//DTD SVG 1.1//EN"
 "http://www.w3.org/Graphics/SVG/1.1/DTD/svg11.dtd">
<!-- Generated by graphviz version 2.43.0 (0)
 -->
<!-- Title: IEEE::_1588::_2019::ProfileFactory Pages: 1 -->
<svg width="113pt" height="98pt"
 viewBox="0.00 0.00 113.00 98.00" xmlns="http://www.w3.org/2000/svg" xmlns:xlink="http://www.w3.org/1999/xlink">
<g id="graph0" class="graph" transform="scale(1 1) rotate(0) translate(4 94)">
<title>IEEE::_1588::_2019::ProfileFactory</title>
<!-- Node1 -->
<g id="Node000001" class="node">
<title>Node1</title>
<g id="a_Node000001"><a xlink:title="Factory helpers for standard profiles.">
<polygon fill="#999999" stroke="transparent" points="105,-90 0,-90 0,0 105,0 105,-90"/>
<text text-anchor="start" x="7" y="-78" font-family="Helvetica,sans-Serif" font-size="10.00">IEEE::_1588::_2019</text>
<text text-anchor="start" x="16.5" y="-67" font-family="Helvetica,sans-Serif" font-size="10.00">::ProfileFactory</text>
<text text-anchor="start" x="51" y="-52" font-family="Helvetica,sans-Serif" font-size="10.00"> </text>
<text text-anchor="start" x="4.5" y="-37" font-family="Helvetica,sans-Serif" font-size="10.00">+</text>
<text text-anchor="start" x="17.5" y="-37" font-family="Helvetica,sans-Serif" font-size="10.00">Gptp8021AS()</text>
<text text-anchor="start" x="4.5" y="-22" font-family="Helvetica,sans-Serif" font-size="10.00">+</text>
<text text-anchor="start" x="17.5" y="-22" font-family="Helvetica,sans-Serif" font-size="10.00">Industrial60802()</text>
<text text-anchor="start" x="4.5" y="-7" font-family="Helvetica,sans-Serif" font-size="10.00">+</text>
<text text-anchor="start" x="17.5" y="-7" font-family="Helvetica,sans-Serif" font-size="10.00">AES67Media()</text>
<polygon fill="#666666" stroke="#666666" points="0.5,-62 0.5,-62 105.5,-62 105.5,-62 0.5,-62"/>
<polygon fill="#666666" stroke="#666666" points="0.5,-47 0.5,-47 105.5,-47 105.5,-47 0.5,-47"/>
<polygon fill="none" stroke="#666666" points="0,0 0,-90 105,-90 105,0 0,0"/>
</a>
</g>
</g>
</g>
</svg>
