<?xml version="1.0" encoding="UTF-8" standalone="no"?>
<!DOCTYPE svg PUBLIC "-//W3C//DTD SVG 1.1//EN"
 "http://www.w3.org/Graphics/SVG/1.1/DTD/svg11.dtd">
<!-- Generated by graphviz version 2.43.0 (0)
 -->
<!-- Title: IEEE::_1588::PTP::_2019::Clocks::PtpPort::process_management Pages: 1 -->
<svg width="439pt" height="145pt"
 viewBox="0.00 0.00 439.00 145.00" xmlns="http://www.w3.org/2000/svg" xmlns:xlink="http://www.w3.org/1999/xlink">
<g id="graph0" class="graph" transform="scale(1 1) rotate(0) translate(4 141)">
<title>IEEE::_1588::PTP::_2019::Clocks::PtpPort::process_management</title>
<!-- Node1 -->
<g id="Node000001" class="node">
<title>Node1</title>
<g id="a_Node000001"><a xlink:title="Process Management message (dataset GET/SET operations)">
<polygon fill="#999999" stroke="#666666" points="131,-100 0,-100 0,-59 131,-59 131,-100"/>
<text text-anchor="start" x="8" y="-88" font-family="Helvetica,sans-Serif" font-size="10.00">IEEE::_1588::PTP::</text>
<text text-anchor="start" x="8" y="-77" font-family="Helvetica,sans-Serif" font-size="10.00">_2019::Clocks::PtpPort</text>
<text text-anchor="middle" x="65.5" y="-66" font-family="Helvetica,sans-Serif" font-size="10.00">::process_management</text>
</a>
</g>
</g>
<!-- Node2 -->
<g id="Node000002" class="node">
<title>Node2</title>
<g id="a_Node000002"><a xlink:href="../../dd/d39/namespacedetail.html#a162d12447333d9129db6326825711788" target="_top" xlink:title=" ">
<polygon fill="white" stroke="#666666" points="292,-137 176,-137 176,-118 292,-118 292,-137"/>
<text text-anchor="middle" x="234" y="-125" font-family="Helvetica,sans-Serif" font-size="10.00">detail::be16_to_host</text>
</a>
</g>
</g>
<!-- Node1&#45;&gt;Node2 -->
<g id="edge1_Node000001_Node000002" class="edge">
<title>Node1&#45;&gt;Node2</title>
<g id="a_edge1_Node000001_Node000002"><a xlink:title=" ">
<path fill="none" stroke="#63b8ff" d="M131.04,-99.01C142.98,-102.55 155.36,-106.17 167,-109.5 173.6,-111.38 180.58,-113.34 187.44,-115.23"/>
<polygon fill="#63b8ff" stroke="#63b8ff" points="186.76,-118.67 197.33,-117.94 188.62,-111.92 186.76,-118.67"/>
</a>
</g>
</g>
<!-- Node4 -->
<g id="Node000004" class="node">
<title>Node4</title>
<g id="a_Node000004"><a xlink:href="../../df/d1f/classIEEE_1_1__1588_1_1PTP_1_1__2019_1_1Types_1_1PTPResult.html#ab098752bb1a00689c62a2f0f0a258f21" target="_top" xlink:title="Create error result (static method)">
<polygon fill="white" stroke="#666666" points="301,-100 167,-100 167,-59 301,-59 301,-100"/>
<text text-anchor="start" x="175" y="-88" font-family="Helvetica,sans-Serif" font-size="10.00">IEEE::_1588::PTP::</text>
<text text-anchor="start" x="175" y="-77" font-family="Helvetica,sans-Serif" font-size="10.00">_2019::Types::PTPResult</text>
<text text-anchor="middle" x="234" y="-66" font-family="Helvetica,sans-Serif" font-size="10.00">::failure</text>
</a>
</g>
</g>
<!-- Node1&#45;&gt;Node4 -->
<g id="edge3_Node000001_Node000004" class="edge">
<title>Node1&#45;&gt;Node4</title>
<g id="a_edge3_Node000001_Node000004"><a xlink:title=" ">
<path fill="none" stroke="#63b8ff" d="M131.35,-79.5C139.66,-79.5 148.23,-79.5 156.7,-79.5"/>
<polygon fill="#63b8ff" stroke="#63b8ff" points="156.96,-83 166.96,-79.5 156.96,-76 156.96,-83"/>
</a>
</g>
</g>
<!-- Node5 -->
<g id="Node000005" class="node">
<title>Node5</title>
<g id="a_Node000005"><a xlink:href="../../df/d1f/classIEEE_1_1__1588_1_1PTP_1_1__2019_1_1Types_1_1PTPResult.html#a873027aad818e35452ddab7583b7a7e5" target="_top" xlink:title="Create successful result (static method)">
<polygon fill="white" stroke="#666666" points="301,-41 167,-41 167,0 301,0 301,-41"/>
<text text-anchor="start" x="175" y="-29" font-family="Helvetica,sans-Serif" font-size="10.00">IEEE::_1588::PTP::</text>
<text text-anchor="start" x="175" y="-18" font-family="Helvetica,sans-Serif" font-size="10.00">_2019::Types::PTPResult</text>
<text text-anchor="middle" x="234" y="-7" font-family="Helvetica,sans-Serif" font-size="10.00">::success</text>
</a>
</g>
</g>
<!-- Node1&#45;&gt;Node5 -->
<g id="edge4_Node000001_Node000005" class="edge">
<title>Node1&#45;&gt;Node5</title>
<g id="a_edge4_Node000001_Node000005"><a xlink:title=" ">
<path fill="none" stroke="#63b8ff" d="M124.73,-58.86C137.86,-54.21 151.91,-49.23 165.39,-44.46"/>
<polygon fill="#63b8ff" stroke="#63b8ff" points="166.82,-47.66 175.08,-41.02 164.49,-41.07 166.82,-47.66"/>
</a>
</g>
</g>
<!-- Node3 -->
<g id="Node000003" class="node">
<title>Node3</title>
<g id="a_Node000003"><a xlink:href="../../dd/d39/namespacedetail.html#af252a1f9a94bf9b62e57b592d3268f51" target="_top" xlink:title=" ">
<polygon fill="white" stroke="#666666" points="431,-137 337,-137 337,-118 431,-118 431,-137"/>
<text text-anchor="middle" x="384" y="-125" font-family="Helvetica,sans-Serif" font-size="10.00">detail::bswap16</text>
</a>
</g>
</g>
<!-- Node2&#45;&gt;Node3 -->
<g id="edge2_Node000002_Node000003" class="edge">
<title>Node2&#45;&gt;Node3</title>
<g id="a_edge2_Node000002_Node000003"><a xlink:title=" ">
<path fill="none" stroke="#63b8ff" d="M292.22,-127.5C303.56,-127.5 315.44,-127.5 326.75,-127.5"/>
<polygon fill="#63b8ff" stroke="#63b8ff" points="326.93,-131 336.93,-127.5 326.93,-124 326.93,-131"/>
</a>
</g>
</g>
</g>
</svg>
