<?xml version="1.0" encoding="UTF-8" standalone="no"?>
<!DOCTYPE svg PUBLIC "-//W3C//DTD SVG 1.1//EN"
 "http://www.w3.org/Graphics/SVG/1.1/DTD/svg11.dtd">
<!-- Generated by graphviz version 2.43.0 (0)
 -->
<!-- Title: IEEE::_1588::PTP::_2019::Clocks::PtpPort::tick Pages: 1 -->
<svg width="830pt" height="230pt"
 viewBox="0.00 0.00 830.00 230.00" xmlns="http://www.w3.org/2000/svg" xmlns:xlink="http://www.w3.org/1999/xlink">
<g id="graph0" class="graph" transform="scale(1 1) rotate(0) translate(4 226)">
<title>IEEE::_1588::PTP::_2019::Clocks::PtpPort::tick</title>
<!-- Node1 -->
<g id="Node000001" class="node">
<title>Node1</title>
<g id="a_Node000001"><a xlink:title="Execute periodic state machine tasks.">
<polygon fill="#999999" stroke="#666666" points="149,-123 0,-123 0,-93 149,-93 149,-123"/>
<text text-anchor="start" x="8" y="-111" font-family="Helvetica,sans-Serif" font-size="10.00">IEEE::_1588::PTP::</text>
<text text-anchor="middle" x="74.5" y="-100" font-family="Helvetica,sans-Serif" font-size="10.00">_2019::Clocks::PtpPort::tick</text>
</a>
</g>
</g>
<!-- Node2 -->
<g id="Node000002" class="node">
<title>Node2</title>
<g id="a_Node000002"><a xlink:href="../../d2/d0d/namespaceCommon_1_1utils_1_1health.html#a039bc597c3de1a97c0f78590dc2a51f8" target="_top" xlink:title=" ">
<polygon fill="white" stroke="#666666" points="314.5,-150 189.5,-150 189.5,-120 314.5,-120 314.5,-150"/>
<text text-anchor="start" x="197.5" y="-138" font-family="Helvetica,sans-Serif" font-size="10.00">Common::utils::health</text>
<text text-anchor="middle" x="252" y="-127" font-family="Helvetica,sans-Serif" font-size="10.00">::emit</text>
</a>
</g>
</g>
<!-- Node1&#45;&gt;Node2 -->
<g id="edge1_Node000001_Node000002" class="edge">
<title>Node1&#45;&gt;Node2</title>
<g id="a_edge1_Node000001_Node000002"><a xlink:title=" ">
<path fill="none" stroke="#63b8ff" d="M149.16,-119.33C159.23,-120.88 169.54,-122.47 179.56,-124.01"/>
<polygon fill="#63b8ff" stroke="#63b8ff" points="179.05,-127.47 189.46,-125.53 180.11,-120.55 179.05,-127.47"/>
</a>
</g>
</g>
<!-- Node12 -->
<g id="Node000012" class="node">
<title>Node12</title>
<g id="a_Node000012"><a xlink:href="../../df/d1f/classIEEE_1_1__1588_1_1PTP_1_1__2019_1_1Types_1_1PTPResult.html#a873027aad818e35452ddab7583b7a7e5" target="_top" xlink:title="Create successful result (static method)">
<polygon fill="white" stroke="#666666" points="319,-101.5 185,-101.5 185,-60.5 319,-60.5 319,-101.5"/>
<text text-anchor="start" x="193" y="-89.5" font-family="Helvetica,sans-Serif" font-size="10.00">IEEE::_1588::PTP::</text>
<text text-anchor="start" x="193" y="-78.5" font-family="Helvetica,sans-Serif" font-size="10.00">_2019::Types::PTPResult</text>
<text text-anchor="middle" x="252" y="-67.5" font-family="Helvetica,sans-Serif" font-size="10.00">::success</text>
</a>
</g>
</g>
<!-- Node1&#45;&gt;Node12 -->
<g id="edge11_Node000001_Node000012" class="edge">
<title>Node1&#45;&gt;Node12</title>
<g id="a_edge11_Node000001_Node000012"><a xlink:title=" ">
<path fill="none" stroke="#63b8ff" d="M149.16,-96.67C157.66,-95.36 166.34,-94.03 174.86,-92.71"/>
<polygon fill="#63b8ff" stroke="#63b8ff" points="175.43,-96.17 184.78,-91.19 174.37,-89.25 175.43,-96.17"/>
</a>
</g>
</g>
<!-- Node3 -->
<g id="Node000003" class="node">
<title>Node3</title>
<g id="a_Node000003"><a xlink:href="../../d5/d7e/namespaceCommon_1_1utils_1_1health_1_1detail.html#ad44220949fd128899e071696e6e472d4" target="_top" xlink:title=" ">
<polygon fill="white" stroke="#666666" points="480,-174 355,-174 355,-144 480,-144 480,-174"/>
<text text-anchor="start" x="363" y="-162" font-family="Helvetica,sans-Serif" font-size="10.00">Common::utils::health</text>
<text text-anchor="middle" x="417.5" y="-151" font-family="Helvetica,sans-Serif" font-size="10.00">::detail::observer</text>
</a>
</g>
</g>
<!-- Node2&#45;&gt;Node3 -->
<g id="edge2_Node000002_Node000003" class="edge">
<title>Node2&#45;&gt;Node3</title>
<g id="a_edge2_Node000002_Node000003"><a xlink:title=" ">
<path fill="none" stroke="#63b8ff" d="M314.81,-144.07C324.65,-145.52 334.89,-147.02 344.93,-148.49"/>
<polygon fill="#63b8ff" stroke="#63b8ff" points="344.47,-151.96 354.87,-149.95 345.49,-145.04 344.47,-151.96"/>
</a>
</g>
</g>
<!-- Node4 -->
<g id="Node000004" class="node">
<title>Node4</title>
<g id="a_Node000004"><a xlink:href="../../d2/d0d/namespaceCommon_1_1utils_1_1health.html#aec9746d507dc8131538845de04614675" target="_top" xlink:title=" ">
<polygon fill="white" stroke="#666666" points="480,-126 355,-126 355,-96 480,-96 480,-126"/>
<text text-anchor="start" x="363" y="-114" font-family="Helvetica,sans-Serif" font-size="10.00">Common::utils::health</text>
<text text-anchor="middle" x="417.5" y="-103" font-family="Helvetica,sans-Serif" font-size="10.00">::self_test</text>
</a>
</g>
</g>
<!-- Node2&#45;&gt;Node4 -->
<g id="edge3_Node000002_Node000004" class="edge">
<title>Node2&#45;&gt;Node4</title>
<g id="a_edge3_Node000002_Node000004"><a xlink:title=" ">
<path fill="none" stroke="#63b8ff" d="M314.81,-125.93C324.65,-124.48 334.89,-122.98 344.93,-121.51"/>
<polygon fill="#63b8ff" stroke="#63b8ff" points="345.49,-124.96 354.87,-120.05 344.47,-118.04 345.49,-124.96"/>
</a>
</g>
</g>
<!-- Node5 -->
<g id="Node000005" class="node">
<title>Node5</title>
<g id="a_Node000005"><a xlink:href="../../d5/d7e/namespaceCommon_1_1utils_1_1health_1_1detail.html#a35fac6eb49eb88a95a0eb9e8a37f9c46" target="_top" xlink:title=" ">
<polygon fill="white" stroke="#666666" points="654,-222 517,-222 517,-192 654,-192 654,-222"/>
<text text-anchor="start" x="525" y="-210" font-family="Helvetica,sans-Serif" font-size="10.00">Common::utils::health</text>
<text text-anchor="middle" x="585.5" y="-199" font-family="Helvetica,sans-Serif" font-size="10.00">::detail::bmca_tie_forced</text>
</a>
</g>
</g>
<!-- Node4&#45;&gt;Node5 -->
<g id="edge4_Node000004_Node000005" class="edge">
<title>Node4&#45;&gt;Node5</title>
<g id="a_edge4_Node000004_Node000005"><a xlink:title=" ">
<path fill="none" stroke="#63b8ff" d="M465.33,-126.04C470.51,-128.63 475.53,-131.6 480,-135 501.23,-151.13 494.49,-167.24 516,-183 518.05,-184.5 520.19,-185.91 522.41,-187.24"/>
<polygon fill="#63b8ff" stroke="#63b8ff" points="520.81,-190.35 531.28,-191.96 524.1,-184.17 520.81,-190.35"/>
</a>
</g>
</g>
<!-- Node6 -->
<g id="Node000006" class="node">
<title>Node6</title>
<g id="a_Node000006"><a xlink:href="../../df/db5/namespaceCommon_1_1utils_1_1fi.html#a559225123b8c3e95a1a93186fb7aba1c" target="_top" xlink:title=" ">
<polygon fill="white" stroke="#666666" points="651,-174 520,-174 520,-144 651,-144 651,-174"/>
<text text-anchor="start" x="528" y="-162" font-family="Helvetica,sans-Serif" font-size="10.00">Common::utils::fi::</text>
<text text-anchor="middle" x="585.5" y="-151" font-family="Helvetica,sans-Serif" font-size="10.00">is_offset_jitter_enabled</text>
</a>
</g>
</g>
<!-- Node4&#45;&gt;Node6 -->
<g id="edge5_Node000004_Node000006" class="edge">
<title>Node4&#45;&gt;Node6</title>
<g id="a_edge5_Node000004_Node000006"><a xlink:title=" ">
<path fill="none" stroke="#63b8ff" d="M470.57,-126.06C487.1,-130.84 505.54,-136.17 522.69,-141.13"/>
<polygon fill="#63b8ff" stroke="#63b8ff" points="522.04,-144.58 532.62,-144 523.98,-137.86 522.04,-144.58"/>
</a>
</g>
</g>
<!-- Node8 -->
<g id="Node000008" class="node">
<title>Node8</title>
<g id="a_Node000008"><a xlink:href="../../d5/d7e/namespaceCommon_1_1utils_1_1health_1_1detail.html#ac739d4b51b96e82b000ee9251f7d87ec" target="_top" xlink:title=" ">
<polygon fill="white" stroke="#666666" points="655,-126 516,-126 516,-96 655,-96 655,-126"/>
<text text-anchor="start" x="524" y="-114" font-family="Helvetica,sans-Serif" font-size="10.00">Common::utils::health</text>
<text text-anchor="middle" x="585.5" y="-103" font-family="Helvetica,sans-Serif" font-size="10.00">::detail::last_bmca_index</text>
</a>
</g>
</g>
<!-- Node4&#45;&gt;Node8 -->
<g id="edge7_Node000004_Node000008" class="edge">
<title>Node4&#45;&gt;Node8</title>
<g id="a_edge7_Node000004_Node000008"><a xlink:title=" ">
<path fill="none" stroke="#63b8ff" d="M480.31,-111C488.66,-111 497.31,-111 505.91,-111"/>
<polygon fill="#63b8ff" stroke="#63b8ff" points="505.94,-114.5 515.94,-111 505.94,-107.5 505.94,-114.5"/>
</a>
</g>
</g>
<!-- Node9 -->
<g id="Node000009" class="node">
<title>Node9</title>
<g id="a_Node000009"><a xlink:href="../../d5/d7e/namespaceCommon_1_1utils_1_1health_1_1detail.html#ae4b87c4bfd1a0f705bcf13248e6db814" target="_top" xlink:title=" ">
<polygon fill="white" stroke="#666666" points="648,-78 523,-78 523,-48 648,-48 648,-78"/>
<text text-anchor="start" x="531" y="-66" font-family="Helvetica,sans-Serif" font-size="10.00">Common::utils::health</text>
<text text-anchor="middle" x="585.5" y="-55" font-family="Helvetica,sans-Serif" font-size="10.00">::detail::last_offset_ns</text>
</a>
</g>
</g>
<!-- Node4&#45;&gt;Node9 -->
<g id="edge8_Node000004_Node000009" class="edge">
<title>Node4&#45;&gt;Node9</title>
<g id="a_edge8_Node000004_Node000009"><a xlink:title=" ">
<path fill="none" stroke="#63b8ff" d="M470.57,-95.94C487.1,-91.16 505.54,-85.83 522.69,-80.87"/>
<polygon fill="#63b8ff" stroke="#63b8ff" points="523.98,-84.14 532.62,-78 522.04,-77.42 523.98,-84.14"/>
</a>
</g>
</g>
<!-- Node10 -->
<g id="Node000010" class="node">
<title>Node10</title>
<g id="a_Node000010"><a xlink:href="../../da/d3c/namespaceCommon_1_1utils_1_1metrics.html#a91a447237c08bb1ce67d7a5a40b18341" target="_top" xlink:title=" ">
<polygon fill="white" stroke="#666666" points="651,-30 520,-30 520,0 651,0 651,-30"/>
<text text-anchor="start" x="528" y="-18" font-family="Helvetica,sans-Serif" font-size="10.00">Common::utils::metrics</text>
<text text-anchor="middle" x="585.5" y="-7" font-family="Helvetica,sans-Serif" font-size="10.00">::snapshot</text>
</a>
</g>
</g>
<!-- Node4&#45;&gt;Node10 -->
<g id="edge9_Node000004_Node000010" class="edge">
<title>Node4&#45;&gt;Node10</title>
<g id="a_edge9_Node000004_Node000010"><a xlink:title=" ">
<path fill="none" stroke="#63b8ff" d="M435.75,-95.75C454.44,-79.84 485.68,-55.04 516,-39 519.31,-37.25 522.78,-35.58 526.33,-34"/>
<polygon fill="#63b8ff" stroke="#63b8ff" points="527.95,-37.11 535.82,-30.02 525.25,-30.65 527.95,-37.11"/>
</a>
</g>
</g>
<!-- Node7 -->
<g id="Node000007" class="node">
<title>Node7</title>
<g id="a_Node000007"><a xlink:href="../../df/d79/namespaceCommon_1_1utils_1_1fi_1_1detail.html#ab2140c4babb8f3b7306403e77d17d29f" target="_top" xlink:title=" ">
<polygon fill="white" stroke="#666666" points="810,-179.5 703,-179.5 703,-138.5 810,-138.5 810,-179.5"/>
<text text-anchor="start" x="711" y="-167.5" font-family="Helvetica,sans-Serif" font-size="10.00">Common::utils::fi::</text>
<text text-anchor="start" x="711" y="-156.5" font-family="Helvetica,sans-Serif" font-size="10.00">detail::offset_jitter</text>
<text text-anchor="middle" x="756.5" y="-145.5" font-family="Helvetica,sans-Serif" font-size="10.00">_enabled</text>
</a>
</g>
</g>
<!-- Node6&#45;&gt;Node7 -->
<g id="edge6_Node000006_Node000007" class="edge">
<title>Node6&#45;&gt;Node7</title>
<g id="a_edge6_Node000006_Node000007"><a xlink:title=" ">
<path fill="none" stroke="#63b8ff" d="M651.36,-159C664.93,-159 679.22,-159 692.72,-159"/>
<polygon fill="#63b8ff" stroke="#63b8ff" points="692.86,-162.5 702.86,-159 692.86,-155.5 692.86,-162.5"/>
</a>
</g>
</g>
<!-- Node11 -->
<g id="Node000011" class="node">
<title>Node11</title>
<g id="a_Node000011"><a xlink:href="../../d5/d53/namespaceCommon_1_1utils_1_1metrics_1_1detail.html#aa3719e4e32c969a881318a4788803429" target="_top" xlink:title=" ">
<polygon fill="white" stroke="#666666" points="822,-30 691,-30 691,0 822,0 822,-30"/>
<text text-anchor="start" x="699" y="-18" font-family="Helvetica,sans-Serif" font-size="10.00">Common::utils::metrics</text>
<text text-anchor="middle" x="756.5" y="-7" font-family="Helvetica,sans-Serif" font-size="10.00">::detail::counters</text>
</a>
</g>
</g>
<!-- Node10&#45;&gt;Node11 -->
<g id="edge10_Node000010_Node000011" class="edge">
<title>Node10&#45;&gt;Node11</title>
<g id="a_edge10_Node000010_Node000011"><a xlink:title=" ">
<path fill="none" stroke="#63b8ff" d="M651.36,-15C660.96,-15 670.92,-15 680.71,-15"/>
<polygon fill="#63b8ff" stroke="#63b8ff" points="680.82,-18.5 690.82,-15 680.82,-11.5 680.82,-18.5"/>
</a>
</g>
</g>
</g>
</svg>
