<?xml version="1.0" encoding="UTF-8" standalone="no"?>
<!DOCTYPE svg PUBLIC "-//W3C//DTD SVG 1.1//EN"
 "http://www.w3.org/Graphics/SVG/1.1/DTD/svg11.dtd">
<!-- Generated by graphviz version 2.43.0 (0)
 -->
<!-- Title: IEEE::_1588::PTP::_2019::Clocks::PtpPort::process_follow_up Pages: 1 -->
<svg width="674pt" height="243pt"
 viewBox="0.00 0.00 674.00 242.50" xmlns="http://www.w3.org/2000/svg" xmlns:xlink="http://www.w3.org/1999/xlink">
<g id="graph0" class="graph" transform="scale(1 1) rotate(0) translate(4 238.5)">
<title>IEEE::_1588::PTP::_2019::Clocks::PtpPort::process_follow_up</title>
<!-- Node1 -->
<g id="Node000001" class="node">
<title>Node1</title>
<g id="a_Node000001"><a xlink:title="Process received Follow_Up message.">
<polygon fill="#999999" stroke="#666666" points="125,-132 0,-132 0,-91 125,-91 125,-132"/>
<text text-anchor="start" x="8" y="-120" font-family="Helvetica,sans-Serif" font-size="10.00">IEEE::_1588::PTP::</text>
<text text-anchor="start" x="8" y="-109" font-family="Helvetica,sans-Serif" font-size="10.00">_2019::Clocks::PtpPort</text>
<text text-anchor="middle" x="62.5" y="-98" font-family="Helvetica,sans-Serif" font-size="10.00">::process_follow_up</text>
</a>
</g>
</g>
<!-- Node2 -->
<g id="Node000002" class="node">
<title>Node2</title>
<g id="a_Node000002"><a xlink:href="../../d2/d59/namespaceCommon_1_1utils_1_1logging.html#abd4d1491b89d46b3c1a23c3215e05aa9" target="_top" xlink:title=" ">
<polygon fill="white" stroke="#666666" points="302,-234.5 172,-234.5 172,-204.5 302,-204.5 302,-234.5"/>
<text text-anchor="start" x="180" y="-222.5" font-family="Helvetica,sans-Serif" font-size="10.00">Common::utils::logging</text>
<text text-anchor="middle" x="237" y="-211.5" font-family="Helvetica,sans-Serif" font-size="10.00">::debug</text>
</a>
</g>
</g>
<!-- Node1&#45;&gt;Node2 -->
<g id="edge1_Node000001_Node000002" class="edge">
<title>Node1&#45;&gt;Node2</title>
<g id="a_edge1_Node000001_Node000002"><a xlink:title=" ">
<path fill="none" stroke="#63b8ff" d="M82.59,-132.14C101.04,-151 130.59,-178.47 161,-195.5 164.08,-197.22 167.29,-198.84 170.59,-200.36"/>
<polygon fill="#63b8ff" stroke="#63b8ff" points="169.48,-203.69 180.05,-204.38 172.21,-197.25 169.48,-203.69"/>
</a>
</g>
</g>
<!-- Node5 -->
<g id="Node000005" class="node">
<title>Node5</title>
<g id="a_Node000005"><a xlink:href="../../d6/df7/structIEEE_1_1__1588_1_1PTP_1_1__2019_1_1Types_1_1TimeInterval.html#a35d30c0bb2f6fbed6e21640c0813d272" target="_top" xlink:title="Create from nanoseconds.">
<polygon fill="white" stroke="#666666" points="311,-186 163,-186 163,-145 311,-145 311,-186"/>
<text text-anchor="start" x="171" y="-174" font-family="Helvetica,sans-Serif" font-size="10.00">IEEE::_1588::PTP::</text>
<text text-anchor="start" x="171" y="-163" font-family="Helvetica,sans-Serif" font-size="10.00">_2019::Types::TimeInterval</text>
<text text-anchor="middle" x="237" y="-152" font-family="Helvetica,sans-Serif" font-size="10.00">::fromNanoseconds</text>
</a>
</g>
</g>
<!-- Node1&#45;&gt;Node5 -->
<g id="edge4_Node000001_Node000005" class="edge">
<title>Node1&#45;&gt;Node5</title>
<g id="a_edge4_Node000001_Node000005"><a xlink:title=" ">
<path fill="none" stroke="#63b8ff" d="M125.29,-130.84C136.69,-134.41 148.72,-138.18 160.48,-141.86"/>
<polygon fill="#63b8ff" stroke="#63b8ff" points="159.68,-145.28 170.27,-144.92 161.77,-138.6 159.68,-145.28"/>
</a>
</g>
</g>
<!-- Node6 -->
<g id="Node000006" class="node">
<title>Node6</title>
<g id="a_Node000006"><a xlink:href="../../da/d3c/namespaceCommon_1_1utils_1_1metrics.html#ad00d54590ea6b9d55d3f7ac3b56fe83c" target="_top" xlink:title=" ">
<polygon fill="white" stroke="#666666" points="313,-78 161,-78 161,-59 313,-59 313,-78"/>
<text text-anchor="middle" x="237" y="-66" font-family="Helvetica,sans-Serif" font-size="10.00">Common::utils::metrics::get</text>
</a>
</g>
</g>
<!-- Node1&#45;&gt;Node6 -->
<g id="edge5_Node000001_Node000006" class="edge">
<title>Node1&#45;&gt;Node6</title>
<g id="a_edge5_Node000001_Node000006"><a xlink:title=" ">
<path fill="none" stroke="#63b8ff" d="M125.29,-96.1C145.87,-90.97 168.48,-85.33 187.87,-80.5"/>
<polygon fill="#63b8ff" stroke="#63b8ff" points="188.83,-83.87 197.68,-78.05 187.14,-77.07 188.83,-83.87"/>
</a>
</g>
</g>
<!-- Node8 -->
<g id="Node000008" class="node">
<title>Node8</title>
<g id="a_Node000008"><a xlink:href="../../d2/d59/namespaceCommon_1_1utils_1_1logging.html#a227085469bb6814ec47bc7bad3cb5ae6" target="_top" xlink:title=" ">
<polygon fill="white" stroke="#666666" points="302,-126.5 172,-126.5 172,-96.5 302,-96.5 302,-126.5"/>
<text text-anchor="start" x="180" y="-114.5" font-family="Helvetica,sans-Serif" font-size="10.00">Common::utils::logging</text>
<text text-anchor="middle" x="237" y="-103.5" font-family="Helvetica,sans-Serif" font-size="10.00">::info</text>
</a>
</g>
</g>
<!-- Node1&#45;&gt;Node8 -->
<g id="edge7_Node000001_Node000008" class="edge">
<title>Node1&#45;&gt;Node8</title>
<g id="a_edge7_Node000001_Node000008"><a xlink:title=" ">
<path fill="none" stroke="#63b8ff" d="M125.29,-111.5C137.07,-111.5 149.52,-111.5 161.64,-111.5"/>
<polygon fill="#63b8ff" stroke="#63b8ff" points="161.73,-115 171.73,-111.5 161.73,-108 161.73,-115"/>
</a>
</g>
</g>
<!-- Node9 -->
<g id="Node000009" class="node">
<title>Node9</title>
<g id="a_Node000009"><a xlink:href="../../df/d1f/classIEEE_1_1__1588_1_1PTP_1_1__2019_1_1Types_1_1PTPResult.html#a873027aad818e35452ddab7583b7a7e5" target="_top" xlink:title="Create successful result (static method)">
<polygon fill="white" stroke="#666666" points="304,-41 170,-41 170,0 304,0 304,-41"/>
<text text-anchor="start" x="178" y="-29" font-family="Helvetica,sans-Serif" font-size="10.00">IEEE::_1588::PTP::</text>
<text text-anchor="start" x="178" y="-18" font-family="Helvetica,sans-Serif" font-size="10.00">_2019::Types::PTPResult</text>
<text text-anchor="middle" x="237" y="-7" font-family="Helvetica,sans-Serif" font-size="10.00">::success</text>
</a>
</g>
</g>
<!-- Node1&#45;&gt;Node9 -->
<g id="edge9_Node000001_Node000009" class="edge">
<title>Node1&#45;&gt;Node9</title>
<g id="a_edge9_Node000001_Node000009"><a xlink:title=" ">
<path fill="none" stroke="#63b8ff" d="M92.48,-90.93C111.42,-78.04 137.01,-61.62 161,-49.5 163.93,-48.02 166.95,-46.57 170.03,-45.15"/>
<polygon fill="#63b8ff" stroke="#63b8ff" points="171.64,-48.26 179.37,-41.01 168.81,-41.86 171.64,-48.26"/>
</a>
</g>
</g>
<!-- Node3 -->
<g id="Node000003" class="node">
<title>Node3</title>
<g id="a_Node000003"><a xlink:href="../../d2/d59/namespaceCommon_1_1utils_1_1logging.html#ad30a8c57a6af65c91d9085ce0a592463" target="_top" xlink:title=" ">
<polygon fill="white" stroke="#666666" points="500,-175 349,-175 349,-156 500,-156 500,-175"/>
<text text-anchor="middle" x="424.5" y="-163" font-family="Helvetica,sans-Serif" font-size="10.00">Common::utils::logging::log</text>
</a>
</g>
</g>
<!-- Node2&#45;&gt;Node3 -->
<g id="edge2_Node000002_Node000003" class="edge">
<title>Node2&#45;&gt;Node3</title>
<g id="a_edge2_Node000002_Node000003"><a xlink:title=" ">
<path fill="none" stroke="#63b8ff" d="M289.67,-204.46C318.51,-196.06 353.98,-185.74 381.16,-177.83"/>
<polygon fill="#63b8ff" stroke="#63b8ff" points="382.14,-181.18 390.77,-175.03 380.19,-174.46 382.14,-181.18"/>
</a>
</g>
</g>
<!-- Node4 -->
<g id="Node000004" class="node">
<title>Node4</title>
<g id="a_Node000004"><a xlink:href="../../d2/d59/namespaceCommon_1_1utils_1_1logging.html#a0d4c11f80297a0645e32fad0fe3e4272" target="_top" xlink:title=" ">
<polygon fill="white" stroke="#666666" points="666,-180.5 536,-180.5 536,-150.5 666,-150.5 666,-180.5"/>
<text text-anchor="start" x="544" y="-168.5" font-family="Helvetica,sans-Serif" font-size="10.00">Common::utils::logging</text>
<text text-anchor="middle" x="601" y="-157.5" font-family="Helvetica,sans-Serif" font-size="10.00">::sink_ref</text>
</a>
</g>
</g>
<!-- Node3&#45;&gt;Node4 -->
<g id="edge3_Node000003_Node000004" class="edge">
<title>Node3&#45;&gt;Node4</title>
<g id="a_edge3_Node000003_Node000004"><a xlink:title=" ">
<path fill="none" stroke="#63b8ff" d="M500.01,-165.5C508.51,-165.5 517.17,-165.5 525.66,-165.5"/>
<polygon fill="#63b8ff" stroke="#63b8ff" points="525.91,-169 535.91,-165.5 525.91,-162 525.91,-169"/>
</a>
</g>
</g>
<!-- Node7 -->
<g id="Node000007" class="node">
<title>Node7</title>
<g id="a_Node000007"><a xlink:href="../../d5/d53/namespaceCommon_1_1utils_1_1metrics_1_1detail.html#aa3719e4e32c969a881318a4788803429" target="_top" xlink:title=" ">
<polygon fill="white" stroke="#666666" points="490,-83.5 359,-83.5 359,-53.5 490,-53.5 490,-83.5"/>
<text text-anchor="start" x="367" y="-71.5" font-family="Helvetica,sans-Serif" font-size="10.00">Common::utils::metrics</text>
<text text-anchor="middle" x="424.5" y="-60.5" font-family="Helvetica,sans-Serif" font-size="10.00">::detail::counters</text>
</a>
</g>
</g>
<!-- Node6&#45;&gt;Node7 -->
<g id="edge6_Node000006_Node000007" class="edge">
<title>Node6&#45;&gt;Node7</title>
<g id="a_edge6_Node000006_Node000007"><a xlink:title=" ">
<path fill="none" stroke="#63b8ff" d="M313.18,-68.5C324.91,-68.5 337.03,-68.5 348.75,-68.5"/>
<polygon fill="#63b8ff" stroke="#63b8ff" points="348.93,-72 358.93,-68.5 348.93,-65 348.93,-72"/>
</a>
</g>
</g>
<!-- Node8&#45;&gt;Node3 -->
<g id="edge8_Node000008_Node000003" class="edge">
<title>Node8&#45;&gt;Node3</title>
<g id="a_edge8_Node000008_Node000003"><a xlink:title=" ">
<path fill="none" stroke="#63b8ff" d="M289.67,-126.54C318.51,-134.94 353.98,-145.26 381.16,-153.17"/>
<polygon fill="#63b8ff" stroke="#63b8ff" points="380.19,-156.54 390.77,-155.97 382.14,-149.82 380.19,-156.54"/>
</a>
</g>
</g>
</g>
</svg>
