<?xml version="1.0" encoding="UTF-8" standalone="no"?>
<!DOCTYPE svg PUBLIC "-//W3C//DTD SVG 1.1//EN"
 "http://www.w3.org/Graphics/SVG/1.1/DTD/svg11.dtd">
<!-- Generated by graphviz version 2.43.0 (0)
 -->
<!-- Title: IEEE::_1588::PTP::_2019::PdelayReqBody Pages: 1 -->
<!--zoomable 562 -->

<svg id="main" version="1.1" xmlns="http://www.w3.org/2000/svg" xmlns:xlink="http://www.w3.org/1999/xlink" xml:space="preserve" onload="init(evt)">
<style type="text/css"><![CDATA[
.node, .edge {opacity: 0.7;}
.node.selected, .edge.selected {opacity: 1;}
.edge:hover path { stroke: red; }
.edge:hover polygon { stroke: red; fill: red; }
]]></style>

<defs>
  <circle id="rim" cx="0" cy="0" r="7"/>
  <circle id="rim2" cx="0" cy="0" r="3.5"/>
  <g id="zoomPlus">
    <use xlink:href="#rim" fill="#404040"><set attributeName="fill" to="#808080" begin="zoomplus.mouseover" end="zoomplus.mouseout"/></use>
    <path d="M-4,0h8M0,-4v8" fill="none" stroke="white" stroke-width="1.5" pointer-events="none"/>
  </g>
  <g id="zoomMin">
    <use xlink:href="#rim" fill="#404040"><set attributeName="fill" to="#808080" begin="zoomminus.mouseover" end="zoomminus.mouseout"/></use>
    <path d="M-4,0h8" fill="none" stroke="white" stroke-width="1.5" pointer-events="none"/>
  </g>
  <g id="arrowUp" transform="translate(30 24)">
    <use xlink:href="#rim"/>
    <path pointer-events="none" fill="none" stroke="white" stroke-width="1.5" d="M0,-3.0v7 M-2.5,-0.5L0,-3.0L2.5,-0.5"/>
  </g>
  <g id="arrowRight" transform="rotate(90) translate(36 -43)">
    <use xlink:href="#rim"/>
    <path pointer-events="none" fill="none" stroke="white" stroke-width="1.5" d="M0,-3.0v7 M-2.5,-0.5L0,-3.0L2.5,-0.5"/>
  </g>
  <g id="arrowDown" transform="rotate(180) translate(-30 -48)">
    <use xlink:href="#rim"/>
    <path pointer-events="none" fill="none" stroke="white" stroke-width="1.5" d="M0,-3.0v7 M-2.5,-0.5L0,-3.0L2.5,-0.5"/>
  </g>
  <g id="arrowLeft" transform="rotate(270) translate(-36 17)">
    <use xlink:href="#rim"/>
    <path pointer-events="none" fill="none" stroke="white" stroke-width="1.5" d="M0,-3.0v7 M-2.5,-0.5L0,-3.0L2.5,-0.5"/>
  </g>
  <g id="resetDef">
    <use xlink:href="#rim2" fill="#404040"><set attributeName="fill" to="#808080" begin="reset.mouseover" end="reset.mouseout"/></use>
  </g>
</defs>
<script type="application/ecmascript">
var viewWidth = 318;
var viewHeight = 562;
var sectionId = 'dynsection-0';
</script>
<script type="application/ecmascript" xlink:href="../../svg.min.js"/>
<svg id="graph" class="graph">
<g id="viewport">
<title>IEEE::_1588::PTP::_2019::PdelayReqBody</title>
<!-- Node1 -->
<g id="Node000001" class="node">
<title>Node1</title>
<g id="a_Node000001"><a xlink:title="Pdelay_Req message body &#45; peer&#45;to&#45;peer delay measurement.">
<polygon fill="#999999" stroke="transparent" points="187.5,-60 65.5,-60 65.5,0 187.5,0 187.5,-60"/>
<text text-anchor="start" x="70.5" y="-48" font-family="Helvetica,sans-Serif" font-size="10.00">IEEE::_1588::PTP::</text>
<text text-anchor="start" x="70.5" y="-37" font-family="Helvetica,sans-Serif" font-size="10.00">_2019::PdelayReqBody</text>
<text text-anchor="start" x="124.5" y="-22" font-family="Helvetica,sans-Serif" font-size="10.00"> </text>
<text text-anchor="start" x="82.5" y="-7" font-family="Helvetica,sans-Serif" font-size="10.00">+</text>
<text text-anchor="start" x="108.5" y="-7" font-family="Helvetica,sans-Serif" font-size="10.00">validate()</text>
<polygon fill="#666666" stroke="#666666" points="65.5,-32 65.5,-32 187.5,-32 187.5,-32 65.5,-32"/>
<polygon fill="#666666" stroke="#666666" points="65.5,-17 65.5,-17 187.5,-17 187.5,-17 65.5,-17"/>
<polygon fill="none" stroke="#666666" points="65.5,0 65.5,-60 187.5,-60 187.5,0 65.5,0"/>
</a>
</g>
</g>
<!-- Node2 -->
<g id="Node000002" class="node">
<title>Node2</title>
<g id="a_Node000002"><a xlink:href="../../d4/d6e/structIEEE_1_1__1588_1_1PTP_1_1__2019_1_1Types_1_1Timestamp.html" target="_top" xlink:title="PTP Timestamp &#45; seconds and nanoseconds representation.">
<polygon fill="white" stroke="transparent" points="135,-362 0,-362 0,-107 135,-107 135,-362"/>
<text text-anchor="start" x="5.5" y="-349.5" font-family="Helvetica,sans-Serif" font-size="10.00">IEEE::_1588::PTP::</text>
<text text-anchor="start" x="5.5" y="-338.5" font-family="Helvetica,sans-Serif" font-size="10.00">_2019::Types::Timestamp</text>
<text text-anchor="start" x="11" y="-323.5" font-family="Helvetica,sans-Serif" font-size="10.00">+</text>
<text text-anchor="start" x="30.5" y="-323.5" font-family="Helvetica,sans-Serif" font-size="10.00">seconds_high</text>
<text text-anchor="start" x="11" y="-308.5" font-family="Helvetica,sans-Serif" font-size="10.00">+</text>
<text text-anchor="start" x="30.5" y="-308.5" font-family="Helvetica,sans-Serif" font-size="10.00">seconds_low</text>
<text text-anchor="start" x="11" y="-293.5" font-family="Helvetica,sans-Serif" font-size="10.00">+</text>
<text text-anchor="start" x="30.5" y="-293.5" font-family="Helvetica,sans-Serif" font-size="10.00">nanoseconds</text>
<text text-anchor="start" x="11" y="-278.5" font-family="Helvetica,sans-Serif" font-size="10.00">+</text>
<text text-anchor="start" x="30.5" y="-278.5" font-family="Helvetica,sans-Serif" font-size="10.00">getTotalSeconds()</text>
<text text-anchor="start" x="11" y="-263.5" font-family="Helvetica,sans-Serif" font-size="10.00">+</text>
<text text-anchor="start" x="30.5" y="-263.5" font-family="Helvetica,sans-Serif" font-size="10.00">setTotalSeconds()</text>
<text text-anchor="start" x="11" y="-248.5" font-family="Helvetica,sans-Serif" font-size="10.00">+</text>
<text text-anchor="start" x="30.5" y="-248.5" font-family="Helvetica,sans-Serif" font-size="10.00">isValid()</text>
<text text-anchor="start" x="11" y="-233.5" font-family="Helvetica,sans-Serif" font-size="10.00">+</text>
<text text-anchor="start" x="30.5" y="-233.5" font-family="Helvetica,sans-Serif" font-size="10.00">validate()</text>
<text text-anchor="start" x="11" y="-218.5" font-family="Helvetica,sans-Serif" font-size="10.00">+</text>
<text text-anchor="start" x="30.5" y="-218.5" font-family="Helvetica,sans-Serif" font-size="10.00">operator&lt;()</text>
<text text-anchor="start" x="11" y="-203.5" font-family="Helvetica,sans-Serif" font-size="10.00">+</text>
<text text-anchor="start" x="30.5" y="-203.5" font-family="Helvetica,sans-Serif" font-size="10.00">operator&gt;()</text>
<text text-anchor="start" x="11" y="-188.5" font-family="Helvetica,sans-Serif" font-size="10.00">+</text>
<text text-anchor="start" x="30.5" y="-188.5" font-family="Helvetica,sans-Serif" font-size="10.00">operator&lt;=()</text>
<text text-anchor="start" x="11" y="-173.5" font-family="Helvetica,sans-Serif" font-size="10.00">+</text>
<text text-anchor="start" x="30.5" y="-173.5" font-family="Helvetica,sans-Serif" font-size="10.00">operator&gt;=()</text>
<text text-anchor="start" x="11" y="-158.5" font-family="Helvetica,sans-Serif" font-size="10.00">+</text>
<text text-anchor="start" x="30.5" y="-158.5" font-family="Helvetica,sans-Serif" font-size="10.00">operator==()</text>
<text text-anchor="start" x="11" y="-143.5" font-family="Helvetica,sans-Serif" font-size="10.00">+</text>
<text text-anchor="start" x="30.5" y="-143.5" font-family="Helvetica,sans-Serif" font-size="10.00">operator!=()</text>
<text text-anchor="start" x="11" y="-128.5" font-family="Helvetica,sans-Serif" font-size="10.00">+</text>
<text text-anchor="start" x="30.5" y="-128.5" font-family="Helvetica,sans-Serif" font-size="10.00">operator&#45;()</text>
<text text-anchor="start" x="11" y="-113.5" font-family="Helvetica,sans-Serif" font-size="10.00">+</text>
<text text-anchor="start" x="30.5" y="-113.5" font-family="Helvetica,sans-Serif" font-size="10.00">operator*()</text>
<polygon fill="#666666" stroke="#666666" points="0.5,-333.5 0.5,-333.5 135.5,-333.5 135.5,-333.5 0.5,-333.5"/>
<polygon fill="#666666" stroke="#666666" points="0.5,-288.5 0.5,-288.5 28.5,-288.5 28.5,-288.5 0.5,-288.5"/>
<polygon fill="#666666" stroke="#666666" points="28.5,-288.5 28.5,-288.5 135.5,-288.5 135.5,-288.5 28.5,-288.5"/>
<polygon fill="none" stroke="#666666" points="0,-107 0,-362 135,-362 135,-107 0,-107"/>
</a>
</g>
</g>
<!-- Node2&#45;&gt;Node1 -->
<g id="edge1_Node000001_Node000002" class="edge">
<title>Node2&#45;&gt;Node1</title>
<g id="a_edge1_Node000001_Node000002"><a xlink:title=" ">
<path fill="none" stroke="#63b8ff" d="M70.61,-106.82C73.09,-96.84 76.33,-87.12 80.5,-78 81.77,-75.23 83.27,-72.53 84.95,-69.9"/>
<polygon fill="none" stroke="#63b8ff" points="84.97,-69.87 85.34,-62.67 92.13,-60.24 91.76,-67.44 84.97,-69.87"/>
</a>
</g>
<text text-anchor="middle" x="128" y="-81" font-family="Helvetica,sans-Serif" font-size="10.00" fill="grey"> +originTimestamp</text>
</g>
<!-- Node3 -->
<g id="Node000003" class="node">
<title>Node3</title>
<g id="a_Node000003"><a xlink:title=" ">
<polygon fill="white" stroke="transparent" points="267.5,-264.5 153.5,-264.5 153.5,-204.5 267.5,-204.5 267.5,-264.5"/>
<text text-anchor="start" x="158.5" y="-252.5" font-family="Helvetica,sans-Serif" font-size="10.00">std::array&lt; std::uint8</text>
<text text-anchor="start" x="191" y="-241.5" font-family="Helvetica,sans-Serif" font-size="10.00">_t, 10 &gt;</text>
<text text-anchor="start" x="169" y="-226.5" font-family="Helvetica,sans-Serif" font-size="10.00">+</text>
<text text-anchor="start" x="193.5" y="-226.5" font-family="Helvetica,sans-Serif" font-size="10.00">elements</text>
<text text-anchor="start" x="208.5" y="-211.5" font-family="Helvetica,sans-Serif" font-size="10.00"> </text>
<polygon fill="#666666" stroke="#666666" points="153.5,-236.5 153.5,-236.5 267.5,-236.5 267.5,-236.5 153.5,-236.5"/>
<polygon fill="#666666" stroke="#666666" points="153.5,-221.5 153.5,-221.5 191.5,-221.5 191.5,-221.5 153.5,-221.5"/>
<polygon fill="#666666" stroke="#666666" points="191.5,-221.5 191.5,-221.5 267.5,-221.5 267.5,-221.5 191.5,-221.5"/>
<polygon fill="none" stroke="#666666" points="153.5,-204.5 153.5,-264.5 267.5,-264.5 267.5,-204.5 153.5,-204.5"/>
</a>
</g>
</g>
<!-- Node3&#45;&gt;Node1 -->
<g id="edge2_Node000001_Node000003" class="edge">
<title>Node3&#45;&gt;Node1</title>
<g id="a_edge2_Node000001_Node000003"><a xlink:title=" ">
<path fill="none" stroke="#63b8ff" d="M208.96,-204.48C206.14,-171.83 198.15,-118.12 175.5,-78 173.87,-75.12 172.01,-72.3 169.99,-69.57"/>
<polygon fill="none" stroke="#63b8ff" points="169.77,-69.31 162.86,-67.27 162.08,-60.1 169,-62.14 169.77,-69.31"/>
</a>
</g>
<text text-anchor="middle" x="208" y="-81" font-family="Helvetica,sans-Serif" font-size="10.00" fill="grey"> +reserved</text>
</g>
<!-- Node4 -->
<g id="Node000004" class="node">
<title>Node4</title>
<g id="a_Node000004"><a xlink:title=" ">
<polygon fill="white" stroke="transparent" points="253.5,-458 167.5,-458 167.5,-409 253.5,-409 253.5,-458"/>
<text text-anchor="start" x="172.5" y="-445.5" font-family="Helvetica,sans-Serif" font-size="10.00">std::array&lt; T &gt;</text>
<text text-anchor="start" x="208.5" y="-430.5" font-family="Helvetica,sans-Serif" font-size="10.00"> </text>
<text text-anchor="start" x="208.5" y="-415.5" font-family="Helvetica,sans-Serif" font-size="10.00"> </text>
<polygon fill="#666666" stroke="#666666" points="167.5,-440.5 167.5,-440.5 253.5,-440.5 253.5,-440.5 167.5,-440.5"/>
<polygon fill="#666666" stroke="#666666" points="167.5,-425.5 167.5,-425.5 253.5,-425.5 253.5,-425.5 167.5,-425.5"/>
<polygon fill="none" stroke="#666666" points="167.5,-409 167.5,-458 253.5,-458 253.5,-409 167.5,-409"/>
</a>
</g>
</g>
<!-- Node4&#45;&gt;Node3 -->
<g id="edge3_Node000003_Node000004" class="edge">
<title>Node4&#45;&gt;Node3</title>
<g id="a_edge3_Node000003_Node000004"><a xlink:title=" ">
<path fill="none" stroke="orange" d="M210.5,-398.26C210.5,-360.51 210.5,-300.43 210.5,-264.79"/>
<polygon fill="orange" stroke="orange" points="207,-398.74 210.5,-408.74 214,-398.74 207,-398.74"/>
</a>
</g>
<text text-anchor="middle" x="260" y="-383" font-family="Helvetica,sans-Serif" font-size="10.00" fill="grey"> &lt; std::uint8_t, 10 &gt;</text>
</g>
<!-- Node5 -->
<g id="Node000005" class="node">
<title>Node5</title>
<g id="a_Node000005"><a xlink:title=" ">
<polygon fill="white" stroke="transparent" points="219,-554 202,-554 202,-505 219,-505 219,-554"/>
<text text-anchor="start" x="207.5" y="-541.5" font-family="Helvetica,sans-Serif" font-size="10.00">T</text>
<text text-anchor="start" x="209" y="-526.5" font-family="Helvetica,sans-Serif" font-size="10.00"> </text>
<text text-anchor="start" x="209" y="-511.5" font-family="Helvetica,sans-Serif" font-size="10.00"> </text>
<polygon fill="#666666" stroke="#666666" points="202.5,-536.5 202.5,-536.5 219.5,-536.5 219.5,-536.5 202.5,-536.5"/>
<polygon fill="#666666" stroke="#666666" points="202.5,-521.5 202.5,-521.5 219.5,-521.5 219.5,-521.5 202.5,-521.5"/>
<polygon fill="none" stroke="#666666" points="202,-505 202,-554 219,-554 219,-505 202,-505"/>
</a>
</g>
</g>
<!-- Node5&#45;&gt;Node4 -->
<g id="edge4_Node000004_Node000005" class="edge">
<title>Node5&#45;&gt;Node4</title>
<g id="a_edge4_Node000004_Node000005"><a xlink:title=" ">
<path fill="none" stroke="#63b8ff" d="M210.5,-504.78C210.5,-494.32 210.5,-481.79 210.5,-470.23"/>
<polygon fill="none" stroke="#63b8ff" points="210.5,-470.21 206.5,-464.21 210.5,-458.21 214.5,-464.21 210.5,-470.21"/>
</a>
</g>
<text text-anchor="middle" x="239.5" y="-479" font-family="Helvetica,sans-Serif" font-size="10.00" fill="grey"> +elements</text>
</g>
</g>
</svg>

<g id="navigator" transform="translate(0 0)" fill="#404254">
  <rect fill="#f2f5e9" fill-opacity="0.5" stroke="#606060" stroke-width=".5" x="0" y="0" width="60" height="60"/>
  <use id="zoomplus" xlink:href="#zoomPlus" x="17" y="9" onmousedown="handleZoom(evt,'in')"/>
  <use id="zoomminus" xlink:href="#zoomMin" x="42" y="9" onmousedown="handleZoom(evt,'out')"/>
  <use id="reset" xlink:href="#resetDef" x="30" y="36" onmousedown="handleReset()"/>
   <use id="arrowup" xlink:href="#arrowUp" x="0" y="0" onmousedown="handlePan(0,-1)"/>
  <use id="arrowright" xlink:href="#arrowRight" x="0" y="0" onmousedown="handlePan(1,0)"/>
  <use id="arrowdown" xlink:href="#arrowDown" x="0" y="0" onmousedown="handlePan(0,1)"/>
  <use id="arrowleft" xlink:href="#arrowLeft" x="0" y="0" onmousedown="handlePan(-1,0)"/>
</g>
<svg viewBox="0 0 15 15" width="100%" height="30px" preserveAspectRatio="xMaxYMin meet">
 <g id="arrow_out" transform="scale(0.3 0.3)">
  <a xlink:href="structIEEE_1_1__1588_1_1PTP_1_1__2019_1_1PdelayReqBody__coll__graph_org.svg" target="_base">
   <rect id="button" ry="5" rx="5" y="6" x="6" height="38" width="38"
        fill="#f2f5e9" fill-opacity="0.5" stroke="#606060" stroke-width="1.0"/>
   <path id="arrow"
     d="M 11.500037,31.436501 C 11.940474,20.09759 22.043105,11.32322 32.158766,21.979434 L 37.068811,17.246167 C 37.068811,17.246167 37.088388,32 37.088388,32 L 22.160133,31.978069 C 22.160133,31.978069 26.997745,27.140456 26.997745,27.140456 C 18.528582,18.264221 13.291696,25.230495 11.500037,31.436501 z"
     style="fill:#404040;"/>
  </a>
 </g>
</svg>

<style type='text/css'>
<![CDATA[
[data-mouse-over-selected='false'] { opacity: 0.7; }
[data-mouse-over-selected='true']  { opacity: 1.0; }
]]>
</style>
<script type="application/ecmascript"><![CDATA[
document.addEventListener('DOMContentLoaded', (event) => {
  highlightEdges();
  highlightAdjacentNodes();
});
]]></script>
</svg>
