<?xml version="1.0" encoding="UTF-8" standalone="no"?>
<!DOCTYPE svg PUBLIC "-//W3C//DTD SVG 1.1//EN"
 "http://www.w3.org/Graphics/SVG/1.1/DTD/svg11.dtd">
<!-- Generated by graphviz version 2.43.0 (0)
 -->
<!-- Title: /home/runner/work/IEEE_1588_2019/IEEE_1588_2019/include/IEEE/1588/PTP/2019/profile.hpp Pages: 1 -->
<!--zoomable 302 -->

<svg id="main" version="1.1" xmlns="http://www.w3.org/2000/svg" xmlns:xlink="http://www.w3.org/1999/xlink" xml:space="preserve" onload="init(evt)">
<style type="text/css"><![CDATA[
.node, .edge {opacity: 0.7;}
.node.selected, .edge.selected {opacity: 1;}
.edge:hover path { stroke: red; }
.edge:hover polygon { stroke: red; fill: red; }
]]></style>

<defs>
  <circle id="rim" cx="0" cy="0" r="7"/>
  <circle id="rim2" cx="0" cy="0" r="3.5"/>
  <g id="zoomPlus">
    <use xlink:href="#rim" fill="#404040"><set attributeName="fill" to="#808080" begin="zoomplus.mouseover" end="zoomplus.mouseout"/></use>
    <path d="M-4,0h8M0,-4v8" fill="none" stroke="white" stroke-width="1.5" pointer-events="none"/>
  </g>
  <g id="zoomMin">
    <use xlink:href="#rim" fill="#404040"><set attributeName="fill" to="#808080" begin="zoomminus.mouseover" end="zoomminus.mouseout"/></use>
    <path d="M-4,0h8" fill="none" stroke="white" stroke-width="1.5" pointer-events="none"/>
  </g>
  <g id="arrowUp" transform="translate(30 24)">
    <use xlink:href="#rim"/>
    <path pointer-events="none" fill="none" stroke="white" stroke-width="1.5" d="M0,-3.0v7 M-2.5,-0.5L0,-3.0L2.5,-0.5"/>
  </g>
  <g id="arrowRight" transform="rotate(90) translate(36 -43)">
    <use xlink:href="#rim"/>
    <path pointer-events="none" fill="none" stroke="white" stroke-width="1.5" d="M0,-3.0v7 M-2.5,-0.5L0,-3.0L2.5,-0.5"/>
  </g>
  <g id="arrowDown" transform="rotate(180) translate(-30 -48)">
    <use xlink:href="#rim"/>
    <path pointer-events="none" fill="none" stroke="white" stroke-width="1.5" d="M0,-3.0v7 M-2.5,-0.5L0,-3.0L2.5,-0.5"/>
  </g>
  <g id="arrowLeft" transform="rotate(270) translate(-36 17)">
    <use xlink:href="#rim"/>
    <path pointer-events="none" fill="none" stroke="white" stroke-width="1.5" d="M0,-3.0v7 M-2.5,-0.5L0,-3.0L2.5,-0.5"/>
  </g>
  <g id="resetDef">
    <use xlink:href="#rim2" fill="#404040"><set attributeName="fill" to="#808080" begin="reset.mouseover" end="reset.mouseout"/></use>
  </g>
</defs>
<script type="application/ecmascript">
var viewWidth = 934;
var viewHeight = 302;
var sectionId = 'dynsection-0';
</script>
<script type="application/ecmascript" xlink:href="../../svg.min.js"/>
<svg id="graph" class="graph">
<g id="viewport">
<title>/home/runner/work/IEEE_1588_2019/IEEE_1588_2019/include/IEEE/1588/PTP/2019/profile.hpp</title>
<!-- Node1 -->
<g id="Node000001" class="node">
<title>Node1</title>
<g id="a_Node000001"><a xlink:title="Generic PTP profile abstraction supporting multiple external standards (IEEE 1588&#45;2019 core,...">
<polygon fill="#999999" stroke="#666666" points="684.07,-294 526.07,-294 526.07,-242 684.07,-242 684.07,-294"/>
<text text-anchor="start" x="534.07" y="-282" font-family="Helvetica,sans-Serif" font-size="10.00">/home/runner/work/IEEE</text>
<text text-anchor="start" x="534.07" y="-271" font-family="Helvetica,sans-Serif" font-size="10.00">_1588_2019/IEEE_1588_2019</text>
<text text-anchor="start" x="534.07" y="-260" font-family="Helvetica,sans-Serif" font-size="10.00">/include/IEEE/1588/PTP/2019</text>
<text text-anchor="middle" x="605.07" y="-249" font-family="Helvetica,sans-Serif" font-size="10.00">/profile.hpp</text>
</a>
</g>
</g>
<!-- Node2 -->
<g id="Node000002" class="node">
<title>Node2</title>
<g id="a_Node000002"><a xlink:title=" ">
<polygon fill="#e0e0e0" stroke="#999999" points="429.07,-19 379.07,-19 379.07,0 429.07,0 429.07,-19"/>
<text text-anchor="middle" x="404.07" y="-7" font-family="Helvetica,sans-Serif" font-size="10.00">cstdint</text>
</a>
</g>
</g>
<!-- Node1&#45;&gt;Node2 -->
<g id="edge1_Node000001_Node000002" class="edge">
<title>Node1&#45;&gt;Node2</title>
<g id="a_edge1_Node000001_Node000002"><a xlink:title=" ">
<path fill="none" stroke="#63b8ff" d="M642.04,-241.83C698.6,-200.36 794.68,-116.16 741.07,-55 721.36,-32.52 521.74,-17.75 439.35,-12.57"/>
<polygon fill="#63b8ff" stroke="#63b8ff" points="439.41,-9.06 429.21,-11.94 438.98,-16.05 439.41,-9.06"/>
</a>
</g>
</g>
<!-- Node3 -->
<g id="Node000003" class="node">
<title>Node3</title>
<g id="a_Node000003"><a xlink:title=" ">
<polygon fill="#e0e0e0" stroke="#999999" points="627.07,-206 583.07,-206 583.07,-187 627.07,-187 627.07,-206"/>
<text text-anchor="middle" x="605.07" y="-194" font-family="Helvetica,sans-Serif" font-size="10.00">string</text>
</a>
</g>
</g>
<!-- Node1&#45;&gt;Node3 -->
<g id="edge2_Node000001_Node000003" class="edge">
<title>Node1&#45;&gt;Node3</title>
<g id="a_edge2_Node000001_Node000003"><a xlink:title=" ">
<path fill="none" stroke="#63b8ff" d="M605.07,-241.91C605.07,-233.55 605.07,-224.38 605.07,-216.55"/>
<polygon fill="#63b8ff" stroke="#63b8ff" points="608.57,-216.3 605.07,-206.3 601.57,-216.3 608.57,-216.3"/>
</a>
</g>
</g>
<!-- Node4 -->
<g id="Node000004" class="node">
<title>Node4</title>
<g id="a_Node000004"><a xlink:href="../../dd/dc5/clocks_8hpp.html" target="_top" xlink:title="IEEE 1588&#45;2019 PTP Clock State Machines Implementation.">
<polygon fill="white" stroke="#666666" points="478.07,-206 374.07,-206 374.07,-187 478.07,-187 478.07,-206"/>
<text text-anchor="middle" x="426.07" y="-194" font-family="Helvetica,sans-Serif" font-size="10.00">../../../../clocks.hpp</text>
</a>
</g>
</g>
<!-- Node1&#45;&gt;Node4 -->
<g id="edge3_Node000001_Node000004" class="edge">
<title>Node1&#45;&gt;Node4</title>
<g id="a_edge3_Node000001_Node000004"><a xlink:title=" ">
<path fill="none" stroke="#63b8ff" d="M540.45,-241.91C512.36,-231 480.72,-218.72 457.85,-209.84"/>
<polygon fill="#63b8ff" stroke="#63b8ff" points="458.9,-206.49 448.31,-206.14 456.37,-213.02 458.9,-206.49"/>
</a>
</g>
</g>
<!-- Node4&#45;&gt;Node2 -->
<g id="edge12_Node000004_Node000002" class="edge">
<title>Node4&#45;&gt;Node2</title>
<g id="a_edge12_Node000004_Node000002"><a xlink:title=" ">
<path fill="none" stroke="#63b8ff" d="M425.09,-186.73C423.18,-172.27 418.06,-142.83 406.07,-121 395.62,-101.97 380.94,-105.23 373.07,-85 368.24,-72.57 369.07,-67.72 373.07,-55 376.3,-44.71 382.85,-34.72 389.1,-26.82"/>
<polygon fill="#63b8ff" stroke="#63b8ff" points="391.8,-29.04 395.59,-19.15 386.45,-24.52 391.8,-29.04"/>
</a>
</g>
</g>
<!-- Node5 -->
<g id="Node000005" class="node">
<title>Node5</title>
<g id="a_Node000005"><a xlink:href="../../dd/de3/types_8hpp.html" target="_top" xlink:title="IEEE 1588&#45;2019 PTP v2.1 fundamental data types and constants.">
<polygon fill="white" stroke="#666666" points="231.57,-85 118.57,-85 118.57,-55 231.57,-55 231.57,-85"/>
<text text-anchor="start" x="126.57" y="-73" font-family="Helvetica,sans-Serif" font-size="10.00">IEEE/1588/PTP/2019</text>
<text text-anchor="middle" x="175.07" y="-62" font-family="Helvetica,sans-Serif" font-size="10.00">/types.hpp</text>
</a>
</g>
</g>
<!-- Node4&#45;&gt;Node5 -->
<g id="edge4_Node000004_Node000005" class="edge">
<title>Node4&#45;&gt;Node5</title>
<g id="a_edge4_Node000004_Node000005"><a xlink:title=" ">
<path fill="none" stroke="#63b8ff" d="M373.87,-190.37C336.93,-184.9 287.36,-173.71 249.07,-151 224.74,-136.57 203.58,-111.7 190.19,-93.51"/>
<polygon fill="#63b8ff" stroke="#63b8ff" points="192.92,-91.31 184.27,-85.2 187.22,-95.37 192.92,-91.31"/>
</a>
</g>
</g>
<!-- Node6 -->
<g id="Node000006" class="node">
<title>Node6</title>
<g id="a_Node000006"><a xlink:title=" ">
<polygon fill="#e0e0e0" stroke="#999999" points="117.07,-19 75.07,-19 75.07,0 117.07,0 117.07,-19"/>
<text text-anchor="middle" x="96.07" y="-7" font-family="Helvetica,sans-Serif" font-size="10.00">array</text>
</a>
</g>
</g>
<!-- Node4&#45;&gt;Node6 -->
<g id="edge14_Node000004_Node000006" class="edge">
<title>Node4&#45;&gt;Node6</title>
<g id="a_edge14_Node000004_Node000006"><a xlink:title=" ">
<path fill="none" stroke="#63b8ff" d="M373.9,-193.73C267.82,-189.59 34.92,-177.55 11.07,-151 -25.29,-110.53 39.79,-52.33 75.28,-25.31"/>
<polygon fill="#63b8ff" stroke="#63b8ff" points="77.64,-27.92 83.58,-19.15 73.47,-22.3 77.64,-27.92"/>
</a>
</g>
</g>
<!-- Node8 -->
<g id="Node000008" class="node">
<title>Node8</title>
<g id="a_Node000008"><a xlink:href="../../d4/d64/messages_8hpp.html" target="_top" xlink:title="IEEE 1588&#45;2019 PTP Message Format Structures.">
<polygon fill="white" stroke="#666666" points="133.57,-151 20.57,-151 20.57,-121 133.57,-121 133.57,-151"/>
<text text-anchor="start" x="28.57" y="-139" font-family="Helvetica,sans-Serif" font-size="10.00">IEEE/1588/PTP/2019</text>
<text text-anchor="middle" x="77.07" y="-128" font-family="Helvetica,sans-Serif" font-size="10.00">/messages.hpp</text>
</a>
</g>
</g>
<!-- Node4&#45;&gt;Node8 -->
<g id="edge8_Node000004_Node000008" class="edge">
<title>Node4&#45;&gt;Node8</title>
<g id="a_edge8_Node000004_Node000008"><a xlink:title=" ">
<path fill="none" stroke="#63b8ff" d="M374.03,-188.16C319.26,-180.25 230.31,-166.87 143.89,-151.09"/>
<polygon fill="#63b8ff" stroke="#63b8ff" points="144.38,-147.62 133.91,-149.26 143.12,-154.51 144.38,-147.62"/>
</a>
</g>
</g>
<!-- Node9 -->
<g id="Node000009" class="node">
<title>Node9</title>
<g id="a_Node000009"><a xlink:title=" ">
<polygon fill="#e0e0e0" stroke="#999999" points="202.07,-145.5 152.07,-145.5 152.07,-126.5 202.07,-126.5 202.07,-145.5"/>
<text text-anchor="middle" x="177.07" y="-133.5" font-family="Helvetica,sans-Serif" font-size="10.00">cstring</text>
</a>
</g>
</g>
<!-- Node4&#45;&gt;Node9 -->
<g id="edge13_Node000004_Node000009" class="edge">
<title>Node4&#45;&gt;Node9</title>
<g id="a_edge13_Node000004_Node000009"><a xlink:title=" ">
<path fill="none" stroke="#63b8ff" d="M376.39,-186.94C333.54,-179.09 270.2,-166.37 216.07,-151 213.65,-150.31 211.16,-149.55 208.67,-148.75"/>
<polygon fill="#63b8ff" stroke="#63b8ff" points="209.77,-145.43 199.17,-145.52 207.52,-152.05 209.77,-145.43"/>
</a>
</g>
</g>
<!-- Node10 -->
<g id="Node000010" class="node">
<title>Node10</title>
<g id="a_Node000010"><a xlink:href="../../d6/da3/logger_8hpp.html" target="_top" xlink:title=" ">
<polygon fill="white" stroke="#666666" points="397.57,-145.5 258.57,-145.5 258.57,-126.5 397.57,-126.5 397.57,-145.5"/>
<text text-anchor="middle" x="328.07" y="-133.5" font-family="Helvetica,sans-Serif" font-size="10.00">Common/utils/logger.hpp</text>
</a>
</g>
</g>
<!-- Node4&#45;&gt;Node10 -->
<g id="edge15_Node000004_Node000010" class="edge">
<title>Node4&#45;&gt;Node10</title>
<g id="a_edge15_Node000004_Node000010"><a xlink:title=" ">
<path fill="none" stroke="#63b8ff" d="M411.61,-186.87C395.76,-177.41 370.1,-162.09 351.39,-150.92"/>
<polygon fill="#63b8ff" stroke="#63b8ff" points="352.97,-147.79 342.59,-145.67 349.38,-153.8 352.97,-147.79"/>
</a>
</g>
</g>
<!-- Node11 -->
<g id="Node000011" class="node">
<title>Node11</title>
<g id="a_Node000011"><a xlink:href="../../d4/d35/fault__injection_8hpp.html" target="_top" xlink:title=" ">
<polygon fill="white" stroke="#666666" points="732.07,-85 622.07,-85 622.07,-55 732.07,-55 732.07,-85"/>
<text text-anchor="start" x="630.07" y="-73" font-family="Helvetica,sans-Serif" font-size="10.00">Common/utils/fault</text>
<text text-anchor="middle" x="677.07" y="-62" font-family="Helvetica,sans-Serif" font-size="10.00">_injection.hpp</text>
</a>
</g>
</g>
<!-- Node4&#45;&gt;Node11 -->
<g id="edge17_Node000004_Node000011" class="edge">
<title>Node4&#45;&gt;Node11</title>
<g id="a_edge17_Node000004_Node000011"><a xlink:title=" ">
<path fill="none" stroke="#63b8ff" d="M478.2,-190.18C533.56,-183.59 616.43,-170.77 641.07,-151 658.35,-137.14 667.62,-113.2 672.39,-95.12"/>
<polygon fill="#63b8ff" stroke="#63b8ff" points="675.83,-95.8 674.72,-85.26 669.02,-94.19 675.83,-95.8"/>
</a>
</g>
</g>
<!-- Node13 -->
<g id="Node000013" class="node">
<title>Node13</title>
<g id="a_Node000013"><a xlink:href="../../d4/d44/metrics_8hpp.html" target="_top" xlink:title=" ">
<polygon fill="white" stroke="#666666" points="528.07,-79.5 382.07,-79.5 382.07,-60.5 528.07,-60.5 528.07,-79.5"/>
<text text-anchor="middle" x="455.07" y="-67.5" font-family="Helvetica,sans-Serif" font-size="10.00">Common/utils/metrics.hpp</text>
</a>
</g>
</g>
<!-- Node4&#45;&gt;Node13 -->
<g id="edge20_Node000004_Node000013" class="edge">
<title>Node4&#45;&gt;Node13</title>
<g id="a_edge20_Node000004_Node000013"><a xlink:title=" ">
<path fill="none" stroke="#63b8ff" d="M429.17,-186.72C432.24,-177.81 436.92,-163.57 440.07,-151 445.25,-130.28 449.54,-106.15 452.19,-89.85"/>
<polygon fill="#63b8ff" stroke="#63b8ff" points="455.65,-90.38 453.75,-79.95 448.73,-89.29 455.65,-90.38"/>
</a>
</g>
</g>
<!-- Node14 -->
<g id="Node000014" class="node">
<title>Node14</title>
<g id="a_Node000014"><a xlink:href="../../de/d18/health_8hpp.html" target="_top" xlink:title=" ">
<polygon fill="white" stroke="#666666" points="632.07,-145.5 492.07,-145.5 492.07,-126.5 632.07,-126.5 632.07,-145.5"/>
<text text-anchor="middle" x="562.07" y="-133.5" font-family="Helvetica,sans-Serif" font-size="10.00">Common/utils/health.hpp</text>
</a>
</g>
</g>
<!-- Node4&#45;&gt;Node14 -->
<g id="edge24_Node000004_Node000014" class="edge">
<title>Node4&#45;&gt;Node14</title>
<g id="a_edge24_Node000004_Node000014"><a xlink:title=" ">
<path fill="none" stroke="#63b8ff" d="M445.84,-186.99C468.71,-177.16 506.56,-160.88 532.82,-149.58"/>
<polygon fill="#63b8ff" stroke="#63b8ff" points="534.47,-152.68 542.27,-145.52 531.7,-146.25 534.47,-152.68"/>
</a>
</g>
</g>
<!-- Node15 -->
<g id="Node000015" class="node">
<title>Node15</title>
<g id="a_Node000015"><a xlink:href="../../d8/dfd/config_8hpp.html" target="_top" xlink:title=" ">
<polygon fill="white" stroke="#666666" points="926.07,-79.5 788.07,-79.5 788.07,-60.5 926.07,-60.5 926.07,-79.5"/>
<text text-anchor="middle" x="857.07" y="-67.5" font-family="Helvetica,sans-Serif" font-size="10.00">Common/utils/config.hpp</text>
</a>
</g>
</g>
<!-- Node4&#45;&gt;Node15 -->
<g id="edge29_Node000004_Node000015" class="edge">
<title>Node4&#45;&gt;Node15</title>
<g id="a_edge29_Node000004_Node000015"><a xlink:title=" ">
<path fill="none" stroke="#63b8ff" d="M478.1,-189.04C527.02,-182.21 601.97,-169.79 665.07,-151 726.12,-132.82 794.21,-101.7 830.64,-84.12"/>
<polygon fill="#63b8ff" stroke="#63b8ff" points="832.59,-87.06 840.04,-79.54 829.52,-80.77 832.59,-87.06"/>
</a>
</g>
</g>
<!-- Node5&#45;&gt;Node2 -->
<g id="edge5_Node000005_Node000002" class="edge">
<title>Node5&#45;&gt;Node2</title>
<g id="a_edge5_Node000005_Node000002"><a xlink:title=" ">
<path fill="none" stroke="#63b8ff" d="M229.92,-54.99C273.1,-43.96 331.98,-28.92 369.01,-19.46"/>
<polygon fill="#63b8ff" stroke="#63b8ff" points="370.02,-22.81 378.84,-16.95 368.28,-16.03 370.02,-22.81"/>
</a>
</g>
</g>
<!-- Node5&#45;&gt;Node6 -->
<g id="edge6_Node000005_Node000006" class="edge">
<title>Node5&#45;&gt;Node6</title>
<g id="a_edge6_Node000005_Node000006"><a xlink:title=" ">
<path fill="none" stroke="#63b8ff" d="M155.95,-54.84C143.89,-45.91 128.35,-34.41 116.13,-25.35"/>
<polygon fill="#63b8ff" stroke="#63b8ff" points="118.03,-22.4 107.91,-19.27 113.86,-28.03 118.03,-22.4"/>
</a>
</g>
</g>
<!-- Node7 -->
<g id="Node000007" class="node">
<title>Node7</title>
<g id="a_Node000007"><a xlink:title=" ">
<polygon fill="#e0e0e0" stroke="#999999" points="201.57,-19 148.57,-19 148.57,0 201.57,0 201.57,-19"/>
<text text-anchor="middle" x="175.07" y="-7" font-family="Helvetica,sans-Serif" font-size="10.00">cstddef</text>
</a>
</g>
</g>
<!-- Node5&#45;&gt;Node7 -->
<g id="edge7_Node000005_Node000007" class="edge">
<title>Node5&#45;&gt;Node7</title>
<g id="a_edge7_Node000005_Node000007"><a xlink:title=" ">
<path fill="none" stroke="#63b8ff" d="M175.07,-54.84C175.07,-47.21 175.07,-37.7 175.07,-29.45"/>
<polygon fill="#63b8ff" stroke="#63b8ff" points="178.57,-29.27 175.07,-19.27 171.57,-29.27 178.57,-29.27"/>
</a>
</g>
</g>
<!-- Node8&#45;&gt;Node2 -->
<g id="edge10_Node000008_Node000002" class="edge">
<title>Node8&#45;&gt;Node2</title>
<g id="a_edge10_Node000008_Node000002"><a xlink:title=" ">
<path fill="none" stroke="#63b8ff" d="M129.03,-120.91C161.33,-111.7 203.53,-98.84 240.07,-85 289.9,-66.13 346.04,-39.38 378.02,-23.6"/>
<polygon fill="#63b8ff" stroke="#63b8ff" points="379.74,-26.65 387.14,-19.07 376.63,-20.38 379.74,-26.65"/>
</a>
</g>
</g>
<!-- Node8&#45;&gt;Node5 -->
<g id="edge9_Node000008_Node000005" class="edge">
<title>Node8&#45;&gt;Node5</title>
<g id="a_edge9_Node000008_Node000005"><a xlink:title=" ">
<path fill="none" stroke="#63b8ff" d="M98.82,-120.8C112.39,-111.93 130.06,-100.39 144.97,-90.66"/>
<polygon fill="#63b8ff" stroke="#63b8ff" points="146.92,-93.56 153.38,-85.16 143.09,-87.7 146.92,-93.56"/>
</a>
</g>
</g>
<!-- Node8&#45;&gt;Node6 -->
<g id="edge11_Node000008_Node000006" class="edge">
<title>Node8&#45;&gt;Node6</title>
<g id="a_edge11_Node000008_Node000006"><a xlink:title=" ">
<path fill="none" stroke="#63b8ff" d="M79.25,-120.72C82.7,-98.12 89.41,-54.12 93.23,-29.09"/>
<polygon fill="#63b8ff" stroke="#63b8ff" points="96.71,-29.48 94.76,-19.07 89.79,-28.43 96.71,-29.48"/>
</a>
</g>
</g>
<!-- Node10&#45;&gt;Node2 -->
<g id="edge16_Node000010_Node000002" class="edge">
<title>Node10&#45;&gt;Node2</title>
<g id="a_edge16_Node000010_Node000002"><a xlink:title=" ">
<path fill="none" stroke="#63b8ff" d="M327.24,-126.31C326.2,-110.75 325.98,-77.66 340.07,-55 348.35,-41.68 362.24,-31.3 374.98,-23.93"/>
<polygon fill="#63b8ff" stroke="#63b8ff" points="376.8,-26.92 383.94,-19.1 373.48,-20.76 376.8,-26.92"/>
</a>
</g>
</g>
<!-- Node11&#45;&gt;Node2 -->
<g id="edge19_Node000011_Node000002" class="edge">
<title>Node11&#45;&gt;Node2</title>
<g id="a_edge19_Node000011_Node000002"><a xlink:title=" ">
<path fill="none" stroke="#63b8ff" d="M621.82,-57.16C567.22,-45.46 485.33,-27.91 439.1,-18.01"/>
<polygon fill="#63b8ff" stroke="#63b8ff" points="439.76,-14.57 429.25,-15.9 438.3,-21.41 439.76,-14.57"/>
</a>
</g>
</g>
<!-- Node12 -->
<g id="Node000012" class="node">
<title>Node12</title>
<g id="a_Node000012"><a xlink:title=" ">
<polygon fill="#e0e0e0" stroke="#999999" points="660.07,-19 610.07,-19 610.07,0 660.07,0 660.07,-19"/>
<text text-anchor="middle" x="635.07" y="-7" font-family="Helvetica,sans-Serif" font-size="10.00">atomic</text>
</a>
</g>
</g>
<!-- Node11&#45;&gt;Node12 -->
<g id="edge18_Node000011_Node000012" class="edge">
<title>Node11&#45;&gt;Node12</title>
<g id="a_edge18_Node000011_Node000012"><a xlink:title=" ">
<path fill="none" stroke="#63b8ff" d="M666.9,-54.84C660.99,-46.61 653.51,-36.18 647.28,-27.51"/>
<polygon fill="#63b8ff" stroke="#63b8ff" points="650.04,-25.35 641.36,-19.27 644.35,-29.43 650.04,-25.35"/>
</a>
</g>
</g>
<!-- Node13&#45;&gt;Node2 -->
<g id="edge22_Node000013_Node000002" class="edge">
<title>Node13&#45;&gt;Node2</title>
<g id="a_edge22_Node000013_Node000002"><a xlink:title=" ">
<path fill="none" stroke="#63b8ff" d="M447.54,-60.37C439.86,-51.55 427.75,-37.66 418.25,-26.77"/>
<polygon fill="#63b8ff" stroke="#63b8ff" points="420.83,-24.41 411.63,-19.17 415.56,-29.01 420.83,-24.41"/>
</a>
</g>
</g>
<!-- Node13&#45;&gt;Node6 -->
<g id="edge23_Node000013_Node000006" class="edge">
<title>Node13&#45;&gt;Node6</title>
<g id="a_edge23_Node000013_Node000006"><a xlink:title=" ">
<path fill="none" stroke="#63b8ff" d="M397.01,-60.49C333.53,-51.04 228.89,-34.98 139.07,-19 135.33,-18.33 131.41,-17.61 127.53,-16.86"/>
<polygon fill="#63b8ff" stroke="#63b8ff" points="127.96,-13.38 117.47,-14.9 126.62,-20.25 127.96,-13.38"/>
</a>
</g>
</g>
<!-- Node13&#45;&gt;Node12 -->
<g id="edge21_Node000013_Node000012" class="edge">
<title>Node13&#45;&gt;Node12</title>
<g id="a_edge21_Node000013_Node000012"><a xlink:title=" ">
<path fill="none" stroke="#63b8ff" d="M481.24,-60.49C512.66,-50.28 565.45,-33.13 600.27,-21.81"/>
<polygon fill="#63b8ff" stroke="#63b8ff" points="601.6,-25.06 610.02,-18.64 599.43,-18.4 601.6,-25.06"/>
</a>
</g>
</g>
<!-- Node14&#45;&gt;Node2 -->
<g id="edge26_Node000014_Node000002" class="edge">
<title>Node14&#45;&gt;Node2</title>
<g id="a_edge26_Node000014_Node000002"><a xlink:title=" ">
<path fill="none" stroke="#63b8ff" d="M561.83,-126.24C560.91,-109.98 556.63,-74.95 537.07,-55 511.15,-28.56 469.09,-17.83 439.22,-13.47"/>
<polygon fill="#63b8ff" stroke="#63b8ff" points="439.57,-9.99 429.2,-12.18 438.67,-16.93 439.57,-9.99"/>
</a>
</g>
</g>
<!-- Node14&#45;&gt;Node11 -->
<g id="edge28_Node000014_Node000011" class="edge">
<title>Node14&#45;&gt;Node11</title>
<g id="a_edge28_Node000014_Node000011"><a xlink:title=" ">
<path fill="none" stroke="#63b8ff" d="M577.58,-126.37C594.21,-117.11 621.14,-102.12 642.79,-90.07"/>
<polygon fill="#63b8ff" stroke="#63b8ff" points="644.67,-93.04 651.7,-85.12 641.26,-86.92 644.67,-93.04"/>
</a>
</g>
</g>
<!-- Node14&#45;&gt;Node12 -->
<g id="edge25_Node000014_Node000012" class="edge">
<title>Node14&#45;&gt;Node12</title>
<g id="a_edge25_Node000014_Node000012"><a xlink:title=" ">
<path fill="none" stroke="#63b8ff" d="M567.09,-126.44C578.96,-106.19 608.99,-54.97 624.87,-27.9"/>
<polygon fill="#63b8ff" stroke="#63b8ff" points="627.98,-29.51 630.02,-19.12 621.94,-25.97 627.98,-29.51"/>
</a>
</g>
</g>
<!-- Node14&#45;&gt;Node13 -->
<g id="edge27_Node000014_Node000013" class="edge">
<title>Node14&#45;&gt;Node13</title>
<g id="a_edge27_Node000014_Node000013"><a xlink:title=" ">
<path fill="none" stroke="#63b8ff" d="M547.64,-126.37C529.85,-115.73 499.39,-97.51 478.29,-84.89"/>
<polygon fill="#63b8ff" stroke="#63b8ff" points="479.99,-81.83 469.61,-79.7 476.4,-87.84 479.99,-81.83"/>
</a>
</g>
</g>
<!-- Node15&#45;&gt;Node12 -->
<g id="edge30_Node000015_Node000012" class="edge">
<title>Node15&#45;&gt;Node12</title>
<g id="a_edge30_Node000015_Node000012"><a xlink:title=" ">
<path fill="none" stroke="#63b8ff" d="M824.79,-60.49C783.57,-49.63 712.52,-30.91 670.05,-19.72"/>
<polygon fill="#63b8ff" stroke="#63b8ff" points="670.72,-16.28 660.16,-17.11 668.94,-23.04 670.72,-16.28"/>
</a>
</g>
</g>
</g>
</svg>

<g id="navigator" transform="translate(0 0)" fill="#404254">
  <rect fill="#f2f5e9" fill-opacity="0.5" stroke="#606060" stroke-width=".5" x="0" y="0" width="60" height="60"/>
  <use id="zoomplus" xlink:href="#zoomPlus" x="17" y="9" onmousedown="handleZoom(evt,'in')"/>
  <use id="zoomminus" xlink:href="#zoomMin" x="42" y="9" onmousedown="handleZoom(evt,'out')"/>
  <use id="reset" xlink:href="#resetDef" x="30" y="36" onmousedown="handleReset()"/>
   <use id="arrowup" xlink:href="#arrowUp" x="0" y="0" onmousedown="handlePan(0,-1)"/>
  <use id="arrowright" xlink:href="#arrowRight" x="0" y="0" onmousedown="handlePan(1,0)"/>
  <use id="arrowdown" xlink:href="#arrowDown" x="0" y="0" onmousedown="handlePan(0,1)"/>
  <use id="arrowleft" xlink:href="#arrowLeft" x="0" y="0" onmousedown="handlePan(-1,0)"/>
</g>
<svg viewBox="0 0 15 15" width="100%" height="30px" preserveAspectRatio="xMaxYMin meet">
 <g id="arrow_out" transform="scale(0.3 0.3)">
  <a xlink:href="profile_8hpp__incl_org.svg" target="_base">
   <rect id="button" ry="5" rx="5" y="6" x="6" height="38" width="38"
        fill="#f2f5e9" fill-opacity="0.5" stroke="#606060" stroke-width="1.0"/>
   <path id="arrow"
     d="M 11.500037,31.436501 C 11.940474,20.09759 22.043105,11.32322 32.158766,21.979434 L 37.068811,17.246167 C 37.068811,17.246167 37.088388,32 37.088388,32 L 22.160133,31.978069 C 22.160133,31.978069 26.997745,27.140456 26.997745,27.140456 C 18.528582,18.264221 13.291696,25.230495 11.500037,31.436501 z"
     style="fill:#404040;"/>
  </a>
 </g>
</svg>

<style type='text/css'>
<![CDATA[
[data-mouse-over-selected='false'] { opacity: 0.7; }
[data-mouse-over-selected='true']  { opacity: 1.0; }
]]>
</style>
<script type="application/ecmascript"><![CDATA[
document.addEventListener('DOMContentLoaded', (event) => {
  highlightEdges();
  highlightAdjacentNodes();
});
]]></script>
</svg>
