<?xml version="1.0" encoding="UTF-8" standalone="no"?>
<!DOCTYPE svg PUBLIC "-//W3C//DTD SVG 1.1//EN"
 "http://www.w3.org/Graphics/SVG/1.1/DTD/svg11.dtd">
<!-- Generated by graphviz version 2.43.0 (0)
 -->
<!-- Title: /home/runner/work/IEEE_1588_2019/IEEE_1588_2019/include/IEEE/1588/PTP/2019/message_flow_integration.hpp Pages: 1 -->
<svg width="980pt" height="368pt"
 viewBox="0.00 0.00 979.50 368.00" xmlns="http://www.w3.org/2000/svg" xmlns:xlink="http://www.w3.org/1999/xlink">
<g id="graph0" class="graph" transform="scale(1 1) rotate(0) translate(4 364)">
<title>/home/runner/work/IEEE_1588_2019/IEEE_1588_2019/include/IEEE/1588/PTP/2019/message_flow_integration.hpp</title>
<!-- Node1 -->
<g id="Node000001" class="node">
<title>Node1</title>
<g id="a_Node000001"><a xlink:title="IEEE 1588&#45;2019 Message Flow Integration Coordinator.">
<polygon fill="#999999" stroke="#666666" points="599,-360 430,-360 430,-308 599,-308 599,-360"/>
<text text-anchor="start" x="438" y="-348" font-family="Helvetica,sans-Serif" font-size="10.00">/home/runner/work/IEEE</text>
<text text-anchor="start" x="438" y="-337" font-family="Helvetica,sans-Serif" font-size="10.00">_1588_2019/IEEE_1588_2019</text>
<text text-anchor="start" x="438" y="-326" font-family="Helvetica,sans-Serif" font-size="10.00">/include/IEEE/1588/PTP/2019</text>
<text text-anchor="middle" x="514.5" y="-315" font-family="Helvetica,sans-Serif" font-size="10.00">/message_flow_integration.hpp</text>
</a>
</g>
</g>
<!-- Node2 -->
<g id="Node000002" class="node">
<title>Node2</title>
<g id="a_Node000002"><a xlink:href="../../dd/de3/types_8hpp.html" target="_top" xlink:title="IEEE 1588&#45;2019 PTP v2.1 fundamental data types and constants.">
<polygon fill="white" stroke="#666666" points="113,-85 0,-85 0,-55 113,-55 113,-85"/>
<text text-anchor="start" x="8" y="-73" font-family="Helvetica,sans-Serif" font-size="10.00">IEEE/1588/PTP/2019</text>
<text text-anchor="middle" x="56.5" y="-62" font-family="Helvetica,sans-Serif" font-size="10.00">/types.hpp</text>
</a>
</g>
</g>
<!-- Node1&#45;&gt;Node2 -->
<g id="edge1_Node000001_Node000002" class="edge">
<title>Node1&#45;&gt;Node2</title>
<g id="a_edge1_Node000001_Node000002"><a xlink:title=" ">
<path fill="none" stroke="#63b8ff" d="M429.63,-325.58C333.77,-316.13 184.6,-297.86 134.5,-272 67.47,-237.41 44.07,-220.81 15.5,-151 10.45,-138.66 11.01,-133.55 15.5,-121 19.28,-110.43 26.37,-100.48 33.6,-92.29"/>
<polygon fill="#63b8ff" stroke="#63b8ff" points="36.15,-94.68 40.47,-85.01 31.06,-89.88 36.15,-94.68"/>
</a>
</g>
</g>
<!-- Node3 -->
<g id="Node000003" class="node">
<title>Node3</title>
<g id="a_Node000003"><a xlink:title=" ">
<polygon fill="#e0e0e0" stroke="#999999" points="746.5,-19 696.5,-19 696.5,0 746.5,0 746.5,-19"/>
<text text-anchor="middle" x="721.5" y="-7" font-family="Helvetica,sans-Serif" font-size="10.00">cstdint</text>
</a>
</g>
</g>
<!-- Node1&#45;&gt;Node3 -->
<g id="edge50_Node000001_Node000003" class="edge">
<title>Node1&#45;&gt;Node3</title>
<g id="a_edge50_Node000001_Node000003"><a xlink:title=" ">
<path fill="none" stroke="#63b8ff" d="M599.27,-330.73C708.3,-326.17 889.79,-312.54 941.5,-272 969.59,-249.98 971.5,-233.19 971.5,-197.5 971.5,-197.5 971.5,-197.5 971.5,-135 971.5,-40.22 825.75,-17.6 756.82,-12.19"/>
<polygon fill="#63b8ff" stroke="#63b8ff" points="757.07,-8.7 746.85,-11.49 756.58,-15.69 757.07,-8.7"/>
</a>
</g>
</g>
<!-- Node6 -->
<g id="Node000006" class="node">
<title>Node6</title>
<g id="a_Node000006"><a xlink:href="../../d4/d64/messages_8hpp.html" target="_top" xlink:title="IEEE 1588&#45;2019 PTP Message Format Structures.">
<polygon fill="white" stroke="#666666" points="219,-151 106,-151 106,-121 219,-121 219,-151"/>
<text text-anchor="start" x="114" y="-139" font-family="Helvetica,sans-Serif" font-size="10.00">IEEE/1588/PTP/2019</text>
<text text-anchor="middle" x="162.5" y="-128" font-family="Helvetica,sans-Serif" font-size="10.00">/messages.hpp</text>
</a>
</g>
</g>
<!-- Node1&#45;&gt;Node6 -->
<g id="edge5_Node000001_Node000006" class="edge">
<title>Node1&#45;&gt;Node6</title>
<g id="a_edge5_Node000001_Node000006"><a xlink:title=" ">
<path fill="none" stroke="#63b8ff" d="M429.79,-323.86C368.42,-315.32 284.31,-299.61 214.5,-272 162.54,-251.45 134.73,-254.79 107.5,-206 97.56,-188.18 112.85,-170.23 129.81,-157.1"/>
<polygon fill="#63b8ff" stroke="#63b8ff" points="132.11,-159.76 138.17,-151.06 128.01,-154.08 132.11,-159.76"/>
</a>
</g>
</g>
<!-- Node7 -->
<g id="Node000007" class="node">
<title>Node7</title>
<g id="a_Node000007"><a xlink:href="../../d4/dbb/bmca__integration_8hpp.html" target="_top" xlink:title="BMCA Runtime Integration Coordinator.">
<polygon fill="white" stroke="#666666" points="411.5,-272 285.5,-272 285.5,-242 411.5,-242 411.5,-272"/>
<text text-anchor="start" x="293.5" y="-260" font-family="Helvetica,sans-Serif" font-size="10.00">IEEE/1588/PTP/2019</text>
<text text-anchor="middle" x="348.5" y="-249" font-family="Helvetica,sans-Serif" font-size="10.00">/bmca_integration.hpp</text>
</a>
</g>
</g>
<!-- Node1&#45;&gt;Node7 -->
<g id="edge9_Node000001_Node000007" class="edge">
<title>Node1&#45;&gt;Node7</title>
<g id="a_edge9_Node000001_Node000007"><a xlink:title=" ">
<path fill="none" stroke="#63b8ff" d="M458.76,-307.82C435.89,-297.48 409.92,-285.75 388.92,-276.26"/>
<polygon fill="#63b8ff" stroke="#63b8ff" points="390.21,-273 379.66,-272.08 387.33,-279.38 390.21,-273"/>
</a>
</g>
</g>
<!-- Node8 -->
<g id="Node000008" class="node">
<title>Node8</title>
<g id="a_Node000008"><a xlink:href="../../dd/dc5/clocks_8hpp.html" target="_top" xlink:title="IEEE 1588&#45;2019 PTP Clock State Machines Implementation.">
<polygon fill="white" stroke="#666666" points="555.5,-206 487.5,-206 487.5,-187 555.5,-187 555.5,-206"/>
<text text-anchor="middle" x="521.5" y="-194" font-family="Helvetica,sans-Serif" font-size="10.00">clocks.hpp</text>
</a>
</g>
</g>
<!-- Node1&#45;&gt;Node8 -->
<g id="edge49_Node000001_Node000008" class="edge">
<title>Node1&#45;&gt;Node8</title>
<g id="a_edge49_Node000001_Node000008"><a xlink:title=" ">
<path fill="none" stroke="#63b8ff" d="M515.8,-307.83C517.17,-281.26 519.3,-239.99 520.54,-216.18"/>
<polygon fill="#63b8ff" stroke="#63b8ff" points="524.04,-216.2 521.06,-206.03 517.05,-215.84 524.04,-216.2"/>
</a>
</g>
</g>
<!-- Node16 -->
<g id="Node000016" class="node">
<title>Node16</title>
<g id="a_Node000016"><a xlink:title=" ">
<polygon fill="#e0e0e0" stroke="#999999" points="181,-206 116,-206 116,-187 181,-187 181,-206"/>
<text text-anchor="middle" x="148.5" y="-194" font-family="Helvetica,sans-Serif" font-size="10.00">functional</text>
</a>
</g>
</g>
<!-- Node1&#45;&gt;Node16 -->
<g id="edge52_Node000001_Node000016" class="edge">
<title>Node1&#45;&gt;Node16</title>
<g id="a_edge52_Node000001_Node000016"><a xlink:title=" ">
<path fill="none" stroke="#63b8ff" d="M429.8,-317.25C383.5,-307.18 325.74,-292.18 276.5,-272 236.42,-255.57 193.65,-228.5 169.1,-211.91"/>
<polygon fill="#63b8ff" stroke="#63b8ff" points="170.85,-208.87 160.62,-206.11 166.9,-214.64 170.85,-208.87"/>
</a>
</g>
</g>
<!-- Node17 -->
<g id="Node000017" class="node">
<title>Node17</title>
<g id="a_Node000017"><a xlink:title=" ">
<polygon fill="#e0e0e0" stroke="#999999" points="377.5,-206 319.5,-206 319.5,-187 377.5,-187 377.5,-206"/>
<text text-anchor="middle" x="348.5" y="-194" font-family="Helvetica,sans-Serif" font-size="10.00">memory</text>
</a>
</g>
</g>
<!-- Node1&#45;&gt;Node17 -->
<g id="edge53_Node000001_Node000017" class="edge">
<title>Node1&#45;&gt;Node17</title>
<g id="a_edge53_Node000001_Node000017"><a xlink:title=" ">
<path fill="none" stroke="#63b8ff" d="M491.47,-307.92C473.2,-288.74 446.49,-262.23 420.5,-242 405.66,-230.45 387.67,-219.33 373.38,-211.09"/>
<polygon fill="#63b8ff" stroke="#63b8ff" points="375.02,-208 364.59,-206.12 371.57,-214.09 375.02,-208"/>
</a>
</g>
</g>
<!-- Node18 -->
<g id="Node000018" class="node">
<title>Node18</title>
<g id="a_Node000018"><a xlink:title=" ">
<polygon fill="#e0e0e0" stroke="#999999" points="905.5,-206 861.5,-206 861.5,-187 905.5,-187 905.5,-206"/>
<text text-anchor="middle" x="883.5" y="-194" font-family="Helvetica,sans-Serif" font-size="10.00">string</text>
</a>
</g>
</g>
<!-- Node1&#45;&gt;Node18 -->
<g id="edge51_Node000001_Node000018" class="edge">
<title>Node1&#45;&gt;Node18</title>
<g id="a_edge51_Node000001_Node000018"><a xlink:title=" ">
<path fill="none" stroke="#63b8ff" d="M590.1,-307.87C621.83,-297.12 659.06,-284.24 692.5,-272 749.57,-251.1 815.47,-224.94 853.05,-209.83"/>
<polygon fill="#63b8ff" stroke="#63b8ff" points="854.44,-213.04 862.41,-206.06 851.83,-206.55 854.44,-213.04"/>
</a>
</g>
</g>
<!-- Node19 -->
<g id="Node000019" class="node">
<title>Node19</title>
<g id="a_Node000019"><a xlink:href="../../d0/d75/sync__integration_8hpp.html" target="_top" xlink:title="IEEE 1588&#45;2019 Synchronization Integration Coordinator.">
<polygon fill="white" stroke="#666666" points="683.5,-272 561.5,-272 561.5,-242 683.5,-242 683.5,-272"/>
<text text-anchor="start" x="569.5" y="-260" font-family="Helvetica,sans-Serif" font-size="10.00">IEEE/1588/PTP/2019</text>
<text text-anchor="middle" x="622.5" y="-249" font-family="Helvetica,sans-Serif" font-size="10.00">/sync_integration.hpp</text>
</a>
</g>
</g>
<!-- Node1&#45;&gt;Node19 -->
<g id="edge39_Node000001_Node000019" class="edge">
<title>Node1&#45;&gt;Node19</title>
<g id="a_edge39_Node000001_Node000019"><a xlink:title=" ">
<path fill="none" stroke="#63b8ff" d="M550.76,-307.82C564.84,-298.04 580.72,-287.01 593.96,-277.82"/>
<polygon fill="#63b8ff" stroke="#63b8ff" points="596.01,-280.66 602.23,-272.08 592.02,-274.91 596.01,-280.66"/>
</a>
</g>
</g>
<!-- Node21 -->
<g id="Node000021" class="node">
<title>Node21</title>
<g id="a_Node000021"><a xlink:href="../../da/d7e/servo__integration_8hpp.html" target="_top" xlink:title="IEEE 1588&#45;2019 Servo Integration &#45; Clock Adjustment Control.">
<polygon fill="white" stroke="#666666" points="932.5,-272 806.5,-272 806.5,-242 932.5,-242 932.5,-272"/>
<text text-anchor="start" x="814.5" y="-260" font-family="Helvetica,sans-Serif" font-size="10.00">IEEE/1588/PTP/2019</text>
<text text-anchor="middle" x="869.5" y="-249" font-family="Helvetica,sans-Serif" font-size="10.00">/servo_integration.hpp</text>
</a>
</g>
</g>
<!-- Node1&#45;&gt;Node21 -->
<g id="edge45_Node000001_Node000021" class="edge">
<title>Node1&#45;&gt;Node21</title>
<g id="a_edge45_Node000001_Node000021"><a xlink:title=" ">
<path fill="none" stroke="#63b8ff" d="M599.08,-315.13C659.15,-302.44 739,-285.57 796.33,-273.46"/>
<polygon fill="#63b8ff" stroke="#63b8ff" points="797.34,-276.82 806.4,-271.33 795.9,-269.97 797.34,-276.82"/>
</a>
</g>
</g>
<!-- Node2&#45;&gt;Node3 -->
<g id="edge2_Node000002_Node000003" class="edge">
<title>Node2&#45;&gt;Node3</title>
<g id="a_edge2_Node000002_Node000003"><a xlink:title=" ">
<path fill="none" stroke="#63b8ff" d="M113.01,-61.22C129.88,-59.04 148.42,-56.78 165.5,-55 361.94,-34.53 598.29,-18.43 686.27,-12.73"/>
<polygon fill="#63b8ff" stroke="#63b8ff" points="686.49,-16.22 696.25,-12.09 686.04,-9.24 686.49,-16.22"/>
</a>
</g>
</g>
<!-- Node4 -->
<g id="Node000004" class="node">
<title>Node4</title>
<g id="a_Node000004"><a xlink:title=" ">
<polygon fill="#e0e0e0" stroke="#999999" points="200.5,-19 158.5,-19 158.5,0 200.5,0 200.5,-19"/>
<text text-anchor="middle" x="179.5" y="-7" font-family="Helvetica,sans-Serif" font-size="10.00">array</text>
</a>
</g>
</g>
<!-- Node2&#45;&gt;Node4 -->
<g id="edge3_Node000002_Node000004" class="edge">
<title>Node2&#45;&gt;Node4</title>
<g id="a_edge3_Node000002_Node000004"><a xlink:title=" ">
<path fill="none" stroke="#63b8ff" d="M85.96,-54.99C106.12,-45.4 132.64,-32.79 152.3,-23.44"/>
<polygon fill="#63b8ff" stroke="#63b8ff" points="153.81,-26.6 161.34,-19.14 150.8,-20.27 153.81,-26.6"/>
</a>
</g>
</g>
<!-- Node5 -->
<g id="Node000005" class="node">
<title>Node5</title>
<g id="a_Node000005"><a xlink:title=" ">
<polygon fill="#e0e0e0" stroke="#999999" points="83,-19 30,-19 30,0 83,0 83,-19"/>
<text text-anchor="middle" x="56.5" y="-7" font-family="Helvetica,sans-Serif" font-size="10.00">cstddef</text>
</a>
</g>
</g>
<!-- Node2&#45;&gt;Node5 -->
<g id="edge4_Node000002_Node000005" class="edge">
<title>Node2&#45;&gt;Node5</title>
<g id="a_edge4_Node000002_Node000005"><a xlink:title=" ">
<path fill="none" stroke="#63b8ff" d="M56.5,-54.84C56.5,-47.21 56.5,-37.7 56.5,-29.45"/>
<polygon fill="#63b8ff" stroke="#63b8ff" points="60,-29.27 56.5,-19.27 53,-29.27 60,-29.27"/>
</a>
</g>
</g>
<!-- Node6&#45;&gt;Node2 -->
<g id="edge6_Node000006_Node000002" class="edge">
<title>Node6&#45;&gt;Node2</title>
<g id="a_edge6_Node000006_Node000002"><a xlink:title=" ">
<path fill="none" stroke="#63b8ff" d="M139.24,-120.95C124.33,-111.95 104.77,-100.14 88.41,-90.27"/>
<polygon fill="#63b8ff" stroke="#63b8ff" points="90.08,-87.18 79.71,-85.01 86.46,-93.18 90.08,-87.18"/>
</a>
</g>
</g>
<!-- Node6&#45;&gt;Node3 -->
<g id="edge7_Node000006_Node000003" class="edge">
<title>Node6&#45;&gt;Node3</title>
<g id="a_edge7_Node000006_Node000003"><a xlink:title=" ">
<path fill="none" stroke="#63b8ff" d="M170.91,-120.76C182.86,-102.01 206.63,-69.72 236.5,-55 276.6,-35.24 581.45,-17.76 686.25,-12.28"/>
<polygon fill="#63b8ff" stroke="#63b8ff" points="686.51,-15.77 696.32,-11.75 686.15,-8.78 686.51,-15.77"/>
</a>
</g>
</g>
<!-- Node6&#45;&gt;Node4 -->
<g id="edge8_Node000006_Node000004" class="edge">
<title>Node6&#45;&gt;Node4</title>
<g id="a_edge8_Node000006_Node000004"><a xlink:title=" ">
<path fill="none" stroke="#63b8ff" d="M161.89,-120.72C161.48,-104.62 161.57,-77.73 165.5,-55 167.02,-46.22 169.82,-36.77 172.51,-28.85"/>
<polygon fill="#63b8ff" stroke="#63b8ff" points="175.9,-29.79 176,-19.19 169.31,-27.41 175.9,-29.79"/>
</a>
</g>
</g>
<!-- Node7&#45;&gt;Node2 -->
<g id="edge10_Node000007_Node000002" class="edge">
<title>Node7&#45;&gt;Node2</title>
<g id="a_edge10_Node000007_Node000002"><a xlink:title=" ">
<path fill="none" stroke="#63b8ff" d="M320.89,-241.95C289.85,-226.63 237.63,-202.27 190.5,-187 119.09,-163.87 72.58,-209.46 25.5,-151 11.77,-133.95 24.02,-110.12 36.94,-92.9"/>
<polygon fill="#63b8ff" stroke="#63b8ff" points="39.72,-95.04 43.23,-85.04 34.25,-90.66 39.72,-95.04"/>
</a>
</g>
</g>
<!-- Node7&#45;&gt;Node3 -->
<g id="edge38_Node000007_Node000003" class="edge">
<title>Node7&#45;&gt;Node3</title>
<g id="a_edge38_Node000007_Node000003"><a xlink:title=" ">
<path fill="none" stroke="#63b8ff" d="M411.6,-248.01C519.31,-233.26 732.53,-198.81 789.5,-151 823.64,-122.35 842.56,-92.52 818.5,-55 804.94,-33.86 778.55,-22.63 756.72,-16.75"/>
<polygon fill="#63b8ff" stroke="#63b8ff" points="757.3,-13.29 746.75,-14.33 755.65,-20.09 757.3,-13.29"/>
</a>
</g>
</g>
<!-- Node7&#45;&gt;Node8 -->
<g id="edge11_Node000007_Node000008" class="edge">
<title>Node7&#45;&gt;Node8</title>
<g id="a_edge11_Node000007_Node000008"><a xlink:title=" ">
<path fill="none" stroke="#63b8ff" d="M389.94,-241.99C419.41,-232.02 458.56,-218.78 486.47,-209.35"/>
<polygon fill="#63b8ff" stroke="#63b8ff" points="487.85,-212.57 496.2,-206.05 485.61,-205.94 487.85,-212.57"/>
</a>
</g>
</g>
<!-- Node13 -->
<g id="Node000013" class="node">
<title>Node13</title>
<g id="a_Node000013"><a xlink:href="../../d4/d44/metrics_8hpp.html" target="_top" xlink:title=" ">
<polygon fill="white" stroke="#666666" points="391.5,-79.5 245.5,-79.5 245.5,-60.5 391.5,-60.5 391.5,-79.5"/>
<text text-anchor="middle" x="318.5" y="-67.5" font-family="Helvetica,sans-Serif" font-size="10.00">Common/utils/metrics.hpp</text>
</a>
</g>
</g>
<!-- Node7&#45;&gt;Node13 -->
<g id="edge34_Node000007_Node000013" class="edge">
<title>Node7&#45;&gt;Node13</title>
<g id="a_edge34_Node000007_Node000013"><a xlink:title=" ">
<path fill="none" stroke="#63b8ff" d="M330.09,-241.97C319.85,-232.96 308.07,-220.29 302.5,-206 287.05,-166.38 301.27,-115.66 311.05,-89.09"/>
<polygon fill="#63b8ff" stroke="#63b8ff" points="314.39,-90.16 314.75,-79.57 307.87,-87.62 314.39,-90.16"/>
</a>
</g>
</g>
<!-- Node14 -->
<g id="Node000014" class="node">
<title>Node14</title>
<g id="a_Node000014"><a xlink:href="../../de/d18/health_8hpp.html" target="_top" xlink:title=" ">
<polygon fill="white" stroke="#666666" points="491.5,-145.5 351.5,-145.5 351.5,-126.5 491.5,-126.5 491.5,-145.5"/>
<text text-anchor="middle" x="421.5" y="-133.5" font-family="Helvetica,sans-Serif" font-size="10.00">Common/utils/health.hpp</text>
</a>
</g>
</g>
<!-- Node7&#45;&gt;Node14 -->
<g id="edge33_Node000007_Node000014" class="edge">
<title>Node7&#45;&gt;Node14</title>
<g id="a_edge33_Node000007_Node000014"><a xlink:title=" ">
<path fill="none" stroke="#63b8ff" d="M331.47,-241.92C316.44,-227.74 298.62,-205.38 310.5,-187 322.89,-167.84 344.57,-155.94 365.5,-148.6"/>
<polygon fill="#63b8ff" stroke="#63b8ff" points="366.58,-151.93 375.03,-145.53 364.44,-145.26 366.58,-151.93"/>
</a>
</g>
</g>
<!-- Node7&#45;&gt;Node16 -->
<g id="edge35_Node000007_Node000016" class="edge">
<title>Node7&#45;&gt;Node16</title>
<g id="a_edge35_Node000007_Node000016"><a xlink:title=" ">
<path fill="none" stroke="#63b8ff" d="M300.6,-241.99C266.08,-231.89 220.08,-218.44 187.73,-208.98"/>
<polygon fill="#63b8ff" stroke="#63b8ff" points="188.32,-205.5 177.74,-206.05 186.36,-212.22 188.32,-205.5"/>
</a>
</g>
</g>
<!-- Node7&#45;&gt;Node17 -->
<g id="edge36_Node000007_Node000017" class="edge">
<title>Node7&#45;&gt;Node17</title>
<g id="a_edge36_Node000007_Node000017"><a xlink:title=" ">
<path fill="none" stroke="#63b8ff" d="M348.5,-241.84C348.5,-234.21 348.5,-224.7 348.5,-216.45"/>
<polygon fill="#63b8ff" stroke="#63b8ff" points="352,-216.27 348.5,-206.27 345,-216.27 352,-216.27"/>
</a>
</g>
</g>
<!-- Node7&#45;&gt;Node18 -->
<g id="edge37_Node000007_Node000018" class="edge">
<title>Node7&#45;&gt;Node18</title>
<g id="a_edge37_Node000007_Node000018"><a xlink:title=" ">
<path fill="none" stroke="#63b8ff" d="M411.69,-251.07C523.54,-242.13 753.11,-222.77 851.33,-205.87"/>
<polygon fill="#63b8ff" stroke="#63b8ff" points="852.03,-209.3 861.25,-204.08 850.79,-202.41 852.03,-209.3"/>
</a>
</g>
</g>
<!-- Node8&#45;&gt;Node2 -->
<g id="edge12_Node000008_Node000002" class="edge">
<title>Node8&#45;&gt;Node2</title>
<g id="a_edge12_Node000008_Node000002"><a xlink:title=" ">
<path fill="none" stroke="#63b8ff" d="M487.2,-192.34C387.7,-183.11 105.54,-156.51 97.5,-151 78.47,-137.96 67.75,-113.31 62.08,-94.8"/>
<polygon fill="#63b8ff" stroke="#63b8ff" points="65.41,-93.71 59.37,-85.01 58.67,-95.58 65.41,-93.71"/>
</a>
</g>
</g>
<!-- Node8&#45;&gt;Node3 -->
<g id="edge14_Node000008_Node000003" class="edge">
<title>Node8&#45;&gt;Node3</title>
<g id="a_edge14_Node000008_Node000003"><a xlink:title=" ">
<path fill="none" stroke="#63b8ff" d="M555.88,-192.42C613.37,-186.71 725.91,-173.05 758.5,-151 797.07,-124.9 824,-95.21 800.5,-55 790.87,-38.53 772.65,-27.68 756.13,-20.82"/>
<polygon fill="#63b8ff" stroke="#63b8ff" points="757.27,-17.51 746.68,-17.23 754.79,-24.05 757.27,-17.51"/>
</a>
</g>
</g>
<!-- Node8&#45;&gt;Node4 -->
<g id="edge16_Node000008_Node000004" class="edge">
<title>Node8&#45;&gt;Node4</title>
<g id="a_edge16_Node000008_Node000004"><a xlink:title=" ">
<path fill="none" stroke="#63b8ff" d="M487.28,-192.61C446.04,-188.08 375.42,-176.99 320.5,-151 260.77,-122.74 211.6,-58.31 190.54,-27.51"/>
<polygon fill="#63b8ff" stroke="#63b8ff" points="193.39,-25.48 184.93,-19.11 187.57,-29.37 193.39,-25.48"/>
</a>
</g>
</g>
<!-- Node8&#45;&gt;Node6 -->
<g id="edge13_Node000008_Node000006" class="edge">
<title>Node8&#45;&gt;Node6</title>
<g id="a_edge13_Node000008_Node000006"><a xlink:title=" ">
<path fill="none" stroke="#63b8ff" d="M487.4,-189.94C428.27,-180.31 305.72,-160.34 229.18,-147.87"/>
<polygon fill="#63b8ff" stroke="#63b8ff" points="229.6,-144.39 219.16,-146.23 228.47,-151.3 229.6,-144.39"/>
</a>
</g>
</g>
<!-- Node9 -->
<g id="Node000009" class="node">
<title>Node9</title>
<g id="a_Node000009"><a xlink:title=" ">
<polygon fill="#e0e0e0" stroke="#999999" points="559.5,-145.5 509.5,-145.5 509.5,-126.5 559.5,-126.5 559.5,-145.5"/>
<text text-anchor="middle" x="534.5" y="-133.5" font-family="Helvetica,sans-Serif" font-size="10.00">cstring</text>
</a>
</g>
</g>
<!-- Node8&#45;&gt;Node9 -->
<g id="edge15_Node000008_Node000009" class="edge">
<title>Node8&#45;&gt;Node9</title>
<g id="a_edge15_Node000008_Node000009"><a xlink:title=" ">
<path fill="none" stroke="#63b8ff" d="M523.42,-186.87C525.24,-178.66 528.05,-166.04 530.38,-155.55"/>
<polygon fill="#63b8ff" stroke="#63b8ff" points="533.82,-156.19 532.57,-145.67 526.99,-154.67 533.82,-156.19"/>
</a>
</g>
</g>
<!-- Node10 -->
<g id="Node000010" class="node">
<title>Node10</title>
<g id="a_Node000010"><a xlink:href="../../d6/da3/logger_8hpp.html" target="_top" xlink:title=" ">
<polygon fill="white" stroke="#666666" points="791,-79.5 652,-79.5 652,-60.5 791,-60.5 791,-79.5"/>
<text text-anchor="middle" x="721.5" y="-67.5" font-family="Helvetica,sans-Serif" font-size="10.00">Common/utils/logger.hpp</text>
</a>
</g>
</g>
<!-- Node8&#45;&gt;Node10 -->
<g id="edge17_Node000008_Node000010" class="edge">
<title>Node8&#45;&gt;Node10</title>
<g id="a_edge17_Node000008_Node000010"><a xlink:title=" ">
<path fill="none" stroke="#63b8ff" d="M555.8,-193.69C611.68,-189.95 718.43,-179.2 741.5,-151 756.18,-133.05 744.27,-105.78 733.55,-88.18"/>
<polygon fill="#63b8ff" stroke="#63b8ff" points="736.29,-85.97 727.89,-79.51 730.43,-89.8 736.29,-85.97"/>
</a>
</g>
</g>
<!-- Node11 -->
<g id="Node000011" class="node">
<title>Node11</title>
<g id="a_Node000011"><a xlink:href="../../d4/d35/fault__injection_8hpp.html" target="_top" xlink:title=" ">
<polygon fill="white" stroke="#666666" points="633.5,-85 523.5,-85 523.5,-55 633.5,-55 633.5,-85"/>
<text text-anchor="start" x="531.5" y="-73" font-family="Helvetica,sans-Serif" font-size="10.00">Common/utils/fault</text>
<text text-anchor="middle" x="578.5" y="-62" font-family="Helvetica,sans-Serif" font-size="10.00">_injection.hpp</text>
</a>
</g>
</g>
<!-- Node8&#45;&gt;Node11 -->
<g id="edge19_Node000008_Node000011" class="edge">
<title>Node8&#45;&gt;Node11</title>
<g id="a_edge19_Node000008_Node000011"><a xlink:title=" ">
<path fill="none" stroke="#63b8ff" d="M555.7,-193.06C607.93,-188.54 703.69,-176.86 724.5,-151 732.86,-140.61 732.25,-131.85 724.5,-121 714.51,-107.01 677.84,-94.48 643.76,-85.47"/>
<polygon fill="#63b8ff" stroke="#63b8ff" points="644.33,-82 633.77,-82.9 642.58,-88.78 644.33,-82"/>
</a>
</g>
</g>
<!-- Node8&#45;&gt;Node13 -->
<g id="edge22_Node000008_Node000013" class="edge">
<title>Node8&#45;&gt;Node13</title>
<g id="a_edge22_Node000008_Node000013"><a xlink:title=" ">
<path fill="none" stroke="#63b8ff" d="M487.13,-191.05C441.17,-184.42 363.07,-170.61 342.5,-151 325.81,-135.09 320.6,-108.08 319.04,-89.9"/>
<polygon fill="#63b8ff" stroke="#63b8ff" points="322.53,-89.68 318.47,-79.9 315.54,-90.08 322.53,-89.68"/>
</a>
</g>
</g>
<!-- Node8&#45;&gt;Node14 -->
<g id="edge26_Node000008_Node000014" class="edge">
<title>Node8&#45;&gt;Node14</title>
<g id="a_edge26_Node000008_Node000014"><a xlink:title=" ">
<path fill="none" stroke="#63b8ff" d="M506.74,-186.87C490.5,-177.36 464.15,-161.95 445.04,-150.77"/>
<polygon fill="#63b8ff" stroke="#63b8ff" points="446.71,-147.7 436.32,-145.67 443.18,-153.74 446.71,-147.7"/>
</a>
</g>
</g>
<!-- Node15 -->
<g id="Node000015" class="node">
<title>Node15</title>
<g id="a_Node000015"><a xlink:href="../../d8/dfd/config_8hpp.html" target="_top" xlink:title=" ">
<polygon fill="white" stroke="#666666" points="715.5,-145.5 577.5,-145.5 577.5,-126.5 715.5,-126.5 715.5,-145.5"/>
<text text-anchor="middle" x="646.5" y="-133.5" font-family="Helvetica,sans-Serif" font-size="10.00">Common/utils/config.hpp</text>
</a>
</g>
</g>
<!-- Node8&#45;&gt;Node15 -->
<g id="edge31_Node000008_Node000015" class="edge">
<title>Node8&#45;&gt;Node15</title>
<g id="a_edge31_Node000008_Node000015"><a xlink:title=" ">
<path fill="none" stroke="#63b8ff" d="M539.68,-186.99C560.51,-177.25 594.87,-161.16 618.98,-149.88"/>
<polygon fill="#63b8ff" stroke="#63b8ff" points="620.73,-152.93 628.3,-145.52 617.76,-146.59 620.73,-152.93"/>
</a>
</g>
</g>
<!-- Node10&#45;&gt;Node3 -->
<g id="edge18_Node000010_Node000003" class="edge">
<title>Node10&#45;&gt;Node3</title>
<g id="a_edge18_Node000010_Node000003"><a xlink:title=" ">
<path fill="none" stroke="#63b8ff" d="M721.5,-60.37C721.5,-52.25 721.5,-39.81 721.5,-29.39"/>
<polygon fill="#63b8ff" stroke="#63b8ff" points="725,-29.17 721.5,-19.17 718,-29.17 725,-29.17"/>
</a>
</g>
</g>
<!-- Node11&#45;&gt;Node3 -->
<g id="edge21_Node000011_Node000003" class="edge">
<title>Node11&#45;&gt;Node3</title>
<g id="a_edge21_Node000011_Node000003"><a xlink:title=" ">
<path fill="none" stroke="#63b8ff" d="M612.75,-54.99C636.61,-45.23 668.15,-32.33 691.11,-22.93"/>
<polygon fill="#63b8ff" stroke="#63b8ff" points="692.45,-26.17 700.38,-19.14 689.8,-19.69 692.45,-26.17"/>
</a>
</g>
</g>
<!-- Node12 -->
<g id="Node000012" class="node">
<title>Node12</title>
<g id="a_Node000012"><a xlink:title=" ">
<polygon fill="#e0e0e0" stroke="#999999" points="463.5,-19 413.5,-19 413.5,0 463.5,0 463.5,-19"/>
<text text-anchor="middle" x="438.5" y="-7" font-family="Helvetica,sans-Serif" font-size="10.00">atomic</text>
</a>
</g>
</g>
<!-- Node11&#45;&gt;Node12 -->
<g id="edge20_Node000011_Node000012" class="edge">
<title>Node11&#45;&gt;Node12</title>
<g id="a_edge20_Node000011_Node000012"><a xlink:title=" ">
<path fill="none" stroke="#63b8ff" d="M544.97,-54.99C521.71,-45.27 491.01,-32.44 468.55,-23.06"/>
<polygon fill="#63b8ff" stroke="#63b8ff" points="469.75,-19.77 459.18,-19.14 467.05,-26.22 469.75,-19.77"/>
</a>
</g>
</g>
<!-- Node13&#45;&gt;Node3 -->
<g id="edge24_Node000013_Node000003" class="edge">
<title>Node13&#45;&gt;Node3</title>
<g id="a_edge24_Node000013_Node000003"><a xlink:title=" ">
<path fill="none" stroke="#63b8ff" d="M377.1,-60.49C462.03,-48.17 616.73,-25.71 686.14,-15.63"/>
<polygon fill="#63b8ff" stroke="#63b8ff" points="686.74,-19.08 696.13,-14.18 685.74,-12.16 686.74,-19.08"/>
</a>
</g>
</g>
<!-- Node13&#45;&gt;Node4 -->
<g id="edge25_Node000013_Node000004" class="edge">
<title>Node13&#45;&gt;Node4</title>
<g id="a_edge25_Node000013_Node000004"><a xlink:title=" ">
<path fill="none" stroke="#63b8ff" d="M298.29,-60.49C274.82,-50.62 235.89,-34.23 209.04,-22.93"/>
<polygon fill="#63b8ff" stroke="#63b8ff" points="210.31,-19.67 199.74,-19.02 207.6,-26.12 210.31,-19.67"/>
</a>
</g>
</g>
<!-- Node13&#45;&gt;Node12 -->
<g id="edge23_Node000013_Node000012" class="edge">
<title>Node13&#45;&gt;Node12</title>
<g id="a_edge23_Node000013_Node000012"><a xlink:title=" ">
<path fill="none" stroke="#63b8ff" d="M335.95,-60.49C355.86,-50.79 388.64,-34.81 411.77,-23.53"/>
<polygon fill="#63b8ff" stroke="#63b8ff" points="413.57,-26.54 421.03,-19.02 410.51,-20.25 413.57,-26.54"/>
</a>
</g>
</g>
<!-- Node14&#45;&gt;Node3 -->
<g id="edge28_Node000014_Node000003" class="edge">
<title>Node14&#45;&gt;Node3</title>
<g id="a_edge28_Node000014_Node000003"><a xlink:title=" ">
<path fill="none" stroke="#63b8ff" d="M428.71,-126.43C443.17,-109.85 477.5,-73.38 514.5,-55 570.49,-27.18 643.46,-16.69 686.13,-12.77"/>
<polygon fill="#63b8ff" stroke="#63b8ff" points="686.62,-16.24 696.29,-11.91 686.03,-9.27 686.62,-16.24"/>
</a>
</g>
</g>
<!-- Node14&#45;&gt;Node11 -->
<g id="edge30_Node000014_Node000011" class="edge">
<title>Node14&#45;&gt;Node11</title>
<g id="a_edge30_Node000014_Node000011"><a xlink:title=" ">
<path fill="none" stroke="#63b8ff" d="M442.67,-126.37C466.09,-116.82 504.46,-101.18 534.46,-88.95"/>
<polygon fill="#63b8ff" stroke="#63b8ff" points="535.93,-92.13 543.87,-85.12 533.29,-85.65 535.93,-92.13"/>
</a>
</g>
</g>
<!-- Node14&#45;&gt;Node12 -->
<g id="edge27_Node000014_Node000012" class="edge">
<title>Node14&#45;&gt;Node12</title>
<g id="a_edge27_Node000014_Node000012"><a xlink:title=" ">
<path fill="none" stroke="#63b8ff" d="M422.67,-126.44C425.39,-106.54 432.18,-56.76 435.93,-29.35"/>
<polygon fill="#63b8ff" stroke="#63b8ff" points="439.44,-29.5 437.32,-19.12 432.5,-28.55 439.44,-29.5"/>
</a>
</g>
</g>
<!-- Node14&#45;&gt;Node13 -->
<g id="edge29_Node000014_Node000013" class="edge">
<title>Node14&#45;&gt;Node13</title>
<g id="a_edge29_Node000014_Node000013"><a xlink:title=" ">
<path fill="none" stroke="#63b8ff" d="M407.61,-126.37C390.56,-115.78 361.43,-97.67 341.13,-85.06"/>
<polygon fill="#63b8ff" stroke="#63b8ff" points="342.84,-82 332.5,-79.7 339.15,-87.95 342.84,-82"/>
</a>
</g>
</g>
<!-- Node15&#45;&gt;Node12 -->
<g id="edge32_Node000015_Node000012" class="edge">
<title>Node15&#45;&gt;Node12</title>
<g id="a_edge32_Node000015_Node000012"><a xlink:title=" ">
<path fill="none" stroke="#63b8ff" d="M613,-126.48C585.2,-118.47 545.37,-104.73 514.5,-85 489.31,-68.9 465.6,-43.39 451.57,-26.8"/>
<polygon fill="#63b8ff" stroke="#63b8ff" points="454.22,-24.51 445.15,-19.03 448.82,-28.97 454.22,-24.51"/>
</a>
</g>
</g>
<!-- Node19&#45;&gt;Node2 -->
<g id="edge41_Node000019_Node000002" class="edge">
<title>Node19&#45;&gt;Node2</title>
<g id="a_edge41_Node000019_Node000002"><a xlink:title=" ">
<path fill="none" stroke="#63b8ff" d="M582.1,-241.88C535.52,-226.15 456.38,-201.08 386.5,-187 317,-173 120.82,-199.91 69.5,-151 54.75,-136.95 52.53,-113.2 53.38,-95.22"/>
<polygon fill="#63b8ff" stroke="#63b8ff" points="56.87,-95.42 54.19,-85.17 49.9,-94.85 56.87,-95.42"/>
</a>
</g>
</g>
<!-- Node19&#45;&gt;Node3 -->
<g id="edge42_Node000019_Node000003" class="edge">
<title>Node19&#45;&gt;Node3</title>
<g id="a_edge42_Node000019_Node000003"><a xlink:title=" ">
<path fill="none" stroke="#63b8ff" d="M656.98,-241.92C681.22,-231.98 714.4,-218.3 743.5,-206 763.12,-197.71 767.93,-195.42 787.5,-187 824.81,-170.95 849.14,-184.91 871.5,-151 894.99,-115.38 897.02,-89.19 871.5,-55 845.29,-19.89 792.55,-11.35 757.13,-9.85"/>
<polygon fill="#63b8ff" stroke="#63b8ff" points="756.82,-6.34 746.74,-9.58 756.64,-13.34 756.82,-6.34"/>
</a>
</g>
</g>
<!-- Node19&#45;&gt;Node8 -->
<g id="edge40_Node000019_Node000008" class="edge">
<title>Node19&#45;&gt;Node8</title>
<g id="a_edge40_Node000019_Node000008"><a xlink:title=" ">
<path fill="none" stroke="#63b8ff" d="M598.31,-241.99C582.21,-232.66 561.16,-220.47 545.17,-211.21"/>
<polygon fill="#63b8ff" stroke="#63b8ff" points="546.82,-208.12 536.42,-206.14 543.31,-214.18 546.82,-208.12"/>
</a>
</g>
</g>
<!-- Node19&#45;&gt;Node18 -->
<g id="edge43_Node000019_Node000018" class="edge">
<title>Node19&#45;&gt;Node18</title>
<g id="a_edge43_Node000019_Node000018"><a xlink:title=" ">
<path fill="none" stroke="#63b8ff" d="M683.72,-243.62C727.82,-234.49 788.96,-221.4 851.19,-206.22"/>
<polygon fill="#63b8ff" stroke="#63b8ff" points="852.31,-209.55 861.19,-203.77 850.64,-202.76 852.31,-209.55"/>
</a>
</g>
</g>
<!-- Node20 -->
<g id="Node000020" class="node">
<title>Node20</title>
<g id="a_Node000020"><a xlink:title=" ">
<polygon fill="#e0e0e0" stroke="#999999" points="843,-206 796,-206 796,-187 843,-187 843,-206"/>
<text text-anchor="middle" x="819.5" y="-194" font-family="Helvetica,sans-Serif" font-size="10.00">vector</text>
</a>
</g>
</g>
<!-- Node19&#45;&gt;Node20 -->
<g id="edge44_Node000019_Node000020" class="edge">
<title>Node19&#45;&gt;Node20</title>
<g id="a_edge44_Node000019_Node000020"><a xlink:title=" ">
<path fill="none" stroke="#63b8ff" d="M669.69,-241.99C705.64,-231.31 754.24,-216.88 786.2,-207.39"/>
<polygon fill="#63b8ff" stroke="#63b8ff" points="787.37,-210.69 795.96,-204.49 785.38,-203.98 787.37,-210.69"/>
</a>
</g>
</g>
<!-- Node21&#45;&gt;Node3 -->
<g id="edge47_Node000021_Node000003" class="edge">
<title>Node21&#45;&gt;Node3</title>
<g id="a_edge47_Node000021_Node000003"><a xlink:title=" ">
<path fill="none" stroke="#63b8ff" d="M887.52,-241.89C897.54,-232.85 909.06,-220.17 914.5,-206 931.64,-161.34 982.49,-153.42 892.5,-55 874.44,-35.25 801.54,-21.75 756.96,-15.15"/>
<polygon fill="#63b8ff" stroke="#63b8ff" points="757.22,-11.65 746.83,-13.7 756.23,-18.58 757.22,-11.65"/>
</a>
</g>
</g>
<!-- Node21&#45;&gt;Node8 -->
<g id="edge46_Node000021_Node000008" class="edge">
<title>Node21&#45;&gt;Node8</title>
<g id="a_edge46_Node000021_Node000008"><a xlink:title=" ">
<path fill="none" stroke="#63b8ff" d="M806.48,-245.41C736.86,-233.7 626.56,-215.16 565.62,-204.92"/>
<polygon fill="#63b8ff" stroke="#63b8ff" points="565.99,-201.43 555.55,-203.22 564.83,-208.33 565.99,-201.43"/>
</a>
</g>
</g>
<!-- Node21&#45;&gt;Node18 -->
<g id="edge48_Node000021_Node000018" class="edge">
<title>Node21&#45;&gt;Node18</title>
<g id="a_edge48_Node000021_Node000018"><a xlink:title=" ">
<path fill="none" stroke="#63b8ff" d="M872.89,-241.84C874.73,-234.13 877.04,-224.49 879.03,-216.17"/>
<polygon fill="#63b8ff" stroke="#63b8ff" points="882.48,-216.81 881.4,-206.27 875.67,-215.18 882.48,-216.81"/>
</a>
</g>
</g>
</g>
</svg>
