<?xml version="1.0" encoding="UTF-8" standalone="no"?>
<!DOCTYPE svg PUBLIC "-//W3C//DTD SVG 1.1//EN"
 "http://www.w3.org/Graphics/SVG/1.1/DTD/svg11.dtd">
<!-- Generated by graphviz version 2.43.0 (0)
 -->
<!-- Title: IEEE::_1588::_2019::ProfileConfiguration::validate Pages: 1 -->
<svg width="271pt" height="86pt"
 viewBox="0.00 0.00 271.00 86.00" xmlns="http://www.w3.org/2000/svg" xmlns:xlink="http://www.w3.org/1999/xlink">
<g id="graph0" class="graph" transform="scale(1 1) rotate(0) translate(4 82)">
<title>IEEE::_1588::_2019::ProfileConfiguration::validate</title>
<!-- Node1 -->
<g id="Node000001" class="node">
<title>Node1</title>
<g id="a_Node000001"><a xlink:title="Validate profile configuration parameters.">
<polygon fill="#999999" stroke="#666666" points="119,-59.5 0,-59.5 0,-18.5 119,-18.5 119,-59.5"/>
<text text-anchor="start" x="8" y="-47.5" font-family="Helvetica,sans-Serif" font-size="10.00">IEEE::_1588::_2019</text>
<text text-anchor="start" x="8" y="-36.5" font-family="Helvetica,sans-Serif" font-size="10.00">::ProfileConfiguration</text>
<text text-anchor="middle" x="59.5" y="-25.5" font-family="Helvetica,sans-Serif" font-size="10.00">::validate</text>
</a>
</g>
</g>
<!-- Node2 -->
<g id="Node000002" class="node">
<title>Node2</title>
<g id="a_Node000002"><a xlink:href="../../d1/d41/structIEEE_1_1__1588_1_1__2019_1_1ProfileResult.html#a63594a46a8596245d5fd3354f94ca684" target="_top" xlink:title=" ">
<polygon fill="white" stroke="#666666" points="263,-78 155,-78 155,-48 263,-48 263,-78"/>
<text text-anchor="start" x="163" y="-66" font-family="Helvetica,sans-Serif" font-size="10.00">IEEE::_1588::_2019</text>
<text text-anchor="middle" x="209" y="-55" font-family="Helvetica,sans-Serif" font-size="10.00">::ProfileResult::fail</text>
</a>
</g>
</g>
<!-- Node1&#45;&gt;Node2 -->
<g id="edge1_Node000001_Node000002" class="edge">
<title>Node1&#45;&gt;Node2</title>
<g id="a_edge1_Node000001_Node000002"><a xlink:title=" ">
<path fill="none" stroke="#63b8ff" d="M119.22,-48.55C127.65,-49.93 136.35,-51.34 144.87,-52.73"/>
<polygon fill="#63b8ff" stroke="#63b8ff" points="144.31,-56.18 154.74,-54.33 145.43,-49.27 144.31,-56.18"/>
</a>
</g>
</g>
<!-- Node3 -->
<g id="Node000003" class="node">
<title>Node3</title>
<g id="a_Node000003"><a xlink:href="../../d1/d41/structIEEE_1_1__1588_1_1__2019_1_1ProfileResult.html#a2aa399e876ed5e605a01c29bafafa743" target="_top" xlink:title=" ">
<polygon fill="white" stroke="#666666" points="263,-30 155,-30 155,0 263,0 263,-30"/>
<text text-anchor="start" x="163" y="-18" font-family="Helvetica,sans-Serif" font-size="10.00">IEEE::_1588::_2019</text>
<text text-anchor="middle" x="209" y="-7" font-family="Helvetica,sans-Serif" font-size="10.00">::ProfileResult::ok</text>
</a>
</g>
</g>
<!-- Node1&#45;&gt;Node3 -->
<g id="edge2_Node000001_Node000003" class="edge">
<title>Node1&#45;&gt;Node3</title>
<g id="a_edge2_Node000001_Node000003"><a xlink:title=" ">
<path fill="none" stroke="#63b8ff" d="M119.22,-29.45C127.65,-28.07 136.35,-26.66 144.87,-25.27"/>
<polygon fill="#63b8ff" stroke="#63b8ff" points="145.43,-28.73 154.74,-23.67 144.31,-21.82 145.43,-28.73"/>
</a>
</g>
</g>
</g>
</svg>
