<?xml version="1.0" encoding="UTF-8" standalone="no"?>
<!DOCTYPE svg PUBLIC "-//W3C//DTD SVG 1.1//EN"
 "http://www.w3.org/Graphics/SVG/1.1/DTD/svg11.dtd">
<!-- Generated by graphviz version 2.43.0 (0)
 -->
<!-- Title: IEEE::_1588::PTP::_2019::ManagementMessageBody::validate Pages: 1 -->
<svg width="414pt" height="167pt"
 viewBox="0.00 0.00 414.00 167.00" xmlns="http://www.w3.org/2000/svg" xmlns:xlink="http://www.w3.org/1999/xlink">
<g id="graph0" class="graph" transform="scale(1 1) rotate(0) translate(4 163)">
<title>IEEE::_1588::PTP::_2019::ManagementMessageBody::validate</title>
<!-- Node1 -->
<g id="Node000001" class="node">
<title>Node1</title>
<g id="a_Node000001"><a xlink:title="Validate management message body.">
<polygon fill="#999999" stroke="#666666" points="185,-100 0,-100 0,-59 185,-59 185,-100"/>
<text text-anchor="start" x="8" y="-88" font-family="Helvetica,sans-Serif" font-size="10.00">IEEE::_1588::PTP::</text>
<text text-anchor="start" x="8" y="-77" font-family="Helvetica,sans-Serif" font-size="10.00">_2019::ManagementMessageBody</text>
<text text-anchor="middle" x="92.5" y="-66" font-family="Helvetica,sans-Serif" font-size="10.00">::validate</text>
</a>
</g>
</g>
<!-- Node2 -->
<g id="Node000002" class="node">
<title>Node2</title>
<g id="a_Node000002"><a xlink:href="../../df/d1f/classIEEE_1_1__1588_1_1PTP_1_1__2019_1_1Types_1_1PTPResult.html#ab098752bb1a00689c62a2f0f0a258f21" target="_top" xlink:title="Create error result (static method)">
<polygon fill="white" stroke="#666666" points="380.5,-159 246.5,-159 246.5,-118 380.5,-118 380.5,-159"/>
<text text-anchor="start" x="254.5" y="-147" font-family="Helvetica,sans-Serif" font-size="10.00">IEEE::_1588::PTP::</text>
<text text-anchor="start" x="254.5" y="-136" font-family="Helvetica,sans-Serif" font-size="10.00">_2019::Types::PTPResult</text>
<text text-anchor="middle" x="313.5" y="-125" font-family="Helvetica,sans-Serif" font-size="10.00">::failure</text>
</a>
</g>
</g>
<!-- Node1&#45;&gt;Node2 -->
<g id="edge1_Node000001_Node000002" class="edge">
<title>Node1&#45;&gt;Node2</title>
<g id="a_edge1_Node000001_Node000002"><a xlink:title=" ">
<path fill="none" stroke="#63b8ff" d="M169.79,-100.05C191.41,-105.88 214.94,-112.22 236.55,-118.04"/>
<polygon fill="#63b8ff" stroke="#63b8ff" points="235.76,-121.45 246.33,-120.67 237.58,-114.69 235.76,-121.45"/>
</a>
</g>
</g>
<!-- Node3 -->
<g id="Node000003" class="node">
<title>Node3</title>
<g id="a_Node000003"><a xlink:href="../../d2/db7/structIEEE_1_1__1588_1_1PTP_1_1__2019_1_1ManagementMessageBody.html#a36939f173ecc91188a3879fa26f5df0e" target="_top" xlink:title="Get action field value from reserved_actionField byte.">
<polygon fill="white" stroke="#666666" points="406,-100 221,-100 221,-59 406,-59 406,-100"/>
<text text-anchor="start" x="229" y="-88" font-family="Helvetica,sans-Serif" font-size="10.00">IEEE::_1588::PTP::</text>
<text text-anchor="start" x="229" y="-77" font-family="Helvetica,sans-Serif" font-size="10.00">_2019::ManagementMessageBody</text>
<text text-anchor="middle" x="313.5" y="-66" font-family="Helvetica,sans-Serif" font-size="10.00">::getActionField</text>
</a>
</g>
</g>
<!-- Node1&#45;&gt;Node3 -->
<g id="edge2_Node000001_Node000003" class="edge">
<title>Node1&#45;&gt;Node3</title>
<g id="a_edge2_Node000001_Node000003"><a xlink:title=" ">
<path fill="none" stroke="#63b8ff" d="M185.11,-79.5C193.62,-79.5 202.27,-79.5 210.86,-79.5"/>
<polygon fill="#63b8ff" stroke="#63b8ff" points="210.91,-83 220.91,-79.5 210.91,-76 210.91,-83"/>
</a>
</g>
</g>
<!-- Node4 -->
<g id="Node000004" class="node">
<title>Node4</title>
<g id="a_Node000004"><a xlink:href="../../df/d1f/classIEEE_1_1__1588_1_1PTP_1_1__2019_1_1Types_1_1PTPResult.html#a873027aad818e35452ddab7583b7a7e5" target="_top" xlink:title="Create successful result (static method)">
<polygon fill="white" stroke="#666666" points="380.5,-41 246.5,-41 246.5,0 380.5,0 380.5,-41"/>
<text text-anchor="start" x="254.5" y="-29" font-family="Helvetica,sans-Serif" font-size="10.00">IEEE::_1588::PTP::</text>
<text text-anchor="start" x="254.5" y="-18" font-family="Helvetica,sans-Serif" font-size="10.00">_2019::Types::PTPResult</text>
<text text-anchor="middle" x="313.5" y="-7" font-family="Helvetica,sans-Serif" font-size="10.00">::success</text>
</a>
</g>
</g>
<!-- Node1&#45;&gt;Node4 -->
<g id="edge3_Node000001_Node000004" class="edge">
<title>Node1&#45;&gt;Node4</title>
<g id="a_edge3_Node000001_Node000004"><a xlink:title=" ">
<path fill="none" stroke="#63b8ff" d="M169.79,-58.95C191.41,-53.12 214.94,-46.78 236.55,-40.96"/>
<polygon fill="#63b8ff" stroke="#63b8ff" points="237.58,-44.31 246.33,-38.33 235.76,-37.55 237.58,-44.31"/>
</a>
</g>
</g>
</g>
</svg>
