<?xml version="1.0" encoding="UTF-8" standalone="no"?>
<!DOCTYPE svg PUBLIC "-//W3C//DTD SVG 1.1//EN"
 "http://www.w3.org/Graphics/SVG/1.1/DTD/svg11.dtd">
<!-- Generated by graphviz version 2.43.0 (0)
 -->
<!-- Title: IEEE::_1588::PTP::_2019::Clocks::BoundaryClock::process_message Pages: 1 -->
<svg width="883pt" height="458pt"
 viewBox="0.00 0.00 883.00 457.50" xmlns="http://www.w3.org/2000/svg" xmlns:xlink="http://www.w3.org/1999/xlink">
<g id="graph0" class="graph" transform="scale(1 1) rotate(0) translate(4 453.5)">
<title>IEEE::_1588::PTP::_2019::Clocks::BoundaryClock::process_message</title>
<!-- Node1 -->
<g id="Node000001" class="node">
<title>Node1</title>
<g id="a_Node000001"><a xlink:title="Process received PTP message on specific port.">
<polygon fill="#999999" stroke="#666666" points="164,-282.5 0,-282.5 0,-241.5 164,-241.5 164,-282.5"/>
<text text-anchor="start" x="8" y="-270.5" font-family="Helvetica,sans-Serif" font-size="10.00">IEEE::_1588::PTP::</text>
<text text-anchor="start" x="8" y="-259.5" font-family="Helvetica,sans-Serif" font-size="10.00">_2019::Clocks::BoundaryClock</text>
<text text-anchor="middle" x="82" y="-248.5" font-family="Helvetica,sans-Serif" font-size="10.00">::process_message</text>
</a>
</g>
</g>
<!-- Node2 -->
<g id="Node000002" class="node">
<title>Node2</title>
<g id="a_Node000002"><a xlink:href="../../df/d1f/classIEEE_1_1__1588_1_1PTP_1_1__2019_1_1Types_1_1PTPResult.html#ab098752bb1a00689c62a2f0f0a258f21" target="_top" xlink:title="Create error result (static method)">
<polygon fill="white" stroke="#666666" points="334,-449.5 200,-449.5 200,-408.5 334,-408.5 334,-449.5"/>
<text text-anchor="start" x="208" y="-437.5" font-family="Helvetica,sans-Serif" font-size="10.00">IEEE::_1588::PTP::</text>
<text text-anchor="start" x="208" y="-426.5" font-family="Helvetica,sans-Serif" font-size="10.00">_2019::Types::PTPResult</text>
<text text-anchor="middle" x="267" y="-415.5" font-family="Helvetica,sans-Serif" font-size="10.00">::failure</text>
</a>
</g>
</g>
<!-- Node1&#45;&gt;Node2 -->
<g id="edge1_Node000001_Node000002" class="edge">
<title>Node1&#45;&gt;Node2</title>
<g id="a_edge1_Node000001_Node000002"><a xlink:title=" ">
<path fill="none" stroke="#63b8ff" d="M96.15,-282.82C115.68,-312.31 154.93,-366.39 200,-400 201.41,-401.05 202.87,-402.08 204.37,-403.08"/>
<polygon fill="#63b8ff" stroke="#63b8ff" points="202.88,-406.27 213.24,-408.48 206.52,-400.29 202.88,-406.27"/>
</a>
</g>
</g>
<!-- Node3 -->
<g id="Node000003" class="node">
<title>Node3</title>
<g id="a_Node000003"><a xlink:href="../../dd/d5b/classIEEE_1_1__1588_1_1PTP_1_1__2019_1_1Clocks_1_1PtpPort.html#ab83582f84eb72c45afa389da04eafafd" target="_top" xlink:title="Process received Announce message.">
<polygon fill="white" stroke="#666666" points="329.5,-390.5 204.5,-390.5 204.5,-349.5 329.5,-349.5 329.5,-390.5"/>
<text text-anchor="start" x="212.5" y="-378.5" font-family="Helvetica,sans-Serif" font-size="10.00">IEEE::_1588::PTP::</text>
<text text-anchor="start" x="212.5" y="-367.5" font-family="Helvetica,sans-Serif" font-size="10.00">_2019::Clocks::PtpPort</text>
<text text-anchor="middle" x="267" y="-356.5" font-family="Helvetica,sans-Serif" font-size="10.00">::process_announce</text>
</a>
</g>
</g>
<!-- Node1&#45;&gt;Node3 -->
<g id="edge2_Node000001_Node000003" class="edge">
<title>Node1&#45;&gt;Node3</title>
<g id="a_edge2_Node000001_Node000003"><a xlink:title=" ">
<path fill="none" stroke="#63b8ff" d="M110.47,-282.62C133.63,-299.5 168.02,-323.37 200,-341 202.38,-342.31 204.84,-343.61 207.34,-344.89"/>
<polygon fill="#63b8ff" stroke="#63b8ff" points="205.99,-348.13 216.51,-349.42 209.09,-341.86 205.99,-348.13"/>
</a>
</g>
</g>
<!-- Node6 -->
<g id="Node000006" class="node">
<title>Node6</title>
<g id="a_Node000006"><a xlink:href="../../dd/d5b/classIEEE_1_1__1588_1_1PTP_1_1__2019_1_1Clocks_1_1PtpPort.html#a31e8d5698f3088d9f9cbda5dc8a859f6" target="_top" xlink:title="Process received Delay_Req message.">
<polygon fill="white" stroke="#666666" points="329.5,-331.5 204.5,-331.5 204.5,-290.5 329.5,-290.5 329.5,-331.5"/>
<text text-anchor="start" x="212.5" y="-319.5" font-family="Helvetica,sans-Serif" font-size="10.00">IEEE::_1588::PTP::</text>
<text text-anchor="start" x="212.5" y="-308.5" font-family="Helvetica,sans-Serif" font-size="10.00">_2019::Clocks::PtpPort</text>
<text text-anchor="middle" x="267" y="-297.5" font-family="Helvetica,sans-Serif" font-size="10.00">::process_delay_req</text>
</a>
</g>
</g>
<!-- Node1&#45;&gt;Node6 -->
<g id="edge5_Node000001_Node000006" class="edge">
<title>Node1&#45;&gt;Node6</title>
<g id="a_edge5_Node000001_Node000006"><a xlink:title=" ">
<path fill="none" stroke="#63b8ff" d="M159.81,-282.57C171.31,-285.65 183.13,-288.81 194.51,-291.86"/>
<polygon fill="#63b8ff" stroke="#63b8ff" points="193.82,-295.3 204.38,-294.5 195.63,-288.53 193.82,-295.3"/>
</a>
</g>
</g>
<!-- Node8 -->
<g id="Node000008" class="node">
<title>Node8</title>
<g id="a_Node000008"><a xlink:href="../../df/d1f/classIEEE_1_1__1588_1_1PTP_1_1__2019_1_1Types_1_1PTPResult.html#a873027aad818e35452ddab7583b7a7e5" target="_top" xlink:title="Create successful result (static method)">
<polygon fill="white" stroke="#666666" points="513,-233.5 379,-233.5 379,-192.5 513,-192.5 513,-233.5"/>
<text text-anchor="start" x="387" y="-221.5" font-family="Helvetica,sans-Serif" font-size="10.00">IEEE::_1588::PTP::</text>
<text text-anchor="start" x="387" y="-210.5" font-family="Helvetica,sans-Serif" font-size="10.00">_2019::Types::PTPResult</text>
<text text-anchor="middle" x="446" y="-199.5" font-family="Helvetica,sans-Serif" font-size="10.00">::success</text>
</a>
</g>
</g>
<!-- Node1&#45;&gt;Node8 -->
<g id="edge24_Node000001_Node000008" class="edge">
<title>Node1&#45;&gt;Node8</title>
<g id="a_edge24_Node000001_Node000008"><a xlink:title=" ">
<path fill="none" stroke="#63b8ff" d="M164.01,-259.74C213.42,-257.4 277.68,-252.65 334,-243 345.45,-241.04 357.43,-238.42 369.11,-235.54"/>
<polygon fill="#63b8ff" stroke="#63b8ff" points="370,-238.92 378.83,-233.07 368.28,-232.14 370,-238.92"/>
</a>
</g>
</g>
<!-- Node9 -->
<g id="Node000009" class="node">
<title>Node9</title>
<g id="a_Node000009"><a xlink:href="../../dd/d5b/classIEEE_1_1__1588_1_1PTP_1_1__2019_1_1Clocks_1_1PtpPort.html#a064d36dd0269a3997979bed8ec622f4b" target="_top" xlink:title="Process received Delay_Resp message.">
<polygon fill="white" stroke="#666666" points="329.5,-174.5 204.5,-174.5 204.5,-133.5 329.5,-133.5 329.5,-174.5"/>
<text text-anchor="start" x="212.5" y="-162.5" font-family="Helvetica,sans-Serif" font-size="10.00">IEEE::_1588::PTP::</text>
<text text-anchor="start" x="212.5" y="-151.5" font-family="Helvetica,sans-Serif" font-size="10.00">_2019::Clocks::PtpPort</text>
<text text-anchor="middle" x="267" y="-140.5" font-family="Helvetica,sans-Serif" font-size="10.00">::process_delay_resp</text>
</a>
</g>
</g>
<!-- Node1&#45;&gt;Node9 -->
<g id="edge8_Node000001_Node000009" class="edge">
<title>Node1&#45;&gt;Node9</title>
<g id="a_edge8_Node000001_Node000009"><a xlink:title=" ">
<path fill="none" stroke="#63b8ff" d="M111.04,-241.44C134.25,-224.88 168.42,-201.55 200,-184 203.01,-182.33 206.12,-180.67 209.29,-179.05"/>
<polygon fill="#63b8ff" stroke="#63b8ff" points="210.92,-182.15 218.31,-174.56 207.8,-175.88 210.92,-182.15"/>
</a>
</g>
</g>
<!-- Node11 -->
<g id="Node000011" class="node">
<title>Node11</title>
<g id="a_Node000011"><a xlink:href="../../dd/d5b/classIEEE_1_1__1588_1_1PTP_1_1__2019_1_1Clocks_1_1PtpPort.html#a4ab8635c746ecdc8190cb48fe0762e9f" target="_top" xlink:title="Process received Follow_Up message.">
<polygon fill="white" stroke="#666666" points="329.5,-115.5 204.5,-115.5 204.5,-74.5 329.5,-74.5 329.5,-115.5"/>
<text text-anchor="start" x="212.5" y="-103.5" font-family="Helvetica,sans-Serif" font-size="10.00">IEEE::_1588::PTP::</text>
<text text-anchor="start" x="212.5" y="-92.5" font-family="Helvetica,sans-Serif" font-size="10.00">_2019::Clocks::PtpPort</text>
<text text-anchor="middle" x="267" y="-81.5" font-family="Helvetica,sans-Serif" font-size="10.00">::process_follow_up</text>
</a>
</g>
</g>
<!-- Node1&#45;&gt;Node11 -->
<g id="edge11_Node000001_Node000011" class="edge">
<title>Node1&#45;&gt;Node11</title>
<g id="a_edge11_Node000001_Node000011"><a xlink:title=" ">
<path fill="none" stroke="#63b8ff" d="M96.15,-241.18C115.68,-211.69 154.93,-157.61 200,-124 201.41,-122.95 202.87,-121.92 204.37,-120.92"/>
<polygon fill="#63b8ff" stroke="#63b8ff" points="206.52,-123.71 213.24,-115.52 202.88,-117.73 206.52,-123.71"/>
</a>
</g>
</g>
<!-- Node18 -->
<g id="Node000018" class="node">
<title>Node18</title>
<g id="a_Node000018"><a xlink:href="../../dd/d5b/classIEEE_1_1__1588_1_1PTP_1_1__2019_1_1Clocks_1_1PtpPort.html#a0ae666364c0280a0abbc9f369f708aa4" target="_top" xlink:title="Process received Sync message.">
<polygon fill="white" stroke="#666666" points="329.5,-233.5 204.5,-233.5 204.5,-192.5 329.5,-192.5 329.5,-233.5"/>
<text text-anchor="start" x="212.5" y="-221.5" font-family="Helvetica,sans-Serif" font-size="10.00">IEEE::_1588::PTP::</text>
<text text-anchor="start" x="212.5" y="-210.5" font-family="Helvetica,sans-Serif" font-size="10.00">_2019::Clocks::PtpPort</text>
<text text-anchor="middle" x="267" y="-199.5" font-family="Helvetica,sans-Serif" font-size="10.00">::process_sync</text>
</a>
</g>
</g>
<!-- Node1&#45;&gt;Node18 -->
<g id="edge21_Node000001_Node000018" class="edge">
<title>Node1&#45;&gt;Node18</title>
<g id="a_edge21_Node000001_Node000018"><a xlink:title=" ">
<path fill="none" stroke="#63b8ff" d="M159.81,-241.43C171.31,-238.35 183.13,-235.19 194.51,-232.14"/>
<polygon fill="#63b8ff" stroke="#63b8ff" points="195.63,-235.47 204.38,-229.5 193.82,-228.7 195.63,-235.47"/>
</a>
</g>
</g>
<!-- Node4 -->
<g id="Node000004" class="node">
<title>Node4</title>
<g id="a_Node000004"><a xlink:href="../../dd/d39/namespacedetail.html#a162d12447333d9129db6326825711788" target="_top" xlink:title=" ">
<polygon fill="white" stroke="#666666" points="504,-379.5 388,-379.5 388,-360.5 504,-360.5 504,-379.5"/>
<text text-anchor="middle" x="446" y="-367.5" font-family="Helvetica,sans-Serif" font-size="10.00">detail::be16_to_host</text>
</a>
</g>
</g>
<!-- Node3&#45;&gt;Node4 -->
<g id="edge3_Node000003_Node000004" class="edge">
<title>Node3&#45;&gt;Node4</title>
<g id="a_edge3_Node000003_Node000004"><a xlink:title=" ">
<path fill="none" stroke="#63b8ff" d="M329.91,-370C345.36,-370 362.01,-370 377.71,-370"/>
<polygon fill="#63b8ff" stroke="#63b8ff" points="377.87,-373.5 387.87,-370 377.87,-366.5 377.87,-373.5"/>
</a>
</g>
</g>
<!-- Node5 -->
<g id="Node000005" class="node">
<title>Node5</title>
<g id="a_Node000005"><a xlink:href="../../dd/d39/namespacedetail.html#af252a1f9a94bf9b62e57b592d3268f51" target="_top" xlink:title=" ">
<polygon fill="white" stroke="#666666" points="680.5,-379.5 586.5,-379.5 586.5,-360.5 680.5,-360.5 680.5,-379.5"/>
<text text-anchor="middle" x="633.5" y="-367.5" font-family="Helvetica,sans-Serif" font-size="10.00">detail::bswap16</text>
</a>
</g>
</g>
<!-- Node4&#45;&gt;Node5 -->
<g id="edge4_Node000004_Node000005" class="edge">
<title>Node4&#45;&gt;Node5</title>
<g id="a_edge4_Node000004_Node000005"><a xlink:title=" ">
<path fill="none" stroke="#63b8ff" d="M504.17,-370C527.06,-370 553.37,-370 576.18,-370"/>
<polygon fill="#63b8ff" stroke="#63b8ff" points="576.39,-373.5 586.39,-370 576.39,-366.5 576.39,-373.5"/>
</a>
</g>
</g>
<!-- Node7 -->
<g id="Node000007" class="node">
<title>Node7</title>
<g id="a_Node000007"><a xlink:href="../../d5/dab/structIEEE_1_1__1588_1_1PTP_1_1__2019_1_1CommonHeader.html#a5ff024fa34cac7be52ef4263e4976a31" target="_top" xlink:title="Set message type with deterministic execution.">
<polygon fill="white" stroke="#666666" points="511.5,-331.5 380.5,-331.5 380.5,-290.5 511.5,-290.5 511.5,-331.5"/>
<text text-anchor="start" x="388.5" y="-319.5" font-family="Helvetica,sans-Serif" font-size="10.00">IEEE::_1588::PTP::</text>
<text text-anchor="start" x="388.5" y="-308.5" font-family="Helvetica,sans-Serif" font-size="10.00">_2019::CommonHeader</text>
<text text-anchor="middle" x="446" y="-297.5" font-family="Helvetica,sans-Serif" font-size="10.00">::setMessageType</text>
</a>
</g>
</g>
<!-- Node6&#45;&gt;Node7 -->
<g id="edge6_Node000006_Node000007" class="edge">
<title>Node6&#45;&gt;Node7</title>
<g id="a_edge6_Node000006_Node000007"><a xlink:title=" ">
<path fill="none" stroke="#63b8ff" d="M329.91,-311C342.93,-311 356.81,-311 370.25,-311"/>
<polygon fill="#63b8ff" stroke="#63b8ff" points="370.43,-314.5 380.43,-311 370.43,-307.5 370.43,-314.5"/>
</a>
</g>
</g>
<!-- Node6&#45;&gt;Node8 -->
<g id="edge7_Node000006_Node000008" class="edge">
<title>Node6&#45;&gt;Node8</title>
<g id="a_edge7_Node000006_Node000008"><a xlink:title=" ">
<path fill="none" stroke="#63b8ff" d="M307.19,-290.46C316.03,-285.75 325.36,-280.74 334,-276 356,-263.93 380.25,-250.21 400.47,-238.66"/>
<polygon fill="#63b8ff" stroke="#63b8ff" points="402.21,-241.69 409.15,-233.69 398.74,-235.62 402.21,-241.69"/>
</a>
</g>
</g>
<!-- Node9&#45;&gt;Node8 -->
<g id="edge10_Node000009_Node000008" class="edge">
<title>Node9&#45;&gt;Node8</title>
<g id="a_edge10_Node000009_Node000008"><a xlink:title=" ">
<path fill="none" stroke="#63b8ff" d="M329.91,-174.64C344,-179.33 359.09,-184.36 373.54,-189.18"/>
<polygon fill="#63b8ff" stroke="#63b8ff" points="372.83,-192.63 383.43,-192.48 375.05,-185.99 372.83,-192.63"/>
</a>
</g>
</g>
<!-- Node10 -->
<g id="Node000010" class="node">
<title>Node10</title>
<g id="a_Node000010"><a xlink:href="../../d6/df7/structIEEE_1_1__1588_1_1PTP_1_1__2019_1_1Types_1_1TimeInterval.html#a35d30c0bb2f6fbed6e21640c0813d272" target="_top" xlink:title="Create from nanoseconds.">
<polygon fill="white" stroke="#666666" points="520,-174.5 372,-174.5 372,-133.5 520,-133.5 520,-174.5"/>
<text text-anchor="start" x="380" y="-162.5" font-family="Helvetica,sans-Serif" font-size="10.00">IEEE::_1588::PTP::</text>
<text text-anchor="start" x="380" y="-151.5" font-family="Helvetica,sans-Serif" font-size="10.00">_2019::Types::TimeInterval</text>
<text text-anchor="middle" x="446" y="-140.5" font-family="Helvetica,sans-Serif" font-size="10.00">::fromNanoseconds</text>
</a>
</g>
</g>
<!-- Node9&#45;&gt;Node10 -->
<g id="edge9_Node000009_Node000010" class="edge">
<title>Node9&#45;&gt;Node10</title>
<g id="a_edge9_Node000009_Node000010"><a xlink:title=" ">
<path fill="none" stroke="#63b8ff" d="M329.91,-154C340.18,-154 350.98,-154 361.68,-154"/>
<polygon fill="#63b8ff" stroke="#63b8ff" points="361.89,-157.5 371.89,-154 361.89,-150.5 361.89,-157.5"/>
</a>
</g>
</g>
<!-- Node11&#45;&gt;Node8 -->
<g id="edge20_Node000011_Node000008" class="edge">
<title>Node11&#45;&gt;Node8</title>
<g id="a_edge20_Node000011_Node000008"><a xlink:title=" ">
<path fill="none" stroke="#63b8ff" d="M322.63,-115.64C326.68,-118.16 330.53,-120.94 334,-124 357.34,-144.56 346.21,-163.97 370,-184 371.02,-184.86 372.07,-185.7 373.15,-186.51"/>
<polygon fill="#63b8ff" stroke="#63b8ff" points="371.55,-189.65 381.81,-192.29 375.44,-183.83 371.55,-189.65"/>
</a>
</g>
</g>
<!-- Node11&#45;&gt;Node10 -->
<g id="edge15_Node000011_Node000010" class="edge">
<title>Node11&#45;&gt;Node10</title>
<g id="a_edge15_Node000011_Node000010"><a xlink:title=" ">
<path fill="none" stroke="#63b8ff" d="M329.91,-115.64C344,-120.33 359.09,-125.36 373.54,-130.18"/>
<polygon fill="#63b8ff" stroke="#63b8ff" points="372.83,-133.63 383.43,-133.48 375.05,-126.99 372.83,-133.63"/>
</a>
</g>
</g>
<!-- Node12 -->
<g id="Node000012" class="node">
<title>Node12</title>
<g id="a_Node000012"><a xlink:href="../../d2/d59/namespaceCommon_1_1utils_1_1logging.html#abd4d1491b89d46b3c1a23c3215e05aa9" target="_top" xlink:title=" ">
<polygon fill="white" stroke="#666666" points="511,-78 381,-78 381,-48 511,-48 511,-78"/>
<text text-anchor="start" x="389" y="-66" font-family="Helvetica,sans-Serif" font-size="10.00">Common::utils::logging</text>
<text text-anchor="middle" x="446" y="-55" font-family="Helvetica,sans-Serif" font-size="10.00">::debug</text>
</a>
</g>
</g>
<!-- Node11&#45;&gt;Node12 -->
<g id="edge12_Node000011_Node000012" class="edge">
<title>Node11&#45;&gt;Node12</title>
<g id="a_edge12_Node000011_Node000012"><a xlink:title=" ">
<path fill="none" stroke="#63b8ff" d="M329.91,-83.81C343.01,-81.44 356.98,-78.91 370.5,-76.47"/>
<polygon fill="#63b8ff" stroke="#63b8ff" points="371.51,-79.84 380.73,-74.62 370.26,-72.95 371.51,-79.84"/>
</a>
</g>
</g>
<!-- Node15 -->
<g id="Node000015" class="node">
<title>Node15</title>
<g id="a_Node000015"><a xlink:href="../../da/d3c/namespaceCommon_1_1utils_1_1metrics.html#ad00d54590ea6b9d55d3f7ac3b56fe83c" target="_top" xlink:title=" ">
<polygon fill="white" stroke="#666666" points="522,-115.5 370,-115.5 370,-96.5 522,-96.5 522,-115.5"/>
<text text-anchor="middle" x="446" y="-103.5" font-family="Helvetica,sans-Serif" font-size="10.00">Common::utils::metrics::get</text>
</a>
</g>
</g>
<!-- Node11&#45;&gt;Node15 -->
<g id="edge16_Node000011_Node000015" class="edge">
<title>Node11&#45;&gt;Node15</title>
<g id="a_edge16_Node000011_Node000015"><a xlink:title=" ">
<path fill="none" stroke="#63b8ff" d="M329.91,-98.85C339.55,-99.45 349.66,-100.07 359.72,-100.7"/>
<polygon fill="#63b8ff" stroke="#63b8ff" points="359.53,-104.2 369.73,-101.32 359.97,-97.21 359.53,-104.2"/>
</a>
</g>
</g>
<!-- Node17 -->
<g id="Node000017" class="node">
<title>Node17</title>
<g id="a_Node000017"><a xlink:href="../../d2/d59/namespaceCommon_1_1utils_1_1logging.html#a227085469bb6814ec47bc7bad3cb5ae6" target="_top" xlink:title=" ">
<polygon fill="white" stroke="#666666" points="511,-30 381,-30 381,0 511,0 511,-30"/>
<text text-anchor="start" x="389" y="-18" font-family="Helvetica,sans-Serif" font-size="10.00">Common::utils::logging</text>
<text text-anchor="middle" x="446" y="-7" font-family="Helvetica,sans-Serif" font-size="10.00">::info</text>
</a>
</g>
</g>
<!-- Node11&#45;&gt;Node17 -->
<g id="edge18_Node000011_Node000017" class="edge">
<title>Node11&#45;&gt;Node17</title>
<g id="a_edge18_Node000011_Node000017"><a xlink:title=" ">
<path fill="none" stroke="#63b8ff" d="M301.64,-74.39C321.14,-62.99 346.43,-49.13 370,-39 374.4,-37.11 379,-35.29 383.66,-33.55"/>
<polygon fill="#63b8ff" stroke="#63b8ff" points="385.05,-36.77 393.28,-30.11 382.69,-30.18 385.05,-36.77"/>
</a>
</g>
</g>
<!-- Node13 -->
<g id="Node000013" class="node">
<title>Node13</title>
<g id="a_Node000013"><a xlink:href="../../d2/d59/namespaceCommon_1_1utils_1_1logging.html#ad30a8c57a6af65c91d9085ce0a592463" target="_top" xlink:title=" ">
<polygon fill="white" stroke="#666666" points="709,-48.5 558,-48.5 558,-29.5 709,-29.5 709,-48.5"/>
<text text-anchor="middle" x="633.5" y="-36.5" font-family="Helvetica,sans-Serif" font-size="10.00">Common::utils::logging::log</text>
</a>
</g>
</g>
<!-- Node12&#45;&gt;Node13 -->
<g id="edge13_Node000012_Node000013" class="edge">
<title>Node12&#45;&gt;Node13</title>
<g id="a_edge13_Node000012_Node000013"><a xlink:title=" ">
<path fill="none" stroke="#63b8ff" d="M511.1,-54.71C523.25,-53.14 536.12,-51.47 548.77,-49.83"/>
<polygon fill="#63b8ff" stroke="#63b8ff" points="549.38,-53.28 558.84,-48.53 548.48,-46.34 549.38,-53.28"/>
</a>
</g>
</g>
<!-- Node14 -->
<g id="Node000014" class="node">
<title>Node14</title>
<g id="a_Node000014"><a xlink:href="../../d2/d59/namespaceCommon_1_1utils_1_1logging.html#a0d4c11f80297a0645e32fad0fe3e4272" target="_top" xlink:title=" ">
<polygon fill="white" stroke="#666666" points="875,-54 745,-54 745,-24 875,-24 875,-54"/>
<text text-anchor="start" x="753" y="-42" font-family="Helvetica,sans-Serif" font-size="10.00">Common::utils::logging</text>
<text text-anchor="middle" x="810" y="-31" font-family="Helvetica,sans-Serif" font-size="10.00">::sink_ref</text>
</a>
</g>
</g>
<!-- Node13&#45;&gt;Node14 -->
<g id="edge14_Node000013_Node000014" class="edge">
<title>Node13&#45;&gt;Node14</title>
<g id="a_edge14_Node000013_Node000014"><a xlink:title=" ">
<path fill="none" stroke="#63b8ff" d="M709.01,-39C717.51,-39 726.17,-39 734.66,-39"/>
<polygon fill="#63b8ff" stroke="#63b8ff" points="734.91,-42.5 744.91,-39 734.91,-35.5 734.91,-42.5"/>
</a>
</g>
</g>
<!-- Node16 -->
<g id="Node000016" class="node">
<title>Node16</title>
<g id="a_Node000016"><a xlink:href="../../d5/d53/namespaceCommon_1_1utils_1_1metrics_1_1detail.html#aa3719e4e32c969a881318a4788803429" target="_top" xlink:title=" ">
<polygon fill="white" stroke="#666666" points="699,-121 568,-121 568,-91 699,-91 699,-121"/>
<text text-anchor="start" x="576" y="-109" font-family="Helvetica,sans-Serif" font-size="10.00">Common::utils::metrics</text>
<text text-anchor="middle" x="633.5" y="-98" font-family="Helvetica,sans-Serif" font-size="10.00">::detail::counters</text>
</a>
</g>
</g>
<!-- Node15&#45;&gt;Node16 -->
<g id="edge17_Node000015_Node000016" class="edge">
<title>Node15&#45;&gt;Node16</title>
<g id="a_edge17_Node000015_Node000016"><a xlink:title=" ">
<path fill="none" stroke="#63b8ff" d="M522.18,-106C533.91,-106 546.03,-106 557.75,-106"/>
<polygon fill="#63b8ff" stroke="#63b8ff" points="557.93,-109.5 567.93,-106 557.93,-102.5 557.93,-109.5"/>
</a>
</g>
</g>
<!-- Node17&#45;&gt;Node13 -->
<g id="edge19_Node000017_Node000013" class="edge">
<title>Node17&#45;&gt;Node13</title>
<g id="a_edge19_Node000017_Node000013"><a xlink:title=" ">
<path fill="none" stroke="#63b8ff" d="M511.1,-23.29C523.25,-24.86 536.12,-26.53 548.77,-28.17"/>
<polygon fill="#63b8ff" stroke="#63b8ff" points="548.48,-31.66 558.84,-29.47 549.38,-24.72 548.48,-31.66"/>
</a>
</g>
</g>
<!-- Node18&#45;&gt;Node8 -->
<g id="edge23_Node000018_Node000008" class="edge">
<title>Node18&#45;&gt;Node8</title>
<g id="a_edge23_Node000018_Node000008"><a xlink:title=" ">
<path fill="none" stroke="#63b8ff" d="M329.91,-213C342.41,-213 355.7,-213 368.64,-213"/>
<polygon fill="#63b8ff" stroke="#63b8ff" points="368.91,-216.5 378.91,-213 368.91,-209.5 368.91,-216.5"/>
</a>
</g>
</g>
<!-- Node18&#45;&gt;Node10 -->
<g id="edge22_Node000018_Node000010" class="edge">
<title>Node18&#45;&gt;Node10</title>
<g id="a_edge22_Node000018_Node000010"><a xlink:title=" ">
<path fill="none" stroke="#63b8ff" d="M329.91,-192.36C344,-187.67 359.09,-182.64 373.54,-177.82"/>
<polygon fill="#63b8ff" stroke="#63b8ff" points="375.05,-181.01 383.43,-174.52 372.83,-174.37 375.05,-181.01"/>
</a>
</g>
</g>
</g>
</svg>
