<?xml version="1.0" encoding="UTF-8" standalone="no"?>
<!DOCTYPE svg PUBLIC "-//W3C//DTD SVG 1.1//EN"
 "http://www.w3.org/Graphics/SVG/1.1/DTD/svg11.dtd">
<!-- Generated by graphviz version 2.43.0 (0)
 -->
<!-- Title: /home/runner/work/IEEE_1588_2019/IEEE_1588_2019/include/IEEE/1588/PTP/2019/servo_integration.hpp Pages: 1 -->
<!--zoomable 302 -->

<svg id="main" version="1.1" xmlns="http://www.w3.org/2000/svg" xmlns:xlink="http://www.w3.org/1999/xlink" xml:space="preserve" onload="init(evt)">
<style type="text/css"><![CDATA[
.node, .edge {opacity: 0.7;}
.node.selected, .edge.selected {opacity: 1;}
.edge:hover path { stroke: red; }
.edge:hover polygon { stroke: red; fill: red; }
]]></style>

<defs>
  <circle id="rim" cx="0" cy="0" r="7"/>
  <circle id="rim2" cx="0" cy="0" r="3.5"/>
  <g id="zoomPlus">
    <use xlink:href="#rim" fill="#404040"><set attributeName="fill" to="#808080" begin="zoomplus.mouseover" end="zoomplus.mouseout"/></use>
    <path d="M-4,0h8M0,-4v8" fill="none" stroke="white" stroke-width="1.5" pointer-events="none"/>
  </g>
  <g id="zoomMin">
    <use xlink:href="#rim" fill="#404040"><set attributeName="fill" to="#808080" begin="zoomminus.mouseover" end="zoomminus.mouseout"/></use>
    <path d="M-4,0h8" fill="none" stroke="white" stroke-width="1.5" pointer-events="none"/>
  </g>
  <g id="arrowUp" transform="translate(30 24)">
    <use xlink:href="#rim"/>
    <path pointer-events="none" fill="none" stroke="white" stroke-width="1.5" d="M0,-3.0v7 M-2.5,-0.5L0,-3.0L2.5,-0.5"/>
  </g>
  <g id="arrowRight" transform="rotate(90) translate(36 -43)">
    <use xlink:href="#rim"/>
    <path pointer-events="none" fill="none" stroke="white" stroke-width="1.5" d="M0,-3.0v7 M-2.5,-0.5L0,-3.0L2.5,-0.5"/>
  </g>
  <g id="arrowDown" transform="rotate(180) translate(-30 -48)">
    <use xlink:href="#rim"/>
    <path pointer-events="none" fill="none" stroke="white" stroke-width="1.5" d="M0,-3.0v7 M-2.5,-0.5L0,-3.0L2.5,-0.5"/>
  </g>
  <g id="arrowLeft" transform="rotate(270) translate(-36 17)">
    <use xlink:href="#rim"/>
    <path pointer-events="none" fill="none" stroke="white" stroke-width="1.5" d="M0,-3.0v7 M-2.5,-0.5L0,-3.0L2.5,-0.5"/>
  </g>
  <g id="resetDef">
    <use xlink:href="#rim2" fill="#404040"><set attributeName="fill" to="#808080" begin="reset.mouseover" end="reset.mouseout"/></use>
  </g>
</defs>
<script type="application/ecmascript">
var viewWidth = 853;
var viewHeight = 302;
var sectionId = 'dynsection-0';
</script>
<script type="application/ecmascript" xlink:href="../../svg.min.js"/>
<svg id="graph" class="graph">
<g id="viewport">
<title>/home/runner/work/IEEE_1588_2019/IEEE_1588_2019/include/IEEE/1588/PTP/2019/servo_integration.hpp</title>
<!-- Node1 -->
<g id="Node000001" class="node">
<title>Node1</title>
<g id="a_Node000001"><a xlink:title="IEEE 1588&#45;2019 Servo Integration &#45; Clock Adjustment Control.">
<polygon fill="#999999" stroke="#666666" points="351.51,-294 193.51,-294 193.51,-242 351.51,-242 351.51,-294"/>
<text text-anchor="start" x="201.51" y="-282" font-family="Helvetica,sans-Serif" font-size="10.00">/home/runner/work/IEEE</text>
<text text-anchor="start" x="201.51" y="-271" font-family="Helvetica,sans-Serif" font-size="10.00">_1588_2019/IEEE_1588_2019</text>
<text text-anchor="start" x="201.51" y="-260" font-family="Helvetica,sans-Serif" font-size="10.00">/include/IEEE/1588/PTP/2019</text>
<text text-anchor="middle" x="272.51" y="-249" font-family="Helvetica,sans-Serif" font-size="10.00">/servo_integration.hpp</text>
</a>
</g>
</g>
<!-- Node2 -->
<g id="Node000002" class="node">
<title>Node2</title>
<g id="a_Node000002"><a xlink:href="../../dd/dc5/clocks_8hpp.html" target="_top" xlink:title="IEEE 1588&#45;2019 PTP Clock State Machines Implementation.">
<polygon fill="white" stroke="#666666" points="306.51,-206 238.51,-206 238.51,-187 306.51,-187 306.51,-206"/>
<text text-anchor="middle" x="272.51" y="-194" font-family="Helvetica,sans-Serif" font-size="10.00">clocks.hpp</text>
</a>
</g>
</g>
<!-- Node1&#45;&gt;Node2 -->
<g id="edge1_Node000001_Node000002" class="edge">
<title>Node1&#45;&gt;Node2</title>
<g id="a_edge1_Node000001_Node000002"><a xlink:title=" ">
<path fill="none" stroke="#63b8ff" d="M272.51,-241.91C272.51,-233.55 272.51,-224.38 272.51,-216.55"/>
<polygon fill="#63b8ff" stroke="#63b8ff" points="276.01,-216.3 272.51,-206.3 269.01,-216.3 276.01,-216.3"/>
</a>
</g>
</g>
<!-- Node4 -->
<g id="Node000004" class="node">
<title>Node4</title>
<g id="a_Node000004"><a xlink:title=" ">
<polygon fill="#e0e0e0" stroke="#999999" points="316.51,-19 266.51,-19 266.51,0 316.51,0 316.51,-19"/>
<text text-anchor="middle" x="291.51" y="-7" font-family="Helvetica,sans-Serif" font-size="10.00">cstdint</text>
</a>
</g>
</g>
<!-- Node1&#45;&gt;Node4 -->
<g id="edge29_Node000001_Node000004" class="edge">
<title>Node1&#45;&gt;Node4</title>
<g id="a_edge29_Node000001_Node000004"><a xlink:title=" ">
<path fill="none" stroke="#63b8ff" d="M193.5,-256.33C108.78,-240.53 -10.36,-203.37 15.51,-121 26.22,-86.89 31.54,-74.49 61.51,-55 93.14,-34.43 199.74,-20.3 256.02,-14.08"/>
<polygon fill="#63b8ff" stroke="#63b8ff" points="256.68,-17.53 266.24,-12.98 255.92,-10.57 256.68,-17.53"/>
</a>
</g>
</g>
<!-- Node15 -->
<g id="Node000015" class="node">
<title>Node15</title>
<g id="a_Node000015"><a xlink:title=" ">
<polygon fill="#e0e0e0" stroke="#999999" points="368.51,-206 324.51,-206 324.51,-187 368.51,-187 368.51,-206"/>
<text text-anchor="middle" x="346.51" y="-194" font-family="Helvetica,sans-Serif" font-size="10.00">string</text>
</a>
</g>
</g>
<!-- Node1&#45;&gt;Node15 -->
<g id="edge30_Node000001_Node000015" class="edge">
<title>Node1&#45;&gt;Node15</title>
<g id="a_edge30_Node000001_Node000015"><a xlink:title=" ">
<path fill="none" stroke="#63b8ff" d="M299.23,-241.91C309.37,-232.38 320.63,-221.8 329.62,-213.36"/>
<polygon fill="#63b8ff" stroke="#63b8ff" points="332.24,-215.7 337.14,-206.3 327.45,-210.6 332.24,-215.7"/>
</a>
</g>
</g>
<!-- Node3 -->
<g id="Node000003" class="node">
<title>Node3</title>
<g id="a_Node000003"><a xlink:href="../../dd/de3/types_8hpp.html" target="_top" xlink:title="IEEE 1588&#45;2019 PTP v2.1 fundamental data types and constants.">
<polygon fill="white" stroke="#666666" points="184.01,-85 71.01,-85 71.01,-55 184.01,-55 184.01,-85"/>
<text text-anchor="start" x="79.01" y="-73" font-family="Helvetica,sans-Serif" font-size="10.00">IEEE/1588/PTP/2019</text>
<text text-anchor="middle" x="127.51" y="-62" font-family="Helvetica,sans-Serif" font-size="10.00">/types.hpp</text>
</a>
</g>
</g>
<!-- Node2&#45;&gt;Node3 -->
<g id="edge2_Node000002_Node000003" class="edge">
<title>Node2&#45;&gt;Node3</title>
<g id="a_edge2_Node000002_Node000003"><a xlink:title=" ">
<path fill="none" stroke="#63b8ff" d="M248.93,-186.99C230.33,-179.49 204.45,-167.22 185.51,-151 166.71,-134.9 150.68,-111.54 140.27,-94.21"/>
<polygon fill="#63b8ff" stroke="#63b8ff" points="143.13,-92.18 135.08,-85.29 137.08,-95.7 143.13,-92.18"/>
</a>
</g>
</g>
<!-- Node2&#45;&gt;Node4 -->
<g id="edge10_Node000002_Node000004" class="edge">
<title>Node2&#45;&gt;Node4</title>
<g id="a_edge10_Node000002_Node000004"><a xlink:title=" ">
<path fill="none" stroke="#63b8ff" d="M273.43,-186.58C276.35,-158.07 285.53,-68.74 289.57,-29.41"/>
<polygon fill="#63b8ff" stroke="#63b8ff" points="293.06,-29.64 290.6,-19.33 286.1,-28.92 293.06,-29.64"/>
</a>
</g>
</g>
<!-- Node5 -->
<g id="Node000005" class="node">
<title>Node5</title>
<g id="a_Node000005"><a xlink:title=" ">
<polygon fill="#e0e0e0" stroke="#999999" points="50.51,-19 8.51,-19 8.51,0 50.51,0 50.51,-19"/>
<text text-anchor="middle" x="29.51" y="-7" font-family="Helvetica,sans-Serif" font-size="10.00">array</text>
</a>
</g>
</g>
<!-- Node2&#45;&gt;Node5 -->
<g id="edge12_Node000002_Node000005" class="edge">
<title>Node2&#45;&gt;Node5</title>
<g id="a_edge12_Node000002_Node000005"><a xlink:title=" ">
<path fill="none" stroke="#63b8ff" d="M238.1,-194.8C174.75,-192.7 43.58,-184.34 15.51,-151 -13.87,-116.09 6.87,-57.67 20.39,-28.38"/>
<polygon fill="#63b8ff" stroke="#63b8ff" points="23.72,-29.53 24.93,-19 17.42,-26.48 23.72,-29.53"/>
</a>
</g>
</g>
<!-- Node7 -->
<g id="Node000007" class="node">
<title>Node7</title>
<g id="a_Node000007"><a xlink:href="../../d4/d64/messages_8hpp.html" target="_top" xlink:title="IEEE 1588&#45;2019 PTP Message Format Structures.">
<polygon fill="white" stroke="#666666" points="138.01,-151 25.01,-151 25.01,-121 138.01,-121 138.01,-151"/>
<text text-anchor="start" x="33.01" y="-139" font-family="Helvetica,sans-Serif" font-size="10.00">IEEE/1588/PTP/2019</text>
<text text-anchor="middle" x="81.51" y="-128" font-family="Helvetica,sans-Serif" font-size="10.00">/messages.hpp</text>
</a>
</g>
</g>
<!-- Node2&#45;&gt;Node7 -->
<g id="edge6_Node000002_Node000007" class="edge">
<title>Node2&#45;&gt;Node7</title>
<g id="a_edge6_Node000002_Node000007"><a xlink:title=" ">
<path fill="none" stroke="#63b8ff" d="M244.74,-186.99C216.65,-178.39 172.46,-164.86 137.14,-154.04"/>
<polygon fill="#63b8ff" stroke="#63b8ff" points="138.02,-150.65 127.43,-151.06 135.97,-157.34 138.02,-150.65"/>
</a>
</g>
</g>
<!-- Node8 -->
<g id="Node000008" class="node">
<title>Node8</title>
<g id="a_Node000008"><a xlink:title=" ">
<polygon fill="#e0e0e0" stroke="#999999" points="244.51,-145.5 194.51,-145.5 194.51,-126.5 244.51,-126.5 244.51,-145.5"/>
<text text-anchor="middle" x="219.51" y="-133.5" font-family="Helvetica,sans-Serif" font-size="10.00">cstring</text>
</a>
</g>
</g>
<!-- Node2&#45;&gt;Node8 -->
<g id="edge11_Node000002_Node000008" class="edge">
<title>Node2&#45;&gt;Node8</title>
<g id="a_edge11_Node000002_Node000008"><a xlink:title=" ">
<path fill="none" stroke="#63b8ff" d="M264.69,-186.87C256.7,-178.05 244.12,-164.16 234.25,-153.27"/>
<polygon fill="#63b8ff" stroke="#63b8ff" points="236.67,-150.73 227.36,-145.67 231.48,-155.43 236.67,-150.73"/>
</a>
</g>
</g>
<!-- Node9 -->
<g id="Node000009" class="node">
<title>Node9</title>
<g id="a_Node000009"><a xlink:href="../../d6/da3/logger_8hpp.html" target="_top" xlink:title=" ">
<polygon fill="white" stroke="#666666" points="440.01,-145.5 301.01,-145.5 301.01,-126.5 440.01,-126.5 440.01,-145.5"/>
<text text-anchor="middle" x="370.51" y="-133.5" font-family="Helvetica,sans-Serif" font-size="10.00">Common/utils/logger.hpp</text>
</a>
</g>
</g>
<!-- Node2&#45;&gt;Node9 -->
<g id="edge13_Node000002_Node000009" class="edge">
<title>Node2&#45;&gt;Node9</title>
<g id="a_edge13_Node000002_Node000009"><a xlink:title=" ">
<path fill="none" stroke="#63b8ff" d="M286.97,-186.87C302.82,-177.41 328.48,-162.09 347.19,-150.92"/>
<polygon fill="#63b8ff" stroke="#63b8ff" points="349.2,-153.8 355.99,-145.67 345.61,-147.79 349.2,-153.8"/>
</a>
</g>
</g>
<!-- Node10 -->
<g id="Node000010" class="node">
<title>Node10</title>
<g id="a_Node000010"><a xlink:href="../../d4/d35/fault__injection_8hpp.html" target="_top" xlink:title=" ">
<polygon fill="white" stroke="#666666" points="688.51,-85 578.51,-85 578.51,-55 688.51,-55 688.51,-85"/>
<text text-anchor="start" x="586.51" y="-73" font-family="Helvetica,sans-Serif" font-size="10.00">Common/utils/fault</text>
<text text-anchor="middle" x="633.51" y="-62" font-family="Helvetica,sans-Serif" font-size="10.00">_injection.hpp</text>
</a>
</g>
</g>
<!-- Node2&#45;&gt;Node10 -->
<g id="edge15_Node000002_Node000010" class="edge">
<title>Node2&#45;&gt;Node10</title>
<g id="a_edge15_Node000002_Node000010"><a xlink:title=" ">
<path fill="none" stroke="#63b8ff" d="M306.73,-188.46C309.69,-187.93 312.65,-187.44 315.51,-187 388.43,-175.84 596.26,-205.92 645.51,-151 659.2,-135.74 653.37,-111.87 645.84,-94.17"/>
<polygon fill="#63b8ff" stroke="#63b8ff" points="648.99,-92.65 641.59,-85.07 642.65,-95.61 648.99,-92.65"/>
</a>
</g>
</g>
<!-- Node12 -->
<g id="Node000012" class="node">
<title>Node12</title>
<g id="a_Node000012"><a xlink:href="../../d4/d44/metrics_8hpp.html" target="_top" xlink:title=" ">
<polygon fill="white" stroke="#666666" points="484.51,-79.5 338.51,-79.5 338.51,-60.5 484.51,-60.5 484.51,-79.5"/>
<text text-anchor="middle" x="411.51" y="-67.5" font-family="Helvetica,sans-Serif" font-size="10.00">Common/utils/metrics.hpp</text>
</a>
</g>
</g>
<!-- Node2&#45;&gt;Node12 -->
<g id="edge18_Node000002_Node000012" class="edge">
<title>Node2&#45;&gt;Node12</title>
<g id="a_edge18_Node000002_Node000012"><a xlink:title=" ">
<path fill="none" stroke="#63b8ff" d="M306.8,-188.01C357,-176.89 445.07,-156.7 449.51,-151 464.95,-131.2 445.23,-104.11 428.93,-87.09"/>
<polygon fill="#63b8ff" stroke="#63b8ff" points="430.94,-84.16 421.37,-79.62 426.02,-89.14 430.94,-84.16"/>
</a>
</g>
</g>
<!-- Node13 -->
<g id="Node000013" class="node">
<title>Node13</title>
<g id="a_Node000013"><a xlink:href="../../de/d18/health_8hpp.html" target="_top" xlink:title=" ">
<polygon fill="white" stroke="#666666" points="636.51,-145.5 496.51,-145.5 496.51,-126.5 636.51,-126.5 636.51,-145.5"/>
<text text-anchor="middle" x="566.51" y="-133.5" font-family="Helvetica,sans-Serif" font-size="10.00">Common/utils/health.hpp</text>
</a>
</g>
</g>
<!-- Node2&#45;&gt;Node13 -->
<g id="edge22_Node000002_Node000013" class="edge">
<title>Node2&#45;&gt;Node13</title>
<g id="a_edge22_Node000002_Node000013"><a xlink:title=" ">
<path fill="none" stroke="#63b8ff" d="M306.52,-188.73C357.25,-178.64 453.17,-159.55 513.25,-147.6"/>
<polygon fill="#63b8ff" stroke="#63b8ff" points="514.18,-150.98 523.3,-145.6 512.81,-144.12 514.18,-150.98"/>
</a>
</g>
</g>
<!-- Node14 -->
<g id="Node000014" class="node">
<title>Node14</title>
<g id="a_Node000014"><a xlink:href="../../d8/dfd/config_8hpp.html" target="_top" xlink:title=" ">
<polygon fill="white" stroke="#666666" points="844.51,-79.5 706.51,-79.5 706.51,-60.5 844.51,-60.5 844.51,-79.5"/>
<text text-anchor="middle" x="775.51" y="-67.5" font-family="Helvetica,sans-Serif" font-size="10.00">Common/utils/config.hpp</text>
</a>
</g>
</g>
<!-- Node2&#45;&gt;Node14 -->
<g id="edge27_Node000002_Node000014" class="edge">
<title>Node2&#45;&gt;Node14</title>
<g id="a_edge27_Node000002_Node000014"><a xlink:title=" ">
<path fill="none" stroke="#63b8ff" d="M306.73,-188.44C309.69,-187.92 312.65,-187.43 315.51,-187 469.28,-163.9 518.08,-206.02 663.51,-151 701.81,-136.51 739.03,-105.56 759.45,-86.69"/>
<polygon fill="#63b8ff" stroke="#63b8ff" points="762.03,-89.07 766.89,-79.65 757.22,-83.98 762.03,-89.07"/>
</a>
</g>
</g>
<!-- Node3&#45;&gt;Node4 -->
<g id="edge3_Node000003_Node000004" class="edge">
<title>Node3&#45;&gt;Node4</title>
<g id="a_edge3_Node000003_Node000004"><a xlink:title=" ">
<path fill="none" stroke="#63b8ff" d="M166.79,-54.99C194.52,-45.1 231.29,-31.98 257.71,-22.56"/>
<polygon fill="#63b8ff" stroke="#63b8ff" points="259.05,-25.8 267.29,-19.14 256.7,-19.2 259.05,-25.8"/>
</a>
</g>
</g>
<!-- Node3&#45;&gt;Node5 -->
<g id="edge4_Node000003_Node000005" class="edge">
<title>Node3&#45;&gt;Node5</title>
<g id="a_edge4_Node000003_Node000005"><a xlink:title=" ">
<path fill="none" stroke="#63b8ff" d="M103.79,-54.84C88.31,-45.6 68.19,-33.59 52.8,-24.4"/>
<polygon fill="#63b8ff" stroke="#63b8ff" points="54.29,-21.21 43.91,-19.09 50.7,-27.23 54.29,-21.21"/>
</a>
</g>
</g>
<!-- Node6 -->
<g id="Node000006" class="node">
<title>Node6</title>
<g id="a_Node000006"><a xlink:title=" ">
<polygon fill="#e0e0e0" stroke="#999999" points="154.01,-19 101.01,-19 101.01,0 154.01,0 154.01,-19"/>
<text text-anchor="middle" x="127.51" y="-7" font-family="Helvetica,sans-Serif" font-size="10.00">cstddef</text>
</a>
</g>
</g>
<!-- Node3&#45;&gt;Node6 -->
<g id="edge5_Node000003_Node000006" class="edge">
<title>Node3&#45;&gt;Node6</title>
<g id="a_edge5_Node000003_Node000006"><a xlink:title=" ">
<path fill="none" stroke="#63b8ff" d="M127.51,-54.84C127.51,-47.21 127.51,-37.7 127.51,-29.45"/>
<polygon fill="#63b8ff" stroke="#63b8ff" points="131.01,-29.27 127.51,-19.27 124.01,-29.27 131.01,-29.27"/>
</a>
</g>
</g>
<!-- Node7&#45;&gt;Node3 -->
<g id="edge7_Node000007_Node000003" class="edge">
<title>Node7&#45;&gt;Node3</title>
<g id="a_edge7_Node000007_Node000003"><a xlink:title=" ">
<path fill="none" stroke="#63b8ff" d="M91.72,-120.8C97.5,-112.76 104.85,-102.53 111.39,-93.43"/>
<polygon fill="#63b8ff" stroke="#63b8ff" points="114.34,-95.33 117.33,-85.16 108.65,-91.24 114.34,-95.33"/>
</a>
</g>
</g>
<!-- Node7&#45;&gt;Node4 -->
<g id="edge8_Node000007_Node000004" class="edge">
<title>Node7&#45;&gt;Node4</title>
<g id="a_edge8_Node000007_Node000004"><a xlink:title=" ">
<path fill="none" stroke="#63b8ff" d="M118.63,-120.95C140.97,-111.88 169.6,-99.17 193.51,-85 223.49,-67.24 255.03,-41.88 273.98,-25.81"/>
<polygon fill="#63b8ff" stroke="#63b8ff" points="276.45,-28.31 281.76,-19.14 271.89,-23 276.45,-28.31"/>
</a>
</g>
</g>
<!-- Node7&#45;&gt;Node5 -->
<g id="edge9_Node000007_Node000005" class="edge">
<title>Node7&#45;&gt;Node5</title>
<g id="a_edge9_Node000007_Node000005"><a xlink:title=" ">
<path fill="none" stroke="#63b8ff" d="M75.55,-120.72C66.02,-97.92 47.4,-53.33 36.99,-28.42"/>
<polygon fill="#63b8ff" stroke="#63b8ff" points="40.17,-26.95 33.09,-19.07 33.71,-29.65 40.17,-26.95"/>
</a>
</g>
</g>
<!-- Node9&#45;&gt;Node4 -->
<g id="edge14_Node000009_Node000004" class="edge">
<title>Node9&#45;&gt;Node4</title>
<g id="a_edge14_Node000009_Node000004"><a xlink:title=" ">
<path fill="none" stroke="#63b8ff" d="M362.34,-126.24C353.58,-116.59 339.59,-100.41 329.51,-85 317.5,-66.64 306.43,-43.99 299.37,-28.52"/>
<polygon fill="#63b8ff" stroke="#63b8ff" points="302.44,-26.8 295.16,-19.1 296.04,-29.65 302.44,-26.8"/>
</a>
</g>
</g>
<!-- Node10&#45;&gt;Node4 -->
<g id="edge17_Node000010_Node000004" class="edge">
<title>Node10&#45;&gt;Node4</title>
<g id="a_edge17_Node000010_Node000004"><a xlink:title=" ">
<path fill="none" stroke="#63b8ff" d="M578.18,-59.54C507.2,-47.39 386.17,-26.69 326.66,-16.51"/>
<polygon fill="#63b8ff" stroke="#63b8ff" points="327.07,-13.03 316.63,-14.8 325.89,-19.93 327.07,-13.03"/>
</a>
</g>
</g>
<!-- Node11 -->
<g id="Node000011" class="node">
<title>Node11</title>
<g id="a_Node000011"><a xlink:title=" ">
<polygon fill="#e0e0e0" stroke="#999999" points="616.51,-19 566.51,-19 566.51,0 616.51,0 616.51,-19"/>
<text text-anchor="middle" x="591.51" y="-7" font-family="Helvetica,sans-Serif" font-size="10.00">atomic</text>
</a>
</g>
</g>
<!-- Node10&#45;&gt;Node11 -->
<g id="edge16_Node000010_Node000011" class="edge">
<title>Node10&#45;&gt;Node11</title>
<g id="a_edge16_Node000010_Node000011"><a xlink:title=" ">
<path fill="none" stroke="#63b8ff" d="M623.34,-54.84C617.43,-46.61 609.95,-36.18 603.72,-27.51"/>
<polygon fill="#63b8ff" stroke="#63b8ff" points="606.48,-25.35 597.8,-19.27 600.79,-29.43 606.48,-25.35"/>
</a>
</g>
</g>
<!-- Node12&#45;&gt;Node4 -->
<g id="edge20_Node000012_Node000004" class="edge">
<title>Node12&#45;&gt;Node4</title>
<g id="a_edge20_Node000012_Node000004"><a xlink:title=" ">
<path fill="none" stroke="#63b8ff" d="M394.06,-60.49C374.15,-50.79 341.37,-34.81 318.24,-23.53"/>
<polygon fill="#63b8ff" stroke="#63b8ff" points="319.5,-20.25 308.98,-19.02 316.44,-26.54 319.5,-20.25"/>
</a>
</g>
</g>
<!-- Node12&#45;&gt;Node5 -->
<g id="edge21_Node000012_Node000005" class="edge">
<title>Node12&#45;&gt;Node5</title>
<g id="a_edge21_Node000012_Node000005"><a xlink:title=" ">
<path fill="none" stroke="#63b8ff" d="M355.96,-60.49C274.42,-48.01 125.02,-25.13 60.51,-15.25"/>
<polygon fill="#63b8ff" stroke="#63b8ff" points="60.97,-11.78 50.56,-13.72 59.91,-18.7 60.97,-11.78"/>
</a>
</g>
</g>
<!-- Node12&#45;&gt;Node11 -->
<g id="edge19_Node000012_Node000011" class="edge">
<title>Node12&#45;&gt;Node11</title>
<g id="a_edge19_Node000012_Node000011"><a xlink:title=" ">
<path fill="none" stroke="#63b8ff" d="M437.68,-60.49C469.1,-50.28 521.89,-33.13 556.72,-21.81"/>
<polygon fill="#63b8ff" stroke="#63b8ff" points="558.04,-25.06 566.47,-18.64 555.87,-18.4 558.04,-25.06"/>
</a>
</g>
</g>
<!-- Node13&#45;&gt;Node4 -->
<g id="edge24_Node000013_Node000004" class="edge">
<title>Node13&#45;&gt;Node4</title>
<g id="a_edge24_Node000013_Node000004"><a xlink:title=" ">
<path fill="none" stroke="#63b8ff" d="M561.3,-126.41C550.73,-109.78 525.09,-73.25 493.51,-55 440.63,-24.44 368.85,-14.85 326.62,-11.85"/>
<polygon fill="#63b8ff" stroke="#63b8ff" points="326.75,-8.35 316.56,-11.22 326.32,-15.33 326.75,-8.35"/>
</a>
</g>
</g>
<!-- Node13&#45;&gt;Node10 -->
<g id="edge26_Node000013_Node000010" class="edge">
<title>Node13&#45;&gt;Node10</title>
<g id="a_edge26_Node000013_Node000010"><a xlink:title=" ">
<path fill="none" stroke="#63b8ff" d="M575.55,-126.37C584.72,-117.61 599.26,-103.71 611.49,-92.04"/>
<polygon fill="#63b8ff" stroke="#63b8ff" points="613.92,-94.55 618.73,-85.12 609.08,-89.49 613.92,-94.55"/>
</a>
</g>
</g>
<!-- Node13&#45;&gt;Node11 -->
<g id="edge23_Node000013_Node000011" class="edge">
<title>Node13&#45;&gt;Node11</title>
<g id="a_edge23_Node000013_Node000011"><a xlink:title=" ">
<path fill="none" stroke="#63b8ff" d="M565.67,-126.43C564.48,-111.6 563.09,-80.33 569.51,-55 571.89,-45.62 576.42,-35.9 580.75,-27.95"/>
<polygon fill="#63b8ff" stroke="#63b8ff" points="583.79,-29.68 585.78,-19.27 577.74,-26.17 583.79,-29.68"/>
</a>
</g>
</g>
<!-- Node13&#45;&gt;Node12 -->
<g id="edge25_Node000013_Node000012" class="edge">
<title>Node13&#45;&gt;Node12</title>
<g id="a_edge25_Node000013_Node000012"><a xlink:title=" ">
<path fill="none" stroke="#63b8ff" d="M545.61,-126.37C518.91,-115.35 472.52,-96.19 441.92,-83.55"/>
<polygon fill="#63b8ff" stroke="#63b8ff" points="443.16,-80.28 432.58,-79.7 440.49,-86.75 443.16,-80.28"/>
</a>
</g>
</g>
<!-- Node14&#45;&gt;Node11 -->
<g id="edge28_Node000014_Node000011" class="edge">
<title>Node14&#45;&gt;Node11</title>
<g id="a_edge28_Node000014_Node000011"><a xlink:title=" ">
<path fill="none" stroke="#63b8ff" d="M748.75,-60.49C716.46,-50.23 662.07,-32.93 626.48,-21.62"/>
<polygon fill="#63b8ff" stroke="#63b8ff" points="627.12,-18.15 616.53,-18.45 625,-24.82 627.12,-18.15"/>
</a>
</g>
</g>
</g>
</svg>

<g id="navigator" transform="translate(0 0)" fill="#404254">
  <rect fill="#f2f5e9" fill-opacity="0.5" stroke="#606060" stroke-width=".5" x="0" y="0" width="60" height="60"/>
  <use id="zoomplus" xlink:href="#zoomPlus" x="17" y="9" onmousedown="handleZoom(evt,'in')"/>
  <use id="zoomminus" xlink:href="#zoomMin" x="42" y="9" onmousedown="handleZoom(evt,'out')"/>
  <use id="reset" xlink:href="#resetDef" x="30" y="36" onmousedown="handleReset()"/>
   <use id="arrowup" xlink:href="#arrowUp" x="0" y="0" onmousedown="handlePan(0,-1)"/>
  <use id="arrowright" xlink:href="#arrowRight" x="0" y="0" onmousedown="handlePan(1,0)"/>
  <use id="arrowdown" xlink:href="#arrowDown" x="0" y="0" onmousedown="handlePan(0,1)"/>
  <use id="arrowleft" xlink:href="#arrowLeft" x="0" y="0" onmousedown="handlePan(-1,0)"/>
</g>
<svg viewBox="0 0 15 15" width="100%" height="30px" preserveAspectRatio="xMaxYMin meet">
 <g id="arrow_out" transform="scale(0.3 0.3)">
  <a xlink:href="servo__integration_8hpp__incl_org.svg" target="_base">
   <rect id="button" ry="5" rx="5" y="6" x="6" height="38" width="38"
        fill="#f2f5e9" fill-opacity="0.5" stroke="#606060" stroke-width="1.0"/>
   <path id="arrow"
     d="M 11.500037,31.436501 C 11.940474,20.09759 22.043105,11.32322 32.158766,21.979434 L 37.068811,17.246167 C 37.068811,17.246167 37.088388,32 37.088388,32 L 22.160133,31.978069 C 22.160133,31.978069 26.997745,27.140456 26.997745,27.140456 C 18.528582,18.264221 13.291696,25.230495 11.500037,31.436501 z"
     style="fill:#404040;"/>
  </a>
 </g>
</svg>

<style type='text/css'>
<![CDATA[
[data-mouse-over-selected='false'] { opacity: 0.7; }
[data-mouse-over-selected='true']  { opacity: 1.0; }
]]>
</style>
<script type="application/ecmascript"><![CDATA[
document.addEventListener('DOMContentLoaded', (event) => {
  highlightEdges();
  highlightAdjacentNodes();
});
]]></script>
</svg>
