<?xml version="1.0" encoding="UTF-8" standalone="no"?>
<!DOCTYPE svg PUBLIC "-//W3C//DTD SVG 1.1//EN"
 "http://www.w3.org/Graphics/SVG/1.1/DTD/svg11.dtd">
<!-- Generated by graphviz version 2.43.0 (0)
 -->
<!-- Title: IEEE::_1588::PTP::_2019::Clocks::CurrentDataSet Pages: 1 -->
<svg width="195pt" height="216pt"
 viewBox="0.00 0.00 194.50 216.00" xmlns="http://www.w3.org/2000/svg" xmlns:xlink="http://www.w3.org/1999/xlink">

<svg id="main" version="1.1" xmlns="http://www.w3.org/2000/svg" xmlns:xlink="http://www.w3.org/1999/xlink" xml:space="preserve" onload="init(evt)">
<style type="text/css"><![CDATA[
.node, .edge {opacity: 0.7;}
.node.selected, .edge.selected {opacity: 1;}
.edge:hover path { stroke: red; }
.edge:hover polygon { stroke: red; fill: red; }
]]></style>
<script type="application/ecmascript" xlink:href="../../svg.min.js"/>
<svg id="graph" class="graph">
<g id="graph0" class="graph" transform="scale(1 1) rotate(0) translate(4 212)">
<title>IEEE::_1588::PTP::_2019::Clocks::CurrentDataSet</title>
<!-- Node1 -->
<g id="Node000001" class="node">
<title>Node1</title>
<g id="a_Node000001"><a xlink:title="Current Data Set per IEEE 1588&#45;2019 Section 8.2.2.">
<polygon fill="#999999" stroke="transparent" points="161,-60 2,-60 2,0 161,0 161,-60"/>
<text text-anchor="start" x="7.5" y="-48" font-family="Helvetica,sans-Serif" font-size="10.00">IEEE::_1588::PTP::</text>
<text text-anchor="start" x="7.5" y="-37" font-family="Helvetica,sans-Serif" font-size="10.00">_2019::Clocks::CurrentDataSet</text>
<text text-anchor="start" x="22" y="-22" font-family="Helvetica,sans-Serif" font-size="10.00">+</text>
<text text-anchor="start" x="50.5" y="-22" font-family="Helvetica,sans-Serif" font-size="10.00">steps_removed</text>
<text text-anchor="start" x="80" y="-7" font-family="Helvetica,sans-Serif" font-size="10.00"> </text>
<polygon fill="#666666" stroke="#666666" points="2.5,-32 2.5,-32 161.5,-32 161.5,-32 2.5,-32"/>
<polygon fill="#666666" stroke="#666666" points="2.5,-17 2.5,-17 48.5,-17 48.5,-17 2.5,-17"/>
<polygon fill="#666666" stroke="#666666" points="48.5,-17 48.5,-17 161.5,-17 161.5,-17 48.5,-17"/>
<polygon fill="none" stroke="#666666" points="2,0 2,-60 161,-60 161,0 2,0"/>
</a>
</g>
</g>
<!-- Node2 -->
<g id="Node000002" class="node">
<title>Node2</title>
<g id="a_Node000002"><a xlink:href="../../d6/df7/structIEEE_1_1__1588_1_1PTP_1_1__2019_1_1Types_1_1TimeInterval.html" target="_top" xlink:title="Time Interval &#45; scaled nanoseconds for time intervals.">
<polygon fill="white" stroke="transparent" points="163,-208 0,-208 0,-118 163,-118 163,-208"/>
<text text-anchor="start" x="16" y="-196" font-family="Helvetica,sans-Serif" font-size="10.00">IEEE::_1588::PTP::</text>
<text text-anchor="start" x="16" y="-185" font-family="Helvetica,sans-Serif" font-size="10.00">_2019::Types::TimeInterval</text>
<text text-anchor="start" x="4.5" y="-170" font-family="Helvetica,sans-Serif" font-size="10.00">+</text>
<text text-anchor="start" x="17.5" y="-170" font-family="Helvetica,sans-Serif" font-size="10.00">scaled_nanoseconds</text>
<text text-anchor="start" x="4.5" y="-155" font-family="Helvetica,sans-Serif" font-size="10.00">+</text>
<text text-anchor="start" x="17.5" y="-155" font-family="Helvetica,sans-Serif" font-size="10.00">toNanoseconds()</text>
<text text-anchor="start" x="4.5" y="-140" font-family="Helvetica,sans-Serif" font-size="10.00">+</text>
<text text-anchor="start" x="17.5" y="-140" font-family="Helvetica,sans-Serif" font-size="10.00">fromNanoseconds()</text>
<text text-anchor="start" x="4.5" y="-125" font-family="Helvetica,sans-Serif" font-size="10.00">+</text>
<text text-anchor="start" x="17.5" y="-125" font-family="Helvetica,sans-Serif" font-size="10.00">fromNanosecondsUnbiased()</text>
<polygon fill="#666666" stroke="#666666" points="0.5,-180 0.5,-180 163.5,-180 163.5,-180 0.5,-180"/>
<polygon fill="#666666" stroke="#666666" points="0.5,-165 0.5,-165 15.5,-165 15.5,-165 0.5,-165"/>
<polygon fill="#666666" stroke="#666666" points="15.5,-165 15.5,-165 163.5,-165 163.5,-165 15.5,-165"/>
<polygon fill="none" stroke="#666666" points="0,-118 0,-208 163,-208 163,-118 0,-118"/>
</a>
</g>
</g>
<!-- Node2&#45;&gt;Node1 -->
<g id="edge1_Node000001_Node000002" class="edge">
<title>Node2&#45;&gt;Node1</title>
<g id="a_edge1_Node000001_Node000002"><a xlink:title=" ">
<path fill="none" stroke="#63b8ff" d="M81.5,-117.65C81.5,-102.95 81.5,-86.66 81.5,-72.21"/>
<polygon fill="none" stroke="#63b8ff" points="81.5,-72.07 77.5,-66.07 81.5,-60.07 85.5,-66.07 81.5,-72.07"/>
</a>
</g>
<text text-anchor="middle" x="134" y="-92" font-family="Helvetica,sans-Serif" font-size="10.00" fill="grey"> +mean_path_delay</text>
<text text-anchor="middle" x="134" y="-81" font-family="Helvetica,sans-Serif" font-size="10.00" fill="grey">+offset_from_master</text>
</g>
</g>
</svg>
</svg>

<style type='text/css'>
<![CDATA[
[data-mouse-over-selected='false'] { opacity: 0.7; }
[data-mouse-over-selected='true']  { opacity: 1.0; }
]]>
</style>
<script type="application/ecmascript"><![CDATA[
document.addEventListener('DOMContentLoaded', (event) => {
  highlightEdges();
  highlightAdjacentNodes();
});
]]></script>
</svg>
