<?xml version="1.0" encoding="UTF-8" standalone="no"?>
<!DOCTYPE svg PUBLIC "-//W3C//DTD SVG 1.1//EN"
 "http://www.w3.org/Graphics/SVG/1.1/DTD/svg11.dtd">
<!-- Generated by graphviz version 2.43.0 (0)
 -->
<!-- Title: Common::utils::fi::detail::offset_jitter_enabled Pages: 1 -->
<!--zoomable 134 -->

<svg id="main" version="1.1" xmlns="http://www.w3.org/2000/svg" xmlns:xlink="http://www.w3.org/1999/xlink" xml:space="preserve" onload="init(evt)">
<style type="text/css"><![CDATA[
.node, .edge {opacity: 0.7;}
.node.selected, .edge.selected {opacity: 1;}
.edge:hover path { stroke: red; }
.edge:hover polygon { stroke: red; fill: red; }
]]></style>

<defs>
  <circle id="rim" cx="0" cy="0" r="7"/>
  <circle id="rim2" cx="0" cy="0" r="3.5"/>
  <g id="zoomPlus">
    <use xlink:href="#rim" fill="#404040"><set attributeName="fill" to="#808080" begin="zoomplus.mouseover" end="zoomplus.mouseout"/></use>
    <path d="M-4,0h8M0,-4v8" fill="none" stroke="white" stroke-width="1.5" pointer-events="none"/>
  </g>
  <g id="zoomMin">
    <use xlink:href="#rim" fill="#404040"><set attributeName="fill" to="#808080" begin="zoomminus.mouseover" end="zoomminus.mouseout"/></use>
    <path d="M-4,0h8" fill="none" stroke="white" stroke-width="1.5" pointer-events="none"/>
  </g>
  <g id="arrowUp" transform="translate(30 24)">
    <use xlink:href="#rim"/>
    <path pointer-events="none" fill="none" stroke="white" stroke-width="1.5" d="M0,-3.0v7 M-2.5,-0.5L0,-3.0L2.5,-0.5"/>
  </g>
  <g id="arrowRight" transform="rotate(90) translate(36 -43)">
    <use xlink:href="#rim"/>
    <path pointer-events="none" fill="none" stroke="white" stroke-width="1.5" d="M0,-3.0v7 M-2.5,-0.5L0,-3.0L2.5,-0.5"/>
  </g>
  <g id="arrowDown" transform="rotate(180) translate(-30 -48)">
    <use xlink:href="#rim"/>
    <path pointer-events="none" fill="none" stroke="white" stroke-width="1.5" d="M0,-3.0v7 M-2.5,-0.5L0,-3.0L2.5,-0.5"/>
  </g>
  <g id="arrowLeft" transform="rotate(270) translate(-36 17)">
    <use xlink:href="#rim"/>
    <path pointer-events="none" fill="none" stroke="white" stroke-width="1.5" d="M0,-3.0v7 M-2.5,-0.5L0,-3.0L2.5,-0.5"/>
  </g>
  <g id="resetDef">
    <use xlink:href="#rim2" fill="#404040"><set attributeName="fill" to="#808080" begin="reset.mouseover" end="reset.mouseout"/></use>
  </g>
</defs>
<script type="application/ecmascript">
var viewWidth = 808;
var viewHeight = 134;
var sectionId = 'dynsection-2';
</script>
<script type="application/ecmascript" xlink:href="../../svg.min.js"/>
<svg id="graph" class="graph">
<g id="viewport">
<title>Common::utils::fi::detail::offset_jitter_enabled</title>
<!-- Node1 -->
<g id="Node000001" class="node">
<title>Node1</title>
<g id="a_Node000001"><a xlink:title=" ">
<polygon fill="#999999" stroke="#666666" points="800,-83.5 693,-83.5 693,-42.5 800,-42.5 800,-83.5"/>
<text text-anchor="start" x="701" y="-71.5" font-family="Helvetica,sans-Serif" font-size="10.00">Common::utils::fi::</text>
<text text-anchor="start" x="701" y="-60.5" font-family="Helvetica,sans-Serif" font-size="10.00">detail::offset_jitter</text>
<text text-anchor="middle" x="746.5" y="-49.5" font-family="Helvetica,sans-Serif" font-size="10.00">_enabled</text>
</a>
</g>
</g>
<!-- Node2 -->
<g id="Node000002" class="node">
<title>Node2</title>
<g id="a_Node000002"><a xlink:href="../../df/db5/namespaceCommon_1_1utils_1_1fi.html#acfb09a73d6c47be69d13cd5f1c968664" target="_top" xlink:title=" ">
<polygon fill="white" stroke="#666666" points="647,-126 536,-126 536,-96 647,-96 647,-126"/>
<text text-anchor="start" x="544" y="-114" font-family="Helvetica,sans-Serif" font-size="10.00">Common::utils::fi::</text>
<text text-anchor="middle" x="591.5" y="-103" font-family="Helvetica,sans-Serif" font-size="10.00">enable_offset_jitter</text>
</a>
</g>
</g>
<!-- Node1&#45;&gt;Node2 -->
<g id="edge1_Node000001_Node000002" class="edge">
<title>Node1&#45;&gt;Node2</title>
<g id="a_edge1_Node000001_Node000002"><a xlink:title=" ">
<path fill="none" stroke="#63b8ff" d="M683.11,-82.57C668.85,-87.05 653.91,-91.73 640.37,-95.98"/>
<polygon fill="#63b8ff" stroke="#63b8ff" points="684.35,-85.85 692.85,-79.52 682.26,-79.17 684.35,-85.85"/>
</a>
</g>
</g>
<!-- Node3 -->
<g id="Node000003" class="node">
<title>Node3</title>
<g id="a_Node000003"><a xlink:href="../../df/db5/namespaceCommon_1_1utils_1_1fi.html#a559225123b8c3e95a1a93186fb7aba1c" target="_top" xlink:title=" ">
<polygon fill="white" stroke="#666666" points="657,-78 526,-78 526,-48 657,-48 657,-78"/>
<text text-anchor="start" x="534" y="-66" font-family="Helvetica,sans-Serif" font-size="10.00">Common::utils::fi::</text>
<text text-anchor="middle" x="591.5" y="-55" font-family="Helvetica,sans-Serif" font-size="10.00">is_offset_jitter_enabled</text>
</a>
</g>
</g>
<!-- Node1&#45;&gt;Node3 -->
<g id="edge2_Node000001_Node000003" class="edge">
<title>Node1&#45;&gt;Node3</title>
<g id="a_edge2_Node000001_Node000003"><a xlink:title=" ">
<path fill="none" stroke="#63b8ff" d="M682.71,-63C674.27,-63 665.61,-63 657.15,-63"/>
<polygon fill="#63b8ff" stroke="#63b8ff" points="682.85,-66.5 692.85,-63 682.85,-59.5 682.85,-66.5"/>
</a>
</g>
</g>
<!-- Node8 -->
<g id="Node000008" class="node">
<title>Node8</title>
<g id="a_Node000008"><a xlink:href="../../df/db5/namespaceCommon_1_1utils_1_1fi.html#a691c946ff7c4af9396f7a04e00797620" target="_top" xlink:title=" ">
<polygon fill="white" stroke="#666666" points="644.5,-30 538.5,-30 538.5,0 644.5,0 644.5,-30"/>
<text text-anchor="start" x="546.5" y="-18" font-family="Helvetica,sans-Serif" font-size="10.00">Common::utils::fi::</text>
<text text-anchor="middle" x="591.5" y="-7" font-family="Helvetica,sans-Serif" font-size="10.00">reset</text>
</a>
</g>
</g>
<!-- Node1&#45;&gt;Node8 -->
<g id="edge8_Node000001_Node000008" class="edge">
<title>Node1&#45;&gt;Node8</title>
<g id="a_edge8_Node000001_Node000008"><a xlink:title=" ">
<path fill="none" stroke="#63b8ff" d="M683.11,-43.43C668.85,-38.95 653.91,-34.27 640.37,-30.02"/>
<polygon fill="#63b8ff" stroke="#63b8ff" points="682.26,-46.83 692.85,-46.48 684.35,-40.15 682.26,-46.83"/>
</a>
</g>
</g>
<!-- Node4 -->
<g id="Node000004" class="node">
<title>Node4</title>
<g id="a_Node000004"><a xlink:href="../../d3/d0d/structIEEE_1_1__1588_1_1PTP_1_1__2019_1_1Clocks_1_1SynchronizationData.html#a678490ba0932bf8bcdbe56c5b278e48f" target="_top" xlink:title="Calculate offset from master using timestamps.">
<polygon fill="white" stroke="#666666" points="168,-104.5 0,-104.5 0,-63.5 168,-63.5 168,-104.5"/>
<text text-anchor="start" x="8" y="-92.5" font-family="Helvetica,sans-Serif" font-size="10.00">IEEE::_1588::PTP::</text>
<text text-anchor="start" x="8" y="-81.5" font-family="Helvetica,sans-Serif" font-size="10.00">_2019::Clocks::Synchronization</text>
<text text-anchor="middle" x="84" y="-70.5" font-family="Helvetica,sans-Serif" font-size="10.00">Data::calculateOffset</text>
</a>
</g>
</g>
<!-- Node3&#45;&gt;Node4 -->
<g id="edge3_Node000003_Node000004" class="edge">
<title>Node3&#45;&gt;Node4</title>
<g id="a_edge3_Node000003_Node000004"><a xlink:title=" ">
<path fill="none" stroke="#63b8ff" d="M515.79,-66.1C422.86,-69.96 264.66,-76.54 168.01,-80.55"/>
<polygon fill="#63b8ff" stroke="#63b8ff" points="516.12,-69.59 525.96,-65.68 515.83,-62.6 516.12,-69.59"/>
</a>
</g>
</g>
<!-- Node5 -->
<g id="Node000005" class="node">
<title>Node5</title>
<g id="a_Node000005"><a xlink:href="../../d2/d0d/namespaceCommon_1_1utils_1_1health.html#aec9746d507dc8131538845de04614675" target="_top" xlink:title=" ">
<polygon fill="white" stroke="#666666" points="490,-56 365,-56 365,-26 490,-26 490,-56"/>
<text text-anchor="start" x="373" y="-44" font-family="Helvetica,sans-Serif" font-size="10.00">Common::utils::health</text>
<text text-anchor="middle" x="427.5" y="-33" font-family="Helvetica,sans-Serif" font-size="10.00">::self_test</text>
</a>
</g>
</g>
<!-- Node3&#45;&gt;Node5 -->
<g id="edge4_Node000003_Node000005" class="edge">
<title>Node3&#45;&gt;Node5</title>
<g id="a_edge4_Node000003_Node000005"><a xlink:title=" ">
<path fill="none" stroke="#63b8ff" d="M515.58,-52.83C507.03,-51.66 498.4,-50.49 490.05,-49.36"/>
<polygon fill="#63b8ff" stroke="#63b8ff" points="515.16,-56.3 525.54,-54.18 516.1,-49.36 515.16,-56.3"/>
</a>
</g>
</g>
<!-- Node6 -->
<g id="Node000006" class="node">
<title>Node6</title>
<g id="a_Node000006"><a xlink:href="../../d2/d0d/namespaceCommon_1_1utils_1_1health.html#a039bc597c3de1a97c0f78590dc2a51f8" target="_top" xlink:title=" ">
<polygon fill="white" stroke="#666666" points="329,-56 204,-56 204,-26 329,-26 329,-56"/>
<text text-anchor="start" x="212" y="-44" font-family="Helvetica,sans-Serif" font-size="10.00">Common::utils::health</text>
<text text-anchor="middle" x="266.5" y="-33" font-family="Helvetica,sans-Serif" font-size="10.00">::emit</text>
</a>
</g>
</g>
<!-- Node5&#45;&gt;Node6 -->
<g id="edge5_Node000005_Node000006" class="edge">
<title>Node5&#45;&gt;Node6</title>
<g id="a_edge5_Node000005_Node000006"><a xlink:title=" ">
<path fill="none" stroke="#63b8ff" d="M354.41,-41C346.01,-41 337.5,-41 329.26,-41"/>
<polygon fill="#63b8ff" stroke="#63b8ff" points="354.57,-44.5 364.57,-41 354.57,-37.5 354.57,-44.5"/>
</a>
</g>
</g>
<!-- Node6&#45;&gt;Node4 -->
<g id="edge6_Node000006_Node000004" class="edge">
<title>Node6&#45;&gt;Node4</title>
<g id="a_edge6_Node000006_Node000004"><a xlink:title=" ">
<path fill="none" stroke="#63b8ff" d="M194,-58.03C185.48,-60.06 176.72,-62.15 168.04,-64.22"/>
<polygon fill="#63b8ff" stroke="#63b8ff" points="194.97,-61.4 203.89,-55.68 193.35,-54.59 194.97,-61.4"/>
</a>
</g>
</g>
<!-- Node7 -->
<g id="Node000007" class="node">
<title>Node7</title>
<g id="a_Node000007"><a xlink:href="../../dd/d5b/classIEEE_1_1__1588_1_1PTP_1_1__2019_1_1Clocks_1_1PtpPort.html#a594179632de9591927ebe2d192e2288e" target="_top" xlink:title="Execute periodic state machine tasks.">
<polygon fill="white" stroke="#666666" points="158.5,-45 9.5,-45 9.5,-15 158.5,-15 158.5,-45"/>
<text text-anchor="start" x="17.5" y="-33" font-family="Helvetica,sans-Serif" font-size="10.00">IEEE::_1588::PTP::</text>
<text text-anchor="middle" x="84" y="-22" font-family="Helvetica,sans-Serif" font-size="10.00">_2019::Clocks::PtpPort::tick</text>
</a>
</g>
</g>
<!-- Node6&#45;&gt;Node7 -->
<g id="edge7_Node000006_Node000007" class="edge">
<title>Node6&#45;&gt;Node7</title>
<g id="a_edge7_Node000006_Node000007"><a xlink:title=" ">
<path fill="none" stroke="#63b8ff" d="M193.88,-36.64C182.35,-35.93 170.39,-35.2 158.8,-34.5"/>
<polygon fill="#63b8ff" stroke="#63b8ff" points="193.69,-40.13 203.89,-37.25 194.12,-33.14 193.69,-40.13"/>
</a>
</g>
</g>
</g>
</svg>

<g id="navigator" transform="translate(0 0)" fill="#404254">
  <rect fill="#f2f5e9" fill-opacity="0.5" stroke="#606060" stroke-width=".5" x="0" y="0" width="60" height="60"/>
  <use id="zoomplus" xlink:href="#zoomPlus" x="17" y="9" onmousedown="handleZoom(evt,'in')"/>
  <use id="zoomminus" xlink:href="#zoomMin" x="42" y="9" onmousedown="handleZoom(evt,'out')"/>
  <use id="reset" xlink:href="#resetDef" x="30" y="36" onmousedown="handleReset()"/>
   <use id="arrowup" xlink:href="#arrowUp" x="0" y="0" onmousedown="handlePan(0,-1)"/>
  <use id="arrowright" xlink:href="#arrowRight" x="0" y="0" onmousedown="handlePan(1,0)"/>
  <use id="arrowdown" xlink:href="#arrowDown" x="0" y="0" onmousedown="handlePan(0,1)"/>
  <use id="arrowleft" xlink:href="#arrowLeft" x="0" y="0" onmousedown="handlePan(-1,0)"/>
</g>
<svg viewBox="0 0 15 15" width="100%" height="30px" preserveAspectRatio="xMaxYMin meet">
 <g id="arrow_out" transform="scale(0.3 0.3)">
  <a xlink:href="namespaceCommon_1_1utils_1_1fi_1_1detail_ab2140c4babb8f3b7306403e77d17d29f_icgraph_org.svg" target="_base">
   <rect id="button" ry="5" rx="5" y="6" x="6" height="38" width="38"
        fill="#f2f5e9" fill-opacity="0.5" stroke="#606060" stroke-width="1.0"/>
   <path id="arrow"
     d="M 11.500037,31.436501 C 11.940474,20.09759 22.043105,11.32322 32.158766,21.979434 L 37.068811,17.246167 C 37.068811,17.246167 37.088388,32 37.088388,32 L 22.160133,31.978069 C 22.160133,31.978069 26.997745,27.140456 26.997745,27.140456 C 18.528582,18.264221 13.291696,25.230495 11.500037,31.436501 z"
     style="fill:#404040;"/>
  </a>
 </g>
</svg>

<style type='text/css'>
<![CDATA[
[data-mouse-over-selected='false'] { opacity: 0.7; }
[data-mouse-over-selected='true']  { opacity: 1.0; }
]]>
</style>
<script type="application/ecmascript"><![CDATA[
document.addEventListener('DOMContentLoaded', (event) => {
  highlightEdges();
  highlightAdjacentNodes();
});
]]></script>
</svg>
