<?xml version="1.0" encoding="UTF-8" standalone="no"?>
<!DOCTYPE svg PUBLIC "-//W3C//DTD SVG 1.1//EN"
 "http://www.w3.org/Graphics/SVG/1.1/DTD/svg11.dtd">
<!-- Generated by graphviz version 2.43.0 (0)
 -->
<!-- Title: Common::utils::fi::detail::offset_jitter_ns Pages: 1 -->
<svg width="481pt" height="140pt"
 viewBox="0.00 0.00 481.00 139.50" xmlns="http://www.w3.org/2000/svg" xmlns:xlink="http://www.w3.org/1999/xlink">
<g id="graph0" class="graph" transform="scale(1 1) rotate(0) translate(4 135.5)">
<title>Common::utils::fi::detail::offset_jitter_ns</title>
<!-- Node1 -->
<g id="Node000001" class="node">
<title>Node1</title>
<g id="a_Node000001"><a xlink:title=" ">
<polygon fill="#999999" stroke="#666666" points="473,-78 350,-78 350,-48 473,-48 473,-78"/>
<text text-anchor="start" x="358" y="-66" font-family="Helvetica,sans-Serif" font-size="10.00">Common::utils::fi::</text>
<text text-anchor="middle" x="411.5" y="-55" font-family="Helvetica,sans-Serif" font-size="10.00">detail::offset_jitter_ns</text>
</a>
</g>
</g>
<!-- Node2 -->
<g id="Node000002" class="node">
<title>Node2</title>
<g id="a_Node000002"><a xlink:href="../../df/db5/namespaceCommon_1_1utils_1_1fi.html#a38bf85a4ce24939548abd7b9466b65a9" target="_top" xlink:title=" ">
<polygon fill="white" stroke="#666666" points="314,-126 204,-126 204,-96 314,-96 314,-126"/>
<text text-anchor="start" x="212" y="-114" font-family="Helvetica,sans-Serif" font-size="10.00">Common::utils::fi::</text>
<text text-anchor="middle" x="259" y="-103" font-family="Helvetica,sans-Serif" font-size="10.00">get_offset_jitter_ns</text>
</a>
</g>
</g>
<!-- Node1&#45;&gt;Node2 -->
<g id="edge1_Node000001_Node000002" class="edge">
<title>Node1&#45;&gt;Node2</title>
<g id="a_edge1_Node000001_Node000002"><a xlink:title=" ">
<path fill="none" stroke="#63b8ff" d="M353.42,-81.21C338.11,-86.09 321.73,-91.31 307.04,-96"/>
<polygon fill="#63b8ff" stroke="#63b8ff" points="354.83,-84.43 363.29,-78.06 352.7,-77.76 354.83,-84.43"/>
</a>
</g>
</g>
<!-- Node4 -->
<g id="Node000004" class="node">
<title>Node4</title>
<g id="a_Node000004"><a xlink:href="../../df/db5/namespaceCommon_1_1utils_1_1fi.html#a691c946ff7c4af9396f7a04e00797620" target="_top" xlink:title=" ">
<polygon fill="white" stroke="#666666" points="312,-78 206,-78 206,-48 312,-48 312,-78"/>
<text text-anchor="start" x="214" y="-66" font-family="Helvetica,sans-Serif" font-size="10.00">Common::utils::fi::</text>
<text text-anchor="middle" x="259" y="-55" font-family="Helvetica,sans-Serif" font-size="10.00">reset</text>
</a>
</g>
</g>
<!-- Node1&#45;&gt;Node4 -->
<g id="edge3_Node000001_Node000004" class="edge">
<title>Node1&#45;&gt;Node4</title>
<g id="a_edge3_Node000001_Node000004"><a xlink:title=" ">
<path fill="none" stroke="#63b8ff" d="M339.45,-63C330.31,-63 321.07,-63 312.3,-63"/>
<polygon fill="#63b8ff" stroke="#63b8ff" points="339.72,-66.5 349.72,-63 339.72,-59.5 339.72,-66.5"/>
</a>
</g>
</g>
<!-- Node5 -->
<g id="Node000005" class="node">
<title>Node5</title>
<g id="a_Node000005"><a xlink:href="../../df/db5/namespaceCommon_1_1utils_1_1fi.html#ae8380bede332275bd1c5c6a64fba2265" target="_top" xlink:title=" ">
<polygon fill="white" stroke="#666666" points="314,-30 204,-30 204,0 314,0 314,-30"/>
<text text-anchor="start" x="212" y="-18" font-family="Helvetica,sans-Serif" font-size="10.00">Common::utils::fi::</text>
<text text-anchor="middle" x="259" y="-7" font-family="Helvetica,sans-Serif" font-size="10.00">set_offset_jitter_ns</text>
</a>
</g>
</g>
<!-- Node1&#45;&gt;Node5 -->
<g id="edge4_Node000001_Node000005" class="edge">
<title>Node1&#45;&gt;Node5</title>
<g id="a_edge4_Node000001_Node000005"><a xlink:title=" ">
<path fill="none" stroke="#63b8ff" d="M353.42,-44.79C338.11,-39.91 321.73,-34.69 307.04,-30"/>
<polygon fill="#63b8ff" stroke="#63b8ff" points="352.7,-48.24 363.29,-47.94 354.83,-41.57 352.7,-48.24"/>
</a>
</g>
</g>
<!-- Node3 -->
<g id="Node000003" class="node">
<title>Node3</title>
<g id="a_Node000003"><a xlink:href="../../d3/d0d/structIEEE_1_1__1588_1_1PTP_1_1__2019_1_1Clocks_1_1SynchronizationData.html#a678490ba0932bf8bcdbe56c5b278e48f" target="_top" xlink:title="Calculate offset from master using timestamps.">
<polygon fill="white" stroke="#666666" points="168,-131.5 0,-131.5 0,-90.5 168,-90.5 168,-131.5"/>
<text text-anchor="start" x="8" y="-119.5" font-family="Helvetica,sans-Serif" font-size="10.00">IEEE::_1588::PTP::</text>
<text text-anchor="start" x="8" y="-108.5" font-family="Helvetica,sans-Serif" font-size="10.00">_2019::Clocks::Synchronization</text>
<text text-anchor="middle" x="84" y="-97.5" font-family="Helvetica,sans-Serif" font-size="10.00">Data::calculateOffset</text>
</a>
</g>
</g>
<!-- Node2&#45;&gt;Node3 -->
<g id="edge2_Node000002_Node000003" class="edge">
<title>Node2&#45;&gt;Node3</title>
<g id="a_edge2_Node000002_Node000003"><a xlink:title=" ">
<path fill="none" stroke="#63b8ff" d="M193.47,-111C185.23,-111 176.7,-111 168.22,-111"/>
<polygon fill="#63b8ff" stroke="#63b8ff" points="193.74,-114.5 203.74,-111 193.74,-107.5 193.74,-114.5"/>
</a>
</g>
</g>
</g>
</svg>
