<?xml version="1.0" encoding="UTF-8" standalone="no"?>
<!DOCTYPE svg PUBLIC "-//W3C//DTD SVG 1.1//EN"
 "http://www.w3.org/Graphics/SVG/1.1/DTD/svg11.dtd">
<!-- Generated by graphviz version 2.43.0 (0)
 -->
<!-- Title: Common::utils::fi::detail::offset_jitter_enabled Pages: 1 -->
<svg width="808pt" height="134pt"
 viewBox="0.00 0.00 808.00 134.00" xmlns="http://www.w3.org/2000/svg" xmlns:xlink="http://www.w3.org/1999/xlink">
<g id="graph0" class="graph" transform="scale(1 1) rotate(0) translate(4 130)">
<title>Common::utils::fi::detail::offset_jitter_enabled</title>
<!-- Node1 -->
<g id="Node000001" class="node">
<title>Node1</title>
<g id="a_Node000001"><a xlink:title=" ">
<polygon fill="#999999" stroke="#666666" points="800,-83.5 693,-83.5 693,-42.5 800,-42.5 800,-83.5"/>
<text text-anchor="start" x="701" y="-71.5" font-family="Helvetica,sans-Serif" font-size="10.00">Common::utils::fi::</text>
<text text-anchor="start" x="701" y="-60.5" font-family="Helvetica,sans-Serif" font-size="10.00">detail::offset_jitter</text>
<text text-anchor="middle" x="746.5" y="-49.5" font-family="Helvetica,sans-Serif" font-size="10.00">_enabled</text>
</a>
</g>
</g>
<!-- Node2 -->
<g id="Node000002" class="node">
<title>Node2</title>
<g id="a_Node000002"><a xlink:href="../../df/db5/namespaceCommon_1_1utils_1_1fi.html#acfb09a73d6c47be69d13cd5f1c968664" target="_top" xlink:title=" ">
<polygon fill="white" stroke="#666666" points="647,-126 536,-126 536,-96 647,-96 647,-126"/>
<text text-anchor="start" x="544" y="-114" font-family="Helvetica,sans-Serif" font-size="10.00">Common::utils::fi::</text>
<text text-anchor="middle" x="591.5" y="-103" font-family="Helvetica,sans-Serif" font-size="10.00">enable_offset_jitter</text>
</a>
</g>
</g>
<!-- Node1&#45;&gt;Node2 -->
<g id="edge1_Node000001_Node000002" class="edge">
<title>Node1&#45;&gt;Node2</title>
<g id="a_edge1_Node000001_Node000002"><a xlink:title=" ">
<path fill="none" stroke="#63b8ff" d="M683.11,-82.57C668.85,-87.05 653.91,-91.73 640.37,-95.98"/>
<polygon fill="#63b8ff" stroke="#63b8ff" points="684.35,-85.85 692.85,-79.52 682.26,-79.17 684.35,-85.85"/>
</a>
</g>
</g>
<!-- Node3 -->
<g id="Node000003" class="node">
<title>Node3</title>
<g id="a_Node000003"><a xlink:href="../../df/db5/namespaceCommon_1_1utils_1_1fi.html#a559225123b8c3e95a1a93186fb7aba1c" target="_top" xlink:title=" ">
<polygon fill="white" stroke="#666666" points="657,-78 526,-78 526,-48 657,-48 657,-78"/>
<text text-anchor="start" x="534" y="-66" font-family="Helvetica,sans-Serif" font-size="10.00">Common::utils::fi::</text>
<text text-anchor="middle" x="591.5" y="-55" font-family="Helvetica,sans-Serif" font-size="10.00">is_offset_jitter_enabled</text>
</a>
</g>
</g>
<!-- Node1&#45;&gt;Node3 -->
<g id="edge2_Node000001_Node000003" class="edge">
<title>Node1&#45;&gt;Node3</title>
<g id="a_edge2_Node000001_Node000003"><a xlink:title=" ">
<path fill="none" stroke="#63b8ff" d="M682.71,-63C674.27,-63 665.61,-63 657.15,-63"/>
<polygon fill="#63b8ff" stroke="#63b8ff" points="682.85,-66.5 692.85,-63 682.85,-59.5 682.85,-66.5"/>
</a>
</g>
</g>
<!-- Node8 -->
<g id="Node000008" class="node">
<title>Node8</title>
<g id="a_Node000008"><a xlink:href="../../df/db5/namespaceCommon_1_1utils_1_1fi.html#a691c946ff7c4af9396f7a04e00797620" target="_top" xlink:title=" ">
<polygon fill="white" stroke="#666666" points="644.5,-30 538.5,-30 538.5,0 644.5,0 644.5,-30"/>
<text text-anchor="start" x="546.5" y="-18" font-family="Helvetica,sans-Serif" font-size="10.00">Common::utils::fi::</text>
<text text-anchor="middle" x="591.5" y="-7" font-family="Helvetica,sans-Serif" font-size="10.00">reset</text>
</a>
</g>
</g>
<!-- Node1&#45;&gt;Node8 -->
<g id="edge8_Node000001_Node000008" class="edge">
<title>Node1&#45;&gt;Node8</title>
<g id="a_edge8_Node000001_Node000008"><a xlink:title=" ">
<path fill="none" stroke="#63b8ff" d="M683.11,-43.43C668.85,-38.95 653.91,-34.27 640.37,-30.02"/>
<polygon fill="#63b8ff" stroke="#63b8ff" points="682.26,-46.83 692.85,-46.48 684.35,-40.15 682.26,-46.83"/>
</a>
</g>
</g>
<!-- Node4 -->
<g id="Node000004" class="node">
<title>Node4</title>
<g id="a_Node000004"><a xlink:href="../../d3/d0d/structIEEE_1_1__1588_1_1PTP_1_1__2019_1_1Clocks_1_1SynchronizationData.html#a678490ba0932bf8bcdbe56c5b278e48f" target="_top" xlink:title="Calculate offset from master using timestamps.">
<polygon fill="white" stroke="#666666" points="168,-104.5 0,-104.5 0,-63.5 168,-63.5 168,-104.5"/>
<text text-anchor="start" x="8" y="-92.5" font-family="Helvetica,sans-Serif" font-size="10.00">IEEE::_1588::PTP::</text>
<text text-anchor="start" x="8" y="-81.5" font-family="Helvetica,sans-Serif" font-size="10.00">_2019::Clocks::Synchronization</text>
<text text-anchor="middle" x="84" y="-70.5" font-family="Helvetica,sans-Serif" font-size="10.00">Data::calculateOffset</text>
</a>
</g>
</g>
<!-- Node3&#45;&gt;Node4 -->
<g id="edge3_Node000003_Node000004" class="edge">
<title>Node3&#45;&gt;Node4</title>
<g id="a_edge3_Node000003_Node000004"><a xlink:title=" ">
<path fill="none" stroke="#63b8ff" d="M515.79,-66.1C422.86,-69.96 264.66,-76.54 168.01,-80.55"/>
<polygon fill="#63b8ff" stroke="#63b8ff" points="516.12,-69.59 525.96,-65.68 515.83,-62.6 516.12,-69.59"/>
</a>
</g>
</g>
<!-- Node5 -->
<g id="Node000005" class="node">
<title>Node5</title>
<g id="a_Node000005"><a xlink:href="../../d2/d0d/namespaceCommon_1_1utils_1_1health.html#aec9746d507dc8131538845de04614675" target="_top" xlink:title=" ">
<polygon fill="white" stroke="#666666" points="490,-56 365,-56 365,-26 490,-26 490,-56"/>
<text text-anchor="start" x="373" y="-44" font-family="Helvetica,sans-Serif" font-size="10.00">Common::utils::health</text>
<text text-anchor="middle" x="427.5" y="-33" font-family="Helvetica,sans-Serif" font-size="10.00">::self_test</text>
</a>
</g>
</g>
<!-- Node3&#45;&gt;Node5 -->
<g id="edge4_Node000003_Node000005" class="edge">
<title>Node3&#45;&gt;Node5</title>
<g id="a_edge4_Node000003_Node000005"><a xlink:title=" ">
<path fill="none" stroke="#63b8ff" d="M515.58,-52.83C507.03,-51.66 498.4,-50.49 490.05,-49.36"/>
<polygon fill="#63b8ff" stroke="#63b8ff" points="515.16,-56.3 525.54,-54.18 516.1,-49.36 515.16,-56.3"/>
</a>
</g>
</g>
<!-- Node6 -->
<g id="Node000006" class="node">
<title>Node6</title>
<g id="a_Node000006"><a xlink:href="../../d2/d0d/namespaceCommon_1_1utils_1_1health.html#a039bc597c3de1a97c0f78590dc2a51f8" target="_top" xlink:title=" ">
<polygon fill="white" stroke="#666666" points="329,-56 204,-56 204,-26 329,-26 329,-56"/>
<text text-anchor="start" x="212" y="-44" font-family="Helvetica,sans-Serif" font-size="10.00">Common::utils::health</text>
<text text-anchor="middle" x="266.5" y="-33" font-family="Helvetica,sans-Serif" font-size="10.00">::emit</text>
</a>
</g>
</g>
<!-- Node5&#45;&gt;Node6 -->
<g id="edge5_Node000005_Node000006" class="edge">
<title>Node5&#45;&gt;Node6</title>
<g id="a_edge5_Node000005_Node000006"><a xlink:title=" ">
<path fill="none" stroke="#63b8ff" d="M354.41,-41C346.01,-41 337.5,-41 329.26,-41"/>
<polygon fill="#63b8ff" stroke="#63b8ff" points="354.57,-44.5 364.57,-41 354.57,-37.5 354.57,-44.5"/>
</a>
</g>
</g>
<!-- Node6&#45;&gt;Node4 -->
<g id="edge6_Node000006_Node000004" class="edge">
<title>Node6&#45;&gt;Node4</title>
<g id="a_edge6_Node000006_Node000004"><a xlink:title=" ">
<path fill="none" stroke="#63b8ff" d="M194,-58.03C185.48,-60.06 176.72,-62.15 168.04,-64.22"/>
<polygon fill="#63b8ff" stroke="#63b8ff" points="194.97,-61.4 203.89,-55.68 193.35,-54.59 194.97,-61.4"/>
</a>
</g>
</g>
<!-- Node7 -->
<g id="Node000007" class="node">
<title>Node7</title>
<g id="a_Node000007"><a xlink:href="../../dd/d5b/classIEEE_1_1__1588_1_1PTP_1_1__2019_1_1Clocks_1_1PtpPort.html#a594179632de9591927ebe2d192e2288e" target="_top" xlink:title="Execute periodic state machine tasks.">
<polygon fill="white" stroke="#666666" points="158.5,-45 9.5,-45 9.5,-15 158.5,-15 158.5,-45"/>
<text text-anchor="start" x="17.5" y="-33" font-family="Helvetica,sans-Serif" font-size="10.00">IEEE::_1588::PTP::</text>
<text text-anchor="middle" x="84" y="-22" font-family="Helvetica,sans-Serif" font-size="10.00">_2019::Clocks::PtpPort::tick</text>
</a>
</g>
</g>
<!-- Node6&#45;&gt;Node7 -->
<g id="edge7_Node000006_Node000007" class="edge">
<title>Node6&#45;&gt;Node7</title>
<g id="a_edge7_Node000006_Node000007"><a xlink:title=" ">
<path fill="none" stroke="#63b8ff" d="M193.88,-36.64C182.35,-35.93 170.39,-35.2 158.8,-34.5"/>
<polygon fill="#63b8ff" stroke="#63b8ff" points="193.69,-40.13 203.89,-37.25 194.12,-33.14 193.69,-40.13"/>
</a>
</g>
</g>
</g>
</svg>
