<?xml version="1.0" encoding="UTF-8" standalone="no"?>
<!DOCTYPE svg PUBLIC "-//W3C//DTD SVG 1.1//EN"
 "http://www.w3.org/Graphics/SVG/1.1/DTD/svg11.dtd">
<!-- Generated by graphviz version 2.43.0 (0)
 -->
<!-- Title: Common::utils::metrics::detail::counters Pages: 1 -->
<svg width="898pt" height="173pt"
 viewBox="0.00 0.00 898.00 172.50" xmlns="http://www.w3.org/2000/svg" xmlns:xlink="http://www.w3.org/1999/xlink">
<g id="graph0" class="graph" transform="scale(1 1) rotate(0) translate(4 168.5)">
<title>Common::utils::metrics::detail::counters</title>
<!-- Node1 -->
<g id="Node000001" class="node">
<title>Node1</title>
<g id="a_Node000001"><a xlink:title=" ">
<polygon fill="#999999" stroke="#666666" points="890,-99 759,-99 759,-69 890,-69 890,-99"/>
<text text-anchor="start" x="767" y="-87" font-family="Helvetica,sans-Serif" font-size="10.00">Common::utils::metrics</text>
<text text-anchor="middle" x="824.5" y="-76" font-family="Helvetica,sans-Serif" font-size="10.00">::detail::counters</text>
</a>
</g>
</g>
<!-- Node2 -->
<g id="Node000002" class="node">
<title>Node2</title>
<g id="a_Node000002"><a xlink:href="../../da/d3c/namespaceCommon_1_1utils_1_1metrics.html#ad00d54590ea6b9d55d3f7ac3b56fe83c" target="_top" xlink:title=" ">
<polygon fill="white" stroke="#666666" points="723,-153.5 571,-153.5 571,-134.5 723,-134.5 723,-153.5"/>
<text text-anchor="middle" x="647" y="-141.5" font-family="Helvetica,sans-Serif" font-size="10.00">Common::utils::metrics::get</text>
</a>
</g>
</g>
<!-- Node1&#45;&gt;Node2 -->
<g id="edge1_Node000001_Node000002" class="edge">
<title>Node1&#45;&gt;Node2</title>
<g id="a_edge1_Node000001_Node000002"><a xlink:title=" ">
<path fill="none" stroke="#63b8ff" d="M772.88,-102.51C756.96,-108.24 739.28,-114.48 723,-120 708.5,-124.92 692.33,-130.12 678.73,-134.43"/>
<polygon fill="#63b8ff" stroke="#63b8ff" points="774.32,-105.72 782.54,-99.03 771.94,-99.13 774.32,-105.72"/>
</a>
</g>
</g>
<!-- Node5 -->
<g id="Node000005" class="node">
<title>Node5</title>
<g id="a_Node000005"><a xlink:href="../../da/d3c/namespaceCommon_1_1utils_1_1metrics.html#a03bb1ad6c5348aaaf75d0217bbb2dd63" target="_top" xlink:title=" ">
<polygon fill="white" stroke="#666666" points="535,-104 404,-104 404,-74 535,-74 535,-104"/>
<text text-anchor="start" x="412" y="-92" font-family="Helvetica,sans-Serif" font-size="10.00">Common::utils::metrics</text>
<text text-anchor="middle" x="469.5" y="-81" font-family="Helvetica,sans-Serif" font-size="10.00">::increment</text>
</a>
</g>
</g>
<!-- Node1&#45;&gt;Node5 -->
<g id="edge4_Node000001_Node000005" class="edge">
<title>Node1&#45;&gt;Node5</title>
<g id="a_edge4_Node000001_Node000005"><a xlink:title=" ">
<path fill="none" stroke="#63b8ff" d="M748.75,-86.41C740.07,-86.64 731.34,-86.84 723,-87 659.12,-88.21 586.13,-88.69 535.11,-88.88"/>
<polygon fill="#63b8ff" stroke="#63b8ff" points="749,-89.91 758.9,-86.14 748.81,-82.91 749,-89.91"/>
</a>
</g>
</g>
<!-- Node7 -->
<g id="Node000007" class="node">
<title>Node7</title>
<g id="a_Node000007"><a xlink:href="../../da/d3c/namespaceCommon_1_1utils_1_1metrics.html#ad79f6ccc91ba143fe01d18a27b611c89" target="_top" xlink:title=" ">
<polygon fill="white" stroke="#666666" points="712.5,-78 581.5,-78 581.5,-48 712.5,-48 712.5,-78"/>
<text text-anchor="start" x="589.5" y="-66" font-family="Helvetica,sans-Serif" font-size="10.00">Common::utils::metrics</text>
<text text-anchor="middle" x="647" y="-55" font-family="Helvetica,sans-Serif" font-size="10.00">::reset</text>
</a>
</g>
</g>
<!-- Node1&#45;&gt;Node7 -->
<g id="edge6_Node000001_Node000007" class="edge">
<title>Node1&#45;&gt;Node7</title>
<g id="a_edge6_Node000001_Node000007"><a xlink:title=" ">
<path fill="none" stroke="#63b8ff" d="M748.66,-75.05C736.66,-73.61 724.32,-72.13 712.58,-70.73"/>
<polygon fill="#63b8ff" stroke="#63b8ff" points="748.3,-78.53 758.65,-76.24 749.14,-71.58 748.3,-78.53"/>
</a>
</g>
</g>
<!-- Node8 -->
<g id="Node000008" class="node">
<title>Node8</title>
<g id="a_Node000008"><a xlink:href="../../da/d3c/namespaceCommon_1_1utils_1_1metrics.html#a91a447237c08bb1ce67d7a5a40b18341" target="_top" xlink:title=" ">
<polygon fill="white" stroke="#666666" points="712.5,-30 581.5,-30 581.5,0 712.5,0 712.5,-30"/>
<text text-anchor="start" x="589.5" y="-18" font-family="Helvetica,sans-Serif" font-size="10.00">Common::utils::metrics</text>
<text text-anchor="middle" x="647" y="-7" font-family="Helvetica,sans-Serif" font-size="10.00">::snapshot</text>
</a>
</g>
</g>
<!-- Node1&#45;&gt;Node8 -->
<g id="edge7_Node000001_Node000008" class="edge">
<title>Node1&#45;&gt;Node8</title>
<g id="a_edge7_Node000001_Node000008"><a xlink:title=" ">
<path fill="none" stroke="#63b8ff" d="M783.06,-64.66C764.89,-56.29 743.07,-46.68 723,-39 714.96,-35.92 706.33,-32.91 697.89,-30.11"/>
<polygon fill="#63b8ff" stroke="#63b8ff" points="781.65,-67.86 792.19,-68.9 784.6,-61.51 781.65,-67.86"/>
</a>
</g>
</g>
<!-- Node3 -->
<g id="Node000003" class="node">
<title>Node3</title>
<g id="a_Node000003"><a xlink:href="../../dd/d5b/classIEEE_1_1__1588_1_1PTP_1_1__2019_1_1Clocks_1_1PtpPort.html#a4ab8635c746ecdc8190cb48fe0762e9f" target="_top" xlink:title="Process received Follow_Up message.">
<polygon fill="white" stroke="#666666" points="532,-164.5 407,-164.5 407,-123.5 532,-123.5 532,-164.5"/>
<text text-anchor="start" x="415" y="-152.5" font-family="Helvetica,sans-Serif" font-size="10.00">IEEE::_1588::PTP::</text>
<text text-anchor="start" x="415" y="-141.5" font-family="Helvetica,sans-Serif" font-size="10.00">_2019::Clocks::PtpPort</text>
<text text-anchor="middle" x="469.5" y="-130.5" font-family="Helvetica,sans-Serif" font-size="10.00">::process_follow_up</text>
</a>
</g>
</g>
<!-- Node2&#45;&gt;Node3 -->
<g id="edge2_Node000002_Node000003" class="edge">
<title>Node2&#45;&gt;Node3</title>
<g id="a_edge2_Node000002_Node000003"><a xlink:title=" ">
<path fill="none" stroke="#63b8ff" d="M560.75,-144C551.07,-144 541.35,-144 532.05,-144"/>
<polygon fill="#63b8ff" stroke="#63b8ff" points="560.81,-147.5 570.81,-144 560.81,-140.5 560.81,-147.5"/>
</a>
</g>
</g>
<!-- Node4 -->
<g id="Node000004" class="node">
<title>Node4</title>
<g id="a_Node000004"><a xlink:href="../../d0/d7d/classIEEE_1_1__1588_1_1PTP_1_1__2019_1_1Clocks_1_1BoundaryClock.html#a8d21ce8a95c4f7fcee5ab7853fa6c60e" target="_top" xlink:title="Process received PTP message on specific port.">
<polygon fill="white" stroke="#666666" points="368,-164.5 204,-164.5 204,-123.5 368,-123.5 368,-164.5"/>
<text text-anchor="start" x="212" y="-152.5" font-family="Helvetica,sans-Serif" font-size="10.00">IEEE::_1588::PTP::</text>
<text text-anchor="start" x="212" y="-141.5" font-family="Helvetica,sans-Serif" font-size="10.00">_2019::Clocks::BoundaryClock</text>
<text text-anchor="middle" x="286" y="-130.5" font-family="Helvetica,sans-Serif" font-size="10.00">::process_message</text>
</a>
</g>
</g>
<!-- Node3&#45;&gt;Node4 -->
<g id="edge3_Node000003_Node000004" class="edge">
<title>Node3&#45;&gt;Node4</title>
<g id="a_edge3_Node000003_Node000004"><a xlink:title=" ">
<path fill="none" stroke="#63b8ff" d="M396.74,-144C387.34,-144 377.67,-144 368.13,-144"/>
<polygon fill="#63b8ff" stroke="#63b8ff" points="396.8,-147.5 406.8,-144 396.8,-140.5 396.8,-147.5"/>
</a>
</g>
</g>
<!-- Node6 -->
<g id="Node000006" class="node">
<title>Node6</title>
<g id="a_Node000006"><a xlink:href="../../d3/d0d/structIEEE_1_1__1588_1_1PTP_1_1__2019_1_1Clocks_1_1SynchronizationData.html#a678490ba0932bf8bcdbe56c5b278e48f" target="_top" xlink:title="Calculate offset from master using timestamps.">
<polygon fill="white" stroke="#666666" points="168,-105.5 0,-105.5 0,-64.5 168,-64.5 168,-105.5"/>
<text text-anchor="start" x="8" y="-93.5" font-family="Helvetica,sans-Serif" font-size="10.00">IEEE::_1588::PTP::</text>
<text text-anchor="start" x="8" y="-82.5" font-family="Helvetica,sans-Serif" font-size="10.00">_2019::Clocks::Synchronization</text>
<text text-anchor="middle" x="84" y="-71.5" font-family="Helvetica,sans-Serif" font-size="10.00">Data::calculateOffset</text>
</a>
</g>
</g>
<!-- Node5&#45;&gt;Node6 -->
<g id="edge5_Node000005_Node000006" class="edge">
<title>Node5&#45;&gt;Node6</title>
<g id="a_edge5_Node000005_Node000006"><a xlink:title=" ">
<path fill="none" stroke="#63b8ff" d="M393.74,-88.22C329.01,-87.55 235.47,-86.57 168.34,-85.87"/>
<polygon fill="#63b8ff" stroke="#63b8ff" points="393.84,-91.72 403.88,-88.33 393.92,-84.72 393.84,-91.72"/>
</a>
</g>
</g>
<!-- Node9 -->
<g id="Node000009" class="node">
<title>Node9</title>
<g id="a_Node000009"><a xlink:href="../../d2/d0d/namespaceCommon_1_1utils_1_1health.html#aec9746d507dc8131538845de04614675" target="_top" xlink:title=" ">
<polygon fill="white" stroke="#666666" points="532,-31 407,-31 407,-1 532,-1 532,-31"/>
<text text-anchor="start" x="415" y="-19" font-family="Helvetica,sans-Serif" font-size="10.00">Common::utils::health</text>
<text text-anchor="middle" x="469.5" y="-8" font-family="Helvetica,sans-Serif" font-size="10.00">::self_test</text>
</a>
</g>
</g>
<!-- Node8&#45;&gt;Node9 -->
<g id="edge8_Node000008_Node000009" class="edge">
<title>Node8&#45;&gt;Node9</title>
<g id="a_edge8_Node000008_Node000009"><a xlink:title=" ">
<path fill="none" stroke="#63b8ff" d="M570.89,-15.43C557.97,-15.5 544.68,-15.58 532.17,-15.65"/>
<polygon fill="#63b8ff" stroke="#63b8ff" points="571.17,-18.93 581.15,-15.37 571.13,-11.93 571.17,-18.93"/>
</a>
</g>
</g>
<!-- Node10 -->
<g id="Node000010" class="node">
<title>Node10</title>
<g id="a_Node000010"><a xlink:href="../../d2/d0d/namespaceCommon_1_1utils_1_1health.html#a039bc597c3de1a97c0f78590dc2a51f8" target="_top" xlink:title=" ">
<polygon fill="white" stroke="#666666" points="348.5,-41 223.5,-41 223.5,-11 348.5,-11 348.5,-41"/>
<text text-anchor="start" x="231.5" y="-29" font-family="Helvetica,sans-Serif" font-size="10.00">Common::utils::health</text>
<text text-anchor="middle" x="286" y="-18" font-family="Helvetica,sans-Serif" font-size="10.00">::emit</text>
</a>
</g>
</g>
<!-- Node9&#45;&gt;Node10 -->
<g id="edge9_Node000009_Node000010" class="edge">
<title>Node9&#45;&gt;Node10</title>
<g id="a_edge9_Node000009_Node000010"><a xlink:title=" ">
<path fill="none" stroke="#63b8ff" d="M396.5,-19.97C380.63,-20.84 363.95,-21.76 348.53,-22.61"/>
<polygon fill="#63b8ff" stroke="#63b8ff" points="397.01,-23.44 406.8,-19.4 396.62,-16.46 397.01,-23.44"/>
</a>
</g>
</g>
<!-- Node10&#45;&gt;Node6 -->
<g id="edge10_Node000010_Node000006" class="edge">
<title>Node10&#45;&gt;Node6</title>
<g id="a_edge10_Node000010_Node000006"><a xlink:title=" ">
<path fill="none" stroke="#63b8ff" d="M224.18,-43.94C202.26,-50.41 177.37,-57.75 154.76,-64.42"/>
<polygon fill="#63b8ff" stroke="#63b8ff" points="225.41,-47.23 234.01,-41.04 223.43,-40.51 225.41,-47.23"/>
</a>
</g>
</g>
<!-- Node11 -->
<g id="Node000011" class="node">
<title>Node11</title>
<g id="a_Node000011"><a xlink:href="../../dd/d5b/classIEEE_1_1__1588_1_1PTP_1_1__2019_1_1Clocks_1_1PtpPort.html#a594179632de9591927ebe2d192e2288e" target="_top" xlink:title="Execute periodic state machine tasks.">
<polygon fill="white" stroke="#666666" points="158.5,-41 9.5,-41 9.5,-11 158.5,-11 158.5,-41"/>
<text text-anchor="start" x="17.5" y="-29" font-family="Helvetica,sans-Serif" font-size="10.00">IEEE::_1588::PTP::</text>
<text text-anchor="middle" x="84" y="-18" font-family="Helvetica,sans-Serif" font-size="10.00">_2019::Clocks::PtpPort::tick</text>
</a>
</g>
</g>
<!-- Node10&#45;&gt;Node11 -->
<g id="edge11_Node000010_Node000011" class="edge">
<title>Node10&#45;&gt;Node11</title>
<g id="a_edge11_Node000010_Node000011"><a xlink:title=" ">
<path fill="none" stroke="#63b8ff" d="M213.12,-26C195.45,-26 176.5,-26 158.74,-26"/>
<polygon fill="#63b8ff" stroke="#63b8ff" points="213.36,-29.5 223.36,-26 213.36,-22.5 213.36,-29.5"/>
</a>
</g>
</g>
</g>
</svg>
