<?xml version="1.0" encoding="UTF-8" standalone="no"?>
<!DOCTYPE svg PUBLIC "-//W3C//DTD SVG 1.1//EN"
 "http://www.w3.org/Graphics/SVG/1.1/DTD/svg11.dtd">
<!-- Generated by graphviz version 2.43.0 (0)
 -->
<!-- Title: Common::utils::health::self_test Pages: 1 -->
<svg width="475pt" height="230pt"
 viewBox="0.00 0.00 475.00 230.00" xmlns="http://www.w3.org/2000/svg" xmlns:xlink="http://www.w3.org/1999/xlink">
<g id="graph0" class="graph" transform="scale(1 1) rotate(0) translate(4 226)">
<title>Common::utils::health::self_test</title>
<!-- Node1 -->
<g id="Node000001" class="node">
<title>Node1</title>
<g id="a_Node000001"><a xlink:title=" ">
<polygon fill="#999999" stroke="#666666" points="125,-126 0,-126 0,-96 125,-96 125,-126"/>
<text text-anchor="start" x="8" y="-114" font-family="Helvetica,sans-Serif" font-size="10.00">Common::utils::health</text>
<text text-anchor="middle" x="62.5" y="-103" font-family="Helvetica,sans-Serif" font-size="10.00">::self_test</text>
</a>
</g>
</g>
<!-- Node2 -->
<g id="Node000002" class="node">
<title>Node2</title>
<g id="a_Node000002"><a xlink:href="../../d5/d7e/namespaceCommon_1_1utils_1_1health_1_1detail.html#a35fac6eb49eb88a95a0eb9e8a37f9c46" target="_top" xlink:title=" ">
<polygon fill="white" stroke="#666666" points="299,-222 162,-222 162,-192 299,-192 299,-222"/>
<text text-anchor="start" x="170" y="-210" font-family="Helvetica,sans-Serif" font-size="10.00">Common::utils::health</text>
<text text-anchor="middle" x="230.5" y="-199" font-family="Helvetica,sans-Serif" font-size="10.00">::detail::bmca_tie_forced</text>
</a>
</g>
</g>
<!-- Node1&#45;&gt;Node2 -->
<g id="edge1_Node000001_Node000002" class="edge">
<title>Node1&#45;&gt;Node2</title>
<g id="a_edge1_Node000001_Node000002"><a xlink:title=" ">
<path fill="none" stroke="#63b8ff" d="M80.75,-126.25C99.44,-142.16 130.68,-166.96 161,-183 164.31,-184.75 167.78,-186.42 171.33,-188"/>
<polygon fill="#63b8ff" stroke="#63b8ff" points="170.25,-191.35 180.82,-191.98 172.95,-184.89 170.25,-191.35"/>
</a>
</g>
</g>
<!-- Node3 -->
<g id="Node000003" class="node">
<title>Node3</title>
<g id="a_Node000003"><a xlink:href="../../df/db5/namespaceCommon_1_1utils_1_1fi.html#a559225123b8c3e95a1a93186fb7aba1c" target="_top" xlink:title=" ">
<polygon fill="white" stroke="#666666" points="296,-174 165,-174 165,-144 296,-144 296,-174"/>
<text text-anchor="start" x="173" y="-162" font-family="Helvetica,sans-Serif" font-size="10.00">Common::utils::fi::</text>
<text text-anchor="middle" x="230.5" y="-151" font-family="Helvetica,sans-Serif" font-size="10.00">is_offset_jitter_enabled</text>
</a>
</g>
</g>
<!-- Node1&#45;&gt;Node3 -->
<g id="edge2_Node000001_Node000003" class="edge">
<title>Node1&#45;&gt;Node3</title>
<g id="a_edge2_Node000001_Node000003"><a xlink:title=" ">
<path fill="none" stroke="#63b8ff" d="M115.57,-126.06C132.1,-130.84 150.54,-136.17 167.69,-141.13"/>
<polygon fill="#63b8ff" stroke="#63b8ff" points="167.04,-144.58 177.62,-144 168.98,-137.86 167.04,-144.58"/>
</a>
</g>
</g>
<!-- Node5 -->
<g id="Node000005" class="node">
<title>Node5</title>
<g id="a_Node000005"><a xlink:href="../../d5/d7e/namespaceCommon_1_1utils_1_1health_1_1detail.html#ac739d4b51b96e82b000ee9251f7d87ec" target="_top" xlink:title=" ">
<polygon fill="white" stroke="#666666" points="300,-126 161,-126 161,-96 300,-96 300,-126"/>
<text text-anchor="start" x="169" y="-114" font-family="Helvetica,sans-Serif" font-size="10.00">Common::utils::health</text>
<text text-anchor="middle" x="230.5" y="-103" font-family="Helvetica,sans-Serif" font-size="10.00">::detail::last_bmca_index</text>
</a>
</g>
</g>
<!-- Node1&#45;&gt;Node5 -->
<g id="edge4_Node000001_Node000005" class="edge">
<title>Node1&#45;&gt;Node5</title>
<g id="a_edge4_Node000001_Node000005"><a xlink:title=" ">
<path fill="none" stroke="#63b8ff" d="M125.31,-111C133.66,-111 142.31,-111 150.91,-111"/>
<polygon fill="#63b8ff" stroke="#63b8ff" points="150.94,-114.5 160.94,-111 150.94,-107.5 150.94,-114.5"/>
</a>
</g>
</g>
<!-- Node6 -->
<g id="Node000006" class="node">
<title>Node6</title>
<g id="a_Node000006"><a xlink:href="../../d5/d7e/namespaceCommon_1_1utils_1_1health_1_1detail.html#ae4b87c4bfd1a0f705bcf13248e6db814" target="_top" xlink:title=" ">
<polygon fill="white" stroke="#666666" points="293,-78 168,-78 168,-48 293,-48 293,-78"/>
<text text-anchor="start" x="176" y="-66" font-family="Helvetica,sans-Serif" font-size="10.00">Common::utils::health</text>
<text text-anchor="middle" x="230.5" y="-55" font-family="Helvetica,sans-Serif" font-size="10.00">::detail::last_offset_ns</text>
</a>
</g>
</g>
<!-- Node1&#45;&gt;Node6 -->
<g id="edge5_Node000001_Node000006" class="edge">
<title>Node1&#45;&gt;Node6</title>
<g id="a_edge5_Node000001_Node000006"><a xlink:title=" ">
<path fill="none" stroke="#63b8ff" d="M115.57,-95.94C132.1,-91.16 150.54,-85.83 167.69,-80.87"/>
<polygon fill="#63b8ff" stroke="#63b8ff" points="168.98,-84.14 177.62,-78 167.04,-77.42 168.98,-84.14"/>
</a>
</g>
</g>
<!-- Node7 -->
<g id="Node000007" class="node">
<title>Node7</title>
<g id="a_Node000007"><a xlink:href="../../da/d3c/namespaceCommon_1_1utils_1_1metrics.html#a91a447237c08bb1ce67d7a5a40b18341" target="_top" xlink:title=" ">
<polygon fill="white" stroke="#666666" points="296,-30 165,-30 165,0 296,0 296,-30"/>
<text text-anchor="start" x="173" y="-18" font-family="Helvetica,sans-Serif" font-size="10.00">Common::utils::metrics</text>
<text text-anchor="middle" x="230.5" y="-7" font-family="Helvetica,sans-Serif" font-size="10.00">::snapshot</text>
</a>
</g>
</g>
<!-- Node1&#45;&gt;Node7 -->
<g id="edge6_Node000001_Node000007" class="edge">
<title>Node1&#45;&gt;Node7</title>
<g id="a_edge6_Node000001_Node000007"><a xlink:title=" ">
<path fill="none" stroke="#63b8ff" d="M80.75,-95.75C99.44,-79.84 130.68,-55.04 161,-39 164.31,-37.25 167.78,-35.58 171.33,-34"/>
<polygon fill="#63b8ff" stroke="#63b8ff" points="172.95,-37.11 180.82,-30.02 170.25,-30.65 172.95,-37.11"/>
</a>
</g>
</g>
<!-- Node4 -->
<g id="Node000004" class="node">
<title>Node4</title>
<g id="a_Node000004"><a xlink:href="../../df/d79/namespaceCommon_1_1utils_1_1fi_1_1detail.html#ab2140c4babb8f3b7306403e77d17d29f" target="_top" xlink:title=" ">
<polygon fill="white" stroke="#666666" points="455,-179.5 348,-179.5 348,-138.5 455,-138.5 455,-179.5"/>
<text text-anchor="start" x="356" y="-167.5" font-family="Helvetica,sans-Serif" font-size="10.00">Common::utils::fi::</text>
<text text-anchor="start" x="356" y="-156.5" font-family="Helvetica,sans-Serif" font-size="10.00">detail::offset_jitter</text>
<text text-anchor="middle" x="401.5" y="-145.5" font-family="Helvetica,sans-Serif" font-size="10.00">_enabled</text>
</a>
</g>
</g>
<!-- Node3&#45;&gt;Node4 -->
<g id="edge3_Node000003_Node000004" class="edge">
<title>Node3&#45;&gt;Node4</title>
<g id="a_edge3_Node000003_Node000004"><a xlink:title=" ">
<path fill="none" stroke="#63b8ff" d="M296.36,-159C309.93,-159 324.22,-159 337.72,-159"/>
<polygon fill="#63b8ff" stroke="#63b8ff" points="337.86,-162.5 347.86,-159 337.86,-155.5 337.86,-162.5"/>
</a>
</g>
</g>
<!-- Node8 -->
<g id="Node000008" class="node">
<title>Node8</title>
<g id="a_Node000008"><a xlink:href="../../d5/d53/namespaceCommon_1_1utils_1_1metrics_1_1detail.html#aa3719e4e32c969a881318a4788803429" target="_top" xlink:title=" ">
<polygon fill="white" stroke="#666666" points="467,-30 336,-30 336,0 467,0 467,-30"/>
<text text-anchor="start" x="344" y="-18" font-family="Helvetica,sans-Serif" font-size="10.00">Common::utils::metrics</text>
<text text-anchor="middle" x="401.5" y="-7" font-family="Helvetica,sans-Serif" font-size="10.00">::detail::counters</text>
</a>
</g>
</g>
<!-- Node7&#45;&gt;Node8 -->
<g id="edge7_Node000007_Node000008" class="edge">
<title>Node7&#45;&gt;Node8</title>
<g id="a_edge7_Node000007_Node000008"><a xlink:title=" ">
<path fill="none" stroke="#63b8ff" d="M296.36,-15C305.96,-15 315.92,-15 325.71,-15"/>
<polygon fill="#63b8ff" stroke="#63b8ff" points="325.82,-18.5 335.82,-15 325.82,-11.5 325.82,-18.5"/>
</a>
</g>
</g>
</g>
</svg>
