<?xml version="1.0" encoding="UTF-8" standalone="no"?>
<!DOCTYPE svg PUBLIC "-//W3C//DTD SVG 1.1//EN"
 "http://www.w3.org/Graphics/SVG/1.1/DTD/svg11.dtd">
<!-- Generated by graphviz version 2.43.0 (0)
 -->
<!-- Title: Common::utils::health::emit Pages: 1 -->
<!--zoomable 230 -->

<svg id="main" version="1.1" xmlns="http://www.w3.org/2000/svg" xmlns:xlink="http://www.w3.org/1999/xlink" xml:space="preserve" onload="init(evt)">
<style type="text/css"><![CDATA[
.node, .edge {opacity: 0.7;}
.node.selected, .edge.selected {opacity: 1;}
.edge:hover path { stroke: red; }
.edge:hover polygon { stroke: red; fill: red; }
]]></style>

<defs>
  <circle id="rim" cx="0" cy="0" r="7"/>
  <circle id="rim2" cx="0" cy="0" r="3.5"/>
  <g id="zoomPlus">
    <use xlink:href="#rim" fill="#404040"><set attributeName="fill" to="#808080" begin="zoomplus.mouseover" end="zoomplus.mouseout"/></use>
    <path d="M-4,0h8M0,-4v8" fill="none" stroke="white" stroke-width="1.5" pointer-events="none"/>
  </g>
  <g id="zoomMin">
    <use xlink:href="#rim" fill="#404040"><set attributeName="fill" to="#808080" begin="zoomminus.mouseover" end="zoomminus.mouseout"/></use>
    <path d="M-4,0h8" fill="none" stroke="white" stroke-width="1.5" pointer-events="none"/>
  </g>
  <g id="arrowUp" transform="translate(30 24)">
    <use xlink:href="#rim"/>
    <path pointer-events="none" fill="none" stroke="white" stroke-width="1.5" d="M0,-3.0v7 M-2.5,-0.5L0,-3.0L2.5,-0.5"/>
  </g>
  <g id="arrowRight" transform="rotate(90) translate(36 -43)">
    <use xlink:href="#rim"/>
    <path pointer-events="none" fill="none" stroke="white" stroke-width="1.5" d="M0,-3.0v7 M-2.5,-0.5L0,-3.0L2.5,-0.5"/>
  </g>
  <g id="arrowDown" transform="rotate(180) translate(-30 -48)">
    <use xlink:href="#rim"/>
    <path pointer-events="none" fill="none" stroke="white" stroke-width="1.5" d="M0,-3.0v7 M-2.5,-0.5L0,-3.0L2.5,-0.5"/>
  </g>
  <g id="arrowLeft" transform="rotate(270) translate(-36 17)">
    <use xlink:href="#rim"/>
    <path pointer-events="none" fill="none" stroke="white" stroke-width="1.5" d="M0,-3.0v7 M-2.5,-0.5L0,-3.0L2.5,-0.5"/>
  </g>
  <g id="resetDef">
    <use xlink:href="#rim2" fill="#404040"><set attributeName="fill" to="#808080" begin="reset.mouseover" end="reset.mouseout"/></use>
  </g>
</defs>
<script type="application/ecmascript">
var viewWidth = 636;
var viewHeight = 230;
var sectionId = 'dynsection-0';
</script>
<script type="application/ecmascript" xlink:href="../../svg.min.js"/>
<svg id="graph" class="graph">
<g id="viewport">
<title>Common::utils::health::emit</title>
<!-- Node1 -->
<g id="Node000001" class="node">
<title>Node1</title>
<g id="a_Node000001"><a xlink:title=" ">
<polygon fill="#999999" stroke="#666666" points="125,-150 0,-150 0,-120 125,-120 125,-150"/>
<text text-anchor="start" x="8" y="-138" font-family="Helvetica,sans-Serif" font-size="10.00">Common::utils::health</text>
<text text-anchor="middle" x="62.5" y="-127" font-family="Helvetica,sans-Serif" font-size="10.00">::emit</text>
</a>
</g>
</g>
<!-- Node2 -->
<g id="Node000002" class="node">
<title>Node2</title>
<g id="a_Node000002"><a xlink:href="../../d5/d7e/namespaceCommon_1_1utils_1_1health_1_1detail.html#ad44220949fd128899e071696e6e472d4" target="_top" xlink:title=" ">
<polygon fill="white" stroke="#666666" points="286,-174 161,-174 161,-144 286,-144 286,-174"/>
<text text-anchor="start" x="169" y="-162" font-family="Helvetica,sans-Serif" font-size="10.00">Common::utils::health</text>
<text text-anchor="middle" x="223.5" y="-151" font-family="Helvetica,sans-Serif" font-size="10.00">::detail::observer</text>
</a>
</g>
</g>
<!-- Node1&#45;&gt;Node2 -->
<g id="edge1_Node000001_Node000002" class="edge">
<title>Node1&#45;&gt;Node2</title>
<g id="a_edge1_Node000001_Node000002"><a xlink:title=" ">
<path fill="none" stroke="#63b8ff" d="M125.43,-144.35C133.67,-145.59 142.18,-146.88 150.58,-148.14"/>
<polygon fill="#63b8ff" stroke="#63b8ff" points="150.33,-151.65 160.74,-149.68 151.37,-144.72 150.33,-151.65"/>
</a>
</g>
</g>
<!-- Node3 -->
<g id="Node000003" class="node">
<title>Node3</title>
<g id="a_Node000003"><a xlink:href="../../d2/d0d/namespaceCommon_1_1utils_1_1health.html#aec9746d507dc8131538845de04614675" target="_top" xlink:title=" ">
<polygon fill="white" stroke="#666666" points="286,-126 161,-126 161,-96 286,-96 286,-126"/>
<text text-anchor="start" x="169" y="-114" font-family="Helvetica,sans-Serif" font-size="10.00">Common::utils::health</text>
<text text-anchor="middle" x="223.5" y="-103" font-family="Helvetica,sans-Serif" font-size="10.00">::self_test</text>
</a>
</g>
</g>
<!-- Node1&#45;&gt;Node3 -->
<g id="edge2_Node000001_Node000003" class="edge">
<title>Node1&#45;&gt;Node3</title>
<g id="a_edge2_Node000001_Node000003"><a xlink:title=" ">
<path fill="none" stroke="#63b8ff" d="M125.43,-125.65C133.67,-124.41 142.18,-123.12 150.58,-121.86"/>
<polygon fill="#63b8ff" stroke="#63b8ff" points="151.37,-125.28 160.74,-120.32 150.33,-118.35 151.37,-125.28"/>
</a>
</g>
</g>
<!-- Node4 -->
<g id="Node000004" class="node">
<title>Node4</title>
<g id="a_Node000004"><a xlink:href="../../d5/d7e/namespaceCommon_1_1utils_1_1health_1_1detail.html#a35fac6eb49eb88a95a0eb9e8a37f9c46" target="_top" xlink:title=" ">
<polygon fill="white" stroke="#666666" points="460,-222 323,-222 323,-192 460,-192 460,-222"/>
<text text-anchor="start" x="331" y="-210" font-family="Helvetica,sans-Serif" font-size="10.00">Common::utils::health</text>
<text text-anchor="middle" x="391.5" y="-199" font-family="Helvetica,sans-Serif" font-size="10.00">::detail::bmca_tie_forced</text>
</a>
</g>
</g>
<!-- Node3&#45;&gt;Node4 -->
<g id="edge3_Node000003_Node000004" class="edge">
<title>Node3&#45;&gt;Node4</title>
<g id="a_edge3_Node000003_Node000004"><a xlink:title=" ">
<path fill="none" stroke="#63b8ff" d="M271.33,-126.04C276.51,-128.63 281.53,-131.6 286,-135 307.23,-151.13 300.49,-167.24 322,-183 324.05,-184.5 326.19,-185.91 328.41,-187.24"/>
<polygon fill="#63b8ff" stroke="#63b8ff" points="326.81,-190.35 337.28,-191.96 330.1,-184.17 326.81,-190.35"/>
</a>
</g>
</g>
<!-- Node5 -->
<g id="Node000005" class="node">
<title>Node5</title>
<g id="a_Node000005"><a xlink:href="../../df/db5/namespaceCommon_1_1utils_1_1fi.html#a559225123b8c3e95a1a93186fb7aba1c" target="_top" xlink:title=" ">
<polygon fill="white" stroke="#666666" points="457,-174 326,-174 326,-144 457,-144 457,-174"/>
<text text-anchor="start" x="334" y="-162" font-family="Helvetica,sans-Serif" font-size="10.00">Common::utils::fi::</text>
<text text-anchor="middle" x="391.5" y="-151" font-family="Helvetica,sans-Serif" font-size="10.00">is_offset_jitter_enabled</text>
</a>
</g>
</g>
<!-- Node3&#45;&gt;Node5 -->
<g id="edge4_Node000003_Node000005" class="edge">
<title>Node3&#45;&gt;Node5</title>
<g id="a_edge4_Node000003_Node000005"><a xlink:title=" ">
<path fill="none" stroke="#63b8ff" d="M276.57,-126.06C293.1,-130.84 311.54,-136.17 328.69,-141.13"/>
<polygon fill="#63b8ff" stroke="#63b8ff" points="328.04,-144.58 338.62,-144 329.98,-137.86 328.04,-144.58"/>
</a>
</g>
</g>
<!-- Node7 -->
<g id="Node000007" class="node">
<title>Node7</title>
<g id="a_Node000007"><a xlink:href="../../d5/d7e/namespaceCommon_1_1utils_1_1health_1_1detail.html#ac739d4b51b96e82b000ee9251f7d87ec" target="_top" xlink:title=" ">
<polygon fill="white" stroke="#666666" points="461,-126 322,-126 322,-96 461,-96 461,-126"/>
<text text-anchor="start" x="330" y="-114" font-family="Helvetica,sans-Serif" font-size="10.00">Common::utils::health</text>
<text text-anchor="middle" x="391.5" y="-103" font-family="Helvetica,sans-Serif" font-size="10.00">::detail::last_bmca_index</text>
</a>
</g>
</g>
<!-- Node3&#45;&gt;Node7 -->
<g id="edge6_Node000003_Node000007" class="edge">
<title>Node3&#45;&gt;Node7</title>
<g id="a_edge6_Node000003_Node000007"><a xlink:title=" ">
<path fill="none" stroke="#63b8ff" d="M286.31,-111C294.66,-111 303.31,-111 311.91,-111"/>
<polygon fill="#63b8ff" stroke="#63b8ff" points="311.94,-114.5 321.94,-111 311.94,-107.5 311.94,-114.5"/>
</a>
</g>
</g>
<!-- Node8 -->
<g id="Node000008" class="node">
<title>Node8</title>
<g id="a_Node000008"><a xlink:href="../../d5/d7e/namespaceCommon_1_1utils_1_1health_1_1detail.html#ae4b87c4bfd1a0f705bcf13248e6db814" target="_top" xlink:title=" ">
<polygon fill="white" stroke="#666666" points="454,-78 329,-78 329,-48 454,-48 454,-78"/>
<text text-anchor="start" x="337" y="-66" font-family="Helvetica,sans-Serif" font-size="10.00">Common::utils::health</text>
<text text-anchor="middle" x="391.5" y="-55" font-family="Helvetica,sans-Serif" font-size="10.00">::detail::last_offset_ns</text>
</a>
</g>
</g>
<!-- Node3&#45;&gt;Node8 -->
<g id="edge7_Node000003_Node000008" class="edge">
<title>Node3&#45;&gt;Node8</title>
<g id="a_edge7_Node000003_Node000008"><a xlink:title=" ">
<path fill="none" stroke="#63b8ff" d="M276.57,-95.94C293.1,-91.16 311.54,-85.83 328.69,-80.87"/>
<polygon fill="#63b8ff" stroke="#63b8ff" points="329.98,-84.14 338.62,-78 328.04,-77.42 329.98,-84.14"/>
</a>
</g>
</g>
<!-- Node9 -->
<g id="Node000009" class="node">
<title>Node9</title>
<g id="a_Node000009"><a xlink:href="../../da/d3c/namespaceCommon_1_1utils_1_1metrics.html#a91a447237c08bb1ce67d7a5a40b18341" target="_top" xlink:title=" ">
<polygon fill="white" stroke="#666666" points="457,-30 326,-30 326,0 457,0 457,-30"/>
<text text-anchor="start" x="334" y="-18" font-family="Helvetica,sans-Serif" font-size="10.00">Common::utils::metrics</text>
<text text-anchor="middle" x="391.5" y="-7" font-family="Helvetica,sans-Serif" font-size="10.00">::snapshot</text>
</a>
</g>
</g>
<!-- Node3&#45;&gt;Node9 -->
<g id="edge8_Node000003_Node000009" class="edge">
<title>Node3&#45;&gt;Node9</title>
<g id="a_edge8_Node000003_Node000009"><a xlink:title=" ">
<path fill="none" stroke="#63b8ff" d="M241.75,-95.75C260.44,-79.84 291.68,-55.04 322,-39 325.31,-37.25 328.78,-35.58 332.33,-34"/>
<polygon fill="#63b8ff" stroke="#63b8ff" points="333.95,-37.11 341.82,-30.02 331.25,-30.65 333.95,-37.11"/>
</a>
</g>
</g>
<!-- Node6 -->
<g id="Node000006" class="node">
<title>Node6</title>
<g id="a_Node000006"><a xlink:href="../../df/d79/namespaceCommon_1_1utils_1_1fi_1_1detail.html#ab2140c4babb8f3b7306403e77d17d29f" target="_top" xlink:title=" ">
<polygon fill="white" stroke="#666666" points="616,-179.5 509,-179.5 509,-138.5 616,-138.5 616,-179.5"/>
<text text-anchor="start" x="517" y="-167.5" font-family="Helvetica,sans-Serif" font-size="10.00">Common::utils::fi::</text>
<text text-anchor="start" x="517" y="-156.5" font-family="Helvetica,sans-Serif" font-size="10.00">detail::offset_jitter</text>
<text text-anchor="middle" x="562.5" y="-145.5" font-family="Helvetica,sans-Serif" font-size="10.00">_enabled</text>
</a>
</g>
</g>
<!-- Node5&#45;&gt;Node6 -->
<g id="edge5_Node000005_Node000006" class="edge">
<title>Node5&#45;&gt;Node6</title>
<g id="a_edge5_Node000005_Node000006"><a xlink:title=" ">
<path fill="none" stroke="#63b8ff" d="M457.36,-159C470.93,-159 485.22,-159 498.72,-159"/>
<polygon fill="#63b8ff" stroke="#63b8ff" points="498.86,-162.5 508.86,-159 498.86,-155.5 498.86,-162.5"/>
</a>
</g>
</g>
<!-- Node10 -->
<g id="Node000010" class="node">
<title>Node10</title>
<g id="a_Node000010"><a xlink:href="../../d5/d53/namespaceCommon_1_1utils_1_1metrics_1_1detail.html#aa3719e4e32c969a881318a4788803429" target="_top" xlink:title=" ">
<polygon fill="white" stroke="#666666" points="628,-30 497,-30 497,0 628,0 628,-30"/>
<text text-anchor="start" x="505" y="-18" font-family="Helvetica,sans-Serif" font-size="10.00">Common::utils::metrics</text>
<text text-anchor="middle" x="562.5" y="-7" font-family="Helvetica,sans-Serif" font-size="10.00">::detail::counters</text>
</a>
</g>
</g>
<!-- Node9&#45;&gt;Node10 -->
<g id="edge9_Node000009_Node000010" class="edge">
<title>Node9&#45;&gt;Node10</title>
<g id="a_edge9_Node000009_Node000010"><a xlink:title=" ">
<path fill="none" stroke="#63b8ff" d="M457.36,-15C466.96,-15 476.92,-15 486.71,-15"/>
<polygon fill="#63b8ff" stroke="#63b8ff" points="486.82,-18.5 496.82,-15 486.82,-11.5 486.82,-18.5"/>
</a>
</g>
</g>
</g>
</svg>

<g id="navigator" transform="translate(0 0)" fill="#404254">
  <rect fill="#f2f5e9" fill-opacity="0.5" stroke="#606060" stroke-width=".5" x="0" y="0" width="60" height="60"/>
  <use id="zoomplus" xlink:href="#zoomPlus" x="17" y="9" onmousedown="handleZoom(evt,'in')"/>
  <use id="zoomminus" xlink:href="#zoomMin" x="42" y="9" onmousedown="handleZoom(evt,'out')"/>
  <use id="reset" xlink:href="#resetDef" x="30" y="36" onmousedown="handleReset()"/>
   <use id="arrowup" xlink:href="#arrowUp" x="0" y="0" onmousedown="handlePan(0,-1)"/>
  <use id="arrowright" xlink:href="#arrowRight" x="0" y="0" onmousedown="handlePan(1,0)"/>
  <use id="arrowdown" xlink:href="#arrowDown" x="0" y="0" onmousedown="handlePan(0,1)"/>
  <use id="arrowleft" xlink:href="#arrowLeft" x="0" y="0" onmousedown="handlePan(-1,0)"/>
</g>
<svg viewBox="0 0 15 15" width="100%" height="30px" preserveAspectRatio="xMaxYMin meet">
 <g id="arrow_out" transform="scale(0.3 0.3)">
  <a xlink:href="namespaceCommon_1_1utils_1_1health_a039bc597c3de1a97c0f78590dc2a51f8_cgraph_org.svg" target="_base">
   <rect id="button" ry="5" rx="5" y="6" x="6" height="38" width="38"
        fill="#f2f5e9" fill-opacity="0.5" stroke="#606060" stroke-width="1.0"/>
   <path id="arrow"
     d="M 11.500037,31.436501 C 11.940474,20.09759 22.043105,11.32322 32.158766,21.979434 L 37.068811,17.246167 C 37.068811,17.246167 37.088388,32 37.088388,32 L 22.160133,31.978069 C 22.160133,31.978069 26.997745,27.140456 26.997745,27.140456 C 18.528582,18.264221 13.291696,25.230495 11.500037,31.436501 z"
     style="fill:#404040;"/>
  </a>
 </g>
</svg>

<style type='text/css'>
<![CDATA[
[data-mouse-over-selected='false'] { opacity: 0.7; }
[data-mouse-over-selected='true']  { opacity: 1.0; }
]]>
</style>
<script type="application/ecmascript"><![CDATA[
document.addEventListener('DOMContentLoaded', (event) => {
  highlightEdges();
  highlightAdjacentNodes();
});
]]></script>
</svg>
