<?xml version="1.0" encoding="UTF-8" standalone="no"?>
<!DOCTYPE svg PUBLIC "-//W3C//DTD SVG 1.1//EN"
 "http://www.w3.org/Graphics/SVG/1.1/DTD/svg11.dtd">
<!-- Generated by graphviz version 2.43.0 (0)
 -->
<!-- Title: IEEE::_1588::PTP::_2019::SyncHealthStatus Pages: 1 -->
<svg width="140pt" height="336pt"
 viewBox="0.00 0.00 140.00 336.00" xmlns="http://www.w3.org/2000/svg" xmlns:xlink="http://www.w3.org/1999/xlink">
<g id="graph0" class="graph" transform="scale(1 1) rotate(0) translate(4 332)">
<title>IEEE::_1588::PTP::_2019::SyncHealthStatus</title>
<!-- Node1 -->
<g id="Node000001" class="node">
<title>Node1</title>
<g id="a_Node000001"><a xlink:title="Synchronization health indicators.">
<polygon fill="#999999" stroke="transparent" points="132,-135 0,-135 0,0 132,0 132,-135"/>
<text text-anchor="start" x="5" y="-122.5" font-family="Helvetica,sans-Serif" font-size="10.00">IEEE::_1588::PTP::</text>
<text text-anchor="start" x="5" y="-111.5" font-family="Helvetica,sans-Serif" font-size="10.00">_2019::SyncHealthStatus</text>
<text text-anchor="start" x="6" y="-96.5" font-family="Helvetica,sans-Serif" font-size="10.00">+</text>
<text text-anchor="start" x="21" y="-96.5" font-family="Helvetica,sans-Serif" font-size="10.00">status</text>
<text text-anchor="start" x="6" y="-81.5" font-family="Helvetica,sans-Serif" font-size="10.00">+</text>
<text text-anchor="start" x="21" y="-81.5" font-family="Helvetica,sans-Serif" font-size="10.00">timestamp_ns</text>
<text text-anchor="start" x="6" y="-66.5" font-family="Helvetica,sans-Serif" font-size="10.00">+</text>
<text text-anchor="start" x="21" y="-66.5" font-family="Helvetica,sans-Serif" font-size="10.00">offset_within_spec</text>
<text text-anchor="start" x="6" y="-51.5" font-family="Helvetica,sans-Serif" font-size="10.00">+</text>
<text text-anchor="start" x="21" y="-51.5" font-family="Helvetica,sans-Serif" font-size="10.00">delay_stable</text>
<text text-anchor="start" x="6" y="-36.5" font-family="Helvetica,sans-Serif" font-size="10.00">+</text>
<text text-anchor="start" x="21" y="-36.5" font-family="Helvetica,sans-Serif" font-size="10.00">measurements_valid</text>
<text text-anchor="start" x="6" y="-21.5" font-family="Helvetica,sans-Serif" font-size="10.00">+</text>
<text text-anchor="start" x="21" y="-21.5" font-family="Helvetica,sans-Serif" font-size="10.00">servo_locked</text>
<text text-anchor="start" x="64" y="-6.5" font-family="Helvetica,sans-Serif" font-size="10.00"> </text>
<polygon fill="#666666" stroke="#666666" points="0,-106.5 0,-106.5 132,-106.5 132,-106.5 0,-106.5"/>
<polygon fill="#666666" stroke="#666666" points="0,-16.5 0,-16.5 19,-16.5 19,-16.5 0,-16.5"/>
<polygon fill="#666666" stroke="#666666" points="19,-16.5 19,-16.5 132,-16.5 132,-16.5 19,-16.5"/>
<polygon fill="none" stroke="#666666" points="0,0 0,-135 132,-135 132,0 0,0"/>
</a>
</g>
</g>
<!-- Node2 -->
<g id="Node000002" class="node">
<title>Node2</title>
<g id="a_Node000002"><a xlink:title=" ">
<polygon fill="white" stroke="transparent" points="95.5,-231 36.5,-231 36.5,-182 95.5,-182 95.5,-231"/>
<text text-anchor="start" x="42" y="-218.5" font-family="Helvetica,sans-Serif" font-size="10.00">std::string</text>
<text text-anchor="start" x="64.5" y="-203.5" font-family="Helvetica,sans-Serif" font-size="10.00"> </text>
<text text-anchor="start" x="64.5" y="-188.5" font-family="Helvetica,sans-Serif" font-size="10.00"> </text>
<polygon fill="#666666" stroke="#666666" points="37,-213.5 37,-213.5 96,-213.5 96,-213.5 37,-213.5"/>
<polygon fill="#666666" stroke="#666666" points="37,-198.5 37,-198.5 96,-198.5 96,-198.5 37,-198.5"/>
<polygon fill="none" stroke="#666666" points="36.5,-182 36.5,-231 95.5,-231 95.5,-182 36.5,-182"/>
</a>
</g>
</g>
<!-- Node2&#45;&gt;Node1 -->
<g id="edge1_Node000001_Node000002" class="edge">
<title>Node2&#45;&gt;Node1</title>
<g id="a_edge1_Node000001_Node000002"><a xlink:title=" ">
<path fill="none" stroke="#63b8ff" d="M66,-181.95C66,-172.03 66,-159.87 66,-147.23"/>
<polygon fill="none" stroke="#63b8ff" points="66,-147.03 62,-141.03 66,-135.03 70,-141.03 66,-147.03"/>
</a>
</g>
<text text-anchor="middle" x="94" y="-156" font-family="Helvetica,sans-Serif" font-size="10.00" fill="grey"> +message</text>
</g>
<!-- Node3 -->
<g id="Node000003" class="node">
<title>Node3</title>
<g id="a_Node000003"><a xlink:title=" ">
<polygon fill="white" stroke="transparent" points="115,-328 17,-328 17,-268 115,-268 115,-328"/>
<text text-anchor="start" x="22" y="-316" font-family="Helvetica,sans-Serif" font-size="10.00">std::basic_string&lt;</text>
<text text-anchor="start" x="47.5" y="-305" font-family="Helvetica,sans-Serif" font-size="10.00"> Char &gt;</text>
<text text-anchor="start" x="64" y="-290" font-family="Helvetica,sans-Serif" font-size="10.00"> </text>
<text text-anchor="start" x="64" y="-275" font-family="Helvetica,sans-Serif" font-size="10.00"> </text>
<polygon fill="#666666" stroke="#666666" points="17,-300 17,-300 115,-300 115,-300 17,-300"/>
<polygon fill="#666666" stroke="#666666" points="17,-285 17,-285 115,-285 115,-285 17,-285"/>
<polygon fill="none" stroke="#666666" points="17,-268 17,-328 115,-328 115,-268 17,-268"/>
</a>
</g>
</g>
<!-- Node3&#45;&gt;Node2 -->
<g id="edge2_Node000002_Node000003" class="edge">
<title>Node3&#45;&gt;Node2</title>
<g id="a_edge2_Node000002_Node000003"><a xlink:title=" ">
<path fill="none" stroke="#63b8ff" d="M66,-257.41C66,-248.47 66,-239.25 66,-231.21"/>
<polygon fill="none" stroke="#63b8ff" points="62.5,-257.69 66,-267.69 69.5,-257.69 62.5,-257.69"/>
</a>
</g>
</g>
</g>
</svg>
