<?xml version="1.0" encoding="UTF-8" standalone="no"?>
<!DOCTYPE svg PUBLIC "-//W3C//DTD SVG 1.1//EN"
 "http://www.w3.org/Graphics/SVG/1.1/DTD/svg11.dtd">
<!-- Generated by graphviz version 2.43.0 (0)
 -->
<!-- Title: IEEE::_1588::PTP::_2019::Integration::BMCAStatistics::reset Pages: 1 -->
<svg width="508pt" height="108pt"
 viewBox="0.00 0.00 508.00 108.00" xmlns="http://www.w3.org/2000/svg" xmlns:xlink="http://www.w3.org/1999/xlink">
<g id="graph0" class="graph" transform="scale(1 1) rotate(0) translate(4 104)">
<title>IEEE::_1588::PTP::_2019::Integration::BMCAStatistics::reset</title>
<!-- Node1 -->
<g id="Node000001" class="node">
<title>Node1</title>
<g id="a_Node000001"><a xlink:title="Reset all statistics to initial state.">
<polygon fill="#999999" stroke="#666666" points="500,-70 378,-70 378,-29 500,-29 500,-70"/>
<text text-anchor="start" x="386" y="-58" font-family="Helvetica,sans-Serif" font-size="10.00">IEEE::_1588::PTP::</text>
<text text-anchor="start" x="386" y="-47" font-family="Helvetica,sans-Serif" font-size="10.00">_2019::Integration::</text>
<text text-anchor="middle" x="439" y="-36" font-family="Helvetica,sans-Serif" font-size="10.00">BMCAStatistics::reset</text>
</a>
</g>
</g>
<!-- Node2 -->
<g id="Node000002" class="node">
<title>Node2</title>
<g id="a_Node000002"><a xlink:href="../../d1/db2/classIEEE_1_1__1588_1_1PTP_1_1__2019_1_1Integration_1_1BMCAIntegration.html#ad5d8a03b174bec5d8c52faa6ec46d310" target="_top" xlink:title="Reset all statistics and health indicators.">
<polygon fill="white" stroke="#666666" points="342,-100 212,-100 212,-59 342,-59 342,-100"/>
<text text-anchor="start" x="220" y="-88" font-family="Helvetica,sans-Serif" font-size="10.00">IEEE::_1588::PTP::</text>
<text text-anchor="start" x="220" y="-77" font-family="Helvetica,sans-Serif" font-size="10.00">_2019::Integration::</text>
<text text-anchor="middle" x="277" y="-66" font-family="Helvetica,sans-Serif" font-size="10.00">BMCAIntegration::reset</text>
</a>
</g>
</g>
<!-- Node1&#45;&gt;Node2 -->
<g id="edge1_Node000001_Node000002" class="edge">
<title>Node1&#45;&gt;Node2</title>
<g id="a_edge1_Node000001_Node000002"><a xlink:title=" ">
<path fill="none" stroke="#63b8ff" d="M367.97,-62.63C359.37,-64.24 350.62,-65.88 342.12,-67.48"/>
<polygon fill="#63b8ff" stroke="#63b8ff" points="368.78,-66.04 377.97,-60.76 367.49,-59.16 368.78,-66.04"/>
</a>
</g>
</g>
<!-- Node3 -->
<g id="Node000003" class="node">
<title>Node3</title>
<g id="a_Node000003"><a xlink:href="../../d1/db2/classIEEE_1_1__1588_1_1PTP_1_1__2019_1_1Integration_1_1BMCAIntegration.html#a697fef5b98bc6c79c858bd428419018c" target="_top" xlink:title="Start BMCA execution coordination.">
<polygon fill="white" stroke="#666666" points="341,-41 213,-41 213,0 341,0 341,-41"/>
<text text-anchor="start" x="221" y="-29" font-family="Helvetica,sans-Serif" font-size="10.00">IEEE::_1588::PTP::</text>
<text text-anchor="start" x="221" y="-18" font-family="Helvetica,sans-Serif" font-size="10.00">_2019::Integration::</text>
<text text-anchor="middle" x="277" y="-7" font-family="Helvetica,sans-Serif" font-size="10.00">BMCAIntegration::start</text>
</a>
</g>
</g>
<!-- Node1&#45;&gt;Node3 -->
<g id="edge2_Node000001_Node000003" class="edge">
<title>Node1&#45;&gt;Node3</title>
<g id="a_edge2_Node000001_Node000003"><a xlink:title=" ">
<path fill="none" stroke="#63b8ff" d="M367.95,-36.8C359,-35.18 349.88,-33.53 341.04,-31.93"/>
<polygon fill="#63b8ff" stroke="#63b8ff" points="367.5,-40.28 377.97,-38.62 368.75,-33.39 367.5,-40.28"/>
</a>
</g>
</g>
<!-- Node4 -->
<g id="Node000004" class="node">
<title>Node4</title>
<g id="a_Node000004"><a xlink:href="../../d3/d1e/classIEEE_1_1__1588_1_1PTP_1_1__2019_1_1MessageFlowCoordinator.html#ae5378f7adda0a2d9a93dcb7979b1a44b" target="_top" xlink:title="Start message flow processing.">
<polygon fill="white" stroke="#666666" points="176,-41 0,-41 0,0 176,0 176,-41"/>
<text text-anchor="start" x="8" y="-29" font-family="Helvetica,sans-Serif" font-size="10.00">IEEE::_1588::PTP::</text>
<text text-anchor="start" x="8" y="-18" font-family="Helvetica,sans-Serif" font-size="10.00">_2019::MessageFlowCoordinator</text>
<text text-anchor="middle" x="88" y="-7" font-family="Helvetica,sans-Serif" font-size="10.00">::start</text>
</a>
</g>
</g>
<!-- Node3&#45;&gt;Node4 -->
<g id="edge3_Node000003_Node000004" class="edge">
<title>Node3&#45;&gt;Node4</title>
<g id="a_edge3_Node000003_Node000004"><a xlink:title=" ">
<path fill="none" stroke="#63b8ff" d="M202.78,-20.5C193.99,-20.5 184.96,-20.5 176.01,-20.5"/>
<polygon fill="#63b8ff" stroke="#63b8ff" points="202.95,-24 212.95,-20.5 202.95,-17 202.95,-24"/>
</a>
</g>
</g>
</g>
</svg>
