<?xml version="1.0" encoding="UTF-8" standalone="no"?>
<!DOCTYPE svg PUBLIC "-//W3C//DTD SVG 1.1//EN"
 "http://www.w3.org/Graphics/SVG/1.1/DTD/svg11.dtd">
<!-- Generated by graphviz version 2.43.0 (0)
 -->
<!-- Title: /home/runner/work/IEEE_1588_2019/IEEE_1588_2019/include/clocks.hpp Pages: 1 -->
<!--zoomable 236 -->

<svg id="main" version="1.1" xmlns="http://www.w3.org/2000/svg" xmlns:xlink="http://www.w3.org/1999/xlink" xml:space="preserve" onload="init(evt)">
<style type="text/css"><![CDATA[
.node, .edge {opacity: 0.7;}
.node.selected, .edge.selected {opacity: 1;}
.edge:hover path { stroke: red; }
.edge:hover polygon { stroke: red; fill: red; }
]]></style>

<defs>
  <circle id="rim" cx="0" cy="0" r="7"/>
  <circle id="rim2" cx="0" cy="0" r="3.5"/>
  <g id="zoomPlus">
    <use xlink:href="#rim" fill="#404040"><set attributeName="fill" to="#808080" begin="zoomplus.mouseover" end="zoomplus.mouseout"/></use>
    <path d="M-4,0h8M0,-4v8" fill="none" stroke="white" stroke-width="1.5" pointer-events="none"/>
  </g>
  <g id="zoomMin">
    <use xlink:href="#rim" fill="#404040"><set attributeName="fill" to="#808080" begin="zoomminus.mouseover" end="zoomminus.mouseout"/></use>
    <path d="M-4,0h8" fill="none" stroke="white" stroke-width="1.5" pointer-events="none"/>
  </g>
  <g id="arrowUp" transform="translate(30 24)">
    <use xlink:href="#rim"/>
    <path pointer-events="none" fill="none" stroke="white" stroke-width="1.5" d="M0,-3.0v7 M-2.5,-0.5L0,-3.0L2.5,-0.5"/>
  </g>
  <g id="arrowRight" transform="rotate(90) translate(36 -43)">
    <use xlink:href="#rim"/>
    <path pointer-events="none" fill="none" stroke="white" stroke-width="1.5" d="M0,-3.0v7 M-2.5,-0.5L0,-3.0L2.5,-0.5"/>
  </g>
  <g id="arrowDown" transform="rotate(180) translate(-30 -48)">
    <use xlink:href="#rim"/>
    <path pointer-events="none" fill="none" stroke="white" stroke-width="1.5" d="M0,-3.0v7 M-2.5,-0.5L0,-3.0L2.5,-0.5"/>
  </g>
  <g id="arrowLeft" transform="rotate(270) translate(-36 17)">
    <use xlink:href="#rim"/>
    <path pointer-events="none" fill="none" stroke="white" stroke-width="1.5" d="M0,-3.0v7 M-2.5,-0.5L0,-3.0L2.5,-0.5"/>
  </g>
  <g id="resetDef">
    <use xlink:href="#rim2" fill="#404040"><set attributeName="fill" to="#808080" begin="reset.mouseover" end="reset.mouseout"/></use>
  </g>
</defs>
<script type="application/ecmascript">
var viewWidth = 863;
var viewHeight = 236;
var sectionId = 'dynsection-0';
</script>
<script type="application/ecmascript" xlink:href="../../svg.min.js"/>
<svg id="graph" class="graph">
<g id="viewport">
<title>/home/runner/work/IEEE_1588_2019/IEEE_1588_2019/include/clocks.hpp</title>
<!-- Node1 -->
<g id="Node000001" class="node">
<title>Node1</title>
<g id="a_Node000001"><a xlink:title="IEEE 1588&#45;2019 PTP Clock State Machines Implementation.">
<polygon fill="#999999" stroke="#666666" points="461.68,-228 303.68,-228 303.68,-187 461.68,-187 461.68,-228"/>
<text text-anchor="start" x="311.68" y="-216" font-family="Helvetica,sans-Serif" font-size="10.00">/home/runner/work/IEEE</text>
<text text-anchor="start" x="311.68" y="-205" font-family="Helvetica,sans-Serif" font-size="10.00">_1588_2019/IEEE_1588_2019</text>
<text text-anchor="middle" x="382.68" y="-194" font-family="Helvetica,sans-Serif" font-size="10.00">/include/clocks.hpp</text>
</a>
</g>
</g>
<!-- Node2 -->
<g id="Node000002" class="node">
<title>Node2</title>
<g id="a_Node000002"><a xlink:href="../../dd/de3/types_8hpp.html" target="_top" xlink:title="IEEE 1588&#45;2019 PTP v2.1 fundamental data types and constants.">
<polygon fill="white" stroke="#666666" points="140.18,-85 27.18,-85 27.18,-55 140.18,-55 140.18,-85"/>
<text text-anchor="start" x="35.18" y="-73" font-family="Helvetica,sans-Serif" font-size="10.00">IEEE/1588/PTP/2019</text>
<text text-anchor="middle" x="83.68" y="-62" font-family="Helvetica,sans-Serif" font-size="10.00">/types.hpp</text>
</a>
</g>
</g>
<!-- Node1&#45;&gt;Node2 -->
<g id="edge1_Node000001_Node000002" class="edge">
<title>Node1&#45;&gt;Node2</title>
<g id="a_edge1_Node000001_Node000002"><a xlink:title=" ">
<path fill="none" stroke="#63b8ff" d="M303.66,-205.39C211.59,-202.22 67.68,-190.84 33.68,-151 17.88,-132.5 37.25,-108.53 56.29,-91.67"/>
<polygon fill="#63b8ff" stroke="#63b8ff" points="58.66,-94.26 64.05,-85.14 54.15,-88.91 58.66,-94.26"/>
</a>
</g>
</g>
<!-- Node3 -->
<g id="Node000003" class="node">
<title>Node3</title>
<g id="a_Node000003"><a xlink:title=" ">
<polygon fill="#e0e0e0" stroke="#999999" points="345.68,-19 295.68,-19 295.68,0 345.68,0 345.68,-19"/>
<text text-anchor="middle" x="320.68" y="-7" font-family="Helvetica,sans-Serif" font-size="10.00">cstdint</text>
</a>
</g>
</g>
<!-- Node1&#45;&gt;Node3 -->
<g id="edge9_Node000001_Node000003" class="edge">
<title>Node1&#45;&gt;Node3</title>
<g id="a_edge9_Node000001_Node000003"><a xlink:title=" ">
<path fill="none" stroke="#63b8ff" d="M390.4,-186.66C396.13,-168.53 401.31,-141.52 390.68,-121 377.91,-96.37 355.41,-107.85 339.68,-85 328.23,-68.37 323.68,-45.38 321.87,-29.35"/>
<polygon fill="#63b8ff" stroke="#63b8ff" points="325.33,-28.76 320.98,-19.1 318.36,-29.37 325.33,-28.76"/>
</a>
</g>
</g>
<!-- Node4 -->
<g id="Node000004" class="node">
<title>Node4</title>
<g id="a_Node000004"><a xlink:title=" ">
<polygon fill="#e0e0e0" stroke="#999999" points="180.68,-19 138.68,-19 138.68,0 180.68,0 180.68,-19"/>
<text text-anchor="middle" x="159.68" y="-7" font-family="Helvetica,sans-Serif" font-size="10.00">array</text>
</a>
</g>
</g>
<!-- Node1&#45;&gt;Node4 -->
<g id="edge11_Node000001_Node000004" class="edge">
<title>Node1&#45;&gt;Node4</title>
<g id="a_edge11_Node000001_Node000004"><a xlink:title=" ">
<path fill="none" stroke="#63b8ff" d="M303.57,-205.11C209.91,-201.68 61.89,-190.04 24.68,-151 -4.84,-120.03 -7.65,-89.48 17.68,-55 24.41,-45.83 89.12,-28.21 128.83,-18.11"/>
<polygon fill="#63b8ff" stroke="#63b8ff" points="129.73,-21.49 138.57,-15.65 128.02,-14.7 129.73,-21.49"/>
</a>
</g>
</g>
<!-- Node6 -->
<g id="Node000006" class="node">
<title>Node6</title>
<g id="a_Node000006"><a xlink:href="../../d4/d64/messages_8hpp.html" target="_top" xlink:title="IEEE 1588&#45;2019 PTP Message Format Structures.">
<polygon fill="white" stroke="#666666" points="156.18,-151 43.18,-151 43.18,-121 156.18,-121 156.18,-151"/>
<text text-anchor="start" x="51.18" y="-139" font-family="Helvetica,sans-Serif" font-size="10.00">IEEE/1588/PTP/2019</text>
<text text-anchor="middle" x="99.68" y="-128" font-family="Helvetica,sans-Serif" font-size="10.00">/messages.hpp</text>
</a>
</g>
</g>
<!-- Node1&#45;&gt;Node6 -->
<g id="edge5_Node000001_Node000006" class="edge">
<title>Node1&#45;&gt;Node6</title>
<g id="a_edge5_Node000001_Node000006"><a xlink:title=" ">
<path fill="none" stroke="#63b8ff" d="M303.47,-187.05C260.27,-176.44 207.38,-163.45 166.31,-153.36"/>
<polygon fill="#63b8ff" stroke="#63b8ff" points="166.96,-149.92 156.41,-150.93 165.29,-156.72 166.96,-149.92"/>
</a>
</g>
</g>
<!-- Node7 -->
<g id="Node000007" class="node">
<title>Node7</title>
<g id="a_Node000007"><a xlink:title=" ">
<polygon fill="#e0e0e0" stroke="#999999" points="381.68,-145.5 331.68,-145.5 331.68,-126.5 381.68,-126.5 381.68,-145.5"/>
<text text-anchor="middle" x="356.68" y="-133.5" font-family="Helvetica,sans-Serif" font-size="10.00">cstring</text>
</a>
</g>
</g>
<!-- Node1&#45;&gt;Node7 -->
<g id="edge10_Node000001_Node000007" class="edge">
<title>Node1&#45;&gt;Node7</title>
<g id="a_edge10_Node000001_Node000007"><a xlink:title=" ">
<path fill="none" stroke="#63b8ff" d="M375.3,-186.77C371.59,-176.87 367.13,-164.95 363.51,-155.26"/>
<polygon fill="#63b8ff" stroke="#63b8ff" points="366.76,-153.96 359.98,-145.82 360.2,-156.41 366.76,-153.96"/>
</a>
</g>
</g>
<!-- Node8 -->
<g id="Node000008" class="node">
<title>Node8</title>
<g id="a_Node000008"><a xlink:href="../../d6/da3/logger_8hpp.html" target="_top" xlink:title=" ">
<polygon fill="white" stroke="#666666" points="313.18,-145.5 174.18,-145.5 174.18,-126.5 313.18,-126.5 313.18,-145.5"/>
<text text-anchor="middle" x="243.68" y="-133.5" font-family="Helvetica,sans-Serif" font-size="10.00">Common/utils/logger.hpp</text>
</a>
</g>
</g>
<!-- Node1&#45;&gt;Node8 -->
<g id="edge12_Node000001_Node000008" class="edge">
<title>Node1&#45;&gt;Node8</title>
<g id="a_edge12_Node000001_Node000008"><a xlink:title=" ">
<path fill="none" stroke="#63b8ff" d="M343.59,-186.96C320.02,-175.17 290.64,-160.48 269.86,-150.09"/>
<polygon fill="#63b8ff" stroke="#63b8ff" points="271.19,-146.85 260.69,-145.5 268.06,-153.11 271.19,-146.85"/>
</a>
</g>
</g>
<!-- Node9 -->
<g id="Node000009" class="node">
<title>Node9</title>
<g id="a_Node000009"><a xlink:href="../../d4/d35/fault__injection_8hpp.html" target="_top" xlink:title=" ">
<polygon fill="white" stroke="#666666" points="698.68,-85 588.68,-85 588.68,-55 698.68,-55 698.68,-85"/>
<text text-anchor="start" x="596.68" y="-73" font-family="Helvetica,sans-Serif" font-size="10.00">Common/utils/fault</text>
<text text-anchor="middle" x="643.68" y="-62" font-family="Helvetica,sans-Serif" font-size="10.00">_injection.hpp</text>
</a>
</g>
</g>
<!-- Node1&#45;&gt;Node9 -->
<g id="edge14_Node000001_Node000009" class="edge">
<title>Node1&#45;&gt;Node9</title>
<g id="a_edge14_Node000001_Node000009"><a xlink:title=" ">
<path fill="none" stroke="#63b8ff" d="M461.91,-197.42C523.38,-188.76 601.84,-173.66 624.68,-151 639.2,-136.59 643.41,-113.26 644.32,-95.5"/>
<polygon fill="#63b8ff" stroke="#63b8ff" points="647.82,-95.35 644.51,-85.29 640.82,-95.22 647.82,-95.35"/>
</a>
</g>
</g>
<!-- Node11 -->
<g id="Node000011" class="node">
<title>Node11</title>
<g id="a_Node000011"><a xlink:href="../../d4/d44/metrics_8hpp.html" target="_top" xlink:title=" ">
<polygon fill="white" stroke="#666666" points="494.68,-79.5 348.68,-79.5 348.68,-60.5 494.68,-60.5 494.68,-79.5"/>
<text text-anchor="middle" x="421.68" y="-67.5" font-family="Helvetica,sans-Serif" font-size="10.00">Common/utils/metrics.hpp</text>
</a>
</g>
</g>
<!-- Node1&#45;&gt;Node11 -->
<g id="edge17_Node000001_Node000011" class="edge">
<title>Node1&#45;&gt;Node11</title>
<g id="a_edge17_Node000001_Node000011"><a xlink:title=" ">
<path fill="none" stroke="#63b8ff" d="M401.94,-186.96C410.35,-177.05 419.29,-164.31 423.68,-151 430.32,-130.84 428.32,-106.26 425.63,-89.71"/>
<polygon fill="#63b8ff" stroke="#63b8ff" points="429.04,-88.87 423.76,-79.68 422.15,-90.16 429.04,-88.87"/>
</a>
</g>
</g>
<!-- Node12 -->
<g id="Node000012" class="node">
<title>Node12</title>
<g id="a_Node000012"><a xlink:href="../../de/d18/health_8hpp.html" target="_top" xlink:title=" ">
<polygon fill="white" stroke="#666666" points="615.68,-145.5 475.68,-145.5 475.68,-126.5 615.68,-126.5 615.68,-145.5"/>
<text text-anchor="middle" x="545.68" y="-133.5" font-family="Helvetica,sans-Serif" font-size="10.00">Common/utils/health.hpp</text>
</a>
</g>
</g>
<!-- Node1&#45;&gt;Node12 -->
<g id="edge21_Node000001_Node000012" class="edge">
<title>Node1&#45;&gt;Node12</title>
<g id="a_edge21_Node000001_Node000012"><a xlink:title=" ">
<path fill="none" stroke="#63b8ff" d="M428.52,-186.96C456.65,-174.96 491.86,-159.95 516.29,-149.53"/>
<polygon fill="#63b8ff" stroke="#63b8ff" points="517.91,-152.65 525.73,-145.5 515.16,-146.21 517.91,-152.65"/>
</a>
</g>
</g>
<!-- Node13 -->
<g id="Node000013" class="node">
<title>Node13</title>
<g id="a_Node000013"><a xlink:href="../../d8/dfd/config_8hpp.html" target="_top" xlink:title=" ">
<polygon fill="white" stroke="#666666" points="854.68,-79.5 716.68,-79.5 716.68,-60.5 854.68,-60.5 854.68,-79.5"/>
<text text-anchor="middle" x="785.68" y="-67.5" font-family="Helvetica,sans-Serif" font-size="10.00">Common/utils/config.hpp</text>
</a>
</g>
</g>
<!-- Node1&#45;&gt;Node13 -->
<g id="edge26_Node000001_Node000013" class="edge">
<title>Node1&#45;&gt;Node13</title>
<g id="a_edge26_Node000001_Node000013"><a xlink:title=" ">
<path fill="none" stroke="#63b8ff" d="M461.89,-196.36C515.07,-187.98 586.03,-173.69 645.68,-151 690.85,-133.81 738.77,-103.42 765.18,-85.46"/>
<polygon fill="#63b8ff" stroke="#63b8ff" points="767.34,-88.22 773.59,-79.66 763.37,-82.45 767.34,-88.22"/>
</a>
</g>
</g>
<!-- Node2&#45;&gt;Node3 -->
<g id="edge2_Node000002_Node000003" class="edge">
<title>Node2&#45;&gt;Node3</title>
<g id="a_edge2_Node000002_Node000003"><a xlink:title=" ">
<path fill="none" stroke="#63b8ff" d="M140.45,-54.99C185.51,-43.86 247.09,-28.66 285.35,-19.22"/>
<polygon fill="#63b8ff" stroke="#63b8ff" points="286.62,-22.51 295.49,-16.72 284.94,-15.72 286.62,-22.51"/>
</a>
</g>
</g>
<!-- Node2&#45;&gt;Node4 -->
<g id="edge3_Node000002_Node000004" class="edge">
<title>Node2&#45;&gt;Node4</title>
<g id="a_edge3_Node000002_Node000004"><a xlink:title=" ">
<path fill="none" stroke="#63b8ff" d="M102.08,-54.84C113.56,-46 128.33,-34.63 140.04,-25.62"/>
<polygon fill="#63b8ff" stroke="#63b8ff" points="142.5,-28.14 148.29,-19.27 138.23,-22.59 142.5,-28.14"/>
</a>
</g>
</g>
<!-- Node5 -->
<g id="Node000005" class="node">
<title>Node5</title>
<g id="a_Node000005"><a xlink:title=" ">
<polygon fill="#e0e0e0" stroke="#999999" points="110.18,-19 57.18,-19 57.18,0 110.18,0 110.18,-19"/>
<text text-anchor="middle" x="83.68" y="-7" font-family="Helvetica,sans-Serif" font-size="10.00">cstddef</text>
</a>
</g>
</g>
<!-- Node2&#45;&gt;Node5 -->
<g id="edge4_Node000002_Node000005" class="edge">
<title>Node2&#45;&gt;Node5</title>
<g id="a_edge4_Node000002_Node000005"><a xlink:title=" ">
<path fill="none" stroke="#63b8ff" d="M83.68,-54.84C83.68,-47.21 83.68,-37.7 83.68,-29.45"/>
<polygon fill="#63b8ff" stroke="#63b8ff" points="87.18,-29.27 83.68,-19.27 80.18,-29.27 87.18,-29.27"/>
</a>
</g>
</g>
<!-- Node6&#45;&gt;Node2 -->
<g id="edge6_Node000006_Node000002" class="edge">
<title>Node6&#45;&gt;Node2</title>
<g id="a_edge6_Node000006_Node000002"><a xlink:title=" ">
<path fill="none" stroke="#63b8ff" d="M96.13,-120.8C94.24,-113.26 91.87,-103.78 89.71,-95.13"/>
<polygon fill="#63b8ff" stroke="#63b8ff" points="93.04,-94.02 87.22,-85.16 86.25,-95.71 93.04,-94.02"/>
</a>
</g>
</g>
<!-- Node6&#45;&gt;Node3 -->
<g id="edge7_Node000006_Node000003" class="edge">
<title>Node6&#45;&gt;Node3</title>
<g id="a_edge7_Node000006_Node000003"><a xlink:title=" ">
<path fill="none" stroke="#63b8ff" d="M124.6,-120.96C167.42,-96.84 254.41,-47.83 296.62,-24.05"/>
<polygon fill="#63b8ff" stroke="#63b8ff" points="298.4,-27.07 305.4,-19.11 294.96,-20.97 298.4,-27.07"/>
</a>
</g>
</g>
<!-- Node6&#45;&gt;Node4 -->
<g id="edge8_Node000006_Node000004" class="edge">
<title>Node6&#45;&gt;Node4</title>
<g id="a_edge8_Node000006_Node000004"><a xlink:title=" ">
<path fill="none" stroke="#63b8ff" d="M118.95,-120.98C129.82,-111.97 142.6,-99.3 149.68,-85 158.34,-67.49 160.29,-44.99 160.42,-29.32"/>
<polygon fill="#63b8ff" stroke="#63b8ff" points="163.92,-29.23 160.26,-19.28 156.92,-29.34 163.92,-29.23"/>
</a>
</g>
</g>
<!-- Node8&#45;&gt;Node3 -->
<g id="edge13_Node000008_Node000003" class="edge">
<title>Node8&#45;&gt;Node3</title>
<g id="a_edge13_Node000008_Node000003"><a xlink:title=" ">
<path fill="none" stroke="#63b8ff" d="M248.97,-126.44C261.5,-106.19 293.17,-54.97 309.92,-27.9"/>
<polygon fill="#63b8ff" stroke="#63b8ff" points="313.07,-29.46 315.35,-19.12 307.11,-25.78 313.07,-29.46"/>
</a>
</g>
</g>
<!-- Node9&#45;&gt;Node3 -->
<g id="edge16_Node000009_Node000003" class="edge">
<title>Node9&#45;&gt;Node3</title>
<g id="a_edge16_Node000009_Node000003"><a xlink:title=" ">
<path fill="none" stroke="#63b8ff" d="M588.52,-59.01C522,-46.96 412.14,-27.06 356.03,-16.9"/>
<polygon fill="#63b8ff" stroke="#63b8ff" points="356.35,-13.4 345.88,-15.06 355.1,-20.29 356.35,-13.4"/>
</a>
</g>
</g>
<!-- Node10 -->
<g id="Node000010" class="node">
<title>Node10</title>
<g id="a_Node000010"><a xlink:title=" ">
<polygon fill="#e0e0e0" stroke="#999999" points="626.68,-19 576.68,-19 576.68,0 626.68,0 626.68,-19"/>
<text text-anchor="middle" x="601.68" y="-7" font-family="Helvetica,sans-Serif" font-size="10.00">atomic</text>
</a>
</g>
</g>
<!-- Node9&#45;&gt;Node10 -->
<g id="edge15_Node000009_Node000010" class="edge">
<title>Node9&#45;&gt;Node10</title>
<g id="a_edge15_Node000009_Node000010"><a xlink:title=" ">
<path fill="none" stroke="#63b8ff" d="M633.51,-54.84C627.6,-46.61 620.11,-36.18 613.89,-27.51"/>
<polygon fill="#63b8ff" stroke="#63b8ff" points="616.65,-25.35 607.97,-19.27 610.96,-29.43 616.65,-25.35"/>
</a>
</g>
</g>
<!-- Node11&#45;&gt;Node3 -->
<g id="edge19_Node000011_Node000003" class="edge">
<title>Node11&#45;&gt;Node3</title>
<g id="a_edge19_Node000011_Node000003"><a xlink:title=" ">
<path fill="none" stroke="#63b8ff" d="M406.78,-60.37C390.36,-50.86 363.75,-35.45 344.45,-24.27"/>
<polygon fill="#63b8ff" stroke="#63b8ff" points="346.05,-21.15 335.64,-19.17 342.54,-27.21 346.05,-21.15"/>
</a>
</g>
</g>
<!-- Node11&#45;&gt;Node4 -->
<g id="edge20_Node000011_Node000004" class="edge">
<title>Node11&#45;&gt;Node4</title>
<g id="a_edge20_Node000011_Node000004"><a xlink:title=" ">
<path fill="none" stroke="#63b8ff" d="M383.58,-60.49C331.49,-48.86 239,-28.21 190.82,-17.45"/>
<polygon fill="#63b8ff" stroke="#63b8ff" points="191.49,-14.02 180.96,-15.25 189.96,-20.85 191.49,-14.02"/>
</a>
</g>
</g>
<!-- Node11&#45;&gt;Node10 -->
<g id="edge18_Node000011_Node000010" class="edge">
<title>Node11&#45;&gt;Node10</title>
<g id="a_edge18_Node000011_Node000010"><a xlink:title=" ">
<path fill="none" stroke="#63b8ff" d="M447.85,-60.49C479.27,-50.28 532.06,-33.13 566.88,-21.81"/>
<polygon fill="#63b8ff" stroke="#63b8ff" points="568.21,-25.06 576.63,-18.64 566.04,-18.4 568.21,-25.06"/>
</a>
</g>
</g>
<!-- Node12&#45;&gt;Node3 -->
<g id="edge23_Node000012_Node000003" class="edge">
<title>Node12&#45;&gt;Node3</title>
<g id="a_edge23_Node000012_Node000003"><a xlink:title=" ">
<path fill="none" stroke="#63b8ff" d="M543.7,-126.49C539.42,-110.01 527.66,-73.73 503.68,-55 460.62,-21.38 395.82,-12.69 356,-10.71"/>
<polygon fill="#63b8ff" stroke="#63b8ff" points="356.08,-7.21 345.95,-10.32 355.81,-14.2 356.08,-7.21"/>
</a>
</g>
</g>
<!-- Node12&#45;&gt;Node9 -->
<g id="edge25_Node000012_Node000009" class="edge">
<title>Node12&#45;&gt;Node9</title>
<g id="a_edge25_Node000012_Node000009"><a xlink:title=" ">
<path fill="none" stroke="#63b8ff" d="M558.89,-126.37C572.81,-117.28 595.2,-102.66 613.48,-90.72"/>
<polygon fill="#63b8ff" stroke="#63b8ff" points="615.6,-93.51 622.06,-85.12 611.78,-87.65 615.6,-93.51"/>
</a>
</g>
</g>
<!-- Node12&#45;&gt;Node10 -->
<g id="edge22_Node000012_Node000010" class="edge">
<title>Node12&#45;&gt;Node10</title>
<g id="a_edge22_Node000012_Node000010"><a xlink:title=" ">
<path fill="none" stroke="#63b8ff" d="M549.29,-126.05C555.32,-111.18 567.96,-80.51 579.68,-55 583.72,-46.19 588.46,-36.53 592.5,-28.47"/>
<polygon fill="#63b8ff" stroke="#63b8ff" points="595.75,-29.8 597.14,-19.29 589.51,-26.64 595.75,-29.8"/>
</a>
</g>
</g>
<!-- Node12&#45;&gt;Node11 -->
<g id="edge24_Node000012_Node000011" class="edge">
<title>Node12&#45;&gt;Node11</title>
<g id="a_edge24_Node000012_Node000011"><a xlink:title=" ">
<path fill="none" stroke="#63b8ff" d="M528.95,-126.37C508.06,-115.59 472.09,-97.02 447.61,-84.38"/>
<polygon fill="#63b8ff" stroke="#63b8ff" points="449.02,-81.18 438.53,-79.7 445.81,-87.4 449.02,-81.18"/>
</a>
</g>
</g>
<!-- Node13&#45;&gt;Node10 -->
<g id="edge27_Node000013_Node000010" class="edge">
<title>Node13&#45;&gt;Node10</title>
<g id="a_edge27_Node000013_Node000010"><a xlink:title=" ">
<path fill="none" stroke="#63b8ff" d="M758.92,-60.49C726.63,-50.23 672.23,-32.93 636.64,-21.62"/>
<polygon fill="#63b8ff" stroke="#63b8ff" points="637.28,-18.15 626.69,-18.45 635.16,-24.82 637.28,-18.15"/>
</a>
</g>
</g>
</g>
</svg>

<g id="navigator" transform="translate(0 0)" fill="#404254">
  <rect fill="#f2f5e9" fill-opacity="0.5" stroke="#606060" stroke-width=".5" x="0" y="0" width="60" height="60"/>
  <use id="zoomplus" xlink:href="#zoomPlus" x="17" y="9" onmousedown="handleZoom(evt,'in')"/>
  <use id="zoomminus" xlink:href="#zoomMin" x="42" y="9" onmousedown="handleZoom(evt,'out')"/>
  <use id="reset" xlink:href="#resetDef" x="30" y="36" onmousedown="handleReset()"/>
   <use id="arrowup" xlink:href="#arrowUp" x="0" y="0" onmousedown="handlePan(0,-1)"/>
  <use id="arrowright" xlink:href="#arrowRight" x="0" y="0" onmousedown="handlePan(1,0)"/>
  <use id="arrowdown" xlink:href="#arrowDown" x="0" y="0" onmousedown="handlePan(0,1)"/>
  <use id="arrowleft" xlink:href="#arrowLeft" x="0" y="0" onmousedown="handlePan(-1,0)"/>
</g>
<svg viewBox="0 0 15 15" width="100%" height="30px" preserveAspectRatio="xMaxYMin meet">
 <g id="arrow_out" transform="scale(0.3 0.3)">
  <a xlink:href="clocks_8hpp__incl_org.svg" target="_base">
   <rect id="button" ry="5" rx="5" y="6" x="6" height="38" width="38"
        fill="#f2f5e9" fill-opacity="0.5" stroke="#606060" stroke-width="1.0"/>
   <path id="arrow"
     d="M 11.500037,31.436501 C 11.940474,20.09759 22.043105,11.32322 32.158766,21.979434 L 37.068811,17.246167 C 37.068811,17.246167 37.088388,32 37.088388,32 L 22.160133,31.978069 C 22.160133,31.978069 26.997745,27.140456 26.997745,27.140456 C 18.528582,18.264221 13.291696,25.230495 11.500037,31.436501 z"
     style="fill:#404040;"/>
  </a>
 </g>
</svg>

<style type='text/css'>
<![CDATA[
[data-mouse-over-selected='false'] { opacity: 0.7; }
[data-mouse-over-selected='true']  { opacity: 1.0; }
]]>
</style>
<script type="application/ecmascript"><![CDATA[
document.addEventListener('DOMContentLoaded', (event) => {
  highlightEdges();
  highlightAdjacentNodes();
});
]]></script>
</svg>
